<?xml version="1.0" standalone="no"?>
<!DOCTYPE svg PUBLIC "-//W3C//DTD SVG 1.1//EN" "http://www.w3.org/Graphics/SVG/1.1/DTD/svg11.dtd" >
<svg xmlns="http://www.w3.org/2000/svg" xmlns:xlink="http://www.w3.org/1999/xlink" version="1.1">
<metadata>
Created by FontForge 20170731 at Fri Sep  7 16:47:53 2018
 By Aleksey,,,
Copyright 2018 The Chakra Petch Project Authors (https://github.com/m4rc1e/Chakra-Petch.git)
</metadata>
<defs>
<font id="ChakraPetch-Light" horiz-adv-x="0" >
  <font-face 
    font-family="Chakra Petch Light"
    font-weight="300"
    font-stretch="normal"
    units-per-em="1000"
    panose-1="0 0 4 0 0 0 0 0 0 0"
    ascent="800"
    descent="-200"
    x-height="498"
    cap-height="700"
    bbox="-596 -513 1115 1226"
    underline-thickness="50"
    underline-position="-150"
    unicode-range="U+000D-FB02"
  />
<missing-glyph horiz-adv-x="589" 
d="M90 712h409v-712h-409v712zM443 54v603h-297v-603h297z" />
    <glyph glyph-name="fi" unicode="fi" horiz-adv-x="560" 
d="M480 0h-56v448h-243v-448h-56v448h-90v50h90v123l82 82h131v-49h-107l-50 -50v-106h299v-498z" />
    <glyph glyph-name="fl" unicode="fl" horiz-adv-x="578" 
d="M493 0h-56v662h-206l-50 -50v-114h157v-50h-157v-448h-56v448h-90v50h90v130l82 82h286v-710z" />
    <glyph glyph-name="uni0E240E45" unicode="&#xe24;&#xe45;" horiz-adv-x="910" 
d="M825 481v-691h-56v668l-48 48h-178l-48 -48v-668h-56v669l-48 48h-225l-43 -42l84 -85l-68 -85v-84l-3 -45l19 8h52l54 -52v-68l-54 -54h-70l-54 54v255l59 71l-87 85l93 93h271l50 -50l50 50h230zM127 108v-42l26 -25h38l26 25v42l-26 25h-38z" />
    <glyph glyph-name="uni0E260E45" unicode="&#xe26;&#xe45;" horiz-adv-x="950" 
d="M865 481v-691h-56v668l-48 48h-178l-48 -48v-668h-56v669l-48 48h-225l-43 -42l96 -85l-50 -84v-242l-54 -54h-66l-54 54v66l54 52h53l15 -8l-4 40v106l43 68l-101 87l93 93h271l50 -50l50 50h230zM166 107l-25 25h-37l-26 -25v-41l26 -25h37l25 25v41z" />
    <glyph glyph-name=".notdef" horiz-adv-x="589" 
d="M90 712h409v-712h-409v712zM443 54v603h-297v-603h297z" />
    <glyph glyph-name=".null" 
 />
    <glyph glyph-name="nonmarkingreturn" unicode="&#xd;" horiz-adv-x="236" 
 />
    <glyph glyph-name="NULL" 
 />
    <glyph glyph-name="NULL" 
 />
    <glyph glyph-name="space" unicode=" " horiz-adv-x="236" 
 />
    <glyph glyph-name="exclam" unicode="!" horiz-adv-x="236" 
d="M89 566v134h58v-134l-10 -416h-38zM80 22v33l22 22h32l22 -22v-33l-22 -22h-32z" />
    <glyph glyph-name="quotedbl" unicode="&#x22;" horiz-adv-x="304" 
d="M60 599v101h58v-101l-14 -129h-30zM187 599v101h58v-101l-14 -129h-30z" />
    <glyph glyph-name="numbersign" unicode="#" horiz-adv-x="679" 
d="M498 449l-33 -193h134v-49h-143l-35 -207h-54l35 207h-179l-35 -207h-55l35 207h-108v49h117l33 193h-130v49h138l35 202h55l-35 -202h179l34 202h55l-35 -202h113v-49h-121zM443 449h-178l-33 -193h179z" />
    <glyph glyph-name="dollar" unicode="$" horiz-adv-x="605" 
d="M540 299v-210l-89 -89h-114v-110h-54v110h-126l-87 87v53h57v-33l54 -55h102v282h-124l-87 86v193l87 87h124v110h54v-110h108l87 -87v-54h-57v35l-55 54h-83v-262h116zM283 386v262h-99l-55 -54v-154l55 -54h99zM483 279l-55 55h-91v-282h91l55 57v170z" />
    <glyph glyph-name="percent" unicode="%" horiz-adv-x="811" 
d="M60 393v247l61 60h144l60 -60v-247l-60 -61h-144zM571 700h60l-386 -700h-59zM242 378l32 32v213l-32 32h-99l-32 -32v-213l32 -32h99zM487 61v247l60 60h144l60 -60v-247l-60 -61h-144zM668 46l33 32v213l-33 32h-98l-33 -32v-213l33 -32h98z" />
    <glyph glyph-name="ampersand" unicode="&#x26;" horiz-adv-x="630" 
d="M70 87v199l70 70l-41 41v216l87 87h235l85 -85v-61h-57v41l-53 53h-187l-53 -53v-178l46 -46h276v64h57v-64h65v-51h-65v-233l-87 -87h-291zM423 52l55 55v213h-299l-52 -52v-161l55 -55h241z" />
    <glyph glyph-name="quotesingle" unicode="'" horiz-adv-x="178" 
d="M60 599v101h58v-101l-14 -129h-30z" />
    <glyph glyph-name="parenleft" unicode="(" horiz-adv-x="298" 
d="M85 -30v759l87 87h99v-50h-74l-56 -55v-723l56 -55h74v-50h-99z" />
    <glyph glyph-name="parenright" unicode=")" horiz-adv-x="298" 
d="M28 -117v50h74l55 55v723l-55 55h-74v50h98l87 -87v-759l-87 -87h-98z" />
    <glyph glyph-name="asterisk" unicode="*" horiz-adv-x="335" 
d="M151 561l-68 -52l-23 41l77 37l-77 37l23 41l68 -52l-7 88h48l-10 -88l70 52l23 -41l-78 -37l78 -37l-23 -41l-70 52l10 -87h-48z" />
    <glyph glyph-name="plus" unicode="+" horiz-adv-x="531" 
d="M471 239h-177v-176h-56v176h-178v50h178v176h56v-176h177v-50z" />
    <glyph glyph-name="comma" unicode="," horiz-adv-x="202" 
d="M96 0h-13l-25 25v37l25 24h37l24 -24v-62l-44 -121h-35z" />
    <glyph glyph-name="hyphen" unicode="-" horiz-adv-x="394" 
d="M60 277h274v-50h-274v50z" />
    <glyph glyph-name="period" unicode="." horiz-adv-x="202" 
d="M58 25v37l25 24h37l24 -24v-37l-24 -25h-37z" />
    <glyph glyph-name="slash" unicode="/" horiz-adv-x="447" 
d="M388 702h59l-387 -702h-60z" />
    <glyph glyph-name="zero" unicode="0" horiz-adv-x="620" 
d="M75 95v510l95 95h280l95 -95v-510l-95 -95h-280zM425 52l62 62v472l-62 62h-230l-62 -62v-472l62 -62h230z" />
    <glyph glyph-name="one" unicode="1" horiz-adv-x="350" 
d="M202 644l-157 -82v53l157 85h58v-700h-58v644z" />
    <glyph glyph-name="two" unicode="2" horiz-adv-x="542" 
d="M59 125l366 376v93l-55 54h-202l-55 -54v-48h-58v67l87 87h254l87 -87v-129l-366 -376v-56h370v-52h-428v125z" />
    <glyph glyph-name="three" unicode="3" horiz-adv-x="571" 
d="M55 87v68h58v-48l55 -55h220l55 55v166l-54 53h-194v52h195l53 53v163l-55 54h-214l-55 -54v-48h-58v67l87 87h266l87 -87v-198l-64 -63l64 -64v-201l-87 -87h-272z" />
    <glyph glyph-name="four" unicode="4" horiz-adv-x="547" 
d="M374 147h-344v107l310 446h92v-501h85v-52h-85v-147h-58v147zM374 198v450h-6l-282 -406v-44h288z" />
    <glyph glyph-name="five" unicode="5" horiz-adv-x="574" 
d="M65 87v67h58v-47l55 -55h218l55 55v213l-55 54h-321v326h420v-51h-363v-223h289l88 -88v-251l-87 -87h-270z" />
    <glyph glyph-name="six" unicode="6" horiz-adv-x="590" 
d="M75 87v526l87 87h272l87 -87v-67h-58v49l-54 53h-222l-54 -53v-260l89 89h216l87 -87v-250l-87 -87h-276zM413 52l54 54v212l-54 54h-172l-108 -108v-158l54 -54h226z" />
    <glyph glyph-name="seven" unicode="7" horiz-adv-x="490" 
d="M387 605v43h-362v52h420v-100l-271 -600h-60z" />
    <glyph glyph-name="eight" unicode="8" horiz-adv-x="606" 
d="M70 87v210l63 63l-53 53v200l87 87h272l87 -87v-200l-53 -53l63 -63v-210l-87 -87h-292zM417 382l51 51v161l-54 54h-222l-54 -54v-161l51 -51h228zM424 52l54 54v172l-54 53h-242l-54 -53v-172l54 -54h242z" />
    <glyph glyph-name="nine" unicode="9" horiz-adv-x="595" 
d="M80 87v72h58v-53l54 -54h216l54 54v247l-80 -80h-225l-87 87v253l87 87h276l87 -87v-526l-87 -87h-266zM365 325l97 97v172l-54 54h-226l-54 -54v-215l54 -54h183z" />
    <glyph glyph-name="colon" unicode=":" horiz-adv-x="202" 
d="M58 392v37l25 24h37l24 -24v-37l-24 -25h-37zM58 25v37l25 24h37l24 -24v-37l-24 -25h-37z" />
    <glyph glyph-name="semicolon" unicode=";" horiz-adv-x="202" 
d="M58 392v37l25 24h37l24 -24v-37l-24 -25h-37zM96 0h-13l-25 25v37l25 24h37l24 -24v-62l-44 -121h-35z" />
    <glyph glyph-name="less" unicode="&#x3c;" horiz-adv-x="582" 
d="M40 258v65l472 249v-57l-419 -222v-6l419 -230v-57z" />
    <glyph glyph-name="equal" unicode="=" horiz-adv-x="531" 
d="M60 373h411v-50h-411v50zM60 205h411v-50h-411v50z" />
    <glyph glyph-name="greater" unicode="&#x3e;" horiz-adv-x="582" 
d="M60 57l419 230v6l-419 222v57l472 -249v-65l-472 -258v57z" />
    <glyph glyph-name="question" unicode="?" horiz-adv-x="524" 
d="M227 314l181 176v87l-74 73h-163l-69 -69v-40h-57v58l101 101h213l105 -105v-122l-181 -176v-145h-56v162zM217 22v33l22 22h32l22 -22v-33l-22 -22h-32z" />
    <glyph glyph-name="at" unicode="@" horiz-adv-x="803" 
d="M505 143v42l-73 -74h-120l-86 87v183l87 87h147l47 -46v46h50v-307h68l62 62v214l-153 154h-258l-161 -159v-276l158 -158h397v-50h-423l-187 187v317l191 189h308l184 -184v-250l-96 -96h-110zM503 363l-57 56h-113l-52 -52v-154l53 -52h87l82 84v118z" />
    <glyph glyph-name="A" unicode="A" horiz-adv-x="605" 
d="M268 700h69l243 -700h-60l-68 200h-299l-68 -200h-60zM435 251l-131 386h-3l-130 -386h264z" />
    <glyph glyph-name="B" unicode="B" horiz-adv-x="638" 
d="M85 700h380l87 -86v-200l-50 -49l81 -81v-191l-93 -93h-405v700zM442 377l53 54v164l-54 54h-299v-272h300zM464 51l62 62v153l-62 61h-322v-276h322z" />
    <glyph glyph-name="C" unicode="C" horiz-adv-x="623" 
d="M75 105v490l105 105h292l101 -101v-53h-58v35l-68 67h-241l-73 -72v-451l73 -73h241l68 67v35h58v-53l-101 -101h-292z" />
    <glyph glyph-name="D" unicode="D" horiz-adv-x="656" 
d="M85 700h391l105 -105v-490l-105 -105h-391v700zM450 52l73 73v451l-73 72h-307v-596h307z" />
    <glyph glyph-name="E" unicode="E" horiz-adv-x="574" 
d="M85 700h434v-52h-376v-270h347v-52h-347v-274h376v-52h-434v700z" />
    <glyph glyph-name="F" unicode="F" horiz-adv-x="544" 
d="M85 700h424v-52h-366v-272h318v-52h-318v-324h-58v700z" />
    <glyph glyph-name="G" unicode="G" horiz-adv-x="644" 
d="M75 105v490l105 105h298l101 -101v-53h-58v35l-68 67h-247l-73 -72v-451l73 -73h243l72 72v182h-161v52h219v-253l-105 -105h-294z" />
    <glyph glyph-name="H" unicode="H" horiz-adv-x="666" 
d="M85 700h58v-325h380v325h58v-700h-58v323h-380v-323h-58v700z" />
    <glyph glyph-name="I" unicode="I" horiz-adv-x="238" 
d="M90 700h58v-700h-58v700z" />
    <glyph glyph-name="J" unicode="J" horiz-adv-x="548" 
d="M40 105v88h56v-68l73 -73h180l61 61v587h58v-605l-95 -95h-228z" />
    <glyph glyph-name="K" unicode="K" horiz-adv-x="603" 
d="M85 700h58v-324h179l179 324h62l-193 -349l208 -351h-63l-193 324h-179v-324h-58v700z" />
    <glyph glyph-name="L" unicode="L" horiz-adv-x="529" 
d="M85 700h58v-648h356v-52h-414v700z" />
    <glyph glyph-name="M" unicode="M" horiz-adv-x="769" 
d="M85 700h67l231 -569h2l231 569h68v-700h-55v592h-2l-218 -527h-49l-218 527h-2v-592h-55v700z" />
    <glyph glyph-name="N" unicode="N" horiz-adv-x="665" 
d="M85 700h58l380 -605h2v605h55v-700h-58l-380 606h-2v-606h-55v700z" />
    <glyph glyph-name="O" unicode="O" horiz-adv-x="668" 
d="M75 105v490l105 105h308l105 -105v-490l-105 -105h-308zM462 52l73 73v451l-73 72h-256l-73 -72v-451l73 -73h256z" />
    <glyph glyph-name="P" unicode="P" horiz-adv-x="614" 
d="M85 700h387l87 -87v-219l-88 -88h-328v-306h-58v700zM447 357l55 54v184l-55 54h-304v-292h304z" />
    <glyph glyph-name="Q" unicode="Q" horiz-adv-x="668" 
d="M606 -67l-36 -36l-102 103h-288l-105 105v490l105 105h308l105 -105v-490l-79 -79zM535 125v451l-73 72h-256l-73 -72v-451l73 -73h256z" />
    <glyph glyph-name="R" unicode="R" horiz-adv-x="643" 
d="M563 224v-224h-58v208l-89 95h-273v-303h-58v700h387l87 -87v-222l-78 -78zM143 354h304l55 54v187l-55 54h-304v-295z" />
    <glyph glyph-name="S" unicode="S" horiz-adv-x="605" 
d="M70 87v53h57v-33l54 -55h247l55 57v170l-55 55h-269l-87 86v193l87 87h286l87 -87v-54h-57v35l-55 54h-236l-55 -54v-154l55 -54h269l87 -87v-210l-89 -89h-294z" />
    <glyph glyph-name="T" unicode="T" horiz-adv-x="552" 
d="M247 649h-212v51h482v-51h-212v-649h-58v649z" />
    <glyph glyph-name="U" unicode="U" horiz-adv-x="668" 
d="M85 105v595h58v-576l72 -72h238l72 72v576h58v-595l-105 -105h-288z" />
    <glyph glyph-name="V" unicode="V" horiz-adv-x="611" 
d="M30 700h60l215 -636h2l214 636h60l-242 -700h-67z" />
    <glyph glyph-name="W" unicode="W" horiz-adv-x="851" 
d="M45 700h58l117 -619h2l179 619h56l174 -619h2l115 619h58l-137 -700h-64l-175 618h-2l-181 -618h-64z" />
    <glyph glyph-name="X" unicode="X" horiz-adv-x="582" 
d="M260 359l-230 341h65l197 -295l196 295h64l-229 -343l239 -357h-64l-207 311l-206 -311h-65z" />
    <glyph glyph-name="Y" unicode="Y" horiz-adv-x="572" 
d="M257 294l-237 406h62l203 -353h2l203 353h62l-237 -406v-294h-58v294z" />
    <glyph glyph-name="Z" unicode="Z" horiz-adv-x="560" 
d="M55 60l389 589v2h-379v49h440v-59l-389 -589v-2h389v-50h-447z" />
    <glyph glyph-name="bracketleft" unicode="[" horiz-adv-x="298" 
d="M85 816h186v-49h-130v-835h130v-49h-186v933z" />
    <glyph glyph-name="backslash" unicode="\" horiz-adv-x="462" 
d="M0 700h60l402 -700h-59z" />
    <glyph glyph-name="bracketright" unicode="]" horiz-adv-x="298" 
d="M28 -117v49h129v835h-129v49h185v-933h-185z" />
    <glyph glyph-name="asciicircum" unicode="^" horiz-adv-x="629" 
d="M280 700h67l222 -445h-58l-194 392h-6l-193 -392h-58z" />
    <glyph glyph-name="underscore" unicode="_" horiz-adv-x="404" 
d="M0 -10h404v-50h-404v50z" />
    <glyph glyph-name="grave" unicode="`" horiz-adv-x="240" 
d="M50 718h66l74 -153h-53z" />
    <glyph glyph-name="a" unicode="a" horiz-adv-x="543" 
d="M65 77v131l77 75h270v111l-55 55h-176l-56 -55v-45h-56v62l87 87h225l87 -87v-411h-55v97l-100 -97h-171zM300 50l112 110v73h-247l-44 -42v-98l44 -43h135z" />
    <glyph glyph-name="b" unicode="b" horiz-adv-x="570" 
d="M80 87v627h56v-325l108 109h169l87 -87v-324l-87 -87h-246zM389 51l55 54v289l-55 54h-127l-126 -127v-216l55 -54h198z" />
    <glyph glyph-name="c" unicode="c" horiz-adv-x="526" 
d="M70 87v324l87 87h232l87 -87v-51h-56v34l-55 54h-184l-55 -55v-288l55 -54h184l55 54v33h56v-51l-87 -87h-232z" />
    <glyph glyph-name="d" unicode="d" horiz-adv-x="572" 
d="M70 87v324l87 87h188l91 -79v295h56v-714h-55v99l-99 -99h-181zM324 51l112 112v194l-105 91h-150l-55 -54v-289l55 -54h143z" />
    <glyph glyph-name="e" unicode="e" horiz-adv-x="553" 
d="M70 87v324l87 87h243l88 -87v-177h-362v-128l56 -55h193l56 54v44h56v-61l-88 -88h-242zM432 283v110l-55 55h-196l-55 -55v-110h306z" />
    <glyph glyph-name="f" unicode="f" horiz-adv-x="368" 
d="M125 448h-90v50h90v116l82 82h131v-49h-107l-50 -50v-99h157v-50h-157v-448h-56v448z" />
    <glyph glyph-name="g" unicode="g" horiz-adv-x="572" 
d="M492 498v-630l-86 -86h-239l-72 71v57h56v-38l40 -40h190l55 54v204l-100 -90h-179l-87 87v324l87 87h183l97 -97v97h55zM436 334l-113 114h-142l-55 -54v-289l55 -54h142l113 103v180z" />
    <glyph glyph-name="h" unicode="h" horiz-adv-x="562" 
d="M80 714h56v-331l115 115h149l87 -87v-411h-56v394l-55 54h-108l-132 -132v-316h-56v714z" />
    <glyph glyph-name="i" unicode="i" horiz-adv-x="236" 
d="M75 615v38l25 25h36l25 -25v-38l-25 -25h-36zM90 498h56v-498h-56v498z" />
    <glyph glyph-name="j" unicode="j" horiz-adv-x="251" 
d="M90 615v38l25 25h36l25 -25v-38l-25 -25h-36zM-45 -168h95l55 55v611h56v-630l-86 -86h-120v50z" />
    <glyph glyph-name="k" unicode="k" horiz-adv-x="509" 
d="M80 714h56v-430h125l150 214h63l-167 -240l177 -258h-63l-161 234h-124v-234h-56v714z" />
    <glyph glyph-name="l" unicode="l" horiz-adv-x="226" 
d="M85 714h56v-714h-56v714z" />
    <glyph glyph-name="m" unicode="m" horiz-adv-x="829" 
d="M80 498h55v-102l103 102h116l79 -79l79 79h155l87 -87v-411h-56v394l-55 54h-117l-76 -76v-372h-55v388l-60 60h-84l-115 -115v-333h-56v498z" />
    <glyph glyph-name="n" unicode="n" horiz-adv-x="560" 
d="M80 498h55v-116l116 116h147l87 -87v-411h-56v393l-55 54h-106l-132 -131v-316h-56v498z" />
    <glyph glyph-name="o" unicode="o" horiz-adv-x="562" 
d="M70 87v324l87 87h248l87 -87v-324l-87 -87h-248zM381 51l55 54v289l-55 54h-200l-55 -54v-289l55 -54h200z" />
    <glyph glyph-name="p" unicode="p" horiz-adv-x="572" 
d="M80 498h55v-96l96 96h184l87 -87v-324l-87 -87h-191l-88 78v-290h-56v710zM391 51l55 54v288l-55 55h-143l-112 -112v-193l101 -92h154z" />
    <glyph glyph-name="q" unicode="q" horiz-adv-x="565" 
d="M434 106l-106 -106h-171l-87 87v324l87 87h246l87 -87v-623h-56v318zM312 51l122 124v219l-55 54h-198l-55 -54v-289l55 -54h131z" />
    <glyph glyph-name="r" unicode="r" horiz-adv-x="377" 
d="M80 498h55v-93l94 93h123v-50h-107l-109 -108v-340h-56v498z" />
    <glyph glyph-name="s" unicode="s" horiz-adv-x="504" 
d="M55 77v62h56v-45l45 -44h192l45 44v88l-45 45h-215l-74 74v120l78 77h225l77 -77v-62h-56v45l-45 45h-177l-46 -45v-84l46 -45h210l78 -78v-119l-78 -78h-239z" />
    <glyph glyph-name="t" unicode="t" horiz-adv-x="382" 
d="M125 87v362h-90v49h92v162h54v-162h156v-50h-156v-343l55 -55h101v-50h-125z" />
    <glyph glyph-name="u" unicode="u" horiz-adv-x="559" 
d="M75 87v411h56v-393l55 -54h105l132 132v315h56v-498h-55v116l-116 -116h-146z" />
    <glyph glyph-name="v" unicode="v" horiz-adv-x="469" 
d="M20 498h59l154 -444h4l154 444h58l-178 -498h-71z" />
    <glyph glyph-name="w" unicode="w" horiz-adv-x="694" 
d="M40 498h58l91 -433h3l129 433h56l117 -433h3l99 433h58l-124 -498h-62l-118 431h-2l-130 -431h-63z" />
    <glyph glyph-name="x" unicode="x" horiz-adv-x="479" 
d="M390 0l-150 210l-151 -210h-64l183 253l-178 245h64l146 -202l145 202h64l-177 -247l182 -251h-64z" />
    <glyph glyph-name="y" unicode="y" horiz-adv-x="561" 
d="M481 498v-629l-87 -86h-233l-71 70v57h56v-39l39 -38h185l55 54v231l-118 -118h-145l-87 87v411h56v-393l55 -54h105l134 135v312h56z" />
    <glyph glyph-name="z" unicode="z" horiz-adv-x="466" 
d="M45 55l313 394v2h-303v47h366v-55l-313 -393v-2h313v-48h-376v55z" />
    <glyph glyph-name="braceleft" unicode="{" horiz-adv-x="333" 
d="M128 -30v281l-78 81v37l78 81v279l87 87h91v-50h-66l-56 -55v-282l-73 -75v-8l73 -75v-283l56 -55h66v-50h-91z" />
    <glyph glyph-name="bar" unicode="|" horiz-adv-x="227" 
d="M85 846h57v-1050h-57v1050z" />
    <glyph glyph-name="braceright" unicode="}" horiz-adv-x="333" 
d="M28 -117v50h66l55 55v283l73 75v8l-73 75v282l-55 55h-66v50h90l87 -87v-279l78 -81v-37l-78 -81v-281l-87 -87h-90z" />
    <glyph glyph-name="asciitilde" unicode="~" horiz-adv-x="554" 
d="M206 295h-39l-51 -51v-35h-56v50l86 87h74l128 -97h37l53 53v34h56v-51l-86 -86h-74z" />
    <glyph glyph-name="uni00A0" unicode="&#xa0;" horiz-adv-x="236" 
 />
    <glyph glyph-name="exclamdown" unicode="&#xa1;" horiz-adv-x="236" 
d="M134 498l22 -22v-32l-22 -22h-32l-22 22v32l22 22h32zM137 349l10 -417v-134h-58v134l10 417h38z" />
    <glyph glyph-name="cent" unicode="&#xa2;" horiz-adv-x="526" 
d="M420 360v34l-55 54h-184l-55 -55v-288l55 -54h184l55 54v33h56v-51l-87 -87h-87v-100h-55v100h-90l-87 87v324l87 87h90v100h55v-100h87l87 -87v-51h-56z" />
    <glyph glyph-name="sterling" unicode="&#xa3;" horiz-adv-x="600" 
d="M560 51v-51h-483v111l77 86v127h-94v49h94v222l105 105h199l91 -91v-57h-57v40l-57 56h-150l-74 -73v-202h241v-49h-241v-140l-76 -87v-46h425z" />
    <glyph glyph-name="currency" unicode="&#xa4;" horiz-adv-x="627" 
d="M495 188l72 -72l-36 -36l-72 73l-26 -27h-238l-27 27l-72 -73l-36 36l72 73l-24 25v248l25 25l-73 74l36 36l73 -74l26 26h238l25 -25l73 73l36 -36l-73 -73l26 -26v-248zM468 227v221l-54 53h-200l-54 -53v-221l54 -53h200z" />
    <glyph glyph-name="yen" unicode="&#xa5;" horiz-adv-x="572" 
d="M330 320h142v-48h-157v-92h157v-49h-157v-131h-58v131h-152v49h152v92h-152v48h137l-222 380h62l203 -353h2l203 353h62z" />
    <glyph glyph-name="brokenbar" unicode="&#xa6;" horiz-adv-x="227" 
d="M85 846h57v-417h-57v417zM85 233h57v-437h-57v437z" />
    <glyph glyph-name="section" unicode="&#xa7;" horiz-adv-x="514" 
d="M454 258l-58 -58l43 -44v-127l-77 -77h-204l-77 77v59h56v-42l45 -44h156l45 44v95l-41 40h-207l-75 75v138l58 58l-43 43v128l77 77h205l77 -77v-59h-56v42l-45 45h-157l-45 -45v-93l41 -41h205l77 -77v-137zM398 379l-45 45h-192l-45 -45v-104l45 -45h192l45 44v105z
" />
    <glyph glyph-name="dieresis" unicode="&#xa8;" horiz-adv-x="399" 
d="M64 603v36l23 23h36l23 -23v-36l-23 -23h-36zM255 603v36l23 23h35l24 -23v-36l-24 -23h-35z" />
    <glyph glyph-name="copyright" unicode="&#xa9;" horiz-adv-x="826" 
d="M60 176v349l176 175h355l175 -175v-349l-175 -176h-355zM566 50l147 148v305l-147 147h-305l-148 -147v-305l148 -148h305zM220 249v204l102 101h183l101 -101v-54h-54v39l-66 67h-143l-68 -68v-173l68 -67h142l67 66v42h54v-56l-101 -102h-183z" />
    <glyph glyph-name="ordfeminine" unicode="&#xaa;" horiz-adv-x="411" 
d="M55 408v88l57 56h186v68l-33 33h-121l-33 -33v-29h-53v44l65 65h163l65 -65v-284h-50v62l-64 -62h-125zM228 398l70 68v42h-162l-27 -27v-57l26 -26h93z" />
    <glyph glyph-name="guillemotleft" unicode="&#xab;" horiz-adv-x="499" 
d="M40 243v52l201 182v-67l-150 -138v-6l150 -137v-68zM239 243v52l200 182v-67l-150 -138v-6l150 -137v-68z" />
    <glyph glyph-name="logicalnot" unicode="&#xac;" horiz-adv-x="529" 
d="M414 321h-354v51h409v-226h-55v175z" />
    <glyph glyph-name="uni00AD" unicode="&#xad;" horiz-adv-x="394" 
d="M60 277h274v-50h-274v50z" />
    <glyph glyph-name="registered" unicode="&#xae;" horiz-adv-x="525" 
d="M60 402v182l112 111h182l111 -111v-182l-111 -112h-182zM334 331l87 87v149l-87 87h-142l-88 -87v-149l88 -87h142zM184 598h128l39 -39v-52l-29 -28l30 -33v-52h-40v41l-25 28h-63v-69h-40v204zM294 498l16 17v30l-16 17h-70v-64h70z" />
    <glyph glyph-name="macron" unicode="&#xaf;" horiz-adv-x="342" 
d="M41 629h261v-46h-261v46z" />
    <glyph glyph-name="degree" unicode="&#xb0;" horiz-adv-x="324" 
d="M60 548v86l58 58h88l58 -58v-86l-58 -58h-88zM188 534l31 31v53l-31 31h-52l-31 -31v-53l31 -31h52z" />
    <glyph glyph-name="plusminus" unicode="&#xb1;" horiz-adv-x="531" 
d="M471 359v-51h-177v-176h-56v176h-178v51h178v176h56v-176h177zM60 51h411v-51h-411v51z" />
    <glyph glyph-name="uni00B2" unicode="&#xb2;" horiz-adv-x="366" 
d="M47 361l222 214v50l-27 26h-116l-26 -26v-37h-55v54l59 58h161l58 -58v-85l-220 -210v-19h223v-48h-279v81z" />
    <glyph glyph-name="uni00B3" unicode="&#xb3;" horiz-adv-x="399" 
d="M50 338v53h55v-36l27 -26h126l27 26v86l-26 26h-122v49h122l26 26v83l-26 26h-124l-26 -26v-36h-55v53l58 58h169l58 -58v-117l-34 -34l34 -34v-119l-58 -58h-172z" />
    <glyph glyph-name="acute" unicode="&#xb4;" horiz-adv-x="253" 
d="M132 718h65l-87 -153h-53z" />
    <glyph glyph-name="paragraph" unicode="&#xb6;" horiz-adv-x="519" 
d="M261 347h-108l-93 93v167l93 93h165v-903h-57v550zM377 700h57v-903h-57v903z" />
    <glyph glyph-name="periodcentered" unicode="&#xb7;" horiz-adv-x="202" 
d="M58 229v37l25 24h37l24 -24v-37l-24 -25h-37z" />
    <glyph glyph-name="cedilla" unicode="&#xb8;" horiz-adv-x="279" 
d="M46 -183h118l23 23v38l-23 22h-100v39l35 88h51l-33 -83h69l48 -48v-73l-49 -49h-139v43z" />
    <glyph glyph-name="uni00B9" unicode="&#xb9;" horiz-adv-x="257" 
d="M133 641l-93 -48v52l101 55h46v-420h-54v361z" />
    <glyph glyph-name="ordmasculine" unicode="&#xba;" horiz-adv-x="419" 
d="M55 416v220l65 64h179l65 -64v-220l-65 -65h-179zM275 399l35 35v184l-35 34h-131l-35 -34v-184l35 -35h131z" />
    <glyph glyph-name="guillemotright" unicode="&#xbb;" horiz-adv-x="499" 
d="M50 129l150 137v6l-150 138v67l201 -182v-52l-201 -182v68zM249 129l150 137v6l-150 138v67l200 -182v-52l-200 -182v68z" />
    <glyph glyph-name="onequarter" unicode="&#xbc;" horiz-adv-x="791" 
d="M626 83h-209v75l188 262h75v-288h51v-49h-51v-83h-54v83zM628 131v231h-3l-152 -212v-19h155zM606 700l-401 -700h-60l401 700h60zM153 641l-93 -48v52l101 55h46v-420h-54v361z" />
    <glyph glyph-name="onehalf" unicode="&#xbd;" horiz-adv-x="833" 
d="M600 700l-401 -700h-60l401 700h60zM153 641l-93 -48v52l101 55h46v-420h-54v361zM494 81l222 214v50l-27 26h-116l-26 -26v-37h-55v54l59 58h161l58 -58v-85l-220 -210v-19h223v-48h-279v81z" />
    <glyph glyph-name="threequarters" unicode="&#xbe;" horiz-adv-x="893" 
d="M60 338v53h55v-36l27 -26h126l27 26v86l-26 26h-122v49h122l26 26v83l-26 26h-124l-26 -26v-36h-55v53l58 58h169l58 -58v-117l-34 -34l34 -34v-119l-58 -58h-172zM728 83h-209v75l188 262h75v-288h51v-49h-51v-83h-54v83zM730 131v231h-3l-152 -212v-19h155zM709 700
l-401 -700h-60l401 700h60z" />
    <glyph glyph-name="questiondown" unicode="&#xbf;" horiz-adv-x="524" 
d="M307 476v-32l-22 -22h-32l-22 22v32l22 22h32zM297 184l-181 -175v-88l74 -73h163l69 69v40h57v-58l-101 -101h-213l-105 105v122l181 176v145h56v-162z" />
    <glyph glyph-name="Agrave" unicode="&#xc0;" horiz-adv-x="605" 
d="M268 700h69l243 -700h-60l-68 200h-299l-68 -200h-60zM435 251l-131 386h-3l-130 -386h264zM186 920h66l75 -153h-54z" />
    <glyph glyph-name="Aacute" unicode="&#xc1;" horiz-adv-x="605" 
d="M268 700h69l243 -700h-60l-68 200h-299l-68 -200h-60zM435 251l-131 386h-3l-130 -386h264zM354 920h65l-87 -153h-53z" />
    <glyph glyph-name="Acircumflex" unicode="&#xc2;" horiz-adv-x="605" 
d="M268 700h69l243 -700h-60l-68 200h-299l-68 -200h-60zM435 251l-131 386h-3l-130 -386h264zM273 900h60l93 -133h-55l-65 95h-6l-65 -95h-55z" />
    <glyph glyph-name="Atilde" unicode="&#xc3;" horiz-adv-x="605" 
d="M268 700h69l243 -700h-60l-68 200h-299l-68 -200h-60zM435 251l-131 386h-3l-130 -386h264zM263 827h-20l-20 -20v-24h-47v37l48 48h56l64 -50h21l20 20v25h46v-38l-48 -48h-55z" />
    <glyph glyph-name="Adieresis" unicode="&#xc4;" horiz-adv-x="605" 
d="M268 700h69l243 -700h-60l-68 200h-299l-68 -200h-60zM435 251l-131 386h-3l-130 -386h264zM166 805v36l24 23h36l22 -23v-36l-22 -23h-36zM358 805v36l22 23h36l24 -23v-36l-24 -23h-36z" />
    <glyph glyph-name="Aring" unicode="&#xc5;" horiz-adv-x="605" 
d="M268 700h69l243 -700h-60l-68 200h-299l-68 -200h-60zM435 251l-131 386h-3l-130 -386h264zM209 811v79l53 53h82l53 -53v-79l-53 -54h-82zM328 798l27 27v50l-27 27h-50l-27 -27v-50l27 -27h50z" />
    <glyph glyph-name="AE" unicode="&#xc6;" horiz-adv-x="915" 
d="M502 648v-271h329v-52h-329v-273h358v-52h-416v193h-279l-84 -193h-61l309 700h531v-52h-358zM444 245v403h-80l-176 -403h256z" />
    <glyph glyph-name="Ccedilla" unicode="&#xc7;" horiz-adv-x="623" 
d="M515 546v35l-68 67h-241l-73 -72v-451l73 -73h241l68 67v35h58v-53l-101 -101h-129l-23 -56h70l48 -48v-71l-49 -49h-140v41h119l22 22v41l-22 22h-100v36l24 62h-112l-105 105v490l105 105h292l101 -101v-53h-58z" />
    <glyph glyph-name="Egrave" unicode="&#xc8;" horiz-adv-x="574" 
d="M85 700h434v-52h-376v-270h347v-52h-347v-274h376v-52h-434v700zM199 920h66l75 -153h-54z" />
    <glyph glyph-name="Eacute" unicode="&#xc9;" horiz-adv-x="574" 
d="M85 700h434v-52h-376v-270h347v-52h-347v-274h376v-52h-434v700zM357 920h65l-87 -153h-53z" />
    <glyph glyph-name="Ecircumflex" unicode="&#xca;" horiz-adv-x="574" 
d="M85 700h434v-52h-376v-270h347v-52h-347v-274h376v-52h-434v700zM277 900h60l93 -133h-55l-65 95h-6l-65 -95h-55z" />
    <glyph glyph-name="Edieresis" unicode="&#xcb;" horiz-adv-x="574" 
d="M85 700h434v-52h-376v-270h347v-52h-347v-274h376v-52h-434v700zM170 805v36l24 23h36l22 -23v-36l-22 -23h-36zM362 805v36l22 23h36l24 -23v-36l-24 -23h-36z" />
    <glyph glyph-name="Igrave" unicode="&#xcc;" horiz-adv-x="238" 
d="M90 700h58v-700h-58v700zM2 920h66l75 -153h-54z" />
    <glyph glyph-name="Iacute" unicode="&#xcd;" horiz-adv-x="238" 
d="M90 700h58v-700h-58v700zM170 920h65l-87 -153h-53z" />
    <glyph glyph-name="Icircumflex" unicode="&#xce;" horiz-adv-x="238" 
d="M90 700h58v-700h-58v700zM89 900h60l93 -133h-55l-65 95h-6l-65 -95h-55z" />
    <glyph glyph-name="Idieresis" unicode="&#xcf;" horiz-adv-x="238" 
d="M90 700h58v-700h-58v700zM-18 805v36l24 23h36l22 -23v-36l-22 -23h-36zM174 805v36l22 23h36l24 -23v-36l-24 -23h-36z" />
    <glyph glyph-name="Eth" unicode="&#xd0;" horiz-adv-x="696" 
d="M621 595v-490l-105 -105h-391v325h-95v51h95v324h391zM563 576l-73 72h-307v-272h173v-51h-173v-273h307l73 73v451z" />
    <glyph glyph-name="Ntilde" unicode="&#xd1;" horiz-adv-x="665" 
d="M85 700h58l380 -605h2v605h55v-700h-58l-380 606h-2v-606h-55v700zM292 827h-20l-20 -20v-24h-47v37l48 48h56l64 -50h21l20 20v25h46v-38l-48 -48h-55z" />
    <glyph glyph-name="Ograve" unicode="&#xd2;" horiz-adv-x="668" 
d="M75 105v490l105 105h308l105 -105v-490l-105 -105h-308zM462 52l73 73v451l-73 72h-256l-73 -72v-451l73 -73h256zM218 920h66l75 -153h-54z" />
    <glyph glyph-name="Oacute" unicode="&#xd3;" horiz-adv-x="668" 
d="M75 105v490l105 105h308l105 -105v-490l-105 -105h-308zM462 52l73 73v451l-73 72h-256l-73 -72v-451l73 -73h256zM385 920h65l-87 -153h-53z" />
    <glyph glyph-name="Ocircumflex" unicode="&#xd4;" horiz-adv-x="668" 
d="M75 105v490l105 105h308l105 -105v-490l-105 -105h-308zM462 52l73 73v451l-73 72h-256l-73 -72v-451l73 -73h256zM305 900h60l93 -133h-55l-65 95h-6l-65 -95h-55z" />
    <glyph glyph-name="Otilde" unicode="&#xd5;" horiz-adv-x="668" 
d="M75 105v490l105 105h308l105 -105v-490l-105 -105h-308zM462 52l73 73v451l-73 72h-256l-73 -72v-451l73 -73h256zM294 827h-20l-20 -20v-24h-47v37l48 48h56l64 -50h21l20 20v25h46v-38l-48 -48h-55z" />
    <glyph glyph-name="Odieresis" unicode="&#xd6;" horiz-adv-x="668" 
d="M75 105v490l105 105h308l105 -105v-490l-105 -105h-308zM462 52l73 73v451l-73 72h-256l-73 -72v-451l73 -73h256zM198 805v36l24 23h36l22 -23v-36l-22 -23h-36zM390 805v36l22 23h36l24 -23v-36l-24 -23h-36z" />
    <glyph glyph-name="multiply" unicode="&#xd7;" horiz-adv-x="472" 
d="M271 264l141 -141l-35 -35l-141 141l-140 -141l-36 35l141 141l-141 141l35 35l141 -141l141 141l35 -35z" />
    <glyph glyph-name="Oslash" unicode="&#xd8;" horiz-adv-x="668" 
d="M559 629l34 -34v-490l-105 -105h-308l-35 35l-45 -65h-61l70 101l-34 34v490l105 105h308l35 -35l45 65h61zM141 117l350 502l-29 29h-256l-73 -72v-451zM527 584l-350 -503l29 -29h256l73 73v451z" />
    <glyph glyph-name="Ugrave" unicode="&#xd9;" horiz-adv-x="668" 
d="M85 105v595h58v-576l72 -72h238l72 72v576h58v-595l-105 -105h-288zM233 920h66l75 -153h-54z" />
    <glyph glyph-name="Uacute" unicode="&#xda;" horiz-adv-x="668" 
d="M85 105v595h58v-576l72 -72h238l72 72v576h58v-595l-105 -105h-288zM385 920h65l-87 -153h-53z" />
    <glyph glyph-name="Ucircumflex" unicode="&#xdb;" horiz-adv-x="668" 
d="M85 105v595h58v-576l72 -72h238l72 72v576h58v-595l-105 -105h-288zM304 900h60l93 -133h-55l-65 95h-6l-65 -95h-55z" />
    <glyph glyph-name="Udieresis" unicode="&#xdc;" horiz-adv-x="668" 
d="M85 105v595h58v-576l72 -72h238l72 72v576h58v-595l-105 -105h-288zM197 805v36l24 23h36l22 -23v-36l-22 -23h-36zM389 805v36l22 23h36l24 -23v-36l-24 -23h-36z" />
    <glyph glyph-name="Yacute" unicode="&#xdd;" horiz-adv-x="572" 
d="M257 294l-237 406h62l203 -353h2l203 353h62l-237 -406v-294h-58v294zM336 920h65l-87 -153h-53z" />
    <glyph glyph-name="Thorn" unicode="&#xde;" horiz-adv-x="614" 
d="M559 460v-219l-88 -88h-328v-153h-58v700h58v-153h329zM502 442l-54 54h-305v-292h305l54 54v184z" />
    <glyph glyph-name="germandbls" unicode="&#xdf;" horiz-adv-x="617" 
d="M85 614l82 82h233l82 -82v-105l-81 -116v-40l24 -24h75l77 -77v-175l-77 -77h-154l-77 77v59h56v-43l46 -44h104l46 44v143l-45 45h-77l-54 54v66l81 115v81l-50 50h-185l-50 -50v-597h-56v614z" />
    <glyph glyph-name="agrave" unicode="&#xe0;" horiz-adv-x="543" 
d="M65 77v131l77 75h270v111l-55 55h-176l-56 -55v-45h-56v62l87 87h225l87 -87v-411h-55v97l-100 -97h-171zM300 50l112 110v73h-247l-44 -42v-98l44 -43h135zM169 718h66l75 -153h-54z" />
    <glyph glyph-name="aacute" unicode="&#xe1;" horiz-adv-x="543" 
d="M65 77v131l77 75h270v111l-55 55h-176l-56 -55v-45h-56v62l87 87h225l87 -87v-411h-55v97l-100 -97h-171zM300 50l112 110v73h-247l-44 -42v-98l44 -43h135zM325 718h65l-87 -153h-53z" />
    <glyph glyph-name="acircumflex" unicode="&#xe2;" horiz-adv-x="543" 
d="M65 77v131l77 75h270v111l-55 55h-176l-56 -55v-45h-56v62l87 87h225l87 -87v-411h-55v97l-100 -97h-171zM300 50l112 110v73h-247l-44 -42v-98l44 -43h135zM245 698h60l93 -133h-55l-65 95h-6l-65 -95h-55z" />
    <glyph glyph-name="atilde" unicode="&#xe3;" horiz-adv-x="543" 
d="M65 77v131l77 75h270v111l-55 55h-176l-56 -55v-45h-56v62l87 87h225l87 -87v-411h-55v97l-100 -97h-171zM300 50l112 110v73h-247l-44 -42v-98l44 -43h135zM234 625h-20l-20 -20v-24h-47v37l48 48h56l64 -50h21l20 20v25h46v-38l-48 -48h-55z" />
    <glyph glyph-name="adieresis" unicode="&#xe4;" horiz-adv-x="543" 
d="M65 77v131l77 75h270v111l-55 55h-176l-56 -55v-45h-56v62l87 87h225l87 -87v-411h-55v97l-100 -97h-171zM300 50l112 110v73h-247l-44 -42v-98l44 -43h135zM138 603v36l24 23h36l22 -23v-36l-22 -23h-36zM330 603v36l22 23h36l24 -23v-36l-24 -23h-36z" />
    <glyph glyph-name="aring" unicode="&#xe5;" horiz-adv-x="543" 
d="M65 77v131l77 75h270v111l-55 55h-176l-56 -55v-45h-56v62l87 87h225l87 -87v-411h-55v97l-100 -97h-171zM300 50l112 110v73h-247l-44 -42v-98l44 -43h135zM181 609v79l53 53h82l53 -53v-79l-53 -54h-82zM300 596l27 27v50l-27 27h-50l-27 -27v-50l27 -27h50z" />
    <glyph glyph-name="ae" unicode="&#xe6;" horiz-adv-x="877" 
d="M468 106l56 -55h176l55 55v43h56v-61l-87 -88h-223l-81 81l-82 -81h-196l-77 77v130l77 76h270v111l-55 55h-176l-56 -55v-45h-56v62l87 87h225l59 -59l59 59h225l88 -87v-177h-344v-128zM468 393v-110h288v110l-55 55h-178zM412 141v92h-247l-44 -43v-97l44 -43h155z
" />
    <glyph glyph-name="ccedilla" unicode="&#xe7;" horiz-adv-x="526" 
d="M420 360v34l-55 54h-184l-55 -55v-288l55 -54h184l55 54v33h56v-51l-87 -87h-90l-22 -56h69l48 -48v-71l-49 -49h-139v41h119l22 22v41l-22 22h-101v36l24 62h-91l-87 87v324l87 87h232l87 -87v-51h-56z" />
    <glyph glyph-name="egrave" unicode="&#xe8;" horiz-adv-x="553" 
d="M70 87v324l87 87h243l88 -87v-177h-362v-128l56 -55h193l56 54v44h56v-61l-88 -88h-242zM432 283v110l-55 55h-196l-55 -55v-110h306zM162 718h66l75 -153h-54z" />
    <glyph glyph-name="eacute" unicode="&#xe9;" horiz-adv-x="553" 
d="M70 87v324l87 87h243l88 -87v-177h-362v-128l56 -55h193l56 54v44h56v-61l-88 -88h-242zM432 283v110l-55 55h-196l-55 -55v-110h306zM329 718h65l-87 -153h-53z" />
    <glyph glyph-name="ecircumflex" unicode="&#xea;" horiz-adv-x="553" 
d="M70 87v324l87 87h243l88 -87v-177h-362v-128l56 -55h193l56 54v44h56v-61l-88 -88h-242zM432 283v110l-55 55h-196l-55 -55v-110h306zM249 698h60l93 -133h-55l-65 95h-6l-65 -95h-55z" />
    <glyph glyph-name="edieresis" unicode="&#xeb;" horiz-adv-x="553" 
d="M70 87v324l87 87h243l88 -87v-177h-362v-128l56 -55h193l56 54v44h56v-61l-88 -88h-242zM432 283v110l-55 55h-196l-55 -55v-110h306zM142 603v36l24 23h36l22 -23v-36l-22 -23h-36zM334 603v36l22 23h36l24 -23v-36l-24 -23h-36z" />
    <glyph glyph-name="igrave" unicode="&#xec;" horiz-adv-x="236" 
d="M90 498h56v-498h-56v498zM1 718h66l75 -153h-54z" />
    <glyph glyph-name="iacute" unicode="&#xed;" horiz-adv-x="236" 
d="M90 498h56v-498h-56v498zM169 718h65l-87 -153h-53z" />
    <glyph glyph-name="icircumflex" unicode="&#xee;" horiz-adv-x="236" 
d="M90 498h56v-498h-56v498zM88 698h60l93 -133h-55l-65 95h-6l-65 -95h-55z" />
    <glyph glyph-name="idieresis" unicode="&#xef;" horiz-adv-x="236" 
d="M90 498h56v-498h-56v498zM-19 603v36l24 23h36l22 -23v-36l-22 -23h-36zM173 603v36l22 23h36l24 -23v-36l-24 -23h-36z" />
    <glyph glyph-name="eth" unicode="&#xf0;" horiz-adv-x="568" 
d="M437 572l73 -126v-359l-87 -87h-266l-87 87v257l87 87h209l88 -79v86l-63 108l-84 -49l-23 41l83 48l-38 66h-112v48h145l51 -87l81 47l24 -41zM454 288l-102 92h-171l-55 -54v-221l55 -54h218l55 54v183z" />
    <glyph glyph-name="ntilde" unicode="&#xf1;" horiz-adv-x="560" 
d="M80 498h55v-116l116 116h147l87 -87v-411h-56v393l-55 54h-106l-132 -131v-316h-56v498zM245 625h-20l-20 -20v-24h-47v37l48 48h56l64 -50h21l20 20v25h46v-38l-48 -48h-55z" />
    <glyph glyph-name="ograve" unicode="&#xf2;" horiz-adv-x="562" 
d="M70 87v324l87 87h248l87 -87v-324l-87 -87h-248zM381 51l55 54v289l-55 54h-200l-55 -54v-289l55 -54h200zM164 718h66l75 -153h-54z" />
    <glyph glyph-name="oacute" unicode="&#xf3;" horiz-adv-x="562" 
d="M70 87v324l87 87h248l87 -87v-324l-87 -87h-248zM381 51l55 54v289l-55 54h-200l-55 -54v-289l55 -54h200zM332 718h65l-87 -153h-53z" />
    <glyph glyph-name="ocircumflex" unicode="&#xf4;" horiz-adv-x="562" 
d="M70 87v324l87 87h248l87 -87v-324l-87 -87h-248zM381 51l55 54v289l-55 54h-200l-55 -54v-289l55 -54h200zM251 698h60l93 -133h-55l-65 95h-6l-65 -95h-55z" />
    <glyph glyph-name="otilde" unicode="&#xf5;" horiz-adv-x="562" 
d="M70 87v324l87 87h248l87 -87v-324l-87 -87h-248zM381 51l55 54v289l-55 54h-200l-55 -54v-289l55 -54h200zM241 625h-20l-20 -20v-24h-47v37l48 48h56l64 -50h21l20 20v25h46v-38l-48 -48h-55z" />
    <glyph glyph-name="odieresis" unicode="&#xf6;" horiz-adv-x="562" 
d="M70 87v324l87 87h248l87 -87v-324l-87 -87h-248zM381 51l55 54v289l-55 54h-200l-55 -54v-289l55 -54h200zM144 603v36l24 23h36l22 -23v-36l-22 -23h-36zM336 603v36l22 23h36l24 -23v-36l-24 -23h-36z" />
    <glyph glyph-name="divide" unicode="&#xf7;" horiz-adv-x="531" 
d="M220 387v39l27 26h38l27 -26v-39l-27 -27h-38zM60 289h411v-50h-411v50zM220 103v39l27 27h39l26 -27v-39l-26 -27h-39z" />
    <glyph glyph-name="oslash" unicode="&#xf8;" horiz-adv-x="562" 
d="M462 441l30 -30v-324l-87 -87h-248l-25 25l-51 -65h-61l78 99l-28 28v324l87 87h248l23 -23l49 63h61zM131 100l264 334l-14 14h-200l-55 -54v-289zM429 401l-264 -334l16 -16h200l55 54v289z" />
    <glyph glyph-name="ugrave" unicode="&#xf9;" horiz-adv-x="559" 
d="M75 87v411h56v-393l55 -54h105l132 132v315h56v-498h-55v116l-116 -116h-146zM174 718h66l75 -153h-54z" />
    <glyph glyph-name="uacute" unicode="&#xfa;" horiz-adv-x="559" 
d="M75 87v411h56v-393l55 -54h105l132 132v315h56v-498h-55v116l-116 -116h-146zM328 718h65l-87 -153h-53z" />
    <glyph glyph-name="ucircumflex" unicode="&#xfb;" horiz-adv-x="559" 
d="M75 87v411h56v-393l55 -54h105l132 132v315h56v-498h-55v116l-116 -116h-146zM248 698h60l93 -133h-55l-65 95h-6l-65 -95h-55z" />
    <glyph glyph-name="udieresis" unicode="&#xfc;" horiz-adv-x="559" 
d="M75 87v411h56v-393l55 -54h105l132 132v315h56v-498h-55v116l-116 -116h-146zM141 603v36l24 23h36l22 -23v-36l-22 -23h-36zM333 603v36l22 23h36l24 -23v-36l-24 -23h-36z" />
    <glyph glyph-name="yacute" unicode="&#xfd;" horiz-adv-x="561" 
d="M481 498v-629l-87 -86h-233l-71 70v57h56v-39l39 -38h185l55 54v231l-118 -118h-145l-87 87v411h56v-393l55 -54h105l134 135v312h56zM330 718h65l-87 -153h-53z" />
    <glyph glyph-name="thorn" unicode="&#xfe;" horiz-adv-x="572" 
d="M80 710h55v-308l96 96h184l87 -87v-324l-87 -87h-191l-88 79v-291h-56v922zM391 51l55 54v288l-55 55h-143l-112 -112v-193l101 -92h154z" />
    <glyph glyph-name="ydieresis" unicode="&#xff;" horiz-adv-x="561" 
d="M481 498v-629l-87 -86h-233l-71 70v57h56v-39l39 -38h185l55 54v231l-118 -118h-145l-87 87v411h56v-393l55 -54h105l134 135v312h56zM143 603v36l24 23h36l22 -23v-36l-22 -23h-36zM335 603v36l22 23h36l24 -23v-36l-24 -23h-36z" />
    <glyph glyph-name="Amacron" unicode="&#x100;" horiz-adv-x="605" 
d="M268 700h69l243 -700h-60l-68 200h-299l-68 -200h-60zM435 251l-131 386h-3l-130 -386h264zM173 831h262v-46h-262v46z" />
    <glyph glyph-name="amacron" unicode="&#x101;" horiz-adv-x="543" 
d="M65 77v131l77 75h270v111l-55 55h-176l-56 -55v-45h-56v62l87 87h225l87 -87v-411h-55v97l-100 -97h-171zM300 50l112 110v73h-247l-44 -42v-98l44 -43h135zM144 629h262v-46h-262v46z" />
    <glyph glyph-name="Abreve" unicode="&#x102;" horiz-adv-x="605" 
d="M268 700h69l243 -700h-60l-68 200h-299l-68 -200h-60zM435 251l-131 386h-3l-130 -386h264zM174 836v55h48v-40l41 -41h80l41 41v40h48v-55l-68 -69h-121z" />
    <glyph glyph-name="abreve" unicode="&#x103;" horiz-adv-x="543" 
d="M65 77v131l77 75h270v111l-55 55h-176l-56 -55v-45h-56v62l87 87h225l87 -87v-411h-55v97l-100 -97h-171zM300 50l112 110v73h-247l-44 -42v-98l44 -43h135zM146 634v55h48v-40l41 -41h80l41 41v40h48v-55l-68 -69h-121z" />
    <glyph glyph-name="Aogonek" unicode="&#x104;" horiz-adv-x="605" 
d="M268 700h69l243 -700h-60l-68 200h-299l-68 -200h-60zM435 251l-131 386h-3l-130 -386h264zM474 -127v66l54 61h52l-55 -69v-43l27 -27h67v-42h-91z" />
    <glyph glyph-name="aogonek" unicode="&#x105;" horiz-adv-x="543" 
d="M65 77v131l77 75h270v111l-55 55h-176l-56 -55v-45h-56v62l87 87h225l87 -87v-411h-55v97l-100 -97h-171zM300 50l112 110v73h-247l-44 -42v-98l44 -43h135zM362 -127v66l54 61h52l-55 -69v-43l27 -27h67v-42h-91z" />
    <glyph glyph-name="Cacute" unicode="&#x106;" horiz-adv-x="623" 
d="M75 105v490l105 105h292l101 -101v-53h-58v35l-68 67h-241l-73 -72v-451l73 -73h241l68 67v35h58v-53l-101 -101h-292zM376 920h65l-87 -153h-53z" />
    <glyph glyph-name="cacute" unicode="&#x107;" horiz-adv-x="526" 
d="M70 87v324l87 87h232l87 -87v-51h-56v34l-55 54h-184l-55 -55v-288l55 -54h184l55 54v33h56v-51l-87 -87h-232zM323 718h65l-87 -153h-53z" />
    <glyph glyph-name="Ccircumflex" unicode="&#x108;" horiz-adv-x="623" 
d="M75 105v490l105 105h292l101 -101v-53h-58v35l-68 67h-241l-73 -72v-451l73 -73h241l68 67v35h58v-53l-101 -101h-292zM295 900h60l93 -133h-55l-65 95h-6l-65 -95h-55z" />
    <glyph glyph-name="ccircumflex" unicode="&#x109;" horiz-adv-x="526" 
d="M70 87v324l87 87h232l87 -87v-51h-56v34l-55 54h-184l-55 -55v-288l55 -54h184l55 54v33h56v-51l-87 -87h-232zM243 698h60l93 -133h-55l-65 95h-6l-65 -95h-55z" />
    <glyph glyph-name="Cdotaccent" unicode="&#x10a;" horiz-adv-x="623" 
d="M75 105v490l105 105h292l101 -101v-53h-58v35l-68 67h-241l-73 -72v-451l73 -73h241l68 67v35h58v-53l-101 -101h-292zM283 802v37l22 23h38l23 -23v-37l-23 -23h-38z" />
    <glyph glyph-name="cdotaccent" unicode="&#x10b;" horiz-adv-x="526" 
d="M70 87v324l87 87h232l87 -87v-51h-56v34l-55 54h-184l-55 -55v-288l55 -54h184l55 54v33h56v-51l-87 -87h-232zM231 600v37l22 23h38l23 -23v-37l-23 -23h-38z" />
    <glyph glyph-name="Ccaron" unicode="&#x10c;" horiz-adv-x="623" 
d="M75 105v490l105 105h292l101 -101v-53h-58v35l-68 67h-241l-73 -72v-451l73 -73h241l68 67v35h58v-53l-101 -101h-292zM202 900h55l65 -94h6l65 94h55l-93 -133h-60z" />
    <glyph glyph-name="ccaron" unicode="&#x10d;" horiz-adv-x="526" 
d="M70 87v324l87 87h232l87 -87v-51h-56v34l-55 54h-184l-55 -55v-288l55 -54h184l55 54v33h56v-51l-87 -87h-232zM150 698h55l65 -94h6l65 94h55l-93 -133h-60z" />
    <glyph glyph-name="Dcaron" unicode="&#x10e;" horiz-adv-x="656" 
d="M85 700h391l105 -105v-490l-105 -105h-391v700zM450 52l73 73v451l-73 72h-307v-596h307zM199 900h55l65 -94h6l65 94h55l-93 -133h-60z" />
    <glyph glyph-name="dcaron" unicode="&#x10f;" horiz-adv-x="707" 
d="M70 87v324l87 87h188l91 -79v295h56v-714h-55v99l-99 -99h-181zM324 51l112 112v194l-105 91h-150l-55 -54v-289l55 -54h143zM620 621h-13l-25 25v37l25 24h37l24 -24v-62l-44 -121h-35z" />
    <glyph glyph-name="Dcroat" unicode="&#x110;" horiz-adv-x="696" 
d="M621 595v-490l-105 -105h-391v325h-95v51h95v324h391zM563 576l-73 72h-307v-272h173v-51h-173v-273h307l73 73v451z" />
    <glyph glyph-name="dcroat" unicode="&#x111;" horiz-adv-x="589" 
d="M574 585h-82v-585h-55v99l-99 -99h-181l-87 87v324l87 87h188l91 -79v166h-152v47h152v82h56v-82h82v-47zM436 357l-105 91h-150l-55 -54v-289l55 -54h143l112 112v194z" />
    <glyph glyph-name="Emacron" unicode="&#x112;" horiz-adv-x="574" 
d="M85 700h434v-52h-376v-270h347v-52h-347v-274h376v-52h-434v700zM176 831h262v-46h-262v46z" />
    <glyph glyph-name="emacron" unicode="&#x113;" horiz-adv-x="553" 
d="M70 87v324l87 87h243l88 -87v-177h-362v-128l56 -55h193l56 54v44h56v-61l-88 -88h-242zM432 283v110l-55 55h-196l-55 -55v-110h306zM148 629h262v-46h-262v46z" />
    <glyph glyph-name="Ebreve" unicode="&#x114;" horiz-adv-x="574" 
d="M85 700h434v-52h-376v-270h347v-52h-347v-274h376v-52h-434v700zM180 836v55h48v-40l41 -41h80l41 41v40h48v-55l-68 -69h-121z" />
    <glyph glyph-name="ebreve" unicode="&#x115;" horiz-adv-x="553" 
d="M70 87v324l87 87h243l88 -87v-177h-362v-128l56 -55h193l56 54v44h56v-61l-88 -88h-242zM432 283v110l-55 55h-196l-55 -55v-110h306zM150 634v55h48v-40l41 -41h80l41 41v40h48v-55l-68 -69h-121z" />
    <glyph glyph-name="Edotaccent" unicode="&#x116;" horiz-adv-x="574" 
d="M85 700h434v-52h-376v-270h347v-52h-347v-274h376v-52h-434v700zM265 802v37l22 23h38l23 -23v-37l-23 -23h-38z" />
    <glyph glyph-name="edotaccent" unicode="&#x117;" horiz-adv-x="553" 
d="M70 87v324l87 87h243l88 -87v-177h-362v-128l56 -55h193l56 54v44h56v-61l-88 -88h-242zM432 283v110l-55 55h-196l-55 -55v-110h306zM237 600v37l22 23h38l23 -23v-37l-23 -23h-38z" />
    <glyph glyph-name="Eogonek" unicode="&#x118;" horiz-adv-x="574" 
d="M85 700h434v-52h-376v-270h347v-52h-347v-274h376v-52h-434v700zM413 -127v66l54 61h52l-55 -69v-43l27 -27h67v-42h-91z" />
    <glyph glyph-name="eogonek" unicode="&#x119;" horiz-adv-x="553" 
d="M70 87v324l87 87h243l88 -87v-177h-362v-128l56 -55h193l56 54v44h56v-61l-88 -88h-242zM432 283v110l-55 55h-196l-55 -55v-110h306zM293 -127v66l54 61h52l-55 -69v-43l27 -27h67v-42h-91z" />
    <glyph glyph-name="Ecaron" unicode="&#x11a;" horiz-adv-x="574" 
d="M85 700h434v-52h-376v-270h347v-52h-347v-274h376v-52h-434v700zM184 900h55l65 -94h6l65 94h55l-93 -133h-60z" />
    <glyph glyph-name="ecaron" unicode="&#x11b;" horiz-adv-x="553" 
d="M70 87v324l87 87h243l88 -87v-177h-362v-128l56 -55h193l56 54v44h56v-61l-88 -88h-242zM432 283v110l-55 55h-196l-55 -55v-110h306zM156 698h55l65 -94h6l65 94h55l-93 -133h-60z" />
    <glyph glyph-name="Gcircumflex" unicode="&#x11c;" horiz-adv-x="644" 
d="M75 105v490l105 105h298l101 -101v-53h-58v35l-68 67h-247l-73 -72v-451l73 -73h243l72 72v182h-161v52h219v-253l-105 -105h-294zM297 900h60l93 -133h-55l-65 95h-6l-65 -95h-55z" />
    <glyph glyph-name="gcircumflex" unicode="&#x11d;" horiz-adv-x="572" 
d="M492 498v-630l-86 -86h-239l-72 71v57h56v-38l40 -40h190l55 54v204l-100 -90h-179l-87 87v324l87 87h183l97 -97v97h55zM436 334l-113 114h-142l-55 -54v-289l55 -54h142l113 103v180zM254 698h60l93 -133h-55l-65 95h-6l-65 -95h-55z" />
    <glyph glyph-name="Gbreve" unicode="&#x11e;" horiz-adv-x="644" 
d="M75 105v490l105 105h298l101 -101v-53h-58v35l-68 67h-247l-73 -72v-451l73 -73h243l72 72v182h-161v52h219v-253l-105 -105h-294zM198 836v55h48v-40l41 -41h80l41 41v40h48v-55l-68 -69h-121z" />
    <glyph glyph-name="gbreve" unicode="&#x11f;" horiz-adv-x="572" 
d="M492 498v-630l-86 -86h-239l-72 71v57h56v-38l40 -40h190l55 54v204l-100 -90h-179l-87 87v324l87 87h183l97 -97v97h55zM436 334l-113 114h-142l-55 -54v-289l55 -54h142l113 103v180zM155 634v55h48v-40l41 -41h80l41 41v40h48v-55l-68 -69h-121z" />
    <glyph glyph-name="Gdotaccent" unicode="&#x120;" horiz-adv-x="644" 
d="M75 105v490l105 105h298l101 -101v-53h-58v35l-68 67h-247l-73 -72v-451l73 -73h243l72 72v182h-161v52h219v-253l-105 -105h-294zM285 802v37l22 23h38l23 -23v-37l-23 -23h-38z" />
    <glyph glyph-name="gdotaccent" unicode="&#x121;" horiz-adv-x="572" 
d="M492 498v-630l-86 -86h-239l-72 71v57h56v-38l40 -40h190l55 54v204l-100 -90h-179l-87 87v324l87 87h183l97 -97v97h55zM436 334l-113 114h-142l-55 -54v-289l55 -54h142l113 103v180zM242 600v37l22 23h38l23 -23v-37l-23 -23h-38z" />
    <glyph glyph-name="uni0122" unicode="&#x122;" horiz-adv-x="644" 
d="M75 105v490l105 105h298l101 -101v-53h-58v35l-68 67h-247l-73 -72v-451l73 -73h243l72 72v182h-161v52h219v-253l-105 -105h-294zM323 -154h-13l-25 25v37l25 24h37l24 -24v-62l-44 -121h-35z" />
    <glyph glyph-name="uni0123" unicode="&#x123;" horiz-adv-x="572" 
d="M492 498v-630l-86 -86h-239l-72 71v57h56v-38l40 -40h190l55 54v204l-100 -90h-179l-87 87v324l87 87h183l97 -97v97h55zM436 334l-113 114h-142l-55 -54v-289l55 -54h142l113 103v180zM292 648h13l25 -24v-37l-25 -25h-37l-24 25v61l44 121h35z" />
    <glyph glyph-name="Hcircumflex" unicode="&#x124;" horiz-adv-x="666" 
d="M85 700h58v-325h380v325h58v-700h-58v323h-380v-323h-58v700zM303 900h60l93 -133h-55l-65 95h-6l-65 -95h-55z" />
    <glyph glyph-name="hcircumflex" unicode="&#x125;" horiz-adv-x="562" 
d="M80 714h56v-331l115 115h149l87 -87v-411h-56v394l-55 54h-108l-132 -132v-316h-56v714zM255 900h60l93 -133h-55l-65 95h-6l-65 -95h-55z" />
    <glyph glyph-name="Hbar" unicode="&#x126;" horiz-adv-x="761" 
d="M731 514h-103v-514h-57v323h-381v-323h-57v514h-103v47h103v139h57v-139h381v139h57v-139h103v-47zM571 514h-381v-139h381v139z" />
    <glyph glyph-name="hbar" unicode="&#x127;" horiz-adv-x="587" 
d="M512 411v-411h-56v394l-55 54h-108l-132 -132v-316h-56v585h-90v47h90v82h56v-82h151v-47h-151v-202l115 115h149z" />
    <glyph glyph-name="Itilde" unicode="&#x128;" horiz-adv-x="238" 
d="M90 700h58v-700h-58v700zM79 827h-20l-20 -20v-24h-47v37l48 48h56l64 -50h21l20 20v25h46v-38l-48 -48h-55z" />
    <glyph glyph-name="itilde" unicode="&#x129;" horiz-adv-x="236" 
d="M90 498h56v-498h-56v498zM78 625h-20l-20 -20v-24h-47v37l48 48h56l64 -50h21l20 20v25h46v-38l-48 -48h-55z" />
    <glyph glyph-name="Imacron" unicode="&#x12a;" horiz-adv-x="238" 
d="M90 700h58v-700h-58v700zM-11 831h262v-46h-262v46z" />
    <glyph glyph-name="imacron" unicode="&#x12b;" horiz-adv-x="236" 
d="M90 498h56v-498h-56v498zM-12 629h262v-46h-262v46z" />
    <glyph glyph-name="Ibreve" unicode="&#x12c;" horiz-adv-x="238" 
d="M90 700h58v-700h-58v700zM-10 836v55h48v-40l41 -41h80l41 41v40h48v-55l-68 -69h-121z" />
    <glyph glyph-name="ibreve" unicode="&#x12d;" horiz-adv-x="236" 
d="M90 498h56v-498h-56v498zM-11 634v55h48v-40l41 -41h80l41 41v40h48v-55l-68 -69h-121z" />
    <glyph glyph-name="Iogonek" unicode="&#x12e;" horiz-adv-x="238" 
d="M90 700h58v-700h-58v700zM42 -127v66l54 61h52l-55 -69v-43l27 -27h67v-42h-91z" />
    <glyph glyph-name="iogonek" unicode="&#x12f;" horiz-adv-x="236" 
d="M75 615v38l25 25h36l25 -25v-38l-25 -25h-36zM90 498h56v-498h-56v498zM40 -127v66l54 61h52l-55 -69v-43l27 -27h67v-42h-91z" />
    <glyph glyph-name="Idotaccent" unicode="&#x130;" horiz-adv-x="238" 
d="M90 700h58v-700h-58v700zM77 802v37l22 23h38l23 -23v-37l-23 -23h-38z" />
    <glyph glyph-name="dotlessi" unicode="&#x131;" horiz-adv-x="236" 
d="M90 498h56v-498h-56v498z" />
    <glyph glyph-name="IJ" unicode="&#x132;" horiz-adv-x="769" 
d="M90 700h58v-700h-58v700zM261 105v88h56v-68l73 -73h180l61 61v587h58v-605l-95 -95h-228z" />
    <glyph glyph-name="ij" unicode="&#x133;" horiz-adv-x="471" 
d="M75 615v38l25 25h36l25 -25v-38l-25 -25h-36zM90 498h56v-498h-56v498zM310 615v38l25 25h36l25 -25v-38l-25 -25h-36zM175 -168h95l55 55v611h56v-630l-86 -86h-120v50z" />
    <glyph glyph-name="Jcircumflex" unicode="&#x134;" horiz-adv-x="548" 
d="M40 105v88h56v-68l73 -73h180l61 61v587h58v-605l-95 -95h-228zM408 900h60l93 -133h-55l-65 95h-6l-65 -95h-55z" />
    <glyph glyph-name="jcircumflex" unicode="&#x135;" horiz-adv-x="246" 
d="M-50 -168h96l54 54v612h56v-630l-86 -86h-120v50zM98 698h60l93 -133h-55l-65 95h-6l-65 -95h-55z" />
    <glyph glyph-name="uni0136" unicode="&#x136;" horiz-adv-x="603" 
d="M85 700h58v-324h179l179 324h62l-193 -349l208 -351h-63l-193 324h-179v-324h-58v700zM305 -154h-13l-25 25v37l25 24h37l24 -24v-62l-44 -121h-35z" />
    <glyph glyph-name="uni0137" unicode="&#x137;" horiz-adv-x="509" 
d="M80 714h56v-430h125l150 214h63l-167 -240l177 -258h-63l-161 234h-124v-234h-56v714zM257 -154h-13l-25 25v37l25 24h37l24 -24v-62l-44 -121h-35z" />
    <glyph glyph-name="kgreenlandic" unicode="&#x138;" horiz-adv-x="553" 
d="M80 498h58v-224h164l146 224h65l-162 -247l177 -251h-66l-158 222h-166v-222h-58v498z" />
    <glyph glyph-name="Lacute" unicode="&#x139;" horiz-adv-x="529" 
d="M85 700h58v-648h356v-52h-414v700zM165 920h65l-87 -153h-53z" />
    <glyph glyph-name="lacute" unicode="&#x13a;" horiz-adv-x="226" 
d="M85 714h56v-714h-56v714zM164 939h65l-87 -153h-53z" />
    <glyph glyph-name="uni013B" unicode="&#x13b;" horiz-adv-x="529" 
d="M85 700h58v-648h356v-52h-414v700zM289 -154h-13l-25 25v37l25 24h37l24 -24v-62l-44 -121h-35z" />
    <glyph glyph-name="uni013C" unicode="&#x13c;" horiz-adv-x="226" 
d="M106 -154h-13l-25 25v37l25 24h37l24 -24v-62l-44 -121h-35zM85 714h56v-714h-56v714z" />
    <glyph glyph-name="Lcaron" unicode="&#x13d;" horiz-adv-x="575" 
d="M85 700h58v-648h356v-52h-414v700zM488 621h-13l-25 25v37l25 24h37l24 -24v-62l-44 -121h-35z" />
    <glyph glyph-name="lcaron" unicode="&#x13e;" horiz-adv-x="355" 
d="M85 714h56v-714h-56v714zM263 621h-13l-25 25v37l25 24h37l24 -24v-62l-44 -121h-35z" />
    <glyph glyph-name="Ldot" unicode="&#x13f;" horiz-adv-x="539" 
d="M85 700h58v-648h356v-52h-414v700zM348 259v37l25 24h37l24 -24v-37l-24 -25h-37z" />
    <glyph glyph-name="ldot" unicode="&#x140;" horiz-adv-x="354" 
d="M85 714h56v-714h-56v714zM232 229v37l25 24h37l24 -24v-37l-24 -25h-37z" />
    <glyph glyph-name="Lslash" unicode="&#x141;" horiz-adv-x="569" 
d="M539 52v-52h-414v278l-105 -71v56l105 71v366h58v-327l133 90v-56l-133 -90v-265h356z" />
    <glyph glyph-name="lslash" unicode="&#x142;" horiz-adv-x="311" 
d="M291 416l-107 -78v-338h-56v297l-108 -79v56l108 79v361h56v-320l107 78v-56z" />
    <glyph glyph-name="Nacute" unicode="&#x143;" horiz-adv-x="665" 
d="M85 700h58l380 -605h2v605h55v-700h-58l-380 606h-2v-606h-55v700zM383 920h65l-87 -153h-53z" />
    <glyph glyph-name="nacute" unicode="&#x144;" horiz-adv-x="560" 
d="M80 498h55v-116l116 116h147l87 -87v-411h-56v393l-55 54h-106l-132 -131v-316h-56v498zM336 718h65l-87 -153h-53z" />
    <glyph glyph-name="uni0145" unicode="&#x145;" horiz-adv-x="665" 
d="M85 700h58l380 -605h2v605h55v-700h-58l-380 606h-2v-606h-55v700zM327 -154h-13l-25 25v37l25 24h37l24 -24v-62l-44 -121h-35z" />
    <glyph glyph-name="uni0146" unicode="&#x146;" horiz-adv-x="560" 
d="M80 498h55v-116l116 116h147l87 -87v-411h-56v393l-55 54h-106l-132 -131v-316h-56v498zM277 -154h-13l-25 25v37l25 24h37l24 -24v-62l-44 -121h-35z" />
    <glyph glyph-name="Ncaron" unicode="&#x147;" horiz-adv-x="665" 
d="M85 700h58l380 -605h2v605h55v-700h-58l-380 606h-2v-606h-55v700zM209 900h55l65 -94h6l65 94h55l-93 -133h-60z" />
    <glyph glyph-name="ncaron" unicode="&#x148;" horiz-adv-x="560" 
d="M80 498h55v-116l116 116h147l87 -87v-411h-56v393l-55 54h-106l-132 -131v-316h-56v498zM162 698h55l65 -94h6l65 94h55l-93 -133h-60z" />
    <glyph glyph-name="napostrophe" unicode="&#x149;" horiz-adv-x="682" 
d="M202 498h55v-116l116 116h147l87 -87v-411h-56v393l-55 54h-106l-132 -131v-316h-56v498zM96 568h-13l-25 25v37l25 24h37l24 -24v-62l-44 -121h-35z" />
    <glyph glyph-name="Eng" unicode="&#x14a;" horiz-adv-x="663" 
d="M578 700v-832l-86 -86h-120v51h95l55 54v113l-380 606h-2v-606h-55v700h58l379 -604h2v604h54z" />
    <glyph glyph-name="eng" unicode="&#x14b;" horiz-adv-x="559" 
d="M484 411v-543l-86 -86h-120v50h96l54 54v508l-54 53h-106l-132 -131v-316h-56v498h55v-116l116 116h146z" />
    <glyph glyph-name="Omacron" unicode="&#x14c;" horiz-adv-x="668" 
d="M75 105v490l105 105h308l105 -105v-490l-105 -105h-308zM462 52l73 73v451l-73 72h-256l-73 -72v-451l73 -73h256zM204 831h262v-46h-262v46z" />
    <glyph glyph-name="omacron" unicode="&#x14d;" horiz-adv-x="562" 
d="M70 87v324l87 87h248l87 -87v-324l-87 -87h-248zM381 51l55 54v289l-55 54h-200l-55 -54v-289l55 -54h200zM151 629h262v-46h-262v46z" />
    <glyph glyph-name="Obreve" unicode="&#x14e;" horiz-adv-x="668" 
d="M75 105v490l105 105h308l105 -105v-490l-105 -105h-308zM462 52l73 73v451l-73 72h-256l-73 -72v-451l73 -73h256zM206 836v55h48v-40l41 -41h80l41 41v40h48v-55l-68 -69h-121z" />
    <glyph glyph-name="obreve" unicode="&#x14f;" horiz-adv-x="562" 
d="M70 87v324l87 87h248l87 -87v-324l-87 -87h-248zM381 51l55 54v289l-55 54h-200l-55 -54v-289l55 -54h200zM152 634v55h48v-40l41 -41h80l41 41v40h48v-55l-68 -69h-121z" />
    <glyph glyph-name="Ohungarumlaut" unicode="&#x150;" horiz-adv-x="668" 
d="M75 105v490l105 105h308l105 -105v-490l-105 -105h-308zM462 52l73 73v451l-73 72h-256l-73 -72v-451l73 -73h256zM313 920h64l-88 -153h-52zM458 920h63l-87 -153h-53z" />
    <glyph glyph-name="ohungarumlaut" unicode="&#x151;" horiz-adv-x="562" 
d="M70 87v324l87 87h248l87 -87v-324l-87 -87h-248zM381 51l55 54v289l-55 54h-200l-55 -54v-289l55 -54h200zM259 718h64l-88 -153h-52zM404 718h63l-87 -153h-53z" />
    <glyph glyph-name="OE" unicode="&#x152;" horiz-adv-x="1006" 
d="M593 377h329v-52h-329v-273h358v-52h-411v71l-71 -71h-289l-105 105v490l105 105h289l71 -71v71h411v-52h-358v-271zM535 138v424l-86 86h-243l-73 -72v-451l73 -73h243z" />
    <glyph glyph-name="oe" unicode="&#x153;" horiz-adv-x="908" 
d="M492 234v-128l55 -55h183l56 54v44h56v-61l-87 -88h-232l-59 59l-59 -59h-248l-87 87v324l87 87h248l59 -59l59 59h232l88 -87v-177h-351zM436 105v289l-55 54h-200l-55 -54v-289l55 -54h200zM492 393v-110h295v110l-55 55h-185z" />
    <glyph glyph-name="Racute" unicode="&#x154;" horiz-adv-x="643" 
d="M563 224v-224h-58v208l-89 95h-273v-303h-58v700h387l87 -87v-222l-78 -78zM143 354h304l55 54v187l-55 54h-304v-295zM363 920h65l-87 -153h-53z" />
    <glyph glyph-name="racute" unicode="&#x155;" horiz-adv-x="377" 
d="M80 498h55v-93l94 93h123v-50h-107l-109 -108v-340h-56v498zM262 718h65l-87 -153h-53z" />
    <glyph glyph-name="uni0156" unicode="&#x156;" horiz-adv-x="643" 
d="M563 224v-224h-58v208l-89 95h-273v-303h-58v700h387l87 -87v-222l-78 -78zM143 354h304l55 54v187l-55 54h-304v-295zM316 -154h-13l-25 25v37l25 24h37l24 -24v-62l-44 -121h-35z" />
    <glyph glyph-name="uni0157" unicode="&#x157;" horiz-adv-x="377" 
d="M80 498h55v-93l94 93h123v-50h-107l-109 -108v-340h-56v498zM104 -154h-13l-25 25v37l25 24h37l24 -24v-62l-44 -121h-35z" />
    <glyph glyph-name="Rcaron" unicode="&#x158;" horiz-adv-x="643" 
d="M563 224v-224h-58v208l-89 95h-273v-303h-58v700h387l87 -87v-222l-78 -78zM143 354h304l55 54v187l-55 54h-304v-295zM190 900h55l65 -94h6l65 94h55l-93 -133h-60z" />
    <glyph glyph-name="rcaron" unicode="&#x159;" horiz-adv-x="377" 
d="M80 498h55v-93l94 93h123v-50h-107l-109 -108v-340h-56v498zM89 698h55l65 -94h6l65 94h55l-93 -133h-60z" />
    <glyph glyph-name="Sacute" unicode="&#x15a;" horiz-adv-x="605" 
d="M70 87v53h57v-33l54 -55h247l55 57v170l-55 55h-269l-87 86v193l87 87h286l87 -87v-54h-57v35l-55 54h-236l-55 -54v-154l55 -54h269l87 -87v-210l-89 -89h-294zM352 920h65l-87 -153h-53z" />
    <glyph glyph-name="sacute" unicode="&#x15b;" horiz-adv-x="504" 
d="M55 77v62h56v-45l45 -44h192l45 44v88l-45 45h-215l-74 74v120l78 77h225l77 -77v-62h-56v45l-45 45h-177l-46 -45v-84l46 -45h210l78 -78v-119l-78 -78h-239zM299 718h65l-87 -153h-53z" />
    <glyph glyph-name="Scircumflex" unicode="&#x15c;" horiz-adv-x="605" 
d="M70 87v53h57v-33l54 -55h247l55 57v170l-55 55h-269l-87 86v193l87 87h286l87 -87v-54h-57v35l-55 54h-236l-55 -54v-154l55 -54h269l87 -87v-210l-89 -89h-294zM271 900h60l93 -133h-55l-65 95h-6l-65 -95h-55z" />
    <glyph glyph-name="scircumflex" unicode="&#x15d;" horiz-adv-x="504" 
d="M55 77v62h56v-45l45 -44h192l45 44v88l-45 45h-215l-74 74v120l78 77h225l77 -77v-62h-56v45l-45 45h-177l-46 -45v-84l46 -45h210l78 -78v-119l-78 -78h-239zM218 698h60l93 -133h-55l-65 95h-6l-65 -95h-55z" />
    <glyph glyph-name="Scedilla" unicode="&#x15e;" horiz-adv-x="605" 
d="M540 299v-210l-89 -89h-118l-22 -56h69l48 -48v-71l-49 -49h-139v41h119l22 22v41l-22 22h-101v36l24 62h-125l-87 87v53h57v-33l54 -55h247l55 57v170l-55 55h-269l-87 86v193l87 87h286l87 -87v-54h-57v35l-55 54h-236l-55 -54v-154l55 -54h269z" />
    <glyph glyph-name="scedilla" unicode="&#x15f;" horiz-adv-x="504" 
d="M280 0l-22 -56h69l48 -48v-71l-49 -49h-139v41h119l22 22v41l-22 22h-101v36l24 62h-97l-77 77v62h56v-45l45 -44h192l45 44v88l-45 45h-215l-74 74v120l78 77h225l77 -77v-62h-56v45l-45 45h-177l-46 -45v-84l46 -45h210l78 -78v-119l-78 -78h-91z" />
    <glyph glyph-name="Scaron" unicode="&#x160;" horiz-adv-x="605" 
d="M70 87v53h57v-33l54 -55h247l55 57v170l-55 55h-269l-87 86v193l87 87h286l87 -87v-54h-57v35l-55 54h-236l-55 -54v-154l55 -54h269l87 -87v-210l-89 -89h-294zM178 900h55l65 -94h6l65 94h55l-93 -133h-60z" />
    <glyph glyph-name="scaron" unicode="&#x161;" horiz-adv-x="504" 
d="M55 77v62h56v-45l45 -44h192l45 44v88l-45 45h-215l-74 74v120l78 77h225l77 -77v-62h-56v45l-45 45h-177l-46 -45v-84l46 -45h210l78 -78v-119l-78 -78h-239zM125 698h55l65 -94h6l65 94h55l-93 -133h-60z" />
    <glyph glyph-name="uni0162" unicode="&#x162;" horiz-adv-x="552" 
d="M247 649h-212v51h482v-51h-212v-649h-58v649zM198 -210h119l22 22v41l-22 22h-101v36l35 89h52l-34 -83h70l48 -48v-71l-49 -49h-140v41z" />
    <glyph glyph-name="uni0163" unicode="&#x163;" horiz-adv-x="382" 
d="M181 448v-343l55 -55h101v-50h-96l-23 -56h70l48 -48v-71l-49 -49h-140v41h119l22 22v41l-22 22h-100v36l30 78l-71 71v362h-90v49h92v162h54v-162h156v-50h-156z" />
    <glyph glyph-name="Tcaron" unicode="&#x164;" horiz-adv-x="552" 
d="M247 649h-212v51h482v-51h-212v-649h-58v649zM153 900h55l65 -94h6l65 94h55l-93 -133h-60z" />
    <glyph glyph-name="tcaron" unicode="&#x165;" horiz-adv-x="508" 
d="M125 87v362h-90v49h92v162h54v-162h156v-50h-156v-343l55 -55h101v-50h-125zM440 621h-13l-25 25v37l25 24h37l24 -24v-62l-44 -121h-35z" />
    <glyph glyph-name="Tbar" unicode="&#x166;" horiz-adv-x="552" 
d="M305 649v-295h172v-48h-172v-306h-58v306h-166v48h166v295h-212v51h482v-51h-212z" />
    <glyph glyph-name="tbar" unicode="&#x167;" horiz-adv-x="382" 
d="M181 448v-181h156v-47h-156v-115l55 -55h101v-50h-125l-87 87v133h-90v47h90v182h-90v49h92v162h54v-162h156v-50h-156z" />
    <glyph glyph-name="Utilde" unicode="&#x168;" horiz-adv-x="668" 
d="M85 105v595h58v-576l72 -72h238l72 72v576h58v-595l-105 -105h-288zM294 827h-20l-20 -20v-24h-47v37l48 48h56l64 -50h21l20 20v25h46v-38l-48 -48h-55z" />
    <glyph glyph-name="utilde" unicode="&#x169;" horiz-adv-x="559" 
d="M75 87v411h56v-393l55 -54h105l132 132v315h56v-498h-55v116l-116 -116h-146zM237 625h-20l-20 -20v-24h-47v37l48 48h56l64 -50h21l20 20v25h46v-38l-48 -48h-55z" />
    <glyph glyph-name="Umacron" unicode="&#x16a;" horiz-adv-x="668" 
d="M85 105v595h58v-576l72 -72h238l72 72v576h58v-595l-105 -105h-288zM204 831h262v-46h-262v46z" />
    <glyph glyph-name="umacron" unicode="&#x16b;" horiz-adv-x="559" 
d="M75 87v411h56v-393l55 -54h105l132 132v315h56v-498h-55v116l-116 -116h-146zM147 629h262v-46h-262v46z" />
    <glyph glyph-name="Ubreve" unicode="&#x16c;" horiz-adv-x="668" 
d="M85 105v595h58v-576l72 -72h238l72 72v576h58v-595l-105 -105h-288zM205 836v55h48v-40l41 -41h80l41 41v40h48v-55l-68 -69h-121z" />
    <glyph glyph-name="ubreve" unicode="&#x16d;" horiz-adv-x="559" 
d="M75 87v411h56v-393l55 -54h105l132 132v315h56v-498h-55v116l-116 -116h-146zM149 634v55h48v-40l41 -41h80l41 41v40h48v-55l-68 -69h-121z" />
    <glyph glyph-name="Uring" unicode="&#x16e;" horiz-adv-x="668" 
d="M85 105v595h58v-576l72 -72h238l72 72v576h58v-595l-105 -105h-288zM240 811v79l53 53h82l53 -53v-79l-53 -54h-82zM359 798l27 27v50l-27 27h-50l-27 -27v-50l27 -27h50z" />
    <glyph glyph-name="uring" unicode="&#x16f;" horiz-adv-x="559" 
d="M75 87v411h56v-393l55 -54h105l132 132v315h56v-498h-55v116l-116 -116h-146zM184 609v79l53 53h82l53 -53v-79l-53 -54h-82zM303 596l27 27v50l-27 27h-50l-27 -27v-50l27 -27h50z" />
    <glyph glyph-name="Uhungarumlaut" unicode="&#x170;" horiz-adv-x="668" 
d="M85 105v595h58v-576l72 -72h238l72 72v576h58v-595l-105 -105h-288zM312 920h64l-88 -153h-52zM457 920h63l-87 -153h-53z" />
    <glyph glyph-name="uhungarumlaut" unicode="&#x171;" horiz-adv-x="559" 
d="M75 87v411h56v-393l55 -54h105l132 132v315h56v-498h-55v116l-116 -116h-146zM256 718h64l-88 -153h-52zM401 718h63l-87 -153h-53z" />
    <glyph glyph-name="Uogonek" unicode="&#x172;" horiz-adv-x="668" 
d="M85 105v595h58v-576l72 -72h238l72 72v576h58v-595l-105 -105h-288zM275 -127v66l54 61h52l-55 -69v-43l27 -27h67v-42h-91z" />
    <glyph glyph-name="uogonek" unicode="&#x173;" horiz-adv-x="559" 
d="M75 87v411h56v-393l55 -54h105l132 132v315h56v-498h-55v116l-116 -116h-146zM373 -127v66l54 61h52l-55 -69v-43l27 -27h67v-42h-91z" />
    <glyph glyph-name="Wcircumflex" unicode="&#x174;" horiz-adv-x="851" 
d="M45 700h58l117 -619h2l179 619h56l174 -619h2l115 619h58l-137 -700h-64l-175 618h-2l-181 -618h-64zM397 900h60l93 -133h-55l-65 95h-6l-65 -95h-55z" />
    <glyph glyph-name="wcircumflex" unicode="&#x175;" horiz-adv-x="694" 
d="M40 498h58l91 -433h3l129 433h56l117 -433h3l99 433h58l-124 -498h-62l-118 431h-2l-130 -431h-63zM318 698h60l93 -133h-55l-65 95h-6l-65 -95h-55z" />
    <glyph glyph-name="Ycircumflex" unicode="&#x176;" horiz-adv-x="572" 
d="M257 294l-237 406h62l203 -353h2l203 353h62l-237 -406v-294h-58v294zM256 900h60l93 -133h-55l-65 95h-6l-65 -95h-55z" />
    <glyph glyph-name="ycircumflex" unicode="&#x177;" horiz-adv-x="561" 
d="M481 498v-629l-87 -86h-233l-71 70v57h56v-39l39 -38h185l55 54v231l-118 -118h-145l-87 87v411h56v-393l55 -54h105l134 135v312h56zM250 698h60l93 -133h-55l-65 95h-6l-65 -95h-55z" />
    <glyph glyph-name="Ydieresis" unicode="&#x178;" horiz-adv-x="572" 
d="M257 294l-237 406h62l203 -353h2l203 353h62l-237 -406v-294h-58v294zM149 805v36l24 23h36l22 -23v-36l-22 -23h-36zM341 805v36l22 23h36l24 -23v-36l-24 -23h-36z" />
    <glyph glyph-name="Zacute" unicode="&#x179;" horiz-adv-x="560" 
d="M55 60l389 589v2h-379v49h440v-59l-389 -589v-2h389v-50h-447zM336 920h65l-87 -153h-53z" />
    <glyph glyph-name="zacute" unicode="&#x17a;" horiz-adv-x="466" 
d="M45 55l313 394v2h-303v47h366v-55l-313 -393v-2h313v-48h-376v55zM288 718h65l-87 -153h-53z" />
    <glyph glyph-name="Zdotaccent" unicode="&#x17b;" horiz-adv-x="560" 
d="M55 60l389 589v2h-379v49h440v-59l-389 -589v-2h389v-50h-447zM243 802v37l22 23h38l23 -23v-37l-23 -23h-38z" />
    <glyph glyph-name="zdotaccent" unicode="&#x17c;" horiz-adv-x="466" 
d="M45 55l313 394v2h-303v47h366v-55l-313 -393v-2h313v-48h-376v55zM196 600v37l22 23h38l23 -23v-37l-23 -23h-38z" />
    <glyph glyph-name="Zcaron" unicode="&#x17d;" horiz-adv-x="560" 
d="M55 60l389 589v2h-379v49h440v-59l-389 -589v-2h389v-50h-447zM162 900h55l65 -94h6l65 94h55l-93 -133h-60z" />
    <glyph glyph-name="zcaron" unicode="&#x17e;" horiz-adv-x="466" 
d="M45 55l313 394v2h-303v47h366v-55l-313 -393v-2h313v-48h-376v55zM115 698h55l65 -94h6l65 94h55l-93 -133h-60z" />
    <glyph glyph-name="uni018F" unicode="&#x18f;" horiz-adv-x="690" 
d="M75 124v250h482v182l-93 92h-238l-93 -92v-65h-58v85l124 124h292l124 -124v-452l-124 -124h-292zM462 52l95 95v175h-424v-175l95 -95h234z" />
    <glyph glyph-name="florin" unicode="&#x192;" horiz-adv-x="593" 
d="M377 597l-29 -142h195v-51h-205l-70 -344l-82 -82h-146v49h122l55 55l63 322h-160v51h170l31 159l82 82h150v-49h-125z" />
    <glyph glyph-name="Ohorn" unicode="&#x1a0;" horiz-adv-x="726" 
d="M711 710v-98l-78 -78h-40v-429l-105 -105h-308l-105 105v490l105 105h308l105 -105v-12h15l49 48v79h54zM535 576l-73 72h-256l-73 -72v-451l73 -73h256l73 73v451z" />
    <glyph glyph-name="ohorn" unicode="&#x1a1;" horiz-adv-x="630" 
d="M630 508v-98l-78 -78h-60v-245l-87 -87h-248l-87 87v324l87 87h248l87 -87v-30h35l49 48v79h54zM436 394l-55 54h-200l-55 -54v-289l55 -54h200l55 54v289z" />
    <glyph glyph-name="Uhorn" unicode="&#x1af;" horiz-adv-x="730" 
d="M721 710v-98l-78 -78h-60v-429l-105 -105h-288l-105 105v595h58v-576l72 -72h238l72 72v576h58v-117h35l49 48v79h54z" />
    <glyph glyph-name="uhorn" unicode="&#x1b0;" horiz-adv-x="630" 
d="M617 508v-98l-78 -78h-60v-332h-55v116l-116 -116h-146l-87 87v411h56v-393l55 -54h105l132 132v315h56v-117h35l49 48v79h54z" />
    <glyph glyph-name="uni01CD" unicode="&#x1cd;" horiz-adv-x="605" 
d="M268 700h69l243 -700h-60l-68 200h-299l-68 -200h-60zM435 251l-131 386h-3l-130 -386h264zM180 900h55l65 -94h6l65 94h55l-93 -133h-60z" />
    <glyph glyph-name="uni01CE" unicode="&#x1ce;" horiz-adv-x="543" 
d="M65 77v131l77 75h270v111l-55 55h-176l-56 -55v-45h-56v62l87 87h225l87 -87v-411h-55v97l-100 -97h-171zM300 50l112 110v73h-247l-44 -42v-98l44 -43h135zM152 698h55l65 -94h6l65 94h55l-93 -133h-60z" />
    <glyph glyph-name="uni01CF" unicode="&#x1cf;" horiz-adv-x="238" 
d="M90 700h58v-700h-58v700zM-4 900h55l65 -94h6l65 94h55l-93 -133h-60z" />
    <glyph glyph-name="uni01D0" unicode="&#x1d0;" horiz-adv-x="236" 
d="M90 498h56v-498h-56v498zM-5 698h55l65 -94h6l65 94h55l-93 -133h-60z" />
    <glyph glyph-name="uni01D1" unicode="&#x1d1;" horiz-adv-x="668" 
d="M75 105v490l105 105h308l105 -105v-490l-105 -105h-308zM462 52l73 73v451l-73 72h-256l-73 -72v-451l73 -73h256zM212 900h55l65 -94h6l65 94h55l-93 -133h-60z" />
    <glyph glyph-name="uni01D2" unicode="&#x1d2;" horiz-adv-x="562" 
d="M70 87v324l87 87h248l87 -87v-324l-87 -87h-248zM381 51l55 54v289l-55 54h-200l-55 -54v-289l55 -54h200zM158 698h55l65 -94h6l65 94h55l-93 -133h-60z" />
    <glyph glyph-name="uni01D3" unicode="&#x1d3;" horiz-adv-x="668" 
d="M85 105v595h58v-576l72 -72h238l72 72v576h58v-595l-105 -105h-288zM211 900h55l65 -94h6l65 94h55l-93 -133h-60z" />
    <glyph glyph-name="uni01D4" unicode="&#x1d4;" horiz-adv-x="559" 
d="M75 87v411h56v-393l55 -54h105l132 132v315h56v-498h-55v116l-116 -116h-146zM155 698h55l65 -94h6l65 94h55l-93 -133h-60z" />
    <glyph glyph-name="uni01D5" unicode="&#x1d5;" horiz-adv-x="668" 
d="M85 105v595h58v-576l72 -72h238l72 72v576h58v-595l-105 -105h-288zM204 981h262v-45h-262v45zM198 805v36l23 23h36l23 -23v-36l-23 -23h-36zM389 805v36l23 23h36l23 -23v-36l-23 -23h-36z" />
    <glyph glyph-name="uni01D6" unicode="&#x1d6;" horiz-adv-x="559" 
d="M75 87v411h56v-393l55 -54h105l132 132v315h56v-498h-55v116l-116 -116h-146zM147 779h262v-45h-262v45zM141 603v36l23 23h36l23 -23v-36l-23 -23h-36zM332 603v36l23 23h36l23 -23v-36l-23 -23h-36z" />
    <glyph glyph-name="uni01D7" unicode="&#x1d7;" horiz-adv-x="668" 
d="M85 105v595h58v-576l72 -72h238l72 72v576h58v-595l-105 -105h-288zM370 1029h60l-73 -126h-49zM197 805v36l24 23h36l22 -23v-36l-22 -23h-36zM389 805v36l22 23h36l24 -23v-36l-24 -23h-36z" />
    <glyph glyph-name="uni01D8" unicode="&#x1d8;" horiz-adv-x="559" 
d="M75 87v411h56v-393l55 -54h105l132 132v315h56v-498h-55v116l-116 -116h-146zM314 827h60l-73 -126h-49zM141 603v36l24 23h36l22 -23v-36l-22 -23h-36zM333 603v36l22 23h36l24 -23v-36l-24 -23h-36z" />
    <glyph glyph-name="uni01D9" unicode="&#x1d9;" horiz-adv-x="668" 
d="M85 105v595h58v-576l72 -72h238l72 72v576h58v-595l-105 -105h-288zM214 1021h55l62 -82h6l62 82h55l-92 -118h-56zM197 805v36l24 23h36l22 -23v-36l-22 -23h-36zM389 805v36l22 23h36l24 -23v-36l-24 -23h-36z" />
    <glyph glyph-name="uni01DA" unicode="&#x1da;" horiz-adv-x="559" 
d="M75 87v411h56v-393l55 -54h105l132 132v315h56v-498h-55v116l-116 -116h-146zM158 819h55l62 -82h6l62 82h55l-92 -118h-56zM141 603v36l24 23h36l22 -23v-36l-22 -23h-36zM333 603v36l22 23h36l24 -23v-36l-24 -23h-36z" />
    <glyph glyph-name="uni01DB" unicode="&#x1db;" horiz-adv-x="668" 
d="M85 105v595h58v-576l72 -72h238l72 72v576h58v-595l-105 -105h-288zM240 1029h60l62 -126h-48zM197 805v36l24 23h36l22 -23v-36l-22 -23h-36zM389 805v36l22 23h36l24 -23v-36l-24 -23h-36z" />
    <glyph glyph-name="uni01DC" unicode="&#x1dc;" horiz-adv-x="559" 
d="M75 87v411h56v-393l55 -54h105l132 132v315h56v-498h-55v116l-116 -116h-146zM184 827h60l62 -126h-48zM141 603v36l24 23h36l22 -23v-36l-22 -23h-36zM333 603v36l22 23h36l24 -23v-36l-24 -23h-36z" />
    <glyph glyph-name="Gcaron" unicode="&#x1e6;" horiz-adv-x="644" 
d="M75 105v490l105 105h298l101 -101v-53h-58v35l-68 67h-247l-73 -72v-451l73 -73h243l72 72v182h-161v52h219v-253l-105 -105h-294zM204 900h55l65 -94h6l65 94h55l-93 -133h-60z" />
    <glyph glyph-name="gcaron" unicode="&#x1e7;" horiz-adv-x="572" 
d="M492 498v-630l-86 -86h-239l-72 71v57h56v-38l40 -40h190l55 54v204l-100 -90h-179l-87 87v324l87 87h183l97 -97v97h55zM436 334l-113 114h-142l-55 -54v-289l55 -54h142l113 103v180zM161 698h55l65 -94h6l65 94h55l-93 -133h-60z" />
    <glyph glyph-name="Aringacute" unicode="&#x1fa;" horiz-adv-x="605" 
d="M268 700h69l243 -700h-60l-68 200h-299l-68 -200h-60zM435 251l-131 386h-3l-130 -386h264zM209 811v79l53 53h82l53 -53v-79l-53 -54h-82zM328 798l27 27v50l-27 27h-50l-27 -27v-50l27 -27h50zM354 1146h65l-87 -153h-53z" />
    <glyph glyph-name="aringacute" unicode="&#x1fb;" horiz-adv-x="543" 
d="M65 77v131l77 75h270v111l-55 55h-176l-56 -55v-45h-56v62l87 87h225l87 -87v-411h-55v97l-100 -97h-171zM300 50l112 110v73h-247l-44 -42v-98l44 -43h135zM181 609v79l53 53h82l53 -53v-79l-53 -54h-82zM300 596l27 27v50l-27 27h-50l-27 -27v-50l27 -27h50zM325 944
h65l-87 -153h-53z" />
    <glyph glyph-name="AEacute" unicode="&#x1fc;" horiz-adv-x="915" 
d="M502 648v-271h329v-52h-329v-273h358v-52h-416v193h-279l-84 -193h-61l309 700h531v-52h-358zM444 245v403h-80l-176 -403h256zM546 920h65l-87 -153h-53z" />
    <glyph glyph-name="aeacute" unicode="&#x1fd;" horiz-adv-x="877" 
d="M468 106l56 -55h176l55 55v43h56v-61l-87 -88h-223l-81 81l-82 -81h-196l-77 77v130l77 76h270v111l-55 55h-176l-56 -55v-45h-56v62l87 87h225l59 -59l59 59h225l88 -87v-177h-344v-128zM468 393v-110h288v110l-55 55h-178zM412 141v92h-247l-44 -43v-97l44 -43h155z
M495 718h65l-87 -153h-53z" />
    <glyph glyph-name="Oslashacute" unicode="&#x1fe;" horiz-adv-x="668" 
d="M559 629l34 -34v-490l-105 -105h-308l-35 35l-45 -65h-61l70 101l-34 34v490l105 105h308l35 -35l45 65h61zM141 117l350 502l-29 29h-256l-73 -72v-451zM527 584l-350 -503l29 -29h256l73 73v451zM385 920h65l-87 -153h-53z" />
    <glyph glyph-name="oslashacute" unicode="&#x1ff;" horiz-adv-x="562" 
d="M462 441l30 -30v-324l-87 -87h-248l-25 25l-51 -65h-61l78 99l-28 28v324l87 87h248l23 -23l49 63h61zM131 100l264 334l-14 14h-200l-55 -54v-289zM429 401l-264 -334l16 -16h200l55 54v289zM332 718h65l-87 -153h-53z" />
    <glyph glyph-name="uni0218" unicode="&#x218;" horiz-adv-x="605" 
d="M70 87v53h57v-33l54 -55h247l55 57v170l-55 55h-269l-87 86v193l87 87h286l87 -87v-54h-57v35l-55 54h-236l-55 -54v-154l55 -54h269l87 -87v-210l-89 -89h-294zM306 -154h-13l-25 25v37l25 24h37l24 -24v-62l-44 -121h-35z" />
    <glyph glyph-name="uni0219" unicode="&#x219;" horiz-adv-x="504" 
d="M55 77v62h56v-45l45 -44h192l45 44v88l-45 45h-215l-74 74v120l78 77h225l77 -77v-62h-56v45l-45 45h-177l-46 -45v-84l46 -45h210l78 -78v-119l-78 -78h-239zM253 -154h-13l-25 25v37l25 24h37l24 -24v-62l-44 -121h-35z" />
    <glyph glyph-name="uni021A" unicode="&#x21a;" horiz-adv-x="552" 
d="M247 649h-212v51h482v-51h-212v-649h-58v649zM271 -154h-13l-25 25v37l25 24h37l24 -24v-62l-44 -121h-35z" />
    <glyph glyph-name="uni021B" unicode="&#x21b;" horiz-adv-x="382" 
d="M125 87v362h-90v49h92v162h54v-162h156v-50h-156v-343l55 -55h101v-50h-125zM213 -154h-13l-25 25v37l25 24h37l24 -24v-62l-44 -121h-35z" />
    <glyph glyph-name="uni0237" unicode="&#x237;" horiz-adv-x="246" 
d="M-50 -168h96l54 54v612h56v-630l-86 -86h-120v50z" />
    <glyph glyph-name="uni0251" unicode="&#x251;" horiz-adv-x="587" 
d="M70 87v324l87 87h191l89 -76v76h55v-451h70v-47h-91l-34 37v62l-99 -99h-181zM324 51l112 112v197l-103 88h-152l-55 -54v-289l55 -54h143z" />
    <glyph glyph-name="uni0259" unicode="&#x259;" horiz-adv-x="553" 
d="M483 411v-324l-87 -87h-243l-88 87v178h362v128l-56 55h-193l-56 -55v-43h-56v61l88 87h242zM121 216v-111l55 -54h196l55 54v111h-306z" />
    <glyph glyph-name="uni02BB" unicode="&#x2bb;" horiz-adv-x="241" 
d="M137 648h13l25 -24v-37l-25 -25h-37l-24 25v61l44 121h35z" />
    <glyph glyph-name="uni02BC" unicode="&#x2bc;" horiz-adv-x="210" 
d="M97 606h-13l-25 25v37l25 24h37l24 -24v-62l-44 -121h-35z" />
    <glyph glyph-name="uni02BE" unicode="&#x2be;" 
d="M-26 587h24l27 26v49l-27 27h-24v42h41l54 -54v-79l-54 -53h-41v42z" />
    <glyph glyph-name="uni02BF" unicode="&#x2bf;" 
d="M-69 598v79l54 54h41v-42h-24l-27 -27v-49l27 -26h24v-42h-41z" />
    <glyph glyph-name="circumflex" unicode="&#x2c6;" horiz-adv-x="420" 
d="M181 698h59l93 -133h-55l-65 95h-5l-65 -95h-56z" />
    <glyph glyph-name="caron" unicode="&#x2c7;" horiz-adv-x="420" 
d="M87 698h56l65 -94h5l65 94h55l-93 -133h-59z" />
    <glyph glyph-name="uni02C8" unicode="&#x2c8;" 
d="M-28 726h56v-137h-56v137z" />
    <glyph glyph-name="uni02C9" unicode="&#x2c9;" horiz-adv-x="492" 
d="M96 617h301v-42h-301v42z" />
    <glyph glyph-name="uni02CA" unicode="&#x2ca;" 
d="M23 716h67l-134 -153h-56z" />
    <glyph glyph-name="uni02CB" unicode="&#x2cb;" 
d="M-100 716h67l123 -153h-56z" />
    <glyph glyph-name="uni02CC" unicode="&#x2cc;" 
d="M-28 -42h56v-137h-56v137z" />
    <glyph glyph-name="breve" unicode="&#x2d8;" horiz-adv-x="425" 
d="M84 634v55h48v-40l41 -41h80l41 41v40h48v-55l-69 -69h-120z" />
    <glyph glyph-name="dotaccent" unicode="&#x2d9;" horiz-adv-x="239" 
d="M79 600v37l22 23h38l23 -23v-37l-23 -23h-38z" />
    <glyph glyph-name="ring" unicode="&#x2da;" horiz-adv-x="308" 
d="M60 609v79l54 53h81l53 -53v-79l-53 -54h-81zM179 596l27 27v50l-27 27h-49l-27 -27v-50l27 -27h49z" />
    <glyph glyph-name="ogonek" unicode="&#x2db;" horiz-adv-x="279" 
d="M68 -127v66l53 61h52l-55 -69v-43l27 -26h67v-43h-90z" />
    <glyph glyph-name="tilde" unicode="&#x2dc;" horiz-adv-x="391" 
d="M156 625h-20l-21 -20v-24h-46v37l48 48h55l64 -50h21l20 20v25h46v-38l-48 -48h-55z" />
    <glyph glyph-name="hungarumlaut" unicode="&#x2dd;" horiz-adv-x="377" 
d="M123 718h64l-88 -153h-52zM268 718h63l-88 -153h-52z" />
    <glyph glyph-name="gravecomb" unicode="&#x300;" 
d="M-117 718h66l75 -153h-54z" />
    <glyph glyph-name="acutecomb" unicode="&#x301;" 
d="M50 718h65l-87 -153h-53z" />
    <glyph glyph-name="uni0302" unicode="&#x302;" 
d="M-30 698h60l93 -133h-55l-65 95h-6l-65 -95h-55z" />
    <glyph glyph-name="tildecomb" unicode="&#x303;" 
d="M-41 625h-20l-20 -20v-24h-47v37l48 48h56l64 -50h21l20 20v25h46v-38l-48 -48h-55z" />
    <glyph glyph-name="uni0304" unicode="&#x304;" 
d="M-131 629h262v-46h-262v46z" />
    <glyph glyph-name="uni0306" unicode="&#x306;" 
d="M-129 634v55h48v-40l41 -41h80l41 41v40h48v-55l-68 -69h-121z" />
    <glyph glyph-name="uni0307" unicode="&#x307;" 
d="M-42 600v37l22 23h38l23 -23v-37l-23 -23h-38z" />
    <glyph glyph-name="uni0308" unicode="&#x308;" 
d="M-137 603v36l24 23h36l22 -23v-36l-22 -23h-36zM55 603v36l22 23h36l24 -23v-36l-24 -23h-36z" />
    <glyph glyph-name="hookabovecomb" unicode="&#x309;" 
d="M-25 600l71 73v27l-17 17h-58l-20 -20v-20h-46v36l46 46h98l46 -46v-49l-69 -72v-27h-51v35z" />
    <glyph glyph-name="uni030A" unicode="&#x30a;" 
d="M-94 609v79l53 53h82l53 -53v-79l-53 -54h-82zM25 596l27 27v50l-27 27h-50l-27 -27v-50l27 -27h50z" />
    <glyph glyph-name="uni030B" unicode="&#x30b;" 
d="M-22 718h64l-88 -153h-52zM123 718h63l-87 -153h-53z" />
    <glyph glyph-name="uni030C" unicode="&#x30c;" 
d="M-123 698h55l65 -94h6l65 94h55l-93 -133h-60z" />
    <glyph glyph-name="uni031B" unicode="&#x31b;" 
d="M-78 419h57l50 48v79h53v-98l-77 -78h-83v49z" />
    <glyph glyph-name="dotbelowcomb" unicode="&#x323;" 
d="M-42 -135v37l22 23h38l23 -23v-37l-23 -23h-38z" />
    <glyph glyph-name="uni0324" unicode="&#x324;" 
d="M-137 -134v36l24 23h36l22 -23v-36l-22 -23h-36zM55 -134v36l22 23h36l24 -23v-36l-24 -23h-36z" />
    <glyph glyph-name="uni0326" unicode="&#x326;" 
d="M-5 -154h-13l-25 25v37l25 24h37l24 -24v-62l-44 -121h-35z" />
    <glyph glyph-name="uni0327" unicode="&#x327;" 
d="M-71 -183h119l22 22v41l-22 22h-101v36l35 89h52l-34 -83h70l48 -48v-71l-49 -49h-140v41z" />
    <glyph glyph-name="uni0328" unicode="&#x328;" 
d="M-61 -127v66l54 61h52l-55 -69v-43l27 -27h67v-42h-91z" />
    <glyph glyph-name="uni032E" unicode="&#x32e;" 
d="M-129 -135v55h48v-40l41 -41h80l41 41v40h48v-55l-68 -69h-121z" />
    <glyph glyph-name="uni0331" unicode="&#x331;" 
d="M-131 -90h262v-46h-262v46z" />
    <glyph glyph-name="uni0394" unicode="&#x394;" horiz-adv-x="633" 
d="M40 49l238 651h78l237 -651v-49h-553v49zM533 50l-213 599h-6l-215 -599h434z" />
    <glyph glyph-name="uni03A9" unicode="&#x3a9;" horiz-adv-x="683" 
d="M65 50h129v112l-111 111v339l88 88h340l89 -88v-339l-112 -111v-112h130v-50h-184v182l110 110v298l-60 60h-285l-60 -60v-298l109 -110v-182h-183v50z" />
    <glyph glyph-name="uni03BC" unicode="&#x3bc;" horiz-adv-x="564" 
d="M484 498v-498h-55v111l-111 -111h-136l-46 46v-246h-56v698h56v-383l65 -64h101l126 127v320h56z" />
    <glyph glyph-name="pi" unicode="&#x3c0;" horiz-adv-x="702" 
d="M526 447v-352l45 -45h71v-50h-95l-77 77v371h-249v-448h-56v448h-105v50h582v-51h-116z" />
    <glyph glyph-name="uni0E01" unicode="&#xe01;" horiz-adv-x="578" 
d="M87 311l55 69l-87 85l93 93h269l76 -76v-482h-56v459l-48 48h-223l-43 -42l84 -85l-64 -85v-295h-56v311z" />
    <glyph glyph-name="uni0E02" unicode="&#xe02;" horiz-adv-x="565" 
d="M240 74v208l56 131v64l-45 45h-102l-34 -34h48l54 -54v-64l-54 -54h-69l-54 54v97l95 101h140l74 -73v-89l-53 -127v-186l42 -42h44l42 42v465h56v-484l-74 -74h-92zM147 357l26 26v40l-26 26h-38l-26 -25v-41l26 -26h38z" />
    <glyph glyph-name="uni0E03" unicode="&#xe03;" horiz-adv-x="578" 
d="M253 74v214l79 126v81l-24 27h-19l-53 -57l-55 57h-47l-39 -42h62l51 -52v-62l-53 -53h-67l-53 52v105l85 98h72l44 -49l42 49h52l53 -59v-104l-74 -120v-192l42 -42h44l42 42v465h56v-484l-74 -74h-93zM140 353l25 25v39l-25 26h-37l-26 -25v-40l26 -25h37z" />
    <glyph glyph-name="uni0E04" unicode="&#xe04;" horiz-adv-x="610" 
d="M525 476v-476h-56v459l-48 48h-232l-48 -48v-231l133 120h68l54 -54v-66l-54 -53h-69l-58 58l-26 -24l-48 -42v-167h-56v476l83 82h274zM262 240l25 -25h40l25 25v42l-25 25h-40l-25 -25v-42z" />
    <glyph glyph-name="uni0E05" unicode="&#xe05;" horiz-adv-x="612" 
d="M527 483v-483h-56v466l-37 41h-45l-83 -65l-83 65h-45l-37 -41v-241l133 119h68l53 -54v-66l-53 -53h-69l-58 58l-26 -24l-48 -42v-163h-56v483l68 75h83l70 -57l70 57h82zM262 236l25 -25h40l25 25v42l-25 25h-40l-25 -25v-42z" />
    <glyph glyph-name="uni0E06" unicode="&#xe06;" horiz-adv-x="649" 
d="M564 558v-558h-52l-207 104v-50l-54 -54h-71l-54 54v66l54 54h53v97l118 152v72l-24 27h-28l-53 -57l-55 57h-47l-38 -42h61l51 -52v-62l-53 -53h-67l-53 52v105l85 98h72l44 -49l42 49h61l53 -59v-95l-113 -149v-99l219 -109v501h56zM87 418v-40l26 -25h37l25 25v39
l-25 26h-37zM262 107l-26 26h-39l-27 -26v-39l27 -27h39l26 27v39z" />
    <glyph glyph-name="uni0E07" unicode="&#xe07;" horiz-adv-x="471" 
d="M30 337l45 33l217 -318h38v293l4 48l-18 -9h-54l-54 54v67l54 53h71l53 -53v-470l-34 -35h-88zM317 425l25 25v42l-25 25h-40l-25 -25v-42l25 -25h40z" />
    <glyph glyph-name="uni0E08" unicode="&#xe08;" horiz-adv-x="557" 
d="M472 481v-481h-56v177l-63 54l-9 9l-58 -58h-72l-53 53v67l53 54h72l130 -112v215l-48 48h-231l-46 -46v-54h-56v74l77 77h283zM295 290l-25 25h-40l-25 -25v-42l25 -25h40l25 25v42z" />
    <glyph glyph-name="uni0E09" unicode="&#xe09;" horiz-adv-x="594" 
d="M544 120v-71l-50 -49h-74l-50 49v43l-147 -92h-51v148l4 48l-17 -8h-55l-54 53v67l54 54h71l52 -53v-252l218 130v272l-48 48h-238l-46 -46v-44h-56v64l77 77h291l76 -77v-318zM184 296l-25 25h-40l-25 -25v-42l25 -25h40l25 25v42zM501 104l-26 27h-36l-26 -27v-37
l26 -27h36l26 27v37z" />
    <glyph glyph-name="uni0E0A" unicode="&#xe0a;" horiz-adv-x="585" 
d="M240 74v208l56 131v64l-45 45h-102l-34 -34h48l54 -54v-64l-54 -54h-69l-54 54v97l95 101h140l74 -73v-89l-53 -127v-186l42 -42h54l42 42v323l-34 43v28l144 141l36 -38l-125 -121l34 -43v-352l-73 -74h-102zM147 357l26 26v40l-26 26h-38l-26 -25v-41l26 -26h38z" />
    <glyph glyph-name="uni0E0B" unicode="&#xe0b;" horiz-adv-x="599" 
d="M253 74v214l79 126v81l-24 27h-19l-53 -57l-55 57h-47l-39 -42h62l51 -52v-62l-53 -53h-67l-53 52v105l85 98h72l44 -49l42 49h52l53 -59v-104l-74 -120v-192l42 -42h55l42 42v323l-30 43v28l140 141l36 -38l-122 -121l31 -43v-352l-73 -74h-104zM140 353l25 25v39
l-25 26h-37l-26 -25v-40l26 -25h37z" />
    <glyph glyph-name="uni0E0C" unicode="&#xe0c;" horiz-adv-x="842" 
d="M757 558v-558h-53l-198 103v-49l-54 -54h-71l-54 54v66l54 54h52v285l-47 48h-220l-43 -42l84 -85l-68 -85v-84l-3 -45l19 8h52l54 -52v-68l-54 -54h-70l-54 54v255l59 71l-87 85l93 93h265l76 -76v-316l212 -109v501h56zM127 108v-42l26 -25h38l26 25v42l-26 25h-38z
M463 107l-27 26h-39l-26 -26v-39l26 -27h39l27 27v39z" />
    <glyph glyph-name="uni0E0D" unicode="&#xe0d;" horiz-adv-x="854" 
d="M83 54v255l59 71l-87 85l93 93h254l76 -76v-384l46 -46h143l46 46v460h56v-481l-77 -77h-194l-76 77v382l-48 48h-208l-43 -42l84 -85l-68 -85v-84l-3 -45l19 8h52l54 -52v-68l-54 -54h-70zM191 41l26 25v42l-26 25h-38l-26 -25v-42l26 -25h38zM420 -169v67l47 47h68
l47 -47v-56l-2 -6h83l80 82l38 -38l-93 -95h-221zM517 -177l23 23v37l-23 23h-32l-23 -23v-37l23 -23h32z" />
    <glyph glyph-name="uni0E0E" unicode="&#xe0e;" horiz-adv-x="620" 
d="M111 -218v68l53 55h208l107 -113v667l-48 48h-225l-43 -42l96 -85l-50 -84v-242l-54 -54h-66l-54 54v66l54 52h53l15 -8l-4 40v106l43 68l-101 87l93 93h271l76 -76v-756h-50l-56 56l-52 -56h-212zM141 41l25 25v41l-25 25h-37l-26 -25v-41l26 -25h37zM358 -229l39 43
l-42 46h-168l-27 -28v-33l27 -28h171z" />
    <glyph glyph-name="uni0E0F" unicode="&#xe0f;" horiz-adv-x="620" 
d="M93 -220v80l54 54h88l123 -126l54 63l67 -63v671l-48 48h-225l-43 -42l96 -85l-50 -84v-242l-54 -54h-66l-54 54v66l54 52h53l15 -8l-4 40v106l43 68l-101 87l93 93h271l76 -76v-756h-54l-67 64l-56 -64l-62 62l-67 -62h-82zM141 41l25 25v41l-25 25h-37l-26 -25v-41
l26 -25h37zM215 -231l53 50l-51 51h-50l-26 -26v-49l26 -26h48z" />
    <glyph glyph-name="uni0E10" unicode="&#xe10;" horiz-adv-x="516" 
d="M375 328l-335 78v75l78 77h323v-50h-300l-45 -44v-24l335 -77v-363h-56v118l-66 54l-8 9l-59 -59h-70l-54 54v66l54 53h70l133 -111v144zM251 229l-25 25h-39l-25 -25v-41l25 -25h39l25 25v41zM462 -75v-191h-106l-49 51l-46 -51l-53 61l-53 -61h-78l-55 54v79l55 55h78
l108 -130l44 50l64 -66h42v38l3 23h-50l-42 41v47l43 43h52zM407 -130l17 17v29l-17 17h-28l-17 -17v-29l17 -17h28zM183 -175l-45 55h-43l-28 -27v-50l28 -27h46z" />
    <glyph glyph-name="uni0E11" unicode="&#xe11;" horiz-adv-x="706" 
d="M260 334l64 124v37l-24 27h-18l-52 -57l-55 57h-46l-38 -42h61l51 -52v-62l-53 -53h-67l-53 52v105l85 98h70l45 -49l41 49h51l54 -59v-57l-62 -125v-242h1l154 473h88l64 -76v-482h-56v462l-35 45h-28l-168 -507h-74v334zM135 353l25 25v39l-25 26h-37l-26 -25v-40
l26 -25h37z" />
    <glyph glyph-name="uni0E12" unicode="&#xe12;" horiz-adv-x="874" 
d="M789 558v-558h-53l-193 102v-48l-54 -54h-71l-54 54v66l54 54h50v292l-37 40h-43l-83 -64l-84 64h-43l-37 -40v-402l100 98l23 22l-54 54v68l53 53h69l54 -53v-70l-243 -236h-58v483l68 75h82l70 -57l69 57h81l69 -75v-317l209 -109v501h56zM253 252l25 -25h40l25 25v42
l-25 25h-40l-25 -25v-42zM500 107l-26 26h-39l-27 -26v-39l27 -27h39l26 27v39z" />
    <glyph glyph-name="uni0E13" unicode="&#xe13;" horiz-adv-x="861" 
d="M816 120v-71l-50 -49h-75l-50 49v45l-164 -94h-52v459l-48 48h-211l-43 -42l84 -85l-68 -85v-84l-3 -45l19 8h52l54 -52v-68l-54 -54h-70l-54 54v255l59 71l-87 85l93 93h257l76 -76v-425l233 128v373h56v-393zM127 108v-42l26 -25h38l26 25v42l-26 25h-38zM773 104
l-27 27h-35l-27 -27v-37l27 -27h35l27 27v37z" />
    <glyph glyph-name="uni0E14" unicode="&#xe14;" horiz-adv-x="610" 
d="M525 481v-481h-56v458l-49 49h-230l-49 -49v-395l101 95l28 25l-53 53v68l54 53h69l53 -53v-70l-250 -234h-58v481l78 77h284zM260 250l25 -25h40l25 25v42l-25 25h-40l-25 -25v-42z" />
    <glyph glyph-name="uni0E15" unicode="&#xe15;" horiz-adv-x="612" 
d="M527 483v-483h-56v466l-37 41h-45l-83 -65l-83 65h-45l-37 -41v-403l100 93l28 24l-52 53v68l54 53h69l53 -53v-70l-250 -231h-58v483l68 75h83l70 -57l70 57h82zM260 247l25 -25h40l25 25v42l-25 25h-40l-25 -25v-42z" />
    <glyph glyph-name="uni0E16" unicode="&#xe16;" horiz-adv-x="578" 
d="M83 54v255l59 71l-87 85l93 93h269l76 -76v-482h-56v459l-48 48h-223l-43 -42l84 -85l-68 -85v-84l-3 -45l19 8h52l54 -52v-68l-54 -54h-70zM191 41l26 25v42l-26 25h-38l-26 -25v-42l26 -25h38z" />
    <glyph glyph-name="uni0E17" unicode="&#xe17;" horiz-adv-x="634" 
d="M157 345l4 48l-19 -9h-53l-54 54v67l54 53h71l53 -53v-404h1l170 457h89l76 -76v-482h-56v461l-45 46h-31l-193 -507h-67v345zM144 425l25 25v42l-25 25h-40l-25 -25v-42l25 -25h40z" />
    <glyph glyph-name="uni0E18" unicode="&#xe18;" horiz-adv-x="548" 
d="M91 77v212h56v-192l45 -45h175l45 45v222l-347 80v82l78 77h330v-50h-306l-46 -46v-29l347 -80v-276l-77 -77h-223z" />
    <glyph glyph-name="uni0E19" unicode="&#xe19;" horiz-adv-x="608" 
d="M563 120v-71l-50 -49h-74l-50 49v47l-179 -96h-53v345l4 48l-24 -9h-48l-54 54v67l54 53h71l53 -53v-448l248 128v373h56v-392zM169 492l-25 25h-40l-25 -25v-42l25 -25h40l25 25v42zM520 104l-26 27h-36l-26 -27v-37l26 -27h36l26 27v37z" />
    <glyph glyph-name="uni0E1A" unicode="&#xe1a;" horiz-adv-x="629" 
d="M157 77v268l4 48l-16 -9h-56l-54 54v67l54 53h71l53 -53v-408l45 -45h185l45 45v461h56v-481l-77 -77h-233zM144 425l25 25v42l-25 25h-40l-25 -25v-42l25 -25h40z" />
    <glyph glyph-name="uni0E1B" unicode="&#xe1b;" horiz-adv-x="631" 
d="M157 77v268l4 48l-19 -9h-53l-54 54v67l54 53h71l53 -53v-408l45 -45h187l45 45v671h56v-691l-77 -77h-235zM144 425l25 25v42l-25 25h-40l-25 -25v-42l25 -25h40z" />
    <glyph glyph-name="uni0E1C" unicode="&#xe1c;" horiz-adv-x="601" 
d="M85 505l54 53h71l53 -53v-67l-52 -54h-53l-20 9l3 -49v-266h1l141 186h35l141 -186h1v480h56v-558h-54l-162 212l-161 -212h-54v505zM194 425l25 25v42l-25 25h-40l-25 -25v-42l25 -25h40z" />
    <glyph glyph-name="uni0E1D" unicode="&#xe1d;" horiz-adv-x="603" 
d="M85 505l54 53h71l53 -53v-67l-52 -54h-53l-20 9l3 -49v-266h1l142 186h35l142 -186h1v690h56v-768h-54l-163 212l-162 -212h-54v505zM194 425l25 25v42l-25 25h-40l-25 -25v-42l25 -25h40z" />
    <glyph glyph-name="uni0E1E" unicode="&#xe1e;" horiz-adv-x="672" 
d="M157 345l4 48l-16 -9h-56l-54 54v67l54 53h70l53 -53v-387h2l139 350h38l139 -351h2v441h55v-558h-55l-160 401l-160 -401h-54zM144 425l25 25v42l-25 25h-40l-25 -25v-42l25 -25h40z" />
    <glyph glyph-name="uni0E1F" unicode="&#xe1f;" horiz-adv-x="674" 
d="M157 345l4 48l-17 -9h-55l-54 54v67l54 53h70l53 -53v-387h2l140 350h38l140 -351h2v651h55v-768h-55l-161 401l-161 -401h-54zM144 425l25 25v42l-25 25h-40l-25 -25v-42l25 -25h40z" />
    <glyph glyph-name="uni0E20" unicode="&#xe20;" horiz-adv-x="618" 
d="M35 54v66l54 52h53l15 -8l-4 40v106l43 68l-101 87l93 93h269l76 -76v-482h-56v459l-48 48h-223l-43 -42l96 -85l-50 -84v-242l-54 -54h-66zM141 41l25 25v41l-25 25h-37l-26 -25v-41l26 -25h37z" />
    <glyph glyph-name="uni0E21" unicode="&#xe21;" horiz-adv-x="608" 
d="M523 558v-558h-53l-227 106v-52l-54 -54h-71l-54 54v66l54 54h54v171l4 48l-18 -9h-54l-54 54v67l54 53h71l53 -53v-339l239 -109v501h56zM184 450v42l-25 25h-40l-25 -25v-42l25 -25h40zM200 107l-27 26h-39l-26 -26v-39l26 -27h39l27 27v39z" />
    <glyph glyph-name="uni0E22" unicode="&#xe22;" horiz-adv-x="580" 
d="M495 558v-481l-77 -77h-265l-78 78v102l78 77l-78 65v170l66 66h75l54 -53v-66l-54 -54h-61l-28 26v-72l69 -57h116v-49h-115l-66 -67v-67l47 -47h216l45 45v461h56zM136 451l25 -25h40l25 25v41l-25 25h-40l-25 -25v-41z" />
    <glyph glyph-name="uni0E23" unicode="&#xe23;" horiz-adv-x="477" 
d="M193 54v68l54 52h53l19 -8l-4 48v119l-265 60v88l77 77h290v-51h-266l-45 -44v-35l265 -57v-317l-54 -54h-70zM301 41l26 25v42l-26 25h-38l-26 -25v-42l26 -25h38z" />
    <glyph glyph-name="uni0E24" unicode="&#xe24;" horiz-adv-x="580" 
d="M439 459l-48 48h-225l-43 -42l84 -85l-68 -85v-84l-3 -45l19 8h52l54 -52v-68l-54 -54h-70l-54 54v255l59 71l-87 85l93 93h271l76 -76v-692h-56v669zM191 41l26 25v42l-26 25h-38l-26 -25v-42l26 -25h38z" />
    <glyph glyph-name="uni0E25" unicode="&#xe25;" horiz-adv-x="584" 
d="M90 54v224l76 74h185l92 -89v196l-48 48h-231l-43 -43v-47h-56v64l77 77h280l77 -77v-481h-56v194l-110 107h-143l-44 -43v-50l-4 -42l19 8h54l53 -53v-67l-53 -54h-71zM199 41l25 25v42l-25 25h-40l-25 -25v-42l25 -25h40z" />
    <glyph glyph-name="uni0E26" unicode="&#xe26;" horiz-adv-x="620" 
d="M479 459l-48 48h-225l-43 -42l96 -85l-50 -84v-242l-54 -54h-66l-54 54v66l54 52h53l15 -8l-4 40v106l43 68l-101 87l93 93h271l76 -76v-692h-56v669zM141 41l25 25v41l-25 25h-37l-26 -25v-41l26 -25h37z" />
    <glyph glyph-name="uni0E27" unicode="&#xe27;" horiz-adv-x="512" 
d="M249 54v68l54 52h51l20 -8l-3 48v245l-48 48h-179l-48 -48v-54h-56v76l77 77h233l77 -77v-427l-54 -54h-70zM357 41l26 25v42l-26 25h-38l-26 -25v-42l26 -25h38z" />
    <glyph glyph-name="uni0E28" unicode="&#xe28;" horiz-adv-x="610" 
d="M475 526l50 -50v-476h-56v459l-48 48h-232l-48 -48v-231l133 120h68l54 -54v-66l-54 -53h-69l-58 58l-26 -24l-48 -42v-167h-56v476l83 82h264l79 79l37 -38zM262 240l25 -25h40l25 25v42l-25 25h-40l-25 -25v-42z" />
    <glyph glyph-name="uni0E29" unicode="&#xe29;" horiz-adv-x="651" 
d="M566 558v-481l-77 -77h-255l-77 77v268l4 48l-20 -9h-52l-54 54v67l54 53h71l53 -53v-408l45 -45h207l45 45v114h-177l-48 48v65l48 48h67l48 -48v-52l-15 -15l47 2h30v299h56zM169 492l-25 25h-40l-25 -25v-42l25 -25h40l25 25v42zM407 310l-22 22h-36l-22 -22v-38
l21 -21h36l23 21v38z" />
    <glyph glyph-name="uni0E2A" unicode="&#xe2a;" horiz-adv-x="584" 
d="M454 527l45 -46v-481h-56v194l-110 107h-143l-44 -43v-50l-4 -42l16 8h57l53 -53v-67l-53 -54h-71l-54 54v224l76 74h185l92 -89v196l-48 48h-231l-43 -43v-47h-56v64l77 77h268l80 79l37 -38zM134 108v-42l25 -25h40l25 25v42l-25 25h-40z" />
    <glyph glyph-name="uni0E2B" unicode="&#xe2b;" horiz-adv-x="634" 
d="M549 437l-48 -47l48 -42v-348h-56v332l-38 32l-240 -364h-58v345l4 48l-19 -9h-53l-54 54v67l54 53h71l53 -53v-427l203 314l-45 45v68l53 53h71l54 -53v-68zM169 492l-25 25h-40l-25 -25v-42l25 -25h40l25 25v42zM505 492l-25 25h-40l-25 -25v-42l25 -25h40l25 25v42z
" />
    <glyph glyph-name="uni0E2C" unicode="&#xe2c;" horiz-adv-x="683" 
d="M157 345l4 48l-19 -9h-53l-54 54v67l54 53h70l53 -53v-406h2l141 288h35l140 -288h2v343l4 47l-17 -9h-57l-52 52v66l52 52h70l53 -52v-20l53 52l28 -31l-79 -77v-522h-57l-158 325l-158 -325h-57v345zM515 519l27 27v38l-27 26h-36l-26 -26v-38l26 -27h36zM144 425
l25 25v42l-25 25h-40l-25 -25v-42l25 -25h40z" />
    <glyph glyph-name="uni0E2D" unicode="&#xe2d;" horiz-adv-x="569" 
d="M85 77v229l54 54h71l53 -54v-67l-52 -53h-55l-19 9l4 -43v-55l45 -45h202l45 45v362l-48 48h-221l-48 -48v-42h-56v64l77 77h275l77 -77v-404l-77 -77h-250zM194 227l25 25v42l-25 25h-40l-25 -25v-42l25 -25h40z" />
    <glyph glyph-name="uni0E2E" unicode="&#xe2e;" horiz-adv-x="569" 
d="M85 77v193l54 54h71l53 -54v-67l-52 -52h-54l-19 9l3 -34v-29l45 -45h202l45 45v364l-26 26l-106 -107h-186l-55 55v68l56 55h290l57 57l36 -34l-54 -55l44 -44v-405l-77 -77h-250zM283 428l81 83h-224l-27 -26v-31l26 -26h144zM194 191l25 25v42l-25 25h-40l-25 -25v-42
l25 -25h40z" />
    <glyph glyph-name="uni0E2F" unicode="&#xe2f;" horiz-adv-x="505" 
d="M369 448l-81 -78h-187l-66 66v69l54 53h76l50 -52v-67l-23 -25l45 3h32l101 98v43h55v-558h-56v448zM147 423l24 25v44l-24 24h-42l-25 -24v-44l25 -25h42z" />
    <glyph glyph-name="uni0E30" unicode="&#xe30;" horiz-adv-x="475" 
d="M55 385v71l54 54h74l50 -54v-64l-9 -13l37 4h39l94 95l39 -41l-104 -105h-220zM165 374l24 24v44l-24 24h-42l-24 -24v-44l24 -24h42zM55 82v71l54 54h74l50 -54v-63l-9 -14l37 4h39l94 95l39 -41l-104 -105h-220zM165 71l24 24v44l-24 24h-42l-24 -24v-44l24 -24h42z
" />
    <glyph glyph-name="uni0E31" unicode="&#xe31;" 
d="M-343 707v70l48 47h71l48 -47v-54l-10 -15h115l97 97l35 -36l-111 -110h-245zM-241 700l23 23v39l-23 23h-36l-24 -23v-39l24 -23h36z" />
    <glyph glyph-name="uni0E32" unicode="&#xe32;" horiz-adv-x="511" 
d="M370 458l-48 48h-178l-48 -48v-53h-56v76l77 77h233l76 -77v-481h-56v458z" />
    <glyph glyph-name="uni0E33" unicode="&#xe33;" horiz-adv-x="511" 
d="M-232 711v76l56 56h82l56 -56v-76l-56 -56h-82zM-114 699l30 30v40l-30 30h-42l-30 -30v-40l30 -30h42zM370 458l-48 48h-178l-48 -48v-53h-56v76l78 77h232l76 -77v-481h-56v458z" />
    <glyph glyph-name="uni0E34" unicode="&#xe34;" 
d="M-490 743l92 92h218l95 -94v-82h-405v84zM-136 702v27l-62 62h-179l-62 -62v-27h303z" />
    <glyph glyph-name="uni0E35" unicode="&#xe35;" 
d="M-85 892v-233h-405v84l92 92h208l52 -50v107h53zM-136 727l-66 64h-175l-62 -62v-27h303v25z" />
    <glyph glyph-name="uni0E36" unicode="&#xe36;" 
d="M-40 840v-59l-45 -44v-78h-405v84l92 92h186l25 -19v24l44 44h58zM-78 825l-21 21h-29l-21 -21v-29l21 -21h29l21 21v29zM-136 731l-78 60h-163l-62 -62v-27h303v29z" />
    <glyph glyph-name="uni0E37" unicode="&#xe37;" 
d="M-85 892v-233h-405v84l92 92h154v57h52v-58l55 -51v109h52zM-136 727l-66 64h-175l-62 -62v-27h303v25z" />
    <glyph glyph-name="uni0E38" unicode="&#xe38;" 
d="M-141 -273l3 43l-17 -9h-51l-52 53v64l52 53h68l53 -53v-222h-56v71zM-154 -199l26 26v38l-26 26h-36l-25 -26v-38l25 -26h36z" />
    <glyph glyph-name="uni0E39" unicode="&#xe39;" 
d="M-285 -295v36l2 30l-18 -8h-50l-52 52v64l52 52h67l52 -52v-164h94v210h53v-219l-38 -38h-125zM-299 -197l25 25v38l-25 25h-36l-25 -25v-38l25 -25h36z" />
    <glyph glyph-name="uni0E3A" unicode="&#xe3a;" 
d="M-161 -140v40l27 27h40l27 -27v-40l-27 -27h-40z" />
    <glyph glyph-name="uni0E3F" unicode="&#xe3f;" horiz-adv-x="638" 
d="M583 284v-191l-93 -93h-145v-110h-54v110h-206v700h206v110h54v-110h120l87 -86v-200l-50 -49zM142 377h149v272h-149v-272zM345 649v-272h97l53 54v164l-54 54h-96zM291 51v276h-149v-276h149zM526 266l-62 61h-119v-276h119l62 62v153z" />
    <glyph glyph-name="uni0E40" unicode="&#xe40;" horiz-adv-x="299" 
d="M85 54v504h56v-347l-3 -45l15 8h57l54 -53v-67l-54 -54h-71zM195 41l25 25v42l-25 25h-40l-25 -25v-42l25 -25h40z" />
    <glyph glyph-name="uni0E41" unicode="&#xe41;" horiz-adv-x="562" 
d="M85 54v504h56v-347l-3 -45l15 8h57l54 -53v-67l-54 -54h-71zM349 54v504h56v-347l-4 -45l16 8h57l53 -53v-67l-53 -54h-71zM195 41l25 25v42l-25 25h-40l-25 -25v-42l25 -25h40zM458 41l25 25v42l-25 25h-40l-25 -25v-42l25 -25h40z" />
    <glyph glyph-name="uni0E42" unicode="&#xe42;" horiz-adv-x="354" 
d="M140 54v632l-168 86v75l79 77h279v-49h-256l-47 -44v-33l169 -86v-501l-3 -45l15 8h57l54 -53v-67l-54 -54h-71zM250 41l25 25v42l-25 25h-40l-25 -25v-42l25 -25h40z" />
    <glyph glyph-name="uni0E43" unicode="&#xe43;" horiz-adv-x="349" 
d="M135 54v551l106 138v108l-47 47h-113l-40 -40h56l50 -51v-67l-53 -53h-71l-53 53v100l94 104h155l75 -76v-136l-103 -134v-387l-3 -45l15 8h57l54 -53v-67l-54 -54h-71zM78 728l25 25v41l-25 25h-40l-24 -24v-42l25 -25h39zM245 41l25 25v42l-25 25h-40l-25 -25v-42
l25 -25h40z" />
    <glyph glyph-name="uni0E44" unicode="&#xe44;" horiz-adv-x="332" 
d="M120 54v614l122 142v60l-16 15h-42l-88 -87l-90 87h-45v49h62l73 -73l70 73h89l41 -40v-95l-120 -142v-446l-4 -45l16 8h57l53 -53v-67l-53 -54h-71zM229 41l25 25v42l-25 25h-40l-25 -25v-42l25 -25h40z" />
    <glyph glyph-name="uni0E45" unicode="&#xe45;" horiz-adv-x="511" 
d="M370 458l-48 48h-178l-48 -48v-53h-56v76l78 77h232l76 -77v-691h-56v668z" />
    <glyph glyph-name="uni0E46" unicode="&#xe46;" horiz-adv-x="491" 
d="M350 492l-25 27h-21l-58 -58l-60 58h-47l-38 -42h61l51 -52v-62l-53 -53h-67l-53 52v108l85 98h72l49 -49l47 49h59l54 -57v-621h-56v602zM145 350l25 25v39l-25 26h-37l-26 -25v-40l26 -25h37z" />
    <glyph glyph-name="uni0E47" unicode="&#xe47;" 
d="M-434 808l74 74h185l58 59l33 -33l-70 -70h-184l-46 -45v-81l63 51l61 -61h30l-8 12v46l45 45h62l43 -43v-59l-43 -44h-145l-50 51l-65 -51h-43v149zM-146 697l19 20v32l-19 19h-33l-20 -19v-32l20 -20h33z" />
    <glyph glyph-name="uni0E48" unicode="&#xe48;" 
d="M-141 856h56v-197h-56v197z" />
    <glyph glyph-name="uni0E49" unicode="&#xe49;" 
d="M-340 701h77l22 34h-39l-45 45v55l47 47h63l48 -47v-64l-43 -69h99l104 142l36 -33l-113 -152h-256v42zM-230 768l23 23v32l-23 23h-32l-23 -23v-32l23 -23h32z" />
    <glyph glyph-name="uni0E4A" unicode="&#xe4a;" 
d="M-437 700v77l75 89h69l41 -46l40 46h50l52 -52v-114h19l89 128l34 -31l-97 -138h-125v41h30v104l-19 18h-23l-50 -55l-52 55h-46l-34 -39h49l40 -40v-43l-42 -45h-56zM-352 690l19 19v24l-19 19h-27l-18 -19v-24l18 -19h27z" />
    <glyph glyph-name="uni0E4B" unicode="&#xe4b;" 
d="M9 742h-96v-83h-52v83h-95v43h95v83h52v-83h96v-43z" />
    <glyph glyph-name="uni0E4C" unicode="&#xe4c;" 
d="M-175 826l51 -52v-66l-48 -49h-70l-48 49v70l186 190l35 -35zM-165 761l-23 23h-37l-23 -23v-39l23 -23h37l23 23v39z" />
    <glyph glyph-name="uni0E4D" unicode="&#xe4d;" 
d="M-223 710v76l56 56h82l56 -56v-76l-56 -56h-82zM-105 698l30 30v40l-30 30h-42l-30 -30v-40l30 -30h42z" />
    <glyph glyph-name="uni0E4E" unicode="&#xe4e;" 
d="M-61 965v-43h-70l-34 -35v-86h-96l-33 -33v-39l33 -33h69v-44h-92l-60 59v70l63 64h68v59l61 61h91z" />
    <glyph glyph-name="uni0E4F" unicode="&#xe4f;" horiz-adv-x="631" 
d="M60 176v206l152 152h207l152 -152v-206l-152 -151h-207zM395 76l124 122v162l-124 124h-159l-123 -124v-162l123 -122h159zM193 228v102l72 72h101l72 -72v-102l-71 -71h-103zM347 206l42 40v66l-43 42h-61l-42 -42v-66l41 -40h63z" />
    <glyph glyph-name="uni0E50" unicode="&#xe50;" horiz-adv-x="626" 
d="M70 87v301l87 87h312l87 -87v-301l-87 -87h-312zM444 51l56 55v262l-57 57h-260l-57 -57v-262l56 -55h262z" />
    <glyph glyph-name="uni0E51" unicode="&#xe51;" horiz-adv-x="625" 
d="M430 -15l69 69v314l-57 57h-259l-57 -57v-271l48 -49h58l-27 31v51l56 56h71l56 -57v-65l-63 -64h-180l-75 77v311l87 87h311l87 -87v-353l-87 -87zM316 48l27 28v41l-27 27h-38l-28 -27v-34l33 -35h33z" />
    <glyph glyph-name="uni0E52" unicode="&#xe52;" horiz-adv-x="727" 
d="M75 85v585h56v-564l55 -55h360l55 55v273l-45 45h-27l-75 -82l-81 83h-52l-51 -51v-57l15 9h58l53 -53v-67l-54 -55h-71l-55 55v183l84 86h89l65 -69l61 69h67l75 -77v-313l-85 -85h-412zM326 193l25 25v42l-25 25h-39l-26 -25v-42l25 -25h40z" />
    <glyph glyph-name="uni0E53" unicode="&#xe53;" horiz-adv-x="724" 
d="M75 54v334l87 87h153l58 -59l59 59h131l86 -86v-389h-56v371l-54 54h-86l-52 -52v-373h-55v373l-52 52h-108l-55 -55v-171l-1 -33l16 8h54l53 -53v-67l-53 -54h-71zM184 41l25 25v42l-25 25h-40l-25 -25v-42l25 -25h40z" />
    <glyph glyph-name="uni0E54" unicode="&#xe54;" horiz-adv-x="643" 
d="M70 87v301l87 87h352l88 87l36 -36l-101 -101h-349l-57 -57v-261l56 -56h176l-78 132v77l54 53h71l53 -53v-67l-52 -53h-43l52 -89h173v-51h-431zM389 180l25 25v42l-25 25h-40l-25 -25v-42l25 -25h40z" />
    <glyph glyph-name="uni0E55" unicode="&#xe55;" horiz-adv-x="643" 
d="M415 51h173v-51h-431l-87 87v301l87 87h110l-18 18v61l51 52h68l52 -52v-61l-18 -18h107l88 87l36 -36l-101 -101h-349l-57 -57v-261l56 -56h176l-78 132v77l54 53h71l53 -53v-67l-52 -53h-43zM292 503l24 -24h37l24 24v39l-24 24h-37l-24 -24v-39zM389 180l25 25v42
l-25 25h-40l-25 -25v-42l25 -25h40z" />
    <glyph glyph-name="uni0E56" unicode="&#xe56;" horiz-adv-x="608" 
d="M80 64v65l56 57h71l56 -56v-51l-28 -30h190l57 57v264l-55 55h-316l-101 101l36 36l88 -87h318l86 -85v-303l-87 -87h-308zM185 49l33 35v32l-28 28h-38l-27 -28v-39l27 -28h33z" />
    <glyph glyph-name="uni0E57" unicode="&#xe57;" horiz-adv-x="853" 
d="M75 54v334l87 87h139l58 -59l59 59h119l86 -86v-339h62l37 36v584h56v-603l-67 -67h-144v371l-54 54h-74l-52 -52v-373h-55v373l-52 52h-94l-55 -55v-175l-1 -29l17 8h53l53 -53v-67l-53 -54h-71zM184 41l25 25v42l-25 25h-40l-25 -25v-42l25 -25h40z" />
    <glyph glyph-name="uni0E58" unicode="&#xe58;" horiz-adv-x="659" 
d="M70 77v311l87 87h328l88 87l36 -36l-101 -101h-325l-57 -57v-273l45 -44h43l92 117l100 -117h93l47 47v46l-14 -10h-60l-52 53v67l54 54h71l55 -54v-169l-85 -85h-128l-81 97l-75 -97h-84zM529 174l26 25v42l-25 25h-40l-25 -25v-42l25 -25h39z" />
    <glyph glyph-name="uni0E59" unicode="&#xe59;" horiz-adv-x="634" 
d="M381 373l220 -346l-41 -31l-273 429h-105l-56 -55v-273l48 -49h59l-28 31v51l56 56h71l56 -57v-66l-63 -63h-180l-75 77v311l87 87h159l37 -59l60 59h94l87 87l35 -35l-100 -100h-94zM250 83l33 -35h33l27 28v41l-27 27h-38l-28 -27v-34z" />
    <glyph glyph-name="uni0E5A" unicode="&#xe5a;" horiz-adv-x="715" 
d="M369 448l-81 -78h-187l-66 66v69l54 53h76l50 -52v-67l-23 -25l45 3h32l101 98v43h55v-151h53l102 103v48h55v-558h-56v443l-83 -83h-71v-360h-56v448zM147 423l24 25v44l-24 24h-42l-25 -24v-44l25 -25h42z" />
    <glyph glyph-name="uni0E5B" unicode="&#xe5b;" horiz-adv-x="1155" 
d="M60 147v260l85 85h182l67 -67v-183l-57 -53h-71l-53 53v67l53 54h56l22 -20h1l-2 39v18l-43 42h-130l-55 -55v-219l55 -55h242l50 52l84 259h54l87 -224l67 204h44l74 -186l61 166h44l41 -89h97v-45h-122l-36 81l-63 -168h-46l-71 180l-65 -200h-50l-86 218l-69 -220
l-75 -79h-287zM322 230l25 25v42l-25 25h-40l-25 -25v-42l25 -25h40z" />
    <glyph glyph-name="uni1E0C" unicode="&#x1e0c;" horiz-adv-x="656" 
d="M85 700h391l105 -105v-490l-105 -105h-391v700zM450 52l73 73v451l-73 72h-307v-596h307zM280 -135v37l22 23h38l23 -23v-37l-23 -23h-38z" />
    <glyph glyph-name="uni1E0D" unicode="&#x1e0d;" horiz-adv-x="572" 
d="M70 87v324l87 87h188l91 -79v295h56v-714h-55v99l-99 -99h-181zM324 51l112 112v194l-105 91h-150l-55 -54v-289l55 -54h143zM244 -135v37l22 23h38l23 -23v-37l-23 -23h-38z" />
    <glyph glyph-name="uni1E0E" unicode="&#x1e0e;" horiz-adv-x="656" 
d="M85 700h391l105 -105v-490l-105 -105h-391v700zM450 52l73 73v451l-73 72h-307v-596h307zM191 -90h262v-46h-262v46z" />
    <glyph glyph-name="uni1E0F" unicode="&#x1e0f;" horiz-adv-x="572" 
d="M70 87v324l87 87h188l91 -79v295h56v-714h-55v99l-99 -99h-181zM324 51l112 112v194l-105 91h-150l-55 -54v-289l55 -54h143zM155 -90h262v-46h-262v46z" />
    <glyph glyph-name="uni1E20" unicode="&#x1e20;" horiz-adv-x="644" 
d="M75 105v490l105 105h298l101 -101v-53h-58v35l-68 67h-247l-73 -72v-451l73 -73h243l72 72v182h-161v52h219v-253l-105 -105h-294zM196 831h262v-46h-262v46z" />
    <glyph glyph-name="uni1E21" unicode="&#x1e21;" horiz-adv-x="572" 
d="M492 498v-630l-86 -86h-239l-72 71v57h56v-38l40 -40h190l55 54v204l-100 -90h-179l-87 87v324l87 87h183l97 -97v97h55zM436 334l-113 114h-142l-55 -54v-289l55 -54h142l113 103v180zM154 629h262v-46h-262v46z" />
    <glyph glyph-name="uni1E24" unicode="&#x1e24;" horiz-adv-x="666" 
d="M85 700h58v-325h380v325h58v-700h-58v323h-380v-323h-58v700zM293 -135v37l22 23h38l23 -23v-37l-23 -23h-38z" />
    <glyph glyph-name="uni1E25" unicode="&#x1e25;" horiz-adv-x="562" 
d="M80 714h56v-331l115 115h149l87 -87v-411h-56v394l-55 54h-108l-132 -132v-316h-56v714zM244 -135v37l22 23h38l23 -23v-37l-23 -23h-38z" />
    <glyph glyph-name="uni1E2A" unicode="&#x1e2a;" horiz-adv-x="666" 
d="M85 700h58v-325h380v325h58v-700h-58v323h-380v-323h-58v700zM206 -135v55h48v-40l41 -41h80l41 41v40h48v-55l-68 -69h-121z" />
    <glyph glyph-name="uni1E2B" unicode="&#x1e2b;" horiz-adv-x="562" 
d="M80 714h56v-331l115 115h149l87 -87v-411h-56v394l-55 54h-108l-132 -132v-316h-56v714zM157 -135v55h48v-40l41 -41h80l41 41v40h48v-55l-68 -69h-121z" />
    <glyph glyph-name="uni1E36" unicode="&#x1e36;" horiz-adv-x="529" 
d="M85 700h58v-648h356v-52h-414v700zM252 -135v37l22 23h38l23 -23v-37l-23 -23h-38z" />
    <glyph glyph-name="uni1E37" unicode="&#x1e37;" horiz-adv-x="226" 
d="M85 714h56v-714h-56v714zM71 -135v37l22 23h38l23 -23v-37l-23 -23h-38z" />
    <glyph glyph-name="uni1E38" unicode="&#x1e38;" horiz-adv-x="529" 
d="M85 700h58v-648h356v-52h-414v700zM-16 831h262v-46h-262v46zM252 -135v37l22 23h38l23 -23v-37l-23 -23h-38z" />
    <glyph glyph-name="uni1E39" unicode="&#x1e39;" horiz-adv-x="226" 
d="M85 714h56v-714h-56v714zM-17 850h262v-46h-262v46zM71 -135v37l22 23h38l23 -23v-37l-23 -23h-38z" />
    <glyph glyph-name="uni1E3A" unicode="&#x1e3a;" horiz-adv-x="529" 
d="M85 700h58v-648h356v-52h-414v700zM163 -90h262v-46h-262v46z" />
    <glyph glyph-name="uni1E3B" unicode="&#x1e3b;" horiz-adv-x="226" 
d="M85 714h56v-714h-56v714zM-18 -90h262v-46h-262v46z" />
    <glyph glyph-name="uni1E42" unicode="&#x1e42;" horiz-adv-x="769" 
d="M85 700h67l231 -569h2l231 569h68v-700h-55v592h-2l-218 -527h-49l-218 527h-2v-592h-55v700zM342 -135v37l22 23h38l23 -23v-37l-23 -23h-38z" />
    <glyph glyph-name="uni1E43" unicode="&#x1e43;" horiz-adv-x="829" 
d="M80 498h55v-102l103 102h116l79 -79l79 79h155l87 -87v-411h-56v394l-55 54h-117l-76 -76v-372h-55v388l-60 60h-84l-115 -115v-333h-56v498zM381 -135v37l22 23h38l23 -23v-37l-23 -23h-38z" />
    <glyph glyph-name="uni1E44" unicode="&#x1e44;" horiz-adv-x="665" 
d="M85 700h58l380 -605h2v605h55v-700h-58l-380 606h-2v-606h-55v700zM290 802v37l22 23h38l23 -23v-37l-23 -23h-38z" />
    <glyph glyph-name="uni1E45" unicode="&#x1e45;" horiz-adv-x="560" 
d="M80 498h55v-116l116 116h147l87 -87v-411h-56v393l-55 54h-106l-132 -131v-316h-56v498zM243 600v37l22 23h38l23 -23v-37l-23 -23h-38z" />
    <glyph glyph-name="uni1E46" unicode="&#x1e46;" horiz-adv-x="665" 
d="M85 700h58l380 -605h2v605h55v-700h-58l-380 606h-2v-606h-55v700zM290 -135v37l22 23h38l23 -23v-37l-23 -23h-38z" />
    <glyph glyph-name="uni1E47" unicode="&#x1e47;" horiz-adv-x="560" 
d="M80 498h55v-116l116 116h147l87 -87v-411h-56v393l-55 54h-106l-132 -131v-316h-56v498zM240 -135v37l22 23h38l23 -23v-37l-23 -23h-38z" />
    <glyph glyph-name="uni1E48" unicode="&#x1e48;" horiz-adv-x="665" 
d="M85 700h58l380 -605h2v605h55v-700h-58l-380 606h-2v-606h-55v700zM201 -90h262v-46h-262v46z" />
    <glyph glyph-name="uni1E49" unicode="&#x1e49;" horiz-adv-x="560" 
d="M80 498h55v-116l116 116h147l87 -87v-411h-56v393l-55 54h-106l-132 -131v-316h-56v498zM151 -90h262v-46h-262v46z" />
    <glyph glyph-name="uni1E5A" unicode="&#x1e5a;" horiz-adv-x="643" 
d="M563 224v-224h-58v208l-89 95h-273v-303h-58v700h387l87 -87v-222l-78 -78zM143 354h304l55 54v187l-55 54h-304v-295zM279 -135v37l22 23h38l23 -23v-37l-23 -23h-38z" />
    <glyph glyph-name="uni1E5B" unicode="&#x1e5b;" horiz-adv-x="377" 
d="M80 498h55v-93l94 93h123v-50h-107l-109 -108v-340h-56v498zM67 -135v37l22 23h38l23 -23v-37l-23 -23h-38z" />
    <glyph glyph-name="uni1E5C" unicode="&#x1e5c;" horiz-adv-x="643" 
d="M563 224v-224h-58v208l-89 95h-273v-303h-58v700h387l87 -87v-222l-78 -78zM143 354h304l55 54v187l-55 54h-304v-295zM182 831h262v-46h-262v46zM279 -135v37l22 23h38l23 -23v-37l-23 -23h-38z" />
    <glyph glyph-name="uni1E5D" unicode="&#x1e5d;" horiz-adv-x="377" 
d="M80 498h55v-93l94 93h123v-50h-107l-109 -108v-340h-56v498zM81 629h262v-46h-262v46zM67 -135v37l22 23h38l23 -23v-37l-23 -23h-38z" />
    <glyph glyph-name="uni1E5E" unicode="&#x1e5e;" horiz-adv-x="643" 
d="M563 224v-224h-58v208l-89 95h-273v-303h-58v700h387l87 -87v-222l-78 -78zM143 354h304l55 54v187l-55 54h-304v-295zM190 -90h262v-46h-262v46z" />
    <glyph glyph-name="uni1E5F" unicode="&#x1e5f;" horiz-adv-x="377" 
d="M80 498h55v-93l94 93h123v-50h-107l-109 -108v-340h-56v498zM-22 -90h262v-46h-262v46z" />
    <glyph glyph-name="uni1E60" unicode="&#x1e60;" horiz-adv-x="605" 
d="M70 87v53h57v-33l54 -55h247l55 57v170l-55 55h-269l-87 86v193l87 87h286l87 -87v-54h-57v35l-55 54h-236l-55 -54v-154l55 -54h269l87 -87v-210l-89 -89h-294zM259 802v37l22 23h38l23 -23v-37l-23 -23h-38z" />
    <glyph glyph-name="uni1E61" unicode="&#x1e61;" horiz-adv-x="504" 
d="M55 77v62h56v-45l45 -44h192l45 44v88l-45 45h-215l-74 74v120l78 77h225l77 -77v-62h-56v45l-45 45h-177l-46 -45v-84l46 -45h210l78 -78v-119l-78 -78h-239zM206 600v37l22 23h38l23 -23v-37l-23 -23h-38z" />
    <glyph glyph-name="uni1E62" unicode="&#x1e62;" horiz-adv-x="605" 
d="M70 87v53h57v-33l54 -55h247l55 57v170l-55 55h-269l-87 86v193l87 87h286l87 -87v-54h-57v35l-55 54h-236l-55 -54v-154l55 -54h269l87 -87v-210l-89 -89h-294zM269 -135v37l22 23h38l23 -23v-37l-23 -23h-38z" />
    <glyph glyph-name="uni1E63" unicode="&#x1e63;" horiz-adv-x="504" 
d="M55 77v62h56v-45l45 -44h192l45 44v88l-45 45h-215l-74 74v120l78 77h225l77 -77v-62h-56v45l-45 45h-177l-46 -45v-84l46 -45h210l78 -78v-119l-78 -78h-239zM216 -135v37l22 23h38l23 -23v-37l-23 -23h-38z" />
    <glyph glyph-name="uni1E6C" unicode="&#x1e6c;" horiz-adv-x="552" 
d="M247 649h-212v51h482v-51h-212v-649h-58v649zM234 -135v37l22 23h38l23 -23v-37l-23 -23h-38z" />
    <glyph glyph-name="uni1E6D" unicode="&#x1e6d;" horiz-adv-x="382" 
d="M125 87v362h-90v49h92v162h54v-162h156v-50h-156v-343l55 -55h101v-50h-125zM176 -135v37l22 23h38l23 -23v-37l-23 -23h-38z" />
    <glyph glyph-name="uni1E6E" unicode="&#x1e6e;" horiz-adv-x="552" 
d="M247 649h-212v51h482v-51h-212v-649h-58v649zM145 -90h262v-46h-262v46z" />
    <glyph glyph-name="uni1E6F" unicode="&#x1e6f;" horiz-adv-x="382" 
d="M125 87v362h-90v49h92v162h54v-162h156v-50h-156v-343l55 -55h101v-50h-125zM87 -90h262v-46h-262v46z" />
    <glyph glyph-name="Wgrave" unicode="&#x1e80;" horiz-adv-x="851" 
d="M45 700h58l117 -619h2l179 619h56l174 -619h2l115 619h58l-137 -700h-64l-175 618h-2l-181 -618h-64zM310 920h66l75 -153h-54z" />
    <glyph glyph-name="wgrave" unicode="&#x1e81;" horiz-adv-x="694" 
d="M40 498h58l91 -433h3l129 433h56l117 -433h3l99 433h58l-124 -498h-62l-118 431h-2l-130 -431h-63zM231 718h66l75 -153h-54z" />
    <glyph glyph-name="Wacute" unicode="&#x1e82;" horiz-adv-x="851" 
d="M45 700h58l117 -619h2l179 619h56l174 -619h2l115 619h58l-137 -700h-64l-175 618h-2l-181 -618h-64zM477 920h65l-87 -153h-53z" />
    <glyph glyph-name="wacute" unicode="&#x1e83;" horiz-adv-x="694" 
d="M40 498h58l91 -433h3l129 433h56l117 -433h3l99 433h58l-124 -498h-62l-118 431h-2l-130 -431h-63zM398 718h65l-87 -153h-53z" />
    <glyph glyph-name="Wdieresis" unicode="&#x1e84;" horiz-adv-x="851" 
d="M45 700h58l117 -619h2l179 619h56l174 -619h2l115 619h58l-137 -700h-64l-175 618h-2l-181 -618h-64zM290 805v36l24 23h36l22 -23v-36l-22 -23h-36zM482 805v36l22 23h36l24 -23v-36l-24 -23h-36z" />
    <glyph glyph-name="wdieresis" unicode="&#x1e85;" horiz-adv-x="694" 
d="M40 498h58l91 -433h3l129 433h56l117 -433h3l99 433h58l-124 -498h-62l-118 431h-2l-130 -431h-63zM211 603v36l24 23h36l22 -23v-36l-22 -23h-36zM403 603v36l22 23h36l24 -23v-36l-24 -23h-36z" />
    <glyph glyph-name="uni1E8E" unicode="&#x1e8e;" horiz-adv-x="572" 
d="M257 294l-237 406h62l203 -353h2l203 353h62l-237 -406v-294h-58v294zM244 802v37l22 23h38l23 -23v-37l-23 -23h-38z" />
    <glyph glyph-name="uni1E8F" unicode="&#x1e8f;" horiz-adv-x="561" 
d="M481 498v-629l-87 -86h-233l-71 70v57h56v-39l39 -38h185l55 54v231l-118 -118h-145l-87 87v411h56v-393l55 -54h105l134 135v312h56zM238 600v37l22 23h38l23 -23v-37l-23 -23h-38z" />
    <glyph glyph-name="uni1E92" unicode="&#x1e92;" horiz-adv-x="560" 
d="M55 60l389 589v2h-379v49h440v-59l-389 -589v-2h389v-50h-447zM246 -135v37l22 23h38l23 -23v-37l-23 -23h-38z" />
    <glyph glyph-name="uni1E93" unicode="&#x1e93;" horiz-adv-x="466" 
d="M45 55l313 394v2h-303v47h366v-55l-313 -393v-2h313v-48h-376v55zM196 -135v37l22 23h38l23 -23v-37l-23 -23h-38z" />
    <glyph glyph-name="uni1E97" unicode="&#x1e97;" horiz-adv-x="382" 
d="M125 87v362h-90v49h92v162h54v-162h156v-50h-156v-343l55 -55h101v-50h-125zM23 765v36l24 23h36l22 -23v-36l-22 -23h-36zM215 765v36l22 23h36l24 -23v-36l-24 -23h-36z" />
    <glyph glyph-name="uni1E9E" unicode="&#x1e9e;" horiz-adv-x="653" 
d="M598 310v-233l-77 -77h-186l-75 75v57h56v-37l45 -44h134l45 44v195l-45 45h-143v61l128 252h-287l-50 -49v-599h-58v618l82 82h374v-52l-135 -262h116z" />
    <glyph glyph-name="uni1EA0" unicode="&#x1ea0;" horiz-adv-x="605" 
d="M268 700h69l243 -700h-60l-68 200h-299l-68 -200h-60zM435 251l-131 386h-3l-130 -386h264zM261 -135v37l22 23h38l23 -23v-37l-23 -23h-38z" />
    <glyph glyph-name="uni1EA1" unicode="&#x1ea1;" horiz-adv-x="543" 
d="M65 77v131l77 75h270v111l-55 55h-176l-56 -55v-45h-56v62l87 87h225l87 -87v-411h-55v97l-100 -97h-171zM300 50l112 110v73h-247l-44 -42v-98l44 -43h135zM229 -135v37l22 23h38l23 -23v-37l-23 -23h-38z" />
    <glyph glyph-name="uni1EA2" unicode="&#x1ea2;" horiz-adv-x="605" 
d="M268 700h69l243 -700h-60l-68 200h-299l-68 -200h-60zM435 251l-131 386h-3l-130 -386h264zM278 802l71 73v27l-17 17h-58l-20 -20v-20h-46v36l46 46h98l46 -46v-49l-69 -72v-27h-51v35z" />
    <glyph glyph-name="uni1EA3" unicode="&#x1ea3;" horiz-adv-x="543" 
d="M65 77v131l77 75h270v111l-55 55h-176l-56 -55v-45h-56v62l87 87h225l87 -87v-411h-55v97l-100 -97h-171zM300 50l112 110v73h-247l-44 -42v-98l44 -43h135zM250 600l71 73v27l-17 17h-58l-20 -20v-20h-46v36l46 46h98l46 -46v-49l-69 -72v-27h-51v35z" />
    <glyph glyph-name="uni1EA4" unicode="&#x1ea4;" horiz-adv-x="605" 
d="M268 700h69l243 -700h-60l-68 200h-299l-68 -200h-60zM435 251l-131 386h-3l-130 -386h264zM454 1019h60l-74 -126h-48zM273 900h60l93 -133h-55l-65 95h-6l-65 -95h-55z" />
    <glyph glyph-name="uni1EA5" unicode="&#x1ea5;" horiz-adv-x="543" 
d="M65 77v131l77 75h270v111l-55 55h-176l-56 -55v-45h-56v62l87 87h225l87 -87v-411h-55v97l-100 -97h-171zM300 50l112 110v73h-247l-44 -42v-98l44 -43h135zM426 817h60l-74 -126h-48zM245 698h60l93 -133h-55l-65 95h-6l-65 -95h-55z" />
    <glyph glyph-name="uni1EA6" unicode="&#x1ea6;" horiz-adv-x="605" 
d="M268 700h69l243 -700h-60l-68 200h-299l-68 -200h-60zM435 251l-131 386h-3l-130 -386h264zM347 1019h60l61 -126h-48zM273 900h60l93 -133h-55l-65 95h-6l-65 -95h-55z" />
    <glyph glyph-name="uni1EA7" unicode="&#x1ea7;" horiz-adv-x="543" 
d="M65 77v131l77 75h270v111l-55 55h-176l-56 -55v-45h-56v62l87 87h225l87 -87v-411h-55v97l-100 -97h-171zM300 50l112 110v73h-247l-44 -42v-98l44 -43h135zM319 817h60l61 -126h-48zM245 698h60l93 -133h-55l-65 95h-6l-65 -95h-55z" />
    <glyph glyph-name="uni1EA8" unicode="&#x1ea8;" horiz-adv-x="605" 
d="M268 700h69l243 -700h-60l-68 200h-299l-68 -200h-60zM435 251l-131 386h-3l-130 -386h264zM404 908l64 55v21l-16 16h-48l-19 -18v-21h-44v36l44 44h85l44 -44v-46l-62 -51v-26h-48v34zM273 900h60l93 -133h-55l-65 95h-6l-65 -95h-55z" />
    <glyph glyph-name="uni1EA9" unicode="&#x1ea9;" horiz-adv-x="543" 
d="M65 77v131l77 75h270v111l-55 55h-176l-56 -55v-45h-56v62l87 87h225l87 -87v-411h-55v97l-100 -97h-171zM300 50l112 110v73h-247l-44 -42v-98l44 -43h135zM376 706l64 55v21l-16 16h-48l-19 -18v-21h-44v36l44 44h85l44 -44v-46l-62 -51v-26h-48v34zM245 698h60
l93 -133h-55l-65 95h-6l-65 -95h-55z" />
    <glyph glyph-name="uni1EAA" unicode="&#x1eaa;" horiz-adv-x="605" 
d="M268 700h69l243 -700h-60l-68 200h-299l-68 -200h-60zM435 251l-131 386h-3l-130 -386h264zM265 983h-20l-20 -19v-22h-45v34l46 47h53l62 -47h20l19 19v23h45v-35l-46 -47h-53zM273 900h60l93 -133h-55l-65 95h-6l-65 -95h-55z" />
    <glyph glyph-name="uni1EAB" unicode="&#x1eab;" horiz-adv-x="543" 
d="M65 77v131l77 75h270v111l-55 55h-176l-56 -55v-45h-56v62l87 87h225l87 -87v-411h-55v97l-100 -97h-171zM300 50l112 110v73h-247l-44 -42v-98l44 -43h135zM237 781h-20l-20 -19v-22h-45v34l46 47h53l62 -47h20l19 19v23h45v-35l-46 -47h-53zM245 698h60l93 -133h-55
l-65 95h-6l-65 -95h-55z" />
    <glyph glyph-name="uni1EAC" unicode="&#x1eac;" horiz-adv-x="605" 
d="M268 700h69l243 -700h-60l-68 200h-299l-68 -200h-60zM435 251l-131 386h-3l-130 -386h264zM273 900h60l93 -133h-55l-65 95h-6l-65 -95h-55zM261 -135v37l22 23h38l23 -23v-37l-23 -23h-38z" />
    <glyph glyph-name="uni1EAD" unicode="&#x1ead;" horiz-adv-x="543" 
d="M65 77v131l77 75h270v111l-55 55h-176l-56 -55v-45h-56v62l87 87h225l87 -87v-411h-55v97l-100 -97h-171zM300 50l112 110v73h-247l-44 -42v-98l44 -43h135zM245 698h60l93 -133h-55l-65 95h-6l-65 -95h-55zM229 -135v37l22 23h38l23 -23v-37l-23 -23h-38z" />
    <glyph glyph-name="uni1EAE" unicode="&#x1eae;" horiz-adv-x="605" 
d="M268 700h69l243 -700h-60l-68 200h-299l-68 -200h-60zM435 251l-131 386h-3l-130 -386h264zM340 1029h60l-74 -126h-48zM174 836v55h48v-40l41 -41h80l41 41v40h48v-55l-68 -69h-121z" />
    <glyph glyph-name="uni1EAF" unicode="&#x1eaf;" horiz-adv-x="543" 
d="M65 77v131l77 75h270v111l-55 55h-176l-56 -55v-45h-56v62l87 87h225l87 -87v-411h-55v97l-100 -97h-171zM300 50l112 110v73h-247l-44 -42v-98l44 -43h135zM312 827h60l-74 -126h-48zM146 634v55h48v-40l41 -41h80l41 41v40h48v-55l-68 -69h-121z" />
    <glyph glyph-name="uni1EB0" unicode="&#x1eb0;" horiz-adv-x="605" 
d="M268 700h69l243 -700h-60l-68 200h-299l-68 -200h-60zM435 251l-131 386h-3l-130 -386h264zM210 1029h60l62 -126h-49zM174 836v55h48v-40l41 -41h80l41 41v40h48v-55l-68 -69h-121z" />
    <glyph glyph-name="uni1EB1" unicode="&#x1eb1;" horiz-adv-x="543" 
d="M65 77v131l77 75h270v111l-55 55h-176l-56 -55v-45h-56v62l87 87h225l87 -87v-411h-55v97l-100 -97h-171zM300 50l112 110v73h-247l-44 -42v-98l44 -43h135zM182 827h60l62 -126h-49zM146 634v55h48v-40l41 -41h80l41 41v40h48v-55l-68 -69h-121z" />
    <glyph glyph-name="uni1EB2" unicode="&#x1eb2;" horiz-adv-x="605" 
d="M268 700h69l243 -700h-60l-68 200h-299l-68 -200h-60zM435 251l-131 386h-3l-130 -386h264zM279 929l66 56v21l-16 16h-50l-19 -19v-20h-44v35l44 44h87l44 -44v-46l-64 -51v-26h-48v34zM174 836v55h48v-40l41 -41h80l41 41v40h48v-55l-68 -69h-121z" />
    <glyph glyph-name="uni1EB3" unicode="&#x1eb3;" horiz-adv-x="543" 
d="M65 77v131l77 75h270v111l-55 55h-176l-56 -55v-45h-56v62l87 87h225l87 -87v-411h-55v97l-100 -97h-171zM300 50l112 110v73h-247l-44 -42v-98l44 -43h135zM251 727l66 56v21l-16 16h-50l-19 -19v-20h-44v35l44 44h87l44 -44v-46l-64 -51v-26h-48v34zM146 634v55h48v-40
l41 -41h80l41 41v40h48v-55l-68 -69h-121z" />
    <glyph glyph-name="uni1EB4" unicode="&#x1eb4;" horiz-adv-x="605" 
d="M268 700h69l243 -700h-60l-68 200h-299l-68 -200h-60zM435 251l-131 386h-3l-130 -386h264zM264 978h-20l-20 -19v-22h-45v34l46 47h53l62 -47h20l19 19v23h45v-35l-46 -47h-53zM174 836v55h48v-40l41 -41h80l41 41v40h48v-55l-68 -69h-121z" />
    <glyph glyph-name="uni1EB5" unicode="&#x1eb5;" horiz-adv-x="543" 
d="M65 77v131l77 75h270v111l-55 55h-176l-56 -55v-45h-56v62l87 87h225l87 -87v-411h-55v97l-100 -97h-171zM300 50l112 110v73h-247l-44 -42v-98l44 -43h135zM236 776h-20l-20 -19v-22h-45v34l46 47h53l62 -47h20l19 19v23h45v-35l-46 -47h-53zM146 634v55h48v-40l41 -41
h80l41 41v40h48v-55l-68 -69h-121z" />
    <glyph glyph-name="uni1EB6" unicode="&#x1eb6;" horiz-adv-x="605" 
d="M268 700h69l243 -700h-60l-68 200h-299l-68 -200h-60zM435 251l-131 386h-3l-130 -386h264zM174 836v55h48v-40l41 -41h80l41 41v40h48v-55l-68 -69h-121zM261 -135v37l22 23h38l23 -23v-37l-23 -23h-38z" />
    <glyph glyph-name="uni1EB7" unicode="&#x1eb7;" horiz-adv-x="543" 
d="M65 77v131l77 75h270v111l-55 55h-176l-56 -55v-45h-56v62l87 87h225l87 -87v-411h-55v97l-100 -97h-171zM300 50l112 110v73h-247l-44 -42v-98l44 -43h135zM146 634v55h48v-40l41 -41h80l41 41v40h48v-55l-68 -69h-121zM229 -135v37l22 23h38l23 -23v-37l-23 -23h-38z
" />
    <glyph glyph-name="uni1EB8" unicode="&#x1eb8;" horiz-adv-x="574" 
d="M85 700h434v-52h-376v-270h347v-52h-347v-274h376v-52h-434v700zM268 -135v37l22 23h38l23 -23v-37l-23 -23h-38z" />
    <glyph glyph-name="uni1EB9" unicode="&#x1eb9;" horiz-adv-x="553" 
d="M70 87v324l87 87h243l88 -87v-177h-362v-128l56 -55h193l56 54v44h56v-61l-88 -88h-242zM432 283v110l-55 55h-196l-55 -55v-110h306zM237 -135v37l22 23h38l23 -23v-37l-23 -23h-38z" />
    <glyph glyph-name="uni1EBA" unicode="&#x1eba;" horiz-adv-x="574" 
d="M85 700h434v-52h-376v-270h347v-52h-347v-274h376v-52h-434v700zM282 802l71 73v27l-17 17h-58l-20 -20v-20h-46v36l46 46h98l46 -46v-49l-69 -72v-27h-51v35z" />
    <glyph glyph-name="uni1EBB" unicode="&#x1ebb;" horiz-adv-x="553" 
d="M70 87v324l87 87h243l88 -87v-177h-362v-128l56 -55h193l56 54v44h56v-61l-88 -88h-242zM432 283v110l-55 55h-196l-55 -55v-110h306zM254 600l71 73v27l-17 17h-58l-20 -20v-20h-46v36l46 46h98l46 -46v-49l-69 -72v-27h-51v35z" />
    <glyph glyph-name="uni1EBC" unicode="&#x1ebc;" horiz-adv-x="574" 
d="M85 700h434v-52h-376v-270h347v-52h-347v-274h376v-52h-434v700zM266 827h-20l-20 -20v-24h-47v37l48 48h56l64 -50h21l20 20v25h46v-38l-48 -48h-55z" />
    <glyph glyph-name="uni1EBD" unicode="&#x1ebd;" horiz-adv-x="553" 
d="M70 87v324l87 87h243l88 -87v-177h-362v-128l56 -55h193l56 54v44h56v-61l-88 -88h-242zM432 283v110l-55 55h-196l-55 -55v-110h306zM238 625h-20l-20 -20v-24h-47v37l48 48h56l64 -50h21l20 20v25h46v-38l-48 -48h-55z" />
    <glyph glyph-name="uni1EBE" unicode="&#x1ebe;" horiz-adv-x="574" 
d="M85 700h434v-52h-376v-270h347v-52h-347v-274h376v-52h-434v700zM458 1019h60l-74 -126h-48zM277 900h60l93 -133h-55l-65 95h-6l-65 -95h-55z" />
    <glyph glyph-name="uni1EBF" unicode="&#x1ebf;" horiz-adv-x="553" 
d="M70 87v324l87 87h243l88 -87v-177h-362v-128l56 -55h193l56 54v44h56v-61l-88 -88h-242zM432 283v110l-55 55h-196l-55 -55v-110h306zM430 817h60l-74 -126h-48zM249 698h60l93 -133h-55l-65 95h-6l-65 -95h-55z" />
    <glyph glyph-name="uni1EC0" unicode="&#x1ec0;" horiz-adv-x="574" 
d="M85 700h434v-52h-376v-270h347v-52h-347v-274h376v-52h-434v700zM351 1019h60l61 -126h-48zM277 900h60l93 -133h-55l-65 95h-6l-65 -95h-55z" />
    <glyph glyph-name="uni1EC1" unicode="&#x1ec1;" horiz-adv-x="553" 
d="M70 87v324l87 87h243l88 -87v-177h-362v-128l56 -55h193l56 54v44h56v-61l-88 -88h-242zM432 283v110l-55 55h-196l-55 -55v-110h306zM323 817h60l61 -126h-48zM249 698h60l93 -133h-55l-65 95h-6l-65 -95h-55z" />
    <glyph glyph-name="uni1EC2" unicode="&#x1ec2;" horiz-adv-x="574" 
d="M85 700h434v-52h-376v-270h347v-52h-347v-274h376v-52h-434v700zM408 908l64 55v21l-16 16h-48l-19 -18v-21h-44v36l44 44h85l44 -44v-46l-62 -51v-26h-48v34zM277 900h60l93 -133h-55l-65 95h-6l-65 -95h-55z" />
    <glyph glyph-name="uni1EC3" unicode="&#x1ec3;" horiz-adv-x="553" 
d="M70 87v324l87 87h243l88 -87v-177h-362v-128l56 -55h193l56 54v44h56v-61l-88 -88h-242zM432 283v110l-55 55h-196l-55 -55v-110h306zM380 706l64 55v21l-16 16h-48l-19 -18v-21h-44v36l44 44h85l44 -44v-46l-62 -51v-26h-48v34zM249 698h60l93 -133h-55l-65 95h-6
l-65 -95h-55z" />
    <glyph glyph-name="uni1EC4" unicode="&#x1ec4;" horiz-adv-x="574" 
d="M85 700h434v-52h-376v-270h347v-52h-347v-274h376v-52h-434v700zM269 983h-20l-20 -19v-22h-45v34l46 47h53l62 -47h20l19 19v23h45v-35l-46 -47h-53zM277 900h60l93 -133h-55l-65 95h-6l-65 -95h-55z" />
    <glyph glyph-name="uni1EC5" unicode="&#x1ec5;" horiz-adv-x="553" 
d="M70 87v324l87 87h243l88 -87v-177h-362v-128l56 -55h193l56 54v44h56v-61l-88 -88h-242zM432 283v110l-55 55h-196l-55 -55v-110h306zM241 781h-20l-20 -19v-22h-45v34l46 47h53l62 -47h20l19 19v23h45v-35l-46 -47h-53zM249 698h60l93 -133h-55l-65 95h-6l-65 -95h-55z
" />
    <glyph glyph-name="uni1EC6" unicode="&#x1ec6;" horiz-adv-x="574" 
d="M85 700h434v-52h-376v-270h347v-52h-347v-274h376v-52h-434v700zM277 900h60l93 -133h-55l-65 95h-6l-65 -95h-55zM268 -135v37l22 23h38l23 -23v-37l-23 -23h-38z" />
    <glyph glyph-name="uni1EC7" unicode="&#x1ec7;" horiz-adv-x="553" 
d="M70 87v324l87 87h243l88 -87v-177h-362v-128l56 -55h193l56 54v44h56v-61l-88 -88h-242zM432 283v110l-55 55h-196l-55 -55v-110h306zM249 698h60l93 -133h-55l-65 95h-6l-65 -95h-55zM237 -135v37l22 23h38l23 -23v-37l-23 -23h-38z" />
    <glyph glyph-name="uni1EC8" unicode="&#x1ec8;" horiz-adv-x="238" 
d="M90 700h58v-700h-58v700zM94 802l71 73v27l-17 17h-58l-20 -20v-20h-46v36l46 46h98l46 -46v-49l-69 -72v-27h-51v35z" />
    <glyph glyph-name="uni1EC9" unicode="&#x1ec9;" horiz-adv-x="236" 
d="M90 498h56v-498h-56v498zM93 600l71 73v27l-17 17h-58l-20 -20v-20h-46v36l46 46h98l46 -46v-49l-69 -72v-27h-51v35z" />
    <glyph glyph-name="uni1ECA" unicode="&#x1eca;" horiz-adv-x="238" 
d="M90 700h58v-700h-58v700zM77 -135v37l22 23h38l23 -23v-37l-23 -23h-38z" />
    <glyph glyph-name="uni1ECB" unicode="&#x1ecb;" horiz-adv-x="236" 
d="M75 615v38l25 25h36l25 -25v-38l-25 -25h-36zM90 498h56v-498h-56v498zM77 -135v37l22 23h38l23 -23v-37l-23 -23h-38z" />
    <glyph glyph-name="uni1ECC" unicode="&#x1ecc;" horiz-adv-x="668" 
d="M75 105v490l105 105h308l105 -105v-490l-105 -105h-308zM462 52l73 73v451l-73 72h-256l-73 -72v-451l73 -73h256zM293 -135v37l22 23h38l23 -23v-37l-23 -23h-38z" />
    <glyph glyph-name="uni1ECD" unicode="&#x1ecd;" horiz-adv-x="562" 
d="M70 87v324l87 87h248l87 -87v-324l-87 -87h-248zM381 51l55 54v289l-55 54h-200l-55 -54v-289l55 -54h200zM239 -135v37l22 23h38l23 -23v-37l-23 -23h-38z" />
    <glyph glyph-name="uni1ECE" unicode="&#x1ece;" horiz-adv-x="668" 
d="M75 105v490l105 105h308l105 -105v-490l-105 -105h-308zM462 52l73 73v451l-73 72h-256l-73 -72v-451l73 -73h256zM310 802l71 73v27l-17 17h-58l-20 -20v-20h-46v36l46 46h98l46 -46v-49l-69 -72v-27h-51v35z" />
    <glyph glyph-name="uni1ECF" unicode="&#x1ecf;" horiz-adv-x="562" 
d="M70 87v324l87 87h248l87 -87v-324l-87 -87h-248zM381 51l55 54v289l-55 54h-200l-55 -54v-289l55 -54h200zM256 600l71 73v27l-17 17h-58l-20 -20v-20h-46v36l46 46h98l46 -46v-49l-69 -72v-27h-51v35z" />
    <glyph glyph-name="uni1ED0" unicode="&#x1ed0;" horiz-adv-x="668" 
d="M75 105v490l105 105h308l105 -105v-490l-105 -105h-308zM462 52l73 73v451l-73 72h-256l-73 -72v-451l73 -73h256zM486 1019h60l-74 -126h-48zM305 900h60l93 -133h-55l-65 95h-6l-65 -95h-55z" />
    <glyph glyph-name="uni1ED1" unicode="&#x1ed1;" horiz-adv-x="562" 
d="M70 87v324l87 87h248l87 -87v-324l-87 -87h-248zM381 51l55 54v289l-55 54h-200l-55 -54v-289l55 -54h200zM432 817h60l-74 -126h-48zM251 698h60l93 -133h-55l-65 95h-6l-65 -95h-55z" />
    <glyph glyph-name="uni1ED2" unicode="&#x1ed2;" horiz-adv-x="668" 
d="M75 105v490l105 105h308l105 -105v-490l-105 -105h-308zM462 52l73 73v451l-73 72h-256l-73 -72v-451l73 -73h256zM379 1019h60l61 -126h-48zM305 900h60l93 -133h-55l-65 95h-6l-65 -95h-55z" />
    <glyph glyph-name="uni1ED3" unicode="&#x1ed3;" horiz-adv-x="562" 
d="M70 87v324l87 87h248l87 -87v-324l-87 -87h-248zM381 51l55 54v289l-55 54h-200l-55 -54v-289l55 -54h200zM325 817h60l61 -126h-48zM251 698h60l93 -133h-55l-65 95h-6l-65 -95h-55z" />
    <glyph glyph-name="uni1ED4" unicode="&#x1ed4;" horiz-adv-x="668" 
d="M75 105v490l105 105h308l105 -105v-490l-105 -105h-308zM462 52l73 73v451l-73 72h-256l-73 -72v-451l73 -73h256zM436 908l64 55v21l-16 16h-48l-19 -18v-21h-44v36l44 44h85l44 -44v-46l-62 -51v-26h-48v34zM305 900h60l93 -133h-55l-65 95h-6l-65 -95h-55z" />
    <glyph glyph-name="uni1ED5" unicode="&#x1ed5;" horiz-adv-x="562" 
d="M70 87v324l87 87h248l87 -87v-324l-87 -87h-248zM381 51l55 54v289l-55 54h-200l-55 -54v-289l55 -54h200zM382 706l64 55v21l-16 16h-48l-19 -18v-21h-44v36l44 44h85l44 -44v-46l-62 -51v-26h-48v34zM251 698h60l93 -133h-55l-65 95h-6l-65 -95h-55z" />
    <glyph glyph-name="uni1ED6" unicode="&#x1ed6;" horiz-adv-x="668" 
d="M75 105v490l105 105h308l105 -105v-490l-105 -105h-308zM462 52l73 73v451l-73 72h-256l-73 -72v-451l73 -73h256zM297 983h-20l-20 -19v-22h-45v34l46 47h53l62 -47h20l19 19v23h45v-35l-46 -47h-53zM305 900h60l93 -133h-55l-65 95h-6l-65 -95h-55z" />
    <glyph glyph-name="uni1ED7" unicode="&#x1ed7;" horiz-adv-x="562" 
d="M70 87v324l87 87h248l87 -87v-324l-87 -87h-248zM381 51l55 54v289l-55 54h-200l-55 -54v-289l55 -54h200zM243 781h-20l-20 -19v-22h-45v34l46 47h53l62 -47h20l19 19v23h45v-35l-46 -47h-53zM251 698h60l93 -133h-55l-65 95h-6l-65 -95h-55z" />
    <glyph glyph-name="uni1ED8" unicode="&#x1ed8;" horiz-adv-x="668" 
d="M75 105v490l105 105h308l105 -105v-490l-105 -105h-308zM462 52l73 73v451l-73 72h-256l-73 -72v-451l73 -73h256zM305 900h60l93 -133h-55l-65 95h-6l-65 -95h-55zM293 -135v37l22 23h38l23 -23v-37l-23 -23h-38z" />
    <glyph glyph-name="uni1ED9" unicode="&#x1ed9;" horiz-adv-x="562" 
d="M70 87v324l87 87h248l87 -87v-324l-87 -87h-248zM381 51l55 54v289l-55 54h-200l-55 -54v-289l55 -54h200zM251 698h60l93 -133h-55l-65 95h-6l-65 -95h-55zM239 -135v37l22 23h38l23 -23v-37l-23 -23h-38z" />
    <glyph glyph-name="uni1EDA" unicode="&#x1eda;" horiz-adv-x="726" 
d="M711 710v-98l-78 -78h-40v-429l-105 -105h-308l-105 105v490l105 105h308l105 -105v-12h15l49 48v79h54zM535 576l-73 72h-256l-73 -72v-451l73 -73h256l73 73v451zM385 920h65l-87 -153h-53z" />
    <glyph glyph-name="uni1EDB" unicode="&#x1edb;" horiz-adv-x="630" 
d="M630 508v-98l-78 -78h-60v-245l-87 -87h-248l-87 87v324l87 87h248l87 -87v-30h35l49 48v79h54zM436 394l-55 54h-200l-55 -54v-289l55 -54h200l55 54v289zM332 718h65l-87 -153h-53z" />
    <glyph glyph-name="uni1EDC" unicode="&#x1edc;" horiz-adv-x="726" 
d="M711 710v-98l-78 -78h-40v-429l-105 -105h-308l-105 105v490l105 105h308l105 -105v-12h15l49 48v79h54zM535 576l-73 72h-256l-73 -72v-451l73 -73h256l73 73v451zM218 920h66l75 -153h-54z" />
    <glyph glyph-name="uni1EDD" unicode="&#x1edd;" horiz-adv-x="630" 
d="M630 508v-98l-78 -78h-60v-245l-87 -87h-248l-87 87v324l87 87h248l87 -87v-30h35l49 48v79h54zM436 394l-55 54h-200l-55 -54v-289l55 -54h200l55 54v289zM164 718h66l75 -153h-54z" />
    <glyph glyph-name="uni1EDE" unicode="&#x1ede;" horiz-adv-x="726" 
d="M711 710v-98l-78 -78h-40v-429l-105 -105h-308l-105 105v490l105 105h308l105 -105v-12h15l49 48v79h54zM535 576l-73 72h-256l-73 -72v-451l73 -73h256l73 73v451zM310 802l71 73v27l-17 17h-58l-20 -20v-20h-46v36l46 46h98l46 -46v-49l-69 -72v-27h-51v35z" />
    <glyph glyph-name="uni1EDF" unicode="&#x1edf;" horiz-adv-x="630" 
d="M630 508v-98l-78 -78h-60v-245l-87 -87h-248l-87 87v324l87 87h248l87 -87v-30h35l49 48v79h54zM436 394l-55 54h-200l-55 -54v-289l55 -54h200l55 54v289zM256 600l71 73v27l-17 17h-58l-20 -20v-20h-46v36l46 46h98l46 -46v-49l-69 -72v-27h-51v35z" />
    <glyph glyph-name="uni1EE0" unicode="&#x1ee0;" horiz-adv-x="726" 
d="M711 710v-98l-78 -78h-40v-429l-105 -105h-308l-105 105v490l105 105h308l105 -105v-12h15l49 48v79h54zM535 576l-73 72h-256l-73 -72v-451l73 -73h256l73 73v451zM294 827h-20l-20 -20v-24h-47v37l48 48h56l64 -50h21l20 20v25h46v-38l-48 -48h-55z" />
    <glyph glyph-name="uni1EE1" unicode="&#x1ee1;" horiz-adv-x="630" 
d="M630 508v-98l-78 -78h-60v-245l-87 -87h-248l-87 87v324l87 87h248l87 -87v-30h35l49 48v79h54zM436 394l-55 54h-200l-55 -54v-289l55 -54h200l55 54v289zM241 625h-20l-20 -20v-24h-47v37l48 48h56l64 -50h21l20 20v25h46v-38l-48 -48h-55z" />
    <glyph glyph-name="uni1EE2" unicode="&#x1ee2;" horiz-adv-x="726" 
d="M711 710v-98l-78 -78h-40v-429l-105 -105h-308l-105 105v490l105 105h308l105 -105v-12h15l49 48v79h54zM535 576l-73 72h-256l-73 -72v-451l73 -73h256l73 73v451zM293 -135v37l22 23h38l23 -23v-37l-23 -23h-38z" />
    <glyph glyph-name="uni1EE3" unicode="&#x1ee3;" horiz-adv-x="630" 
d="M630 508v-98l-78 -78h-60v-245l-87 -87h-248l-87 87v324l87 87h248l87 -87v-30h35l49 48v79h54zM436 394l-55 54h-200l-55 -54v-289l55 -54h200l55 54v289zM239 -135v37l22 23h38l23 -23v-37l-23 -23h-38z" />
    <glyph glyph-name="uni1EE4" unicode="&#x1ee4;" horiz-adv-x="668" 
d="M85 105v595h58v-576l72 -72h238l72 72v576h58v-595l-105 -105h-288zM294 -135v37l22 23h38l23 -23v-37l-23 -23h-38z" />
    <glyph glyph-name="uni1EE5" unicode="&#x1ee5;" horiz-adv-x="559" 
d="M75 87v411h56v-393l55 -54h105l132 132v315h56v-498h-55v116l-116 -116h-146zM238 -135v37l22 23h38l23 -23v-37l-23 -23h-38z" />
    <glyph glyph-name="uni1EE6" unicode="&#x1ee6;" horiz-adv-x="668" 
d="M85 105v595h58v-576l72 -72h238l72 72v576h58v-595l-105 -105h-288zM309 802l71 73v27l-17 17h-58l-20 -20v-20h-46v36l46 46h98l46 -46v-49l-69 -72v-27h-51v35z" />
    <glyph glyph-name="uni1EE7" unicode="&#x1ee7;" horiz-adv-x="559" 
d="M75 87v411h56v-393l55 -54h105l132 132v315h56v-498h-55v116l-116 -116h-146zM253 600l71 73v27l-17 17h-58l-20 -20v-20h-46v36l46 46h98l46 -46v-49l-69 -72v-27h-51v35z" />
    <glyph glyph-name="uni1EE8" unicode="&#x1ee8;" horiz-adv-x="730" 
d="M721 710v-98l-78 -78h-60v-429l-105 -105h-288l-105 105v595h58v-576l72 -72h238l72 72v576h58v-117h35l49 48v79h54zM385 920h65l-87 -153h-53z" />
    <glyph glyph-name="uni1EE9" unicode="&#x1ee9;" horiz-adv-x="630" 
d="M617 508v-98l-78 -78h-60v-332h-55v116l-116 -116h-146l-87 87v411h56v-393l55 -54h105l132 132v315h56v-117h35l49 48v79h54zM328 718h65l-87 -153h-53z" />
    <glyph glyph-name="uni1EEA" unicode="&#x1eea;" horiz-adv-x="730" 
d="M721 710v-98l-78 -78h-60v-429l-105 -105h-288l-105 105v595h58v-576l72 -72h238l72 72v576h58v-117h35l49 48v79h54zM233 920h66l75 -153h-54z" />
    <glyph glyph-name="uni1EEB" unicode="&#x1eeb;" horiz-adv-x="630" 
d="M617 508v-98l-78 -78h-60v-332h-55v116l-116 -116h-146l-87 87v411h56v-393l55 -54h105l132 132v315h56v-117h35l49 48v79h54zM174 718h66l75 -153h-54z" />
    <glyph glyph-name="uni1EEC" unicode="&#x1eec;" horiz-adv-x="730" 
d="M721 710v-98l-78 -78h-60v-429l-105 -105h-288l-105 105v595h58v-576l72 -72h238l72 72v576h58v-117h35l49 48v79h54zM309 802l71 73v27l-17 17h-58l-20 -20v-20h-46v36l46 46h98l46 -46v-49l-69 -72v-27h-51v35z" />
    <glyph glyph-name="uni1EED" unicode="&#x1eed;" horiz-adv-x="630" 
d="M617 508v-98l-78 -78h-60v-332h-55v116l-116 -116h-146l-87 87v411h56v-393l55 -54h105l132 132v315h56v-117h35l49 48v79h54zM253 600l71 73v27l-17 17h-58l-20 -20v-20h-46v36l46 46h98l46 -46v-49l-69 -72v-27h-51v35z" />
    <glyph glyph-name="uni1EEE" unicode="&#x1eee;" horiz-adv-x="730" 
d="M721 710v-98l-78 -78h-60v-429l-105 -105h-288l-105 105v595h58v-576l72 -72h238l72 72v576h58v-117h35l49 48v79h54zM294 827h-20l-20 -20v-24h-47v37l48 48h56l64 -50h21l20 20v25h46v-38l-48 -48h-55z" />
    <glyph glyph-name="uni1EEF" unicode="&#x1eef;" horiz-adv-x="630" 
d="M617 508v-98l-78 -78h-60v-332h-55v116l-116 -116h-146l-87 87v411h56v-393l55 -54h105l132 132v315h56v-117h35l49 48v79h54zM237 625h-20l-20 -20v-24h-47v37l48 48h56l64 -50h21l20 20v25h46v-38l-48 -48h-55z" />
    <glyph glyph-name="uni1EF0" unicode="&#x1ef0;" horiz-adv-x="730" 
d="M721 710v-98l-78 -78h-60v-429l-105 -105h-288l-105 105v595h58v-576l72 -72h238l72 72v576h58v-117h35l49 48v79h54zM294 -135v37l22 23h38l23 -23v-37l-23 -23h-38z" />
    <glyph glyph-name="uni1EF1" unicode="&#x1ef1;" horiz-adv-x="630" 
d="M617 508v-98l-78 -78h-60v-332h-55v116l-116 -116h-146l-87 87v411h56v-393l55 -54h105l132 132v315h56v-117h35l49 48v79h54zM238 -135v37l22 23h38l23 -23v-37l-23 -23h-38z" />
    <glyph glyph-name="Ygrave" unicode="&#x1ef2;" horiz-adv-x="572" 
d="M257 294l-237 406h62l203 -353h2l203 353h62l-237 -406v-294h-58v294zM169 920h66l75 -153h-54z" />
    <glyph glyph-name="ygrave" unicode="&#x1ef3;" horiz-adv-x="561" 
d="M481 498v-629l-87 -86h-233l-71 70v57h56v-39l39 -38h185l55 54v231l-118 -118h-145l-87 87v411h56v-393l55 -54h105l134 135v312h56zM174 718h66l75 -153h-54z" />
    <glyph glyph-name="uni1EF4" unicode="&#x1ef4;" horiz-adv-x="572" 
d="M257 294l-237 406h62l203 -353h2l203 353h62l-237 -406v-294h-58v294zM244 -135v37l22 23h38l23 -23v-37l-23 -23h-38z" />
    <glyph glyph-name="uni1EF5" unicode="&#x1ef5;" horiz-adv-x="561" 
d="M481 498v-629l-87 -86h-233l-71 70v57h56v-39l39 -38h185l55 54v231l-118 -118h-145l-87 87v411h56v-393l55 -54h105l134 135v312h56zM242 -353v37l22 23h38l23 -23v-37l-23 -23h-38z" />
    <glyph glyph-name="uni1EF6" unicode="&#x1ef6;" horiz-adv-x="572" 
d="M257 294l-237 406h62l203 -353h2l203 353h62l-237 -406v-294h-58v294zM261 802l71 73v27l-17 17h-58l-20 -20v-20h-46v36l46 46h98l46 -46v-49l-69 -72v-27h-51v35z" />
    <glyph glyph-name="uni1EF7" unicode="&#x1ef7;" horiz-adv-x="561" 
d="M481 498v-629l-87 -86h-233l-71 70v57h56v-39l39 -38h185l55 54v231l-118 -118h-145l-87 87v411h56v-393l55 -54h105l134 135v312h56zM255 600l71 73v27l-17 17h-58l-20 -20v-20h-46v36l46 46h98l46 -46v-49l-69 -72v-27h-51v35z" />
    <glyph glyph-name="uni1EF8" unicode="&#x1ef8;" horiz-adv-x="572" 
d="M257 294l-237 406h62l203 -353h2l203 353h62l-237 -406v-294h-58v294zM245 827h-20l-20 -20v-24h-47v37l48 48h56l64 -50h21l20 20v25h46v-38l-48 -48h-55z" />
    <glyph glyph-name="uni1EF9" unicode="&#x1ef9;" horiz-adv-x="561" 
d="M481 498v-629l-87 -86h-233l-71 70v57h56v-39l39 -38h185l55 54v231l-118 -118h-145l-87 87v411h56v-393l55 -54h105l134 135v312h56zM239 625h-20l-20 -20v-24h-47v37l48 48h56l64 -50h21l20 20v25h46v-38l-48 -48h-55z" />
    <glyph glyph-name="uni2007" unicode="&#x2007;" horiz-adv-x="620" 
 />
    <glyph glyph-name="uni2010" unicode="&#x2010;" horiz-adv-x="667" 
d="M60 277h547v-50h-547v50z" />
    <glyph glyph-name="figuredash" unicode="&#x2012;" horiz-adv-x="590" 
d="M60 277h470v-50h-470v50z" />
    <glyph glyph-name="endash" unicode="&#x2013;" horiz-adv-x="615" 
d="M60 277h495v-50h-495v50z" />
    <glyph glyph-name="emdash" unicode="&#x2014;" horiz-adv-x="719" 
d="M60 277h599v-50h-599v50z" />
    <glyph glyph-name="uni2015" unicode="&#x2015;" horiz-adv-x="938" 
d="M60 277h818v-50h-818v50z" />
    <glyph glyph-name="quoteleft" unicode="&#x2018;" horiz-adv-x="201" 
d="M106 579h12l25 -24v-37l-25 -25h-36l-25 25v61l45 121h34z" />
    <glyph glyph-name="quoteright" unicode="&#x2019;" horiz-adv-x="201" 
d="M96 614h-13l-25 25v37l25 24h37l24 -24v-62l-44 -121h-35z" />
    <glyph glyph-name="quotesinglbase" unicode="&#x201a;" horiz-adv-x="201" 
d="M96 0h-13l-25 25v37l25 24h37l24 -24v-62l-44 -121h-35z" />
    <glyph glyph-name="quotedblleft" unicode="&#x201c;" horiz-adv-x="337" 
d="M106 579h12l25 -24v-37l-25 -25h-36l-25 25v61l45 121h34zM241 579h13l25 -24v-37l-25 -25h-37l-24 25v61l44 121h35z" />
    <glyph glyph-name="quotedblright" unicode="&#x201d;" horiz-adv-x="337" 
d="M96 614h-13l-25 25v37l25 24h37l24 -24v-62l-44 -121h-35zM232 614h-13l-25 25v37l25 24h37l24 -24v-62l-44 -121h-35z" />
    <glyph glyph-name="quotedblbase" unicode="&#x201e;" horiz-adv-x="337" 
d="M96 0h-13l-25 25v37l25 24h37l24 -24v-62l-44 -121h-35zM232 0h-13l-25 25v37l25 24h37l24 -24v-62l-44 -121h-35z" />
    <glyph glyph-name="dagger" unicode="&#x2020;" horiz-adv-x="498" 
d="M221 448h-161v50h161v175h57l-1 -175h161v-50h-161v-548h-56v548z" />
    <glyph glyph-name="daggerdbl" unicode="&#x2021;" horiz-adv-x="498" 
d="M277 448v-322h161v-51h-161v-175h-56v175h-161v51h161v322h-161v50h161v175h56v-175h161v-50h-161z" />
    <glyph glyph-name="bullet" unicode="&#x2022;" horiz-adv-x="344" 
d="M60 242v97l61 63h102l61 -63v-97l-61 -63h-102z" />
    <glyph glyph-name="ellipsis" unicode="&#x2026;" horiz-adv-x="606" 
d="M58 25v37l25 24h37l24 -24v-37l-24 -25h-37zM260 25v37l25 24h37l24 -24v-37l-24 -25h-37zM462 25v37l25 24h37l24 -24v-37l-24 -25h-37z" />
    <glyph glyph-name="perthousand" unicode="&#x2030;" horiz-adv-x="1153" 
d="M572 701h59l-386 -701h-59zM60 393v247l61 60h144l60 -60v-247l-60 -61h-144zM242 378l32 32v213l-32 32h-99l-32 -32v-213l32 -32h99zM487 61v247l60 60h144l60 -60v-247l-60 -61h-144zM828 61v247l61 60h144l60 -60v-247l-60 -61h-144zM668 46l33 32v213l-33 32h-98
l-33 -32v-213l33 -32h98zM1010 46l32 32v213l-32 32h-99l-32 -32v-213l32 -32h99z" />
    <glyph glyph-name="minute" unicode="&#x2032;" horiz-adv-x="204" 
d="M98 700h56l-46 -186h-48z" />
    <glyph glyph-name="second" unicode="&#x2033;" horiz-adv-x="323" 
d="M98 700h56l-46 -186h-48zM217 700h56l-46 -186h-48z" />
    <glyph glyph-name="guilsinglleft" unicode="&#x2039;" horiz-adv-x="301" 
d="M40 243v52l201 182v-67l-150 -138v-6l150 -137v-68z" />
    <glyph glyph-name="guilsinglright" unicode="&#x203a;" horiz-adv-x="301" 
d="M50 129l150 137v6l-150 138v67l201 -182v-52l-201 -182v68z" />
    <glyph glyph-name="fraction" unicode="&#x2044;" horiz-adv-x="551" 
d="M506 700l-401 -700h-60l401 700h60z" />
    <glyph glyph-name="uni2070" unicode="&#x2070;" horiz-adv-x="424" 
d="M60 343v294l63 63h178l63 -63v-294l-63 -63h-178zM277 329l32 32v258l-32 32h-130l-32 -32v-258l32 -32h130z" />
    <glyph glyph-name="uni2074" unicode="&#x2074;" horiz-adv-x="384" 
d="M244 363h-209v75l188 262h75v-288h51v-49h-51v-83h-54v83zM246 411v231h-3l-152 -212v-19h155z" />
    <glyph glyph-name="uni2075" unicode="&#x2075;" horiz-adv-x="388" 
d="M55 338v55h55v-38l26 -26h126l27 26v113l-27 27h-201v205h274v-49h-219v-107h168l59 -59v-147l-58 -58h-171z" />
    <glyph glyph-name="uni2076" unicode="&#x2076;" horiz-adv-x="402" 
d="M60 338v304l59 58h172l58 -58v-51h-54v33l-27 27h-126l-27 -27v-130l44 44h134l59 -58v-142l-59 -58h-174zM271 329l26 27v106l-27 27h-100l-55 -55v-78l27 -27h129z" />
    <glyph glyph-name="uni2077" unicode="&#x2077;" horiz-adv-x="349" 
d="M252 635v16h-217v49h274v-68l-166 -352h-58z" />
    <glyph glyph-name="uni2078" unicode="&#x2078;" horiz-adv-x="411" 
d="M55 339v120l38 38l-32 31v113l59 59h172l58 -59v-113l-32 -31l38 -38v-120l-58 -59h-184zM269 518l27 26v80l-27 27h-126l-27 -27v-80l27 -26h126zM275 329l27 27v88l-27 26h-138l-27 -26v-88l27 -27h138z" />
    <glyph glyph-name="uni2079" unicode="&#x2079;" horiz-adv-x="402" 
d="M56 338v48h54v-30l27 -27h123l27 27v124l-40 -41h-138l-59 59v144l59 58h174l59 -58v-304l-59 -58h-168zM238 489l49 49v86l-27 27h-128l-27 -27v-109l27 -26h106z" />
    <glyph glyph-name="uni207D" unicode="&#x207d;" horiz-adv-x="217" 
d="M60 261v438l58 58h74v-48h-49l-29 -29v-400l29 -29h49v-48h-74z" />
    <glyph glyph-name="uni207E" unicode="&#x207e;" horiz-adv-x="217" 
d="M25 204v48h50l29 29v399l-29 29h-50v48h75l57 -58v-438l-57 -57h-75z" />
    <glyph glyph-name="uni207F" unicode="&#x207f;" horiz-adv-x="418" 
d="M60 700h52v-74l73 74h106l67 -66v-283h-54v267l-34 34h-71l-85 -86v-215h-54v349z" />
    <glyph glyph-name="uni2080" unicode="&#x2080;" horiz-adv-x="424" 
d="M60 -87v294l63 63h178l63 -63v-294l-63 -63h-178zM277 -101l32 32v258l-32 32h-130l-32 -32v-258l32 -32h130z" />
    <glyph glyph-name="uni2081" unicode="&#x2081;" horiz-adv-x="257" 
d="M133 211l-93 -48v52l101 55h46v-420h-54v361z" />
    <glyph glyph-name="uni2082" unicode="&#x2082;" horiz-adv-x="366" 
d="M47 -69l222 214v50l-27 26h-116l-26 -26v-37h-55v54l59 58h161l58 -58v-85l-220 -210v-19h223v-48h-279v81z" />
    <glyph glyph-name="uni2083" unicode="&#x2083;" horiz-adv-x="399" 
d="M50 -92v53h55v-36l27 -26h126l27 26v86l-26 26h-122v49h122l26 26v83l-26 26h-124l-26 -26v-36h-55v53l58 58h169l58 -58v-117l-34 -34l34 -34v-119l-58 -58h-172z" />
    <glyph glyph-name="uni2084" unicode="&#x2084;" horiz-adv-x="384" 
d="M244 -67h-209v75l188 262h75v-288h51v-49h-51v-83h-54v83zM246 -19v231h-3l-152 -212v-19h155z" />
    <glyph glyph-name="uni2085" unicode="&#x2085;" horiz-adv-x="388" 
d="M55 -92v55h55v-38l26 -26h126l27 26v113l-27 27h-201v205h274v-49h-219v-107h168l59 -59v-147l-58 -58h-171z" />
    <glyph glyph-name="uni2086" unicode="&#x2086;" horiz-adv-x="402" 
d="M60 -92v304l59 58h172l58 -58v-51h-54v33l-27 27h-126l-27 -27v-130l44 44h134l59 -58v-142l-59 -58h-174zM271 -101l26 27v106l-27 27h-100l-55 -55v-78l27 -27h129z" />
    <glyph glyph-name="uni2087" unicode="&#x2087;" horiz-adv-x="349" 
d="M252 205v16h-217v49h274v-68l-166 -352h-58z" />
    <glyph glyph-name="uni2088" unicode="&#x2088;" horiz-adv-x="411" 
d="M55 -91v120l38 38l-32 31v113l59 59h172l58 -59v-113l-32 -31l38 -38v-120l-58 -59h-184zM269 88l27 26v80l-27 27h-126l-27 -27v-80l27 -26h126zM275 -101l27 27v88l-27 26h-138l-27 -26v-88l27 -27h138z" />
    <glyph glyph-name="uni2089" unicode="&#x2089;" horiz-adv-x="402" 
d="M56 -92v48h54v-30l27 -27h123l27 27v124l-40 -41h-138l-59 59v144l59 58h174l59 -58v-304l-59 -58h-168zM238 59l49 49v86l-27 27h-128l-27 -27v-109l27 -26h106z" />
    <glyph glyph-name="uni208D" unicode="&#x208d;" horiz-adv-x="217" 
d="M60 -151v438l58 58h74v-48h-49l-29 -29v-400l29 -29h49v-48h-74z" />
    <glyph glyph-name="uni208E" unicode="&#x208e;" horiz-adv-x="217" 
d="M25 -209v48h50l29 29v400l-29 29h-50v48h75l57 -58v-438l-57 -58h-75z" />
    <glyph glyph-name="colonmonetary" unicode="&#x20a1;" horiz-adv-x="623" 
d="M515 546v35l-26 26l-121 -555h79l68 67v35h58v-53l-101 -101h-115l-24 -110h-54l24 110h-102l-24 -110h-54l30 137l-78 78v490l105 105h119l24 110h54l-24 -110h102l24 110h54l-31 -140l71 -71v-53h-58zM167 91l121 557h-82l-73 -72v-451zM314 52l130 596h-102l-130 -596
h102z" />
    <glyph glyph-name="lira" unicode="&#x20a4;" horiz-adv-x="600" 
d="M560 51v-51h-483v111l77 86v67h-94v48h94v69h-94v48h94v166l105 105h199l91 -91v-57h-57v40l-57 56h-150l-74 -73v-146h241v-48h-241v-69h241v-48h-241v-80l-76 -87v-46h425z" />
    <glyph glyph-name="uni20A6" unicode="&#x20a6;" horiz-adv-x="758" 
d="M728 329h-101v-329h-57l-207 329h-176v-329h-54v329h-103v48h103v323h57l203 -323h180v323h54v-323h101v-48zM333 377l-144 229h-2v-229h146zM573 329h-149l147 -234h2v234z" />
    <glyph glyph-name="peseta" unicode="&#x20a7;" horiz-adv-x="724" 
d="M694 479h-95v-85l-88 -88h-328v-306h-58v479h-95v48h95v173h387l87 -87v-86h95v-48zM183 527h359v68l-55 54h-304v-122zM542 479h-359v-122h304l55 54v68z" />
    <glyph glyph-name="dong" unicode="&#x20ab;" horiz-adv-x="587" 
d="M572 590h-80v-590h-55v99l-99 -99h-181l-87 87v324l87 87h188l91 -79v171h-163v47h163v77h56v-77h80v-47zM436 357l-105 91h-150l-55 -54v-289l55 -54h143l112 112v194zM100 -78h371v-48h-371v48z" />
    <glyph glyph-name="Euro" unicode="&#x20ac;" horiz-adv-x="664" 
d="M556 546v35l-68 67h-241l-73 -72v-136h251v-49h-251v-90h251v-48h-251v-128l73 -73h241l68 67v35h58v-53l-101 -101h-292l-105 105v148h-81v48h81v90h-81v49h81v155l105 105h292l101 -101v-53h-58z" />
    <glyph glyph-name="uni20B1" unicode="&#x20b1;" horiz-adv-x="716" 
d="M596 539v-72h90v-48h-90v-25l-88 -88h-328v-306h-57v419h-93v48h93v72h-93v47h93v114h386l87 -87v-27h90v-47h-90zM180 586h359v9l-54 54h-305v-63zM539 539h-359v-72h359v72zM539 419h-359v-62h305l54 54v8z" />
    <glyph glyph-name="uni20B2" unicode="&#x20b2;" horiz-adv-x="644" 
d="M521 546v35l-68 67h-93v-290h219v-255l-103 -103h-116v-110h-54v110h-126l-105 105v490l105 105h126v110h54v-110h118l101 -101v-53h-58zM306 648h-100l-73 -72v-451l73 -73h100v596zM360 306v-254h91l70 70v184h-161z" />
    <glyph glyph-name="uni20B5" unicode="&#x20b5;" horiz-adv-x="623" 
d="M515 546v35l-68 67h-87v-596h87l68 67v35h58v-53l-101 -101h-112v-110h-54v110h-126l-105 105v490l105 105h126v110h54v-110h112l101 -101v-53h-58zM306 648h-100l-73 -72v-451l73 -73h100v596z" />
    <glyph glyph-name="uni20B9" unicode="&#x20b9;" horiz-adv-x="638" 
d="M578 653h-167l43 -43v-87h124v-49h-124v-83l-78 -78l82 -89v-224h-58v207l-89 96h-251v51h283l54 54v66h-337v49h337v72l-54 54h-283v51h518v-47z" />
    <glyph glyph-name="uni20BA" unicode="&#x20ba;" horiz-adv-x="603" 
d="M558 272v-101l-171 -171h-227v300l-100 -31v49l100 31v89l-100 -31v49l100 31v213h58v-195l176 55v-49l-176 -55v-89l176 55v-49l-176 -55v-266h147l137 137v83h56z" />
    <glyph glyph-name="uni20BD" unicode="&#x20bd;" horiz-adv-x="659" 
d="M604 613v-219l-88 -88h-328v-118h200v-48h-200v-140h-57v140h-101v48h101v118h-101v49h101v345h386zM547 595l-54 54h-305v-292h305l54 54v184z" />
    <glyph glyph-name="uni210A" unicode="&#x210a;" horiz-adv-x="572" 
d="M104 -217v91l75 75h257v151l-100 -90h-179l-87 87v314l87 87h183l97 -97v97h55v-549h83v-49h-83v-118l-87 -86h-214zM323 61l113 103v170l-113 114h-142l-55 -54v-279l55 -54h142zM380 -255l56 55v100h-237l-40 -40v-62l53 -53h168z" />
    <glyph glyph-name="uni2113" unicode="&#x2113;" horiz-adv-x="464" 
d="M404 128v-51l-77 -77h-140l-77 77v192l-72 -37l-23 42l95 49v300l77 77h136l77 -77v-203l-234 -122v-204l45 -44h92l45 44v34h56zM166 352l178 92v162l-45 45h-88l-45 -45v-254z" />
    <glyph glyph-name="uni2117" unicode="&#x2117;" horiz-adv-x="826" 
d="M60 176v349l176 175h355l175 -175v-349l-175 -176h-355zM566 50l147 148v305l-147 147h-305l-148 -147v-305l148 -148h305zM258 550h275l75 -75v-132l-75 -75h-220v-121h-55v403zM512 316l42 42v102l-42 41h-200v-185h200z" />
    <glyph glyph-name="uni2120" unicode="&#x2120;" horiz-adv-x="769" 
d="M60 403v41h54v-25l19 -20h115l20 20v66l-19 20h-136l-52 51v93l51 51h155l51 -51v-42h-53v26l-20 19h-110l-20 -19v-60l20 -20h136l51 -52v-97l-52 -53h-158zM383 700h55l108 -242h1l108 242h54v-349h-52v243h-1l-92 -199h-36l-92 199h-1v-243h-52v349z" />
    <glyph glyph-name="trademark" unicode="&#x2122;" horiz-adv-x="755" 
d="M165 652h-105v48h264v-48h-105v-301h-54v301zM374 700h55l108 -242h1l108 242h54v-349h-52v243h-1l-92 -199h-36l-92 199h-1v-243h-52v349z" />
    <glyph glyph-name="estimated" unicode="&#x212e;" horiz-adv-x="796" 
d="M228 32.5q-81 42.5 -127 119t-46 175.5t45.5 175.5t124.5 119t178 42.5q96 0 173 -40t121 -113t44 -168v-17h-541v-231q26 -34 84 -54.5t126 -20.5q79 0 149.5 34t108.5 90h37q-41 -69 -122 -111.5t-173 -42.5q-101 0 -182 42.5zM608 357v208q-28 30 -84 49.5t-121 19.5
q-62 0 -118 -18t-85 -47v-212h408z" />
    <glyph glyph-name="uni2153" unicode="&#x2153;" horiz-adv-x="840" 
d="M491 58v53h55v-36l27 -26h126l27 26v86l-26 26h-122v49h122l26 26v83l-26 26h-124l-26 -26v-36h-55v53l58 58h169l58 -58v-117l-34 -34l34 -34v-119l-58 -58h-172zM600 700l-401 -700h-60l401 700h60zM153 641l-93 -48v52l101 55h46v-420h-54v361z" />
    <glyph glyph-name="uni2154" unicode="&#x2154;" horiz-adv-x="942" 
d="M62 361l222 214v50l-27 26h-116l-26 -26v-37h-55v54l59 58h161l58 -58v-85l-220 -210v-19h223v-48h-279v81zM593 58v53h55v-36l27 -26h126l27 26v86l-26 26h-122v49h122l26 26v83l-26 26h-124l-26 -26v-36h-55v53l58 58h169l58 -58v-117l-34 -34l34 -34v-119l-58 -58
h-172zM710 700l-401 -700h-60l401 700h60z" />
    <glyph glyph-name="oneeighth" unicode="&#x215b;" horiz-adv-x="852" 
d="M491 60v120l38 38l-32 31v113l59 59h172l58 -59v-113l-32 -31l38 -38v-120l-58 -59h-184zM705 239l27 26v80l-27 27h-126l-27 -27v-80l27 -26h126zM711 50l27 27v88l-27 26h-138l-27 -26v-88l27 -27h138zM600 700l-401 -700h-60l401 700h60zM153 641l-93 -48v52l101 55
h46v-420h-54v361z" />
    <glyph glyph-name="threeeighths" unicode="&#x215c;" horiz-adv-x="952" 
d="M60 338v53h55v-36l27 -26h126l27 26v86l-26 26h-122v49h122l26 26v83l-26 26h-124l-26 -26v-36h-55v53l58 58h169l58 -58v-117l-34 -34l34 -34v-119l-58 -58h-172zM591 60v120l38 38l-32 31v113l59 59h172l58 -59v-113l-32 -31l38 -38v-120l-58 -59h-184zM805 239l27 26
v80l-27 27h-126l-27 -27v-80l27 -26h126zM811 50l27 27v88l-27 26h-138l-27 -26v-88l27 -27h138zM709 700l-401 -700h-60l401 700h60z" />
    <glyph glyph-name="fiveeighths" unicode="&#x215d;" horiz-adv-x="942" 
d="M60 338v55h55v-38l26 -26h126l27 26v113l-27 27h-201v205h274v-49h-219v-107h168l59 -59v-147l-58 -58h-171zM581 60v120l38 38l-32 31v113l59 59h172l58 -59v-113l-32 -31l38 -38v-120l-58 -59h-184zM795 239l27 26v80l-27 27h-126l-27 -27v-80l27 -26h126zM801 50
l27 27v88l-27 26h-138l-27 -26v-88l27 -27h138zM703 700l-401 -700h-60l401 700h60z" />
    <glyph glyph-name="seveneighths" unicode="&#x215e;" horiz-adv-x="859" 
d="M277 635v16h-217v49h274v-68l-166 -352h-58zM498 60v120l38 38l-32 31v113l59 59h172l58 -59v-113l-32 -31l38 -38v-120l-58 -59h-184zM712 239l27 26v80l-27 27h-126l-27 -27v-80l27 -26h126zM718 50l27 27v88l-27 26h-138l-27 -26v-88l27 -27h138zM606 700l-401 -700
h-60l401 700h60z" />
    <glyph glyph-name="arrowleft" unicode="&#x2190;" horiz-adv-x="739" 
d="M60 270v14l111 133h60l-93 -114h541v-52h-541l93 -114h-60z" />
    <glyph glyph-name="arrowup" unicode="&#x2191;" horiz-adv-x="400" 
d="M174 507l-114 -92v59l133 111h14l133 -111v-59l-114 92v-541h-52v541z" />
    <glyph glyph-name="arrowright" unicode="&#x2192;" horiz-adv-x="739" 
d="M601 251h-541v52h541l-93 114h60l111 -133v-14l-111 -133h-60z" />
    <glyph glyph-name="arrowdown" unicode="&#x2193;" horiz-adv-x="400" 
d="M60 77v60l114 -93v541h52v-541l114 93v-60l-133 -111h-14z" />
    <glyph glyph-name="partialdiff" unicode="&#x2202;" horiz-adv-x="560" 
d="M60 87v257l87 87h209l88 -79v87l-125 212h-112v49h145l148 -254v-359l-87 -87h-266zM389 51l54 54v183l-102 92h-170l-54 -54v-221l54 -54h218z" />
    <glyph glyph-name="product" unicode="&#x220f;" horiz-adv-x="665" 
d="M85 700h495v-810h-57v760h-381v-760h-57v810z" />
    <glyph glyph-name="summation" unicode="&#x2211;" horiz-adv-x="565" 
d="M60 -24l219 314l-219 308v102h465v-51h-408v-34l219 -308v-34l-219 -314v-34h408v-51h-465v102z" />
    <glyph glyph-name="minus" unicode="&#x2212;" horiz-adv-x="531" 
d="M60 289h411v-50h-411v50z" />
    <glyph glyph-name="uni2215" unicode="&#x2215;" horiz-adv-x="116" 
d="M229 701h60l-388 -701h-59z" />
    <glyph glyph-name="uni2219" unicode="&#x2219;" horiz-adv-x="339" 
d="M46 237v107l67 70h113l68 -70v-107l-68 -70h-113z" />
    <glyph glyph-name="radical" unicode="&#x221a;" horiz-adv-x="580" 
d="M129 244h-79v50h120l80 -225h6l236 631h58l-266 -700h-63z" />
    <glyph glyph-name="infinity" unicode="&#x221e;" horiz-adv-x="909" 
d="M60 234v130l121 121h132l141 -141l136 141h138l121 -121v-130l-121 -121h-112l-150 151l-147 -151h-138zM298 164l130 134l-136 136h-86l-90 -89v-92l90 -89h92zM703 164l90 90v90l-90 90h-92l-120 -124l146 -146h66z" />
    <glyph glyph-name="integral" unicode="&#x222b;" horiz-adv-x="459" 
d="M0 -77h82l59 58l124 633l83 82h111v-49h-83l-56 -56l-128 -635l-83 -82h-109v49z" />
    <glyph glyph-name="approxequal" unicode="&#x2248;" horiz-adv-x="546" 
d="M203 376h-37l-50 -50v-36h-56v50l86 86h70l127 -96h35l52 53v33h56v-50l-86 -85h-70zM203 171h-37l-50 -50v-36h-56v50l86 86h70l127 -96h35l52 53v33h56v-50l-86 -85h-70z" />
    <glyph glyph-name="notequal" unicode="&#x2260;" horiz-adv-x="531" 
d="M319 323l-53 -118h205v-50h-227l-65 -145h-56l65 145h-128v50h150l53 118h-203v50h225l65 145h56l-65 -145h130v-50h-152z" />
    <glyph glyph-name="lessequal" unicode="&#x2264;" horiz-adv-x="582" 
d="M50 315v65l472 211v-54l-420 -186v-6l420 -194v-55zM50 0v50h472v-50h-472z" />
    <glyph glyph-name="greaterequal" unicode="&#x2265;" horiz-adv-x="582" 
d="M60 151l420 194v6l-420 186v54l472 -211v-65l-472 -219v55zM60 50h472v-50h-472v50z" />
    <glyph glyph-name="filledbox" unicode="&#x25a0;" horiz-adv-x="600" 
d="M60 603h480v-484h-480v484z" />
    <glyph glyph-name="triagup" unicode="&#x25b2;" horiz-adv-x="700" 
d="M350 588l290 -588h-580z" />
    <glyph glyph-name="uni25B3" unicode="&#x25b3;" horiz-adv-x="700" 
d="M350 588l290 -588h-580zM564 45l-214 444l-214 -444h428z" />
    <glyph glyph-name="uni25B6" unicode="&#x25b6;" horiz-adv-x="701" 
d="M60 586l581 -294l-581 -294v588z" />
    <glyph glyph-name="uni25B7" unicode="&#x25b7;" horiz-adv-x="705" 
d="M60 584l585 -292l-585 -293v585zM550 292l-442 214v-430z" />
    <glyph glyph-name="triagdn" unicode="&#x25bc;" horiz-adv-x="700" 
d="M60 584h580l-290 -589z" />
    <glyph glyph-name="uni25BD" unicode="&#x25bd;" horiz-adv-x="700" 
d="M60 584h580l-290 -589zM564 539h-428l214 -444z" />
    <glyph glyph-name="uni25C0" unicode="&#x25c0;" horiz-adv-x="701" 
d="M60 292l581 294v-588z" />
    <glyph glyph-name="uni25C1" unicode="&#x25c1;" horiz-adv-x="705" 
d="M60 292l585 292v-585zM597 506l-442 -214l442 -216v430z" />
    <glyph glyph-name="uni25C6" unicode="&#x25c6;" horiz-adv-x="650" 
d="M60 330l264 269l266 -269l-266 -268z" />
    <glyph glyph-name="lozenge" unicode="&#x25ca;" horiz-adv-x="534" 
d="M60 340l172 340h70l172 -340l-172 -340h-70zM270 49l145 291l-145 291h-6l-145 -291l145 -291h6z" />
    <glyph glyph-name="dieresis_acute" unicode="&#xf6d7;" 
d="M36 827h60l-73 -126h-49zM-137 603v36l24 23h36l22 -23v-36l-22 -23h-36zM55 603v36l22 23h36l24 -23v-36l-24 -23h-36z" />
    <glyph glyph-name="dieresis_grave" unicode="&#xf6d8;" 
d="M-94 827h60l62 -126h-48zM-137 603v36l24 23h36l22 -23v-36l-22 -23h-36zM55 603v36l22 23h36l24 -23v-36l-24 -23h-36z" />
    <glyph glyph-name="uniF8FF" unicode="&#xf8ff;" horiz-adv-x="579" 
d="M85 712h409v-712h-409v712zM438 54v603h-297v-603h297z" />
    <glyph glyph-name="yoYingthai.less" horiz-adv-x="854" 
d="M83 54v255l59 71l-87 85l93 93h254l76 -76v-384l46 -46h143l46 46v460h56v-481l-77 -77h-194l-76 77v382l-48 48h-208l-43 -42l84 -85l-68 -85v-84l-3 -45l19 8h52l54 -52v-68l-54 -54h-70zM191 41l26 25v42l-26 25h-38l-26 -25v-42l26 -25h38z" />
    <glyph glyph-name="doChadathai.short" horiz-adv-x="620" 
d="M138 -163v68l53 56h181l107 -113v611l-48 48h-225l-43 -42l96 -85l-50 -84v-242l-54 -54h-66l-54 54v66l54 52h53l15 -8l-4 40v106l43 68l-101 87l93 93h271l76 -76v-701h-50l-56 57l-52 -57h-185zM141 41l25 25v41l-25 25h-37l-26 -25v-41l26 -25h37zM358 -174l39 44
l-42 46h-141l-27 -28v-34l27 -28h144z" />
    <glyph glyph-name="toPatakthai.short" horiz-adv-x="620" 
d="M106 -164v80l54 54h86l118 -127l52 64l63 -64v616l-48 48h-225l-43 -42l96 -85l-50 -84v-242l-54 -54h-66l-54 54v66l54 52h53l15 -8l-4 40v106l43 68l-101 87l93 93h271l76 -76v-700h-53l-63 64l-54 -64l-60 62l-64 -62h-81zM141 41l25 25v41l-25 25h-37l-26 -25v-41
l26 -25h37zM226 -175l50 50l-48 51h-48l-26 -26v-49l26 -26h46z" />
    <glyph glyph-name="thoThanthai.less" horiz-adv-x="516" 
d="M96 464v-24l335 -77v-363h-56v118l-66 54l-8 9l-59 -59h-70l-54 54v66l54 53h70l133 -111v144l-335 78v75l78 77h323v-50h-300zM251 229l-25 25h-39l-25 -25v-41l25 -25h39l25 25v41z" />
    <glyph glyph-name="uni0E24.short" horiz-adv-x="580" 
d="M439 459l-48 48h-225l-43 -42l84 -85l-68 -85v-84l-3 -45l19 8h52l54 -52v-68l-54 -54h-70l-54 54v255l59 71l-87 85l93 93h271l76 -76v-592h-56v569zM191 41l26 25v42l-26 25h-38l-26 -25v-42l26 -25h38z" />
    <glyph glyph-name="uni0E26.short" horiz-adv-x="620" 
d="M479 459l-48 48h-225l-43 -42l96 -85l-50 -84v-242l-54 -54h-66l-54 54v66l54 52h53l15 -8l-4 40v106l43 68l-101 87l93 93h271l76 -76v-592h-56v569zM141 41l25 25v41l-25 25h-37l-26 -25v-41l26 -25h37z" />
    <glyph glyph-name="loChulathai.short" horiz-adv-x="683" 
d="M157 345l4 48l-19 -9h-53l-54 54v67l54 53h70l53 -53v-411h2l140 270h36l140 -270h2v276l4 47l-17 -9h-57l-52 52v66l52 52h70l53 -52v-20l53 52l28 -31l-79 -77v-450h-57l-158 306l-158 -306h-57v345zM515 447l27 27v38l-27 26h-36l-26 -26v-38l26 -27h36zM144 425
l25 25v42l-25 25h-40l-25 -25v-42l25 -25h40z" />
    <glyph glyph-name="breve_acute" 
d="M37 827h60l-74 -126h-48zM-129 634v55h48v-40l41 -41h80l41 41v40h48v-55l-68 -69h-121z" />
    <glyph glyph-name="breve_grave" 
d="M-93 827h60l62 -126h-49zM-129 634v55h48v-40l41 -41h80l41 41v40h48v-55l-68 -69h-121z" />
    <glyph glyph-name="breve_hookabove" 
d="M-24 727l66 56v21l-16 16h-50l-19 -19v-20h-44v35l44 44h87l44 -44v-46l-64 -51v-26h-48v34zM-129 634v55h48v-40l41 -41h80l41 41v40h48v-55l-68 -69h-121z" />
    <glyph glyph-name="breve_tilde" 
d="M-39 776h-20l-20 -19v-22h-45v34l46 47h53l62 -47h20l19 19v23h45v-35l-46 -47h-53zM-129 634v55h48v-40l41 -41h80l41 41v40h48v-55l-68 -69h-121z" />
    <glyph glyph-name="circumflex_acute" 
d="M151 817h60l-74 -126h-48zM-30 698h60l93 -133h-55l-65 95h-6l-65 -95h-55z" />
    <glyph glyph-name="circumflex_grave" 
d="M44 817h60l61 -126h-48zM-30 698h60l93 -133h-55l-65 95h-6l-65 -95h-55z" />
    <glyph glyph-name="circumflex_hookabove" 
d="M101 706l64 55v21l-16 16h-48l-19 -18v-21h-44v36l44 44h85l44 -44v-46l-62 -51v-26h-48v34zM-30 698h60l93 -133h-55l-65 95h-6l-65 -95h-55z" />
    <glyph glyph-name="circumflex_tilde" 
d="M-38 781h-20l-20 -19v-22h-45v34l46 47h53l62 -47h20l19 19v23h45v-35l-46 -47h-53zM-30 698h60l93 -133h-55l-65 95h-6l-65 -95h-55z" />
    <glyph glyph-name="dieresis_caron" 
d="M-120 819h55l62 -82h6l62 82h55l-92 -118h-56zM-137 603v36l24 23h36l22 -23v-36l-22 -23h-36zM55 603v36l22 23h36l24 -23v-36l-24 -23h-36z" />
    <glyph glyph-name="dieresis_macron" 
d="M-131 779h262v-45h-262v45zM-137 603v36l23 23h36l23 -23v-36l-23 -23h-36zM54 603v36l23 23h36l23 -23v-36l-23 -23h-36z" />
    <glyph glyph-name="uni0E31.narrow" 
d="M-546 707v70l48 47h71l48 -47v-54l-10 -15h86l89 90l35 -36l-103 -103h-216zM-444 700l23 23v39l-23 23h-36l-24 -23v-39l24 -23h36z" />
    <glyph glyph-name="uni0E48.small" 
d="M-138 1108h53v-153h-53v153z" />
    <glyph glyph-name="uni0E48.narrow" 
d="M-324 856h56v-197h-56v197z" />
    <glyph glyph-name="uni0E49.small" 
d="M-281 995h64l18 26h-31l-42 42v53l46 45h60l45 -45v-57l-46 -64h82l102 132l34 -30l-112 -142h-220v40zM-182 1052l22 21v31l-22 22h-29l-22 -22v-30l22 -22h29z" />
    <glyph glyph-name="uni0E49.narrow" 
d="M-530 701h72l23 34h-39l-45 45v55l47 47h63l47 -47v-64l-43 -69h93l103 139l35 -33l-111 -149h-245v42zM-425 768l23 23v32l-23 23h-31l-23 -23v-32l23 -23h31z" />
    <glyph glyph-name="uni0E4A.small" 
d="M-339 992v73l71 79h56l36 -39l34 39h41l48 -48v-101h13l75 114l33 -27l-85 -127h-111v40h29v92l-17 16h-17l-43 -45l-45 45h-34l-30 -31h41l36 -37v-43l-38 -40h-53zM-261 984l17 18v23l-17 17h-24l-17 -17v-23l17 -18h24z" />
    <glyph glyph-name="uni0E4A.narrow" 
d="M-580 701v76l75 89h55l40 -43l36 43h45l50 -50v-116h14l70 108l34 -29l-79 -120h-117v41h30v105l-18 17h-19l-46 -52l-50 52h-33l-34 -39h48l40 -40v-43l-42 -45h-56zM-496 690l19 19v24l-19 19h-27l-18 -19v-24l18 -19h27z" />
    <glyph glyph-name="uni0E4B.small" 
d="M2 1026h-90v-71h-48v71h-89v42h89v71h48v-71h90v-42z" />
    <glyph glyph-name="uni0E4C.small" 
d="M-153 1115l53 -52v-61l-49 -47h-65l-48 47v66l154 158l31 -31zM-141 1052l-23 22h-34l-23 -22v-37l23 -22h34l23 22v37z" />
    <glyph glyph-name="uni0E4C.narrow" 
d="M-278 826l52 -52v-66l-49 -49h-69l-49 49v70l187 190l34 -35zM-267 761l-23 23h-38l-23 -23v-39l23 -23h38l23 23v39z" />
    <glyph glyph-name="uni0E47.narrow" 
d="M-524 808l74 74h178l58 59l32 -33l-69 -70h-178l-45 -45v-80l59 50l60 -61h28l-8 12v46l44 45h62l44 -43v-59l-44 -44h-142l-48 51l-62 -51h-43v149zM-244 697l20 20v32l-20 19h-33l-19 -19v-32l19 -20h33z" />
    <glyph glyph-name="uni0E34.narrow" 
d="M-589 743l92 92h199l95 -94v-82h-386v84zM-254 702v27l-62 62h-160l-62 -62v-27h284z" />
    <glyph glyph-name="uni0E35.narrow" 
d="M-203 892v-233h-386v84l92 92h189l52 -50v107h53zM-254 727l-66 64h-156l-62 -62v-27h284v25z" />
    <glyph glyph-name="uni0E36.narrow" 
d="M-171 840v-59l-45 -44v-78h-380v84l92 92h162l25 -19v24l44 44h58zM-209 825l-20 21h-30l-20 -21v-29l21 -21h28l21 21v29zM-266 732l-78 59h-140l-62 -62v-27h280v30z" />
    <glyph glyph-name="uni0E37.narrow" 
d="M-203 892v-233h-386v84l92 92h135v57h52v-58l55 -51v109h52zM-254 727l-66 64h-156l-62 -62v-27h284v25z" />
    <glyph glyph-name="uni0E4D0E48" 
d="M-223 710v76l56 56h82l56 -56v-76l-56 -56h-82zM-105 698l30 30v40l-30 30h-42l-30 -30v-40l30 -30h42zM-151 1077h53v-153h-53v153z" />
    <glyph glyph-name="uni0E4D0E49" 
d="M-223 710v76l56 56h82l56 -56v-76l-56 -56h-82zM-105 698l30 30v40l-30 30h-42l-30 -30v-40l30 -30h42zM-268 964h64l18 26h-31l-42 42v53l46 45h60l45 -45v-57l-46 -64h82l102 132l34 -30l-112 -142h-220v40zM-169 1021l22 21v31l-22 22h-29l-22 -22v-30l22 -22h29z" />
    <glyph glyph-name="uni0E4D0E4A" 
d="M-223 710v76l56 56h82l56 -56v-76l-56 -56h-82zM-105 698l30 30v40l-30 30h-42l-30 -30v-40l30 -30h42zM-308 961v73l71 79h56l36 -39l34 39h41l48 -48v-101h13l75 114l33 -27l-85 -127h-111v40h29v92l-17 16h-17l-43 -45l-45 45h-34l-30 -31h41l36 -37v-43l-38 -40h-53z
M-230 953l17 18v23l-17 17h-24l-17 -17v-23l17 -18h24z" />
    <glyph glyph-name="uni0E4D0E4B" 
d="M-223 710v76l56 56h82l56 -56v-76l-56 -56h-82zM-105 698l30 30v40l-30 30h-42l-30 -30v-40l30 -30h42zM-11 995h-90v-71h-48v71h-89v42h89v71h48v-71h90v-42z" />
    <glyph glyph-name="uni0E3A.small" 
d="M-168 -336v40l28 27h39l28 -27v-40l-28 -27h-39z" />
    <glyph glyph-name="uni0E38.small" 
d="M-141 -472l3 43l-20 -9h-48l-52 53v64l52 53h68l53 -53v-192h-56v41zM-154 -398l26 26v38l-26 26h-36l-25 -26v-38l25 -26h36z" />
    <glyph glyph-name="uni0E39.small" 
d="M-285 -476v18l2 30l-14 -8h-54l-52 52v64l52 52h67l52 -52v-146h94v192h53v-201l-38 -38h-125zM-299 -396l25 25v38l-25 25h-36l-25 -25v-38l25 -25h36z" />
    <glyph glyph-name="uni0E4B.narrow" 
d="M-207 742h-93v-83h-52v83h-93v43h93v83h52v-83h93v-43z" />
    <glyph glyph-name="uni0E4D.narrow" 
d="M-412 710v76l56 56h82l56 -56v-76l-56 -56h-82zM-294 698l30 30v40l-30 30h-42l-30 -30v-40l30 -30h42z" />
    <glyph glyph-name="uni0E4D0E48.narrow" 
d="M-412 710v76l56 56h82l56 -56v-76l-56 -56h-82zM-294 698l30 30v40l-30 30h-42l-30 -30v-40l30 -30h42zM-336 1077h53v-153h-53v153z" />
    <glyph glyph-name="uni0E4D0E49.narrow" 
d="M-412 710v76l56 56h82l56 -56v-76l-56 -56h-82zM-294 698l30 30v40l-30 30h-42l-30 -30v-40l30 -30h42zM-443 964h64l18 26h-31l-42 42v53l46 45h60l45 -45v-57l-46 -64h82l102 132l34 -30l-112 -142h-220v40zM-344 1021l22 21v31l-22 22h-29l-22 -22v-30l22 -22h29z" />
    <glyph glyph-name="uni0E4D0E4A.narrow" 
d="M-412 710v76l56 56h82l56 -56v-76l-56 -56h-82zM-294 698l30 30v40l-30 30h-42l-30 -30v-40l30 -30h42zM-487 961v73l71 79h56l36 -39l34 39h41l48 -48v-101h13l75 114l33 -27l-85 -127h-111v40h29v92l-17 16h-17l-43 -45l-45 45h-34l-30 -31h41l36 -37v-43l-38 -40h-53z
M-409 953l17 18v23l-17 17h-24l-17 -17v-23l17 -18h24z" />
    <glyph glyph-name="uni0E4D0E4B.narrow" 
d="M-412 710v76l56 56h82l56 -56v-76l-56 -56h-82zM-294 698l30 30v40l-30 30h-42l-30 -30v-40l30 -30h42zM-196 995h-90v-71h-48v71h-89v42h89v71h48v-71h90v-42z" />
    </font>
</defs>
</svg>
