<?xml version="1.0" standalone="no"?>
<!DOCTYPE svg PUBLIC "-//W3C//DTD SVG 1.1//EN" "http://www.w3.org/Graphics/SVG/1.1/DTD/svg11.dtd" >
<svg xmlns="http://www.w3.org/2000/svg" xmlns:xlink="http://www.w3.org/1999/xlink" version="1.1">
<metadata>
Created by FontForge 20170731 at Fri Sep  7 16:47:53 2018
 By Aleksey,,,
Copyright 2018 The Chakra Petch Project Authors (https://github.com/m4rc1e/Chakra-Petch.git)
</metadata>
<defs>
<font id="ChakraPetch-SemiBold" horiz-adv-x="0" >
  <font-face 
    font-family="Chakra Petch SemiBold"
    font-weight="600"
    font-stretch="normal"
    units-per-em="1000"
    panose-1="0 0 7 0 0 0 0 0 0 0"
    ascent="800"
    descent="-200"
    x-height="498"
    cap-height="700"
    bbox="-664 -555 1180 1243"
    underline-thickness="50"
    underline-position="-150"
    unicode-range="U+000D-FB02"
  />
<missing-glyph horiz-adv-x="589" 
d="M90 712h409v-712h-409v712zM443 54v603h-297v-603h297z" />
    <glyph glyph-name="fi" unicode="fi" horiz-adv-x="605" 
d="M540 0h-112v401h-205v-401h-113v401h-90v97h90v106l96 97h174v-95h-124l-33 -34v-74h317v-498z" />
    <glyph glyph-name="fl" unicode="fl" horiz-adv-x="637" 
d="M567 0h-114v617h-197l-33 -33v-86h150v-97h-150v-401h-113v401h-90v97h90v116l96 96h361v-710z" />
    <glyph glyph-name="uni0E240E45" unicode="&#xe24;&#xe45;" horiz-adv-x="941" 
d="M871 465v-675h-114v637l-32 32h-150l-31 -32v-637h-114v637l-32 32h-202l-27 -27l81 -79l-60 -78v-38l-3 -24h51l64 -63v-86l-65 -64h-95l-64 64v224l52 66l-90 82l114 122h289l42 -43l43 43h251zM151 125v-37l22 -21h35l22 21v37l-22 21h-35z" />
    <glyph glyph-name="uni0E260E45" unicode="&#xe26;&#xe45;" horiz-adv-x="962" 
d="M892 465v-675h-114v637l-33 32h-149l-32 -32v-637h-114v637l-31 32h-202l-28 -27l98 -79l-44 -80v-208l-65 -65h-92l-66 64v87l63 62h51l-4 24v54l37 62l-106 83l114 122h288l43 -43l42 43h252zM170 126l-22 21h-34l-22 -21v-37l22 -21h34l22 21v37z" />
    <glyph glyph-name=".notdef" horiz-adv-x="589" 
d="M90 712h409v-712h-409v712zM443 54v603h-297v-603h297z" />
    <glyph glyph-name=".null" 
 />
    <glyph glyph-name="nonmarkingreturn" unicode="&#xd;" horiz-adv-x="263" 
 />
    <glyph glyph-name="NULL" 
 />
    <glyph glyph-name="NULL" 
 />
    <glyph glyph-name="space" unicode=" " horiz-adv-x="263" 
 />
    <glyph glyph-name="exclam" unicode="!" horiz-adv-x="264" 
d="M74 566v134h116v-134l-16 -377h-84zM65 38v53l38 38h58l38 -38v-53l-38 -38h-58z" />
    <glyph glyph-name="quotedbl" unicode="&#x22;" horiz-adv-x="420" 
d="M60 586v114h116v-114l-16 -139h-84zM244 586v114h116v-114l-16 -139h-84z" />
    <glyph glyph-name="numbersign" unicode="#" horiz-adv-x="707" 
d="M541 424l-25 -144h126v-97h-142l-32 -183h-111l31 183h-129l-32 -183h-111l31 183h-102v97h119l25 144h-124v97h140l31 179h112l-31 -179h129l31 179h112l-31 -179h104v-97h-121zM430 424h-130l-25 -144h130z" />
    <glyph glyph-name="dollar" unicode="$" horiz-adv-x="629" 
d="M579 305v-200l-105 -105h-104v-110h-99v110h-113l-103 103v88h114v-53l38 -38h64v208h-111l-103 102v187l103 103h111v110h99v-110h98l103 -103v-89h-114v54l-39 38h-48v-192h106zM271 408v192h-61l-39 -38v-116l39 -38h61zM465 269l-39 39h-56v-208h55l40 40v129z" />
    <glyph glyph-name="percent" unicode="%" horiz-adv-x="859" 
d="M45 407v218l75 75h167l75 -75v-218l-75 -75h-167zM564 700h116l-384 -700h-116zM238 418l24 24v148l-24 24h-69l-25 -24v-148l25 -24h69zM497 75v218l75 75h167l75 -75v-218l-75 -75h-167zM690 86l24 24v148l-24 24h-69l-25 -24v-148l25 -24h69z" />
    <glyph glyph-name="ampersand" unicode="&#x26;" horiz-adv-x="654" 
d="M55 102v192l66 66l-37 37v200l102 103h260l100 -101v-70h-113v34l-37 37h-163l-36 -37v-130l38 -39h228v65h110v-65h66v-98h-64v-193l-102 -103h-316zM423 100l39 39v157h-256l-38 -39v-118l38 -39h217z" />
    <glyph glyph-name="quotesingle" unicode="'" horiz-adv-x="236" 
d="M60 586v114h116v-114l-16 -139h-84z" />
    <glyph glyph-name="parenleft" unicode="(" horiz-adv-x="335" 
d="M70 -1v701l116 116h131v-98h-78l-56 -56v-625l56 -56h78v-98h-131z" />
    <glyph glyph-name="parenright" unicode=")" horiz-adv-x="335" 
d="M18 -117v98h78l56 56v625l-56 56h-78v98h131l116 -116v-701l-116 -116h-131z" />
    <glyph glyph-name="asterisk" unicode="*" horiz-adv-x="346" 
d="M146 531l-67 -52l-34 63l84 33l-84 33l34 64l67 -54l-11 82h76l-12 -82l68 54l34 -64l-84 -33l84 -33l-34 -63l-68 52l12 -81h-76z" />
    <glyph glyph-name="plus" unicode="+" horiz-adv-x="556" 
d="M511 216h-177v-164h-112v164h-177v96h177v164h112v-164h177v-96z" />
    <glyph glyph-name="comma" unicode="," horiz-adv-x="227" 
d="M100 0h-19l-38 38v58l38 38h65l37 -39v-95l-54 -131h-66z" />
    <glyph glyph-name="hyphen" unicode="-" horiz-adv-x="422" 
d="M45 305h332v-98h-332v98z" />
    <glyph glyph-name="period" unicode="." horiz-adv-x="227" 
d="M44 38v58l38 38h64l37 -39v-56l-37 -39h-64z" />
    <glyph glyph-name="slash" unicode="/" horiz-adv-x="503" 
d="M386 700h117l-386 -700h-117z" />
    <glyph glyph-name="zero" unicode="0" horiz-adv-x="644" 
d="M60 111v478l111 111h302l111 -111v-478l-111 -111h-302zM419 100l49 48v404l-49 48h-194l-49 -48v-404l49 -48h194z" />
    <glyph glyph-name="one" unicode="1" horiz-adv-x="374" 
d="M183 577l-153 -79v107l173 95h96v-700h-116v577z" />
    <glyph glyph-name="two" unicode="2" horiz-adv-x="566" 
d="M44 147l362 338v77l-39 38h-172l-39 -38v-65h-116v100l103 103h276l103 -103v-146l-359 -331v-21h363v-99h-482v147z" />
    <glyph glyph-name="three" unicode="3" horiz-adv-x="595" 
d="M40 103v99h116v-64l39 -38h190l39 38v127l-37 37h-200v100h200l37 37v123l-39 38h-184l-39 -38v-64h-116v99l103 103h288l103 -103v-192l-54 -53l54 -54v-195l-103 -103h-294z" />
    <glyph glyph-name="four" unicode="4" horiz-adv-x="571" 
d="M355 134h-340v131l307 435h149v-466h85v-100h-85v-134h-116v134zM359 231v346h-5l-226 -323v-23h231z" />
    <glyph glyph-name="five" unicode="5" horiz-adv-x="598" 
d="M50 103v102h116v-67l39 -38h188l39 38v172l-39 39h-333v351h474v-100h-360v-151h270l104 -104v-242l-103 -103h-292z" />
    <glyph glyph-name="six" unicode="6" horiz-adv-x="614" 
d="M60 103v494l103 103h294l103 -103v-92h-116v55l-40 40h-188l-40 -40v-188l66 65h219l103 -103v-231l-103 -103h-298zM408 100l40 40v157l-40 40h-150l-82 -84v-113l40 -40h192z" />
    <glyph glyph-name="seven" unicode="7" horiz-adv-x="514" 
d="M364 581v19h-354v100h474v-122l-279 -578h-122z" />
    <glyph glyph-name="eight" unicode="8" horiz-adv-x="630" 
d="M55 103v195l63 63l-53 53v183l103 103h294l103 -103v-183l-53 -53l63 -63v-195l-103 -103h-314zM409 404l40 40v116l-40 40h-188l-40 -40v-116l40 -40h188zM419 100l40 40v127l-40 39h-208l-40 -39v-127l40 -40h208z" />
    <glyph glyph-name="nine" unicode="9" horiz-adv-x="619" 
d="M65 103v85h116v-48l40 -40h182l40 40v181l-62 -62h-223l-103 103v235l103 103h298l103 -103v-494l-103 -103h-288zM369 359l74 74v127l-40 40h-192l-40 -40v-161l40 -40h158z" />
    <glyph glyph-name="colon" unicode=":" horiz-adv-x="223" 
d="M44 366v56l37 37h62l36 -37v-55l-36 -38h-62zM44 37v56l37 37h62l36 -38v-54l-36 -38h-62z" />
    <glyph glyph-name="semicolon" unicode=";" horiz-adv-x="223" 
d="M45 366v56l37 37h62l37 -37v-55l-37 -38h-62zM101 0h-19l-38 38v58l38 38h65l38 -39v-95l-55 -131h-66z" />
    <glyph glyph-name="less" unicode="&#x3c;" horiz-adv-x="606" 
d="M42 238v104l526 230v-112l-394 -167v-6l394 -175v-112z" />
    <glyph glyph-name="equal" unicode="=" horiz-adv-x="556" 
d="M45 399h466v-96h-466v96zM45 225h466v-96h-466v96z" />
    <glyph glyph-name="greater" unicode="&#x3e;" horiz-adv-x="606" 
d="M45 112l394 175v6l-394 167v112l526 -230v-104l-526 -238v112z" />
    <glyph glyph-name="question" unicode="?" horiz-adv-x="552" 
d="M213 314l180 174v56l-57 57h-139l-53 -53v-51h-114v86l117 117h239l121 -121v-124l-182 -176v-98h-112v133zM202 38v53l38 38h58l38 -38v-53l-38 -38h-58z" />
    <glyph glyph-name="at" unicode="@" horiz-adv-x="827" 
d="M505 149v23l-68 -66h-119l-93 93v180l94 94h129l48 -48v44h84v-276h52l50 52v162l-144 144h-241l-151 -150v-215l149 -148h409v-90h-461l-198 198v295l200 200h341l196 -196v-232l-107 -107h-127zM479 343l-41 42h-76l-34 -35v-119l35 -35h62l54 54v93z" />
    <glyph glyph-name="A" unicode="A" horiz-adv-x="637" 
d="M264 700h110l253 -700h-118l-60 166h-261l-60 -166h-118zM422 263l-103 296h-2l-101 -296h206z" />
    <glyph glyph-name="B" unicode="B" horiz-adv-x="662" 
d="M70 700h424l97 -97v-196l-43 -43l74 -74v-185l-105 -105h-447v700zM436 399l41 41v122l-40 40h-254v-203h253zM460 98l48 48v112l-48 47h-277v-207h277z" />
    <glyph glyph-name="C" unicode="C" horiz-adv-x="647" 
d="M60 113v474l113 113h328l111 -111v-92h-116v51l-53 52h-210l-57 -56v-388l57 -56h210l53 52v51h116v-92l-111 -111h-328z" />
    <glyph glyph-name="D" unicode="D" horiz-adv-x="680" 
d="M70 700h433l117 -117v-466l-117 -117h-433v700zM447 100l57 56v388l-57 56h-261v-500h261z" />
    <glyph glyph-name="E" unicode="E" horiz-adv-x="598" 
d="M70 700h488v-99h-372v-200h343v-98h-343v-204h372v-99h-488v700z" />
    <glyph glyph-name="F" unicode="F" horiz-adv-x="568" 
d="M70 700h478v-99h-362v-214h314v-99h-314v-288h-116v700z" />
    <glyph glyph-name="G" unicode="G" horiz-adv-x="668" 
d="M60 113v474l113 113h334l111 -111v-92h-116v51l-53 52h-216l-57 -56v-388l57 -56h216l56 55v127h-153v100h266v-269l-113 -113h-332z" />
    <glyph glyph-name="H" unicode="H" horiz-adv-x="690" 
d="M70 700h116v-301h318v301h116v-700h-116v299h-318v-299h-116v700z" />
    <glyph glyph-name="I" unicode="I" horiz-adv-x="266" 
d="M75 700h116v-700h-116v700z" />
    <glyph glyph-name="J" unicode="J" horiz-adv-x="572" 
d="M25 117v120h113v-81l56 -56h146l51 50v550h116v-589l-111 -111h-254z" />
    <glyph glyph-name="K" unicode="K" horiz-adv-x="640" 
d="M70 700h116v-301h125l173 301h129l-203 -349l220 -351h-132l-187 299h-125v-299h-116v700z" />
    <glyph glyph-name="L" unicode="L" horiz-adv-x="553" 
d="M70 700h116v-601h352v-99h-468v700z" />
    <glyph glyph-name="M" unicode="M" horiz-adv-x="793" 
d="M70 700h111l214 -482h2l214 482h112v-700h-111v468h-2l-176 -379h-76l-175 379h-2v-468h-111v700z" />
    <glyph glyph-name="N" unicode="N" horiz-adv-x="689" 
d="M70 700h106l330 -509h2v509h111v-700h-106l-330 508h-2v-508h-111v700z" />
    <glyph glyph-name="O" unicode="O" horiz-adv-x="692" 
d="M60 113v474l113 113h346l113 -113v-474l-113 -113h-346zM459 100l57 56v388l-57 56h-226l-57 -56v-388l57 -56h226z" />
    <glyph glyph-name="P" unicode="P" horiz-adv-x="638" 
d="M70 700h426l102 -103v-238l-103 -104h-309v-255h-116v700zM444 353l40 40v169l-40 40h-258v-249h258z" />
    <glyph glyph-name="Q" unicode="Q" horiz-adv-x="692" 
d="M654 -58l-71 -71l-130 129h-280l-113 113v474l113 113h346l113 -113v-474l-73 -73zM459 100l57 56v388l-57 56h-226l-57 -56v-388l57 -56h226z" />
    <glyph glyph-name="R" unicode="R" horiz-adv-x="667" 
d="M602 226v-226h-116v198l-72 79h-228v-277h-116v700h426l102 -103v-215l-73 -73zM186 373h258l40 40v149l-40 40h-258v-229z" />
    <glyph glyph-name="S" unicode="S" horiz-adv-x="629" 
d="M55 103v88h114v-53l38 -38h218l40 40v129l-39 39h-266l-103 102v187l103 103h308l103 -103v-89h-114v54l-39 38h-208l-39 -38v-116l39 -38h266l103 -103v-200l-105 -105h-316z" />
    <glyph glyph-name="T" unicode="T" horiz-adv-x="576" 
d="M230 601h-210v99h536v-99h-210v-601h-116v601z" />
    <glyph glyph-name="U" unicode="U" horiz-adv-x="692" 
d="M70 117v583h116v-544l57 -56h206l57 56v544h116v-583l-117 -117h-318z" />
    <glyph glyph-name="V" unicode="V" horiz-adv-x="642" 
d="M15 700h120l185 -562h2l185 562h120l-248 -700h-116z" />
    <glyph glyph-name="W" unicode="W" horiz-adv-x="874" 
d="M30 700h117l94 -527h3l149 527h93l144 -527h4l93 527h117l-144 -700h-112l-147 525h-3l-152 -525h-112z" />
    <glyph glyph-name="X" unicode="X" horiz-adv-x="636" 
d="M253 361l-233 339h130l168 -247l168 247h130l-232 -343l242 -357h-130l-178 264l-178 -264h-130z" />
    <glyph glyph-name="Y" unicode="Y" horiz-adv-x="620" 
d="M252 288l-247 412h127l177 -304h2l177 304h127l-247 -412v-288h-116v288z" />
    <glyph glyph-name="Z" unicode="Z" horiz-adv-x="584" 
d="M40 97l368 503v2h-358v98h494v-97l-368 -503v-2h368v-98h-504v97z" />
    <glyph glyph-name="bracketleft" unicode="[" horiz-adv-x="332" 
d="M70 816h244v-97h-131v-739h131v-97h-244v933z" />
    <glyph glyph-name="backslash" unicode="\" horiz-adv-x="518" 
d="M0 700h117l401 -700h-117z" />
    <glyph glyph-name="bracketright" unicode="]" horiz-adv-x="332" 
d="M18 -117v97h132v739h-132v97h244v-933h-244z" />
    <glyph glyph-name="asciicircum" unicode="^" horiz-adv-x="650" 
d="M268 700h111l226 -453h-117l-161 331h-6l-159 -331h-117z" />
    <glyph glyph-name="underscore" unicode="_" horiz-adv-x="462" 
d="M0 -10h462v-96h-462v96z" />
    <glyph glyph-name="grave" unicode="`" horiz-adv-x="240" 
d="M22 714h121l76 -165h-101z" />
    <glyph glyph-name="a" unicode="a" horiz-adv-x="567" 
d="M50 89v118l89 88h257v74l-37 37h-157l-37 -37v-32h-111v58l102 103h249l102 -103v-395h-103v77l-80 -77h-185zM313 89l83 80v42h-203l-32 -31v-61l30 -30h122z" />
    <glyph glyph-name="b" unicode="b" horiz-adv-x="593" 
d="M65 103v611h113v-294l81 78h179l100 -100v-298l-100 -100h-271zM383 97l42 42v220l-42 42h-106l-99 -99v-163l42 -42h163z" />
    <glyph glyph-name="c" unicode="c" horiz-adv-x="550" 
d="M55 99v300l98 99h263l99 -100v-82h-113v46l-40 39h-154l-40 -39v-226l40 -39h154l40 39v46h113v-82l-99 -100h-263z" />
    <glyph glyph-name="d" unicode="d" horiz-adv-x="595" 
d="M55 100v298l99 100h196l67 -58v274h113v-714h-107v82l-82 -82h-187zM328 97l89 90v146l-77 68h-130l-42 -42v-220l42 -42h118z" />
    <glyph glyph-name="e" unicode="e" horiz-adv-x="576" 
d="M55 99v299l99 100h271l101 -100v-186h-358v-80l38 -38h171l36 37v30h112v-64l-97 -97h-275zM413 295v69l-39 40h-167l-39 -40v-69h245z" />
    <glyph glyph-name="f" unicode="f" horiz-adv-x="392" 
d="M110 402h-90v96h90v103l96 96h171v-94h-122l-34 -33v-72h156v-96h-154v-402h-113v402z" />
    <glyph glyph-name="g" unicode="g" horiz-adv-x="595" 
d="M530 498v-616l-103 -102h-263l-87 87v66h112v-33l25 -25h164l39 40v156l-77 -71h-186l-99 100v298l99 100h194l76 -74v74h106zM417 326l-80 75h-127l-42 -42v-220l42 -42h118l89 87v142z" />
    <glyph glyph-name="h" unicode="h" horiz-adv-x="586" 
d="M65 714h113v-302l86 86h157l105 -105v-393h-113v362l-39 39h-92l-104 -105v-296h-113v714z" />
    <glyph glyph-name="i" unicode="i" horiz-adv-x="263" 
d="M60 605v58l41 40h61l41 -40v-58l-41 -40h-61zM75 498h113v-498h-113v498z" />
    <glyph glyph-name="j" unicode="j" horiz-adv-x="278" 
d="M75 605v58l41 40h61l41 -40v-58l-41 -40h-61zM-60 -121h110l40 39v580h113v-614l-102 -102h-161v97z" />
    <glyph glyph-name="k" unicode="k" horiz-adv-x="553" 
d="M65 714h113v-407h97l133 191h125l-167 -240l177 -258h-125l-145 211h-95v-211h-113v714z" />
    <glyph glyph-name="l" unicode="l" horiz-adv-x="253" 
d="M70 714h113v-714h-113v714z" />
    <glyph glyph-name="m" unicode="m" horiz-adv-x="853" 
d="M65 498h105v-87l86 87h124l71 -72l72 72h168l102 -103v-395h-113v362l-39 39h-93l-58 -58v-343h-110v363l-38 38h-68l-96 -97v-304h-113v498z" />
    <glyph glyph-name="n" unicode="n" horiz-adv-x="584" 
d="M65 498h105v-91l91 91h158l105 -105v-393h-113v362l-39 39h-90l-104 -105v-296h-113v498z" />
    <glyph glyph-name="o" unicode="o" horiz-adv-x="585" 
d="M55 100v298l99 100h276l100 -100v-298l-100 -100h-276zM377 95l40 40v228l-40 40h-169l-40 -40v-228l40 -40h169z" />
    <glyph glyph-name="p" unicode="p" horiz-adv-x="595" 
d="M65 498h105v-78l79 78h191l100 -100v-298l-100 -100h-192l-70 59v-271h-113v710zM387 97l40 39v226l-40 39h-120l-89 -89v-139l84 -76h125z" />
    <glyph glyph-name="q" unicode="q" horiz-adv-x="588" 
d="M415 80l-80 -80h-181l-99 100v298l99 100h272l102 -103v-607h-113v292zM317 97l98 102v163l-39 39h-169l-39 -39v-226l39 -39h110z" />
    <glyph glyph-name="r" unicode="r" horiz-adv-x="401" 
d="M65 498h105v-85l83 85h138v-97h-113l-100 -102v-299h-113v498z" />
    <glyph glyph-name="s" unicode="s" horiz-adv-x="528" 
d="M40 93v61h111v-32l28 -29h170l28 29v54l-29 29h-215l-89 90v112l91 91h251l92 -93v-61h-111v32l-28 29h-156l-28 -29v-50l29 -29h214l90 -91v-115l-91 -91h-265z" />
    <glyph glyph-name="t" unicode="t" horiz-adv-x="406" 
d="M110 99v303h-90v96h92v162h111v-162h153v-96h-153v-267l39 -39h114v-96h-167z" />
    <glyph glyph-name="u" unicode="u" horiz-adv-x="583" 
d="M60 101v397h113v-362l39 -39h87l106 106v295h113v-498h-105v92l-93 -92h-159z" />
    <glyph glyph-name="v" unicode="v" horiz-adv-x="501" 
d="M5 498h117l126 -373h4l127 373h117l-189 -498h-114z" />
    <glyph glyph-name="w" unicode="w" horiz-adv-x="722" 
d="M25 498h115l66 -347h4l100 347h104l91 -347h4l73 347h115l-128 -498h-109l-98 361h-4l-105 -361h-109z" />
    <glyph glyph-name="x" unicode="x" horiz-adv-x="515" 
d="M378 0l-121 167l-120 -167h-127l185 253l-180 245h127l115 -160l116 160h127l-179 -247l184 -251h-127z" />
    <glyph glyph-name="y" unicode="y" horiz-adv-x="585" 
d="M520 498v-616l-103 -102h-254l-88 87v66h113v-33l24 -25h156l39 40v170l-84 -85h-161l-102 103v395h113v-362l39 -39h91l104 108v293h113z" />
    <glyph glyph-name="z" unicode="z" horiz-adv-x="490" 
d="M30 91l288 313v2h-278v92h420v-91l-288 -313v-2h288v-92h-430v91z" />
    <glyph glyph-name="braceleft" unicode="{" horiz-adv-x="366" 
d="M113 -16v257l-78 80v58l78 80v256l101 101h134v-98h-83l-39 -39v-250l-73 -75v-8l73 -75v-251l39 -39h83v-98h-134z" />
    <glyph glyph-name="bar" unicode="|" horiz-adv-x="254" 
d="M70 846h114v-1050h-114v1050z" />
    <glyph glyph-name="braceright" unicode="}" horiz-adv-x="366" 
d="M18 -117v98h83l39 39v251l73 75v8l-73 75v250l-39 39h-83v98h134l101 -101v-256l78 -80v-58l-78 -80v-257l-101 -101h-134z" />
    <glyph glyph-name="asciitilde" unicode="~" horiz-adv-x="578" 
d="M210 270h-23l-31 -32v-55h-111v87l101 101h92l130 -97h19l35 36v51h111v-87l-101 -101h-92z" />
    <glyph glyph-name="uni00A0" unicode="&#xa0;" horiz-adv-x="263" 
 />
    <glyph glyph-name="exclamdown" unicode="&#xa1;" horiz-adv-x="264" 
d="M161 498l38 -38v-53l-38 -38h-58l-38 38v53l38 38h58zM174 309l16 -377v-134h-116v134l16 377h84z" />
    <glyph glyph-name="cent" unicode="&#xa2;" horiz-adv-x="550" 
d="M402 316v46l-40 39h-154l-40 -39v-226l40 -39h154l40 39v46h113v-82l-99 -100h-79v-107h-102v107h-82l-98 99v300l98 99h82v100h102v-100h79l99 -100v-82h-113z" />
    <glyph glyph-name="sterling" unicode="&#xa3;" horiz-adv-x="624" 
d="M599 98v-98h-537v138l76 88v64h-93v96h93v193l121 121h223l106 -107v-78h-112v44l-43 42h-124l-56 -56v-159h238v-96h-238v-80l-74 -85v-27h420z" />
    <glyph glyph-name="currency" unicode="&#xa4;" horiz-adv-x="651" 
d="M530 194l76 -77l-67 -67l-76 77l-26 -26h-222l-27 27l-76 -78l-67 67l77 77l-29 29v220l29 29l-77 77l67 67l77 -77l26 26h222l26 -26l76 77l67 -67l-76 -76l29 -30v-220zM402 199l48 49v170l-48 48h-152l-48 -48v-170l48 -49h152z" />
    <glyph glyph-name="yen" unicode="&#xa5;" horiz-adv-x="620" 
d="M392 328h133v-86h-157v-56h157v-86h-157v-100h-116v100h-153v86h153v56h-153v86h129l-223 372h127l177 -304h2l177 304h127z" />
    <glyph glyph-name="brokenbar" unicode="&#xa6;" horiz-adv-x="254" 
d="M70 846h114v-442h-114v442zM70 258h114v-462h-114v462z" />
    <glyph glyph-name="section" unicode="&#xa7;" horiz-adv-x="538" 
d="M493 261l-58 -58l43 -43v-115l-93 -93h-226l-93 93v66h114v-37l29 -29h129l29 29v62l-30 32h-202l-90 90v136l56 54l-41 41v118l93 93h227l93 -93v-66h-114v37l-29 29h-130l-29 -29v-65l30 -29h199l93 -93v-130zM353 259l29 29v75l-30 30h-167l-29 -29v-75l30 -30h167z
" />
    <glyph glyph-name="dieresis" unicode="&#xa8;" horiz-adv-x="399" 
d="M29 592v54l35 35h60l34 -36v-52l-34 -36h-60zM242 593v52l34 36h60l35 -35v-54l-35 -35h-60z" />
    <glyph glyph-name="copyright" unicode="&#xa9;" horiz-adv-x="831" 
d="M45 188v324l188 188h366l187 -188v-324l-187 -188h-366zM556 90l135 135v250l-135 135h-281l-135 -135v-250l135 -135h281zM213 259v183l110 110h187l109 -109v-61h-94v34l-47 48h-115l-51 -51v-126l51 -50h114l48 47v38h94v-64l-108 -109h-188z" />
    <glyph glyph-name="ordfeminine" unicode="&#xaa;" horiz-adv-x="424" 
d="M40 418v73l67 68h174v43l-18 18h-105l-16 -16v-20h-99v38l77 78h181l78 -78v-271h-87v50l-56 -50h-129zM237 427l44 41v25h-126l-17 -16v-33l17 -17h82z" />
    <glyph glyph-name="guillemotleft" unicode="&#xab;" horiz-adv-x="553" 
d="M25 229v80l240 190v-122l-135 -105v-6l135 -105v-122zM268 229v80l240 190v-122l-135 -105v-6l135 -105v-122z" />
    <glyph glyph-name="logicalnot" unicode="&#xac;" horiz-adv-x="553" 
d="M396 301h-351v96h463v-251h-112v155z" />
    <glyph glyph-name="uni00AD" unicode="&#xad;" horiz-adv-x="422" 
d="M45 305h332v-98h-332v98z" />
    <glyph glyph-name="registered" unicode="&#xae;" horiz-adv-x="547" 
d="M45 387v211l119 119h219l119 -119v-211l-119 -119h-219zM353 336l75 74v165l-75 74h-159l-75 -74v-165l75 -74h159zM183 607h147l42 -42v-66l-27 -26l28 -31v-54h-61v40l-21 24h-46v-64h-62v219zM299 503l13 13v27l-13 14h-56v-54h56z" />
    <glyph glyph-name="macron" unicode="&#xaf;" horiz-adv-x="342" 
d="M11 653h320v-90h-320v90z" />
    <glyph glyph-name="degree" unicode="&#xb0;" horiz-adv-x="352" 
d="M45 538v106l74 73h114l74 -73v-106l-74 -73h-114zM200 539l28 28v48l-28 28h-48l-28 -28v-48l28 -28h48z" />
    <glyph glyph-name="plusminus" unicode="&#xb1;" horiz-adv-x="556" 
d="M511 405v-96h-177v-154h-112v154h-177v96h177v160h112v-160h177zM45 97h466v-97h-466v97z" />
    <glyph glyph-name="uni00B2" unicode="&#xb2;" horiz-adv-x="390" 
d="M32 374l223 183v36l-17 16h-85l-16 -16v-41h-107v73l75 75h183l75 -75v-101l-195 -153v-5h197v-86h-333v94z" />
    <glyph glyph-name="uni00B3" unicode="&#xb3;" horiz-adv-x="423" 
d="M35 353v63h107v-31l16 -16h96l16 16v52l-14 14h-120v80h120l14 15v49l-16 16h-92l-16 -16v-31h-107v63l73 73h193l73 -73v-105l-31 -31l31 -31v-107l-73 -73h-197z" />
    <glyph glyph-name="acute" unicode="&#xb4;" horiz-adv-x="253" 
d="M104 714h121l-96 -165h-101z" />
    <glyph glyph-name="paragraph" unicode="&#xb6;" horiz-adv-x="587" 
d="M248 296h-94l-109 109v186l109 109h199v-904h-105v500zM412 700h105v-904h-105v904z" />
    <glyph glyph-name="periodcentered" unicode="&#xb7;" horiz-adv-x="227" 
d="M44 242v58l38 38h64l37 -39v-56l-37 -39h-64z" />
    <glyph glyph-name="cedilla" unicode="&#xb8;" horiz-adv-x="279" 
d="M32 -160h118l15 15v29l-15 14h-100v34l44 114h84l-35 -87h55l50 -50v-83l-52 -52h-164v66z" />
    <glyph glyph-name="uni00B9" unicode="&#xb9;" horiz-adv-x="282" 
d="M119 584l-94 -47v99l117 64h85v-420h-108v304z" />
    <glyph glyph-name="ordmasculine" unicode="&#xba;" horiz-adv-x="426" 
d="M40 426v199l75 75h196l75 -75v-199l-75 -75h-196zM263 435l23 23v135l-23 23h-100l-23 -23v-135l23 -23h100z" />
    <glyph glyph-name="guillemotright" unicode="&#xbb;" horiz-adv-x="553" 
d="M45 161l134 105v6l-134 105v122l240 -190v-80l-240 -190v122zM288 161l134 105v6l-134 105v122l240 -190v-80l-240 -190v122z" />
    <glyph glyph-name="onequarter" unicode="&#xbc;" horiz-adv-x="852" 
d="M648 70h-209v95l190 255h127v-259h51v-91h-51v-70h-108v70zM657 156v156h-2l-107 -146v-10h109zM667 700l-401 -700h-117l401 700h117zM139 584l-94 -47v99l117 64h85v-420h-108v304z" />
    <glyph glyph-name="onehalf" unicode="&#xbd;" horiz-adv-x="897" 
d="M663 700l-401 -700h-117l401 700h117zM139 584l-94 -47v99l117 64h85v-420h-108v304zM519 94l223 183v36l-17 16h-85l-16 -16v-41h-107v73l75 75h183l75 -75v-101l-195 -153v-5h197v-86h-333v94z" />
    <glyph glyph-name="threequarters" unicode="&#xbe;" horiz-adv-x="953" 
d="M45 353v63h107v-31l16 -16h96l16 16v52l-14 14h-120v80h120l14 15v49l-16 16h-92l-16 -16v-31h-107v63l73 73h193l73 -73v-105l-31 -31l31 -31v-107l-73 -73h-197zM749 70h-209v95l190 255h127v-259h51v-91h-51v-70h-108v70zM758 156v156h-2l-107 -146v-10h109zM769 700
l-401 -700h-117l401 700h117z" />
    <glyph glyph-name="questiondown" unicode="&#xbf;" horiz-adv-x="552" 
d="M350 460v-53l-38 -38h-58l-38 38v53l38 38h58zM339 184l-180 -174v-56l57 -57h139l53 53v51h114v-86l-117 -117h-239l-121 121v124l182 176v98h112v-133z" />
    <glyph glyph-name="Agrave" unicode="&#xc0;" horiz-adv-x="637" 
d="M264 700h110l253 -700h-118l-60 166h-261l-60 -166h-118zM422 263l-103 296h-2l-101 -296h206zM167 916h121l76 -165h-101z" />
    <glyph glyph-name="Aacute" unicode="&#xc1;" horiz-adv-x="637" 
d="M264 700h110l253 -700h-118l-60 166h-261l-60 -166h-118zM422 263l-103 296h-2l-101 -296h206zM344 916h121l-96 -165h-101z" />
    <glyph glyph-name="Acircumflex" unicode="&#xc2;" horiz-adv-x="637" 
d="M264 700h110l253 -700h-118l-60 166h-261l-60 -166h-118zM422 263l-103 296h-2l-101 -296h206zM271 905h96l129 -154h-109l-65 80h-6l-65 -80h-109z" />
    <glyph glyph-name="Atilde" unicode="&#xc3;" horiz-adv-x="637" 
d="M264 700h110l253 -700h-118l-60 166h-261l-60 -166h-118zM422 263l-103 296h-2l-101 -296h206zM276 813h-20l-15 -14v-31l-84 -1v63l64 63h77l64 -52h21l14 14v32h84v-62l-64 -64h-77z" />
    <glyph glyph-name="Adieresis" unicode="&#xc4;" horiz-adv-x="637" 
d="M264 700h110l253 -700h-118l-60 166h-261l-60 -166h-118zM422 263l-103 296h-2l-101 -296h206zM148 794v54l35 35h60l34 -36v-52l-34 -36h-60zM361 795v52l34 36h60l35 -35v-54l-35 -35h-60z" />
    <glyph glyph-name="Aring" unicode="&#xc5;" horiz-adv-x="637" 
d="M264 700h110l253 -700h-118l-60 166h-261l-60 -166h-118zM422 263l-103 296h-2l-101 -296h206zM203 813v93l65 65h102l65 -65v-93l-65 -65h-102zM341 815l25 24v41l-25 25h-44l-25 -25v-41l25 -24h44z" />
    <glyph glyph-name="AE" unicode="&#xc6;" horiz-adv-x="946" 
d="M548 599v-198h329v-100h-329v-200h358v-101h-474v182h-227l-79 -182h-121l312 700h589v-101h-358zM432 281v318h-45l-139 -318h184z" />
    <glyph glyph-name="Ccedilla" unicode="&#xc7;" horiz-adv-x="647" 
d="M496 497v51l-53 52h-210l-57 -56v-388l57 -56h210l53 52v51h116v-92l-111 -111h-132l-16 -41h56l50 -50v-83l-52 -52h-165v66h118l15 15v29l-15 14h-100v34l26 68h-113l-113 113v474l113 113h328l111 -111v-92h-116z" />
    <glyph glyph-name="Egrave" unicode="&#xc8;" horiz-adv-x="598" 
d="M70 700h488v-99h-372v-200h343v-98h-343v-204h372v-99h-488v700zM179 916h121l76 -165h-101z" />
    <glyph glyph-name="Eacute" unicode="&#xc9;" horiz-adv-x="598" 
d="M70 700h488v-99h-372v-200h343v-98h-343v-204h372v-99h-488v700zM345 916h121l-96 -165h-101z" />
    <glyph glyph-name="Ecircumflex" unicode="&#xca;" horiz-adv-x="598" 
d="M70 700h488v-99h-372v-200h343v-98h-343v-204h372v-99h-488v700zM272 905h96l129 -154h-109l-65 80h-6l-65 -80h-109z" />
    <glyph glyph-name="Edieresis" unicode="&#xcb;" horiz-adv-x="598" 
d="M70 700h488v-99h-372v-200h343v-98h-343v-204h372v-99h-488v700zM149 794v54l35 35h60l34 -36v-52l-34 -36h-60zM362 795v52l34 36h60l35 -35v-54l-35 -35h-60z" />
    <glyph glyph-name="Igrave" unicode="&#xcc;" horiz-adv-x="266" 
d="M75 700h116v-700h-116v700zM-19 916h121l76 -165h-101z" />
    <glyph glyph-name="Iacute" unicode="&#xcd;" horiz-adv-x="266" 
d="M75 700h116v-700h-116v700zM158 916h121l-96 -165h-101z" />
    <glyph glyph-name="Icircumflex" unicode="&#xce;" horiz-adv-x="266" 
d="M75 700h116v-700h-116v700zM85 905h96l129 -154h-109l-65 80h-6l-65 -80h-109z" />
    <glyph glyph-name="Idieresis" unicode="&#xcf;" horiz-adv-x="266" 
d="M75 700h116v-700h-116v700zM-38 794v54l35 35h60l34 -36v-52l-34 -36h-60zM175 795v52l34 36h60l35 -35v-54l-35 -35h-60z" />
    <glyph glyph-name="Eth" unicode="&#xd0;" horiz-adv-x="727" 
d="M667 583v-466l-117 -117h-433v301h-102v100h102v299h433zM551 544l-57 56h-261v-199h159v-100h-159v-201h261l57 56v388z" />
    <glyph glyph-name="Ntilde" unicode="&#xd1;" horiz-adv-x="689" 
d="M70 700h106l330 -509h2v509h111v-700h-106l-330 508h-2v-508h-111v700zM302 813h-20l-15 -14v-31l-84 -1v63l64 63h77l64 -52h21l14 14v32h84v-62l-64 -64h-77z" />
    <glyph glyph-name="Ograve" unicode="&#xd2;" horiz-adv-x="692" 
d="M60 113v474l113 113h346l113 -113v-474l-113 -113h-346zM459 100l57 56v388l-57 56h-226l-57 -56v-388l57 -56h226zM194 916h121l76 -165h-101z" />
    <glyph glyph-name="Oacute" unicode="&#xd3;" horiz-adv-x="692" 
d="M60 113v474l113 113h346l113 -113v-474l-113 -113h-346zM459 100l57 56v388l-57 56h-226l-57 -56v-388l57 -56h226zM371 916h121l-96 -165h-101z" />
    <glyph glyph-name="Ocircumflex" unicode="&#xd4;" horiz-adv-x="692" 
d="M60 113v474l113 113h346l113 -113v-474l-113 -113h-346zM459 100l57 56v388l-57 56h-226l-57 -56v-388l57 -56h226zM298 905h96l129 -154h-109l-65 80h-6l-65 -80h-109z" />
    <glyph glyph-name="Otilde" unicode="&#xd5;" horiz-adv-x="692" 
d="M60 113v474l113 113h346l113 -113v-474l-113 -113h-346zM459 100l57 56v388l-57 56h-226l-57 -56v-388l57 -56h226zM303 813h-20l-15 -14v-31l-84 -1v63l64 63h77l64 -52h21l14 14v32h84v-62l-64 -64h-77z" />
    <glyph glyph-name="Odieresis" unicode="&#xd6;" horiz-adv-x="692" 
d="M60 113v474l113 113h346l113 -113v-474l-113 -113h-346zM459 100l57 56v388l-57 56h-226l-57 -56v-388l57 -56h226zM175 794v54l35 35h60l34 -36v-52l-34 -36h-60zM388 795v52l34 36h60l35 -35v-54l-35 -35h-60z" />
    <glyph glyph-name="multiply" unicode="&#xd7;" horiz-adv-x="499" 
d="M320 264l134 -134l-70 -70l-134 134l-135 -134l-70 70l134 134l-134 134l70 70l135 -134l134 134l70 -70z" />
    <glyph glyph-name="Oslash" unicode="&#xd8;" horiz-adv-x="692" 
d="M597 622l35 -35v-474l-113 -113h-346l-26 26l-48 -63h-98l90 119l-31 31v474l113 113h346l22 -22l44 59h98zM176 195l296 392l-13 13h-226l-57 -56v-349zM516 516l-301 -399l18 -17h226l57 56v360z" />
    <glyph glyph-name="Ugrave" unicode="&#xd9;" horiz-adv-x="692" 
d="M70 117v583h116v-544l57 -56h206l57 56v544h116v-583l-117 -117h-318zM205 916h121l76 -165h-101z" />
    <glyph glyph-name="Uacute" unicode="&#xda;" horiz-adv-x="692" 
d="M70 117v583h116v-544l57 -56h206l57 56v544h116v-583l-117 -117h-318zM371 916h121l-96 -165h-101z" />
    <glyph glyph-name="Ucircumflex" unicode="&#xdb;" horiz-adv-x="692" 
d="M70 117v583h116v-544l57 -56h206l57 56v544h116v-583l-117 -117h-318zM298 905h96l129 -154h-109l-65 80h-6l-65 -80h-109z" />
    <glyph glyph-name="Udieresis" unicode="&#xdc;" horiz-adv-x="692" 
d="M70 117v583h116v-544l57 -56h206l57 56v544h116v-583l-117 -117h-318zM175 794v54l35 35h60l34 -36v-52l-34 -36h-60zM388 795v52l34 36h60l35 -35v-54l-35 -35h-60z" />
    <glyph glyph-name="Yacute" unicode="&#xdd;" horiz-adv-x="620" 
d="M252 288l-247 412h127l177 -304h2l177 304h127l-247 -412v-288h-116v288zM335 916h121l-96 -165h-101z" />
    <glyph glyph-name="Thorn" unicode="&#xde;" horiz-adv-x="638" 
d="M598 470v-239l-103 -103h-309v-128h-116v700h116v-128h310zM484 435l-40 39h-258v-248h258l40 39v170z" />
    <glyph glyph-name="germandbls" unicode="&#xdf;" horiz-adv-x="645" 
d="M70 600l98 97h259l98 -97v-117l-82 -96v-25l10 -11h76l91 -91v-167l-93 -93h-179l-93 93v68h112v-38l28 -28h84l28 28v105l-29 29h-78l-70 70v73l82 99v69l-33 33h-163l-33 -33v-568h-113v600z" />
    <glyph glyph-name="agrave" unicode="&#xe0;" horiz-adv-x="567" 
d="M50 89v118l89 88h257v74l-37 37h-157l-37 -37v-32h-111v58l102 103h249l102 -103v-395h-103v77l-80 -77h-185zM313 89l83 80v42h-203l-32 -31v-61l30 -30h122zM148 714h121l76 -165h-101z" />
    <glyph glyph-name="aacute" unicode="&#xe1;" horiz-adv-x="567" 
d="M50 89v118l89 88h257v74l-37 37h-157l-37 -37v-32h-111v58l102 103h249l102 -103v-395h-103v77l-80 -77h-185zM313 89l83 80v42h-203l-32 -31v-61l30 -30h122zM310 714h121l-96 -165h-101z" />
    <glyph glyph-name="acircumflex" unicode="&#xe2;" horiz-adv-x="567" 
d="M50 89v118l89 88h257v74l-37 37h-157l-37 -37v-32h-111v58l102 103h249l102 -103v-395h-103v77l-80 -77h-185zM313 89l83 80v42h-203l-32 -31v-61l30 -30h122zM237 703h96l129 -154h-109l-65 80h-6l-65 -80h-109z" />
    <glyph glyph-name="atilde" unicode="&#xe3;" horiz-adv-x="567" 
d="M50 89v118l89 88h257v74l-37 37h-157l-37 -37v-32h-111v58l102 103h249l102 -103v-395h-103v77l-80 -77h-185zM313 89l83 80v42h-203l-32 -31v-61l30 -30h122zM242 611h-20l-15 -14v-31l-84 -1v63l64 63h77l64 -52h21l14 14v32h84v-62l-64 -64h-77z" />
    <glyph glyph-name="adieresis" unicode="&#xe4;" horiz-adv-x="567" 
d="M50 89v118l89 88h257v74l-37 37h-157l-37 -37v-32h-111v58l102 103h249l102 -103v-395h-103v77l-80 -77h-185zM313 89l83 80v42h-203l-32 -31v-61l30 -30h122zM114 592v54l35 35h60l34 -36v-52l-34 -36h-60zM327 593v52l34 36h60l35 -35v-54l-35 -35h-60z" />
    <glyph glyph-name="aring" unicode="&#xe5;" horiz-adv-x="567" 
d="M50 89v118l89 88h257v74l-37 37h-157l-37 -37v-32h-111v58l102 103h249l102 -103v-395h-103v77l-80 -77h-185zM313 89l83 80v42h-203l-32 -31v-61l30 -30h122zM169 611v93l65 65h102l65 -65v-93l-65 -65h-102zM307 613l25 24v41l-25 25h-44l-25 -25v-41l25 -24h44z" />
    <glyph glyph-name="ae" unicode="&#xe6;" horiz-adv-x="905" 
d="M512 213v-79l39 -39h154l37 37v33h113v-64l-102 -101h-250l-70 71l-71 -71h-223l-89 89v118l89 88h257v74l-37 37h-157l-37 -37v-32h-111v58l102 103h245l55 -54l54 54h242l103 -103v-182h-343zM512 296h231v70l-39 38h-153l-39 -38v-70zM399 211h-206l-32 -31v-61
l30 -30h133l75 75v47z" />
    <glyph glyph-name="ccedilla" unicode="&#xe7;" horiz-adv-x="550" 
d="M402 316v46l-40 39h-154l-40 -39v-226l40 -39h154l40 39v46h113v-82l-99 -100h-91l-16 -41h56l50 -50v-83l-52 -52h-165v66h118l15 15v29l-15 14h-100v34l26 68h-89l-98 99v300l98 99h263l99 -100v-82h-113z" />
    <glyph glyph-name="egrave" unicode="&#xe8;" horiz-adv-x="576" 
d="M55 99v299l99 100h271l101 -100v-186h-358v-80l38 -38h171l36 37v30h112v-64l-97 -97h-275zM413 295v69l-39 40h-167l-39 -40v-69h245zM139 714h121l76 -165h-101z" />
    <glyph glyph-name="eacute" unicode="&#xe9;" horiz-adv-x="576" 
d="M55 99v299l99 100h271l101 -100v-186h-358v-80l38 -38h171l36 37v30h112v-64l-97 -97h-275zM413 295v69l-39 40h-167l-39 -40v-69h245zM316 714h121l-96 -165h-101z" />
    <glyph glyph-name="ecircumflex" unicode="&#xea;" horiz-adv-x="576" 
d="M55 99v299l99 100h271l101 -100v-186h-358v-80l38 -38h171l36 37v30h112v-64l-97 -97h-275zM413 295v69l-39 40h-167l-39 -40v-69h245zM243 703h96l129 -154h-109l-65 80h-6l-65 -80h-109z" />
    <glyph glyph-name="edieresis" unicode="&#xeb;" horiz-adv-x="576" 
d="M55 99v299l99 100h271l101 -100v-186h-358v-80l38 -38h171l36 37v30h112v-64l-97 -97h-275zM413 295v69l-39 40h-167l-39 -40v-69h245zM120 592v54l35 35h60l34 -36v-52l-34 -36h-60zM333 593v52l34 36h60l35 -35v-54l-35 -35h-60z" />
    <glyph glyph-name="igrave" unicode="&#xec;" horiz-adv-x="263" 
d="M75 498h113v-498h-113v498zM-21 714h121l76 -165h-101z" />
    <glyph glyph-name="iacute" unicode="&#xed;" horiz-adv-x="263" 
d="M75 498h113v-498h-113v498zM156 714h121l-96 -165h-101z" />
    <glyph glyph-name="icircumflex" unicode="&#xee;" horiz-adv-x="263" 
d="M75 498h113v-498h-113v498zM83 703h96l129 -154h-109l-65 80h-6l-65 -80h-109z" />
    <glyph glyph-name="idieresis" unicode="&#xef;" horiz-adv-x="263" 
d="M75 498h113v-498h-113v498zM-40 592v54l35 35h60l34 -36v-52l-34 -36h-60zM173 593v52l34 36h60l35 -35v-54l-35 -35h-60z" />
    <glyph glyph-name="eth" unicode="&#xf0;" horiz-adv-x="605" 
d="M489 576l60 -86v-387l-103 -103h-288l-103 103v239l103 103h209l68 -59v87l-36 52l-89 -52l-40 70l83 48l-16 24h-135v85h202l39 -57l87 50l40 -70zM435 271l-85 76h-141l-40 -40v-167l40 -39h186l40 39v131z" />
    <glyph glyph-name="ntilde" unicode="&#xf1;" horiz-adv-x="584" 
d="M65 498h105v-91l91 91h158l105 -105v-393h-113v362l-39 39h-90l-104 -105v-296h-113v498zM255 611h-20l-15 -14v-31l-84 -1v63l64 63h77l64 -52h21l14 14v32h84v-62l-64 -64h-77z" />
    <glyph glyph-name="ograve" unicode="&#xf2;" horiz-adv-x="585" 
d="M55 100v298l99 100h276l100 -100v-298l-100 -100h-276zM377 95l40 40v228l-40 40h-169l-40 -40v-228l40 -40h169zM141 714h121l76 -165h-101z" />
    <glyph glyph-name="oacute" unicode="&#xf3;" horiz-adv-x="585" 
d="M55 100v298l99 100h276l100 -100v-298l-100 -100h-276zM377 95l40 40v228l-40 40h-169l-40 -40v-228l40 -40h169zM318 714h121l-96 -165h-101z" />
    <glyph glyph-name="ocircumflex" unicode="&#xf4;" horiz-adv-x="585" 
d="M55 100v298l99 100h276l100 -100v-298l-100 -100h-276zM377 95l40 40v228l-40 40h-169l-40 -40v-228l40 -40h169zM245 703h96l129 -154h-109l-65 80h-6l-65 -80h-109z" />
    <glyph glyph-name="otilde" unicode="&#xf5;" horiz-adv-x="585" 
d="M55 100v298l99 100h276l100 -100v-298l-100 -100h-276zM377 95l40 40v228l-40 40h-169l-40 -40v-228l40 -40h169zM250 611h-20l-15 -14v-31l-84 -1v63l64 63h77l64 -52h21l14 14v32h84v-62l-64 -64h-77z" />
    <glyph glyph-name="odieresis" unicode="&#xf6;" horiz-adv-x="585" 
d="M55 100v298l99 100h276l100 -100v-298l-100 -100h-276zM377 95l40 40v228l-40 40h-169l-40 -40v-228l40 -40h169zM122 592v54l35 35h60l34 -36v-52l-34 -36h-60zM335 593v52l34 36h60l35 -35v-54l-35 -35h-60z" />
    <glyph glyph-name="divide" unicode="&#xf7;" horiz-adv-x="556" 
d="M213 397v51l37 36h56l37 -36v-51l-37 -37h-56zM45 312h466v-96h-466v96zM213 80v51l36 37h56l37 -37v-51l-37 -36h-56z" />
    <glyph glyph-name="oslash" unicode="&#xf8;" horiz-adv-x="585" 
d="M491 437l39 -39v-298l-100 -100h-276l-2 2l-33 -42h-99l77 98l-42 42v298l99 100h276l5 -5l36 45h98zM168 150l198 253h-158l-40 -40v-213zM417 343l-193 -248h153l40 40v208z" />
    <glyph glyph-name="ugrave" unicode="&#xf9;" horiz-adv-x="583" 
d="M60 101v397h113v-362l39 -39h87l106 106v295h113v-498h-105v92l-93 -92h-159zM139 714h121l76 -165h-101z" />
    <glyph glyph-name="uacute" unicode="&#xfa;" horiz-adv-x="583" 
d="M60 101v397h113v-362l39 -39h87l106 106v295h113v-498h-105v92l-93 -92h-159zM315 714h121l-96 -165h-101z" />
    <glyph glyph-name="ucircumflex" unicode="&#xfb;" horiz-adv-x="583" 
d="M60 101v397h113v-362l39 -39h87l106 106v295h113v-498h-105v92l-93 -92h-159zM242 703h96l129 -154h-109l-65 80h-6l-65 -80h-109z" />
    <glyph glyph-name="udieresis" unicode="&#xfc;" horiz-adv-x="583" 
d="M60 101v397h113v-362l39 -39h87l106 106v295h113v-498h-105v92l-93 -92h-159zM119 592v54l35 35h60l34 -36v-52l-34 -36h-60zM332 593v52l34 36h60l35 -35v-54l-35 -35h-60z" />
    <glyph glyph-name="yacute" unicode="&#xfd;" horiz-adv-x="585" 
d="M520 498v-616l-103 -102h-254l-88 87v66h113v-33l24 -25h156l39 40v170l-84 -85h-161l-102 103v395h113v-362l39 -39h91l104 108v293h113zM316 714h121l-96 -165h-101z" />
    <glyph glyph-name="thorn" unicode="&#xfe;" horiz-adv-x="595" 
d="M65 710h112v-282l72 70h191l100 -100v-298l-100 -100h-192l-70 59v-271h-113v922zM387 97l40 39v226l-40 39h-120l-89 -89v-139l84 -76h125z" />
    <glyph glyph-name="ydieresis" unicode="&#xff;" horiz-adv-x="585" 
d="M520 498v-616l-103 -102h-254l-88 87v66h113v-33l24 -25h156l39 40v170l-84 -85h-161l-102 103v395h113v-362l39 -39h91l104 108v293h113zM120 592v54l35 35h60l34 -36v-52l-34 -36h-60zM333 593v52l34 36h60l35 -35v-54l-35 -35h-60z" />
    <glyph glyph-name="Amacron" unicode="&#x100;" horiz-adv-x="637" 
d="M264 700h110l253 -700h-118l-60 166h-261l-60 -166h-118zM422 263l-103 296h-2l-101 -296h206zM159 855h320v-90h-320v90z" />
    <glyph glyph-name="amacron" unicode="&#x101;" horiz-adv-x="567" 
d="M50 89v118l89 88h257v74l-37 37h-157l-37 -37v-32h-111v58l102 103h249l102 -103v-395h-103v77l-80 -77h-185zM313 89l83 80v42h-203l-32 -31v-61l30 -30h122zM125 653h320v-90h-320v90z" />
    <glyph glyph-name="Abreve" unicode="&#x102;" horiz-adv-x="637" 
d="M264 700h110l253 -700h-118l-60 166h-261l-60 -166h-118zM422 263l-103 296h-2l-101 -296h206zM161 831v70h95v-45l30 -31h66l30 31v45h95v-70l-79 -80h-158z" />
    <glyph glyph-name="abreve" unicode="&#x103;" horiz-adv-x="567" 
d="M50 89v118l89 88h257v74l-37 37h-157l-37 -37v-32h-111v58l102 103h249l102 -103v-395h-103v77l-80 -77h-185zM313 89l83 80v42h-203l-32 -31v-61l30 -30h122zM127 629v70h95v-45l30 -31h66l30 31v45h95v-70l-79 -80h-158z" />
    <glyph glyph-name="Aogonek" unicode="&#x104;" horiz-adv-x="637" 
d="M264 700h110l253 -700h-118l-60 166h-261l-60 -166h-118zM422 263l-103 296h-2l-101 -296h206zM461 -150v80l65 70h102l-70 -77v-36l21 -21h82v-78h-138z" />
    <glyph glyph-name="aogonek" unicode="&#x105;" horiz-adv-x="567" 
d="M50 89v118l89 88h257v74l-37 37h-157l-37 -37v-32h-111v58l102 103h249l102 -103v-395h-103v77l-80 -77h-185zM313 89l83 80v42h-203l-32 -31v-61l30 -30h122zM340 -150v80l65 70h102l-70 -77v-36l21 -21h82v-78h-138z" />
    <glyph glyph-name="Cacute" unicode="&#x106;" horiz-adv-x="647" 
d="M60 113v474l113 113h328l111 -111v-92h-116v51l-53 52h-210l-57 -56v-388l57 -56h210l53 52v51h116v-92l-111 -111h-328zM363 916h121l-96 -165h-101z" />
    <glyph glyph-name="cacute" unicode="&#x107;" horiz-adv-x="550" 
d="M55 99v300l98 99h263l99 -100v-82h-113v46l-40 39h-154l-40 -39v-226l40 -39h154l40 39v46h113v-82l-99 -100h-263zM309 714h121l-96 -165h-101z" />
    <glyph glyph-name="Ccircumflex" unicode="&#x108;" horiz-adv-x="647" 
d="M60 113v474l113 113h328l111 -111v-92h-116v51l-53 52h-210l-57 -56v-388l57 -56h210l53 52v51h116v-92l-111 -111h-328zM290 905h96l129 -154h-109l-65 80h-6l-65 -80h-109z" />
    <glyph glyph-name="ccircumflex" unicode="&#x109;" horiz-adv-x="550" 
d="M55 99v300l98 99h263l99 -100v-82h-113v46l-40 39h-154l-40 -39v-226l40 -39h154l40 39v46h113v-82l-99 -100h-263zM236 703h96l129 -154h-109l-65 80h-6l-65 -80h-109z" />
    <glyph glyph-name="Cdotaccent" unicode="&#x10a;" horiz-adv-x="647" 
d="M60 113v474l113 113h328l111 -111v-92h-116v51l-53 52h-210l-57 -56v-388l57 -56h210l53 52v51h116v-92l-111 -111h-328zM271 793v56l36 36h62l36 -36v-56l-36 -36h-62z" />
    <glyph glyph-name="cdotaccent" unicode="&#x10b;" horiz-adv-x="550" 
d="M55 99v300l98 99h263l99 -100v-82h-113v46l-40 39h-154l-40 -39v-226l40 -39h154l40 39v46h113v-82l-99 -100h-263zM217 591v56l36 36h62l36 -36v-56l-36 -36h-62z" />
    <glyph glyph-name="Ccaron" unicode="&#x10c;" horiz-adv-x="647" 
d="M60 113v474l113 113h328l111 -111v-92h-116v51l-53 52h-210l-57 -56v-388l57 -56h210l53 52v51h116v-92l-111 -111h-328zM161 905h109l65 -80h6l65 80h109l-129 -154h-96z" />
    <glyph glyph-name="ccaron" unicode="&#x10d;" horiz-adv-x="550" 
d="M55 99v300l98 99h263l99 -100v-82h-113v46l-40 39h-154l-40 -39v-226l40 -39h154l40 39v46h113v-82l-99 -100h-263zM107 703h109l65 -80h6l65 80h109l-129 -154h-96z" />
    <glyph glyph-name="Dcaron" unicode="&#x10e;" horiz-adv-x="680" 
d="M70 700h433l117 -117v-466l-117 -117h-433v700zM447 100l57 56v388l-57 56h-261v-500h261zM157 905h109l65 -80h6l65 80h109l-129 -154h-96z" />
    <glyph glyph-name="dcaron" unicode="&#x10f;" horiz-adv-x="771" 
d="M55 100v298l99 100h196l67 -58v274h113v-714h-107v82l-82 -82h-187zM328 97l89 90v146l-77 68h-130l-42 -42v-220l42 -42h118zM662 586h-19l-38 38v58l38 38h65l37 -39v-95l-54 -131h-66z" />
    <glyph glyph-name="Dcroat" unicode="&#x110;" horiz-adv-x="727" 
d="M667 583v-466l-117 -117h-433v301h-102v100h102v299h433zM551 544l-57 56h-261v-199h159v-100h-159v-201h261l57 56v388z" />
    <glyph glyph-name="dcroat" unicode="&#x111;" horiz-adv-x="612" 
d="M612 557h-82v-557h-107v82l-82 -82h-187l-99 100v298l99 100h196l67 -58v117h-147v83h147v74h113v-74h82v-83zM417 333l-77 68h-130l-42 -42v-220l42 -42h118l89 90v146z" />
    <glyph glyph-name="Emacron" unicode="&#x112;" horiz-adv-x="598" 
d="M70 700h488v-99h-372v-200h343v-98h-343v-204h372v-99h-488v700zM160 855h320v-90h-320v90z" />
    <glyph glyph-name="emacron" unicode="&#x113;" horiz-adv-x="576" 
d="M55 99v299l99 100h271l101 -100v-186h-358v-80l38 -38h171l36 37v30h112v-64l-97 -97h-275zM413 295v69l-39 40h-167l-39 -40v-69h245zM131 653h320v-90h-320v90z" />
    <glyph glyph-name="Ebreve" unicode="&#x114;" horiz-adv-x="598" 
d="M70 700h488v-99h-372v-200h343v-98h-343v-204h372v-99h-488v700zM162 831v70h95v-45l30 -31h66l30 31v45h95v-70l-79 -80h-158z" />
    <glyph glyph-name="ebreve" unicode="&#x115;" horiz-adv-x="576" 
d="M55 99v299l99 100h271l101 -100v-186h-358v-80l38 -38h171l36 37v30h112v-64l-97 -97h-275zM413 295v69l-39 40h-167l-39 -40v-69h245zM133 629v70h95v-45l30 -31h66l30 31v45h95v-70l-79 -80h-158z" />
    <glyph glyph-name="Edotaccent" unicode="&#x116;" horiz-adv-x="598" 
d="M70 700h488v-99h-372v-200h343v-98h-343v-204h372v-99h-488v700zM253 793v56l36 36h62l36 -36v-56l-36 -36h-62z" />
    <glyph glyph-name="edotaccent" unicode="&#x117;" horiz-adv-x="576" 
d="M55 99v299l99 100h271l101 -100v-186h-358v-80l38 -38h171l36 37v30h112v-64l-97 -97h-275zM413 295v69l-39 40h-167l-39 -40v-69h245zM224 591v56l36 36h62l36 -36v-56l-36 -36h-62z" />
    <glyph glyph-name="Eogonek" unicode="&#x118;" horiz-adv-x="598" 
d="M70 700h488v-99h-372v-200h343v-98h-343v-204h372v-99h-488v700zM391 -150v80l65 70h102l-70 -77v-36l21 -21h82v-78h-138z" />
    <glyph glyph-name="eogonek" unicode="&#x119;" horiz-adv-x="576" 
d="M55 99v299l99 100h271l101 -100v-186h-358v-80l38 -38h171l36 37v30h112v-64l-97 -97h-275zM413 295v69l-39 40h-167l-39 -40v-69h245zM261 -150v80l65 70h102l-70 -77v-36l21 -21h82v-78h-138z" />
    <glyph glyph-name="Ecaron" unicode="&#x11a;" horiz-adv-x="598" 
d="M70 700h488v-99h-372v-200h343v-98h-343v-204h372v-99h-488v700zM143 905h109l65 -80h6l65 80h109l-129 -154h-96z" />
    <glyph glyph-name="ecaron" unicode="&#x11b;" horiz-adv-x="576" 
d="M55 99v299l99 100h271l101 -100v-186h-358v-80l38 -38h171l36 37v30h112v-64l-97 -97h-275zM413 295v69l-39 40h-167l-39 -40v-69h245zM114 703h109l65 -80h6l65 80h109l-129 -154h-96z" />
    <glyph glyph-name="Gcircumflex" unicode="&#x11c;" horiz-adv-x="668" 
d="M60 113v474l113 113h334l111 -111v-92h-116v51l-53 52h-216l-57 -56v-388l57 -56h216l56 55v127h-153v100h266v-269l-113 -113h-332zM290 905h96l129 -154h-109l-65 80h-6l-65 -80h-109z" />
    <glyph glyph-name="gcircumflex" unicode="&#x11d;" horiz-adv-x="595" 
d="M530 498v-616l-103 -102h-263l-87 87v66h112v-33l25 -25h164l39 40v156l-77 -71h-186l-99 100v298l99 100h194l76 -74v74h106zM417 326l-80 75h-127l-42 -42v-220l42 -42h118l89 87v142zM247 703h96l129 -154h-109l-65 80h-6l-65 -80h-109z" />
    <glyph glyph-name="Gbreve" unicode="&#x11e;" horiz-adv-x="668" 
d="M60 113v474l113 113h334l111 -111v-92h-116v51l-53 52h-216l-57 -56v-388l57 -56h216l56 55v127h-153v100h266v-269l-113 -113h-332zM180 831v70h95v-45l30 -31h66l30 31v45h95v-70l-79 -80h-158z" />
    <glyph glyph-name="gbreve" unicode="&#x11f;" horiz-adv-x="595" 
d="M530 498v-616l-103 -102h-263l-87 87v66h112v-33l25 -25h164l39 40v156l-77 -71h-186l-99 100v298l99 100h194l76 -74v74h106zM417 326l-80 75h-127l-42 -42v-220l42 -42h118l89 87v142zM137 629v70h95v-45l30 -31h66l30 31v45h95v-70l-79 -80h-158z" />
    <glyph glyph-name="Gdotaccent" unicode="&#x120;" horiz-adv-x="668" 
d="M60 113v474l113 113h334l111 -111v-92h-116v51l-53 52h-216l-57 -56v-388l57 -56h216l56 55v127h-153v100h266v-269l-113 -113h-332zM271 793v56l36 36h62l36 -36v-56l-36 -36h-62z" />
    <glyph glyph-name="gdotaccent" unicode="&#x121;" horiz-adv-x="595" 
d="M530 498v-616l-103 -102h-263l-87 87v66h112v-33l25 -25h164l39 40v156l-77 -71h-186l-99 100v298l99 100h194l76 -74v74h106zM417 326l-80 75h-127l-42 -42v-220l42 -42h118l89 87v142zM228 591v56l36 36h62l36 -36v-56l-36 -36h-62z" />
    <glyph glyph-name="uni0122" unicode="&#x122;" horiz-adv-x="668" 
d="M60 113v474l113 113h334l111 -111v-92h-116v51l-53 52h-216l-57 -56v-388l57 -56h216l56 55v127h-153v100h266v-269l-113 -113h-332zM328 -196h-19l-38 38v58l38 38h65l37 -39v-95l-54 -131h-66z" />
    <glyph glyph-name="uni0123" unicode="&#x123;" horiz-adv-x="595" 
d="M530 498v-616l-103 -102h-263l-87 87v66h112v-33l25 -25h164l39 40v156l-77 -71h-186l-99 100v298l99 100h194l76 -74v74h106zM417 326l-80 75h-127l-42 -42v-220l42 -42h118l89 87v142zM308 675h19l38 -38v-57l-38 -39h-65l-38 39v95l55 131h66z" />
    <glyph glyph-name="Hcircumflex" unicode="&#x124;" horiz-adv-x="690" 
d="M70 700h116v-301h318v301h116v-700h-116v299h-318v-299h-116v700zM297 905h96l129 -154h-109l-65 80h-6l-65 -80h-109z" />
    <glyph glyph-name="hcircumflex" unicode="&#x125;" horiz-adv-x="586" 
d="M65 714h113v-302l86 86h157l105 -105v-393h-113v362l-39 39h-92l-104 -105v-296h-113v714zM250 908h96l129 -154h-109l-65 80h-6l-65 -80h-109z" />
    <glyph glyph-name="Hbar" unicode="&#x126;" horiz-adv-x="766" 
d="M751 499h-93v-499h-116v299h-318v-299h-116v499h-93v87h93v114h116v-114h318v114h116v-114h93v-87zM542 499h-318v-100h318v100z" />
    <glyph glyph-name="hbar" unicode="&#x127;" horiz-adv-x="611" 
d="M551 393v-393h-113v362l-39 39h-92l-104 -105v-296h-113v559h-90v82h90v73h113v-73h114v-82h-114v-147l86 86h157z" />
    <glyph glyph-name="Itilde" unicode="&#x128;" horiz-adv-x="266" 
d="M75 700h116v-700h-116v700zM90 813h-20l-15 -14v-31l-84 -1v63l64 63h77l64 -52h21l14 14v32h84v-62l-64 -64h-77z" />
    <glyph glyph-name="itilde" unicode="&#x129;" horiz-adv-x="263" 
d="M75 498h113v-498h-113v498zM88 611h-20l-15 -14v-31l-84 -1v63l64 63h77l64 -52h21l14 14v32h84v-62l-64 -64h-77z" />
    <glyph glyph-name="Imacron" unicode="&#x12a;" horiz-adv-x="266" 
d="M75 700h116v-700h-116v700zM-27 855h320v-90h-320v90z" />
    <glyph glyph-name="imacron" unicode="&#x12b;" horiz-adv-x="263" 
d="M75 498h113v-498h-113v498zM-29 653h320v-90h-320v90z" />
    <glyph glyph-name="Ibreve" unicode="&#x12c;" horiz-adv-x="266" 
d="M75 700h116v-700h-116v700zM-25 831v70h95v-45l30 -31h66l30 31v45h95v-70l-79 -80h-158z" />
    <glyph glyph-name="ibreve" unicode="&#x12d;" horiz-adv-x="263" 
d="M75 498h113v-498h-113v498zM-27 629v70h95v-45l30 -31h66l30 31v45h95v-70l-79 -80h-158z" />
    <glyph glyph-name="Iogonek" unicode="&#x12e;" horiz-adv-x="266" 
d="M75 700h116v-700h-116v700zM24 -150v80l65 70h102l-70 -77v-36l21 -21h82v-78h-138z" />
    <glyph glyph-name="iogonek" unicode="&#x12f;" horiz-adv-x="263" 
d="M60 605v58l41 40h61l41 -40v-58l-41 -40h-61zM75 498h113v-498h-113v498zM21 -150v80l65 70h102l-70 -77v-36l21 -21h82v-78h-138z" />
    <glyph glyph-name="Idotaccent" unicode="&#x130;" horiz-adv-x="266" 
d="M75 700h116v-700h-116v700zM66 793v56l36 36h62l36 -36v-56l-36 -36h-62z" />
    <glyph glyph-name="dotlessi" unicode="&#x131;" horiz-adv-x="263" 
d="M75 498h113v-498h-113v498z" />
    <glyph glyph-name="IJ" unicode="&#x132;" horiz-adv-x="808" 
d="M75 700h116v-700h-116v700zM261 117v120h113v-81l56 -56h146l51 50v550h116v-589l-111 -111h-254z" />
    <glyph glyph-name="ij" unicode="&#x133;" horiz-adv-x="514" 
d="M60 605v58l41 40h61l41 -40v-58l-41 -40h-61zM75 498h113v-498h-113v498zM312 605v58l41 40h61l41 -40v-58l-41 -40h-61zM177 -121h110l40 39v580h113v-614l-102 -102h-161v97z" />
    <glyph glyph-name="Jcircumflex" unicode="&#x134;" horiz-adv-x="572" 
d="M25 117v120h113v-81l56 -56h146l51 50v550h116v-589l-111 -111h-254zM399 905h96l129 -154h-109l-65 80h-6l-65 -80h-109z" />
    <glyph glyph-name="jcircumflex" unicode="&#x135;" horiz-adv-x="276" 
d="M-62 -120h110l40 40v578h113v-614l-102 -102h-161v98zM97 703h96l129 -154h-109l-65 80h-6l-65 -80h-109z" />
    <glyph glyph-name="uni0136" unicode="&#x136;" horiz-adv-x="640" 
d="M70 700h116v-301h125l173 301h129l-203 -349l220 -351h-132l-187 299h-125v-299h-116v700zM317 -196h-19l-38 38v58l38 38h65l37 -39v-95l-54 -131h-66z" />
    <glyph glyph-name="uni0137" unicode="&#x137;" horiz-adv-x="553" 
d="M65 714h113v-407h97l133 191h125l-167 -240l177 -258h-125l-145 211h-95v-211h-113v714zM274 -196h-19l-38 38v58l38 38h65l37 -39v-95l-54 -131h-66z" />
    <glyph glyph-name="kgreenlandic" unicode="&#x138;" horiz-adv-x="585" 
d="M65 498h116v-199h116l130 199h131l-165 -249l182 -249h-133l-144 197h-117v-197h-116v498z" />
    <glyph glyph-name="Lacute" unicode="&#x139;" horiz-adv-x="553" 
d="M70 700h116v-601h352v-99h-468v700zM153 916h121l-96 -165h-101z" />
    <glyph glyph-name="lacute" unicode="&#x13a;" horiz-adv-x="253" 
d="M70 714h113v-714h-113v714zM151 940h121l-96 -165h-101z" />
    <glyph glyph-name="uni013B" unicode="&#x13b;" horiz-adv-x="553" 
d="M70 700h116v-601h352v-99h-468v700zM294 -196h-19l-38 38v58l38 38h65l37 -39v-95l-54 -131h-66z" />
    <glyph glyph-name="uni013C" unicode="&#x13c;" horiz-adv-x="253" 
d="M104 -196h-19l-38 38v58l38 38h65l37 -39v-95l-54 -131h-66zM70 714h113v-714h-113v714z" />
    <glyph glyph-name="Lcaron" unicode="&#x13d;" horiz-adv-x="616" 
d="M70 700h116v-601h352v-99h-468v700zM508 577h-19l-38 38v58l38 38h65l37 -39v-95l-54 -131h-66z" />
    <glyph glyph-name="lcaron" unicode="&#x13e;" horiz-adv-x="421" 
d="M70 714h113v-714h-113v714zM312 577h-19l-38 38v58l38 38h65l37 -39v-95l-54 -131h-66z" />
    <glyph glyph-name="Ldot" unicode="&#x13f;" horiz-adv-x="563" 
d="M70 700h116v-601h352v-99h-468v700zM367 272v58l38 38h64l37 -39v-56l-37 -39h-64z" />
    <glyph glyph-name="ldot" unicode="&#x140;" horiz-adv-x="417" 
d="M70 714h113v-714h-113v714zM265 227v58l38 38h64l37 -39v-56l-37 -39h-64z" />
    <glyph glyph-name="Lslash" unicode="&#x141;" horiz-adv-x="585" 
d="M570 99v-99h-468v246l-97 -60v101l97 60v353h116v-282l130 80v-101l-130 -80v-218h352z" />
    <glyph glyph-name="lslash" unicode="&#x142;" horiz-adv-x="323" 
d="M318 399l-100 -68v-331h-113v254l-100 -68v101l100 68v359h113v-281l100 68v-102z" />
    <glyph glyph-name="Nacute" unicode="&#x143;" horiz-adv-x="689" 
d="M70 700h106l330 -509h2v509h111v-700h-106l-330 508h-2v-508h-111v700zM370 916h121l-96 -165h-101z" />
    <glyph glyph-name="nacute" unicode="&#x144;" horiz-adv-x="584" 
d="M65 498h105v-91l91 91h158l105 -105v-393h-113v362l-39 39h-90l-104 -105v-296h-113v498zM323 714h121l-96 -165h-101z" />
    <glyph glyph-name="uni0145" unicode="&#x145;" horiz-adv-x="689" 
d="M70 700h106l330 -509h2v509h111v-700h-106l-330 508h-2v-508h-111v700zM333 -196h-19l-38 38v58l38 38h65l37 -39v-95l-54 -131h-66z" />
    <glyph glyph-name="uni0146" unicode="&#x146;" horiz-adv-x="584" 
d="M65 498h105v-91l91 91h158l105 -105v-393h-113v362l-39 39h-90l-104 -105v-296h-113v498zM283 -196h-19l-38 38v58l38 38h65l37 -39v-95l-54 -131h-66z" />
    <glyph glyph-name="Ncaron" unicode="&#x147;" horiz-adv-x="689" 
d="M70 700h106l330 -509h2v509h111v-700h-106l-330 508h-2v-508h-111v700zM168 905h109l65 -80h6l65 80h109l-129 -154h-96z" />
    <glyph glyph-name="ncaron" unicode="&#x148;" horiz-adv-x="584" 
d="M65 498h105v-91l91 91h158l105 -105v-393h-113v362l-39 39h-90l-104 -105v-296h-113v498zM121 703h109l65 -80h6l65 80h109l-129 -154h-96z" />
    <glyph glyph-name="napostrophe" unicode="&#x149;" horiz-adv-x="744" 
d="M225 498h105v-91l91 91h158l105 -105v-393h-113v362l-39 39h-90l-104 -105v-296h-113v498zM100 524h-19l-38 38v58l38 38h65l37 -39v-95l-54 -131h-66z" />
    <glyph glyph-name="Eng" unicode="&#x14a;" horiz-adv-x="692" 
d="M622 700v-816l-102 -102h-160v98h110l40 40v89l-327 499h-2v-508h-111v700h106l333 -509h2v509h111z" />
    <glyph glyph-name="eng" unicode="&#x14b;" horiz-adv-x="588" 
d="M528 395v-511l-102 -102h-161v98h110l40 40v440l-40 40h-91l-106 -107v-293h-113v498h107v-87l87 87h166z" />
    <glyph glyph-name="Omacron" unicode="&#x14c;" horiz-adv-x="692" 
d="M60 113v474l113 113h346l113 -113v-474l-113 -113h-346zM459 100l57 56v388l-57 56h-226l-57 -56v-388l57 -56h226zM186 855h320v-90h-320v90z" />
    <glyph glyph-name="omacron" unicode="&#x14d;" horiz-adv-x="585" 
d="M55 100v298l99 100h276l100 -100v-298l-100 -100h-276zM377 95l40 40v228l-40 40h-169l-40 -40v-228l40 -40h169zM133 653h320v-90h-320v90z" />
    <glyph glyph-name="Obreve" unicode="&#x14e;" horiz-adv-x="692" 
d="M60 113v474l113 113h346l113 -113v-474l-113 -113h-346zM459 100l57 56v388l-57 56h-226l-57 -56v-388l57 -56h226zM188 831v70h95v-45l30 -31h66l30 31v45h95v-70l-79 -80h-158z" />
    <glyph glyph-name="obreve" unicode="&#x14f;" horiz-adv-x="585" 
d="M55 100v298l99 100h276l100 -100v-298l-100 -100h-276zM377 95l40 40v228l-40 40h-169l-40 -40v-228l40 -40h169zM135 629v70h95v-45l30 -31h66l30 31v45h95v-70l-79 -80h-158z" />
    <glyph glyph-name="Ohungarumlaut" unicode="&#x150;" horiz-adv-x="692" 
d="M60 113v474l113 113h346l113 -113v-474l-113 -113h-346zM459 100l57 56v388l-57 56h-226l-57 -56v-388l57 -56h226zM279 916h115l-93 -165h-95zM444 916h115l-94 -165h-95z" />
    <glyph glyph-name="ohungarumlaut" unicode="&#x151;" horiz-adv-x="585" 
d="M55 100v298l99 100h276l100 -100v-298l-100 -100h-276zM377 95l40 40v228l-40 40h-169l-40 -40v-228l40 -40h169zM226 714h115l-93 -165h-95zM391 714h115l-94 -165h-95z" />
    <glyph glyph-name="OE" unicode="&#x152;" horiz-adv-x="1042" 
d="M632 599v-198h341v-100h-341v-200h370v-101h-456v64l-64 -64h-309l-113 113v474l113 113h312l61 -61v61h456v-101h-370zM516 540l-60 60h-223l-57 -56v-388l57 -56h223l60 60v380z" />
    <glyph glyph-name="oe" unicode="&#x153;" horiz-adv-x="931" 
d="M528 213v-79l39 -39h163l37 37v33h113v-64l-101 -101h-259l-50 51l-51 -51h-265l-99 100v298l99 100h265l51 -50l50 50h257l104 -103v-182h-353zM567 404l-39 -38v-70h240v70l-39 38h-162zM377 95l40 40v228l-40 40h-169l-40 -40v-228l40 -40h169z" />
    <glyph glyph-name="Racute" unicode="&#x154;" horiz-adv-x="667" 
d="M602 226v-226h-116v198l-72 79h-228v-277h-116v700h426l102 -103v-215l-73 -73zM186 373h258l40 40v149l-40 40h-258v-229zM349 916h121l-96 -165h-101z" />
    <glyph glyph-name="racute" unicode="&#x155;" horiz-adv-x="401" 
d="M65 498h105v-85l83 85h138v-97h-113l-100 -102v-299h-113v498zM249 714h121l-96 -165h-101z" />
    <glyph glyph-name="uni0156" unicode="&#x156;" horiz-adv-x="667" 
d="M602 226v-226h-116v198l-72 79h-228v-277h-116v700h426l102 -103v-215l-73 -73zM186 373h258l40 40v149l-40 40h-258v-229zM320 -196h-19l-38 38v58l38 38h65l37 -39v-95l-54 -131h-66z" />
    <glyph glyph-name="uni0157" unicode="&#x157;" horiz-adv-x="401" 
d="M65 498h105v-85l83 85h138v-97h-113l-100 -102v-299h-113v498zM109 -196h-19l-38 38v58l38 38h65l37 -39v-95l-54 -131h-66z" />
    <glyph glyph-name="Rcaron" unicode="&#x158;" horiz-adv-x="667" 
d="M602 226v-226h-116v198l-72 79h-228v-277h-116v700h426l102 -103v-215l-73 -73zM186 373h258l40 40v149l-40 40h-258v-229zM147 905h109l65 -80h6l65 80h109l-129 -154h-96z" />
    <glyph glyph-name="rcaron" unicode="&#x159;" horiz-adv-x="401" 
d="M65 498h105v-85l83 85h138v-97h-113l-100 -102v-299h-113v498zM47 703h109l65 -80h6l65 80h109l-129 -154h-96z" />
    <glyph glyph-name="Sacute" unicode="&#x15a;" horiz-adv-x="629" 
d="M55 103v88h114v-53l38 -38h218l40 40v129l-39 39h-266l-103 102v187l103 103h308l103 -103v-89h-114v54l-39 38h-208l-39 -38v-116l39 -38h266l103 -103v-200l-105 -105h-316zM339 916h121l-96 -165h-101z" />
    <glyph glyph-name="sacute" unicode="&#x15b;" horiz-adv-x="528" 
d="M40 93v61h111v-32l28 -29h170l28 29v54l-29 29h-215l-89 90v112l91 91h251l92 -93v-61h-111v32l-28 29h-156l-28 -29v-50l29 -29h214l90 -91v-115l-91 -91h-265zM285 714h121l-96 -165h-101z" />
    <glyph glyph-name="Scircumflex" unicode="&#x15c;" horiz-adv-x="629" 
d="M55 103v88h114v-53l38 -38h218l40 40v129l-39 39h-266l-103 102v187l103 103h308l103 -103v-89h-114v54l-39 38h-208l-39 -38v-116l39 -38h266l103 -103v-200l-105 -105h-316zM266 905h96l129 -154h-109l-65 80h-6l-65 -80h-109z" />
    <glyph glyph-name="scircumflex" unicode="&#x15d;" horiz-adv-x="528" 
d="M40 93v61h111v-32l28 -29h170l28 29v54l-29 29h-215l-89 90v112l91 91h251l92 -93v-61h-111v32l-28 29h-156l-28 -29v-50l29 -29h214l90 -91v-115l-91 -91h-265zM212 703h96l129 -154h-109l-65 80h-6l-65 -80h-109z" />
    <glyph glyph-name="Scedilla" unicode="&#x15e;" horiz-adv-x="629" 
d="M579 305v-200l-105 -105h-119l-16 -41h56l50 -50v-83l-52 -52h-165v66h118l15 15v29l-15 14h-100v34l26 68h-114l-103 103v88h114v-53l38 -38h218l40 40v129l-39 39h-266l-103 102v187l103 103h308l103 -103v-89h-114v54l-39 38h-208l-39 -38v-116l39 -38h266z" />
    <glyph glyph-name="scedilla" unicode="&#x15f;" horiz-adv-x="528" 
d="M488 206v-115l-91 -91h-90l-16 -41h56l50 -50v-83l-52 -52h-165v66h119l14 15v29l-14 14h-100v34l26 68h-93l-92 93v61h111v-32l28 -29h170l28 29v54l-29 29h-215l-89 90v112l91 91h251l92 -93v-61h-111v32l-28 29h-156l-28 -29v-50l29 -29h214z" />
    <glyph glyph-name="Scaron" unicode="&#x160;" horiz-adv-x="629" 
d="M55 103v88h114v-53l38 -38h218l40 40v129l-39 39h-266l-103 102v187l103 103h308l103 -103v-89h-114v54l-39 38h-208l-39 -38v-116l39 -38h266l103 -103v-200l-105 -105h-316zM137 905h109l65 -80h6l65 80h109l-129 -154h-96z" />
    <glyph glyph-name="scaron" unicode="&#x161;" horiz-adv-x="528" 
d="M40 93v61h111v-32l28 -29h170l28 29v54l-29 29h-215l-89 90v112l91 91h251l92 -93v-61h-111v32l-28 29h-156l-28 -29v-50l29 -29h214l90 -91v-115l-91 -91h-265zM83 703h109l65 -80h6l65 80h109l-129 -154h-96z" />
    <glyph glyph-name="uni0162" unicode="&#x162;" horiz-adv-x="576" 
d="M230 601h-210v99h536v-99h-210v-601h-116v601zM185 -206h118l15 15v29l-15 14h-100v34l44 114h84l-35 -87h55l50 -50v-83l-52 -52h-164v66z" />
    <glyph glyph-name="uni0163" unicode="&#x163;" horiz-adv-x="406" 
d="M223 402v-267l39 -39h114v-96h-111l-16 -41h56l50 -50v-83l-52 -52h-165v66h118l15 15v29l-15 14h-100v34l34 87l-80 80v303h-90v96h92v162h111v-162h153v-96h-153z" />
    <glyph glyph-name="Tcaron" unicode="&#x164;" horiz-adv-x="576" 
d="M230 601h-210v99h536v-99h-210v-601h-116v601zM111 905h109l65 -80h6l65 80h109l-129 -154h-96z" />
    <glyph glyph-name="tcaron" unicode="&#x165;" horiz-adv-x="566" 
d="M110 99v303h-90v96h92v162h111v-162h153v-96h-153v-267l39 -39h114v-96h-167zM477 577h-19l-38 38v58l38 38h65l37 -39v-95l-54 -131h-66z" />
    <glyph glyph-name="Tbar" unicode="&#x166;" horiz-adv-x="576" 
d="M346 601v-223h160v-94h-160v-284h-116v284h-152v94h152v223h-210v99h536v-99h-210z" />
    <glyph glyph-name="tbar" unicode="&#x167;" horiz-adv-x="406" 
d="M223 402v-105h153v-94h-153v-68l39 -39h114v-96h-167l-99 99v104h-90v94h90v105h-90v96h92v162h111v-162h153v-96h-153z" />
    <glyph glyph-name="Utilde" unicode="&#x168;" horiz-adv-x="692" 
d="M70 117v583h116v-544l57 -56h206l57 56v544h116v-583l-117 -117h-318zM303 813h-20l-15 -14v-31l-84 -1v63l64 63h77l64 -52h21l14 14v32h84v-62l-64 -64h-77z" />
    <glyph glyph-name="utilde" unicode="&#x169;" horiz-adv-x="583" 
d="M60 101v397h113v-362l39 -39h87l106 106v295h113v-498h-105v92l-93 -92h-159zM247 611h-20l-15 -14v-31l-84 -1v63l64 63h77l64 -52h21l14 14v32h84v-62l-64 -64h-77z" />
    <glyph glyph-name="Umacron" unicode="&#x16a;" horiz-adv-x="692" 
d="M70 117v583h116v-544l57 -56h206l57 56v544h116v-583l-117 -117h-318zM186 855h320v-90h-320v90z" />
    <glyph glyph-name="umacron" unicode="&#x16b;" horiz-adv-x="583" 
d="M60 101v397h113v-362l39 -39h87l106 106v295h113v-498h-105v92l-93 -92h-159zM130 653h320v-90h-320v90z" />
    <glyph glyph-name="Ubreve" unicode="&#x16c;" horiz-adv-x="692" 
d="M70 117v583h116v-544l57 -56h206l57 56v544h116v-583l-117 -117h-318zM188 831v70h95v-45l30 -31h66l30 31v45h95v-70l-79 -80h-158z" />
    <glyph glyph-name="ubreve" unicode="&#x16d;" horiz-adv-x="583" 
d="M60 101v397h113v-362l39 -39h87l106 106v295h113v-498h-105v92l-93 -92h-159zM132 629v70h95v-45l30 -31h66l30 31v45h95v-70l-79 -80h-158z" />
    <glyph glyph-name="Uring" unicode="&#x16e;" horiz-adv-x="692" 
d="M70 117v583h116v-544l57 -56h206l57 56v544h116v-583l-117 -117h-318zM230 813v93l65 65h102l65 -65v-93l-65 -65h-102zM368 815l25 24v41l-25 25h-44l-25 -25v-41l25 -24h44z" />
    <glyph glyph-name="uring" unicode="&#x16f;" horiz-adv-x="583" 
d="M60 101v397h113v-362l39 -39h87l106 106v295h113v-498h-105v92l-93 -92h-159zM174 611v93l65 65h102l65 -65v-93l-65 -65h-102zM312 613l25 24v41l-25 25h-44l-25 -25v-41l25 -24h44z" />
    <glyph glyph-name="Uhungarumlaut" unicode="&#x170;" horiz-adv-x="692" 
d="M70 117v583h116v-544l57 -56h206l57 56v544h116v-583l-117 -117h-318zM279 916h115l-93 -165h-95zM444 916h115l-94 -165h-95z" />
    <glyph glyph-name="uhungarumlaut" unicode="&#x171;" horiz-adv-x="583" 
d="M60 101v397h113v-362l39 -39h87l106 106v295h113v-498h-105v92l-93 -92h-159zM223 714h115l-93 -165h-95zM388 714h115l-94 -165h-95z" />
    <glyph glyph-name="Uogonek" unicode="&#x172;" horiz-adv-x="692" 
d="M70 117v583h116v-544l57 -56h206l57 56v544h116v-583l-117 -117h-318zM252 -150v80l65 70h102l-70 -77v-36l21 -21h82v-78h-138z" />
    <glyph glyph-name="uogonek" unicode="&#x173;" horiz-adv-x="583" 
d="M60 101v397h113v-362l39 -39h87l106 106v295h113v-498h-105v92l-93 -92h-159zM351 -150v80l65 70h102l-70 -77v-36l21 -21h82v-78h-138z" />
    <glyph glyph-name="Wcircumflex" unicode="&#x174;" horiz-adv-x="874" 
d="M30 700h117l94 -527h3l149 527h93l144 -527h4l93 527h117l-144 -700h-112l-147 525h-3l-152 -525h-112zM389 905h96l129 -154h-109l-65 80h-6l-65 -80h-109z" />
    <glyph glyph-name="wcircumflex" unicode="&#x175;" horiz-adv-x="722" 
d="M25 498h115l66 -347h4l100 347h104l91 -347h4l73 347h115l-128 -498h-109l-98 361h-4l-105 -361h-109zM312 703h96l129 -154h-109l-65 80h-6l-65 -80h-109z" />
    <glyph glyph-name="Ycircumflex" unicode="&#x176;" horiz-adv-x="620" 
d="M252 288l-247 412h127l177 -304h2l177 304h127l-247 -412v-288h-116v288zM262 905h96l129 -154h-109l-65 80h-6l-65 -80h-109z" />
    <glyph glyph-name="ycircumflex" unicode="&#x177;" horiz-adv-x="585" 
d="M520 498v-616l-103 -102h-254l-88 87v66h113v-33l24 -25h156l39 40v170l-84 -85h-161l-102 103v395h113v-362l39 -39h91l104 108v293h113zM243 703h96l129 -154h-109l-65 80h-6l-65 -80h-109z" />
    <glyph glyph-name="Ydieresis" unicode="&#x178;" horiz-adv-x="620" 
d="M252 288l-247 412h127l177 -304h2l177 304h127l-247 -412v-288h-116v288zM139 794v54l35 35h60l34 -36v-52l-34 -36h-60zM352 795v52l34 36h60l35 -35v-54l-35 -35h-60z" />
    <glyph glyph-name="Zacute" unicode="&#x179;" horiz-adv-x="584" 
d="M40 97l368 503v2h-358v98h494v-97l-368 -503v-2h368v-98h-504v97zM322 916h121l-96 -165h-101z" />
    <glyph glyph-name="zacute" unicode="&#x17a;" horiz-adv-x="490" 
d="M30 91l288 313v2h-278v92h420v-91l-288 -313v-2h288v-92h-430v91zM275 714h121l-96 -165h-101z" />
    <glyph glyph-name="Zdotaccent" unicode="&#x17b;" horiz-adv-x="584" 
d="M40 97l368 503v2h-358v98h494v-97l-368 -503v-2h368v-98h-504v97zM230 793v56l36 36h62l36 -36v-56l-36 -36h-62z" />
    <glyph glyph-name="zdotaccent" unicode="&#x17c;" horiz-adv-x="490" 
d="M30 91l288 313v2h-278v92h420v-91l-288 -313v-2h288v-92h-430v91zM183 591v56l36 36h62l36 -36v-56l-36 -36h-62z" />
    <glyph glyph-name="Zcaron" unicode="&#x17d;" horiz-adv-x="584" 
d="M40 97l368 503v2h-358v98h494v-97l-368 -503v-2h368v-98h-504v97zM120 905h109l65 -80h6l65 80h109l-129 -154h-96z" />
    <glyph glyph-name="zcaron" unicode="&#x17e;" horiz-adv-x="490" 
d="M30 91l288 313v2h-278v92h420v-91l-288 -313v-2h288v-92h-430v91zM73 703h109l65 -80h6l65 80h109l-129 -154h-96z" />
    <glyph glyph-name="uni018F" unicode="&#x18f;" horiz-adv-x="718" 
d="M60 140v259h482v123l-77 77h-212l-77 -77v-55h-116v93l140 140h318l140 -140v-420l-140 -140h-318zM463 101l79 79v117h-366v-117l79 -79h208z" />
    <glyph glyph-name="florin" unicode="&#x192;" horiz-adv-x="617" 
d="M413 567l-21 -102h190v-96h-210l-60 -294l-96 -97h-191v94h140l40 39l51 258h-155v96h174l26 134l96 97h195v-94h-144z" />
    <glyph glyph-name="Ohorn" unicode="&#x1a0;" horiz-adv-x="763" 
d="M778 710v-108l-91 -92h-55v-397l-113 -113h-346l-113 113v474l113 113h346l105 -105h17l39 38v77h98zM516 544l-57 56h-226l-57 -56v-388l57 -56h226l57 56v388z" />
    <glyph glyph-name="ohorn" unicode="&#x1a1;" horiz-adv-x="662" 
d="M696 508v-108l-92 -92h-74v-208l-100 -100h-276l-99 100v298l99 100h276l100 -100v-5h29l39 38v77h98zM417 363l-40 40h-169l-40 -40v-228l40 -40h169l40 40v228z" />
    <glyph glyph-name="Uhorn" unicode="&#x1af;" horiz-adv-x="772" 
d="M788 710v-108l-91 -92h-75v-393l-117 -117h-318l-117 117v583h116v-544l57 -56h206l57 56v544h116v-105h29l39 38v77h98z" />
    <glyph glyph-name="uhorn" unicode="&#x1b0;" horiz-adv-x="665" 
d="M684 508v-108l-91 -92h-75v-308h-105v92l-93 -92h-159l-101 101v397h113v-362l39 -39h87l106 106v295h113v-105h29l39 38v77h98z" />
    <glyph glyph-name="uni01CD" unicode="&#x1cd;" horiz-adv-x="637" 
d="M264 700h110l253 -700h-118l-60 166h-261l-60 -166h-118zM422 263l-103 296h-2l-101 -296h206zM142 905h109l65 -80h6l65 80h109l-129 -154h-96z" />
    <glyph glyph-name="uni01CE" unicode="&#x1ce;" horiz-adv-x="567" 
d="M50 89v118l89 88h257v74l-37 37h-157l-37 -37v-32h-111v58l102 103h249l102 -103v-395h-103v77l-80 -77h-185zM313 89l83 80v42h-203l-32 -31v-61l30 -30h122zM108 703h109l65 -80h6l65 80h109l-129 -154h-96z" />
    <glyph glyph-name="uni01CF" unicode="&#x1cf;" horiz-adv-x="266" 
d="M75 700h116v-700h-116v700zM-44 905h109l65 -80h6l65 80h109l-129 -154h-96z" />
    <glyph glyph-name="uni01D0" unicode="&#x1d0;" horiz-adv-x="263" 
d="M75 498h113v-498h-113v498zM-46 703h109l65 -80h6l65 80h109l-129 -154h-96z" />
    <glyph glyph-name="uni01D1" unicode="&#x1d1;" horiz-adv-x="692" 
d="M60 113v474l113 113h346l113 -113v-474l-113 -113h-346zM459 100l57 56v388l-57 56h-226l-57 -56v-388l57 -56h226zM169 905h109l65 -80h6l65 80h109l-129 -154h-96z" />
    <glyph glyph-name="uni01D2" unicode="&#x1d2;" horiz-adv-x="585" 
d="M55 100v298l99 100h276l100 -100v-298l-100 -100h-276zM377 95l40 40v228l-40 40h-169l-40 -40v-228l40 -40h169zM116 703h109l65 -80h6l65 80h109l-129 -154h-96z" />
    <glyph glyph-name="uni01D3" unicode="&#x1d3;" horiz-adv-x="692" 
d="M70 117v583h116v-544l57 -56h206l57 56v544h116v-583l-117 -117h-318zM169 905h109l65 -80h6l65 80h109l-129 -154h-96z" />
    <glyph glyph-name="uni01D4" unicode="&#x1d4;" horiz-adv-x="583" 
d="M60 101v397h113v-362l39 -39h87l106 106v295h113v-498h-105v92l-93 -92h-159zM113 703h109l65 -80h6l65 80h109l-129 -154h-96z" />
    <glyph glyph-name="uni01D5" unicode="&#x1d5;" horiz-adv-x="692" 
d="M70 117v583h116v-544l57 -56h206l57 56v544h116v-583l-117 -117h-318zM186 1033h320v-84h-320v84zM175 794v54l35 35h60l34 -36v-52l-34 -36h-60zM388 795v52l34 36h60l35 -35v-54l-35 -35h-60z" />
    <glyph glyph-name="uni01D6" unicode="&#x1d6;" horiz-adv-x="583" 
d="M60 101v397h113v-362l39 -39h87l106 106v295h113v-498h-105v92l-93 -92h-159zM130 831h320v-84h-320v84zM119 592v54l35 35h60l34 -36v-52l-34 -36h-60zM332 593v52l34 36h60l35 -35v-54l-35 -35h-60z" />
    <glyph glyph-name="uni01D7" unicode="&#x1d7;" horiz-adv-x="692" 
d="M70 117v583h116v-544l57 -56h206l57 56v544h116v-583l-117 -117h-318zM363 1065h109l-85 -140h-88zM175 794v54l35 35h60l34 -36v-52l-34 -36h-60zM388 795v52l34 36h60l35 -35v-54l-35 -35h-60z" />
    <glyph glyph-name="uni01D8" unicode="&#x1d8;" horiz-adv-x="583" 
d="M60 101v397h113v-362l39 -39h87l106 106v295h113v-498h-105v92l-93 -92h-159zM307 863h109l-85 -140h-88zM119 592v54l35 35h60l34 -36v-52l-34 -36h-60zM332 593v52l34 36h60l35 -35v-54l-35 -35h-60z" />
    <glyph glyph-name="uni01D9" unicode="&#x1d9;" horiz-adv-x="692" 
d="M70 117v583h116v-544l57 -56h206l57 56v544h116v-583l-117 -117h-318zM180 1064h99l64 -78h6l64 78h99l-122 -145h-88zM175 794v54l35 35h60l34 -36v-52l-34 -36h-60zM388 795v52l34 36h60l35 -35v-54l-35 -35h-60z" />
    <glyph glyph-name="uni01DA" unicode="&#x1da;" horiz-adv-x="583" 
d="M60 101v397h113v-362l39 -39h87l106 106v295h113v-498h-105v92l-93 -92h-159zM124 862h99l64 -78h6l64 78h99l-122 -145h-88zM119 592v54l35 35h60l34 -36v-52l-34 -36h-60zM332 593v52l34 36h60l35 -35v-54l-35 -35h-60z" />
    <glyph glyph-name="uni01DB" unicode="&#x1db;" horiz-adv-x="692" 
d="M70 117v583h116v-544l57 -56h206l57 56v544h116v-583l-117 -117h-318zM218 1065h109l64 -140h-88zM175 794v54l35 35h60l34 -36v-52l-34 -36h-60zM388 795v52l34 36h60l35 -35v-54l-35 -35h-60z" />
    <glyph glyph-name="uni01DC" unicode="&#x1dc;" horiz-adv-x="583" 
d="M60 101v397h113v-362l39 -39h87l106 106v295h113v-498h-105v92l-93 -92h-159zM162 863h109l64 -140h-88zM119 592v54l35 35h60l34 -36v-52l-34 -36h-60zM332 593v52l34 36h60l35 -35v-54l-35 -35h-60z" />
    <glyph glyph-name="Gcaron" unicode="&#x1e6;" horiz-adv-x="668" 
d="M60 113v474l113 113h334l111 -111v-92h-116v51l-53 52h-216l-57 -56v-388l57 -56h216l56 55v127h-153v100h266v-269l-113 -113h-332zM161 905h109l65 -80h6l65 80h109l-129 -154h-96z" />
    <glyph glyph-name="gcaron" unicode="&#x1e7;" horiz-adv-x="595" 
d="M530 498v-616l-103 -102h-263l-87 87v66h112v-33l25 -25h164l39 40v156l-77 -71h-186l-99 100v298l99 100h194l76 -74v74h106zM417 326l-80 75h-127l-42 -42v-220l42 -42h118l89 87v142zM118 703h109l65 -80h6l65 80h109l-129 -154h-96z" />
    <glyph glyph-name="Aringacute" unicode="&#x1fa;" horiz-adv-x="637" 
d="M264 700h110l253 -700h-118l-60 166h-261l-60 -166h-118zM422 263l-103 296h-2l-101 -296h206zM203 813v93l65 65h102l65 -65v-93l-65 -65h-102zM341 815l25 24v41l-25 25h-44l-25 -25v-41l25 -24h44zM344 1182h121l-96 -165h-101z" />
    <glyph glyph-name="aringacute" unicode="&#x1fb;" horiz-adv-x="567" 
d="M50 89v118l89 88h257v74l-37 37h-157l-37 -37v-32h-111v58l102 103h249l102 -103v-395h-103v77l-80 -77h-185zM313 89l83 80v42h-203l-32 -31v-61l30 -30h122zM169 611v93l65 65h102l65 -65v-93l-65 -65h-102zM307 613l25 24v41l-25 25h-44l-25 -25v-41l25 -24h44z
M310 980h121l-96 -165h-101z" />
    <glyph glyph-name="AEacute" unicode="&#x1fc;" horiz-adv-x="946" 
d="M548 599v-198h329v-100h-329v-200h358v-101h-474v182h-227l-79 -182h-121l312 700h589v-101h-358zM432 281v318h-45l-139 -318h184zM548 916h121l-96 -165h-101z" />
    <glyph glyph-name="aeacute" unicode="&#x1fd;" horiz-adv-x="905" 
d="M512 213v-79l39 -39h154l37 37v33h113v-64l-102 -101h-250l-70 71l-71 -71h-223l-89 89v118l89 88h257v74l-37 37h-157l-37 -37v-32h-111v58l102 103h245l55 -54l54 54h242l103 -103v-182h-343zM512 296h231v70l-39 38h-153l-39 -38v-70zM399 211h-206l-32 -31v-61
l30 -30h133l75 75v47zM483 714h121l-96 -165h-101z" />
    <glyph glyph-name="Oslashacute" unicode="&#x1fe;" horiz-adv-x="692" 
d="M597 622l35 -35v-474l-113 -113h-346l-26 26l-48 -63h-98l90 119l-31 31v474l113 113h346l22 -22l44 59h98zM176 195l296 392l-13 13h-226l-57 -56v-349zM516 516l-301 -399l18 -17h226l57 56v360zM371 916h121l-96 -165h-101z" />
    <glyph glyph-name="oslashacute" unicode="&#x1ff;" horiz-adv-x="585" 
d="M491 437l39 -39v-298l-100 -100h-276l-2 2l-33 -42h-99l77 98l-42 42v298l99 100h276l5 -5l36 45h98zM168 150l198 253h-158l-40 -40v-213zM417 343l-193 -248h153l40 40v208zM318 714h121l-96 -165h-101z" />
    <glyph glyph-name="uni0218" unicode="&#x218;" horiz-adv-x="629" 
d="M55 103v88h114v-53l38 -38h218l40 40v129l-39 39h-266l-103 102v187l103 103h308l103 -103v-89h-114v54l-39 38h-208l-39 -38v-116l39 -38h266l103 -103v-200l-105 -105h-316zM307 -196h-19l-38 38v58l38 38h65l37 -39v-95l-54 -131h-66z" />
    <glyph glyph-name="uni0219" unicode="&#x219;" horiz-adv-x="528" 
d="M40 93v61h111v-32l28 -29h170l28 29v54l-29 29h-215l-89 90v112l91 91h251l92 -93v-61h-111v32l-28 29h-156l-28 -29v-50l29 -29h214l90 -91v-115l-91 -91h-265zM260 -196h-19l-38 38v58l38 38h65l37 -39v-95l-54 -131h-66z" />
    <glyph glyph-name="uni021A" unicode="&#x21a;" horiz-adv-x="576" 
d="M230 601h-210v99h536v-99h-210v-601h-116v601zM276 -196h-19l-38 38v58l38 38h65l37 -39v-95l-54 -131h-66z" />
    <glyph glyph-name="uni021B" unicode="&#x21b;" horiz-adv-x="406" 
d="M110 99v303h-90v96h92v162h111v-162h153v-96h-153v-267l39 -39h114v-96h-167zM217 -196h-19l-38 38v58l38 38h65l37 -39v-95l-54 -131h-66z" />
    <glyph glyph-name="uni0237" unicode="&#x237;" horiz-adv-x="276" 
d="M-62 -120h110l40 40v578h113v-614l-102 -102h-161v98z" />
    <glyph glyph-name="uni0251" unicode="&#x251;" horiz-adv-x="610" 
d="M55 100v298l99 100h201l69 -61v61h106v-404h70v-94h-123l-47 50v34l-86 -84h-190zM327 97l90 90v148l-77 66h-130l-42 -42v-220l42 -42h117z" />
    <glyph glyph-name="uni0259" unicode="&#x259;" horiz-adv-x="576" 
d="M521 399v-299l-100 -100h-271l-100 100v186h358v80l-38 38h-171l-37 -37v-30h-111v64l97 97h275zM163 203v-69l39 -40h167l39 40v69h-245z" />
    <glyph glyph-name="uni02BB" unicode="&#x2bb;" horiz-adv-x="241" 
d="M142 675h19l38 -38v-57l-38 -39h-65l-38 39v95l55 131h66z" />
    <glyph glyph-name="uni02BC" unicode="&#x2bc;" horiz-adv-x="210" 
d="M101 606h-19l-38 38v58l38 38h65l37 -39v-95l-54 -131h-66z" />
    <glyph glyph-name="uni02BE" unicode="&#x2be;" 
d="M-17 608h22l24 25v40l-24 24h-22v67h51l66 -65v-93l-66 -65h-51v67z" />
    <glyph glyph-name="uni02BF" unicode="&#x2bf;" 
d="M-100 606v93l66 65h51v-67h-22l-24 -24v-40l24 -25h22v-67h-51z" />
    <glyph glyph-name="circumflex" unicode="&#x2c6;" horiz-adv-x="420" 
d="M162 703h96l129 -154h-109l-65 80h-6l-65 -80h-109z" />
    <glyph glyph-name="caron" unicode="&#x2c7;" horiz-adv-x="420" 
d="M33 703h109l65 -80h6l65 80h109l-129 -154h-96z" />
    <glyph glyph-name="uni02C8" unicode="&#x2c8;" 
d="M-54 729h108v-168h-108v168z" />
    <glyph glyph-name="uni02C9" unicode="&#x2c9;" horiz-adv-x="492" 
d="M66 637h360v-78h-360v78z" />
    <glyph glyph-name="uni02CA" unicode="&#x2ca;" 
d="M16 714h121l-153 -165h-100z" />
    <glyph glyph-name="uni02CB" unicode="&#x2cb;" 
d="M-116 714h120l133 -165h-101z" />
    <glyph glyph-name="uni02CC" unicode="&#x2cc;" 
d="M-54 -36h108v-168h-108v168z" />
    <glyph glyph-name="breve" unicode="&#x2d8;" horiz-adv-x="425" 
d="M55 629v70h95v-45l30 -31h66l30 31v45h95v-70l-79 -80h-158z" />
    <glyph glyph-name="dotaccent" unicode="&#x2d9;" horiz-adv-x="239" 
d="M53 591v56l36 36h62l36 -36v-56l-36 -36h-62z" />
    <glyph glyph-name="ring" unicode="&#x2da;" horiz-adv-x="308" 
d="M38 611v93l65 65h102l65 -65v-93l-65 -65h-102zM176 613l25 24v41l-25 25h-44l-25 -25v-41l25 -24h44z" />
    <glyph glyph-name="ogonek" unicode="&#x2db;" horiz-adv-x="279" 
d="M40 -150v75l65 75h102l-70 -83v-31l19 -18h84v-80h-138z" />
    <glyph glyph-name="tilde" unicode="&#x2dc;" horiz-adv-x="391" 
d="M153 611h-20l-15 -14v-31l-84 -1v63l64 63h77l64 -52h21l14 14v32h84v-62l-64 -64h-77z" />
    <glyph glyph-name="hungarumlaut" unicode="&#x2dd;" horiz-adv-x="377" 
d="M85 714h115l-93 -165h-95zM250 714h115l-94 -165h-95z" />
    <glyph glyph-name="gravecomb" unicode="&#x300;" 
d="M-152 714h121l76 -165h-101z" />
    <glyph glyph-name="acutecomb" unicode="&#x301;" 
d="M25 714h121l-96 -165h-101z" />
    <glyph glyph-name="uni0302" unicode="&#x302;" 
d="M-48 703h96l129 -154h-109l-65 80h-6l-65 -80h-109z" />
    <glyph glyph-name="tildecomb" unicode="&#x303;" 
d="M-43 611h-20l-15 -14v-31l-84 -1v63l64 63h77l64 -52h21l14 14v32h84v-62l-64 -64h-77z" />
    <glyph glyph-name="uni0304" unicode="&#x304;" 
d="M-160 653h320v-90h-320v90z" />
    <glyph glyph-name="uni0306" unicode="&#x306;" 
d="M-158 629v70h95v-45l30 -31h66l30 31v45h95v-70l-79 -80h-158z" />
    <glyph glyph-name="uni0307" unicode="&#x307;" 
d="M-67 591v56l36 36h62l36 -36v-56l-36 -36h-62z" />
    <glyph glyph-name="uni0308" unicode="&#x308;" 
d="M-171 592v54l35 35h60l34 -36v-52l-34 -36h-60zM42 593v52l34 36h60l35 -35v-54l-35 -35h-60z" />
    <glyph glyph-name="hookabovecomb" unicode="&#x309;" 
d="M-49 601l84 69v28l-14 13h-43l-14 -14v-34h-88v60l62 61h124l62 -61v-76l-74 -61v-37h-99v52z" />
    <glyph glyph-name="uni030A" unicode="&#x30a;" 
d="M-116 611v93l65 65h102l65 -65v-93l-65 -65h-102zM22 613l25 24v41l-25 25h-44l-25 -25v-41l25 -24h44z" />
    <glyph glyph-name="uni030B" unicode="&#x30b;" 
d="M-67 714h115l-93 -165h-95zM98 714h115l-94 -165h-95z" />
    <glyph glyph-name="uni030C" unicode="&#x30c;" 
d="M-177 703h109l65 -80h6l65 80h109l-129 -154h-96z" />
    <glyph glyph-name="uni031B" unicode="&#x31b;" 
d="M-71 429h65l39 39v76h98v-108l-91 -91h-111v84z" />
    <glyph glyph-name="dotbelowcomb" unicode="&#x323;" 
d="M-67 -147v56l36 36h62l36 -36v-56l-36 -36h-62z" />
    <glyph glyph-name="uni0324" unicode="&#x324;" 
d="M-171 -146v54l35 35h60l34 -36v-52l-34 -36h-60zM42 -145v52l34 36h60l35 -35v-54l-35 -35h-60z" />
    <glyph glyph-name="uni0326" unicode="&#x326;" 
d="M-12 -196h-19l-38 38v58l38 38h65l37 -39v-95l-54 -131h-66z" />
    <glyph glyph-name="uni0327" unicode="&#x327;" 
d="M-91 -160h118l15 15v29l-15 14h-100v34l44 114h84l-35 -87h55l50 -50v-83l-52 -52h-164v66z" />
    <glyph glyph-name="uni0328" unicode="&#x328;" 
d="M-93 -150v80l65 70h102l-70 -77v-36l21 -21h82v-78h-138z" />
    <glyph glyph-name="uni032E" unicode="&#x32e;" 
d="M-158 -133v70h95v-45l30 -31h66l30 31v45h95v-70l-79 -80h-158z" />
    <glyph glyph-name="uni0331" unicode="&#x331;" 
d="M-160 -66h320v-90h-320v90z" />
    <glyph glyph-name="uni0394" unicode="&#x394;" horiz-adv-x="658" 
d="M25 78l238 622h132l238 -622v-78h-608v78zM513 96l-181 491h-6l-182 -491h369z" />
    <glyph glyph-name="uni03A9" unicode="&#x3a9;" horiz-adv-x="707" 
d="M50 96h130v69l-112 112v314l109 109h353l109 -109v-314l-112 -112v-69h130v-96h-240v201l107 107v246l-47 47h-247l-47 -47v-246l107 -107v-201h-240v96z" />
    <glyph glyph-name="uni03BC" unicode="&#x3bc;" horiz-adv-x="588" 
d="M523 498v-498h-107v87l-85 -87h-114l-41 41v-241h-111v698h113v-342l59 -59h72l101 103v298h113z" />
    <glyph glyph-name="pi" unicode="&#x3c0;" horiz-adv-x="726" 
d="M564 401v-272l33 -33h84v-96h-137l-93 93v308h-188v-401h-112v401h-106v97h636v-97h-117z" />
    <glyph glyph-name="uni0E01" unicode="&#xe01;" horiz-adv-x="612" 
d="M80 285l50 69l-90 82l114 122h297l91 -92v-466h-114v427l-32 32h-200l-27 -27l81 -79l-56 -83v-270h-114v285z" />
    <glyph glyph-name="uni0E02" unicode="&#xe02;" horiz-adv-x="593" 
d="M218 83v190l51 116v63l-38 40h-79l-27 -26h44l52 -53v-70l-57 -60h-80l-59 60v125l94 100h158l85 -87v-104l-37 -89v-170l23 -24h43l23 24v440h109v-475l-82 -83h-141zM140 340l22 22v34l-22 22h-34l-22 -21v-35l22 -22h34z" />
    <glyph glyph-name="uni0E03" unicode="&#xe03;" horiz-adv-x="612" 
d="M237 83v199l58 120v72l-13 15h-13l-48 -51l-51 51h-31l-34 -37h58l51 -53v-68l-56 -59h-80l-58 59v130l90 107h69l42 -44l41 44h64l61 -69v-107l-43 -92v-182l23 -24h42l23 24v440h110v-475l-82 -83h-141zM134 328l21 21v34l-21 21h-33l-22 -21v-34l22 -21h33z" />
    <glyph glyph-name="uni0E04" unicode="&#xe04;" horiz-adv-x="634" 
d="M564 461v-461h-113v426l-33 33h-205l-33 -33v-174l94 92h83l61 -63v-72l-61 -63h-78l-44 45l-23 -25l-31 -29v-137h-111v461l97 97h300zM276 227l21 -22h37l21 22v36l-21 22h-37l-21 -22v-36z" />
    <glyph glyph-name="uni0E05" unicode="&#xe05;" horiz-adv-x="636" 
d="M566 468v-468h-113v434l-21 25h-37l-77 -58l-78 58h-38l-22 -25v-189l94 92h83l61 -63v-73l-61 -63h-78l-45 46l-22 -25l-31 -30v-129h-111v468l79 90h101l68 -55l68 55h101zM276 219l21 -21h37l21 21v37l-21 21h-37l-21 -21v-37z" />
    <glyph glyph-name="uni0E06" unicode="&#xe06;" horiz-adv-x="669" 
d="M599 558v-558h-84l-184 106v-42l-64 -64h-93l-68 68v80l66 67h45v49l100 126v84l-14 15h-24l-48 -51l-51 51h-31l-34 -37h58l51 -53v-68l-56 -59h-80l-58 59v130l90 107h69l42 -44l41 44h78l63 -70v-125l-86 -110v-57l158 -89v441h114zM111 404l-22 -21v-34l22 -21h33
l21 21v34l-21 21h-33zM260 126l-22 22h-36l-22 -22v-37l22 -22h36l22 22v37z" />
    <glyph glyph-name="uni0E07" unicode="&#xe07;" horiz-adv-x="503" 
d="M15 315l84 56l196 -272h26v201l7 38h-60l-68 68v83l69 69h95l69 -69v-438l-50 -51h-136zM336 407l21 21v38l-21 21h-39l-20 -21v-38l20 -21h39z" />
    <glyph glyph-name="uni0E08" unicode="&#xe08;" horiz-adv-x="577" 
d="M507 465v-465h-114v148l-25 21l-19 21l-52 -53h-89l-66 66v85l66 66h93l95 -88v161l-32 32h-201l-30 -30v-58h-113v94l91 93h305zM294 264l-21 21h-38l-21 -21v-38l21 -22h38l21 22v38z" />
    <glyph glyph-name="uni0E09" unicode="&#xe09;" horiz-adv-x="618" 
d="M583 153v-89l-65 -64h-96l-62 62v32l-127 -94h-86v93l5 43h-53l-64 64v86l64 64h94l64 -64v-168l167 115v195l-32 33h-204l-30 -31v-32h-114v67l91 93h312l91 -93v-267zM186 261l-21 22h-37l-22 -22v-38l22 -21h37l21 21v38zM510 128l-22 22h-36l-22 -22v-36l22 -22h36
l22 22v36z" />
    <glyph glyph-name="uni0E0A" unicode="&#xe0a;" horiz-adv-x="608" 
d="M218 83v190l51 116v63l-38 40h-79l-27 -26h44l52 -53v-70l-57 -60h-80l-59 60v125l94 100h158l85 -87v-104l-37 -89v-170l23 -24h55l23 24v275l-27 39v41l153 151l66 -70l-115 -112l31 -47v-312l-82 -83h-152zM140 340l22 22v34l-22 22h-34l-22 -21v-35l22 -22h34z" />
    <glyph glyph-name="uni0E0B" unicode="&#xe0b;" horiz-adv-x="625" 
d="M237 83v199l58 120v72l-13 15h-13l-48 -51l-51 51h-31l-34 -37h58l51 -53v-68l-56 -59h-80l-58 59v130l90 107h69l42 -44l41 44h64l61 -69v-107l-43 -92v-181l23 -24h53l23 24v277l-22 37v43l148 148l66 -70l-114 -112l30 -47v-312l-82 -83h-150zM134 328l21 21v34
l-21 21h-33l-22 -21v-34l22 -21h33z" />
    <glyph glyph-name="uni0E0C" unicode="&#xe0c;" horiz-adv-x="876" 
d="M806 558v-558h-83l-156 92v-26l-65 -66h-91l-66 66v84l66 68h14v209l-32 32h-197l-27 -27l81 -79l-60 -78v-37l-3 -24h49l66 -62v-88l-66 -64h-94l-64 64v224l52 66l-90 82l114 122h291l91 -92v-258l156 -90v440h114zM496 126l-21 22h-36l-21 -22v-36l21 -21h36l21 21v36
zM151 126v-37l22 -21h35l22 21v37l-22 21h-35z" />
    <glyph glyph-name="uni0E0D" unicode="&#xe0d;" horiz-adv-x="888" 
d="M78 64v224l52 66l-90 82l114 122h282l91 -92v-337l30 -30h117l30 30v429h114v-471l-88 -87h-228l-87 87v340l-32 32h-187l-27 -27l81 -79l-60 -78v-38l-3 -24h51l64 -63v-86l-65 -64h-95zM208 67l22 21v37l-22 21h-35l-22 -21v-37l22 -21h35zM415 -175v75l61 60h83
l61 -61v-43h51l97 94l68 -71l-119 -115h-241zM533 -174l21 21v32l-21 21h-31l-21 -21v-32l21 -21h31z" />
    <glyph glyph-name="uni0E0E" unicode="&#xe0e;" horiz-adv-x="634" 
d="M94 -209v84l65 64h207l84 -84v572l-31 32h-202l-28 -27l98 -79l-44 -80v-208l-65 -65h-92l-66 64v87l63 62h51l-4 24v54l37 62l-106 83l114 122h298l91 -92v-740h-80l-56 55l-52 -55h-217zM148 68l22 21v37l-22 21h-34l-22 -21v-37l22 -21h34zM339 -204l31 34l-39 39
h-131l-21 -21v-31l21 -21h139z" />
    <glyph glyph-name="uni0E0F" unicode="&#xe0f;" horiz-adv-x="634" 
d="M71 -212v85l63 62h121l94 -105l42 69l59 -62v590l-31 32h-202l-28 -27l98 -79l-44 -80v-208l-65 -65h-92l-66 64v87l63 62h51l-4 24v54l37 62l-106 83l114 122h298l91 -92v-740h-91l-70 72l-47 -72l-56 64l-59 -64h-107zM148 68l22 21v37l-22 21h-34l-22 -21v-37l22 -21
h34zM222 -206l35 39l-34 37h-59l-20 -20v-36l20 -20h58z" />
    <glyph glyph-name="uni0E10" unicode="&#xe10;" horiz-adv-x="540" 
d="M360 301l-335 65v99l92 93h363v-91h-315l-26 -27v-12l331 -60v-368h-114v81l-27 24l-19 21l-52 -51h-84l-65 66v78l64 65h89l98 -94v111zM256 197l-21 21h-35l-21 -21v-35l21 -22h35l21 22v35zM501 -78v-217h-149l-48 46l-48 -46l-52 57l-51 -57h-84l-62 62v87l60 63h93
l101 -122l39 39l59 -59h55v21l3 13h-43l-48 47v65l50 50h76zM399 -144h28l17 17v29l-17 17h-28l-17 -17v-29zM167 -189l-33 41h-39l-20 -20v-41l20 -20h39z" />
    <glyph glyph-name="uni0E11" unicode="&#xe11;" horiz-adv-x="720" 
d="M227 298l63 124v52l-13 15h-13l-48 -51l-51 51h-31l-34 -37h58l51 -53v-68l-56 -59h-80l-58 59v130l90 107h69l42 -44l41 44h56l63 -70v-86l-57 -119v-161h1l144 426h97l89 -93v-465h-114v430l-21 27h-11l-159 -457h-118v298zM129 328l21 21v34l-21 21h-33l-22 -21v-34
l22 -21h33z" />
    <glyph glyph-name="uni0E12" unicode="&#xe12;" horiz-adv-x="898" 
d="M828 558v-558h-83l-146 89v-30l-60 -59h-88l-61 61v82l60 59h5v232l-21 25h-38l-78 -58l-79 58h-40l-22 -25v-333l59 56l21 17l-45 43v80l59 59h82l58 -58v-85l-227 -213h-114v468l79 90h101l68 -55l68 55h100l79 -90v-260l149 -90v440h114zM272 239l21 -21h37l21 21v37
l-21 21h-37l-21 -21v-37zM535 121l-21 22h-36l-21 -22v-36l21 -22h36l21 22v36z" />
    <glyph glyph-name="uni0E13" unicode="&#xe13;" horiz-adv-x="889" 
d="M859 153v-89l-66 -64h-96l-62 62v33l-134 -95h-85v427l-32 32h-188l-27 -27l81 -79l-60 -78v-38l-3 -24h51l64 -63v-86l-65 -64h-95l-64 64v224l52 66l-90 82l114 122h282l91 -92v-349l172 114v327h114v-359zM785 128l-21 21h-35l-22 -21v-36l22 -21h35l21 21v36z
M151 125v-37l22 -21h35l22 21v37l-22 21h-35z" />
    <glyph glyph-name="uni0E14" unicode="&#xe14;" horiz-adv-x="634" 
d="M564 465v-465h-113v427l-31 32h-210l-32 -32v-324l57 52l24 19l-44 43v81l59 59h85l58 -58v-87l-233 -212h-114v465l91 93h312zM277 239l20 -21h38l20 21v37l-20 21h-38l-20 -21v-37z" />
    <glyph glyph-name="uni0E15" unicode="&#xe15;" horiz-adv-x="636" 
d="M566 468v-468h-113v434l-21 25h-36l-78 -58l-78 58h-40l-22 -25v-331l57 50l23 18l-43 41v81l59 59h85l58 -57v-88l-233 -207h-114v468l79 90h101l68 -55l68 55h101zM277 235l20 -22h38l20 22v36l-20 22h-38l-20 -22v-36z" />
    <glyph glyph-name="uni0E16" unicode="&#xe16;" horiz-adv-x="612" 
d="M77 64v224l53 66l-90 82l114 122h297l91 -92v-466h-114v427l-32 32h-200l-27 -27l81 -79l-60 -78v-38l-3 -24h50l64 -63v-86l-65 -64h-94zM207 67l22 21v37l-22 21h-35l-22 -21v-37l22 -21h35z" />
    <glyph glyph-name="uni0E17" unicode="&#xe17;" horiz-adv-x="654" 
d="M140 298l7 38h-60l-67 66v88l66 68h96l65 -68v-299h1l137 367h107l92 -93v-465h-114v430l-25 28h-12l-178 -458h-115v298zM153 406l20 21v38l-20 22h-38l-22 -22v-38l22 -21h38z" />
    <glyph glyph-name="uni0E18" unicode="&#xe18;" horiz-adv-x="569" 
d="M76 87v182h111v-142l29 -30h148l29 30v149l-343 80v109l91 93h368v-95h-317l-28 -28v-18l340 -80v-250l-86 -87h-256z" />
    <glyph glyph-name="uni0E19" unicode="&#xe19;" horiz-adv-x="634" 
d="M604 153v-89l-66 -64h-96l-62 62v36l-153 -98h-86v297l7 39h-60l-68 68v84l70 70h96l69 -70v-369l189 113v326h114v-359zM177 465l-22 22h-37l-21 -22v-38l21 -21h37l22 21v38zM530 128l-21 21h-35l-22 -21v-36l22 -21h35l21 21v36z" />
    <glyph glyph-name="uni0E1A" unicode="&#xe1a;" horiz-adv-x="654" 
d="M141 82v215l7 39h-60l-68 68v84l70 70h96l69 -70v-361l27 -28h160l28 28v431h114v-476l-82 -82h-280zM155 406l22 21v38l-22 22h-37l-21 -22v-38l21 -21h37z" />
    <glyph glyph-name="uni0E1B" unicode="&#xe1b;" horiz-adv-x="656" 
d="M141 82v215l7 39h-60l-68 68v84l70 70h96l69 -70v-361l27 -28h162l28 28v641h114v-686l-82 -82h-282zM155 406l22 21v38l-22 22h-37l-21 -22v-38l21 -21h37z" />
    <glyph glyph-name="uni0E1C" unicode="&#xe1c;" horiz-adv-x="625" 
d="M70 488l70 70h90l69 -70v-82l-65 -67h-58l5 -44v-149h1l102 134h56l102 -135h1v413h112v-558h-102l-141 186l-140 -186h-102v488zM205 407l20 22v38l-20 21h-38l-22 -21v-38l22 -22h38z" />
    <glyph glyph-name="uni0E1D" unicode="&#xe1d;" horiz-adv-x="627" 
d="M70 488l70 70h90l69 -70v-82l-65 -67h-58l5 -44v-149h1l103 134h56l103 -135h1v623h112v-768h-102l-142 186l-141 -186h-102v488zM205 407l20 22v38l-20 21h-38l-22 -21v-38l22 -22h38z" />
    <glyph glyph-name="uni0E1E" unicode="&#xe1e;" horiz-adv-x="696" 
d="M141 297l7 39h-60l-68 68v84l70 70h94l68 -67v-293h2l105 249h50l103 -248h3v359h111v-558h-111l-131 313l-132 -313h-111v297zM155 406l21 21v38l-21 22h-38l-21 -22v-38l21 -21h38z" />
    <glyph glyph-name="uni0E1F" unicode="&#xe1f;" horiz-adv-x="698" 
d="M141 297l7 39h-60l-68 68v84l70 70h94l68 -67v-293h2l106 249h50l104 -248h3v569h111v-768h-111l-132 313l-133 -313h-111v297zM155 406l21 21v38l-21 22h-38l-21 -22v-38l21 -21h38z" />
    <glyph glyph-name="uni0E20" unicode="&#xe20;" horiz-adv-x="632" 
d="M20 64v87l63 62h51l-4 24v54l37 62l-106 83l114 122h296l91 -92v-466h-114v427l-31 32h-200l-28 -27l98 -79l-44 -80v-208l-65 -65h-92zM148 68l22 21v37l-22 21h-34l-22 -21v-37l22 -21h34z" />
    <glyph glyph-name="uni0E21" unicode="&#xe21;" horiz-adv-x="629" 
d="M559 558v-558h-87l-196 104v-38l-65 -66h-92l-69 69v83l69 69h37v76l7 39h-60l-68 68v84l70 70h96l69 -70v-278l175 -92v440h114zM170 406l22 21v38l-22 22h-37l-21 -22v-38l21 -21h37zM203 128l-21 22h-36l-22 -22v-36l22 -21h36l21 21v36z" />
    <glyph glyph-name="uni0E22" unicode="&#xe22;" horiz-adv-x="600" 
d="M530 558v-472l-84 -86h-301l-85 86v99l74 61l-74 58v178l75 76h96l67 -68v-79l-62 -63h-70l-7 5v-26l54 -39h111v-82h-104l-46 -40v-42l27 -27h187l28 28v433h114zM144 432l21 -21h37l22 21v38l-22 21h-37l-21 -21v-38z" />
    <glyph glyph-name="uni0E23" unicode="&#xe23;" horiz-adv-x="498" 
d="M177 64v90l64 63h59l-3 28v47l-262 61v114l90 91h328v-97h-278l-26 -27v-20l260 -58v-292l-64 -64h-103zM311 68l22 21v38l-22 22h-37l-21 -22v-38l21 -21h37z" />
    <glyph glyph-name="uni0E24" unicode="&#xe24;" horiz-adv-x="614" 
d="M430 427l-32 32h-202l-27 -27l81 -79l-60 -78v-38l-3 -24h51l64 -63v-86l-65 -64h-95l-64 64v224l52 66l-90 82l114 122h299l91 -92v-676h-114v637zM208 67l22 21v37l-22 21h-35l-22 -21v-37l22 -21h35z" />
    <glyph glyph-name="uni0E25" unicode="&#xe25;" horiz-adv-x="608" 
d="M75 64v203l93 90h187l70 -69v140l-31 33h-200l-30 -31v-32h-114v67l91 93h306l91 -93v-465h-114v169l-96 96h-119l-23 -23v-14l-3 -19h52l63 -63v-82l-65 -64h-94zM205 65l21 22v36l-21 22h-36l-21 -22v-36l21 -22h36z" />
    <glyph glyph-name="uni0E26" unicode="&#xe26;" horiz-adv-x="634" 
d="M450 427l-31 32h-202l-28 -27l98 -79l-44 -80v-208l-65 -65h-92l-66 64v87l63 62h51l-4 24v54l37 62l-106 83l114 122h298l91 -92v-676h-114v637zM148 68l22 21v37l-22 21h-34l-22 -21v-37l22 -21h34z" />
    <glyph glyph-name="uni0E27" unicode="&#xe27;" horiz-adv-x="533" 
d="M230 70v84l67 68h58l-6 37v168l-32 32h-147l-32 -32v-64h-113v102l91 93h256l91 -93v-395l-70 -70h-94zM364 71l22 22v38l-22 21h-36l-22 -21v-38l22 -22h36z" />
    <glyph glyph-name="uni0E28" unicode="&#xe28;" horiz-adv-x="634" 
d="M521 487l43 -47v-440h-113v426l-33 33h-205l-33 -33v-174l94 92h83l61 -63v-72l-61 -63h-78l-44 45l-23 -25l-31 -29v-137h-111v459l99 99h271l73 72l75 -75zM276 227l21 -22h37l21 22v36l-21 22h-37l-21 -22v-36z" />
    <glyph glyph-name="uni0E29" unicode="&#xe29;" horiz-adv-x="675" 
d="M605 558v-476l-81 -82h-302l-81 82v215l7 39h-60l-68 68v84l70 70h94l67 -68v-363l28 -28h189l27 28v70h-154l-55 54v74l56 56h70l55 -56v-41l-6 -13l34 6v281h110zM177 465l-22 22h-37l-21 -22v-38l21 -21h37l22 21v38zM412 305l-19 19h-30l-20 -19v-32l20 -19h29l20 19
v32z" />
    <glyph glyph-name="uni0E2A" unicode="&#xe2a;" horiz-adv-x="608" 
d="M510 483l28 -31v-452h-114v169l-96 96h-119l-23 -23v-14l-3 -19h52l63 -63v-82l-65 -64h-94l-64 64v203l93 90h187l71 -69v140l-32 33h-200l-30 -31v-32h-114v67l91 93h292l73 72l75 -75zM169 145l-21 -22v-36l21 -22h36l21 22v36l-21 22h-36z" />
    <glyph glyph-name="uni0E2B" unicode="&#xe2b;" horiz-adv-x="655" 
d="M585 405l-45 -43l45 -41v-321h-114v281l-16 15l-219 -296h-95v297l7 39h-60l-68 68v84l70 70h96l69 -70v-329l144 199l-47 47v83l67 70h97l69 -70v-83zM428 429l22 -22h37l21 22v38l-21 21h-37l-22 -21v-38zM177 465l-22 22h-37l-21 -22v-38l21 -21h37l22 21v38z" />
    <glyph glyph-name="uni0E2C" unicode="&#xe2c;" horiz-adv-x="712" 
d="M141 297l7 39h-60l-68 68v84l70 70h94l68 -67v-315h2l106 207h47l106 -207h3v233l4 33h-54l-63 63v82l63 63h92l58 -59v-26l50 51l46 -59l-85 -87v-470h-110l-134 258l-131 -258h-111v297zM526 508l22 22v32l-22 22h-31l-22 -22v-32l22 -22h31zM155 406l22 21v38l-22 22
h-37l-21 -22v-38l21 -21h37z" />
    <glyph glyph-name="uni0E2D" unicode="&#xe2d;" horiz-adv-x="593" 
d="M70 87v214l64 64h94l64 -64v-83l-62 -62h-51l2 -18v-16l26 -26h176l31 31v301l-32 33h-191l-32 -33v-30h-114v67l91 93h301l91 -93v-378l-86 -87h-287zM200 218l21 22v38l-21 21h-37l-20 -21v-38l20 -22h37z" />
    <glyph glyph-name="uni0E2E" unicode="&#xe2e;" horiz-adv-x="593" 
d="M70 87v196l64 64h94l64 -64v-79l-60 -58h-52l1 -13v-11l26 -26h178l30 31v304l-15 16l-74 -72h-227l-54 54v75l54 54h310l68 64l69 -64l-57 -55l39 -40v-376l-86 -87h-287zM285 441l52 51h-179l-16 -15v-20l14 -16h129zM200 203l21 21v38l-21 22h-37l-20 -22v-38l20 -21
h37z" />
    <glyph glyph-name="uni0E2F" unicode="&#xe2f;" horiz-adv-x="529" 
d="M350 368l-54 -49h-194l-82 83v87l69 69h88l66 -66v-68l-22 -26l32 2h22l78 74v84h111v-558h-114v368zM153 408l21 21v38l-21 21h-38l-21 -21v-38l21 -21h38z" />
    <glyph glyph-name="uni0E30" unicode="&#xe30;" horiz-adv-x="514" 
d="M40 375v90l68 69h86l68 -69v-53l-1 -10l21 1h26l112 112l69 -80l-129 -128h-252zM172 381l20 21v38l-20 21h-39l-20 -21v-38l20 -21h39zM40 88v91l68 68h86l68 -68v-53l-1 -11l21 2h26l112 111l69 -79l-129 -129h-252zM172 94l20 21v38l-20 21h-39l-20 -21v-38l20 -21h39
z" />
    <glyph glyph-name="uni0E31" unicode="&#xe31;" 
d="M-377 696v84l59 59h90l60 -59v-55h79l98 104l64 -67l-119 -126h-271zM-256 702l19 20v34l-19 19h-33l-20 -19v-34l20 -20h33z" />
    <glyph glyph-name="uni0E32" unicode="&#xe32;" horiz-adv-x="535" 
d="M351 427l-32 32h-150l-31 -32v-64h-113v102l92 93h257l91 -93v-465h-114v427z" />
    <glyph glyph-name="uni0E33" unicode="&#xe33;" horiz-adv-x="535" 
d="M-247 697v92l69 68h102l68 -68v-92l-68 -68h-102zM-110 703l23 22v36l-23 22h-35l-23 -22v-36l23 -22h35zM351 427l-32 32h-150l-31 -32v-64h-113v102l92 93h257l91 -93v-465h-114v427z" />
    <glyph glyph-name="uni0E34" unicode="&#xe34;" 
d="M-528 743l101 101h255l102 -102v-106h-458v107zM-169 706v23l-42 42h-176l-42 -42v-23h260z" />
    <glyph glyph-name="uni0E35" unicode="&#xe35;" 
d="M-70 893v-257h-458v107l101 101h206l51 -43v92h100zM-180 731l-45 40h-164l-40 -40v-25h249v25z" />
    <glyph glyph-name="uni0E36" unicode="&#xe36;" 
d="M-22 758l-48 -45v-77h-458v107l101 101h201l22 -18v12l53 56h76l53 -54v-82zM-148 785l14 -14l6 -5h30l19 19v31l-19 19h-31l-19 -19v-31zM-180 733l-46 38h-163l-40 -40v-25h249v27z" />
    <glyph glyph-name="uni0E37" unicode="&#xe37;" 
d="M-70 893v-257h-458v107l101 101h135v49h86v-64l50 -42v106h86zM-180 728l-48 43h-161l-40 -40v-25h249v22z" />
    <glyph glyph-name="uni0E38" unicode="&#xe38;" 
d="M-181 -306l8 42h-53l-67 66v74l67 66h88l68 -68v-235h-111v55zM-165 -201l22 23v32l-22 23h-33l-22 -23v-32l22 -23h33z" />
    <glyph glyph-name="uni0E39" unicode="&#xe39;" 
d="M-342 -305v21l3 24h-55l-60 60v79l63 63h87l62 -62v-152h73v208h99v-239l-56 -56h-163zM-332 -200l22 22v33l-22 22h-32l-22 -22v-33l22 -22h32z" />
    <glyph glyph-name="uni0E3A" unicode="&#xe3a;" 
d="M-202 -159v58l43 43h64l43 -43v-58l-43 -43h-64z" />
    <glyph glyph-name="uni0E3F" unicode="&#xe3f;" horiz-adv-x="662" 
d="M622 290v-185l-105 -105h-137v-110h-99v110h-211v700h211v110h99v-110h114l97 -97v-196l-43 -43zM183 399h98v203h-98v-203zM380 602v-203h56l41 41v122l-40 40h-57zM281 98v207h-98v-207h98zM508 258l-48 47h-80v-207h80l48 48v112z" />
    <glyph glyph-name="uni0E40" unicode="&#xe40;" horiz-adv-x="325" 
d="M70 68v490h114v-298l-7 -38h61l67 -68v-86l-68 -68h-98zM207 71l21 22v38l-21 21h-37l-22 -21v-38l22 -22h37z" />
    <glyph glyph-name="uni0E41" unicode="&#xe41;" horiz-adv-x="612" 
d="M70 68v490h114v-298l-7 -38h60l67 -68v-86l-69 -68h-96zM357 68v490h114v-298l-7 -38h61l67 -68v-86l-68 -68h-98zM207 71l21 22v38l-21 21h-37l-22 -21v-38l22 -22h37zM494 71l22 22v38l-22 21h-37l-21 -21v-38l21 -22h37z" />
    <glyph glyph-name="uni0E42" unicode="&#xe42;" horiz-adv-x="381" 
d="M126 68v587l-168 83v102l92 92h316v-93h-270l-27 -26v-26l171 -84v-443l-7 -38h61l67 -68v-86l-69 -68h-98zM263 71l21 22v38l-21 21h-38l-21 -21v-38l21 -22h38z" />
    <glyph glyph-name="uni0E43" unicode="&#xe43;" horiz-adv-x="377" 
d="M122 68v514l113 140v113l-34 34h-110l-34 -32h54l51 -53v-75l-59 -59h-84l-59 59v134l105 109h183l92 -93v-153l-104 -131v-315l-7 -38h61l67 -68v-86l-68 -68h-98zM79 709l21 21v35l-21 22h-35l-21 -22v-35l21 -21h35zM259 71l21 22v38l-21 21h-37l-22 -21v-38l22 -22
h37z" />
    <glyph glyph-name="uni0E44" unicode="&#xe44;" horiz-adv-x="365" 
d="M110 68v583l125 145v42l-10 11h-38l-80 -76l-82 76h-67v93h88l61 -61l60 61h118l57 -57l1 -109l-119 -143v-373l-7 -38h61l67 -68v-86l-69 -68h-98zM247 71l21 22v38l-21 21h-38l-21 -21v-38l21 -22h38z" />
    <glyph glyph-name="uni0E45" unicode="&#xe45;" horiz-adv-x="535" 
d="M351 427l-32 32h-150l-31 -32v-64h-113v102l92 93h257l91 -93v-675h-114v637z" />
    <glyph glyph-name="uni0E46" unicode="&#xe46;" horiz-adv-x="519" 
d="M335 461l-16 18h-19l-55 -55l-59 56h-38l-35 -34h53l56 -57v-67l-57 -59h-80l-60 59v143l94 103h76l50 -50l49 50h88l67 -74v-604h-114v571zM143 319l21 22v33l-21 22h-33l-22 -21v-34l22 -22h33z" />
    <glyph glyph-name="uni0E47" unicode="&#xe47;" 
d="M-476 812l79 79h215l67 67l56 -56l-83 -85h-217l-27 -28v-75l68 54l62 -53h16v30l47 48h74l47 -46v-66l-46 -45h-149l-62 52l-66 -52h-81v176zM-142 684l17 17v27l-17 17h-29l-17 -17v-27l17 -17h29z" />
    <glyph glyph-name="uni0E48" unicode="&#xe48;" 
d="M-183 844h113v-208h-113v208z" />
    <glyph glyph-name="uni0E49" unicode="&#xe49;" 
d="M-403 709h93l16 24h-44l-47 45v69l55 55h84l55 -55v-85l-31 -49h74l113 153l67 -62l-125 -168h-310v73zM-274 779l20 20v29l-20 20h-27l-20 -20v-29l20 -20h27z" />
    <glyph glyph-name="uni0E4A" unicode="&#xe4a;" 
d="M-482 684v107l88 92h85l39 -41l39 41h60l65 -63v-102h9l89 135l60 -51l-111 -166h-176v70h45v91l-12 11h-17l-51 -52l-52 52h-42l-28 -26h43l47 -48v-50l-50 -52h-80zM-380 683l17 17v21l-17 17h-23l-17 -17v-21l17 -17h23z" />
    <glyph glyph-name="uni0E4B" unicode="&#xe4b;" 
d="M23 718h-97v-82h-106v82h-97v74h97v82h106v-82h97v-74z" />
    <glyph glyph-name="uni0E4C" unicode="&#xe4c;" 
d="M-168 816l41 -40v-83l-57 -57h-90l-57 57v86l186 187l64 -63zM-192 752l-20 20h-32l-20 -20v-34l20 -20h32l20 20v34z" />
    <glyph glyph-name="uni0E4D" unicode="&#xe4d;" 
d="M-256 701v90l70 70h101l69 -70v-90l-69 -70h-101zM-116 700l28 28v37l-28 28h-39l-28 -28v-37l28 -28h39z" />
    <glyph glyph-name="uni0E4E" unicode="&#xe4e;" 
d="M-65 971v-70h-65l-24 -24v-97h-104l-20 -19v-25l20 -19h82v-71h-124l-62 62v77l63 64h66v58l63 64h105z" />
    <glyph glyph-name="uni0E4F" unicode="&#xe4f;" horiz-adv-x="601" 
d="M45 176v206l152 152h207l152 -152v-206l-152 -151h-207zM367 109l103 102v136l-103 103h-133l-103 -103v-136l103 -102h133zM178 228v102l72 72h101l72 -72v-102l-71 -71h-103zM322 229l29 29v43l-30 29h-40l-30 -29v-43l29 -29h42z" />
    <glyph glyph-name="uni0E50" unicode="&#xe50;" horiz-adv-x="650" 
d="M55 100v275l100 100h340l100 -100v-275l-100 -100h-340zM444 96l39 39v203l-41 41h-234l-41 -41v-203l39 -39h238z" />
    <glyph glyph-name="uni0E51" unicode="&#xe51;" horiz-adv-x="648" 
d="M405 -13l77 81v268l-42 42h-237l-42 -42v-223l29 -30h44l-28 33v55l63 64h86l68 -68v-82l-84 -85h-198l-86 87v284l102 104h334l102 -104v-340l-114 -115zM329 85l24 24v36l-24 23h-32l-24 -23v-31l27 -29h29z" />
    <glyph glyph-name="uni0E52" unicode="&#xe52;" horiz-adv-x="751" 
d="M60 99v571h113v-535l38 -39h335l39 39v220l-29 28h-16l-72 -78l-80 79h-43l-32 -32v-19h60l56 -57v-72l-55 -55h-89l-59 60v166l92 100h91l59 -63l53 63h85l90 -93v-283l-98 -99h-440zM348 201l22 22v35l-22 21h-34l-22 -21v-35l22 -22h34z" />
    <glyph glyph-name="uni0E53" unicode="&#xe53;" horiz-adv-x="748" 
d="M60 66v308l101 101h169l54 -54l54 54h149l101 -101v-374h-112v341l-37 37h-66l-35 -35v-343h-108v343l-36 35h-86l-38 -38v-131h46l67 -66v-77l-67 -66h-90zM191 66l21 21v37l-21 21h-36l-22 -21v-37l22 -21h36z" />
    <glyph glyph-name="uni0E54" unicode="&#xe54;" horiz-adv-x="676" 
d="M55 103v269l103 103h348l101 100l74 -74l-120 -123h-352l-41 -41v-204l39 -39h129l-61 79v93l63 63h96l63 -63v-77l-56 -56h-30l29 -39h187v-94h-469zM407 186l21 22v36l-21 22h-36l-22 -22v-36l22 -22h36z" />
    <glyph glyph-name="uni0E55" unicode="&#xe55;" horiz-adv-x="676" 
d="M440 94h187v-94h-469l-103 103v269l103 103h81v62l67 67h86l67 -67v-62h47l101 100l74 -74l-120 -123h-352l-41 -41v-204l39 -39h129l-61 79v93l63 63h96l63 -63v-77l-56 -56h-30zM313 484l21 -22h33l21 22v33l-21 21h-33l-21 -21v-33zM407 186l21 22v36l-21 22h-36
l-22 -22v-36l22 -22h36z" />
    <glyph glyph-name="uni0E56" unicode="&#xe56;" horiz-adv-x="641" 
d="M73 81v83l75 75h84l73 -73v-46l-22 -25h149l41 43v202l-37 38h-320l-121 123l74 74l100 -100h318l99 -100v-273l-101 -102h-329zM202 83l27 29v29l-23 23h-33l-23 -23v-35l23 -23h29z" />
    <glyph glyph-name="uni0E57" unicode="&#xe57;" horiz-adv-x="885" 
d="M60 65v309l101 101h156l53 -54l55 54h132l98 -98v-282h40l21 21v554h109v-589l-81 -81h-198v342l-36 36h-52l-36 -35v-343h-104v343l-35 35h-74l-38 -38v-132h43l67 -66v-77l-65 -65h-91zM189 65l22 21v37l-22 21h-36l-21 -21v-37l21 -21h36z" />
    <glyph glyph-name="uni0E58" unicode="&#xe58;" horiz-adv-x="685" 
d="M55 91v281l103 103h324l101 100l74 -74l-120 -123h-328l-41 -41v-211l29 -29h27l95 99l104 -103h86l24 22v17h-52l-57 57v73l61 62h91l63 -63v-165l-96 -96h-150l-74 76l-71 -76h-102zM549 186l21 21v35l-21 22h-35l-21 -22v-35l21 -21h35z" />
    <glyph glyph-name="uni0E59" unicode="&#xe59;" horiz-adv-x="667" 
d="M439 345l194 -298l-76 -61l-257 392h-103l-39 -38v-218l40 -40h31l-23 25v50l59 59h82l61 -61v-85l-72 -70h-188l-93 93v279l103 103h196l34 -51l52 51h76l97 99l64 -69l-119 -123h-82zM268 103l28 -29h29l22 24v35l-22 23h-33l-24 -23v-30z" />
    <glyph glyph-name="uni0E5A" unicode="&#xe5a;" horiz-adv-x="750" 
d="M350 368l-54 -49h-194l-82 83v87l69 69h88l66 -66v-68l-22 -26l32 2h22l78 74v84h108v-160h38l78 74v86h108v-558h-112v363l-61 -54h-51v-309h-111v368zM153 408l21 21v38l-21 21h-38l-21 -21v-38l21 -21h38z" />
    <glyph glyph-name="uni0E5B" unicode="&#xe5b;" horiz-adv-x="1180" 
d="M45 137v280l101 100h208l83 -82v-202l-70 -63h-95l-63 63v85l56 57h51l19 -17h5v34l-29 27h-117l-40 -39v-207l40 -40h228l45 43l81 268h79l71 -196l58 176h68l58 -154l51 134h60l46 -86h116v-89h-144l-38 69l-60 -155h-64l-59 150l-56 -170h-72l-65 175l-48 -169
l-92 -92h-311zM338 235l20 21v37l-20 21h-36l-22 -21v-37l22 -21h36z" />
    <glyph glyph-name="uni1E0C" unicode="&#x1e0c;" horiz-adv-x="680" 
d="M70 700h433l117 -117v-466l-117 -117h-433v700zM447 100l57 56v388l-57 56h-261v-500h261zM267 -147v56l36 36h62l36 -36v-56l-36 -36h-62z" />
    <glyph glyph-name="uni1E0D" unicode="&#x1e0d;" horiz-adv-x="595" 
d="M55 100v298l99 100h196l67 -58v274h113v-714h-107v82l-82 -82h-187zM328 97l89 90v146l-77 68h-130l-42 -42v-220l42 -42h118zM230 -147v56l36 36h62l36 -36v-56l-36 -36h-62z" />
    <glyph glyph-name="uni1E0E" unicode="&#x1e0e;" horiz-adv-x="680" 
d="M70 700h433l117 -117v-466l-117 -117h-433v700zM447 100l57 56v388l-57 56h-261v-500h261zM174 -66h320v-90h-320v90z" />
    <glyph glyph-name="uni1E0F" unicode="&#x1e0f;" horiz-adv-x="595" 
d="M55 100v298l99 100h196l67 -58v274h113v-714h-107v82l-82 -82h-187zM328 97l89 90v146l-77 68h-130l-42 -42v-220l42 -42h118zM137 -66h320v-90h-320v90z" />
    <glyph glyph-name="uni1E20" unicode="&#x1e20;" horiz-adv-x="668" 
d="M60 113v474l113 113h334l111 -111v-92h-116v51l-53 52h-216l-57 -56v-388l57 -56h216l56 55v127h-153v100h266v-269l-113 -113h-332zM178 855h320v-90h-320v90z" />
    <glyph glyph-name="uni1E21" unicode="&#x1e21;" horiz-adv-x="595" 
d="M530 498v-616l-103 -102h-263l-87 87v66h112v-33l25 -25h164l39 40v156l-77 -71h-186l-99 100v298l99 100h194l76 -74v74h106zM417 326l-80 75h-127l-42 -42v-220l42 -42h118l89 87v142zM135 653h320v-90h-320v90z" />
    <glyph glyph-name="uni1E24" unicode="&#x1e24;" horiz-adv-x="690" 
d="M70 700h116v-301h318v301h116v-700h-116v299h-318v-299h-116v700zM280 -147v56l36 36h62l36 -36v-56l-36 -36h-62z" />
    <glyph glyph-name="uni1E25" unicode="&#x1e25;" horiz-adv-x="586" 
d="M65 714h113v-302l86 86h157l105 -105v-393h-113v362l-39 39h-92l-104 -105v-296h-113v714zM230 -147v56l36 36h62l36 -36v-56l-36 -36h-62z" />
    <glyph glyph-name="uni1E2A" unicode="&#x1e2a;" horiz-adv-x="690" 
d="M70 700h116v-301h318v301h116v-700h-116v299h-318v-299h-116v700zM189 -133v70h95v-45l30 -31h66l30 31v45h95v-70l-79 -80h-158z" />
    <glyph glyph-name="uni1E2B" unicode="&#x1e2b;" horiz-adv-x="586" 
d="M65 714h113v-302l86 86h157l105 -105v-393h-113v362l-39 39h-92l-104 -105v-296h-113v714zM139 -133v70h95v-45l30 -31h66l30 31v45h95v-70l-79 -80h-158z" />
    <glyph glyph-name="uni1E36" unicode="&#x1e36;" horiz-adv-x="553" 
d="M70 700h116v-601h352v-99h-468v700zM239 -147v56l36 36h62l36 -36v-56l-36 -36h-62z" />
    <glyph glyph-name="uni1E37" unicode="&#x1e37;" horiz-adv-x="253" 
d="M70 714h113v-714h-113v714zM59 -147v56l36 36h62l36 -36v-56l-36 -36h-62z" />
    <glyph glyph-name="uni1E38" unicode="&#x1e38;" horiz-adv-x="553" 
d="M70 700h116v-601h352v-99h-468v700zM-32 855h320v-90h-320v90zM239 -147v56l36 36h62l36 -36v-56l-36 -36h-62z" />
    <glyph glyph-name="uni1E39" unicode="&#x1e39;" horiz-adv-x="253" 
d="M70 714h113v-714h-113v714zM-34 879h320v-90h-320v90zM59 -147v56l36 36h62l36 -36v-56l-36 -36h-62z" />
    <glyph glyph-name="uni1E3A" unicode="&#x1e3a;" horiz-adv-x="553" 
d="M70 700h116v-601h352v-99h-468v700zM146 -66h320v-90h-320v90z" />
    <glyph glyph-name="uni1E3B" unicode="&#x1e3b;" horiz-adv-x="253" 
d="M70 714h113v-714h-113v714zM-34 -66h320v-90h-320v90z" />
    <glyph glyph-name="uni1E42" unicode="&#x1e42;" horiz-adv-x="793" 
d="M70 700h111l214 -482h2l214 482h112v-700h-111v468h-2l-176 -379h-76l-175 379h-2v-468h-111v700zM329 -147v56l36 36h62l36 -36v-56l-36 -36h-62z" />
    <glyph glyph-name="uni1E43" unicode="&#x1e43;" horiz-adv-x="853" 
d="M65 498h105v-87l86 87h124l71 -72l72 72h168l102 -103v-395h-113v362l-39 39h-93l-58 -58v-343h-110v363l-38 38h-68l-96 -97v-304h-113v498zM368 -147v56l36 36h62l36 -36v-56l-36 -36h-62z" />
    <glyph glyph-name="uni1E44" unicode="&#x1e44;" horiz-adv-x="689" 
d="M70 700h106l330 -509h2v509h111v-700h-106l-330 508h-2v-508h-111v700zM278 793v56l36 36h62l36 -36v-56l-36 -36h-62z" />
    <glyph glyph-name="uni1E45" unicode="&#x1e45;" horiz-adv-x="584" 
d="M65 498h105v-91l91 91h158l105 -105v-393h-113v362l-39 39h-90l-104 -105v-296h-113v498zM231 591v56l36 36h62l36 -36v-56l-36 -36h-62z" />
    <glyph glyph-name="uni1E46" unicode="&#x1e46;" horiz-adv-x="689" 
d="M70 700h106l330 -509h2v509h111v-700h-106l-330 508h-2v-508h-111v700zM278 -147v56l36 36h62l36 -36v-56l-36 -36h-62z" />
    <glyph glyph-name="uni1E47" unicode="&#x1e47;" horiz-adv-x="584" 
d="M65 498h105v-91l91 91h158l105 -105v-393h-113v362l-39 39h-90l-104 -105v-296h-113v498zM228 -147v56l36 36h62l36 -36v-56l-36 -36h-62z" />
    <glyph glyph-name="uni1E48" unicode="&#x1e48;" horiz-adv-x="689" 
d="M70 700h106l330 -509h2v509h111v-700h-106l-330 508h-2v-508h-111v700zM185 -66h320v-90h-320v90z" />
    <glyph glyph-name="uni1E49" unicode="&#x1e49;" horiz-adv-x="584" 
d="M65 498h105v-91l91 91h158l105 -105v-393h-113v362l-39 39h-90l-104 -105v-296h-113v498zM135 -66h320v-90h-320v90z" />
    <glyph glyph-name="uni1E5A" unicode="&#x1e5a;" horiz-adv-x="667" 
d="M602 226v-226h-116v198l-72 79h-228v-277h-116v700h426l102 -103v-215l-73 -73zM186 373h258l40 40v149l-40 40h-258v-229zM265 -147v56l36 36h62l36 -36v-56l-36 -36h-62z" />
    <glyph glyph-name="uni1E5B" unicode="&#x1e5b;" horiz-adv-x="401" 
d="M65 498h105v-85l83 85h138v-97h-113l-100 -102v-299h-113v498zM54 -147v56l36 36h62l36 -36v-56l-36 -36h-62z" />
    <glyph glyph-name="uni1E5C" unicode="&#x1e5c;" horiz-adv-x="667" 
d="M602 226v-226h-116v198l-72 79h-228v-277h-116v700h426l102 -103v-215l-73 -73zM186 373h258l40 40v149l-40 40h-258v-229zM164 855h320v-90h-320v90zM265 -147v56l36 36h62l36 -36v-56l-36 -36h-62z" />
    <glyph glyph-name="uni1E5D" unicode="&#x1e5d;" horiz-adv-x="401" 
d="M65 498h105v-85l83 85h138v-97h-113l-100 -102v-299h-113v498zM64 653h320v-90h-320v90zM54 -147v56l36 36h62l36 -36v-56l-36 -36h-62z" />
    <glyph glyph-name="uni1E5E" unicode="&#x1e5e;" horiz-adv-x="667" 
d="M602 226v-226h-116v198l-72 79h-228v-277h-116v700h426l102 -103v-215l-73 -73zM186 373h258l40 40v149l-40 40h-258v-229zM172 -66h320v-90h-320v90z" />
    <glyph glyph-name="uni1E5F" unicode="&#x1e5f;" horiz-adv-x="401" 
d="M65 498h105v-85l83 85h138v-97h-113l-100 -102v-299h-113v498zM-39 -66h320v-90h-320v90z" />
    <glyph glyph-name="uni1E60" unicode="&#x1e60;" horiz-adv-x="629" 
d="M55 103v88h114v-53l38 -38h218l40 40v129l-39 39h-266l-103 102v187l103 103h308l103 -103v-89h-114v54l-39 38h-208l-39 -38v-116l39 -38h266l103 -103v-200l-105 -105h-316zM247 793v56l36 36h62l36 -36v-56l-36 -36h-62z" />
    <glyph glyph-name="uni1E61" unicode="&#x1e61;" horiz-adv-x="528" 
d="M40 93v61h111v-32l28 -29h170l28 29v54l-29 29h-215l-89 90v112l91 91h251l92 -93v-61h-111v32l-28 29h-156l-28 -29v-50l29 -29h214l90 -91v-115l-91 -91h-265zM193 591v56l36 36h62l36 -36v-56l-36 -36h-62z" />
    <glyph glyph-name="uni1E62" unicode="&#x1e62;" horiz-adv-x="629" 
d="M55 103v88h114v-53l38 -38h218l40 40v129l-39 39h-266l-103 102v187l103 103h308l103 -103v-89h-114v54l-39 38h-208l-39 -38v-116l39 -38h266l103 -103v-200l-105 -105h-316zM252 -147v56l36 36h62l36 -36v-56l-36 -36h-62z" />
    <glyph glyph-name="uni1E63" unicode="&#x1e63;" horiz-adv-x="528" 
d="M40 93v61h111v-32l28 -29h170l28 29v54l-29 29h-215l-89 90v112l91 91h251l92 -93v-61h-111v32l-28 29h-156l-28 -29v-50l29 -29h214l90 -91v-115l-91 -91h-265zM205 -147v56l36 36h62l36 -36v-56l-36 -36h-62z" />
    <glyph glyph-name="uni1E6C" unicode="&#x1e6c;" horiz-adv-x="576" 
d="M230 601h-210v99h536v-99h-210v-601h-116v601zM221 -147v56l36 36h62l36 -36v-56l-36 -36h-62z" />
    <glyph glyph-name="uni1E6D" unicode="&#x1e6d;" horiz-adv-x="406" 
d="M110 99v303h-90v96h92v162h111v-162h153v-96h-153v-267l39 -39h114v-96h-167zM162 -147v56l36 36h62l36 -36v-56l-36 -36h-62z" />
    <glyph glyph-name="uni1E6E" unicode="&#x1e6e;" horiz-adv-x="576" 
d="M230 601h-210v99h536v-99h-210v-601h-116v601zM128 -66h320v-90h-320v90z" />
    <glyph glyph-name="uni1E6F" unicode="&#x1e6f;" horiz-adv-x="406" 
d="M110 99v303h-90v96h92v162h111v-162h153v-96h-153v-267l39 -39h114v-96h-167zM69 -66h320v-90h-320v90z" />
    <glyph glyph-name="Wgrave" unicode="&#x1e80;" horiz-adv-x="874" 
d="M30 700h117l94 -527h3l149 527h93l144 -527h4l93 527h117l-144 -700h-112l-147 525h-3l-152 -525h-112zM285 916h121l76 -165h-101z" />
    <glyph glyph-name="wgrave" unicode="&#x1e81;" horiz-adv-x="722" 
d="M25 498h115l66 -347h4l100 347h104l91 -347h4l73 347h115l-128 -498h-109l-98 361h-4l-105 -361h-109zM208 714h121l76 -165h-101z" />
    <glyph glyph-name="Wacute" unicode="&#x1e82;" horiz-adv-x="874" 
d="M30 700h117l94 -527h3l149 527h93l144 -527h4l93 527h117l-144 -700h-112l-147 525h-3l-152 -525h-112zM462 916h121l-96 -165h-101z" />
    <glyph glyph-name="wacute" unicode="&#x1e83;" horiz-adv-x="722" 
d="M25 498h115l66 -347h4l100 347h104l91 -347h4l73 347h115l-128 -498h-109l-98 361h-4l-105 -361h-109zM385 714h121l-96 -165h-101z" />
    <glyph glyph-name="Wdieresis" unicode="&#x1e84;" horiz-adv-x="874" 
d="M30 700h117l94 -527h3l149 527h93l144 -527h4l93 527h117l-144 -700h-112l-147 525h-3l-152 -525h-112zM266 794v54l35 35h60l34 -36v-52l-34 -36h-60zM479 795v52l34 36h60l35 -35v-54l-35 -35h-60z" />
    <glyph glyph-name="wdieresis" unicode="&#x1e85;" horiz-adv-x="722" 
d="M25 498h115l66 -347h4l100 347h104l91 -347h4l73 347h115l-128 -498h-109l-98 361h-4l-105 -361h-109zM189 592v54l35 35h60l34 -36v-52l-34 -36h-60zM402 593v52l34 36h60l35 -35v-54l-35 -35h-60z" />
    <glyph glyph-name="uni1E8E" unicode="&#x1e8e;" horiz-adv-x="620" 
d="M252 288l-247 412h127l177 -304h2l177 304h127l-247 -412v-288h-116v288zM243 793v56l36 36h62l36 -36v-56l-36 -36h-62z" />
    <glyph glyph-name="uni1E8F" unicode="&#x1e8f;" horiz-adv-x="585" 
d="M520 498v-616l-103 -102h-254l-88 87v66h113v-33l24 -25h156l39 40v170l-84 -85h-161l-102 103v395h113v-362l39 -39h91l104 108v293h113zM224 591v56l36 36h62l36 -36v-56l-36 -36h-62z" />
    <glyph glyph-name="uni1E92" unicode="&#x1e92;" horiz-adv-x="584" 
d="M40 97l368 503v2h-358v98h494v-97l-368 -503v-2h368v-98h-504v97zM226 -147v56l36 36h62l36 -36v-56l-36 -36h-62z" />
    <glyph glyph-name="uni1E93" unicode="&#x1e93;" horiz-adv-x="490" 
d="M30 91l288 313v2h-278v92h420v-91l-288 -313v-2h288v-92h-430v91zM181 -147v56l36 36h62l36 -36v-56l-36 -36h-62z" />
    <glyph glyph-name="uni1E97" unicode="&#x1e97;" horiz-adv-x="406" 
d="M110 99v303h-90v96h92v162h111v-162h153v-96h-153v-267l39 -39h114v-96h-167zM2 754v54l35 35h60l34 -36v-52l-34 -36h-60zM215 755v52l34 36h60l35 -35v-54l-35 -35h-60z" />
    <glyph glyph-name="uni1E9E" unicode="&#x1e9e;" horiz-adv-x="681" 
d="M641 310v-217l-93 -93h-199l-91 91v80h113v-43l29 -29h98l28 29v151l-29 30h-158v93l126 197h-245l-34 -34v-565h-116v602l98 98h416v-101l-128 -196h92z" />
    <glyph glyph-name="uni1EA0" unicode="&#x1ea0;" horiz-adv-x="637" 
d="M264 700h110l253 -700h-118l-60 166h-261l-60 -166h-118zM422 263l-103 296h-2l-101 -296h206zM252 -147v56l36 36h62l36 -36v-56l-36 -36h-62z" />
    <glyph glyph-name="uni1EA1" unicode="&#x1ea1;" horiz-adv-x="567" 
d="M50 89v118l89 88h257v74l-37 37h-157l-37 -37v-32h-111v58l102 103h249l102 -103v-395h-103v77l-80 -77h-185zM313 89l83 80v42h-203l-32 -31v-61l30 -30h122zM218 -147v56l36 36h62l36 -36v-56l-36 -36h-62z" />
    <glyph glyph-name="uni1EA2" unicode="&#x1ea2;" horiz-adv-x="637" 
d="M264 700h110l253 -700h-118l-60 166h-261l-60 -166h-118zM422 263l-103 296h-2l-101 -296h206zM270 803l84 69v28l-14 13h-43l-14 -14v-34h-88v60l62 61h124l62 -61v-76l-74 -61v-37h-99v52z" />
    <glyph glyph-name="uni1EA3" unicode="&#x1ea3;" horiz-adv-x="567" 
d="M50 89v118l89 88h257v74l-37 37h-157l-37 -37v-32h-111v58l102 103h249l102 -103v-395h-103v77l-80 -77h-185zM313 89l83 80v42h-203l-32 -31v-61l30 -30h122zM236 601l84 69v28l-14 13h-43l-14 -14v-34h-88v60l62 61h124l62 -61v-76l-74 -61v-37h-99v52z" />
    <glyph glyph-name="uni1EA4" unicode="&#x1ea4;" horiz-adv-x="637" 
d="M264 700h110l253 -700h-118l-60 166h-261l-60 -166h-118zM422 263l-103 296h-2l-101 -296h206zM487 1034h109l-85 -140h-89zM271 905h96l129 -154h-109l-65 80h-6l-65 -80h-109z" />
    <glyph glyph-name="uni1EA5" unicode="&#x1ea5;" horiz-adv-x="567" 
d="M50 89v118l89 88h257v74l-37 37h-157l-37 -37v-32h-111v58l102 103h249l102 -103v-395h-103v77l-80 -77h-185zM313 89l83 80v42h-203l-32 -31v-61l30 -30h122zM453 832h109l-85 -140h-89zM237 703h96l129 -154h-109l-65 80h-6l-65 -80h-109z" />
    <glyph glyph-name="uni1EA6" unicode="&#x1ea6;" horiz-adv-x="637" 
d="M264 700h110l253 -700h-118l-60 166h-261l-60 -166h-118zM422 263l-103 296h-2l-101 -296h206zM363 1034h109l65 -140h-89zM271 905h96l129 -154h-109l-65 80h-6l-65 -80h-109z" />
    <glyph glyph-name="uni1EA7" unicode="&#x1ea7;" horiz-adv-x="567" 
d="M50 89v118l89 88h257v74l-37 37h-157l-37 -37v-32h-111v58l102 103h249l102 -103v-395h-103v77l-80 -77h-185zM313 89l83 80v42h-203l-32 -31v-61l30 -30h122zM329 832h109l65 -140h-89zM237 703h96l129 -154h-109l-65 80h-6l-65 -80h-109z" />
    <glyph glyph-name="uni1EA8" unicode="&#x1ea8;" horiz-adv-x="637" 
d="M264 700h110l253 -700h-118l-60 166h-261l-60 -166h-118zM422 263l-103 296h-2l-101 -296h206zM444 901l72 59v23l-12 12h-35l-13 -12v-29h-77v51l54 54h107l54 -54v-66l-63 -50v-26h-87v38zM271 905h96l129 -154h-109l-65 80h-6l-65 -80h-109z" />
    <glyph glyph-name="uni1EA9" unicode="&#x1ea9;" horiz-adv-x="567" 
d="M50 89v118l89 88h257v74l-37 37h-157l-37 -37v-32h-111v58l102 103h249l102 -103v-395h-103v77l-80 -77h-185zM313 89l83 80v42h-203l-32 -31v-61l30 -30h122zM410 699l72 59v23l-12 12h-35l-13 -12v-29h-77v51l54 54h107l54 -54v-66l-63 -50v-26h-87v38zM237 703h96
l129 -154h-109l-65 80h-6l-65 -80h-109z" />
    <glyph glyph-name="uni1EAA" unicode="&#x1eaa;" horiz-adv-x="637" 
d="M264 700h110l253 -700h-118l-60 166h-261l-60 -166h-118zM422 263l-103 296h-2l-101 -296h206zM279 990h-23l-15 -14v-30h-77v53l62 62h70l63 -50h24l14 14v30h77v-53l-62 -62h-70zM271 905h96l129 -154h-109l-65 80h-6l-65 -80h-109z" />
    <glyph glyph-name="uni1EAB" unicode="&#x1eab;" horiz-adv-x="567" 
d="M50 89v118l89 88h257v74l-37 37h-157l-37 -37v-32h-111v58l102 103h249l102 -103v-395h-103v77l-80 -77h-185zM313 89l83 80v42h-203l-32 -31v-61l30 -30h122zM245 788h-23l-15 -14v-30h-77v53l62 62h70l63 -50h24l14 14v30h77v-53l-62 -62h-70zM237 703h96l129 -154
h-109l-65 80h-6l-65 -80h-109z" />
    <glyph glyph-name="uni1EAC" unicode="&#x1eac;" horiz-adv-x="637" 
d="M264 700h110l253 -700h-118l-60 166h-261l-60 -166h-118zM422 263l-103 296h-2l-101 -296h206zM271 905h96l129 -154h-109l-65 80h-6l-65 -80h-109zM252 -147v56l36 36h62l36 -36v-56l-36 -36h-62z" />
    <glyph glyph-name="uni1EAD" unicode="&#x1ead;" horiz-adv-x="567" 
d="M50 89v118l89 88h257v74l-37 37h-157l-37 -37v-32h-111v58l102 103h249l102 -103v-395h-103v77l-80 -77h-185zM313 89l83 80v42h-203l-32 -31v-61l30 -30h122zM237 703h96l129 -154h-109l-65 80h-6l-65 -80h-109zM218 -147v56l36 36h62l36 -36v-56l-36 -36h-62z" />
    <glyph glyph-name="uni1EAE" unicode="&#x1eae;" horiz-adv-x="637" 
d="M264 700h110l253 -700h-118l-60 166h-261l-60 -166h-118zM422 263l-103 296h-2l-101 -296h206zM336 1072h109l-85 -141h-89zM161 831v70h95v-45l30 -31h66l30 31v45h95v-70l-79 -80h-158z" />
    <glyph glyph-name="uni1EAF" unicode="&#x1eaf;" horiz-adv-x="567" 
d="M50 89v118l89 88h257v74l-37 37h-157l-37 -37v-32h-111v58l102 103h249l102 -103v-395h-103v77l-80 -77h-185zM313 89l83 80v42h-203l-32 -31v-61l30 -30h122zM302 870h109l-85 -141h-89zM127 629v70h95v-45l30 -31h66l30 31v45h95v-70l-79 -80h-158z" />
    <glyph glyph-name="uni1EB0" unicode="&#x1eb0;" horiz-adv-x="637" 
d="M264 700h110l253 -700h-118l-60 166h-261l-60 -166h-118zM422 263l-103 296h-2l-101 -296h206zM191 1072h109l65 -141h-89zM161 831v70h95v-45l30 -31h66l30 31v45h95v-70l-79 -80h-158z" />
    <glyph glyph-name="uni1EB1" unicode="&#x1eb1;" horiz-adv-x="567" 
d="M50 89v118l89 88h257v74l-37 37h-157l-37 -37v-32h-111v58l102 103h249l102 -103v-395h-103v77l-80 -77h-185zM313 89l83 80v42h-203l-32 -31v-61l30 -30h122zM157 870h109l65 -141h-89zM127 629v70h95v-45l30 -31h66l30 31v45h95v-70l-79 -80h-158z" />
    <glyph glyph-name="uni1EB2" unicode="&#x1eb2;" horiz-adv-x="637" 
d="M264 700h110l253 -700h-118l-60 166h-261l-60 -166h-118zM422 263l-103 296h-2l-101 -296h206zM276 965l73 58v22l-12 12h-36l-13 -12v-28h-77v48l54 55h108l54 -55v-63l-64 -48v-25h-87v36zM161 831v70h95v-45l30 -31h66l30 31v45h95v-70l-79 -80h-158z" />
    <glyph glyph-name="uni1EB3" unicode="&#x1eb3;" horiz-adv-x="567" 
d="M50 89v118l89 88h257v74l-37 37h-157l-37 -37v-32h-111v58l102 103h249l102 -103v-395h-103v77l-80 -77h-185zM313 89l83 80v42h-203l-32 -31v-61l30 -30h122zM242 763l73 58v22l-12 12h-36l-13 -12v-28h-77v48l54 55h108l54 -55v-63l-64 -48v-25h-87v36zM127 629v70h95
v-45l30 -31h66l30 31v45h95v-70l-79 -80h-158z" />
    <glyph glyph-name="uni1EB4" unicode="&#x1eb4;" horiz-adv-x="637" 
d="M264 700h110l253 -700h-118l-60 166h-261l-60 -166h-118zM422 263l-103 296h-2l-101 -296h206zM279 989h-23l-15 -15v-29h-77v53l62 62h70l63 -50h24l14 14v30h77v-53l-62 -62h-70zM161 831v70h95v-45l30 -31h66l30 31v45h95v-70l-79 -80h-158z" />
    <glyph glyph-name="uni1EB5" unicode="&#x1eb5;" horiz-adv-x="567" 
d="M50 89v118l89 88h257v74l-37 37h-157l-37 -37v-32h-111v58l102 103h249l102 -103v-395h-103v77l-80 -77h-185zM313 89l83 80v42h-203l-32 -31v-61l30 -30h122zM245 787h-23l-15 -15v-29h-77v53l62 62h70l63 -50h24l14 14v30h77v-53l-62 -62h-70zM127 629v70h95v-45
l30 -31h66l30 31v45h95v-70l-79 -80h-158z" />
    <glyph glyph-name="uni1EB6" unicode="&#x1eb6;" horiz-adv-x="637" 
d="M264 700h110l253 -700h-118l-60 166h-261l-60 -166h-118zM422 263l-103 296h-2l-101 -296h206zM161 831v70h95v-45l30 -31h66l30 31v45h95v-70l-79 -80h-158zM252 -147v56l36 36h62l36 -36v-56l-36 -36h-62z" />
    <glyph glyph-name="uni1EB7" unicode="&#x1eb7;" horiz-adv-x="567" 
d="M50 89v118l89 88h257v74l-37 37h-157l-37 -37v-32h-111v58l102 103h249l102 -103v-395h-103v77l-80 -77h-185zM313 89l83 80v42h-203l-32 -31v-61l30 -30h122zM127 629v70h95v-45l30 -31h66l30 31v45h95v-70l-79 -80h-158zM218 -147v56l36 36h62l36 -36v-56l-36 -36h-62z
" />
    <glyph glyph-name="uni1EB8" unicode="&#x1eb8;" horiz-adv-x="598" 
d="M70 700h488v-99h-372v-200h343v-98h-343v-204h372v-99h-488v700zM257 -147v56l36 36h62l36 -36v-56l-36 -36h-62z" />
    <glyph glyph-name="uni1EB9" unicode="&#x1eb9;" horiz-adv-x="576" 
d="M55 99v299l99 100h271l101 -100v-186h-358v-80l38 -38h171l36 37v30h112v-64l-97 -97h-275zM413 295v69l-39 40h-167l-39 -40v-69h245zM224 -147v56l36 36h62l36 -36v-56l-36 -36h-62z" />
    <glyph glyph-name="uni1EBA" unicode="&#x1eba;" horiz-adv-x="598" 
d="M70 700h488v-99h-372v-200h343v-98h-343v-204h372v-99h-488v700zM271 803l84 69v28l-14 13h-43l-14 -14v-34h-88v60l62 61h124l62 -61v-76l-74 -61v-37h-99v52z" />
    <glyph glyph-name="uni1EBB" unicode="&#x1ebb;" horiz-adv-x="576" 
d="M55 99v299l99 100h271l101 -100v-186h-358v-80l38 -38h171l36 37v30h112v-64l-97 -97h-275zM413 295v69l-39 40h-167l-39 -40v-69h245zM242 601l84 69v28l-14 13h-43l-14 -14v-34h-88v60l62 61h124l62 -61v-76l-74 -61v-37h-99v52z" />
    <glyph glyph-name="uni1EBC" unicode="&#x1ebc;" horiz-adv-x="598" 
d="M70 700h488v-99h-372v-200h343v-98h-343v-204h372v-99h-488v700zM277 813h-20l-15 -14v-31l-84 -1v63l64 63h77l64 -52h21l14 14v32h84v-62l-64 -64h-77z" />
    <glyph glyph-name="uni1EBD" unicode="&#x1ebd;" horiz-adv-x="576" 
d="M55 99v299l99 100h271l101 -100v-186h-358v-80l38 -38h171l36 37v30h112v-64l-97 -97h-275zM413 295v69l-39 40h-167l-39 -40v-69h245zM248 611h-20l-15 -14v-31l-84 -1v63l64 63h77l64 -52h21l14 14v32h84v-62l-64 -64h-77z" />
    <glyph glyph-name="uni1EBE" unicode="&#x1ebe;" horiz-adv-x="598" 
d="M70 700h488v-99h-372v-200h343v-98h-343v-204h372v-99h-488v700zM488 1034h109l-85 -140h-89zM272 905h96l129 -154h-109l-65 80h-6l-65 -80h-109z" />
    <glyph glyph-name="uni1EBF" unicode="&#x1ebf;" horiz-adv-x="576" 
d="M55 99v299l99 100h271l101 -100v-186h-358v-80l38 -38h171l36 37v30h112v-64l-97 -97h-275zM413 295v69l-39 40h-167l-39 -40v-69h245zM459 832h109l-85 -140h-89zM243 703h96l129 -154h-109l-65 80h-6l-65 -80h-109z" />
    <glyph glyph-name="uni1EC0" unicode="&#x1ec0;" horiz-adv-x="598" 
d="M70 700h488v-99h-372v-200h343v-98h-343v-204h372v-99h-488v700zM364 1034h109l65 -140h-89zM272 905h96l129 -154h-109l-65 80h-6l-65 -80h-109z" />
    <glyph glyph-name="uni1EC1" unicode="&#x1ec1;" horiz-adv-x="576" 
d="M55 99v299l99 100h271l101 -100v-186h-358v-80l38 -38h171l36 37v30h112v-64l-97 -97h-275zM413 295v69l-39 40h-167l-39 -40v-69h245zM335 832h109l65 -140h-89zM243 703h96l129 -154h-109l-65 80h-6l-65 -80h-109z" />
    <glyph glyph-name="uni1EC2" unicode="&#x1ec2;" horiz-adv-x="598" 
d="M70 700h488v-99h-372v-200h343v-98h-343v-204h372v-99h-488v700zM445 901l72 59v23l-12 12h-35l-13 -12v-29h-77v51l54 54h107l54 -54v-66l-63 -50v-26h-87v38zM272 905h96l129 -154h-109l-65 80h-6l-65 -80h-109z" />
    <glyph glyph-name="uni1EC3" unicode="&#x1ec3;" horiz-adv-x="576" 
d="M55 99v299l99 100h271l101 -100v-186h-358v-80l38 -38h171l36 37v30h112v-64l-97 -97h-275zM413 295v69l-39 40h-167l-39 -40v-69h245zM416 699l72 59v23l-12 12h-35l-13 -12v-29h-77v51l54 54h107l54 -54v-66l-63 -50v-26h-87v38zM243 703h96l129 -154h-109l-65 80h-6
l-65 -80h-109z" />
    <glyph glyph-name="uni1EC4" unicode="&#x1ec4;" horiz-adv-x="598" 
d="M70 700h488v-99h-372v-200h343v-98h-343v-204h372v-99h-488v700zM280 990h-23l-15 -14v-30h-77v53l62 62h70l63 -50h24l14 14v30h77v-53l-62 -62h-70zM272 905h96l129 -154h-109l-65 80h-6l-65 -80h-109z" />
    <glyph glyph-name="uni1EC5" unicode="&#x1ec5;" horiz-adv-x="576" 
d="M55 99v299l99 100h271l101 -100v-186h-358v-80l38 -38h171l36 37v30h112v-64l-97 -97h-275zM413 295v69l-39 40h-167l-39 -40v-69h245zM251 788h-23l-15 -14v-30h-77v53l62 62h70l63 -50h24l14 14v30h77v-53l-62 -62h-70zM243 703h96l129 -154h-109l-65 80h-6l-65 -80
h-109z" />
    <glyph glyph-name="uni1EC6" unicode="&#x1ec6;" horiz-adv-x="598" 
d="M70 700h488v-99h-372v-200h343v-98h-343v-204h372v-99h-488v700zM272 905h96l129 -154h-109l-65 80h-6l-65 -80h-109zM257 -147v56l36 36h62l36 -36v-56l-36 -36h-62z" />
    <glyph glyph-name="uni1EC7" unicode="&#x1ec7;" horiz-adv-x="576" 
d="M55 99v299l99 100h271l101 -100v-186h-358v-80l38 -38h171l36 37v30h112v-64l-97 -97h-275zM413 295v69l-39 40h-167l-39 -40v-69h245zM243 703h96l129 -154h-109l-65 80h-6l-65 -80h-109zM224 -147v56l36 36h62l36 -36v-56l-36 -36h-62z" />
    <glyph glyph-name="uni1EC8" unicode="&#x1ec8;" horiz-adv-x="266" 
d="M75 700h116v-700h-116v700zM84 803l84 69v28l-14 13h-43l-14 -14v-34h-88v60l62 61h124l62 -61v-76l-74 -61v-37h-99v52z" />
    <glyph glyph-name="uni1EC9" unicode="&#x1ec9;" horiz-adv-x="263" 
d="M75 498h113v-498h-113v498zM82 601l84 69v28l-14 13h-43l-14 -14v-34h-88v60l62 61h124l62 -61v-76l-74 -61v-37h-99v52z" />
    <glyph glyph-name="uni1ECA" unicode="&#x1eca;" horiz-adv-x="266" 
d="M75 700h116v-700h-116v700zM66 -147v56l36 36h62l36 -36v-56l-36 -36h-62z" />
    <glyph glyph-name="uni1ECB" unicode="&#x1ecb;" horiz-adv-x="263" 
d="M60 605v58l41 40h61l41 -40v-58l-41 -40h-61zM75 498h113v-498h-113v498zM64 -147v56l36 36h62l36 -36v-56l-36 -36h-62z" />
    <glyph glyph-name="uni1ECC" unicode="&#x1ecc;" horiz-adv-x="692" 
d="M60 113v474l113 113h346l113 -113v-474l-113 -113h-346zM459 100l57 56v388l-57 56h-226l-57 -56v-388l57 -56h226zM279 -147v56l36 36h62l36 -36v-56l-36 -36h-62z" />
    <glyph glyph-name="uni1ECD" unicode="&#x1ecd;" horiz-adv-x="585" 
d="M55 100v298l99 100h276l100 -100v-298l-100 -100h-276zM377 95l40 40v228l-40 40h-169l-40 -40v-228l40 -40h169zM226 -147v56l36 36h62l36 -36v-56l-36 -36h-62z" />
    <glyph glyph-name="uni1ECE" unicode="&#x1ece;" horiz-adv-x="692" 
d="M60 113v474l113 113h346l113 -113v-474l-113 -113h-346zM459 100l57 56v388l-57 56h-226l-57 -56v-388l57 -56h226zM297 803l84 69v28l-14 13h-43l-14 -14v-34h-88v60l62 61h124l62 -61v-76l-74 -61v-37h-99v52z" />
    <glyph glyph-name="uni1ECF" unicode="&#x1ecf;" horiz-adv-x="585" 
d="M55 100v298l99 100h276l100 -100v-298l-100 -100h-276zM377 95l40 40v228l-40 40h-169l-40 -40v-228l40 -40h169zM244 601l84 69v28l-14 13h-43l-14 -14v-34h-88v60l62 61h124l62 -61v-76l-74 -61v-37h-99v52z" />
    <glyph glyph-name="uni1ED0" unicode="&#x1ed0;" horiz-adv-x="692" 
d="M60 113v474l113 113h346l113 -113v-474l-113 -113h-346zM459 100l57 56v388l-57 56h-226l-57 -56v-388l57 -56h226zM514 1034h109l-85 -140h-89zM298 905h96l129 -154h-109l-65 80h-6l-65 -80h-109z" />
    <glyph glyph-name="uni1ED1" unicode="&#x1ed1;" horiz-adv-x="585" 
d="M55 100v298l99 100h276l100 -100v-298l-100 -100h-276zM377 95l40 40v228l-40 40h-169l-40 -40v-228l40 -40h169zM461 832h109l-85 -140h-89zM245 703h96l129 -154h-109l-65 80h-6l-65 -80h-109z" />
    <glyph glyph-name="uni1ED2" unicode="&#x1ed2;" horiz-adv-x="692" 
d="M60 113v474l113 113h346l113 -113v-474l-113 -113h-346zM459 100l57 56v388l-57 56h-226l-57 -56v-388l57 -56h226zM390 1034h109l65 -140h-89zM298 905h96l129 -154h-109l-65 80h-6l-65 -80h-109z" />
    <glyph glyph-name="uni1ED3" unicode="&#x1ed3;" horiz-adv-x="585" 
d="M55 100v298l99 100h276l100 -100v-298l-100 -100h-276zM377 95l40 40v228l-40 40h-169l-40 -40v-228l40 -40h169zM337 832h109l65 -140h-89zM245 703h96l129 -154h-109l-65 80h-6l-65 -80h-109z" />
    <glyph glyph-name="uni1ED4" unicode="&#x1ed4;" horiz-adv-x="692" 
d="M60 113v474l113 113h346l113 -113v-474l-113 -113h-346zM459 100l57 56v388l-57 56h-226l-57 -56v-388l57 -56h226zM471 901l72 59v23l-12 12h-35l-13 -12v-29h-77v51l54 54h107l54 -54v-66l-63 -50v-26h-87v38zM298 905h96l129 -154h-109l-65 80h-6l-65 -80h-109z" />
    <glyph glyph-name="uni1ED5" unicode="&#x1ed5;" horiz-adv-x="585" 
d="M55 100v298l99 100h276l100 -100v-298l-100 -100h-276zM377 95l40 40v228l-40 40h-169l-40 -40v-228l40 -40h169zM418 699l72 59v23l-12 12h-35l-13 -12v-29h-77v51l54 54h107l54 -54v-66l-63 -50v-26h-87v38zM245 703h96l129 -154h-109l-65 80h-6l-65 -80h-109z" />
    <glyph glyph-name="uni1ED6" unicode="&#x1ed6;" horiz-adv-x="692" 
d="M60 113v474l113 113h346l113 -113v-474l-113 -113h-346zM459 100l57 56v388l-57 56h-226l-57 -56v-388l57 -56h226zM306 990h-23l-15 -14v-30h-77v53l62 62h70l63 -50h24l14 14v30h77v-53l-62 -62h-70zM298 905h96l129 -154h-109l-65 80h-6l-65 -80h-109z" />
    <glyph glyph-name="uni1ED7" unicode="&#x1ed7;" horiz-adv-x="585" 
d="M55 100v298l99 100h276l100 -100v-298l-100 -100h-276zM377 95l40 40v228l-40 40h-169l-40 -40v-228l40 -40h169zM253 788h-23l-15 -14v-30h-77v53l62 62h70l63 -50h24l14 14v30h77v-53l-62 -62h-70zM245 703h96l129 -154h-109l-65 80h-6l-65 -80h-109z" />
    <glyph glyph-name="uni1ED8" unicode="&#x1ed8;" horiz-adv-x="692" 
d="M60 113v474l113 113h346l113 -113v-474l-113 -113h-346zM459 100l57 56v388l-57 56h-226l-57 -56v-388l57 -56h226zM298 905h96l129 -154h-109l-65 80h-6l-65 -80h-109zM279 -147v56l36 36h62l36 -36v-56l-36 -36h-62z" />
    <glyph glyph-name="uni1ED9" unicode="&#x1ed9;" horiz-adv-x="585" 
d="M55 100v298l99 100h276l100 -100v-298l-100 -100h-276zM377 95l40 40v228l-40 40h-169l-40 -40v-228l40 -40h169zM245 703h96l129 -154h-109l-65 80h-6l-65 -80h-109zM226 -147v56l36 36h62l36 -36v-56l-36 -36h-62z" />
    <glyph glyph-name="uni1EDA" unicode="&#x1eda;" horiz-adv-x="763" 
d="M778 710v-108l-91 -92h-55v-397l-113 -113h-346l-113 113v474l113 113h346l105 -105h17l39 38v77h98zM516 544l-57 56h-226l-57 -56v-388l57 -56h226l57 56v388zM371 916h121l-96 -165h-101z" />
    <glyph glyph-name="uni1EDB" unicode="&#x1edb;" horiz-adv-x="662" 
d="M696 508v-108l-92 -92h-74v-208l-100 -100h-276l-99 100v298l99 100h276l100 -100v-5h29l39 38v77h98zM417 363l-40 40h-169l-40 -40v-228l40 -40h169l40 40v228zM318 714h121l-96 -165h-101z" />
    <glyph glyph-name="uni1EDC" unicode="&#x1edc;" horiz-adv-x="763" 
d="M778 710v-108l-91 -92h-55v-397l-113 -113h-346l-113 113v474l113 113h346l105 -105h17l39 38v77h98zM516 544l-57 56h-226l-57 -56v-388l57 -56h226l57 56v388zM194 916h121l76 -165h-101z" />
    <glyph glyph-name="uni1EDD" unicode="&#x1edd;" horiz-adv-x="662" 
d="M696 508v-108l-92 -92h-74v-208l-100 -100h-276l-99 100v298l99 100h276l100 -100v-5h29l39 38v77h98zM417 363l-40 40h-169l-40 -40v-228l40 -40h169l40 40v228zM141 714h121l76 -165h-101z" />
    <glyph glyph-name="uni1EDE" unicode="&#x1ede;" horiz-adv-x="763" 
d="M778 710v-108l-91 -92h-55v-397l-113 -113h-346l-113 113v474l113 113h346l105 -105h17l39 38v77h98zM516 544l-57 56h-226l-57 -56v-388l57 -56h226l57 56v388zM297 803l84 69v28l-14 13h-43l-14 -14v-34h-88v60l62 61h124l62 -61v-76l-74 -61v-37h-99v52z" />
    <glyph glyph-name="uni1EDF" unicode="&#x1edf;" horiz-adv-x="662" 
d="M696 508v-108l-92 -92h-74v-208l-100 -100h-276l-99 100v298l99 100h276l100 -100v-5h29l39 38v77h98zM417 363l-40 40h-169l-40 -40v-228l40 -40h169l40 40v228zM244 601l84 69v28l-14 13h-43l-14 -14v-34h-88v60l62 61h124l62 -61v-76l-74 -61v-37h-99v52z" />
    <glyph glyph-name="uni1EE0" unicode="&#x1ee0;" horiz-adv-x="763" 
d="M778 710v-108l-91 -92h-55v-397l-113 -113h-346l-113 113v474l113 113h346l105 -105h17l39 38v77h98zM516 544l-57 56h-226l-57 -56v-388l57 -56h226l57 56v388zM303 813h-20l-15 -14v-31l-84 -1v63l64 63h77l64 -52h21l14 14v32h84v-62l-64 -64h-77z" />
    <glyph glyph-name="uni1EE1" unicode="&#x1ee1;" horiz-adv-x="662" 
d="M696 508v-108l-92 -92h-74v-208l-100 -100h-276l-99 100v298l99 100h276l100 -100v-5h29l39 38v77h98zM417 363l-40 40h-169l-40 -40v-228l40 -40h169l40 40v228zM250 611h-20l-15 -14v-31l-84 -1v63l64 63h77l64 -52h21l14 14v32h84v-62l-64 -64h-77z" />
    <glyph glyph-name="uni1EE2" unicode="&#x1ee2;" horiz-adv-x="763" 
d="M778 710v-108l-91 -92h-55v-397l-113 -113h-346l-113 113v474l113 113h346l105 -105h17l39 38v77h98zM516 544l-57 56h-226l-57 -56v-388l57 -56h226l57 56v388zM279 -147v56l36 36h62l36 -36v-56l-36 -36h-62z" />
    <glyph glyph-name="uni1EE3" unicode="&#x1ee3;" horiz-adv-x="662" 
d="M696 508v-108l-92 -92h-74v-208l-100 -100h-276l-99 100v298l99 100h276l100 -100v-5h29l39 38v77h98zM417 363l-40 40h-169l-40 -40v-228l40 -40h169l40 40v228zM226 -147v56l36 36h62l36 -36v-56l-36 -36h-62z" />
    <glyph glyph-name="uni1EE4" unicode="&#x1ee4;" horiz-adv-x="692" 
d="M70 117v583h116v-544l57 -56h206l57 56v544h116v-583l-117 -117h-318zM281 -147v56l36 36h62l36 -36v-56l-36 -36h-62z" />
    <glyph glyph-name="uni1EE5" unicode="&#x1ee5;" horiz-adv-x="583" 
d="M60 101v397h113v-362l39 -39h87l106 106v295h113v-498h-105v92l-93 -92h-159zM225 -147v56l36 36h62l36 -36v-56l-36 -36h-62z" />
    <glyph glyph-name="uni1EE6" unicode="&#x1ee6;" horiz-adv-x="692" 
d="M70 117v583h116v-544l57 -56h206l57 56v544h116v-583l-117 -117h-318zM297 803l84 69v28l-14 13h-43l-14 -14v-34h-88v60l62 61h124l62 -61v-76l-74 -61v-37h-99v52z" />
    <glyph glyph-name="uni1EE7" unicode="&#x1ee7;" horiz-adv-x="583" 
d="M60 101v397h113v-362l39 -39h87l106 106v295h113v-498h-105v92l-93 -92h-159zM241 601l84 69v28l-14 13h-43l-14 -14v-34h-88v60l62 61h124l62 -61v-76l-74 -61v-37h-99v52z" />
    <glyph glyph-name="uni1EE8" unicode="&#x1ee8;" horiz-adv-x="772" 
d="M788 710v-108l-91 -92h-75v-393l-117 -117h-318l-117 117v583h116v-544l57 -56h206l57 56v544h116v-105h29l39 38v77h98zM371 916h121l-96 -165h-101z" />
    <glyph glyph-name="uni1EE9" unicode="&#x1ee9;" horiz-adv-x="665" 
d="M684 508v-108l-91 -92h-75v-308h-105v92l-93 -92h-159l-101 101v397h113v-362l39 -39h87l106 106v295h113v-105h29l39 38v77h98zM315 714h121l-96 -165h-101z" />
    <glyph glyph-name="uni1EEA" unicode="&#x1eea;" horiz-adv-x="772" 
d="M788 710v-108l-91 -92h-75v-393l-117 -117h-318l-117 117v583h116v-544l57 -56h206l57 56v544h116v-105h29l39 38v77h98zM205 916h121l76 -165h-101z" />
    <glyph glyph-name="uni1EEB" unicode="&#x1eeb;" horiz-adv-x="665" 
d="M684 508v-108l-91 -92h-75v-308h-105v92l-93 -92h-159l-101 101v397h113v-362l39 -39h87l106 106v295h113v-105h29l39 38v77h98zM139 714h121l76 -165h-101z" />
    <glyph glyph-name="uni1EEC" unicode="&#x1eec;" horiz-adv-x="772" 
d="M788 710v-108l-91 -92h-75v-393l-117 -117h-318l-117 117v583h116v-544l57 -56h206l57 56v544h116v-105h29l39 38v77h98zM297 803l84 69v28l-14 13h-43l-14 -14v-34h-88v60l62 61h124l62 -61v-76l-74 -61v-37h-99v52z" />
    <glyph glyph-name="uni1EED" unicode="&#x1eed;" horiz-adv-x="665" 
d="M684 508v-108l-91 -92h-75v-308h-105v92l-93 -92h-159l-101 101v397h113v-362l39 -39h87l106 106v295h113v-105h29l39 38v77h98zM241 601l84 69v28l-14 13h-43l-14 -14v-34h-88v60l62 61h124l62 -61v-76l-74 -61v-37h-99v52z" />
    <glyph glyph-name="uni1EEE" unicode="&#x1eee;" horiz-adv-x="772" 
d="M788 710v-108l-91 -92h-75v-393l-117 -117h-318l-117 117v583h116v-544l57 -56h206l57 56v544h116v-105h29l39 38v77h98zM303 813h-20l-15 -14v-31l-84 -1v63l64 63h77l64 -52h21l14 14v32h84v-62l-64 -64h-77z" />
    <glyph glyph-name="uni1EEF" unicode="&#x1eef;" horiz-adv-x="665" 
d="M684 508v-108l-91 -92h-75v-308h-105v92l-93 -92h-159l-101 101v397h113v-362l39 -39h87l106 106v295h113v-105h29l39 38v77h98zM247 611h-20l-15 -14v-31l-84 -1v63l64 63h77l64 -52h21l14 14v32h84v-62l-64 -64h-77z" />
    <glyph glyph-name="uni1EF0" unicode="&#x1ef0;" horiz-adv-x="772" 
d="M788 710v-108l-91 -92h-75v-393l-117 -117h-318l-117 117v583h116v-544l57 -56h206l57 56v544h116v-105h29l39 38v77h98zM281 -147v56l36 36h62l36 -36v-56l-36 -36h-62z" />
    <glyph glyph-name="uni1EF1" unicode="&#x1ef1;" horiz-adv-x="665" 
d="M684 508v-108l-91 -92h-75v-308h-105v92l-93 -92h-159l-101 101v397h113v-362l39 -39h87l106 106v295h113v-105h29l39 38v77h98zM225 -147v56l36 36h62l36 -36v-56l-36 -36h-62z" />
    <glyph glyph-name="Ygrave" unicode="&#x1ef2;" horiz-adv-x="620" 
d="M252 288l-247 412h127l177 -304h2l177 304h127l-247 -412v-288h-116v288zM158 916h121l76 -165h-101z" />
    <glyph glyph-name="ygrave" unicode="&#x1ef3;" horiz-adv-x="585" 
d="M520 498v-616l-103 -102h-254l-88 87v66h113v-33l24 -25h156l39 40v170l-84 -85h-161l-102 103v395h113v-362l39 -39h91l104 108v293h113zM139 714h121l76 -165h-101z" />
    <glyph glyph-name="uni1EF4" unicode="&#x1ef4;" horiz-adv-x="620" 
d="M252 288l-247 412h127l177 -304h2l177 304h127l-247 -412v-288h-116v288zM243 -147v56l36 36h62l36 -36v-56l-36 -36h-62z" />
    <glyph glyph-name="uni1EF5" unicode="&#x1ef5;" horiz-adv-x="585" 
d="M520 498v-616l-103 -102h-254l-88 87v66h113v-33l24 -25h156l39 40v170l-84 -85h-161l-102 103v395h113v-362l39 -39h91l104 108v293h113zM229 -367v56l36 36h62l36 -36v-56l-36 -36h-62z" />
    <glyph glyph-name="uni1EF6" unicode="&#x1ef6;" horiz-adv-x="620" 
d="M252 288l-247 412h127l177 -304h2l177 304h127l-247 -412v-288h-116v288zM261 803l84 69v28l-14 13h-43l-14 -14v-34h-88v60l62 61h124l62 -61v-76l-74 -61v-37h-99v52z" />
    <glyph glyph-name="uni1EF7" unicode="&#x1ef7;" horiz-adv-x="585" 
d="M520 498v-616l-103 -102h-254l-88 87v66h113v-33l24 -25h156l39 40v170l-84 -85h-161l-102 103v395h113v-362l39 -39h91l104 108v293h113zM242 601l84 69v28l-14 13h-43l-14 -14v-34h-88v60l62 61h124l62 -61v-76l-74 -61v-37h-99v52z" />
    <glyph glyph-name="uni1EF8" unicode="&#x1ef8;" horiz-adv-x="620" 
d="M252 288l-247 412h127l177 -304h2l177 304h127l-247 -412v-288h-116v288zM267 813h-20l-15 -14v-31l-84 -1v63l64 63h77l64 -52h21l14 14v32h84v-62l-64 -64h-77z" />
    <glyph glyph-name="uni1EF9" unicode="&#x1ef9;" horiz-adv-x="585" 
d="M520 498v-616l-103 -102h-254l-88 87v66h113v-33l24 -25h156l39 40v170l-84 -85h-161l-102 103v395h113v-362l39 -39h91l104 108v293h113zM248 611h-20l-15 -14v-31l-84 -1v63l64 63h77l64 -52h21l14 14v32h84v-62l-64 -64h-77z" />
    <glyph glyph-name="uni2007" unicode="&#x2007;" horiz-adv-x="644" 
 />
    <glyph glyph-name="uni2010" unicode="&#x2010;" horiz-adv-x="754" 
d="M45 305h664v-98h-664v98z" />
    <glyph glyph-name="figuredash" unicode="&#x2012;" horiz-adv-x="614" 
d="M45 305h524v-98h-524v98z" />
    <glyph glyph-name="endash" unicode="&#x2013;" horiz-adv-x="632" 
d="M45 305h542v-98h-542v98z" />
    <glyph glyph-name="emdash" unicode="&#x2014;" horiz-adv-x="743" 
d="M45 305h653v-98h-653v98z" />
    <glyph glyph-name="uni2015" unicode="&#x2015;" horiz-adv-x="937" 
d="M45 305h847v-98h-847v98z" />
    <glyph glyph-name="quoteleft" unicode="&#x2018;" horiz-adv-x="225" 
d="M126 569h18l39 -38v-57l-39 -39h-64l-38 39v95l55 131h65z" />
    <glyph glyph-name="quoteright" unicode="&#x2019;" horiz-adv-x="225" 
d="M100 566h-19l-38 38v58l38 38h65l37 -39v-95l-54 -131h-66z" />
    <glyph glyph-name="quotesinglbase" unicode="&#x201a;" horiz-adv-x="225" 
d="M100 0h-19l-38 38v58l38 38h65l37 -39v-95l-54 -131h-66z" />
    <glyph glyph-name="quotedblleft" unicode="&#x201c;" horiz-adv-x="412" 
d="M126 569h18l39 -38v-57l-39 -39h-64l-38 39v95l55 131h65zM313 569h19l38 -38v-57l-38 -39h-65l-37 39v95l54 131h66z" />
    <glyph glyph-name="quotedblright" unicode="&#x201d;" horiz-adv-x="412" 
d="M100 566h-19l-38 38v58l38 38h65l37 -39v-95l-54 -131h-66zM288 566h-19l-38 38v58l38 38h65l37 -39v-95l-54 -131h-66z" />
    <glyph glyph-name="quotedblbase" unicode="&#x201e;" horiz-adv-x="412" 
d="M100 0h-19l-38 38v58l38 38h65l37 -39v-95l-54 -131h-66zM288 0h-19l-38 38v58l38 38h65l37 -39v-95l-54 -131h-66z" />
    <glyph glyph-name="dagger" unicode="&#x2020;" horiz-adv-x="526" 
d="M206 401h-161v97h161v175h114v-175h161v-97h-161v-501h-114v501z" />
    <glyph glyph-name="daggerdbl" unicode="&#x2021;" horiz-adv-x="526" 
d="M320 401v-229h161v-97h-161v-175h-114v175h-161v97h161v229h-161v97h161v175h114v-175h161v-97h-161z" />
    <glyph glyph-name="bullet" unicode="&#x2022;" horiz-adv-x="314" 
d="M45 242v97l61 63h102l61 -63v-97l-61 -63h-102z" />
    <glyph glyph-name="ellipsis" unicode="&#x2026;" horiz-adv-x="682" 
d="M44 38v58l38 38h64l37 -39v-56l-37 -39h-64zM271 38v58l38 38h64l37 -39v-56l-37 -39h-64zM499 38v58l38 38h64l37 -39v-56l-37 -39h-64z" />
    <glyph glyph-name="perthousand" unicode="&#x2030;" horiz-adv-x="1225" 
d="M45 407v218l75 75h167l75 -75v-218l-75 -75h-167zM564 700h117l-385 -700h-116zM238 418l24 24v148l-24 24h-69l-25 -24v-148l25 -24h69zM497 75v218l75 75h167l75 -75v-218l-75 -75h-167zM863 75v218l75 75h167l75 -75v-218l-75 -75h-167zM690 86l24 24v148l-24 24h-69
l-25 -24v-148l25 -24h69zM1056 86l25 24v148l-25 24h-69l-24 -24v-148l24 -24h69z" />
    <glyph glyph-name="minute" unicode="&#x2032;" horiz-adv-x="238" 
d="M89 700h114l-59 -217h-99z" />
    <glyph glyph-name="second" unicode="&#x2033;" horiz-adv-x="396" 
d="M89 700h114l-59 -217h-99zM247 700h114l-58 -217h-99z" />
    <glyph glyph-name="guilsinglleft" unicode="&#x2039;" horiz-adv-x="310" 
d="M25 229v80l240 190v-122l-135 -105v-6l135 -105v-122z" />
    <glyph glyph-name="guilsinglright" unicode="&#x203a;" horiz-adv-x="310" 
d="M45 161l134 105v6l-134 105v122l240 -190v-80l-240 -190v122z" />
    <glyph glyph-name="fraction" unicode="&#x2044;" horiz-adv-x="578" 
d="M548 700l-401 -700h-117l401 700h117z" />
    <glyph glyph-name="uni2070" unicode="&#x2070;" horiz-adv-x="448" 
d="M45 356v268l76 76h206l76 -76v-268l-76 -76h-206zM274 371l21 21v196l-21 21h-100l-21 -21v-196l21 -21h100z" />
    <glyph glyph-name="uni2074" unicode="&#x2074;" horiz-adv-x="408" 
d="M229 350h-209v95l190 255h127v-259h51v-91h-51v-70h-108v70zM238 436v156h-2l-107 -146v-10h109z" />
    <glyph glyph-name="uni2075" unicode="&#x2075;" horiz-adv-x="412" 
d="M40 353v66h107v-33l16 -17h95l16 17v66l-16 17h-212v231h328v-88h-223v-55h156l75 -76v-128l-73 -73h-196z" />
    <glyph glyph-name="uni2076" unicode="&#x2076;" horiz-adv-x="426" 
d="M45 353v272l75 75h194l74 -75v-55h-104v25l-16 17h-101l-17 -17v-79l32 26h136l73 -74v-115l-73 -73h-200zM268 368l16 17v57l-16 17h-84l-32 -30v-44l16 -17h100z" />
    <glyph glyph-name="uni2077" unicode="&#x2077;" horiz-adv-x="373" 
d="M226 602v6h-206v92h328v-89l-172 -331h-118z" />
    <glyph glyph-name="uni2078" unicode="&#x2078;" horiz-adv-x="435" 
d="M40 352v102l43 42l-37 39v93l72 72h200l71 -72v-93l-37 -39l43 -42v-102l-71 -72h-212zM267 533l17 17v47l-17 17h-98l-17 -17v-47l17 -17h98zM273 366l17 17v52l-17 16h-110l-17 -16v-52l17 -17h110z" />
    <glyph glyph-name="uni2079" unicode="&#x2079;" horiz-adv-x="426" 
d="M41 353v54h105v-22l17 -17h96l17 17v73l-25 -23h-144l-72 72v118l75 75h196l75 -75v-272l-73 -73h-194zM249 518l25 24v53l-16 17h-100l-16 -17v-60l16 -17h91z" />
    <glyph glyph-name="uni207D" unicode="&#x207d;" horiz-adv-x="240" 
d="M45 281v407l72 73h109v-87h-52l-26 -26v-327l26 -26h52v-87h-109z" />
    <glyph glyph-name="uni207E" unicode="&#x207e;" horiz-adv-x="240" 
d="M13 208v87h53l25 26v327l-25 26h-53v87h110l72 -73v-407l-72 -73h-110z" />
    <glyph glyph-name="uni207F" unicode="&#x207f;" horiz-adv-x="431" 
d="M45 700h93v-56l57 56h109l82 -81v-268h-103v241l-20 20h-58l-58 -59v-202h-102v349z" />
    <glyph glyph-name="uni2080" unicode="&#x2080;" horiz-adv-x="448" 
d="M45 -74v268l76 76h206l76 -76v-268l-76 -76h-206zM274 -59l21 21v196l-21 21h-100l-21 -21v-196l21 -21h100z" />
    <glyph glyph-name="uni2081" unicode="&#x2081;" horiz-adv-x="282" 
d="M119 154l-94 -47v99l117 64h85v-420h-108v304z" />
    <glyph glyph-name="uni2082" unicode="&#x2082;" horiz-adv-x="390" 
d="M32 -56l223 183v36l-17 16h-85l-16 -16v-41h-107v73l75 75h183l75 -75v-101l-195 -153v-5h197v-86h-333v94z" />
    <glyph glyph-name="uni2083" unicode="&#x2083;" horiz-adv-x="423" 
d="M35 -77v63h107v-31l16 -16h96l16 16v52l-14 14h-120v80h120l14 15v49l-16 16h-92l-16 -16v-31h-107v63l73 73h193l73 -73v-105l-31 -31l31 -31v-107l-73 -73h-197z" />
    <glyph glyph-name="uni2084" unicode="&#x2084;" horiz-adv-x="408" 
d="M229 -80h-209v95l190 255h127v-259h51v-91h-51v-70h-108v70zM238 6v156h-2l-107 -146v-10h109z" />
    <glyph glyph-name="uni2085" unicode="&#x2085;" horiz-adv-x="412" 
d="M40 -77v66h107v-33l16 -17h95l16 17v66l-16 17h-212v231h328v-88h-223v-55h156l75 -76v-128l-73 -73h-196z" />
    <glyph glyph-name="uni2086" unicode="&#x2086;" horiz-adv-x="426" 
d="M45 -77v272l75 75h194l74 -75v-55h-104v25l-16 17h-101l-17 -17v-79l32 26h136l73 -74v-115l-73 -73h-200zM268 -62l16 17v57l-16 17h-84l-32 -30v-44l16 -17h100z" />
    <glyph glyph-name="uni2087" unicode="&#x2087;" horiz-adv-x="373" 
d="M226 172v6h-206v92h328v-89l-172 -331h-118z" />
    <glyph glyph-name="uni2088" unicode="&#x2088;" horiz-adv-x="435" 
d="M40 -78v102l43 42l-37 39v93l72 72h200l71 -72v-93l-37 -39l43 -42v-102l-71 -72h-212zM267 103l17 17v47l-17 17h-98l-17 -17v-47l17 -17h98zM273 -64l17 17v52l-17 16h-110l-17 -16v-52l17 -17h110z" />
    <glyph glyph-name="uni2089" unicode="&#x2089;" horiz-adv-x="426" 
d="M41 -77v54h105v-22l17 -17h96l17 17v73l-25 -23h-144l-72 72v118l75 75h196l75 -75v-272l-73 -73h-194zM249 88l25 24v53l-16 17h-100l-16 -17v-60l16 -17h91z" />
    <glyph glyph-name="uni208D" unicode="&#x208d;" horiz-adv-x="240" 
d="M45 -136v407l72 73h109v-87h-52l-26 -26v-327l26 -26h52v-87h-109z" />
    <glyph glyph-name="uni208E" unicode="&#x208e;" horiz-adv-x="240" 
d="M13 -209v87h53l25 26v327l-25 26h-53v87h110l72 -73v-407l-72 -73h-110z" />
    <glyph glyph-name="colonmonetary" unicode="&#x20a1;" horiz-adv-x="647" 
d="M503 497l-86 -397h26l53 52v51h116v-92l-111 -111h-105l-24 -110h-90l24 110h-76l-24 -110h-90l30 137l-86 86v474l113 113h118l24 110h90l-24 -110h76l24 110h90l-32 -148l73 -73v-92h-109zM176 167l94 433h-37l-57 -56v-377zM327 100l109 500h-76l-109 -500h76z" />
    <glyph glyph-name="lira" unicode="&#x20a4;" horiz-adv-x="624" 
d="M599 98v-98h-537v138l76 88v4h-93v88h93v49h-93v87h93v125l121 121h223l106 -107v-78h-112v44l-43 42h-124l-56 -56v-91h238v-87h-238v-49h238v-88h-238v-20l-74 -85v-27h420z" />
    <glyph glyph-name="uni20A6" unicode="&#x20a6;" horiz-adv-x="782" 
d="M767 303h-103v-303h-106l-197 303h-135v-303h-111v303h-100v95h100v302h106l196 -302h136v302h111v-302h103v-95zM299 398l-71 110h-2v-110h73zM553 303h-75l73 -112h2v112z" />
    <glyph glyph-name="peseta" unicode="&#x20a7;" horiz-adv-x="742" 
d="M727 430h-87v-71l-103 -104h-309v-255h-116v430h-97v96h97v174h426l102 -103v-71h87v-96zM228 526h297v36l-40 40h-257v-76zM525 430h-297v-77h257l40 40v37z" />
    <glyph glyph-name="dong" unicode="&#x20ab;" horiz-adv-x="607" 
d="M607 561h-77v-561h-107v82l-82 -82h-187l-99 100v298l99 100h196l67 -58v121h-157v83h157v70h113v-70h77v-83zM417 333l-77 68h-130l-42 -42v-220l42 -42h118l89 90v146zM100 -58h400v-90h-400v90z" />
    <glyph glyph-name="Euro" unicode="&#x20ac;" horiz-adv-x="695" 
d="M544 497v51l-52 52h-211l-57 -56v-78h215v-87h-215v-66h215v-87h-215v-70l57 -56h211l52 52v51h116v-92l-110 -111h-328l-114 113v113h-88v87h88v66h-88v87h88v121l114 113h328l110 -111v-92h-116z" />
    <glyph glyph-name="uni20B1" unicode="&#x20b1;" horiz-adv-x="742" 
d="M640 500v-45h87v-68h-87v-28l-103 -104h-309v-255h-116v387h-97v68h97v45h-97v68h97v132h426l102 -103v-29h87v-68h-87zM228 568h291l-34 34h-257v-34zM525 500h-297v-45h297v45zM519 387h-291v-34h257z" />
    <glyph glyph-name="uni20B2" unicode="&#x20b2;" horiz-adv-x="668" 
d="M502 497v50l-53 53h-56v-218h225v-271l-111 -111h-114v-110h-99v110h-121l-113 113v474l113 113h121v110h99v-110h114l111 -111v-92h-116zM294 600h-61l-57 -56v-388l57 -56h61v500zM393 282v-182h59l53 52v130h-112z" />
    <glyph glyph-name="uni20B5" unicode="&#x20b5;" horiz-adv-x="647" 
d="M496 497v51l-53 52h-48v-500h48l53 52v51h116v-92l-111 -111h-106v-110h-99v110h-123l-113 113v474l113 113h123v110h99v-110h106l111 -111v-92h-116zM296 600h-63l-57 -56v-388l57 -56h63v500z" />
    <glyph glyph-name="uni20B9" unicode="&#x20b9;" horiz-adv-x="662" 
d="M617 612h-161l37 -37v-45h124v-86h-124v-62l-73 -73l77 -83v-226h-116v198l-74 79h-262v97h293l41 40v30h-334v86h334v32l-41 40h-293v98h572v-88z" />
    <glyph glyph-name="uni20BA" unicode="&#x20ba;" horiz-adv-x="627" 
d="M597 293v-106l-187 -187h-265v254l-100 -31v87l100 32v62l-100 -32v87l100 32v209h115v-173l173 55v-87l-173 -55v-62l173 55v-88l-173 -54v-191h104l120 119v74h113z" />
    <glyph glyph-name="uni20BD" unicode="&#x20bd;" horiz-adv-x="683" 
d="M643 597v-238l-103 -104h-309v-71h186v-89h-186v-95h-116v95h-100v89h100v71h-100v96h100v349h426zM529 562l-40 40h-258v-249h258l40 40v169z" />
    <glyph glyph-name="uni210A" unicode="&#x210a;" horiz-adv-x="595" 
d="M88 -214v96l82 82h247v122l-78 -71h-185l-99 100v283l99 100h194l76 -74v74h106v-531h83v-87h-83v-86l-98 -98h-254zM328 109l89 85v132l-80 75h-127l-42 -42v-207l42 -43h118zM382 -220l36 36v66h-199l-25 -25v-46l31 -31h157z" />
    <glyph glyph-name="uni2113" unicode="&#x2113;" horiz-adv-x="497" 
d="M452 179v-86l-92 -93h-165l-92 93v144l-64 -32l-39 81l103 52v269l92 93h161l92 -93v-200l-231 -114v-169l28 -28h67l28 28v55h112zM217 396l117 59v122l-28 28h-61l-28 -28v-181z" />
    <glyph glyph-name="uni2117" unicode="&#x2117;" horiz-adv-x="831" 
d="M45 188v324l188 188h366l187 -188v-324l-187 -188h-366zM556 90l135 135v250l-135 135h-281l-135 -135v-250l135 -135h281zM256 549h281l80 -80v-128l-80 -80h-185v-111h-96v399zM495 340l28 28v75l-28 28h-143v-131h143z" />
    <glyph glyph-name="uni2120" unicode="&#x2120;" horiz-adv-x="833" 
d="M45 415v46h99v-21l12 -12h95l12 12v36l-12 12h-141l-64 65v83l64 64h184l63 -63v-47h-98v21l-12 12h-91l-12 -12v-35l12 -11h144l61 -61v-88l-65 -65h-187zM408 700h100l89 -176h1l90 176h100v-349h-98v190h-2l-70 -131h-41l-69 131h-2v-190h-98v349z" />
    <glyph glyph-name="trademark" unicode="&#x2122;" horiz-adv-x="810" 
d="M145 613h-100v87h303v-87h-101v-262h-102v262zM385 700h100l89 -176h1l90 176h100v-349h-98v190h-2l-70 -131h-41l-69 131h-2v-190h-98v349z" />
    <glyph glyph-name="estimated" unicode="&#x212e;" horiz-adv-x="796" 
d="M228 32.5q-81 42.5 -127 119t-46 175.5t45.5 175.5t124.5 119t178 42.5q96 0 173 -40t121 -113t44 -168v-17h-541v-231q26 -34 84 -54.5t126 -20.5q79 0 149.5 34t108.5 90h37q-41 -69 -122 -111.5t-173 -42.5q-101 0 -182 42.5zM608 357v208q-28 30 -84 49.5t-121 19.5
q-62 0 -118 -18t-85 -47v-212h408z" />
    <glyph glyph-name="uni2153" unicode="&#x2153;" horiz-adv-x="902" 
d="M514 73v63h107v-31l16 -16h96l16 16v52l-14 14h-120v80h120l14 15v49l-16 16h-92l-16 -16v-31h-107v63l73 73h193l73 -73v-105l-31 -31l31 -31v-107l-73 -73h-197zM663 700l-401 -700h-117l401 700h117zM139 584l-94 -47v99l117 64h85v-420h-108v304z" />
    <glyph glyph-name="uni2154" unicode="&#x2154;" horiz-adv-x="1017" 
d="M47 374l223 183v36l-17 16h-85l-16 -16v-41h-107v73l75 75h183l75 -75v-101l-195 -153v-5h197v-86h-333v94zM629 73v63h107v-31l16 -16h96l16 16v52l-14 14h-120v80h120l14 15v49l-16 16h-92l-16 -16v-31h-107v63l73 73h193l73 -73v-105l-31 -31l31 -31v-107l-73 -73
h-197zM781 700l-401 -700h-117l401 700h117z" />
    <glyph glyph-name="oneeighth" unicode="&#x215b;" horiz-adv-x="916" 
d="M516 73v102l43 42l-37 39v93l72 72h200l71 -72v-93l-37 -39l43 -42v-102l-71 -72h-212zM743 254l17 17v47l-17 17h-98l-17 -17v-47l17 -17h98zM749 87l17 17v52l-17 16h-110l-17 -16v-52l17 -17h110zM663 700l-401 -700h-117l401 700h117zM139 584l-94 -47v99l117 64h85
v-420h-108v304z" />
    <glyph glyph-name="threeeighths" unicode="&#x215c;" horiz-adv-x="1016" 
d="M45 353v63h107v-31l16 -16h96l16 16v52l-14 14h-120v80h120l14 15v49l-16 16h-92l-16 -16v-31h-107v63l73 73h193l73 -73v-105l-31 -31l31 -31v-107l-73 -73h-197zM616 73v102l43 42l-37 39v93l72 72h200l71 -72v-93l-37 -39l43 -42v-102l-71 -72h-212zM843 254l17 17v47
l-17 17h-98l-17 -17v-47l17 -17h98zM849 87l17 17v52l-17 16h-110l-17 -16v-52l17 -17h110zM769 700l-401 -700h-117l401 700h117z" />
    <glyph glyph-name="fiveeighths" unicode="&#x215d;" horiz-adv-x="1013" 
d="M45 353v66h107v-33l16 -17h95l16 17v66l-16 17h-212v231h328v-88h-223v-55h156l75 -76v-128l-73 -73h-196zM613 73v102l43 42l-37 39v93l72 72h200l71 -72v-93l-37 -39l43 -42v-102l-71 -72h-212zM840 254l17 17v47l-17 17h-98l-17 -17v-47l17 -17h98zM846 87l17 17v52
l-17 16h-110l-17 -16v-52l17 -17h110zM765 700l-401 -700h-117l401 700h117z" />
    <glyph glyph-name="seveneighths" unicode="&#x215e;" horiz-adv-x="921" 
d="M251 602v6h-206v92h328v-89l-172 -331h-118zM521 73v102l43 42l-37 39v93l72 72h200l71 -72v-93l-37 -39l43 -42v-102l-71 -72h-212zM748 254l17 17v47l-17 17h-98l-17 -17v-47l17 -17h98zM754 87l17 17v52l-17 16h-110l-17 -16v-52l17 -17h110zM667 700l-401 -700h-117
l401 700h117z" />
    <glyph glyph-name="arrowleft" unicode="&#x2190;" horiz-adv-x="709" 
d="M45 253v38l127 150h109l-95 -116l478 -1v-106l-478 1l95 -116h-109z" />
    <glyph glyph-name="arrowup" unicode="&#x2191;" horiz-adv-x="428" 
d="M161 444l-116 -94v108l150 127h38l150 -127v-108l-116 94v-478h-106v478z" />
    <glyph glyph-name="arrowright" unicode="&#x2192;" horiz-adv-x="709" 
d="M523 219l-478 -1v106l478 1l-95 116h109l127 -150v-38l-127 -150h-109z" />
    <glyph glyph-name="arrowdown" unicode="&#x2193;" horiz-adv-x="428" 
d="M45 93v109l116 -95v478h106v-478l116 95v-109l-150 -127h-38z" />
    <glyph glyph-name="partialdiff" unicode="&#x2202;" horiz-adv-x="584" 
d="M45 103v248l103 103h209l68 -59v78l-90 132h-143v95h202l145 -210v-387l-103 -103h-288zM385 99l40 40v140l-85 76h-141l-40 -40v-176l40 -40h186z" />
    <glyph glyph-name="product" unicode="&#x220f;" horiz-adv-x="689" 
d="M70 700h549v-810h-113v714h-323v-714h-113v810z" />
    <glyph glyph-name="summation" unicode="&#x2211;" horiz-adv-x="589" 
d="M45 14l215 276l-215 270v140h519v-98h-405v-13l217 -274v-50l-217 -280v-13h405v-98h-519v140z" />
    <glyph glyph-name="minus" unicode="&#x2212;" horiz-adv-x="556" 
d="M45 312h466v-96h-466v96z" />
    <glyph glyph-name="uni2215" unicode="&#x2215;" horiz-adv-x="143" 
d="M215 701h116l-387 -701h-117z" />
    <glyph glyph-name="uni2219" unicode="&#x2219;" horiz-adv-x="366" 
d="M45 231v119l75 78h126l75 -78v-119l-75 -78h-126z" />
    <glyph glyph-name="radical" unicode="&#x221a;" horiz-adv-x="606" 
d="M120 223h-85v96h158l68 -188h6l210 569h114l-266 -700h-119z" />
    <glyph glyph-name="infinity" unicode="&#x221e;" horiz-adv-x="933" 
d="M45 224v150l136 136h158l123 -123l122 123h168l136 -136v-150l-136 -136h-138l-132 132l-133 -132h-168zM306 184l109 110l-119 120h-64l-74 -75v-80l74 -75h74zM701 184l74 74v82l-74 74h-73l-100 -100l130 -130h43z" />
    <glyph glyph-name="integral" unicode="&#x222b;" horiz-adv-x="481" 
d="M-10 -31h92l46 45l116 585l95 97h152v-95h-98l-42 -41l-117 -589l-96 -97h-148v95z" />
    <glyph glyph-name="approxequal" unicode="&#x2248;" horiz-adv-x="569" 
d="M207 368h-24l-30 -31v-54h-108v79l99 99h90l128 -94h19l34 34v51h109v-79l-99 -100h-90zM207 145h-24l-30 -31v-54h-108v79l99 99h90l128 -95h19l34 35v50h109v-79l-99 -99h-90z" />
    <glyph glyph-name="notequal" unicode="&#x2260;" horiz-adv-x="556" 
d="M351 303l-34 -78h194v-96h-237l-52 -119h-112l52 119h-117v96h159l35 78h-194v96h236l52 119h113l-52 -119h117v-96h-160z" />
    <glyph glyph-name="lessequal" unicode="&#x2264;" horiz-adv-x="606" 
d="M42 306v103l526 181v-99l-394 -132v-6l394 -139v-99zM42 0v91h526v-91h-526z" />
    <glyph glyph-name="greaterequal" unicode="&#x2265;" horiz-adv-x="606" 
d="M45 214l394 139v6l-394 132v99l526 -181v-103l-526 -191v99zM45 91h526v-91h-526v91z" />
    <glyph glyph-name="filledbox" unicode="&#x25a0;" horiz-adv-x="570" 
d="M45 603h480v-484h-480v484z" />
    <glyph glyph-name="triagup" unicode="&#x25b2;" horiz-adv-x="670" 
d="M335 588l290 -588h-580z" />
    <glyph glyph-name="uni25B3" unicode="&#x25b3;" horiz-adv-x="670" 
d="M335 588l290 -588h-580zM493 80l-158 332l-158 -332h316z" />
    <glyph glyph-name="uni25B6" unicode="&#x25b6;" horiz-adv-x="671" 
d="M45 586l581 -294l-581 -294v588z" />
    <glyph glyph-name="uni25B7" unicode="&#x25b7;" horiz-adv-x="676" 
d="M45 583l586 -292l-586 -292v584zM463 291l-333 159v-319z" />
    <glyph glyph-name="triagdn" unicode="&#x25bc;" horiz-adv-x="670" 
d="M45 584h580l-290 -589z" />
    <glyph glyph-name="uni25BD" unicode="&#x25bd;" horiz-adv-x="670" 
d="M45 587h580l-290 -589zM493 506h-316l158 -332z" />
    <glyph glyph-name="uni25C0" unicode="&#x25c0;" horiz-adv-x="671" 
d="M45 292l581 294v-588z" />
    <glyph glyph-name="uni25C1" unicode="&#x25c1;" horiz-adv-x="676" 
d="M45 291l586 292v-584zM545 450l-333 -159l333 -160v319z" />
    <glyph glyph-name="uni25C6" unicode="&#x25c6;" horiz-adv-x="616" 
d="M45 330l262 269l264 -269l-264 -268z" />
    <glyph glyph-name="lozenge" unicode="&#x25ca;" horiz-adv-x="564" 
d="M45 340l178 340h118l178 -340l-178 -340h-118zM285 110l117 230l-117 230h-6l-117 -230l117 -230h6z" />
    <glyph glyph-name="dieresis_acute" unicode="&#xf6d7;" 
d="M17 863h109l-85 -140h-88zM-171 592v54l35 35h60l34 -36v-52l-34 -36h-60zM42 593v52l34 36h60l35 -35v-54l-35 -35h-60z" />
    <glyph glyph-name="dieresis_grave" unicode="&#xf6d8;" 
d="M-128 863h109l64 -140h-88zM-171 592v54l35 35h60l34 -36v-52l-34 -36h-60zM42 593v52l34 36h60l35 -35v-54l-35 -35h-60z" />
    <glyph glyph-name="uniF8FF" unicode="&#xf8ff;" horiz-adv-x="549" 
d="M70 712h409v-712h-409v712zM423 54v603h-297v-603h297z" />
    <glyph glyph-name="yoYingthai.less" horiz-adv-x="888" 
d="M78 64v224l52 66l-90 82l114 122h282l91 -92v-337l30 -30h117l30 30v429h114v-471l-88 -87h-228l-87 87v340l-32 32h-187l-27 -27l81 -79l-60 -78v-38l-3 -24h51l64 -63v-86l-65 -64h-95zM208 67l22 21v37l-22 21h-35l-22 -21v-37l22 -21h35z" />
    <glyph glyph-name="doChadathai.short" horiz-adv-x="634" 
d="M101 -165v84l65 63h200l84 -84v529l-31 32h-202l-28 -27l98 -79l-44 -80v-201l-65 -65h-92l-66 64v87l63 62h51l-4 23v48l37 62l-106 83l114 122h298l91 -92v-697h-80l-56 55l-52 -55h-210zM148 74l22 22v36l-22 22h-34l-22 -22v-36l22 -22h34zM339 -161l31 35l-39 39
h-124l-22 -21v-32l22 -21h132z" />
    <glyph glyph-name="toPatakthai.short" horiz-adv-x="634" 
d="M75 -168v84l62 63h120l94 -106l41 69l58 -62v547l-31 32h-202l-28 -27l98 -79l-44 -80v-201l-65 -65h-92l-66 64v87l63 62h51l-4 23v48l37 62l-106 83l114 122h298l91 -92v-697h-91l-69 73l-46 -73l-56 64l-59 -64h-106zM148 74l22 22v36l-22 22h-34l-22 -22v-36l22 -22
h34zM224 -163l35 39l-34 37h-58l-20 -20v-36l20 -20h57z" />
    <glyph glyph-name="thoThanthai.less" horiz-adv-x="540" 
d="M139 440v-12l331 -60v-368h-114v81l-27 24l-19 21l-52 -51h-84l-65 66v78l64 65h89l98 -94v111l-335 65v99l92 93h363v-91h-315zM256 197l-21 21h-35l-21 -21v-35l21 -22h35l21 22v35z" />
    <glyph glyph-name="uni0E24.short" horiz-adv-x="614" 
d="M430 427l-32 32h-202l-27 -27l81 -79l-60 -78v-38l-3 -24h51l64 -63v-86l-65 -64h-95l-64 64v224l52 66l-90 82l114 122h299l91 -92v-576h-114v537zM208 67l22 21v37l-22 21h-35l-22 -21v-37l22 -21h35z" />
    <glyph glyph-name="uni0E26.short" horiz-adv-x="634" 
d="M450 427l-31 32h-202l-28 -27l98 -79l-44 -80v-208l-65 -65h-92l-66 64v87l63 62h51l-4 24v54l37 62l-106 83l114 122h298l91 -92v-576h-114v537zM148 68l22 21v37l-22 21h-34l-22 -21v-37l22 -21h34z" />
    <glyph glyph-name="loChulathai.short" horiz-adv-x="712" 
d="M141 297l7 39h-60l-68 68v84l70 70h95l67 -67v-332h3l106 184h46l106 -184h3v178l4 33h-54l-63 63v82l63 63h92l58 -59v-28l50 51l46 -58l-85 -87v-397h-110l-133 231l-132 -231h-111v297zM526 436l22 22v32l-22 22h-30l-23 -22v-32l23 -22h30zM155 406l22 21v38l-22 22
h-37l-21 -22v-38l21 -21h37z" />
    <glyph glyph-name="breve_acute" 
d="M17 870h109l-85 -141h-89zM-158 629v70h95v-45l30 -31h66l30 31v45h95v-70l-79 -80h-158z" />
    <glyph glyph-name="breve_grave" 
d="M-128 870h109l65 -141h-89zM-158 629v70h95v-45l30 -31h66l30 31v45h95v-70l-79 -80h-158z" />
    <glyph glyph-name="breve_hookabove" 
d="M-43 763l73 58v22l-12 12h-36l-13 -12v-28h-77v48l54 55h108l54 -55v-63l-64 -48v-25h-87v36zM-158 629v70h95v-45l30 -31h66l30 31v45h95v-70l-79 -80h-158z" />
    <glyph glyph-name="breve_tilde" 
d="M-40 787h-23l-15 -15v-29h-77v53l62 62h70l63 -50h24l14 14v30h77v-53l-62 -62h-70zM-158 629v70h95v-45l30 -31h66l30 31v45h95v-70l-79 -80h-158z" />
    <glyph glyph-name="circumflex_acute" 
d="M168 832h109l-85 -140h-89zM-48 703h96l129 -154h-109l-65 80h-6l-65 -80h-109z" />
    <glyph glyph-name="circumflex_grave" 
d="M44 832h109l65 -140h-89zM-48 703h96l129 -154h-109l-65 80h-6l-65 -80h-109z" />
    <glyph glyph-name="circumflex_hookabove" 
d="M125 699l72 59v23l-12 12h-35l-13 -12v-29h-77v51l54 54h107l54 -54v-66l-63 -50v-26h-87v38zM-48 703h96l129 -154h-109l-65 80h-6l-65 -80h-109z" />
    <glyph glyph-name="circumflex_tilde" 
d="M-40 788h-23l-15 -14v-30h-77v53l62 62h70l63 -50h24l14 14v30h77v-53l-62 -62h-70zM-48 703h96l129 -154h-109l-65 80h-6l-65 -80h-109z" />
    <glyph glyph-name="dieresis_caron" 
d="M-166 862h99l64 -78h6l64 78h99l-122 -145h-88zM-171 592v54l35 35h60l34 -36v-52l-34 -36h-60zM42 593v52l34 36h60l35 -35v-54l-35 -35h-60z" />
    <glyph glyph-name="dieresis_macron" 
d="M-160 831h320v-84h-320v84zM-171 592v54l35 35h60l34 -36v-52l-34 -36h-60zM42 593v52l34 36h60l35 -35v-54l-35 -35h-60z" />
    <glyph glyph-name="uni0E31.narrow" 
d="M-614 696v84l59 59h88l60 -59v-55h54l86 93l64 -68l-106 -114h-245zM-494 702l20 20v34l-20 19h-33l-19 -19v-34l19 -20h33z" />
    <glyph glyph-name="uni0E48.small" 
d="M-168 1117h98v-170h-98v170z" />
    <glyph glyph-name="uni0E48.narrow" 
d="M-375 844h112v-208h-112v208z" />
    <glyph glyph-name="uni0E49.small" 
d="M-311 1013h76l14 21h-37l-41 40v62l50 49h74l50 -49v-74l-30 -46h61l103 140l60 -54l-116 -155h-264v66zM-200 1075l18 18v26l-18 18h-24l-18 -18v-26l18 -18h24z" />
    <glyph glyph-name="uni0E49.narrow" 
d="M-597 709h78l17 24h-44l-46 45v69l55 55h83l53 -54v-86l-31 -49h60l108 145l66 -60l-122 -162h-277v73zM-483 779l20 20v29l-20 20h-27l-20 -20v-29l20 -20h27z" />
    <glyph glyph-name="uni0E4A.small" 
d="M-379 990v92l77 84h71l35 -36l33 36h56l55 -55v-92h7l73 113l53 -44l-93 -141h-151v62h36v84l-10 10h-15l-44 -45l-47 45h-31l-25 -26h36l42 -43v-44l-44 -47h-68zM-289 988l15 15v20l-15 15h-21l-15 -15v-20l15 -15h21z" />
    <glyph glyph-name="uni0E4A.narrow" 
d="M-651 685v107l84 91h63l37 -36l35 36h54l56 -55v-113h6l71 109l52 -48l-94 -140h-149v67h35v97l-11 11h-14l-41 -43l-43 43h-35l-29 -29h42l47 -48v-50l-50 -52h-66zM-555 683l16 17v21l-16 17h-24l-16 -17v-21l16 -17h24z" />
    <glyph glyph-name="uni0E4B.small" 
d="M15 1016h-90v-69h-90v69h-90v72h90v69h90v-69h90v-72z" />
    <glyph glyph-name="uni0E4C.small" 
d="M-125 1116l45 -42v-74l-54 -53h-85l-54 53v81l161 162l57 -56zM-141 1055l-19 19h-32l-19 -19v-32l19 -19h32l19 19v32z" />
    <glyph glyph-name="uni0E4C.narrow" 
d="M-293 816l40 -40v-83l-57 -57h-90l-57 57v86l187 187l64 -63zM-317 752l-20 20h-32l-20 -20v-34l20 -20h32l20 20v34z" />
    <glyph glyph-name="uni0E47.narrow" 
d="M-609 812l79 79h201l67 67l56 -56l-83 -85h-206l-27 -28v-76l64 55l59 -53h12v30l47 48h73l46 -46v-66l-44 -45h-143l-58 52l-62 -52h-81v176zM-289 684l17 17v27l-17 17h-30l-17 -17v-27l17 -17h30z" />
    <glyph glyph-name="uni0E34.narrow" 
d="M-656 743l102 101h225l102 -102v-106h-429v107zM-326 706v23l-42 42h-147l-41 -42v-23h230z" />
    <glyph glyph-name="uni0E35.narrow" 
d="M-227 893v-257h-429v107l102 101h176l51 -43v92h100zM-337 731l-45 40h-134l-40 -40v-25h219v25z" />
    <glyph glyph-name="uni0E36.narrow" 
d="M-205 758l-48 -45v-77h-411v107l101 101h154l22 -18v12l53 56h76l53 -54v-82zM-331 785l14 -14l6 -5h29l19 19v31l-18 19h-32l-18 -19v-31zM-363 733l-46 38h-116l-40 -40v-25h202v27z" />
    <glyph glyph-name="uni0E37.narrow" 
d="M-227 893v-257h-429v107l102 101h107v49h86v-65l48 -41v106h86zM-337 728l-48 43h-131l-40 -40v-25h219v22z" />
    <glyph glyph-name="uni0E4D0E48" 
d="M-256 701v90l70 70h101l69 -70v-90l-69 -70h-101zM-116 700l28 28v37l-28 28h-39l-28 -28v-37l28 -28h39zM-184 1092h98v-170h-98v170z" />
    <glyph glyph-name="uni0E4D0E49" 
d="M-256 701v90l70 70h101l69 -70v-90l-69 -70h-101zM-116 700l28 28v37l-28 28h-39l-28 -28v-37l28 -28h39zM-299 988h76l14 21h-37l-41 40v62l50 49h74l50 -49v-74l-30 -46h61l103 140l60 -54l-116 -155h-264v66zM-188 1050l18 18v26l-18 18h-24l-18 -18v-26l18 -18h24z
" />
    <glyph glyph-name="uni0E4D0E4A" 
d="M-256 701v90l70 70h101l69 -70v-90l-69 -70h-101zM-116 700l28 28v37l-28 28h-39l-28 -28v-37l28 -28h39zM-351 965v92l77 84h71l35 -36l33 36h56l55 -55v-92h7l73 113l53 -44l-93 -141h-151v62h36v84l-10 10h-15l-44 -45l-47 45h-31l-25 -26h36l42 -43v-44l-44 -47h-68z
M-261 963l15 15v20l-15 15h-21l-15 -15v-20l15 -15h21z" />
    <glyph glyph-name="uni0E4D0E4B" 
d="M-256 701v90l70 70h101l69 -70v-90l-69 -70h-101zM-116 700l28 28v37l-28 28h-39l-28 -28v-37l28 -28h39zM0 992h-90v-69h-90v69h-90v72h90v69h90v-69h90v-72z" />
    <glyph glyph-name="uni0E3A.small" 
d="M-202 -375v58l43 43h64l43 -43v-58l-43 -43h-64z" />
    <glyph glyph-name="uni0E38.small" 
d="M-181 -522l8 42h-53l-67 66v74l67 66h88l68 -68v-213h-111v33zM-165 -417l22 23v32l-22 23h-33l-22 -23v-32l22 -23h33z" />
    <glyph glyph-name="uni0E39.small" 
d="M-342 -501v16l2 15h-54l-60 59v78l63 63h87l62 -62v-138h73v194h99v-223l-56 -56h-163zM-332 -412l22 22v33l-22 22h-32l-22 -22v-33l22 -22h32z" />
    <glyph glyph-name="uni0E4B.narrow" 
d="M-224 718h-96v-82h-106v82h-96v75h96v81h106v-81h96v-75z" />
    <glyph glyph-name="uni0E4D.narrow" 
d="M-471 701v90l70 70h101l69 -70v-90l-69 -70h-101zM-331 700l28 28v37l-28 28h-39l-28 -28v-37l28 -28h39z" />
    <glyph glyph-name="uni0E4D0E48.narrow" 
d="M-471 701v90l70 70h101l69 -70v-90l-69 -70h-101zM-331 700l28 28v37l-28 28h-39l-28 -28v-37l28 -28h39zM-399 1092h98v-170h-98v170z" />
    <glyph glyph-name="uni0E4D0E49.narrow" 
d="M-471 701v90l70 70h101l69 -70v-90l-69 -70h-101zM-331 700l28 28v37l-28 28h-39l-28 -28v-37l28 -28h39zM-506 988h76l14 21h-37l-41 40v62l50 49h74l50 -49v-74l-30 -46h61l103 140l60 -54l-116 -155h-264v66zM-395 1050l18 18v26l-18 18h-24l-18 -18v-26l18 -18h24z
" />
    <glyph glyph-name="uni0E4D0E4A.narrow" 
d="M-471 701v90l70 70h101l69 -70v-90l-69 -70h-101zM-331 700l28 28v37l-28 28h-39l-28 -28v-37l28 -28h39zM-543 965v92l77 84h71l35 -36l33 36h56l55 -55v-92h7l73 113l53 -44l-93 -141h-151v62h36v84l-10 10h-15l-44 -45l-47 45h-31l-25 -26h36l42 -43v-44l-44 -47h-68z
M-453 963l15 15v20l-15 15h-21l-15 -15v-20l15 -15h21z" />
    <glyph glyph-name="uni0E4D0E4B.narrow" 
d="M-471 701v90l70 70h101l69 -70v-90l-69 -70h-101zM-331 700l28 28v37l-28 28h-39l-28 -28v-37l28 -28h39zM-215 992h-90v-69h-90v69h-90v72h90v69h90v-69h90v-72z" />
    </font>
</defs>
</svg>
