<?xml version="1.0" standalone="no"?>
<!DOCTYPE svg PUBLIC "-//W3C//DTD SVG 1.1//EN" "http://www.w3.org/Graphics/SVG/1.1/DTD/svg11.dtd" >
<svg xmlns="http://www.w3.org/2000/svg" xmlns:xlink="http://www.w3.org/1999/xlink" version="1.1">
<metadata>
Created by FontForge 20170731 at Fri Sep  7 16:47:53 2018
 By Aleksey,,,
Copyright 2018 The Chakra Petch Project Authors (https://github.com/m4rc1e/Chakra-Petch.git)
</metadata>
<defs>
<font id="ChakraPetch-BoldItalic" horiz-adv-x="0" >
  <font-face 
    font-family="Chakra Petch"
    font-weight="700"
    font-style="italic"
    font-stretch="normal"
    units-per-em="1000"
    panose-1="0 0 8 0 0 0 0 0 0 0"
    ascent="800"
    descent="-200"
    x-height="498"
    cap-height="700"
    bbox="-623 -566 1217 1248"
    underline-thickness="50"
    underline-position="-150"
    slope="-10"
    unicode-range="U+000D-FB02"
  />
<missing-glyph horiz-adv-x="589" 
d="M90 712h409v-712h-409v712zM443 54v603h-297v-603h297z" />
    <glyph glyph-name="fi" unicode="fi" horiz-adv-x="618" 
d="M514 0h-132l68 387h-189l-68 -387h-132l68 387h-90l20 111h90l18 107l110 93h192l-19 -109h-127l-33 -28l-11 -63h323z" />
    <glyph glyph-name="fl" unicode="fl" horiz-adv-x="655" 
d="M547 0h-134l106 601h-194l-33 -28l-13 -75h155l-20 -111h-153l-68 -387h-132l68 387h-90l20 111h90l20 119l110 93h393z" />
    <glyph glyph-name="uni0E240E45" unicode="&#xe24;&#xe45;" horiz-adv-x="951" 
d="M922 452l-117 -662h-134l111 627l-23 27h-140l-29 -26l-111 -628h-134l111 627l-22 27h-191l-27 -24l66 -76l-71 -75l-6 -33l-4 -12h38l57 -69l-16 -94l-72 -61h-106l-58 71l37 209l67 69l-80 85l136 124h306l30 -37l44 37h252zM194 149h-34l-23 -20l-6 -34l16 -20h34
l24 20l6 34z" />
    <glyph glyph-name="uni0E260E45" unicode="&#xe26;&#xe45;" horiz-adv-x="965" 
d="M936 452l-117 -662h-134l111 627l-23 27h-139l-30 -27l-12 -68l-99 -559h-134l111 627l-22 27h-193l-27 -24l85 -76l-56 -78l-36 -204l-72 -62h-105l-60 71l17 94l71 61h50l-1 16l7 42l51 65l-99 85l136 124h308l31 -38l44 38h250zM150 131l-16 20h-34l-24 -20l-6 -34
l17 -20h34l23 20z" />
    <glyph glyph-name=".notdef" horiz-adv-x="589" 
d="M90 712h409v-712h-409v712zM443 54v603h-297v-603h297z" />
    <glyph glyph-name=".null" 
 />
    <glyph glyph-name="nonmarkingreturn" unicode="&#xd;" horiz-adv-x="272" 
 />
    <glyph glyph-name="NULL" 
 />
    <glyph glyph-name="NULL" 
 />
    <glyph glyph-name="space" unicode=" " horiz-adv-x="272" 
 />
    <glyph glyph-name="exclam" unicode="!" horiz-adv-x="274" 
d="M124 566l24 134h136l-24 -134l-80 -364h-104zM24 43l10 60l50 43h68l36 -43l-10 -60l-51 -43h-68z" />
    <glyph glyph-name="quotedbl" unicode="&#x22;" horiz-adv-x="460" 
d="M120 586l20 114h136l-20 -114l-42 -146h-104zM324 586l20 114h136l-20 -114l-42 -146h-104z" />
    <glyph glyph-name="numbersign" unicode="#" horiz-adv-x="717" 
d="M587 416l-45 -128h121l-20 -114h-141l-61 -174h-132l61 174h-111l-61 -174h-132l61 174h-100l20 114h120l45 128h-122l20 114h142l59 170h132l-59 -170h111l59 170h132l-59 -170h99l-20 -114h-119zM455 416h-111l-45 -128h111z" />
    <glyph glyph-name="dollar" unicode="$" horiz-adv-x="637" 
d="M493 491l10 60l-27 33h-36l-30 -169h95l96 -116l-36 -199l-117 -100h-111l-19 -110h-114l19 110h-100l-96 116l17 92h134l-11 -59l27 -33h50l32 183h-99l-96 116l32 185l118 100h116l19 110h114l-19 -110h85l97 -116l-16 -93h-134zM326 584h-48l-39 -33l-18 -103l27 -33
h48zM390 299l-32 -183h42l40 34l21 116l-27 33h-44z" />
    <glyph glyph-name="percent" unicode="%" horiz-adv-x="875" 
d="M70 418l37 210l85 72h190l59 -72l-39 -224l-85 -72h-176zM641 700h136l-507 -700h-136zM269 432l25 22l22 124l-18 22h-58l-26 -22l-22 -124l19 -22h58zM472 86l37 210l85 72h190l59 -72l-39 -224l-85 -72h-176zM671 100l25 22l22 124l-18 22h-58l-26 -22l-22 -124
l19 -22h58z" />
    <glyph glyph-name="ampersand" unicode="&#x26;" horiz-adv-x="662" 
d="M26 115l33 182l73 63l-27 34l36 206l117 100h268l93 -114l-12 -66h-132l5 32l-25 32h-154l-37 -32l-20 -116l27 -34h214l12 66h128l-12 -66h66l-20 -114h-64l-33 -190l-115 -98h-326zM400 116l39 34l24 138h-241l-39 -33l-19 -106l28 -33h208z" />
    <glyph glyph-name="quotesingle" unicode="'" horiz-adv-x="256" 
d="M120 586l20 114h136l-20 -114l-42 -146h-104z" />
    <glyph glyph-name="parenleft" unicode="(" horiz-adv-x="348" 
d="M24 19l120 677l142 120h147l-20 -114h-75l-71 -60l-104 -585l50 -60h76l-21 -114h-132z" />
    <glyph glyph-name="parenright" unicode=")" horiz-adv-x="348" 
d="M360 680l-120 -677l-142 -120h-147l20 114h75l71 60l104 585l-50 60h-76l21 114h132z" />
    <glyph glyph-name="asterisk" unicode="*" horiz-adv-x="349" 
d="M192 521l-76 -53l-25 70l93 32l-81 34l49 70l57 -54l3 80h85l-27 -80l77 54l25 -70l-93 -34l81 -32l-49 -70l-58 53l-2 -80h-85z" />
    <glyph glyph-name="plus" unicode="+" horiz-adv-x="564" 
d="M517 208h-176l-28 -159h-132l28 159h-176l20 112h176l28 159h132l-28 -159h176z" />
    <glyph glyph-name="comma" unicode="," horiz-adv-x="238" 
d="M60 0h-22l-36 43l11 64l51 43h75l34 -44l-18 -106l-81 -134h-78z" />
    <glyph glyph-name="hyphen" unicode="-" horiz-adv-x="432" 
d="M51 314h352l-20 -114h-352z" />
    <glyph glyph-name="period" unicode="." horiz-adv-x="238" 
d="M4 43l12 64l50 43h73l34 -44l-10 -62l-50 -44h-73z" />
    <glyph glyph-name="slash" unicode="/" horiz-adv-x="522" 
d="M466 700h136l-510 -700h-136z" />
    <glyph glyph-name="zero" unicode="0" horiz-adv-x="652" 
d="M33 124l82 468l127 108h309l104 -124l-83 -470l-123 -106h-313zM393 116l52 44l66 380l-36 44h-181l-52 -44l-67 -380l36 -44h182z" />
    <glyph glyph-name="one" unicode="1" horiz-adv-x="382" 
d="M230 555l-165 -78l22 125l195 98h109l-123 -700h-136z" />
    <glyph glyph-name="two" unicode="2" horiz-adv-x="574" 
d="M23 153l418 327l12 71l-27 33h-162l-39 -33l-12 -71h-136l20 120l118 100h284l96 -116l-26 -148l-406 -312l-2 -10h354l-20 -114h-499z" />
    <glyph glyph-name="three" unicode="3" horiz-adv-x="603" 
d="M13 116l17 102h136l-12 -69l27 -33h179l39 33l20 113l-26 32h-199l20 116h199l38 32l19 109l-27 33h-173l-39 -33l-12 -69h-136l20 118l118 100h295l96 -116l-33 -187l-60 -50l42 -51l-35 -198l-115 -98h-303z" />
    <glyph glyph-name="four" unicode="4" horiz-adv-x="579" 
d="M327 130h-338l24 137l388 433h163l-81 -454h85l-20 -116h-85l-23 -130h-136zM353 242l54 306h-4l-259 -292l-2 -14h211z" />
    <glyph glyph-name="five" unicode="5" horiz-adv-x="606" 
d="M22 116l18 106h136l-13 -73l27 -33h178l39 33l28 158l-27 33h-337l63 360h492l-20 -116h-358l-23 -128h255l97 -117l-43 -241l-115 -98h-302z" />
    <glyph glyph-name="six" unicode="6" horiz-adv-x="622" 
d="M32 116l85 484l117 100h302l96 -116l-16 -92h-136l10 57l-29 35h-176l-41 -35l-29 -165l69 57h211l95 -116l-40 -227l-115 -98h-308zM382 116l42 35l24 139l-29 35h-142l-86 -75l-17 -99l28 -35h180z" />
    <glyph glyph-name="seven" unicode="7" horiz-adv-x="522" 
d="M412 575l2 9h-349l20 116h491l-22 -128l-382 -572h-144z" />
    <glyph glyph-name="eight" unicode="8" horiz-adv-x="638" 
d="M27 116l32 177l74 63l-44 53l33 191l118 100h301l96 -116l-31 -175l-62 -53l52 -63l-35 -195l-115 -98h-323zM436 412l41 35l18 102l-29 35h-175l-41 -35l-18 -102l29 -35h175zM393 116l42 35l19 112l-28 35h-195l-42 -35l-19 -112l28 -35h195z" />
    <glyph glyph-name="nine" unicode="9" horiz-adv-x="627" 
d="M36 116l15 81h136l-8 -46l28 -35h170l42 35l28 161l-67 -57h-212l-96 116l40 229l117 100h306l96 -116l-86 -486l-115 -98h-299zM392 371l77 65l20 113l-29 35h-180l-41 -35l-25 -143l28 -35h150z" />
    <glyph glyph-name="colon" unicode=":" horiz-adv-x="232" 
d="M59 357l11 62l49 41h71l32 -42l-10 -60l-48 -42h-71zM4 41l11 62l48 41h71l32 -42l-10 -60l-48 -42h-71z" />
    <glyph glyph-name="semicolon" unicode=";" horiz-adv-x="232" 
d="M57 357l11 62l48 41h71l33 -42l-11 -60l-47 -42h-71zM57 0h-22l-35 43l11 64l51 43h75l34 -44l-19 -106l-80 -134h-78z" />
    <glyph glyph-name="less" unicode="&#x3c;" horiz-adv-x="614" 
d="M607 436l-409 -157l-1 -6l355 -149l-22 -124l-504 225l20 114l584 233z" />
    <glyph glyph-name="equal" unicode="=" horiz-adv-x="564" 
d="M68 408h484l-20 -112h-484zM37 232h484l-20 -112h-484z" />
    <glyph glyph-name="greater" unicode="&#x3e;" horiz-adv-x="614" 
d="M20 136l409 157l1 6l-355 149l22 124l504 -225l-20 -114l-584 -233z" />
    <glyph glyph-name="question" unicode="?" horiz-adv-x="562" 
d="M220 314l209 174l8 45l-42 51h-130l-55 -47l-10 -57h-134l18 106l135 114h248l111 -134l-22 -118l-212 -176l-14 -81h-132zM161 43l10 60l50 43h68l36 -43l-10 -60l-51 -43h-68z" />
    <glyph glyph-name="at" unicode="@" horiz-adv-x="835" 
d="M490 152l3 20l-82 -67h-108l-85 103l32 178l103 88h121l48 -58l10 54h94l-26 -147l-21 -120h47l55 49l27 150l-113 137h-240l-173 -147l-35 -197l120 -145h412l-18 -102h-465l-172 208l51 291l229 194h356l168 -204l-40 -229l-122 -103h-138zM487 339l-29 35h-63l-34 -29
l-19 -108l24 -30h53l52 44z" />
    <glyph glyph-name="A" unicode="A" horiz-adv-x="646" 
d="M340 700h124l133 -700h-138l-28 155h-246l-86 -155h-138zM418 267l-45 266h-2l-138 -266h185z" />
    <glyph glyph-name="B" unicode="B" horiz-adv-x="670" 
d="M145 700h430l90 -108l-34 -188l-47 -41l58 -72l-34 -193l-115 -98h-471zM462 407l42 36l19 108l-29 35h-236l-31 -179h235zM434 114l51 43l17 98l-35 43h-259l-33 -184h259z" />
    <glyph glyph-name="C" unicode="C" horiz-adv-x="655" 
d="M33 124l83 469l125 107h341l101 -121l-18 -99h-136l10 57l-38 47h-200l-60 -51l-65 -366l42 -51h200l55 47l11 57h136l-21 -115l-123 -105h-341z" />
    <glyph glyph-name="D" unicode="D" horiz-adv-x="688" 
d="M145 700h439l106 -128l-83 -469l-122 -103h-463zM422 116l60 51l65 366l-42 51h-244l-83 -468h244z" />
    <glyph glyph-name="E" unicode="E" horiz-adv-x="606" 
d="M145 700h505l-20 -115h-369l-31 -177h340l-20 -113h-340l-32 -180h369l-20 -115h-505z" />
    <glyph glyph-name="F" unicode="F" horiz-adv-x="576" 
d="M145 700h495l-20 -115h-359l-34 -194h311l-20 -115h-311l-49 -276h-136z" />
    <glyph glyph-name="G" unicode="G" horiz-adv-x="676" 
d="M33 124l84 469l125 107h346l101 -121l-18 -99h-136l10 57l-38 47h-205l-60 -51l-66 -366l42 -51h209l57 48l19 110h-149l20 116h281l-50 -287l-123 -103h-347z" />
    <glyph glyph-name="H" unicode="H" horiz-adv-x="698" 
d="M145 700h136l-51 -293h295l51 293h136l-123 -700h-136l51 291h-295l-51 -291h-136z" />
    <glyph glyph-name="I" unicode="I" horiz-adv-x="276" 
d="M150 700h136l-124 -700h-136z" />
    <glyph glyph-name="J" unicode="J" horiz-adv-x="580" 
d="M-1 129l22 122h132l-15 -84l42 -51h133l56 47l95 537h136l-105 -593l-125 -107h-265z" />
    <glyph glyph-name="K" unicode="K" horiz-adv-x="651" 
d="M145 700h136l-51 -293h97l220 293h161l-266 -349l160 -351h-145l-133 291h-115l-51 -291h-136z" />
    <glyph glyph-name="L" unicode="L" horiz-adv-x="561" 
d="M145 700h136l-103 -585h349l-20 -115h-485z" />
    <glyph glyph-name="M" unicode="M" horiz-adv-x="801" 
d="M145 700h118l129 -452h2l287 452h134l-123 -700h-131l75 426h-2l-218 -328h-84l-102 328h-2l-75 -426h-131z" />
    <glyph glyph-name="N" unicode="N" horiz-adv-x="697" 
d="M145 700h122l229 -475h2l83 475h131l-124 -700h-122l-227 474h-2l-84 -474h-131z" />
    <glyph glyph-name="O" unicode="O" horiz-adv-x="700" 
d="M33 124l83 469l125 107h360l102 -123l-84 -474l-122 -103h-362zM434 116l60 51l65 366l-42 51h-215l-60 -51l-66 -366l42 -51h216z" />
    <glyph glyph-name="P" unicode="P" horiz-adv-x="646" 
d="M145 700h430l95 -116l-44 -248l-115 -98h-311l-42 -238h-136zM460 352l41 35l29 164l-29 35h-240l-41 -234h240z" />
    <glyph glyph-name="Q" unicode="Q" horiz-adv-x="700" 
d="M619 103l-79 -66l75 -93l-98 -84l-119 140h-263l-102 124l83 469l125 107h360l102 -123zM559 533l-42 51h-215l-60 -51l-66 -366l42 -51h216l60 51z" />
    <glyph glyph-name="R" unicode="R" horiz-adv-x="675" 
d="M633 372l-76 -65l55 -75l-41 -232h-136l36 207l-44 61h-222l-47 -268h-136l123 700h430l95 -116zM225 380h240l41 35l24 136l-29 35h-240z" />
    <glyph glyph-name="S" unicode="S" horiz-adv-x="637" 
d="M27 116l17 92h134l-11 -59l27 -33h206l40 34l21 116l-27 33h-257l-96 116l32 185l118 100h315l97 -116l-16 -93h-134l10 60l-27 33h-198l-39 -33l-18 -103l27 -33h257l96 -116l-36 -199l-117 -100h-325z" />
    <glyph glyph-name="T" unicode="T" horiz-adv-x="584" 
d="M284 585h-209l20 115h554l-21 -115h-208l-103 -585h-136z" />
    <glyph glyph-name="U" unicode="U" horiz-adv-x="700" 
d="M44 128l101 572h136l-94 -533l42 -51h195l60 51l94 533h136l-104 -590l-129 -110h-331z" />
    <glyph glyph-name="V" unicode="V" horiz-adv-x="650" 
d="M90 700h134l79 -538h2l269 538h146l-372 -700h-132z" />
    <glyph glyph-name="W" unicode="W" horiz-adv-x="879" 
d="M105 700h134l-2 -494h4l226 494h102l49 -494h4l172 494h140l-268 -700h-127l-53 492h-4l-228 -492h-127z" />
    <glyph glyph-name="X" unicode="X" horiz-adv-x="652" 
d="M269 361l-175 339h147l118 -230l198 230h159l-294 -343l181 -357h-147l-124 247l-212 -247h-159z" />
    <glyph glyph-name="Y" unicode="Y" horiz-adv-x="634" 
d="M256 286l-176 414h141l116 -287h2l218 287h157l-322 -414l-50 -286h-136z" />
    <glyph glyph-name="Z" unicode="Z" horiz-adv-x="592" 
d="M10 108l443 476v2h-349l20 114h512l-19 -108l-443 -476v-2h359l-20 -114h-522z" />
    <glyph glyph-name="bracketleft" unicode="[" horiz-adv-x="344" 
d="M165 816h264l-21 -114h-132l-124 -705h132l-20 -114h-264z" />
    <glyph glyph-name="backslash" unicode="\" horiz-adv-x="537" 
d="M80 700h137l276 -700h-136z" />
    <glyph glyph-name="bracketright" unicode="]" horiz-adv-x="344" 
d="M214 -117h-264l21 114h132l124 705h-132l20 114h264z" />
    <glyph glyph-name="asciicircum" unicode="^" horiz-adv-x="657" 
d="M344 700h124l148 -456h-132l-95 309h-6l-200 -309h-144z" />
    <glyph glyph-name="underscore" unicode="_" horiz-adv-x="482" 
d="M-45 -10h481l-20 -112h-481z" />
    <glyph glyph-name="grave" unicode="`" horiz-adv-x="240" 
d="M96 713h139l46 -169h-116z" />
    <glyph glyph-name="a" unicode="a" horiz-adv-x="575" 
d="M19 100l19 112l101 86h259l10 63l-25 31h-149l-36 -31l-5 -28h-130l13 65l116 100h256l95 -116l-67 -382h-119l12 71l-86 -71h-182zM292 102l84 69l6 33h-188l-32 -27l-9 -50l21 -25h118z" />
    <glyph glyph-name="b" unicode="b" horiz-adv-x="600" 
d="M37 116l105 598h132l-50 -285l85 69h174l91 -112l-52 -292l-109 -94h-282zM356 112l45 39l34 196l-31 39h-98l-106 -90l-25 -145l31 -39h150z" />
    <glyph glyph-name="c" unicode="c" horiz-adv-x="558" 
d="M26 110l51 294l110 94h274l91 -112l-15 -84h-132l9 49l-29 35h-144l-41 -35l-36 -204l29 -35h144l41 35l9 49h132l-19 -102l-109 -94h-276z" />
    <glyph glyph-name="d" unicode="d" horiz-adv-x="602" 
d="M26 112l51 290l112 96h198l56 -58l49 274h132l-126 -714h-124l13 77l-89 -77h-180zM305 112l96 83l23 130l-57 61h-122l-45 -39l-35 -196l31 -39h109z" />
    <glyph glyph-name="e" unicode="e" horiz-adv-x="583" 
d="M26 110l51 292l113 96h280l92 -112l-32 -181h-355l-11 -64l26 -33h162l36 31l4 26h130l-13 -75l-105 -90h-288zM414 297l11 58l-28 35h-155l-40 -35l-11 -58h223z" />
    <glyph glyph-name="f" unicode="f" horiz-adv-x="400" 
d="M129 387h-90l20 111h90l18 107l110 93h192l-19 -109h-127l-33 -28l-11 -63h155l-20 -111h-153l-68 -387h-132z" />
    <glyph glyph-name="g" unicode="g" horiz-adv-x="602" 
d="M586 498l-110 -622l-115 -97h-273l-84 100l11 60h132l-5 -30l15 -20h154l41 35l26 141l-80 -65h-180l-92 112l51 290l112 96h196l66 -75l13 75h122zM424 325l-57 61h-122l-45 -39l-35 -196l31 -39h109l96 83z" />
    <glyph glyph-name="h" unicode="h" horiz-adv-x="594" 
d="M142 714h132l-52 -290l87 74h155l98 -119l-67 -379h-132l62 351l-28 35h-82l-117 -100l-50 -286h-132z" />
    <glyph glyph-name="i" unicode="i" horiz-adv-x="272" 
d="M118 602l11 64l55 46h69l37 -46l-11 -66l-52 -44h-71zM115 498h132l-88 -498h-132z" />
    <glyph glyph-name="j" unicode="j" horiz-adv-x="287" 
d="M133 602l11 64l54 46h69l38 -46l-11 -66l-53 -44h-71zM-127 -106h115l41 35l100 569h132l-109 -619l-114 -97h-185z" />
    <glyph glyph-name="k" unicode="k" horiz-adv-x="567" 
d="M143 714h132l-71 -399h81l159 183h152l-209 -240l131 -258h-136l-104 203h-94l-36 -203h-132z" />
    <glyph glyph-name="l" unicode="l" horiz-adv-x="262" 
d="M148 714h132l-127 -714h-132z" />
    <glyph glyph-name="m" unicode="m" horiz-adv-x="861" 
d="M104 498h122l-15 -82l96 82h122l56 -69l80 69h169l95 -116l-68 -382h-132l62 351l-28 35h-83l-62 -53l-59 -333h-128l62 353l-26 33h-56l-112 -96l-51 -290h-132z" />
    <glyph glyph-name="n" unicode="n" horiz-adv-x="592" 
d="M104 498h122l-15 -83l98 83h153l98 -119l-67 -379h-132l62 351l-28 35h-80l-117 -100l-50 -286h-132z" />
    <glyph glyph-name="o" unicode="o" horiz-adv-x="592" 
d="M26 112l51 290l112 96h285l92 -112l-51 -292l-109 -94h-288zM351 110l41 35l36 208l-29 35h-157l-41 -35l-37 -208l29 -35h158z" />
    <glyph glyph-name="p" unicode="p" horiz-adv-x="602" 
d="M104 498h122l-13 -73l86 73h185l92 -112l-52 -292l-110 -94h-194l-61 60l-48 -272h-132zM360 112l41 35l37 204l-29 35h-113l-94 -81l-21 -122l66 -71h113z" />
    <glyph glyph-name="q" unicode="q" horiz-adv-x="595" 
d="M377 71l-83 -71h-176l-92 112l51 290l112 96h280l94 -116l-104 -594h-132zM295 112l106 95l26 144l-28 35h-158l-40 -35l-36 -204l27 -35h103z" />
    <glyph glyph-name="r" unicode="r" horiz-adv-x="409" 
d="M104 498h122l-15 -83l95 83h142l-20 -112h-111l-120 -104l-49 -282h-132z" />
    <glyph glyph-name="s" unicode="s" horiz-adv-x="536" 
d="M10 106l9 53h130l-5 -28l18 -23h162l26 23l7 43l-18 24h-207l-85 103l20 109l103 88h260l86 -106l-10 -53h-130l5 28l-18 23h-148l-26 -23l-6 -39l18 -24h207l85 -103l-20 -113l-103 -88h-274z" />
    <glyph glyph-name="t" unicode="t" horiz-adv-x="414" 
d="M80 110l49 277h-90l20 111h92l28 162h130l-28 -162h152l-20 -112h-152l-43 -241l29 -33h118l-20 -112h-173z" />
    <glyph glyph-name="u" unicode="u" horiz-adv-x="591" 
d="M32 113l67 385h132l-62 -352l28 -34h78l118 100l50 286h132l-88 -498h-122l15 85l-101 -85h-155z" />
    <glyph glyph-name="v" unicode="v" horiz-adv-x="510" 
d="M44 498h132l55 -347h4l177 347h142l-279 -498h-128z" />
    <glyph glyph-name="w" unicode="w" horiz-adv-x="729" 
d="M64 498h131l2 -314h4l145 314h120l28 -314h4l118 314h137l-217 -498h-123l-33 336h-4l-157 -336h-123z" />
    <glyph glyph-name="x" unicode="x" horiz-adv-x="528" 
d="M334 0l-83 152l-137 -152h-153l231 253l-138 245h145l79 -146l131 146h153l-224 -247l141 -251h-145z" />
    <glyph glyph-name="y" unicode="y" horiz-adv-x="593" 
d="M577 498l-110 -622l-116 -97h-263l-84 100l11 60h132l-5 -30l15 -20h146l40 35l27 150l-87 -74h-173l-81 100l70 398h132l-62 -351l28 -35h87l110 99l51 287h132z" />
    <glyph glyph-name="z" unicode="z" horiz-adv-x="498" 
d="M-1 102l328 287v2h-267l19 107h438l-18 -102l-328 -287v-2h277l-19 -107h-448z" />
    <glyph glyph-name="braceleft" unicode="{" horiz-adv-x="377" 
d="M61 -19l45 257l-64 80l11 64l92 80l45 256l116 98h156l-20 -114h-88l-40 -34l-42 -239l-87 -75l-1 -8l60 -75l-43 -240l28 -34h88l-20 -114h-157z" />
    <glyph glyph-name="bar" unicode="|" horiz-adv-x="264" 
d="M170 846h134l-185 -1050h-134z" />
    <glyph glyph-name="braceright" unicode="}" horiz-adv-x="377" 
d="M352 718l-45 -257l64 -80l-11 -64l-92 -80l-45 -256l-116 -98h-156l20 114h88l40 34l42 239l87 75l1 8l-60 75l43 240l-28 34h-88l20 114h157z" />
    <glyph glyph-name="asciitilde" unicode="~" horiz-adv-x="586" 
d="M213 261h-17l-28 -25l-11 -62h-130l18 100l123 106h100l112 -97h13l33 29l11 58h130l-18 -100l-124 -106h-100z" />
    <glyph glyph-name="uni00A0" unicode="&#xa0;" horiz-adv-x="272" 
 />
    <glyph glyph-name="exclamdown" unicode="&#xa1;" horiz-adv-x="274" 
d="M250 455l-10 -60l-50 -43h-68l-36 43l10 60l51 43h68zM150 -68l-24 -134h-136l24 134l80 364h104z" />
    <glyph glyph-name="cent" unicode="&#xa2;" horiz-adv-x="558" 
d="M405 302l9 49l-29 35h-144l-41 -35l-36 -204l29 -35h144l41 35l9 49h132l-19 -102l-109 -94h-84l-20 -110h-118l20 110h-74l-89 110l51 294l110 94h89l18 100h118l-18 -100h67l91 -112l-15 -84h-132z" />
    <glyph glyph-name="sterling" unicode="&#xa3;" horiz-adv-x="632" 
d="M515 502l8 47l-31 37h-115l-60 -51l-25 -145h237l-20 -112h-237l-10 -59l-87 -84l-4 -21h417l-20 -114h-555l26 146l91 88l8 44h-93l20 112h92l34 192l139 118h231l100 -120l-14 -78h-132z" />
    <glyph glyph-name="currency" unicode="&#xa4;" horiz-adv-x="659" 
d="M568 226l-36 -30l64 -78l-92 -78l-63 78l-31 -26h-216l-22 27l-91 -79l-64 78l92 78l-25 30l37 210l36 30l-65 79l92 78l64 -79l31 26h216l21 -26l91 79l64 -78l-92 -78l26 -31zM390 208l55 47l27 152l-39 47h-134l-55 -47l-27 -152l39 -47h134z" />
    <glyph glyph-name="yen" unicode="&#xa5;" horiz-adv-x="634" 
d="M425 329h130l-18 -98h-155l-8 -46h155l-17 -98h-155l-15 -87h-136l15 87h-155l17 98h155l8 46h-155l18 98h129l-158 371h141l116 -287h2l218 287h157z" />
    <glyph glyph-name="brokenbar" unicode="&#xa6;" horiz-adv-x="264" 
d="M170 846h134l-79 -451h-134zM68 267h134l-83 -471h-134z" />
    <glyph glyph-name="section" unicode="&#xa7;" horiz-adv-x="546" 
d="M401 533l7 36l-19 23h-120l-27 -23l-11 -57l20 -24h190l88 -106l-22 -120l-72 -61l39 -47l-21 -114l-103 -88h-235l-88 106l11 61h134l-6 -36l19 -23h119l27 23l9 53l-19 28h-193l-85 103l23 127l69 57l-37 44l20 115l108 90h233l87 -106l-11 -61h-134zM189 359l-11 -65
l20 -24h158l27 23l11 65l-19 24h-158z" />
    <glyph glyph-name="dieresis" unicode="&#xa8;" horiz-adv-x="399" 
d="M78 590l10 58l46 39h67l31 -40l-10 -58l-43 -38h-69zM298 591l10 56l45 40h67l32 -39l-10 -60l-44 -37h-69z" />
    <glyph glyph-name="copyright" unicode="&#xa9;" horiz-adv-x="838" 
d="M32 201l55 314l218 185h369l167 -201l-55 -316l-216 -183h-372zM531 102l155 132l41 232l-109 132h-276l-155 -132l-41 -232l109 -132h276zM220 273l30 170l122 104l186 1l98 -119l-10 -52h-106l6 29l-34 41h-104l-53 -45l-18 -104l37 -45h104l48 41l6 33h106l-12 -71
l-121 -103h-186z" />
    <glyph glyph-name="ordfeminine" unicode="&#xaa;" horiz-adv-x="428" 
d="M65 417l13 78l76 65h177l6 37l-11 14h-100l-12 -10l-4 -19h-114l8 43l88 75h187l73 -88l-46 -261h-98l8 47l-63 -47h-133zM272 435l42 32l4 23h-115l-16 -14l-5 -27l11 -14h79z" />
    <glyph glyph-name="guillemotleft" unicode="&#xab;" horiz-adv-x="571" 
d="M16 225l16 88l286 193l-25 -146l-146 -96l-1 -6l112 -96l-23 -130zM274 225l16 88l286 193l-25 -146l-146 -96l-1 -6l112 -96l-23 -130z" />
    <glyph glyph-name="logicalnot" unicode="&#xac;" horiz-adv-x="561" 
d="M397 294h-349l20 112h481l-46 -260h-132z" />
    <glyph glyph-name="uni00AD" unicode="&#xad;" horiz-adv-x="432" 
d="M51 314h352l-20 -114h-352z" />
    <glyph glyph-name="registered" unicode="&#xae;" horiz-adv-x="557" 
d="M65 387l39 225l135 114h234l106 -128l-41 -227l-132 -112h-236zM378 336l82 70l31 173l-58 70h-168l-82 -70l-31 -173l58 -70h168zM248 610h147l40 -48l-12 -65l-29 -23l21 -28l-10 -59h-68l7 42l-15 20h-41l-11 -62h-68zM347 505l14 12l5 27l-10 12h-51l-9 -51h51z" />
    <glyph glyph-name="macron" unicode="&#xaf;" horiz-adv-x="342" 
d="M75 660h340l-19 -106h-340z" />
    <glyph glyph-name="degree" unicode="&#xb0;" horiz-adv-x="362" 
d="M91 541l20 112l86 73h124l70 -85l-20 -114l-84 -71h-126zM255 541l32 27l8 46l-22 27h-46l-32 -27l-8 -46l22 -27h46z" />
    <glyph glyph-name="plusminus" unicode="&#xb1;" horiz-adv-x="564" 
d="M554 420l-20 -112h-176l-25 -144h-132l25 144h-176l20 112h176l27 154h132l-27 -154h176zM16 112h484l-20 -112h-484z" />
    <glyph glyph-name="uni00B2" unicode="&#xb2;" horiz-adv-x="398" 
d="M50 377l254 173l5 32l-11 14h-73l-17 -14l-7 -40h-124l15 84l87 74h191l71 -86l-18 -101l-206 -131l-1 -4h185l-17 -98h-351z" />
    <glyph glyph-name="uni00B3" unicode="&#xb3;" horiz-adv-x="431" 
d="M51 366l10 55h124l-4 -26l10 -14h83l17 14l7 41l-9 11h-116l15 88h116l13 12l7 38l-12 14h-78l-16 -14l-5 -26h-124l13 71l82 70h200l72 -86l-17 -92l-37 -31l26 -31l-19 -112l-80 -68h-207z" />
    <glyph glyph-name="acute" unicode="&#xb4;" horiz-adv-x="253" 
d="M178 713h139l-129 -169h-116z" />
    <glyph glyph-name="paragraph" unicode="&#xb6;" horiz-adv-x="605" 
d="M247 279h-80l-100 122l35 193l125 106h213l-159 -904h-119zM499 700h120l-159 -904h-120z" />
    <glyph glyph-name="periodcentered" unicode="&#xb7;" horiz-adv-x="238" 
d="M40 247l12 64l50 43h73l34 -44l-10 -62l-50 -44h-73z" />
    <glyph glyph-name="cedilla" unicode="&#xb8;" horiz-adv-x="279" 
d="M-44 -150h118l14 12l5 26l-10 12h-99l5 31l69 123h94l-51 -88h52l41 -50l-16 -88l-61 -52h-174z" />
    <glyph glyph-name="uni00B9" unicode="&#xb9;" horiz-adv-x="292" 
d="M172 566l-104 -47l20 114l134 67h100l-74 -420h-126z" />
    <glyph glyph-name="ordmasculine" unicode="&#xba;" horiz-adv-x="427" 
d="M68 435l34 193l85 72h201l69 -84l-35 -195l-83 -70h-203zM292 446l23 20l22 119l-16 20h-88l-23 -20l-22 -119l16 -20h88z" />
    <glyph glyph-name="guillemotright" unicode="&#xbb;" horiz-adv-x="571" 
d="M304 313l-16 -88l-286 -193l25 146l146 96l1 6l-112 96l23 130zM562 313l-16 -88l-286 -193l25 146l146 96l1 6l-112 96l23 130z" />
    <glyph glyph-name="onequarter" unicode="&#xbc;" horiz-adv-x="873" 
d="M624 66h-209l18 102l234 252h145l-44 -250h51l-18 -104h-51l-12 -66h-126zM653 164l24 135h-2l-115 -127l-2 -8h95zM765 700l-524 -700h-136l524 700h136zM192 566l-104 -47l20 114l134 67h100l-74 -420h-126z" />
    <glyph glyph-name="onehalf" unicode="&#xbd;" horiz-adv-x="921" 
d="M765 700l-524 -700h-136l524 700h136zM192 566l-104 -47l20 114l134 67h100l-74 -420h-126zM503 97l254 173l5 32l-11 14h-73l-17 -14l-7 -40h-124l15 84l87 74h191l71 -86l-18 -101l-206 -131l-1 -4h185l-17 -98h-351z" />
    <glyph glyph-name="threequarters" unicode="&#xbe;" horiz-adv-x="973" 
d="M61 366l10 55h124l-4 -26l10 -14h83l17 14l7 41l-9 11h-116l15 88h116l13 12l7 38l-12 14h-78l-16 -14l-5 -26h-124l13 71l82 70h200l72 -86l-17 -92l-37 -31l26 -31l-19 -112l-80 -68h-207zM724 66h-209l18 102l234 252h145l-44 -250h51l-18 -104h-51l-12 -66h-126z
M753 164l24 135h-2l-115 -127l-2 -8h95zM867 700l-524 -700h-136l524 700h136z" />
    <glyph glyph-name="questiondown" unicode="&#xbf;" horiz-adv-x="562" 
d="M401 455l-10 -60l-50 -43h-68l-36 43l10 60l51 43h68zM342 184l-209 -174l-8 -45l42 -51h130l55 47l10 57h134l-18 -106l-135 -114h-248l-111 134l22 118l212 176l14 81h132z" />
    <glyph glyph-name="Agrave" unicode="&#xc0;" horiz-adv-x="646" 
d="M340 700h124l133 -700h-138l-28 155h-246l-86 -155h-138zM418 267l-45 266h-2l-138 -266h185zM275 915h139l46 -169h-116z" />
    <glyph glyph-name="Aacute" unicode="&#xc1;" horiz-adv-x="646" 
d="M340 700h124l133 -700h-138l-28 155h-246l-86 -155h-138zM418 267l-45 266h-2l-138 -266h185zM453 915h139l-129 -169h-116z" />
    <glyph glyph-name="Acircumflex" unicode="&#xc2;" horiz-adv-x="646" 
d="M340 700h124l133 -700h-138l-28 155h-246l-86 -155h-138zM418 267l-45 266h-2l-138 -266h185zM382 907h106l114 -161h-124l-52 75h-6l-78 -75h-130z" />
    <glyph glyph-name="Atilde" unicode="&#xc3;" horiz-adv-x="646" 
d="M340 700h124l133 -700h-138l-28 155h-246l-86 -155h-138zM418 267l-45 266h-2l-138 -266h185zM374 808h-22l-15 -12l-6 -33l-96 -1l13 71l81 69h84l55 -52h23l14 12l6 34h96l-13 -71l-81 -69h-84z" />
    <glyph glyph-name="Adieresis" unicode="&#xc4;" horiz-adv-x="646" 
d="M340 700h124l133 -700h-138l-28 155h-246l-86 -155h-138zM418 267l-45 266h-2l-138 -266h185zM232 792l10 58l46 39h67l31 -40l-10 -58l-43 -38h-69zM452 793l10 56l45 40h67l32 -39l-10 -60l-44 -37h-69z" />
    <glyph glyph-name="Aring" unicode="&#xc5;" horiz-adv-x="646" 
d="M340 700h124l133 -700h-138l-28 155h-246l-86 -155h-138zM418 267l-45 266h-2l-138 -266h185zM296 820l17 98l75 64h110l61 -74l-17 -99l-74 -63h-111zM442 821l28 24l7 38l-20 24h-44l-28 -24l-7 -38l20 -24h44z" />
    <glyph glyph-name="AE" unicode="&#xc6;" horiz-adv-x="957" 
d="M623 582l-31 -172h329l-20 -116h-329l-31 -176h358l-21 -118h-494l32 179h-209l-109 -179h-142l436 700h609l-20 -118h-358zM436 293l51 289h-33l-177 -289h159z" />
    <glyph glyph-name="Ccedilla" unicode="&#xc7;" horiz-adv-x="655" 
d="M529 480l10 57l-38 47h-200l-60 -51l-65 -366l42 -51h200l55 47l11 57h136l-21 -115l-123 -105h-130l-20 -34h52l41 -50l-17 -93l-55 -47h-179l13 74h118l14 12l5 26l-10 12h-99l5 31l39 69h-118l-102 124l83 469l125 107h341l101 -121l-18 -99h-136z" />
    <glyph glyph-name="Egrave" unicode="&#xc8;" horiz-adv-x="606" 
d="M145 700h505l-20 -115h-369l-31 -177h340l-20 -113h-340l-32 -180h369l-20 -115h-505zM251 915h139l46 -169h-116z" />
    <glyph glyph-name="Eacute" unicode="&#xc9;" horiz-adv-x="606" 
d="M145 700h505l-20 -115h-369l-31 -177h340l-20 -113h-340l-32 -180h369l-20 -115h-505zM458 915h139l-129 -169h-116z" />
    <glyph glyph-name="Ecircumflex" unicode="&#xca;" horiz-adv-x="606" 
d="M145 700h505l-20 -115h-369l-31 -177h340l-20 -113h-340l-32 -180h369l-20 -115h-505zM387 907h106l114 -161h-124l-52 75h-6l-78 -75h-130z" />
    <glyph glyph-name="Edieresis" unicode="&#xcb;" horiz-adv-x="606" 
d="M145 700h505l-20 -115h-369l-31 -177h340l-20 -113h-340l-32 -180h369l-20 -115h-505zM237 792l10 58l46 39h67l31 -40l-10 -58l-43 -38h-69zM457 793l10 56l45 40h67l32 -39l-10 -60l-44 -37h-69z" />
    <glyph glyph-name="Igrave" unicode="&#xcc;" horiz-adv-x="276" 
d="M150 700h136l-124 -700h-136zM94 915h139l46 -169h-116z" />
    <glyph glyph-name="Iacute" unicode="&#xcd;" horiz-adv-x="276" 
d="M150 700h136l-124 -700h-136zM272 915h139l-129 -169h-116z" />
    <glyph glyph-name="Icircumflex" unicode="&#xce;" horiz-adv-x="276" 
d="M150 700h136l-124 -700h-136zM201 907h106l114 -161h-124l-52 75h-6l-78 -75h-130z" />
    <glyph glyph-name="Idieresis" unicode="&#xcf;" horiz-adv-x="276" 
d="M150 700h136l-124 -700h-136zM51 792l10 58l46 39h67l31 -40l-10 -58l-43 -38h-69zM271 793l10 56l45 40h67l32 -39l-10 -60l-44 -37h-69z" />
    <glyph glyph-name="Eth" unicode="&#xd0;" horiz-adv-x="738" 
d="M740 572l-83 -469l-122 -103h-463l51 292h-105l21 118h105l51 290h439zM597 533l-42 51h-244l-31 -174h154l-21 -118h-154l-31 -176h244l60 51z" />
    <glyph glyph-name="Ntilde" unicode="&#xd1;" horiz-adv-x="697" 
d="M145 700h122l229 -475h2l83 475h131l-124 -700h-122l-227 474h-2l-84 -474h-131zM394 808h-22l-15 -12l-6 -33l-96 -1l13 71l81 69h84l55 -52h23l14 12l6 34h96l-13 -71l-81 -69h-84z" />
    <glyph glyph-name="Ograve" unicode="&#xd2;" horiz-adv-x="700" 
d="M33 124l83 469l125 107h360l102 -123l-84 -474l-122 -103h-362zM434 116l60 51l65 366l-42 51h-215l-60 -51l-66 -366l42 -51h216zM302 915h139l46 -169h-116z" />
    <glyph glyph-name="Oacute" unicode="&#xd3;" horiz-adv-x="700" 
d="M33 124l83 469l125 107h360l102 -123l-84 -474l-122 -103h-362zM434 116l60 51l65 366l-42 51h-215l-60 -51l-66 -366l42 -51h216zM480 915h139l-129 -169h-116z" />
    <glyph glyph-name="Ocircumflex" unicode="&#xd4;" horiz-adv-x="700" 
d="M33 124l83 469l125 107h360l102 -123l-84 -474l-122 -103h-362zM434 116l60 51l65 366l-42 51h-215l-60 -51l-66 -366l42 -51h216zM409 907h106l114 -161h-124l-52 75h-6l-78 -75h-130z" />
    <glyph glyph-name="Otilde" unicode="&#xd5;" horiz-adv-x="700" 
d="M33 124l83 469l125 107h360l102 -123l-84 -474l-122 -103h-362zM434 116l60 51l65 366l-42 51h-215l-60 -51l-66 -366l42 -51h216zM401 808h-22l-15 -12l-6 -33l-96 -1l13 71l81 69h84l55 -52h23l14 12l6 34h96l-13 -71l-81 -69h-84z" />
    <glyph glyph-name="Odieresis" unicode="&#xd6;" horiz-adv-x="700" 
d="M33 124l83 469l125 107h360l102 -123l-84 -474l-122 -103h-362zM434 116l60 51l65 366l-42 51h-215l-60 -51l-66 -366l42 -51h216zM259 792l10 58l46 39h67l31 -40l-10 -58l-43 -38h-69zM479 793l10 56l45 40h67l32 -39l-10 -60l-44 -37h-69z" />
    <glyph glyph-name="multiply" unicode="&#xd7;" horiz-adv-x="508" 
d="M338 264l109 -132l-96 -82l-109 132l-155 -132l-68 82l156 132l-109 132l96 82l109 -132l155 132l68 -82z" />
    <glyph glyph-name="Oslash" unicode="&#xd8;" horiz-adv-x="700" 
d="M671 616l32 -39l-84 -474l-122 -103h-362l-24 29l-65 -69h-109l124 130l-28 34l83 469l125 107h360l19 -23l60 63h109zM186 221l338 355l-7 8h-215l-60 -51zM551 491l-344 -362l11 -13h216l60 51z" />
    <glyph glyph-name="Ugrave" unicode="&#xd9;" horiz-adv-x="700" 
d="M44 128l101 572h136l-94 -533l42 -51h195l60 51l94 533h136l-104 -590l-129 -110h-331zM280 915h139l46 -169h-116z" />
    <glyph glyph-name="Uacute" unicode="&#xda;" horiz-adv-x="700" 
d="M44 128l101 572h136l-94 -533l42 -51h195l60 51l94 533h136l-104 -590l-129 -110h-331zM484 915h139l-129 -169h-116z" />
    <glyph glyph-name="Ucircumflex" unicode="&#xdb;" horiz-adv-x="700" 
d="M44 128l101 572h136l-94 -533l42 -51h195l60 51l94 533h136l-104 -590l-129 -110h-331zM413 907h106l114 -161h-124l-52 75h-6l-78 -75h-130z" />
    <glyph glyph-name="Udieresis" unicode="&#xdc;" horiz-adv-x="700" 
d="M44 128l101 572h136l-94 -533l42 -51h195l60 51l94 533h136l-104 -590l-129 -110h-331zM263 792l10 58l46 39h67l31 -40l-10 -58l-43 -38h-69zM483 793l10 56l45 40h67l32 -39l-10 -60l-44 -37h-69z" />
    <glyph glyph-name="Yacute" unicode="&#xdd;" horiz-adv-x="634" 
d="M256 286l-176 414h141l116 -287h2l218 287h157l-322 -414l-50 -286h-136zM442 915h139l-129 -169h-116z" />
    <glyph glyph-name="Thorn" unicode="&#xde;" horiz-adv-x="646" 
d="M649 465l-44 -248l-115 -98h-311l-22 -119h-136l103 581l21 119h136l-21 -119h294zM509 432l-29 35h-240l-2 -14l-39 -220h240l41 35z" />
    <glyph glyph-name="germandbls" unicode="&#xdf;" horiz-adv-x="655" 
d="M128 605l111 95h269l92 -111l-20 -114l-99 -90l-4 -20l5 -6h68l86 -104l-29 -167l-104 -88h-198l-81 98l13 72h130l-7 -37l19 -23h76l27 23l17 92l-20 24h-79l-62 75l14 76l99 94l12 66l-23 28h-155l-33 -28l-99 -560h-132z" />
    <glyph glyph-name="agrave" unicode="&#xe0;" horiz-adv-x="575" 
d="M19 100l19 112l101 86h259l10 63l-25 31h-149l-36 -31l-5 -28h-130l13 65l116 100h256l95 -116l-67 -382h-119l12 71l-86 -71h-182zM292 102l84 69l6 33h-188l-32 -27l-9 -50l21 -25h118zM225 713h139l46 -169h-116z" />
    <glyph glyph-name="aacute" unicode="&#xe1;" horiz-adv-x="575" 
d="M19 100l19 112l101 86h259l10 63l-25 31h-149l-36 -31l-5 -28h-130l13 65l116 100h256l95 -116l-67 -382h-119l12 71l-86 -71h-182zM292 102l84 69l6 33h-188l-32 -27l-9 -50l21 -25h118zM388 713h139l-129 -169h-116z" />
    <glyph glyph-name="acircumflex" unicode="&#xe2;" horiz-adv-x="575" 
d="M19 100l19 112l101 86h259l10 63l-25 31h-149l-36 -31l-5 -28h-130l13 65l116 100h256l95 -116l-67 -382h-119l12 71l-86 -71h-182zM292 102l84 69l6 33h-188l-32 -27l-9 -50l21 -25h118zM317 705h106l114 -161h-124l-52 75h-6l-78 -75h-130z" />
    <glyph glyph-name="atilde" unicode="&#xe3;" horiz-adv-x="575" 
d="M19 100l19 112l101 86h259l10 63l-25 31h-149l-36 -31l-5 -28h-130l13 65l116 100h256l95 -116l-67 -382h-119l12 71l-86 -71h-182zM292 102l84 69l6 33h-188l-32 -27l-9 -50l21 -25h118zM309 606h-22l-15 -12l-6 -33l-96 -1l13 71l81 69h84l55 -52h23l14 12l6 34h96
l-13 -71l-81 -69h-84z" />
    <glyph glyph-name="adieresis" unicode="&#xe4;" horiz-adv-x="575" 
d="M19 100l19 112l101 86h259l10 63l-25 31h-149l-36 -31l-5 -28h-130l13 65l116 100h256l95 -116l-67 -382h-119l12 71l-86 -71h-182zM292 102l84 69l6 33h-188l-32 -27l-9 -50l21 -25h118zM167 590l10 58l46 39h67l31 -40l-10 -58l-43 -38h-69zM387 591l10 56l45 40h67
l32 -39l-10 -60l-44 -37h-69z" />
    <glyph glyph-name="aring" unicode="&#xe5;" horiz-adv-x="575" 
d="M19 100l19 112l101 86h259l10 63l-25 31h-149l-36 -31l-5 -28h-130l13 65l116 100h256l95 -116l-67 -382h-119l12 71l-86 -71h-182zM292 102l84 69l6 33h-188l-32 -27l-9 -50l21 -25h118zM231 618l17 98l75 64h110l61 -74l-17 -99l-74 -63h-111zM377 619l28 24l7 38
l-20 24h-44l-28 -24l-7 -38l20 -24h44z" />
    <glyph glyph-name="ae" unicode="&#xe6;" horiz-adv-x="915" 
d="M518 205l-11 -64l26 -33h151l36 31l4 26h130l-13 -75l-105 -90h-267l-57 71l-83 -71h-228l-82 100l19 112l102 86h262l11 63l-27 31h-152l-36 -31l-5 -28h-130l13 65l116 100h258l44 -53l61 53h247l92 -112l-32 -181h-344zM545 355l-11 -58h212l11 58l-28 35h-144z
M379 165l7 39h-192l-32 -27l-9 -50l21 -25h131z" />
    <glyph glyph-name="ccedilla" unicode="&#xe7;" horiz-adv-x="558" 
d="M405 302l9 49l-29 35h-144l-41 -35l-36 -204l29 -35h144l41 35l9 49h132l-19 -102l-109 -94h-100l-20 -34h52l41 -50l-17 -93l-55 -47h-179l13 74h118l14 12l5 26l-10 12h-99l5 31l39 69h-83l-89 110l51 294l110 94h274l91 -112l-15 -84h-132z" />
    <glyph glyph-name="egrave" unicode="&#xe8;" horiz-adv-x="583" 
d="M26 110l51 292l113 96h280l92 -112l-32 -181h-355l-11 -64l26 -33h162l36 31l4 26h130l-13 -75l-105 -90h-288zM414 297l11 58l-28 35h-155l-40 -35l-11 -58h223zM208 713h139l46 -169h-116z" />
    <glyph glyph-name="eacute" unicode="&#xe9;" horiz-adv-x="583" 
d="M26 110l51 292l113 96h280l92 -112l-32 -181h-355l-11 -64l26 -33h162l36 31l4 26h130l-13 -75l-105 -90h-288zM414 297l11 58l-28 35h-155l-40 -35l-11 -58h223zM386 713h139l-129 -169h-116z" />
    <glyph glyph-name="ecircumflex" unicode="&#xea;" horiz-adv-x="583" 
d="M26 110l51 292l113 96h280l92 -112l-32 -181h-355l-11 -64l26 -33h162l36 31l4 26h130l-13 -75l-105 -90h-288zM414 297l11 58l-28 35h-155l-40 -35l-11 -58h223zM315 705h106l114 -161h-124l-52 75h-6l-78 -75h-130z" />
    <glyph glyph-name="edieresis" unicode="&#xeb;" horiz-adv-x="583" 
d="M26 110l51 292l113 96h280l92 -112l-32 -181h-355l-11 -64l26 -33h162l36 31l4 26h130l-13 -75l-105 -90h-288zM414 297l11 58l-28 35h-155l-40 -35l-11 -58h223zM165 590l10 58l46 39h67l31 -40l-10 -58l-43 -38h-69zM385 591l10 56l45 40h67l32 -39l-10 -60l-44 -37
h-69z" />
    <glyph glyph-name="igrave" unicode="&#xec;" horiz-adv-x="272" 
d="M114 498h132l-88 -498h-132zM56 713h139l46 -169h-116z" />
    <glyph glyph-name="iacute" unicode="&#xed;" horiz-adv-x="272" 
d="M114 498h132l-88 -498h-132zM234 713h139l-129 -169h-116z" />
    <glyph glyph-name="icircumflex" unicode="&#xee;" horiz-adv-x="272" 
d="M114 498h132l-88 -498h-132zM163 705h106l114 -161h-124l-52 75h-6l-78 -75h-130z" />
    <glyph glyph-name="idieresis" unicode="&#xef;" horiz-adv-x="272" 
d="M114 498h132l-88 -498h-132zM13 590l10 58l46 39h67l31 -40l-10 -58l-43 -38h-69zM233 591l10 56l45 40h67l32 -39l-10 -60l-44 -37h-69z" />
    <glyph glyph-name="eth" unicode="&#xf0;" horiz-adv-x="617" 
d="M565 579l42 -74l-72 -407l-115 -98h-298l-95 116l40 232l118 100h209l59 -58l18 103l-16 28l-103 -54l-31 79l93 49l-5 9h-150l17 96h221l27 -48l98 52l31 -79zM431 264l-67 70h-130l-41 -35l-26 -146l29 -35h174l41 35z" />
    <glyph glyph-name="ntilde" unicode="&#xf1;" horiz-adv-x="592" 
d="M104 498h122l-15 -83l98 83h153l98 -119l-67 -379h-132l62 351l-28 35h-80l-117 -100l-50 -286h-132zM321 606h-22l-15 -12l-6 -33l-96 -1l13 71l81 69h84l55 -52h23l14 12l6 34h96l-13 -71l-81 -69h-84z" />
    <glyph glyph-name="ograve" unicode="&#xf2;" horiz-adv-x="592" 
d="M26 112l51 290l112 96h285l92 -112l-51 -292l-109 -94h-288zM351 110l41 35l36 208l-29 35h-157l-41 -35l-37 -208l29 -35h158zM209 713h139l46 -169h-116z" />
    <glyph glyph-name="oacute" unicode="&#xf3;" horiz-adv-x="592" 
d="M26 112l51 290l112 96h285l92 -112l-51 -292l-109 -94h-288zM351 110l41 35l36 208l-29 35h-157l-41 -35l-37 -208l29 -35h158zM387 713h139l-129 -169h-116z" />
    <glyph glyph-name="ocircumflex" unicode="&#xf4;" horiz-adv-x="592" 
d="M26 112l51 290l112 96h285l92 -112l-51 -292l-109 -94h-288zM351 110l41 35l36 208l-29 35h-157l-41 -35l-37 -208l29 -35h158zM316 705h106l114 -161h-124l-52 75h-6l-78 -75h-130z" />
    <glyph glyph-name="otilde" unicode="&#xf5;" horiz-adv-x="592" 
d="M26 112l51 290l112 96h285l92 -112l-51 -292l-109 -94h-288zM351 110l41 35l36 208l-29 35h-157l-41 -35l-37 -208l29 -35h158zM308 606h-22l-15 -12l-6 -33l-96 -1l13 71l81 69h84l55 -52h23l14 12l6 34h96l-13 -71l-81 -69h-84z" />
    <glyph glyph-name="odieresis" unicode="&#xf6;" horiz-adv-x="592" 
d="M26 112l51 290l112 96h285l92 -112l-51 -292l-109 -94h-288zM351 110l41 35l36 208l-29 35h-157l-41 -35l-37 -208l29 -35h158zM166 590l10 58l46 39h67l31 -40l-10 -58l-43 -38h-69zM386 591l10 56l45 40h67l32 -39l-10 -60l-44 -37h-69z" />
    <glyph glyph-name="divide" unicode="&#xf7;" horiz-adv-x="564" 
d="M238 402l10 54l47 40h62l33 -40l-10 -56l-45 -38h-64zM53 320h484l-20 -112h-484zM179 72l10 54l47 40h62l33 -40l-10 -56l-45 -38h-64z" />
    <glyph glyph-name="oslash" unicode="&#xf8;" horiz-adv-x="592" 
d="M530 430l36 -44l-51 -292l-109 -94h-286l-38 -40h-109l95 100l-42 52l51 290l112 96h285l5 -6l44 46h109zM167 164l213 224h-138l-41 -35zM422 317l-197 -207h126l41 35z" />
    <glyph glyph-name="ugrave" unicode="&#xf9;" horiz-adv-x="591" 
d="M32 113l67 385h132l-62 -352l28 -34h78l118 100l50 286h132l-88 -498h-122l15 85l-101 -85h-155zM211 713h139l46 -169h-116z" />
    <glyph glyph-name="uacute" unicode="&#xfa;" horiz-adv-x="591" 
d="M32 113l67 385h132l-62 -352l28 -34h78l118 100l50 286h132l-88 -498h-122l15 85l-101 -85h-155zM391 713h139l-129 -169h-116z" />
    <glyph glyph-name="ucircumflex" unicode="&#xfb;" horiz-adv-x="591" 
d="M32 113l67 385h132l-62 -352l28 -34h78l118 100l50 286h132l-88 -498h-122l15 85l-101 -85h-155zM320 705h106l114 -161h-124l-52 75h-6l-78 -75h-130z" />
    <glyph glyph-name="udieresis" unicode="&#xfc;" horiz-adv-x="591" 
d="M32 113l67 385h132l-62 -352l28 -34h78l118 100l50 286h132l-88 -498h-122l15 85l-101 -85h-155zM170 590l10 58l46 39h67l31 -40l-10 -58l-43 -38h-69zM390 591l10 56l45 40h67l32 -39l-10 -60l-44 -37h-69z" />
    <glyph glyph-name="yacute" unicode="&#xfd;" horiz-adv-x="593" 
d="M577 498l-110 -622l-116 -97h-263l-84 100l11 60h132l-5 -30l15 -20h146l40 35l27 150l-87 -74h-173l-81 100l70 398h132l-62 -351l28 -35h87l110 99l51 287h132zM393 713h139l-129 -169h-116z" />
    <glyph glyph-name="thorn" unicode="&#xfe;" horiz-adv-x="602" 
d="M142 710h132l-49 -274l73 62h186l92 -112l-52 -292l-110 -94h-195l-60 59l-48 -271h-132zM360 112l41 35l37 204l-29 35h-114l-94 -81l-21 -122l66 -71h114z" />
    <glyph glyph-name="ydieresis" unicode="&#xff;" horiz-adv-x="593" 
d="M577 498l-110 -622l-116 -97h-263l-84 100l11 60h132l-5 -30l15 -20h146l40 35l27 150l-87 -74h-173l-81 100l70 398h132l-62 -351l28 -35h87l110 99l51 287h132zM172 590l10 58l46 39h67l31 -40l-10 -58l-43 -38h-69zM392 591l10 56l45 40h67l32 -39l-10 -60l-44 -37
h-69z" />
    <glyph glyph-name="Amacron" unicode="&#x100;" horiz-adv-x="646" 
d="M340 700h124l133 -700h-138l-28 155h-246l-86 -155h-138zM418 267l-45 266h-2l-138 -266h185zM257 862h340l-19 -106h-340z" />
    <glyph glyph-name="amacron" unicode="&#x101;" horiz-adv-x="575" 
d="M19 100l19 112l101 86h259l10 63l-25 31h-149l-36 -31l-5 -28h-130l13 65l116 100h256l95 -116l-67 -382h-119l12 71l-86 -71h-182zM292 102l84 69l6 33h-188l-32 -27l-9 -50l21 -25h118zM192 660h340l-19 -106h-340z" />
    <glyph glyph-name="Abreve" unicode="&#x102;" horiz-adv-x="646" 
d="M340 700h124l133 -700h-138l-28 155h-246l-86 -155h-138zM418 267l-45 266h-2l-138 -266h185zM254 829l13 76h110l-8 -48l22 -27h58l32 27l8 48h114l-13 -76l-98 -83h-170z" />
    <glyph glyph-name="abreve" unicode="&#x103;" horiz-adv-x="575" 
d="M19 100l19 112l101 86h259l10 63l-25 31h-149l-36 -31l-5 -28h-130l13 65l116 100h256l95 -116l-67 -382h-119l12 71l-86 -71h-182zM292 102l84 69l6 33h-188l-32 -27l-9 -50l21 -25h118zM189 627l13 76h110l-8 -48l22 -27h58l32 27l8 48h114l-13 -76l-98 -83h-170z" />
    <glyph glyph-name="Aogonek" unicode="&#x104;" horiz-adv-x="646" 
d="M340 700h124l133 -700h-138l-28 155h-246l-86 -155h-138zM418 267l-45 266h-2l-138 -266h185zM380 -159l15 87l83 72h119l-89 -78l-6 -35l15 -18h88l-16 -92h-156z" />
    <glyph glyph-name="aogonek" unicode="&#x105;" horiz-adv-x="575" 
d="M19 100l19 112l101 86h259l10 63l-25 31h-149l-36 -31l-5 -28h-130l13 65l116 100h256l95 -116l-67 -382h-119l12 71l-86 -71h-182zM292 102l84 69l6 33h-188l-32 -27l-9 -50l21 -25h118zM259 -159l15 87l83 72h119l-89 -78l-6 -35l15 -18h88l-16 -92h-156z" />
    <glyph glyph-name="Cacute" unicode="&#x106;" horiz-adv-x="655" 
d="M33 124l83 469l125 107h341l101 -121l-18 -99h-136l10 57l-38 47h-200l-60 -51l-65 -366l42 -51h200l55 47l11 57h136l-21 -115l-123 -105h-341zM467 915h139l-129 -169h-116z" />
    <glyph glyph-name="cacute" unicode="&#x107;" horiz-adv-x="558" 
d="M26 110l51 294l110 94h274l91 -112l-15 -84h-132l9 49l-29 35h-144l-41 -35l-36 -204l29 -35h144l41 35l9 49h132l-19 -102l-109 -94h-276zM378 713h139l-129 -169h-116z" />
    <glyph glyph-name="Ccircumflex" unicode="&#x108;" horiz-adv-x="655" 
d="M33 124l83 469l125 107h341l101 -121l-18 -99h-136l10 57l-38 47h-200l-60 -51l-65 -366l42 -51h200l55 47l11 57h136l-21 -115l-123 -105h-341zM396 907h106l114 -161h-124l-52 75h-6l-78 -75h-130z" />
    <glyph glyph-name="ccircumflex" unicode="&#x109;" horiz-adv-x="558" 
d="M26 110l51 294l110 94h274l91 -112l-15 -84h-132l9 49l-29 35h-144l-41 -35l-36 -204l29 -35h144l41 35l9 49h132l-19 -102l-109 -94h-276zM307 705h106l114 -161h-124l-52 75h-6l-78 -75h-130z" />
    <glyph glyph-name="Cdotaccent" unicode="&#x10a;" horiz-adv-x="655" 
d="M33 124l83 469l125 107h341l101 -121l-18 -99h-136l10 57l-38 47h-200l-60 -51l-65 -366l42 -51h200l55 47l11 57h136l-21 -115l-123 -105h-341zM352 790l11 62l48 41h70l34 -41l-11 -64l-46 -39h-72z" />
    <glyph glyph-name="cdotaccent" unicode="&#x10b;" horiz-adv-x="558" 
d="M26 110l51 294l110 94h274l91 -112l-15 -84h-132l9 49l-29 35h-144l-41 -35l-36 -204l29 -35h144l41 35l9 49h132l-19 -102l-109 -94h-276zM263 588l11 62l48 41h70l34 -41l-11 -64l-46 -39h-72z" />
    <glyph glyph-name="Ccaron" unicode="&#x10c;" horiz-adv-x="655" 
d="M33 124l83 469l125 107h341l101 -121l-18 -99h-136l10 57l-38 47h-200l-60 -51l-65 -366l42 -51h200l55 47l11 57h136l-21 -115l-123 -105h-341zM254 907h122l52 -75h6l78 75h132l-170 -161h-106z" />
    <glyph glyph-name="ccaron" unicode="&#x10d;" horiz-adv-x="558" 
d="M26 110l51 294l110 94h274l91 -112l-15 -84h-132l9 49l-29 35h-144l-41 -35l-36 -204l29 -35h144l41 35l9 49h132l-19 -102l-109 -94h-276zM165 705h122l52 -75h6l78 75h132l-170 -161h-106z" />
    <glyph glyph-name="Dcaron" unicode="&#x10e;" horiz-adv-x="688" 
d="M145 700h439l106 -128l-83 -469l-122 -103h-463zM422 116l60 51l65 366l-42 51h-244l-83 -468h244zM259 907h122l52 -75h6l78 75h132l-170 -161h-106z" />
    <glyph glyph-name="dcaron" unicode="&#x10f;" horiz-adv-x="790" 
d="M26 112l51 290l112 96h198l56 -58l49 274h132l-126 -714h-124l13 77l-89 -77h-180zM305 112l96 83l23 130l-57 61h-122l-45 -39l-35 -196l31 -39h109zM734 576h-22l-36 43l11 64l51 43h75l34 -44l-18 -106l-81 -134h-78z" />
    <glyph glyph-name="Dcroat" unicode="&#x110;" horiz-adv-x="738" 
d="M740 572l-83 -469l-122 -103h-463l51 292h-105l21 118h105l51 290h439zM597 533l-42 51h-244l-31 -174h154l-21 -118h-154l-31 -176h244l60 51z" />
    <glyph glyph-name="dcroat" unicode="&#x111;" horiz-adv-x="620" 
d="M679 550h-84l-97 -550h-124l13 77l-89 -77h-180l-92 112l51 290l112 96h198l56 -58l20 110h-151l17 94h150l13 70h132l-12 -70h84zM424 325l-57 61h-122l-45 -39l-35 -196l31 -39h109l96 83z" />
    <glyph glyph-name="Emacron" unicode="&#x112;" horiz-adv-x="606" 
d="M145 700h505l-20 -115h-369l-31 -177h340l-20 -113h-340l-32 -180h369l-20 -115h-505zM262 862h340l-19 -106h-340z" />
    <glyph glyph-name="emacron" unicode="&#x113;" horiz-adv-x="583" 
d="M26 110l51 292l113 96h280l92 -112l-32 -181h-355l-11 -64l26 -33h162l36 31l4 26h130l-13 -75l-105 -90h-288zM414 297l11 58l-28 35h-155l-40 -35l-11 -58h223zM190 660h340l-19 -106h-340z" />
    <glyph glyph-name="Ebreve" unicode="&#x114;" horiz-adv-x="606" 
d="M145 700h505l-20 -115h-369l-31 -177h340l-20 -113h-340l-32 -180h369l-20 -115h-505zM257 829l13 76h110l-8 -48l22 -27h58l32 27l8 48h114l-13 -76l-98 -83h-170z" />
    <glyph glyph-name="ebreve" unicode="&#x115;" horiz-adv-x="583" 
d="M26 110l51 292l113 96h280l92 -112l-32 -181h-355l-11 -64l26 -33h162l36 31l4 26h130l-13 -75l-105 -90h-288zM414 297l11 58l-28 35h-155l-40 -35l-11 -58h223zM187 627l13 76h110l-8 -48l22 -27h58l32 27l8 48h114l-13 -76l-98 -83h-170z" />
    <glyph glyph-name="Edotaccent" unicode="&#x116;" horiz-adv-x="606" 
d="M145 700h505l-20 -115h-369l-31 -177h340l-20 -113h-340l-32 -180h369l-20 -115h-505zM343 790l11 62l48 41h70l34 -41l-11 -64l-46 -39h-72z" />
    <glyph glyph-name="edotaccent" unicode="&#x117;" horiz-adv-x="583" 
d="M26 110l51 292l113 96h280l92 -112l-32 -181h-355l-11 -64l26 -33h162l36 31l4 26h130l-13 -75l-105 -90h-288zM414 297l11 58l-28 35h-155l-40 -35l-11 -58h223zM271 588l11 62l48 41h70l34 -41l-11 -64l-46 -39h-72z" />
    <glyph glyph-name="Eogonek" unicode="&#x118;" horiz-adv-x="606" 
d="M145 700h505l-20 -115h-369l-31 -177h340l-20 -113h-340l-32 -180h369l-20 -115h-505zM310 -159l15 87l83 72h119l-89 -78l-6 -35l15 -18h88l-16 -92h-156z" />
    <glyph glyph-name="eogonek" unicode="&#x119;" horiz-adv-x="583" 
d="M26 110l51 292l113 96h280l92 -112l-32 -181h-355l-11 -64l26 -33h162l36 31l4 26h130l-13 -75l-105 -90h-288zM414 297l11 58l-28 35h-155l-40 -35l-11 -58h223zM187 -159l15 87l83 72h119l-89 -78l-6 -35l15 -18h88l-16 -92h-156z" />
    <glyph glyph-name="Ecaron" unicode="&#x11a;" horiz-adv-x="606" 
d="M145 700h505l-20 -115h-369l-31 -177h340l-20 -113h-340l-32 -180h369l-20 -115h-505zM245 907h122l52 -75h6l78 75h132l-170 -161h-106z" />
    <glyph glyph-name="ecaron" unicode="&#x11b;" horiz-adv-x="583" 
d="M26 110l51 292l113 96h280l92 -112l-32 -181h-355l-11 -64l26 -33h162l36 31l4 26h130l-13 -75l-105 -90h-288zM414 297l11 58l-28 35h-155l-40 -35l-11 -58h223zM173 705h122l52 -75h6l78 75h132l-170 -161h-106z" />
    <glyph glyph-name="Gcircumflex" unicode="&#x11c;" horiz-adv-x="676" 
d="M33 124l84 469l125 107h346l101 -121l-18 -99h-136l10 57l-38 47h-205l-60 -51l-66 -366l42 -51h209l57 48l19 110h-149l20 116h281l-50 -287l-123 -103h-347zM397 907h106l114 -161h-124l-52 75h-6l-78 -75h-130z" />
    <glyph glyph-name="gcircumflex" unicode="&#x11d;" horiz-adv-x="602" 
d="M586 498l-110 -622l-115 -97h-273l-84 100l11 60h132l-5 -30l15 -20h154l41 35l26 141l-80 -65h-180l-92 112l51 290l112 96h196l66 -75l13 75h122zM424 325l-57 61h-122l-45 -39l-35 -196l31 -39h109l96 83zM317 705h106l114 -161h-124l-52 75h-6l-78 -75h-130z" />
    <glyph glyph-name="Gbreve" unicode="&#x11e;" horiz-adv-x="676" 
d="M33 124l84 469l125 107h346l101 -121l-18 -99h-136l10 57l-38 47h-205l-60 -51l-66 -366l42 -51h209l57 48l19 110h-149l20 116h281l-50 -287l-123 -103h-347zM269 829l13 76h110l-8 -48l22 -27h58l32 27l8 48h114l-13 -76l-98 -83h-170z" />
    <glyph glyph-name="gbreve" unicode="&#x11f;" horiz-adv-x="602" 
d="M586 498l-110 -622l-115 -97h-273l-84 100l11 60h132l-5 -30l15 -20h154l41 35l26 141l-80 -65h-180l-92 112l51 290l112 96h196l66 -75l13 75h122zM424 325l-57 61h-122l-45 -39l-35 -196l31 -39h109l96 83zM189 627l13 76h110l-8 -48l22 -27h58l32 27l8 48h114l-13 -76
l-98 -83h-170z" />
    <glyph glyph-name="Gdotaccent" unicode="&#x120;" horiz-adv-x="676" 
d="M33 124l84 469l125 107h346l101 -121l-18 -99h-136l10 57l-38 47h-205l-60 -51l-66 -366l42 -51h209l57 48l19 110h-149l20 116h281l-50 -287l-123 -103h-347zM353 790l11 62l48 41h70l34 -41l-11 -64l-46 -39h-72z" />
    <glyph glyph-name="gdotaccent" unicode="&#x121;" horiz-adv-x="602" 
d="M586 498l-110 -622l-115 -97h-273l-84 100l11 60h132l-5 -30l15 -20h154l41 35l26 141l-80 -65h-180l-92 112l51 290l112 96h196l66 -75l13 75h122zM424 325l-57 61h-122l-45 -39l-35 -196l31 -39h109l96 83zM273 588l11 62l48 41h70l34 -41l-11 -64l-46 -39h-72z" />
    <glyph glyph-name="uni0122" unicode="&#x122;" horiz-adv-x="676" 
d="M33 124l84 469l125 107h346l101 -121l-18 -99h-136l10 57l-38 47h-205l-60 -51l-66 -366l42 -51h209l57 48l19 110h-149l20 116h281l-50 -287l-123 -103h-347zM257 -212h-22l-36 43l11 64l51 43h75l34 -44l-18 -106l-81 -134h-78z" />
    <glyph glyph-name="uni0123" unicode="&#x123;" horiz-adv-x="602" 
d="M586 498l-110 -622l-115 -97h-273l-84 100l11 60h132l-5 -30l15 -20h154l41 35l26 141l-80 -65h-180l-92 112l51 290l112 96h196l66 -75l13 75h122zM424 325l-57 61h-122l-45 -39l-35 -196l31 -39h109l96 83zM378 684h22l36 -43l-11 -64l-51 -43h-75l-34 44l18 106
l81 134h78z" />
    <glyph glyph-name="Hcircumflex" unicode="&#x124;" horiz-adv-x="698" 
d="M145 700h136l-51 -293h295l51 293h136l-123 -700h-136l51 291h-295l-51 -291h-136zM412 907h106l114 -161h-124l-52 75h-6l-78 -75h-130z" />
    <glyph glyph-name="hcircumflex" unicode="&#x125;" horiz-adv-x="594" 
d="M142 714h132l-52 -290l87 74h155l98 -119l-67 -379h-132l62 351l-28 35h-82l-117 -100l-50 -286h-132zM366 911h106l114 -161h-124l-52 75h-6l-78 -75h-130z" />
    <glyph glyph-name="Hbar" unicode="&#x126;" horiz-adv-x="767" 
d="M800 494h-90l-87 -494h-136l51 291h-295l-51 -291h-136l87 494h-90l18 100h89l19 106h136l-18 -106h295l18 106h136l-19 -106h91zM574 494h-295l-15 -87h295z" />
    <glyph glyph-name="hbar" unicode="&#x127;" horiz-adv-x="619" 
d="M587 379l-67 -379h-132l62 351l-28 35h-82l-117 -100l-50 -286h-132l97 552h-89l17 94h89l12 68h132l-12 -68h102l-17 -94h-102l-23 -128l87 74h155z" />
    <glyph glyph-name="Itilde" unicode="&#x128;" horiz-adv-x="276" 
d="M150 700h136l-124 -700h-136zM193 808h-22l-15 -12l-6 -33l-96 -1l13 71l81 69h84l55 -52h23l14 12l6 34h96l-13 -71l-81 -69h-84z" />
    <glyph glyph-name="itilde" unicode="&#x129;" horiz-adv-x="272" 
d="M114 498h132l-88 -498h-132zM155 606h-22l-15 -12l-6 -33l-96 -1l13 71l81 69h84l55 -52h23l14 12l6 34h96l-13 -71l-81 -69h-84z" />
    <glyph glyph-name="Imacron" unicode="&#x12a;" horiz-adv-x="276" 
d="M150 700h136l-124 -700h-136zM76 862h340l-19 -106h-340z" />
    <glyph glyph-name="imacron" unicode="&#x12b;" horiz-adv-x="272" 
d="M114 498h132l-88 -498h-132zM38 660h340l-19 -106h-340z" />
    <glyph glyph-name="Ibreve" unicode="&#x12c;" horiz-adv-x="276" 
d="M150 700h136l-124 -700h-136zM73 829l13 76h110l-8 -48l22 -27h58l32 27l8 48h114l-13 -76l-98 -83h-170z" />
    <glyph glyph-name="ibreve" unicode="&#x12d;" horiz-adv-x="272" 
d="M114 498h132l-88 -498h-132zM35 627l13 76h110l-8 -48l22 -27h58l32 27l8 48h114l-13 -76l-98 -83h-170z" />
    <glyph glyph-name="Iogonek" unicode="&#x12e;" horiz-adv-x="276" 
d="M150 700h136l-124 -700h-136zM-55 -159l15 87l83 72h119l-89 -78l-6 -35l15 -18h88l-16 -92h-156z" />
    <glyph glyph-name="iogonek" unicode="&#x12f;" horiz-adv-x="272" 
d="M118 602l11 64l55 46h69l37 -46l-11 -66l-52 -44h-71zM115 498h132l-88 -498h-132zM-58 -159l15 87l83 72h119l-89 -78l-6 -35l15 -18h88l-16 -92h-156z" />
    <glyph glyph-name="Idotaccent" unicode="&#x130;" horiz-adv-x="276" 
d="M150 700h136l-124 -700h-136zM157 790l11 62l48 41h70l34 -41l-11 -64l-46 -39h-72z" />
    <glyph glyph-name="dotlessi" unicode="&#x131;" horiz-adv-x="272" 
d="M114 498h132l-88 -498h-132z" />
    <glyph glyph-name="IJ" unicode="&#x132;" horiz-adv-x="821" 
d="M150 700h136l-124 -700h-136zM240 129l22 122h132l-15 -84l42 -51h133l56 47l95 537h136l-105 -593l-125 -107h-265z" />
    <glyph glyph-name="ij" unicode="&#x133;" horiz-adv-x="527" 
d="M118 602l11 64l55 46h69l37 -46l-11 -66l-52 -44h-71zM115 498h132l-88 -498h-132zM373 602l11 64l54 46h69l38 -46l-11 -66l-53 -44h-71zM113 -106h115l41 35l100 569h132l-109 -619l-114 -97h-185z" />
    <glyph glyph-name="Jcircumflex" unicode="&#x134;" horiz-adv-x="580" 
d="M-1 129l22 122h132l-15 -84l42 -51h133l56 47l95 537h136l-105 -593l-125 -107h-265zM513 907h106l114 -161h-124l-52 75h-6l-78 -75h-130z" />
    <glyph glyph-name="jcircumflex" unicode="&#x135;" horiz-adv-x="287" 
d="M-127 -104h115l41 35l100 567h132l-107 -609l-126 -107h-175zM177 705h106l114 -161h-124l-52 75h-6l-78 -75h-130z" />
    <glyph glyph-name="uni0136" unicode="&#x136;" horiz-adv-x="651" 
d="M145 700h136l-51 -293h97l220 293h161l-266 -349l160 -351h-145l-133 291h-115l-51 -291h-136zM242 -212h-22l-36 43l11 64l51 43h75l34 -44l-18 -106l-81 -134h-78z" />
    <glyph glyph-name="uni0137" unicode="&#x137;" horiz-adv-x="567" 
d="M143 714h132l-71 -399h81l159 183h152l-209 -240l131 -258h-136l-104 203h-94l-36 -203h-132zM200 -212h-22l-36 43l11 64l51 43h75l34 -44l-18 -106l-81 -134h-78z" />
    <glyph glyph-name="kgreenlandic" unicode="&#x138;" horiz-adv-x="596" 
d="M104 498h136l-34 -191h93l159 191h160l-210 -250l139 -248h-148l-106 189h-108l-33 -189h-136z" />
    <glyph glyph-name="Lacute" unicode="&#x139;" horiz-adv-x="561" 
d="M145 700h136l-103 -585h349l-20 -115h-485zM267 915h139l-129 -169h-116z" />
    <glyph glyph-name="lacute" unicode="&#x13a;" horiz-adv-x="262" 
d="M148 714h132l-127 -714h-132zM269 939h139l-129 -169h-116z" />
    <glyph glyph-name="uni013B" unicode="&#x13b;" horiz-adv-x="561" 
d="M145 700h136l-103 -585h349l-20 -115h-485zM216 -212h-22l-36 43l11 64l51 43h75l34 -44l-18 -106l-81 -134h-78z" />
    <glyph glyph-name="uni013C" unicode="&#x13c;" horiz-adv-x="262" 
d="M35 -212h-22l-36 43l11 64l51 43h75l34 -44l-18 -106l-81 -134h-78zM148 714h132l-127 -714h-132z" />
    <glyph glyph-name="Lcaron" unicode="&#x13d;" horiz-adv-x="624" 
d="M145 700h136l-103 -585h349l-20 -115h-485zM565 562h-22l-36 43l11 64l51 43h75l34 -44l-18 -106l-81 -134h-78z" />
    <glyph glyph-name="lcaron" unicode="&#x13e;" horiz-adv-x="440" 
d="M148 714h132l-127 -714h-132zM381 562h-22l-36 43l11 64l51 43h75l34 -44l-18 -106l-81 -134h-78z" />
    <glyph glyph-name="Ldot" unicode="&#x13f;" horiz-adv-x="571" 
d="M145 700h136l-103 -585h349l-20 -115h-485zM380 277l12 64l50 43h73l34 -44l-10 -62l-50 -44h-73z" />
    <glyph glyph-name="ldot" unicode="&#x140;" horiz-adv-x="440" 
d="M148 714h132l-127 -714h-132zM279 224l12 64l50 43h73l34 -44l-10 -62l-50 -44h-73z" />
    <glyph glyph-name="Lslash" unicode="&#x141;" horiz-adv-x="591" 
d="M557 115l-20 -115h-485l40 230l-105 -56l21 117l105 56l62 353h136l-48 -273l149 80l-21 -117l-149 -79l-34 -196h349z" />
    <glyph glyph-name="lslash" unicode="&#x142;" horiz-adv-x="332" 
d="M358 390l-112 -67l-58 -323h-132l42 236l-111 -66l21 117l111 66l64 361h132l-49 -273l112 66z" />
    <glyph glyph-name="Nacute" unicode="&#x143;" horiz-adv-x="697" 
d="M145 700h122l229 -475h2l83 475h131l-124 -700h-122l-227 474h-2l-84 -474h-131zM473 915h139l-129 -169h-116z" />
    <glyph glyph-name="nacute" unicode="&#x144;" horiz-adv-x="592" 
d="M104 498h122l-15 -83l98 83h153l98 -119l-67 -379h-132l62 351l-28 35h-80l-117 -100l-50 -286h-132zM400 713h139l-129 -169h-116z" />
    <glyph glyph-name="uni0145" unicode="&#x145;" horiz-adv-x="697" 
d="M145 700h122l229 -475h2l83 475h131l-124 -700h-122l-227 474h-2l-84 -474h-131zM266 -212h-22l-36 43l11 64l51 43h75l34 -44l-18 -106l-81 -134h-78z" />
    <glyph glyph-name="uni0146" unicode="&#x146;" horiz-adv-x="592" 
d="M104 498h122l-15 -83l98 83h153l98 -119l-67 -379h-132l62 351l-28 35h-80l-117 -100l-50 -286h-132zM205 -212h-22l-36 43l11 64l51 43h75l34 -44l-18 -106l-81 -134h-78z" />
    <glyph glyph-name="Ncaron" unicode="&#x147;" horiz-adv-x="697" 
d="M145 700h122l229 -475h2l83 475h131l-124 -700h-122l-227 474h-2l-84 -474h-131zM260 907h122l52 -75h6l78 75h132l-170 -161h-106z" />
    <glyph glyph-name="ncaron" unicode="&#x148;" horiz-adv-x="592" 
d="M104 498h122l-15 -83l98 83h153l98 -119l-67 -379h-132l62 351l-28 35h-80l-117 -100l-50 -286h-132zM187 705h122l52 -75h6l78 75h132l-170 -161h-106z" />
    <glyph glyph-name="napostrophe" unicode="&#x149;" horiz-adv-x="767" 
d="M279 498h122l-15 -83l98 83h153l98 -119l-67 -379h-132l62 351l-28 35h-80l-117 -100l-50 -286h-132zM150 509h-22l-36 43l11 64l51 43h75l34 -44l-18 -106l-81 -134h-78z" />
    <glyph glyph-name="Eng" unicode="&#x14a;" horiz-adv-x="703" 
d="M717 700l-123 -700l-20 -111l-125 -107h-174l20 114h115l41 35l15 82l-227 461h-2l-84 -474h-131l123 700h122l234 -475h2l83 475h131z" />
    <glyph glyph-name="eng" unicode="&#x14b;" horiz-adv-x="598" 
d="M568 390l-69 -390l-20 -111l-125 -107h-175l20 114h115l41 35l12 69l62 349l-29 35h-86l-116 -98l-50 -286h-132l88 498h124l-14 -78l92 78h173z" />
    <glyph glyph-name="Omacron" unicode="&#x14c;" horiz-adv-x="700" 
d="M33 124l83 469l125 107h360l102 -123l-84 -474l-122 -103h-362zM434 116l60 51l65 366l-42 51h-215l-60 -51l-66 -366l42 -51h216zM284 862h340l-19 -106h-340z" />
    <glyph glyph-name="omacron" unicode="&#x14d;" horiz-adv-x="592" 
d="M26 112l51 290l112 96h285l92 -112l-51 -292l-109 -94h-288zM351 110l41 35l36 208l-29 35h-157l-41 -35l-37 -208l29 -35h158zM191 660h340l-19 -106h-340z" />
    <glyph glyph-name="Obreve" unicode="&#x14e;" horiz-adv-x="700" 
d="M33 124l83 469l125 107h360l102 -123l-84 -474l-122 -103h-362zM434 116l60 51l65 366l-42 51h-215l-60 -51l-66 -366l42 -51h216zM281 829l13 76h110l-8 -48l22 -27h58l32 27l8 48h114l-13 -76l-98 -83h-170z" />
    <glyph glyph-name="obreve" unicode="&#x14f;" horiz-adv-x="592" 
d="M26 112l51 290l112 96h285l92 -112l-51 -292l-109 -94h-288zM351 110l41 35l36 208l-29 35h-157l-41 -35l-37 -208l29 -35h158zM188 627l13 76h110l-8 -48l22 -27h58l32 27l8 48h114l-13 -76l-98 -83h-170z" />
    <glyph glyph-name="Ohungarumlaut" unicode="&#x150;" horiz-adv-x="700" 
d="M33 124l83 469l125 107h360l102 -123l-84 -474l-122 -103h-362zM434 116l60 51l65 366l-42 51h-215l-60 -51l-66 -366l42 -51h216zM382 915h131l-125 -169h-108zM554 915h131l-126 -169h-108z" />
    <glyph glyph-name="ohungarumlaut" unicode="&#x151;" horiz-adv-x="592" 
d="M26 112l51 290l112 96h285l92 -112l-51 -292l-109 -94h-288zM351 110l41 35l36 208l-29 35h-157l-41 -35l-37 -208l29 -35h158zM289 713h131l-125 -169h-108zM461 713h131l-126 -169h-108z" />
    <glyph glyph-name="OE" unicode="&#x152;" horiz-adv-x="1055" 
d="M703 582l-30 -172h346l-20 -116h-346l-31 -176h375l-21 -118h-471l11 64l-75 -64h-306l-102 124l83 469l125 107h327l49 -60l11 60h471l-21 -118h-375zM494 167l65 366l-42 51h-215l-60 -51l-66 -366l42 -51h216z" />
    <glyph glyph-name="oe" unicode="&#x153;" horiz-adv-x="946" 
d="M544 205l-11 -64l26 -33h156l36 31l4 26h130l-13 -75l-105 -90h-280l-43 53l-66 -53h-260l-92 112l51 290l112 96h270l46 -56l66 56h262l92 -112l-32 -181h-349zM571 355l-11 -58h217l11 58l-28 35h-149zM392 145l36 208l-29 35h-157l-41 -35l-37 -208l29 -35h158z" />
    <glyph glyph-name="Racute" unicode="&#x154;" horiz-adv-x="675" 
d="M633 372l-76 -65l55 -75l-41 -232h-136l36 207l-44 61h-222l-47 -268h-136l123 700h430l95 -116zM225 380h240l41 35l24 136l-29 35h-240zM458 915h139l-129 -169h-116z" />
    <glyph glyph-name="racute" unicode="&#x155;" horiz-adv-x="409" 
d="M104 498h122l-15 -83l95 83h142l-20 -112h-111l-120 -104l-49 -282h-132zM326 713h139l-129 -169h-116z" />
    <glyph glyph-name="uni0156" unicode="&#x156;" horiz-adv-x="675" 
d="M633 372l-76 -65l55 -75l-41 -232h-136l36 207l-44 61h-222l-47 -268h-136l123 700h430l95 -116zM225 380h240l41 35l24 136l-29 35h-240zM261 -212h-22l-36 43l11 64l51 43h75l34 -44l-18 -106l-81 -134h-78z" />
    <glyph glyph-name="uni0157" unicode="&#x157;" horiz-adv-x="409" 
d="M104 498h122l-15 -83l95 83h142l-20 -112h-111l-120 -104l-49 -282h-132zM32 -212h-22l-36 43l11 64l51 43h75l34 -44l-18 -106l-81 -134h-78z" />
    <glyph glyph-name="Rcaron" unicode="&#x158;" horiz-adv-x="675" 
d="M633 372l-76 -65l55 -75l-41 -232h-136l36 207l-44 61h-222l-47 -268h-136l123 700h430l95 -116zM225 380h240l41 35l24 136l-29 35h-240zM245 907h122l52 -75h6l78 75h132l-170 -161h-106z" />
    <glyph glyph-name="rcaron" unicode="&#x159;" horiz-adv-x="409" 
d="M104 498h122l-15 -83l95 83h142l-20 -112h-111l-120 -104l-49 -282h-132zM113 705h122l52 -75h6l78 75h132l-170 -161h-106z" />
    <glyph glyph-name="Sacute" unicode="&#x15a;" horiz-adv-x="637" 
d="M27 116l17 92h134l-11 -59l27 -33h206l40 34l21 116l-27 33h-257l-96 116l32 185l118 100h315l97 -116l-16 -93h-134l10 60l-27 33h-198l-39 -33l-18 -103l27 -33h257l96 -116l-36 -199l-117 -100h-325zM443 915h139l-129 -169h-116z" />
    <glyph glyph-name="sacute" unicode="&#x15b;" horiz-adv-x="536" 
d="M10 106l9 53h130l-5 -28l18 -23h162l26 23l7 43l-18 24h-207l-85 103l20 109l103 88h260l86 -106l-10 -53h-130l5 28l-18 23h-148l-26 -23l-6 -39l18 -24h207l85 -103l-20 -113l-103 -88h-274zM354 713h139l-129 -169h-116z" />
    <glyph glyph-name="Scircumflex" unicode="&#x15c;" horiz-adv-x="637" 
d="M27 116l17 92h134l-11 -59l27 -33h206l40 34l21 116l-27 33h-257l-96 116l32 185l118 100h315l97 -116l-16 -93h-134l10 60l-27 33h-198l-39 -33l-18 -103l27 -33h257l96 -116l-36 -199l-117 -100h-325zM372 907h106l114 -161h-124l-52 75h-6l-78 -75h-130z" />
    <glyph glyph-name="scircumflex" unicode="&#x15d;" horiz-adv-x="536" 
d="M10 106l9 53h130l-5 -28l18 -23h162l26 23l7 43l-18 24h-207l-85 103l20 109l103 88h260l86 -106l-10 -53h-130l5 28l-18 23h-148l-26 -23l-6 -39l18 -24h207l85 -103l-20 -113l-103 -88h-274zM283 705h106l114 -161h-124l-52 75h-6l-78 -75h-130z" />
    <glyph glyph-name="Scedilla" unicode="&#x15e;" horiz-adv-x="637" 
d="M493 491l10 60l-27 33h-198l-39 -33l-18 -103l27 -33h257l96 -116l-36 -199l-117 -100h-122l-20 -34h52l41 -50l-17 -93l-55 -47h-179l13 74h118l14 12l5 26l-10 12h-99l5 31l39 69h-110l-96 116l17 92h134l-11 -59l27 -33h206l40 34l21 116l-27 33h-257l-96 116l32 185
l118 100h315l97 -116l-16 -93h-134z" />
    <glyph glyph-name="scedilla" unicode="&#x15f;" horiz-adv-x="536" 
d="M376 339l5 28l-18 23h-148l-26 -23l-6 -39l18 -24h207l85 -103l-20 -113l-103 -88h-88l-20 -34h52l41 -50l-17 -93l-55 -47h-179l13 74h118l14 12l5 26l-10 12h-99l5 31l39 69h-93l-86 106l9 53h130l-5 -28l18 -23h162l26 23l7 43l-18 24h-207l-85 103l20 109l103 88h260
l86 -106l-10 -53h-130z" />
    <glyph glyph-name="Scaron" unicode="&#x160;" horiz-adv-x="637" 
d="M27 116l17 92h134l-11 -59l27 -33h206l40 34l21 116l-27 33h-257l-96 116l32 185l118 100h315l97 -116l-16 -93h-134l10 60l-27 33h-198l-39 -33l-18 -103l27 -33h257l96 -116l-36 -199l-117 -100h-325zM230 907h122l52 -75h6l78 75h132l-170 -161h-106z" />
    <glyph glyph-name="scaron" unicode="&#x161;" horiz-adv-x="536" 
d="M10 106l9 53h130l-5 -28l18 -23h162l26 23l7 43l-18 24h-207l-85 103l20 109l103 88h260l86 -106l-10 -53h-130l5 28l-18 23h-148l-26 -23l-6 -39l18 -24h207l85 -103l-20 -113l-103 -88h-274zM141 705h122l52 -75h6l78 75h132l-170 -161h-106z" />
    <glyph glyph-name="uni0162" unicode="&#x162;" horiz-adv-x="584" 
d="M284 585h-209l20 115h554l-21 -115h-208l-103 -585h-136zM102 -204h118l14 12l5 26l-10 12h-99l5 31l69 123h94l-51 -88h52l41 -50l-17 -93l-55 -47h-179z" />
    <glyph glyph-name="uni0163" unicode="&#x163;" horiz-adv-x="414" 
d="M261 386l-43 -241l29 -33h118l-20 -112h-114l-20 -34h52l41 -50l-17 -93l-55 -47h-179l13 74h118l14 12l5 26l-10 12h-99l5 31l52 94l-71 85l49 277h-90l20 111h92l28 162h130l-28 -162h152l-20 -112h-152z" />
    <glyph glyph-name="Tcaron" unicode="&#x164;" horiz-adv-x="584" 
d="M284 585h-209l20 115h554l-21 -115h-208l-103 -585h-136zM213 907h122l52 -75h6l78 75h132l-170 -161h-106z" />
    <glyph glyph-name="tcaron" unicode="&#x165;" horiz-adv-x="582" 
d="M80 110l49 277h-90l20 111h92l28 162h130l-28 -162h152l-20 -112h-152l-43 -241l29 -33h118l-20 -112h-173zM543 562h-22l-36 43l11 64l51 43h75l34 -44l-18 -106l-81 -134h-78z" />
    <glyph glyph-name="Tbar" unicode="&#x166;" horiz-adv-x="584" 
d="M420 585l-35 -200h152l-19 -110h-153l-48 -275h-136l48 275h-147l19 110h148l35 200h-209l20 115h554l-21 -115h-208z" />
    <glyph glyph-name="tbar" unicode="&#x167;" horiz-adv-x="414" 
d="M261 386l-14 -77h152l-19 -110h-152l-10 -54l29 -33h118l-20 -112h-173l-92 110l16 89h-89l19 110h89l14 78h-90l20 111h92l28 162h130l-28 -162h152l-20 -112h-152z" />
    <glyph glyph-name="Utilde" unicode="&#x168;" horiz-adv-x="700" 
d="M44 128l101 572h136l-94 -533l42 -51h195l60 51l94 533h136l-104 -590l-129 -110h-331zM405 808h-22l-15 -12l-6 -33l-96 -1l13 71l81 69h84l55 -52h23l14 12l6 34h96l-13 -71l-81 -69h-84z" />
    <glyph glyph-name="utilde" unicode="&#x169;" horiz-adv-x="591" 
d="M32 113l67 385h132l-62 -352l28 -34h78l118 100l50 286h132l-88 -498h-122l15 85l-101 -85h-155zM312 606h-22l-15 -12l-6 -33l-96 -1l13 71l81 69h84l55 -52h23l14 12l6 34h96l-13 -71l-81 -69h-84z" />
    <glyph glyph-name="Umacron" unicode="&#x16a;" horiz-adv-x="700" 
d="M44 128l101 572h136l-94 -533l42 -51h195l60 51l94 533h136l-104 -590l-129 -110h-331zM288 862h340l-19 -106h-340z" />
    <glyph glyph-name="umacron" unicode="&#x16b;" horiz-adv-x="591" 
d="M32 113l67 385h132l-62 -352l28 -34h78l118 100l50 286h132l-88 -498h-122l15 85l-101 -85h-155zM195 660h340l-19 -106h-340z" />
    <glyph glyph-name="Ubreve" unicode="&#x16c;" horiz-adv-x="700" 
d="M44 128l101 572h136l-94 -533l42 -51h195l60 51l94 533h136l-104 -590l-129 -110h-331zM285 829l13 76h110l-8 -48l22 -27h58l32 27l8 48h114l-13 -76l-98 -83h-170z" />
    <glyph glyph-name="ubreve" unicode="&#x16d;" horiz-adv-x="591" 
d="M32 113l67 385h132l-62 -352l28 -34h78l118 100l50 286h132l-88 -498h-122l15 85l-101 -85h-155zM192 627l13 76h110l-8 -48l22 -27h58l32 27l8 48h114l-13 -76l-98 -83h-170z" />
    <glyph glyph-name="Uring" unicode="&#x16e;" horiz-adv-x="700" 
d="M44 128l101 572h136l-94 -533l42 -51h195l60 51l94 533h136l-104 -590l-129 -110h-331zM327 820l17 98l75 64h110l61 -74l-17 -99l-74 -63h-111zM473 821l28 24l7 38l-20 24h-44l-28 -24l-7 -38l20 -24h44z" />
    <glyph glyph-name="uring" unicode="&#x16f;" horiz-adv-x="591" 
d="M32 113l67 385h132l-62 -352l28 -34h78l118 100l50 286h132l-88 -498h-122l15 85l-101 -85h-155zM234 618l17 98l75 64h110l61 -74l-17 -99l-74 -63h-111zM380 619l28 24l7 38l-20 24h-44l-28 -24l-7 -38l20 -24h44z" />
    <glyph glyph-name="Uhungarumlaut" unicode="&#x170;" horiz-adv-x="700" 
d="M44 128l101 572h136l-94 -533l42 -51h195l60 51l94 533h136l-104 -590l-129 -110h-331zM386 915h131l-125 -169h-108zM558 915h131l-126 -169h-108z" />
    <glyph glyph-name="uhungarumlaut" unicode="&#x171;" horiz-adv-x="591" 
d="M32 113l67 385h132l-62 -352l28 -34h78l118 100l50 286h132l-88 -498h-122l15 85l-101 -85h-155zM293 713h131l-125 -169h-108zM465 713h131l-126 -169h-108z" />
    <glyph glyph-name="Uogonek" unicode="&#x172;" horiz-adv-x="700" 
d="M44 128l101 572h136l-94 -533l42 -51h195l60 51l94 533h136l-104 -590l-129 -110h-331zM189 -159l15 87l83 72h119l-89 -78l-6 -35l15 -18h88l-16 -92h-156z" />
    <glyph glyph-name="uogonek" unicode="&#x173;" horiz-adv-x="591" 
d="M32 113l67 385h132l-62 -352l28 -34h78l118 100l50 286h132l-88 -498h-122l15 85l-101 -85h-155zM270 -159l15 87l83 72h119l-89 -78l-6 -35l15 -18h88l-16 -92h-156z" />
    <glyph glyph-name="Wcircumflex" unicode="&#x174;" horiz-adv-x="879" 
d="M105 700h134l-2 -494h4l226 494h102l49 -494h4l172 494h140l-268 -700h-127l-53 492h-4l-228 -492h-127zM503 907h106l114 -161h-124l-52 75h-6l-78 -75h-130z" />
    <glyph glyph-name="wcircumflex" unicode="&#x175;" horiz-adv-x="729" 
d="M64 498h131l2 -314h4l145 314h120l28 -314h4l118 314h137l-217 -498h-123l-33 336h-4l-157 -336h-123zM390 705h106l114 -161h-124l-52 75h-6l-78 -75h-130z" />
    <glyph glyph-name="Ycircumflex" unicode="&#x176;" horiz-adv-x="634" 
d="M256 286l-176 414h141l116 -287h2l218 287h157l-322 -414l-50 -286h-136zM371 907h106l114 -161h-124l-52 75h-6l-78 -75h-130z" />
    <glyph glyph-name="ycircumflex" unicode="&#x177;" horiz-adv-x="593" 
d="M577 498l-110 -622l-116 -97h-263l-84 100l11 60h132l-5 -30l15 -20h146l40 35l27 150l-87 -74h-173l-81 100l70 398h132l-62 -351l28 -35h87l110 99l51 287h132zM322 705h106l114 -161h-124l-52 75h-6l-78 -75h-130z" />
    <glyph glyph-name="Ydieresis" unicode="&#x178;" horiz-adv-x="634" 
d="M256 286l-176 414h141l116 -287h2l218 287h157l-322 -414l-50 -286h-136zM221 792l10 58l46 39h67l31 -40l-10 -58l-43 -38h-69zM441 793l10 56l45 40h67l32 -39l-10 -60l-44 -37h-69z" />
    <glyph glyph-name="Zacute" unicode="&#x179;" horiz-adv-x="592" 
d="M10 108l443 476v2h-349l20 114h512l-19 -108l-443 -476v-2h359l-20 -114h-522zM434 915h139l-129 -169h-116z" />
    <glyph glyph-name="zacute" unicode="&#x17a;" horiz-adv-x="498" 
d="M-1 102l328 287v2h-267l19 107h438l-18 -102l-328 -287v-2h277l-19 -107h-448zM352 713h139l-129 -169h-116z" />
    <glyph glyph-name="Zdotaccent" unicode="&#x17b;" horiz-adv-x="592" 
d="M10 108l443 476v2h-349l20 114h512l-19 -108l-443 -476v-2h359l-20 -114h-522zM319 790l11 62l48 41h70l34 -41l-11 -64l-46 -39h-72z" />
    <glyph glyph-name="zdotaccent" unicode="&#x17c;" horiz-adv-x="498" 
d="M-1 102l328 287v2h-267l19 107h438l-18 -102l-328 -287v-2h277l-19 -107h-448zM237 588l11 62l48 41h70l34 -41l-11 -64l-46 -39h-72z" />
    <glyph glyph-name="Zcaron" unicode="&#x17d;" horiz-adv-x="592" 
d="M10 108l443 476v2h-349l20 114h512l-19 -108l-443 -476v-2h359l-20 -114h-522zM221 907h122l52 -75h6l78 75h132l-170 -161h-106z" />
    <glyph glyph-name="zcaron" unicode="&#x17e;" horiz-adv-x="498" 
d="M-1 102l328 287v2h-267l19 107h438l-18 -102l-328 -287v-2h277l-19 -107h-448zM139 705h122l52 -75h6l78 75h132l-170 -161h-106z" />
    <glyph glyph-name="uni018F" unicode="&#x18f;" horiz-adv-x="728" 
d="M39 153l45 254h482l19 104l-59 71h-204l-83 -71l-10 -52h-136l18 104l162 137h328l125 -153l-72 -412l-159 -135h-330zM442 118l86 73l17 98h-346l-17 -98l60 -73h200z" />
    <glyph glyph-name="florin" unicode="&#x192;" horiz-adv-x="625" 
d="M479 557l-34 -89h188l-19 -111h-211l-108 -285l-109 -94h-214l19 109h146l41 35l88 235h-153l19 111h175l50 134l109 94h218l-20 -109h-150z" />
    <glyph glyph-name="Ohorn" unicode="&#x1a0;" horiz-adv-x="777" 
d="M881 710l-20 -115l-108 -92h-63l-71 -400l-122 -103h-362l-102 124l83 469l125 107h360l84 -101h30l41 35l13 76h112zM559 533l-42 51h-215l-60 -51l-66 -366l42 -51h216l60 51z" />
    <glyph glyph-name="ohorn" unicode="&#x1a1;" horiz-adv-x="675" 
d="M763 508l-20 -115l-108 -92h-84l-36 -207l-109 -94h-288l-92 112l51 290l112 96h285l83 -101h40l41 35l13 76h112zM428 353l-29 35h-157l-41 -35l-37 -208l29 -35h158l41 35z" />
    <glyph glyph-name="Uhorn" unicode="&#x1af;" horiz-adv-x="791" 
d="M891 710l-20 -115l-108 -92h-84l-69 -393l-129 -110h-331l-106 128l101 572h136l-94 -533l42 -51h195l60 51l94 533h136l-18 -101h29l41 35l13 76h112z" />
    <glyph glyph-name="uhorn" unicode="&#x1b0;" horiz-adv-x="680" 
d="M752 508l-20 -115l-108 -92h-84l-53 -301h-122l15 85l-101 -85h-155l-92 113l67 385h132l-62 -352l28 -34h78l118 100l50 286h132l-18 -101h29l41 35l13 76h112z" />
    <glyph glyph-name="uni01CD" unicode="&#x1cd;" horiz-adv-x="646" 
d="M340 700h124l133 -700h-138l-28 155h-246l-86 -155h-138zM418 267l-45 266h-2l-138 -266h185zM240 907h122l52 -75h6l78 75h132l-170 -161h-106z" />
    <glyph glyph-name="uni01CE" unicode="&#x1ce;" horiz-adv-x="575" 
d="M19 100l19 112l101 86h259l10 63l-25 31h-149l-36 -31l-5 -28h-130l13 65l116 100h256l95 -116l-67 -382h-119l12 71l-86 -71h-182zM292 102l84 69l6 33h-188l-32 -27l-9 -50l21 -25h118zM175 705h122l52 -75h6l78 75h132l-170 -161h-106z" />
    <glyph glyph-name="uni01CF" unicode="&#x1cf;" horiz-adv-x="276" 
d="M150 700h136l-124 -700h-136zM59 907h122l52 -75h6l78 75h132l-170 -161h-106z" />
    <glyph glyph-name="uni01D0" unicode="&#x1d0;" horiz-adv-x="272" 
d="M114 498h132l-88 -498h-132zM21 705h122l52 -75h6l78 75h132l-170 -161h-106z" />
    <glyph glyph-name="uni01D1" unicode="&#x1d1;" horiz-adv-x="700" 
d="M33 124l83 469l125 107h360l102 -123l-84 -474l-122 -103h-362zM434 116l60 51l65 366l-42 51h-215l-60 -51l-66 -366l42 -51h216zM267 907h122l52 -75h6l78 75h132l-170 -161h-106z" />
    <glyph glyph-name="uni01D2" unicode="&#x1d2;" horiz-adv-x="592" 
d="M26 112l51 290l112 96h285l92 -112l-51 -292l-109 -94h-288zM351 110l41 35l36 208l-29 35h-157l-41 -35l-37 -208l29 -35h158zM174 705h122l52 -75h6l78 75h132l-170 -161h-106z" />
    <glyph glyph-name="uni01D3" unicode="&#x1d3;" horiz-adv-x="700" 
d="M44 128l101 572h136l-94 -533l42 -51h195l60 51l94 533h136l-104 -590l-129 -110h-331zM271 907h122l52 -75h6l78 75h132l-170 -161h-106z" />
    <glyph glyph-name="uni01D4" unicode="&#x1d4;" horiz-adv-x="591" 
d="M32 113l67 385h132l-62 -352l28 -34h78l118 100l50 286h132l-88 -498h-122l15 85l-101 -85h-155zM178 705h122l52 -75h6l78 75h132l-170 -161h-106z" />
    <glyph glyph-name="uni01D5" unicode="&#x1d5;" horiz-adv-x="700" 
d="M44 128l101 572h136l-94 -533l42 -51h195l60 51l94 533h136l-104 -590l-129 -110h-331zM322 1051h340l-17 -98h-340zM263 792l10 58l46 39h67l31 -40l-10 -58l-43 -38h-69zM483 793l10 56l45 40h67l32 -39l-10 -60l-44 -37h-69z" />
    <glyph glyph-name="uni01D6" unicode="&#x1d6;" horiz-adv-x="591" 
d="M32 113l67 385h132l-62 -352l28 -34h78l118 100l50 286h132l-88 -498h-122l15 85l-101 -85h-155zM229 849h340l-17 -98h-340zM170 590l10 58l46 39h67l31 -40l-10 -58l-43 -38h-69zM390 591l10 56l45 40h67l32 -39l-10 -60l-44 -37h-69z" />
    <glyph glyph-name="uni01D7" unicode="&#x1d7;" horiz-adv-x="700" 
d="M44 128l101 572h136l-94 -533l42 -51h195l60 51l94 533h136l-104 -590l-129 -110h-331zM503 1070h125l-111 -139h-102zM262 792l10 58l46 39h67l31 -40l-10 -58l-43 -38h-69zM482 793l10 56l45 40h67l32 -39l-10 -60l-44 -37h-69z" />
    <glyph glyph-name="uni01D8" unicode="&#x1d8;" horiz-adv-x="591" 
d="M32 113l67 385h132l-62 -352l28 -34h78l118 100l50 286h132l-88 -498h-122l15 85l-101 -85h-155zM410 868h125l-111 -139h-102zM169 590l10 58l46 39h67l31 -40l-10 -58l-43 -38h-69zM389 591l10 56l45 40h67l32 -39l-10 -60l-44 -37h-69z" />
    <glyph glyph-name="uni01D9" unicode="&#x1d9;" horiz-adv-x="700" 
d="M44 128l101 572h136l-94 -533l42 -51h195l60 51l94 533h136l-104 -590l-129 -110h-331zM315 1075h113l52 -75h6l78 75h113l-159 -153h-98zM262 792l10 58l46 39h67l31 -40l-10 -58l-43 -38h-69zM482 793l10 56l45 40h67l32 -39l-10 -60l-44 -37h-69z" />
    <glyph glyph-name="uni01DA" unicode="&#x1da;" horiz-adv-x="591" 
d="M32 113l67 385h132l-62 -352l28 -34h78l118 100l50 286h132l-88 -498h-122l15 85l-101 -85h-155zM222 873h113l52 -75h6l78 75h113l-159 -153h-98zM169 590l10 58l46 39h67l31 -40l-10 -58l-43 -38h-69zM389 591l10 56l45 40h67l32 -39l-10 -60l-44 -37h-69z" />
    <glyph glyph-name="uni01DB" unicode="&#x1db;" horiz-adv-x="700" 
d="M44 128l101 572h136l-94 -533l42 -51h195l60 51l94 533h136l-104 -590l-129 -110h-331zM354 1070h125l38 -139h-102zM262 792l10 58l46 39h67l31 -40l-10 -58l-43 -38h-69zM482 793l10 56l45 40h67l32 -39l-10 -60l-44 -37h-69z" />
    <glyph glyph-name="uni01DC" unicode="&#x1dc;" horiz-adv-x="591" 
d="M32 113l67 385h132l-62 -352l28 -34h78l118 100l50 286h132l-88 -498h-122l15 85l-101 -85h-155zM261 868h125l38 -139h-102zM169 590l10 58l46 39h67l31 -40l-10 -58l-43 -38h-69zM389 591l10 56l45 40h67l32 -39l-10 -60l-44 -37h-69z" />
    <glyph glyph-name="Gcaron" unicode="&#x1e6;" horiz-adv-x="676" 
d="M33 124l84 469l125 107h346l101 -121l-18 -99h-136l10 57l-38 47h-205l-60 -51l-66 -366l42 -51h209l57 48l19 110h-149l20 116h281l-50 -287l-123 -103h-347zM255 907h122l52 -75h6l78 75h132l-170 -161h-106z" />
    <glyph glyph-name="gcaron" unicode="&#x1e7;" horiz-adv-x="602" 
d="M586 498l-110 -622l-115 -97h-273l-84 100l11 60h132l-5 -30l15 -20h154l41 35l26 141l-80 -65h-180l-92 112l51 290l112 96h196l66 -75l13 75h122zM424 325l-57 61h-122l-45 -39l-35 -196l31 -39h109l96 83zM175 705h122l52 -75h6l78 75h132l-170 -161h-106z" />
    <glyph glyph-name="Aringacute" unicode="&#x1fa;" horiz-adv-x="646" 
d="M340 700h124l133 -700h-138l-28 155h-246l-86 -155h-138zM418 267l-45 266h-2l-138 -266h185zM296 820l17 98l75 64h110l61 -74l-17 -99l-74 -63h-111zM442 821l28 24l7 38l-20 24h-44l-28 -24l-7 -38l20 -24h44zM502 1197h139l-129 -169h-116z" />
    <glyph glyph-name="aringacute" unicode="&#x1fb;" horiz-adv-x="575" 
d="M19 100l19 112l101 86h259l10 63l-25 31h-149l-36 -31l-5 -28h-130l13 65l116 100h256l95 -116l-67 -382h-119l12 71l-86 -71h-182zM292 102l84 69l6 33h-188l-32 -27l-9 -50l21 -25h118zM231 618l17 98l75 64h110l61 -74l-17 -99l-74 -63h-111zM377 619l28 24l7 38
l-20 24h-44l-28 -24l-7 -38l20 -24h44zM437 995h139l-129 -169h-116z" />
    <glyph glyph-name="AEacute" unicode="&#x1fc;" horiz-adv-x="957" 
d="M623 582l-31 -172h329l-20 -116h-329l-31 -176h358l-21 -118h-494l32 179h-209l-109 -179h-142l436 700h609l-20 -118h-358zM436 293l51 289h-33l-177 -289h159zM666 915h139l-129 -169h-116z" />
    <glyph glyph-name="aeacute" unicode="&#x1fd;" horiz-adv-x="915" 
d="M518 205l-11 -64l26 -33h151l36 31l4 26h130l-13 -75l-105 -90h-267l-57 71l-83 -71h-228l-82 100l19 112l102 86h262l11 63l-27 31h-152l-36 -31l-5 -28h-130l13 65l116 100h258l44 -53l61 53h247l92 -112l-32 -181h-344zM545 355l-11 -58h212l11 58l-28 35h-144z
M379 165l7 39h-192l-32 -27l-9 -50l21 -25h131zM560 713h139l-129 -169h-116z" />
    <glyph glyph-name="Oslashacute" unicode="&#x1fe;" horiz-adv-x="700" 
d="M671 616l32 -39l-84 -474l-122 -103h-362l-24 29l-65 -69h-109l124 130l-28 34l83 469l125 107h360l19 -23l60 63h109zM186 221l338 355l-7 8h-215l-60 -51zM551 491l-344 -362l11 -13h216l60 51zM480 915h139l-129 -169h-116z" />
    <glyph glyph-name="oslashacute" unicode="&#x1ff;" horiz-adv-x="592" 
d="M530 430l36 -44l-51 -292l-109 -94h-286l-38 -40h-109l95 100l-42 52l51 290l112 96h285l5 -6l44 46h109zM167 164l213 224h-138l-41 -35zM422 317l-197 -207h126l41 35zM387 713h139l-129 -169h-116z" />
    <glyph glyph-name="uni0218" unicode="&#x218;" horiz-adv-x="637" 
d="M27 116l17 92h134l-11 -59l27 -33h206l40 34l21 116l-27 33h-257l-96 116l32 185l118 100h315l97 -116l-16 -93h-134l10 60l-27 33h-198l-39 -33l-18 -103l27 -33h257l96 -116l-36 -199l-117 -100h-325zM234 -212h-22l-36 43l11 64l51 43h75l34 -44l-18 -106l-81 -134
h-78z" />
    <glyph glyph-name="uni0219" unicode="&#x219;" horiz-adv-x="536" 
d="M10 106l9 53h130l-5 -28l18 -23h162l26 23l7 43l-18 24h-207l-85 103l20 109l103 88h260l86 -106l-10 -53h-130l5 28l-18 23h-148l-26 -23l-6 -39l18 -24h207l85 -103l-20 -113l-103 -88h-274zM190 -212h-22l-36 43l11 64l51 43h75l34 -44l-18 -106l-81 -134h-78z" />
    <glyph glyph-name="uni021A" unicode="&#x21a;" horiz-adv-x="584" 
d="M284 585h-209l20 115h554l-21 -115h-208l-103 -585h-136zM199 -212h-22l-36 43l11 64l51 43h75l34 -44l-18 -106l-81 -134h-78z" />
    <glyph glyph-name="uni021B" unicode="&#x21b;" horiz-adv-x="414" 
d="M80 110l49 277h-90l20 111h92l28 162h130l-28 -162h152l-20 -112h-152l-43 -241l29 -33h118l-20 -112h-173zM139 -212h-22l-36 43l11 64l51 43h75l34 -44l-18 -106l-81 -134h-78z" />
    <glyph glyph-name="uni0237" unicode="&#x237;" horiz-adv-x="287" 
d="M-127 -104h115l41 35l100 567h132l-107 -609l-126 -107h-175z" />
    <glyph glyph-name="uni0251" unicode="&#x251;" horiz-adv-x="617" 
d="M26 112l51 290l112 96h201l63 -65l11 65h122l-68 -388h69l-19 -110h-133l-42 50l6 31l-97 -81h-184zM303 112l98 83l23 130l-59 61h-120l-45 -39l-35 -196l31 -39h107z" />
    <glyph glyph-name="uni0259" unicode="&#x259;" horiz-adv-x="583" 
d="M557 388l-51 -292l-113 -96h-280l-92 112l32 181h355l11 64l-26 33h-162l-36 -31l-4 -26h-130l13 75l105 90h288zM169 201l-11 -58l28 -35h155l40 35l11 58h-223z" />
    <glyph glyph-name="uni02BB" unicode="&#x2bb;" horiz-adv-x="241" 
d="M218 684h22l36 -43l-11 -64l-51 -43h-75l-34 44l18 106l81 134h78z" />
    <glyph glyph-name="uni02BC" unicode="&#x2bc;" horiz-adv-x="210" 
d="M168 606h-22l-36 43l11 64l51 43h75l34 -44l-18 -106l-81 -134h-78z" />
    <glyph glyph-name="uni02BE" unicode="&#x2be;" 
d="M65 619h22l28 24l7 38l-20 24h-22l14 75h50l60 -74l-17 -99l-75 -63h-60z" />
    <glyph glyph-name="uni02BF" unicode="&#x2bf;" 
d="M-59 616l17 99l76 65h59l-13 -75h-22l-28 -24l-7 -38l20 -24h22l-13 -75h-52z" />
    <glyph glyph-name="circumflex" unicode="&#x2c6;" horiz-adv-x="420" 
d="M237 705h106l114 -161h-124l-52 75h-6l-78 -75h-130z" />
    <glyph glyph-name="caron" unicode="&#x2c7;" horiz-adv-x="420" 
d="M95 705h122l52 -75h6l78 75h132l-170 -161h-106z" />
    <glyph glyph-name="uni02C8" unicode="&#x2c8;" 
d="M24 730h124l-32 -179h-124z" />
    <glyph glyph-name="uni02C9" unicode="&#x2c9;" horiz-adv-x="492" 
d="M127 646h380l-16 -92h-380z" />
    <glyph glyph-name="uni02CA" unicode="&#x2ca;" 
d="M97 713h139l-189 -169h-116z" />
    <glyph glyph-name="uni02CB" unicode="&#x2cb;" 
d="M-40 713h139l106 -169h-116z" />
    <glyph glyph-name="uni02CC" unicode="&#x2cc;" 
d="M-111 -34h124l-32 -179h-124z" />
    <glyph glyph-name="breve" unicode="&#x2d8;" horiz-adv-x="425" 
d="M112 627l13 76h110l-8 -48l22 -27h58l32 27l8 48h114l-13 -76l-98 -83h-170z" />
    <glyph glyph-name="dotaccent" unicode="&#x2d9;" horiz-adv-x="239" 
d="M103 588l11 62l48 41h70l34 -41l-11 -64l-46 -39h-72z" />
    <glyph glyph-name="ring" unicode="&#x2da;" horiz-adv-x="308" 
d="M95 618l17 98l75 64h110l61 -74l-17 -99l-74 -63h-111zM241 619l28 24l7 38l-20 24h-44l-28 -24l-7 -38l20 -24h44z" />
    <glyph glyph-name="ogonek" unicode="&#x2db;" horiz-adv-x="279" 
d="M-42 -159l15 87l83 72h119l-89 -78l-6 -35l15 -18h88l-16 -92h-156z" />
    <glyph glyph-name="tilde" unicode="&#x2dc;" horiz-adv-x="391" 
d="M215 606h-22l-15 -12l-6 -33l-96 -1l13 71l81 69h84l55 -52h23l14 12l6 34h96l-13 -71l-81 -69h-84z" />
    <glyph glyph-name="hungarumlaut" unicode="&#x2dd;" horiz-adv-x="377" 
d="M156 713h131l-125 -169h-108zM328 713h131l-126 -169h-108z" />
    <glyph glyph-name="gravecomb" unicode="&#x300;" 
d="M-80 713h139l46 -169h-116z" />
    <glyph glyph-name="acutecomb" unicode="&#x301;" 
d="M98 713h139l-129 -169h-116z" />
    <glyph glyph-name="uni0302" unicode="&#x302;" 
d="M27 705h106l114 -161h-124l-52 75h-6l-78 -75h-130z" />
    <glyph glyph-name="tildecomb" unicode="&#x303;" 
d="M19 606h-22l-15 -12l-6 -33l-96 -1l13 71l81 69h84l55 -52h23l14 12l6 34h96l-13 -71l-81 -69h-84z" />
    <glyph glyph-name="uni0304" unicode="&#x304;" 
d="M-98 660h340l-19 -106h-340z" />
    <glyph glyph-name="uni0306" unicode="&#x306;" 
d="M-101 627l13 76h110l-8 -48l22 -27h58l32 27l8 48h114l-13 -76l-98 -83h-170z" />
    <glyph glyph-name="uni0307" unicode="&#x307;" 
d="M-17 588l11 62l48 41h70l34 -41l-11 -64l-46 -39h-72z" />
    <glyph glyph-name="uni0308" unicode="&#x308;" 
d="M-123 590l10 58l46 39h67l31 -40l-10 -58l-43 -38h-69zM97 591l10 56l45 40h67l32 -39l-10 -60l-44 -37h-69z" />
    <glyph glyph-name="hookabovecomb" unicode="&#x309;" 
d="M4 602l101 67l5 28l-10 12h-38l-14 -12l-7 -39h-103l12 68l79 67h134l55 -67l-15 -86l-85 -56l-7 -40h-117z" />
    <glyph glyph-name="uni030A" unicode="&#x30a;" 
d="M-59 618l17 98l75 64h110l61 -74l-17 -99l-74 -63h-111zM87 619l28 24l7 38l-20 24h-44l-28 -24l-7 -38l20 -24h44z" />
    <glyph glyph-name="uni030B" unicode="&#x30b;" 
d="M0 713h131l-125 -169h-108zM172 713h131l-126 -169h-108z" />
    <glyph glyph-name="uni030C" unicode="&#x30c;" 
d="M-115 705h122l52 -75h6l78 75h132l-170 -161h-106z" />
    <glyph glyph-name="uni031B" unicode="&#x31b;" 
d="M-30 422h65l41 35l13 76h112l-20 -115l-108 -92h-120z" />
    <glyph glyph-name="dotbelowcomb" unicode="&#x323;" 
d="M-147 -150l11 62l48 41h70l34 -41l-11 -64l-46 -39h-72z" />
    <glyph glyph-name="uni0324" unicode="&#x324;" 
d="M-253 -148l10 58l46 39h67l31 -40l-10 -58l-43 -38h-69zM-33 -147l10 56l45 40h67l32 -39l-10 -60l-44 -37h-69z" />
    <glyph glyph-name="uni0326" unicode="&#x326;" 
d="M-94 -212h-22l-36 43l11 64l51 43h75l34 -44l-18 -106l-81 -134h-78z" />
    <glyph glyph-name="uni0327" unicode="&#x327;" 
d="M-167 -150h118l14 12l5 26l-10 12h-99l5 31l69 123h94l-51 -88h52l41 -50l-17 -93l-55 -47h-179z" />
    <glyph glyph-name="uni0328" unicode="&#x328;" 
d="M-177 -159l15 87l83 72h119l-89 -78l-6 -35l15 -18h88l-16 -92h-156z" />
    <glyph glyph-name="uni032E" unicode="&#x32e;" 
d="M-235 -135l13 76h110l-8 -48l22 -27h58l32 27l8 48h114l-13 -76l-98 -83h-170z" />
    <glyph glyph-name="uni0331" unicode="&#x331;" 
d="M-225 -59h340l-19 -106h-340z" />
    <glyph glyph-name="uni0394" unicode="&#x394;" horiz-adv-x="666" 
d="M-8 88l347 612h146l133 -612l-16 -88h-626zM486 112l-91 450h-6l-249 -450h346z" />
    <glyph glyph-name="uni03A9" unicode="&#x3a9;" horiz-adv-x="715" 
d="M21 112h130l10 62l-92 112l54 306l128 108h355l104 -124l-53 -298l-132 -112l-9 -54h130l-20 -112h-260l36 207l125 107l41 228l-35 42h-233l-49 -42l-41 -228l87 -107l-36 -207h-260z" />
    <glyph glyph-name="uni03BC" unicode="&#x3bc;" horiz-adv-x="596" 
d="M580 498l-88 -498h-124l15 82l-95 -82h-105l-30 37l-42 -237h-130l80 451l43 247h132l-58 -331l44 -55h59l117 102l50 284h132z" />
    <glyph glyph-name="pi" unicode="&#x3c0;" horiz-adv-x="734" 
d="M600 386l-43 -245l25 -29h88l-20 -112h-144l-88 106l50 280h-166l-68 -386h-132l68 386h-106l20 112h654l-20 -112h-118z" />
    <glyph glyph-name="uni0E01" unicode="&#xe01;" horiz-adv-x="623" 
d="M81 275l67 74l-80 85l136 124h304l86 -105l-80 -453h-134l74 417l-22 27h-189l-27 -24l66 -76l-69 -82l-46 -262h-134z" />
    <glyph glyph-name="uni0E02" unicode="&#xe02;" horiz-adv-x="602" 
d="M182 91l32 178l70 112l11 64l-28 38h-71l-30 -25h33l44 -56l-11 -64l-66 -60h-76l-53 66l23 126l105 98h161l80 -99l-19 -103l-45 -74l-29 -166l12 -18h45l20 18l75 432h126l-85 -483l-87 -75h-163zM150 338l24 20l5 32l-16 20h-32l-24 -20l-5 -32l16 -20h32z" />
    <glyph glyph-name="uni0E03" unicode="&#xe03;" horiz-adv-x="623" 
d="M203 91l33 188l73 120l12 69l-7 10h-12l-55 -47l-40 47h-24l-39 -36h48l44 -56l-11 -64l-66 -60h-79l-51 64l23 135l104 107h68l34 -41l48 41h68l57 -78l-18 -102l-48 -82l-31 -180l12 -18h43l20 18l75 432h128l-85 -483l-87 -75h-163zM144 322l23 20l5 32l-15 20h-33
l-24 -20l-5 -32l16 -20h33z" />
    <glyph glyph-name="uni0E04" unicode="&#xe04;" horiz-adv-x="642" 
d="M612 450l-79 -450h-132l73 415l-23 29h-195l-33 -29l-27 -153l94 79h83l54 -68l-13 -77l-67 -59h-84l-32 41l-24 -23l-33 -27l-22 -128h-130l81 466l109 92h310zM276 222l16 -20h36l22 20l6 34l-15 20h-36l-23 -20z" />
    <glyph glyph-name="uni0E05" unicode="&#xe05;" horiz-adv-x="644" 
d="M615 456l-81 -456h-132l75 423l-14 21h-34l-84 -57l-66 57h-34l-21 -21l-30 -168l94 79h83l54 -68l-14 -77l-66 -59h-84l-32 41l-24 -23l-33 -27l-21 -121h-130l83 472l90 86h105l59 -55l77 55h106zM274 215l16 -20h36l22 20l6 34l-15 20h-36l-23 -20z" />
    <glyph glyph-name="uni0E06" unicode="&#xe06;" horiz-adv-x="675" 
d="M664 558l-98 -558h-92l-160 108l-8 -49l-70 -59h-113l-55 68l16 93l76 66h48l6 35l113 110l17 96l-8 10h-24l-55 -47l-40 47h-24l-39 -36h48l44 -56l-11 -64l-66 -60h-79l-51 64l23 135l104 107h68l34 -41l48 41h86l57 -78l-24 -139l-93 -89l-7 -43l121 -82l74 421h134z
M134 394l-24 -20l-5 -32l16 -20h33l23 20l5 32l-15 20h-33zM238 132l-16 20h-36l-24 -20l-6 -36l17 -20h36l23 20z" />
    <glyph glyph-name="uni0E07" unicode="&#xe07;" horiz-adv-x="514" 
d="M20 307l107 64l144 -257h22l31 176l14 33h-52l-62 76l15 90l81 69h108l62 -76l-77 -437l-54 -45h-162zM367 400l24 20l6 36l-16 20h-36l-24 -20l-6 -36l16 -20h36z" />
    <glyph glyph-name="uni0E08" unicode="&#xe08;" horiz-adv-x="584" 
d="M555 454l-80 -454h-134l25 141l-10 10l-17 22l-57 -51h-95l-60 73l16 92l76 65h100l74 -82l26 147l-21 27h-190l-31 -27l-10 -56h-132l18 105l107 92h312zM293 254l-15 20h-37l-24 -20l-6 -36l16 -20h37l23 20z" />
    <glyph glyph-name="uni0E09" unicode="&#xe09;" horiz-adv-x="625" 
d="M543 212l37 -46l-18 -103l-74 -63h-103l-61 75l3 19l-137 -94h-97l14 79l12 41h-41l-58 71l16 92l74 63h102l58 -71l-23 -136l168 109l30 171l-21 27h-191l-31 -27l-5 -28h-134l13 75l107 92h318l84 -104zM186 250l-16 20h-36l-24 -20l-6 -36l16 -20h36l24 20zM491 136
l-17 20h-34l-23 -20l-6 -34l16 -20h34l24 20z" />
    <glyph glyph-name="uni0E0A" unicode="&#xe0a;" horiz-adv-x="616" 
d="M182 91l32 178l70 112l11 64l-28 38h-71l-30 -25h33l44 -56l-11 -64l-66 -60h-76l-53 66l23 126l105 98h161l80 -99l-19 -103l-45 -74l-29 -166l12 -18h57l20 18l45 260l-17 37l8 45l182 153l62 -80l-131 -108l22 -51l-55 -307l-87 -75h-175zM150 338l24 20l5 32l-16 20
h-32l-24 -20l-5 -32l16 -20h32z" />
    <glyph glyph-name="uni0E0B" unicode="&#xe0b;" horiz-adv-x="634" 
d="M203 91l33 188l73 120l12 69l-7 10h-12l-55 -47l-40 47h-24l-39 -36h48l44 -56l-11 -64l-66 -60h-79l-51 64l23 135l104 107h68l34 -41l48 41h68l57 -78l-18 -102l-48 -82l-31 -180l12 -18h54l20 18l46 265l-13 34l9 48l176 148l62 -80l-131 -108l22 -51l-55 -307
l-87 -75h-172zM144 322l23 20l5 32l-15 20h-33l-24 -20l-5 -32l16 -20h33z" />
    <glyph glyph-name="uni0E0C" unicode="&#xe0c;" horiz-adv-x="887" 
d="M876 558l-99 -558h-91l-127 88l-5 -29l-70 -59h-109l-54 68l15 93l81 70l33 186l-22 27h-185l-27 -24l66 -76l-71 -75l-6 -33l-4 -12h38l57 -69l-16 -94l-72 -61h-106l-58 71l37 209l67 69l-80 85l136 124h300l82 -101l-41 -235l123 -83l74 419h134zM487 132l-16 20h-35
l-24 -20l-6 -34l17 -20h35l23 20zM194 149h-34l-23 -20l-6 -34l16 -20h34l24 20l6 34z" />
    <glyph glyph-name="uni0E0D" unicode="&#xe0d;" horiz-adv-x="899" 
d="M44 71l37 209l69 69l-82 85l136 124h293l82 -101l-55 -321l17 -22h114l25 22l74 422h134l-86 -484l-85 -74h-262l-72 88l58 329l-22 27h-176l-27 -24l68 -76l-73 -75l-6 -33l-4 -12h38l57 -69l-16 -94l-72 -61h-106zM181 75l24 20l6 34l-17 20h-34l-23 -20l-6 -34l16 -20
h34zM339 -178l14 78l76 65h89l54 -66l-6 -38h40l120 99l63 -82l-149 -121h-248zM466 -173l23 20l5 30l-16 20h-32l-24 -20l-5 -30l17 -20h32z" />
    <glyph glyph-name="uni0E0E" unicode="&#xe0e;" horiz-adv-x="639" 
d="M9 -201l15 87l74 61h208l67 -79l97 549l-22 27h-193l-27 -24l85 -76l-56 -78l-36 -204l-72 -62h-105l-60 71l17 94l71 61h50l-1 16l7 42l51 65l-99 85l136 124h308l86 -105l-128 -727h-91l-46 54l-62 -54h-214zM121 77l23 20l6 34l-16 20h-34l-24 -20l-6 -34l17 -20h34z
M253 -198l35 32l-31 37h-121l-22 -19l-5 -31l15 -19h129z" />
    <glyph glyph-name="uni0E0F" unicode="&#xe0f;" horiz-adv-x="639" 
d="M-16 -205l15 87l70 60h131l67 -100l52 72l50 -68l101 571l-22 27h-193l-27 -24l85 -76l-56 -78l-36 -204l-72 -62h-105l-60 71l17 94l71 61h50l-1 16l7 42l51 65l-99 85l136 124h308l86 -105l-128 -727h-103l-58 76l-56 -76l-45 66l-70 -66h-109zM121 77l23 20l6 34
l-16 20h-34l-24 -20l-6 -34l17 -20h34zM144 -199l37 36l-24 34h-63l-21 -18l-6 -34l15 -18h62z" />
    <glyph glyph-name="uni0E10" unicode="&#xe10;" horiz-adv-x="548" 
d="M187 433l-2 -9l320 -54l-66 -370h-134l13 71l-11 13l-17 22l-59 -48h-86l-59 73l14 82l74 64h95l75 -90l19 106l-324 59l20 116l105 90h383l-18 -104h-318zM246 184l-17 20h-33l-23 -20l-6 -33l17 -20h33l23 20zM413 -29l42 -51l-39 -226h-163l-39 46l-56 -46l-43 56
l-60 -56h-89l-50 61l17 100l66 59h99l78 -119l44 35l46 -56h65l2 15l4 10h-40l-41 49l12 70l61 53h84zM387 -104l-14 17h-27l-20 -17l-5 -28l14 -17h27l20 17zM85 -195l-23 38h-39l-21 -18l-7 -40l14 -18h38z" />
    <glyph glyph-name="uni0E11" unicode="&#xe11;" horiz-adv-x="725" 
d="M218 273l86 126l12 69l-7 10h-12l-55 -47l-40 47h-24l-39 -36h48l44 -56l-11 -64l-66 -60h-79l-51 64l23 135l104 107h68l34 -41l48 41h58l57 -78l-18 -102l-78 -121l-22 -127h1l221 418h89l87 -106l-80 -452h-134l75 421l-13 19h-5l-238 -440h-131zM139 322l23 20l5 32
l-15 20h-33l-24 -20l-5 -32l16 -20h33z" />
    <glyph glyph-name="uni0E12" unicode="&#xe12;" horiz-adv-x="906" 
d="M895 558l-98 -558h-91l-118 87l-6 -33l-64 -54h-94l-54 66l14 83l57 47l41 227l-14 21h-41l-84 -57l-66 57h-37l-21 -21l-56 -313l57 46l25 16l-36 40l15 86l63 53h88l50 -61l-15 -86l-255 -204h-134l83 472l90 86h104l59 -55l77 55h106l76 -103l-42 -233l114 -83l73 419
h134zM277 234l16 -20h36l22 20l6 34l-15 20h-36l-23 -20zM527 124l-17 20h-34l-23 -20l-6 -34l16 -20h34l24 20z" />
    <glyph glyph-name="uni0E13" unicode="&#xe13;" horiz-adv-x="898" 
d="M821 211l37 -45l-18 -103l-74 -63h-103l-61 75l3 19l-143 -94h-95l74 417l-22 27h-176l-27 -24l66 -76l-71 -75l-6 -33l-4 -12h38l57 -69l-16 -94l-72 -61h-106l-58 71l37 209l67 69l-80 85l136 124h292l82 -101l-56 -319l170 107l56 313h134zM769 136l-17 20h-34
l-23 -20l-6 -34l16 -20h34l24 20zM194 149h-34l-23 -20l-6 -34l16 -20h34l24 20l6 34z" />
    <glyph glyph-name="uni0E14" unicode="&#xe14;" horiz-adv-x="642" 
d="M616 468l-83 -468h-132l74 417l-22 27h-202l-30 -27l-55 -303l54 42l25 17l-35 41l15 86l65 55h90l50 -61l-17 -94l-258 -200h-134l83 468l104 90h336zM280 236l15 -20h36l23 20l6 34l-16 20h-36l-22 -20z" />
    <glyph glyph-name="uni0E15" unicode="&#xe15;" horiz-adv-x="644" 
d="M615 456l-80 -456h-132l74 423l-14 21h-34l-84 -57l-66 57h-37l-21 -21l-55 -309l56 42l21 14l-34 40l15 86l65 55h90l50 -61l-17 -94l-257 -196h-134l83 472l90 86h106l59 -55l77 55h105zM279 232l15 -20h36l23 20l6 34l-16 20h-36l-22 -20z" />
    <glyph glyph-name="uni0E16" unicode="&#xe16;" horiz-adv-x="623" 
d="M44 71l37 209l67 69l-80 85l136 124h304l86 -105l-80 -453h-134l74 417l-22 27h-189l-27 -24l66 -76l-71 -75l-6 -33l-4 -12h38l57 -69l-16 -94l-72 -61h-106zM181 75l24 20l6 34l-17 20h-34l-23 -20l-6 -34l16 -20h34z" />
    <glyph glyph-name="uni0E17" unicode="&#xe17;" horiz-adv-x="660" 
d="M141 286l14 34h-51l-63 76l16 93l78 69h111l54 -71l-46 -262h1l185 333h105l86 -106l-80 -452h-134l74 421l-13 21h-5l-253 -442h-129zM181 400l24 20l6 36l-16 20h-36l-24 -20l-6 -36l16 -20h36z" />
    <glyph glyph-name="uni0E18" unicode="&#xe18;" horiz-adv-x="576" 
d="M43 88l30 173h130l-23 -127l17 -22h143l25 22l23 128l-327 80l23 126l104 90h387l-20 -109h-319l-26 -22l-2 -15l323 -80l-46 -258l-85 -74h-285z" />
    <glyph glyph-name="uni0E19" unicode="&#xe19;" horiz-adv-x="642" 
d="M564 212l38 -46l-18 -103l-74 -63h-103l-61 75l4 23l-162 -98h-97l50 286l14 34h-51l-63 77l16 92l81 69h108l63 -78l-60 -340l187 107l55 311h134zM215 456l-16 20h-36l-24 -20l-6 -36l16 -20h36l24 20zM513 136l-17 20h-34l-23 -20l-6 -34l16 -20h34l24 20z" />
    <glyph glyph-name="uni0E1A" unicode="&#xe1a;" horiz-adv-x="662" 
d="M106 88l35 198l14 34h-51l-63 77l16 92l81 69h108l63 -78l-60 -344l17 -22h152l25 22l74 422h134l-86 -484l-85 -74h-302zM185 400l24 20l6 36l-16 20h-36l-24 -20l-6 -36l16 -20h36z" />
    <glyph glyph-name="uni0E1B" unicode="&#xe1b;" horiz-adv-x="664" 
d="M106 88l35 198l14 34h-51l-63 77l16 92l81 69h108l63 -78l-60 -344l17 -22h154l25 22l112 632h134l-124 -694l-85 -74h-304zM185 400l24 20l6 36l-16 20h-36l-24 -20l-6 -36l16 -20h36z" />
    <glyph glyph-name="uni0E1C" unicode="&#xe1c;" horiz-adv-x="633" 
d="M107 488l83 70h97l64 -79l-15 -90l-76 -64h-57l-2 -41l-20 -115h1l109 116h62l68 -117h1l68 390h132l-98 -558h-113l-103 178l-164 -178h-123zM235 402l22 20l7 36l-16 20h-37l-23 -20l-7 -36l17 -20h37z" />
    <glyph glyph-name="uni0E1D" unicode="&#xe1d;" horiz-adv-x="635" 
d="M107 488l83 70h97l64 -79l-15 -90l-76 -64h-57l-2 -41l-20 -115h1l110 116h62l69 -117h1l105 600h132l-135 -768h-113l-104 178l-165 -178h-123zM235 402l22 20l7 36l-16 20h-37l-23 -20l-7 -36l17 -20h37z" />
    <glyph glyph-name="uni0E1E" unicode="&#xe1e;" horiz-adv-x="704" 
d="M141 286l14 34h-51l-63 77l16 92l81 69h106l61 -76l-45 -258h3l132 216h52l54 -215h3l59 333h130l-98 -558h-125l-72 284l-173 -284h-134zM185 400l24 20l6 36l-16 20h-36l-24 -20l-6 -36l16 -20h36z" />
    <glyph glyph-name="uni0E1F" unicode="&#xe1f;" horiz-adv-x="706" 
d="M141 286l14 34h-51l-63 77l16 92l81 69h106l61 -76l-45 -258h3l133 216h52l55 -215h3l96 543h130l-135 -768h-125l-73 284l-174 -284h-134zM185 400l24 20l6 36l-16 20h-36l-24 -20l-6 -36l16 -20h36z" />
    <glyph glyph-name="uni0E20" unicode="&#xe20;" horiz-adv-x="637" 
d="M-16 71l17 94l71 61h50l-1 16l7 42l51 65l-99 85l136 124h306l86 -105l-80 -453h-134l74 417l-22 27h-191l-27 -24l85 -76l-56 -78l-36 -204l-72 -62h-105zM121 77l23 20l6 34l-16 20h-34l-24 -20l-6 -34l17 -20h34z" />
    <glyph glyph-name="uni0E21" unicode="&#xe21;" horiz-adv-x="636" 
d="M625 558l-98 -558h-98l-168 104l-7 -41l-73 -63h-101l-65 79l16 89l80 68h36l9 50l14 34h-51l-63 77l16 92l81 69h108l64 -78l-46 -256l138 -85l74 419h134zM200 400l24 20l6 36l-16 20h-36l-24 -20l-6 -36l16 -20h36zM184 135l-16 20h-35l-23 -20l-6 -34l16 -20h35
l23 20z" />
    <glyph glyph-name="uni0E22" unicode="&#xe22;" horiz-adv-x="607" 
d="M596 558l-85 -482l-89 -76h-323l-72 88l17 98l83 56l-63 57l33 188l81 71h102l61 -77l-14 -84l-68 -59h-73l-4 -20l37 -29h114l-16 -90h-93l-51 -37l-5 -28l17 -22h177l25 21l75 425h134zM172 427l16 -20h36l24 20l6 36l-16 20h-36l-24 -20z" />
    <glyph glyph-name="uni0E23" unicode="&#xe23;" horiz-adv-x="505" 
d="M140 71l17 97l73 62h59l1 18l5 30l-249 61l23 131l102 88h348l-20 -112h-280l-24 -21l-3 -16l248 -58l-51 -290l-72 -61h-118zM285 77l22 20l7 36l-16 20h-38l-22 -20l-7 -36l16 -20h38z" />
    <glyph glyph-name="uni0E24" unicode="&#xe24;" horiz-adv-x="625" 
d="M456 417l-22 27h-191l-27 -24l66 -76l-71 -75l-6 -33l-4 -12h38l57 -69l-16 -94l-72 -61h-106l-58 71l37 209l67 69l-80 85l136 124h306l86 -105l-117 -663h-134zM181 75l24 20l6 34l-17 20h-34l-23 -20l-6 -34l16 -20h34z" />
    <glyph glyph-name="uni0E25" unicode="&#xe25;" horiz-adv-x="616" 
d="M39 71l34 194l110 91h191l53 -63l22 126l-21 27h-188l-31 -27l-5 -28h-134l13 75l107 92h312l85 -106l-80 -452h-134l28 160l-74 92h-111l-18 -16l-2 -8l-3 -10h39l56 -68l-15 -89l-72 -61h-104zM175 73l24 20l6 34l-17 20h-34l-23 -20l-6 -34l16 -20h34z" />
    <glyph glyph-name="uni0E26" unicode="&#xe26;" horiz-adv-x="639" 
d="M470 417l-22 27h-193l-27 -24l85 -76l-56 -78l-36 -204l-72 -62h-105l-60 71l17 94l71 61h50l-1 16l7 42l51 65l-99 85l136 124h308l86 -105l-117 -663h-134zM121 77l23 20l6 34l-16 20h-34l-24 -20l-6 -34l17 -20h34z" />
    <glyph glyph-name="uni0E27" unicode="&#xe27;" horiz-adv-x="540" 
d="M193 79l16 90l78 69h57v31l26 148l-21 27h-136l-31 -27l-12 -68h-132l21 117l107 92h259l86 -106l-68 -383l-82 -69h-105zM337 82l23 20l7 36l-17 20h-36l-23 -20l-7 -36l17 -20h36z" />
    <glyph glyph-name="uni0E28" unicode="&#xe28;" horiz-adv-x="642" 
d="M586 481l26 -31l-79 -450h-132l73 415l-23 29h-195l-33 -29l-27 -153l94 79h83l54 -68l-13 -77l-67 -59h-84l-32 41l-24 -23l-33 -27l-22 -128h-130l81 466l109 92h288l79 67l73 -88zM276 222l16 -20h36l22 20l6 34l-15 20h-36l-23 -20z" />
    <glyph glyph-name="uni0E29" unicode="&#xe29;" horiz-adv-x="683" 
d="M672 558l-86 -484l-85 -74h-323l-72 88l35 198l14 34h-51l-63 77l16 92l81 69h108l59 -73l-61 -349l17 -22h184l25 22l10 57h-144l-50 59l14 77l63 54h71l48 -60l-6 -36l-6 -13l25 6l49 278h128zM215 456l-16 20h-36l-24 -20l-6 -36l16 -20h36l24 20zM421 302l-16 19h-27
l-22 -19l-5 -28l16 -19h27l22 19z" />
    <glyph glyph-name="uni0E2A" unicode="&#xe2a;" horiz-adv-x="616" 
d="M573 470l14 -18l-80 -452h-134l28 160l-74 92h-111l-18 -16l-2 -8l-3 -10h39l56 -68l-15 -89l-72 -61h-104l-58 71l34 194l110 91h191l53 -63l22 126l-21 27h-188l-31 -27l-5 -28h-134l13 75l107 92h309l79 67l73 -88zM188 147h-34l-23 -20l-6 -34l16 -20h34l24 20l6 34z
" />
    <glyph glyph-name="uni0E2B" unicode="&#xe2b;" horiz-adv-x="662" 
d="M622 394l-49 -40l35 -38l-55 -316h-134l46 265l-6 10l-260 -275h-108l50 286l14 34h-51l-63 77l16 92l81 69h108l64 -78l-52 -293l150 160l-38 47l16 89l85 75h106l61 -75zM463 422l17 -20h36l23 20l6 36l-16 20h-36l-24 -20zM215 456l-16 20h-36l-24 -20l-6 -36l16 -20
h36l24 20z" />
    <glyph glyph-name="uni0E2C" unicode="&#xe2c;" horiz-adv-x="722" 
d="M141 286l14 34h-51l-63 77l16 92l81 69h106l61 -76l-49 -281h3l126 181h50l63 -180h3l36 203l9 25h-40l-60 72l16 86l72 62h96l54 -67l-4 -24l59 52l40 -68l-103 -90l-80 -453h-124l-84 237l-163 -237h-134zM575 505l23 20l6 30l-17 20h-29l-24 -20l-6 -30l18 -20h29z
M185 400l24 20l6 36l-16 20h-36l-24 -20l-6 -36l16 -20h36z" />
    <glyph glyph-name="uni0E2D" unicode="&#xe2d;" horiz-adv-x="601" 
d="M38 98l37 206l74 63h101l58 -71l-15 -90l-70 -57h-47v-10l-2 -10l15 -19h168l30 27l50 282l-21 27h-181l-31 -27l-5 -28h-134l13 75l107 92h306l85 -106l-64 -369l-96 -83h-301zM195 217l23 20l6 36l-15 20h-35l-23 -20l-6 -36l15 -20h35z" />
    <glyph glyph-name="uni0E2E" unicode="&#xe2e;" horiz-adv-x="602" 
d="M38 98l35 194l74 63h101l58 -71l-15 -84l-64 -53h-51l-1 -10l-1 -8l15 -19h170l30 27l51 285l-12 14l-68 -56h-239l-48 58l11 62l69 58h312l82 66l67 -75l-67 -54l31 -38l-66 -374l-96 -83h-301zM322 449l49 40h-166l-14 -12l-3 -16l9 -12h125zM194 209l23 20l6 36
l-16 20h-35l-22 -20l-6 -36l15 -20h35z" />
    <glyph glyph-name="uni0E2F" unicode="&#xe2f;" horiz-adv-x="537" 
d="M358 339l-53 -37h-186l-78 95l15 87l87 74h93l58 -71l-12 -67l-27 -28l28 2h17l83 63l18 101h130l-99 -558h-134zM182 403l23 20l6 35l-15 20h-37l-24 -20l-6 -35l16 -20h37z" />
    <glyph glyph-name="uni0E30" unicode="&#xe30;" horiz-adv-x="528" 
d="M58 375l17 98l81 69h92l63 -77l-10 -55h40l137 117l63 -93l-161 -136h-259zM198 383l23 20l6 36l-15 20h-38l-23 -20l-6 -36l15 -20h38zM8 95l17 98l81 69h92l63 -77l-10 -55h40l137 117l63 -93l-161 -136h-259zM148 103l23 20l6 36l-15 20h-38l-23 -20l-6 -36l15 -20h38
z" />
    <glyph glyph-name="uni0E31" unicode="&#xe31;" 
d="M-309 698l16 87l69 59h96l57 -69l-6 -34l-2 -12h67l117 108l61 -80l-142 -129h-275zM-180 703l21 18l6 32l-15 18h-32l-21 -18l-6 -32l15 -18h32z" />
    <glyph glyph-name="uni0E32" unicode="&#xe32;" horiz-adv-x="543" 
d="M374 417l-22 27h-139l-31 -27l-12 -68h-132l21 119l105 90h263l87 -106l-80 -452h-134z" />
    <glyph glyph-name="uni0E33" unicode="&#xe33;" horiz-adv-x="543" 
d="M-174 692l17 96l85 72h109l58 -72l-17 -96l-84 -72h-109zM-29 703l23 20l6 34l-16 20h-33l-24 -20l-6 -34l17 -20h33zM374 417l-22 27h-139l-31 -27l-12 -68h-132l21 119l105 90h263l87 -106l-80 -452h-134z" />
    <glyph glyph-name="uni0E34" unicode="&#xe34;" 
d="M-452 749l116 98h267l90 -110l-19 -109h-475zM-100 706l4 24l-29 35h-173l-41 -35l-4 -24h243z" />
    <glyph glyph-name="uni0E35" unicode="&#xe35;" 
d="M49 893l-34 -191l-13 -74h-475l21 120l117 99h202l50 -49l17 95h115zM-111 734l-31 31h-158l-39 -33l-4 -26h227z" />
    <glyph glyph-name="uni0E36" unicode="&#xe36;" 
d="M72 747l-57 -44l-13 -75h-475l21 120l117 99h200l25 -24l3 17l62 54h79l53 -64zM18 811l-15 18h-32l-21 -18l-5 -32l14 -18h32l22 18zM-111 734l-31 31h-158l-39 -33l-4 -26h227z" />
    <glyph glyph-name="uni0E37" unicode="&#xe37;" 
d="M49 893l-34 -191l-13 -74h-475l21 120l117 99h138l8 46h95l-13 -72l41 -40l20 112h95zM-111 734l-31 31h-158l-39 -33l-4 -26h227z" />
    <glyph glyph-name="uni0E38" unicode="&#xe38;" 
d="M-295 -316l17 44h-47l-60 73l14 79l78 66h105l57 -70l-43 -242h-130zM-249 -201l25 22l5 30l-17 22h-32l-25 -22l-5 -30l17 -22h32z" />
    <glyph glyph-name="uni0E39" unicode="&#xe39;" 
d="M-460 -307l3 15l8 26h-49l-53 64l15 85l74 63h95l55 -68l-25 -146h67l36 208h114l-44 -253l-65 -55h-181zM-422 -201l25 22l5 30l-17 22h-32l-25 -22l-5 -30l17 -22h32z" />
    <glyph glyph-name="uni0E3A" unicode="&#xe3a;" 
d="M-288 -165l11 64l56 47h72l38 -47l-11 -66l-53 -45h-74z" />
    <glyph glyph-name="uni0E3F" unicode="&#xe3f;" horiz-adv-x="670" 
d="M584 363l58 -72l-34 -193l-115 -98h-143l-19 -110h-114l19 110h-214l123 700h215l19 110h114l-19 -110h101l90 -108l-34 -188zM227 407h81l32 179h-82zM523 551l-29 35h-40l-32 -179h40l42 36zM256 114l33 184h-81l-33 -184h81zM502 255l-35 43h-64l-33 -184h64l51 43z
" />
    <glyph glyph-name="uni0E40" unicode="&#xe40;" horiz-adv-x="334" 
d="M35 77l85 481h134l-51 -287l-14 -33h53l61 -77l-16 -94l-79 -67h-110zM182 82l23 20l6 36l-16 20h-36l-24 -20l-6 -36l17 -20h36z" />
    <glyph glyph-name="uni0E41" unicode="&#xe41;" horiz-adv-x="629" 
d="M35 77l85 481h134l-51 -287l-14 -33h53l60 -75l-17 -96l-79 -67h-108zM330 77l85 481h134l-51 -287l-14 -33h53l61 -77l-16 -94l-79 -67h-110zM182 82l23 20l6 36l-16 20h-36l-24 -20l-6 -36l17 -20h36zM477 82l23 20l6 36l-16 20h-36l-24 -20l-6 -36l17 -20h36z" />
    <glyph glyph-name="uni0E42" unicode="&#xe42;" horiz-adv-x="391" 
d="M92 77l99 564l-152 83l21 119l105 89h334l-19 -108h-273l-24 -20l-4 -23l156 -84l-75 -426l-14 -33h53l61 -77l-16 -94l-79 -67h-110zM239 82l23 20l6 36l-16 20h-36l-24 -20l-6 -36l17 -20h36z" />
    <glyph glyph-name="uni0E43" unicode="&#xe43;" horiz-adv-x="387" 
d="M88 77l87 495l142 141l20 114l-24 29h-110l-37 -30h46l43 -55l-13 -79l-64 -54h-88l-52 64l25 147l120 103h193l88 -107l-27 -152l-130 -131l-51 -291l-14 -33h53l61 -77l-16 -94l-79 -67h-110zM158 702l23 20l6 32l-17 20h-32l-23 -20l-6 -32l17 -20h32zM235 82l23 20
l6 36l-16 20h-36l-24 -20l-6 -36l17 -20h36z" />
    <glyph glyph-name="uni0E44" unicode="&#xe44;" horiz-adv-x="377" 
d="M78 77l99 565l153 147l6 36l-6 9h-39l-88 -71l-65 71h-75l19 108h89l46 -56l65 56h128l59 -71l-17 -108l-145 -144l-61 -348l-14 -33h53l61 -77l-16 -94l-79 -67h-110zM225 82l23 20l6 36l-16 20h-36l-24 -20l-6 -36l17 -20h36z" />
    <glyph glyph-name="uni0E45" unicode="&#xe45;" horiz-adv-x="543" 
d="M374 417l-22 27h-139l-31 -27l-12 -68h-132l21 119l105 90h263l87 -106l-117 -662h-134z" />
    <glyph glyph-name="uni0E46" unicode="&#xe46;" horiz-adv-x="529" 
d="M366 451l-12 15h-21l-60 -53l-46 55h-36l-38 -31h46l46 -57l-12 -68l-68 -60h-84l-50 60l28 156l108 100h78l40 -50l57 50h100l63 -85l-104 -593h-134zM152 312l24 20l5 32l-16 20h-32l-24 -20l-5 -32l16 -20h32z" />
    <glyph glyph-name="uni0E47" unicode="&#xe47;" 
d="M-388 825l80 69h238l82 70l53 -65l-103 -89h-229l-26 -22l-13 -75l82 56l54 -50h16l1 6l3 16l52 45h74l43 -51l-12 -68l-47 -39h-147l-58 53l-76 -53h-102zM-63 678l19 16l4 26l-13 16h-28l-19 -16l-4 -26l13 -16h28z" />
    <glyph glyph-name="uni0E48" unicode="&#xe48;" 
d="M-94 838h133l-37 -210h-133z" />
    <glyph glyph-name="uni0E49" unicode="&#xe49;" 
d="M-344 712h100l17 20h-44l-41 48l13 75l61 52h93l50 -61l-15 -86l-35 -44h67l142 156l66 -71l-160 -173h-329zM-196 782l23 19l4 28l-15 19h-26l-23 -19l-4 -28l15 -19h26z" />
    <glyph glyph-name="uni0E4A" unicode="&#xe4a;" 
d="M-421 682l20 118l102 89h91l32 -40l45 40h66l61 -71l-17 -92h6l114 136l58 -58l-149 -176h-192l14 80h52l16 87l-8 10h-17l-60 -51l-44 51h-37l-31 -25h34l43 -53l-9 -55l-55 -48h-90zM-314 680l19 16l4 21l-13 16h-22l-19 -16l-4 -21l13 -16h22z" />
    <glyph glyph-name="uni0E4B" unicode="&#xe4b;" 
d="M107 708h-97l-14 -80h-124l14 80h-99l17 84h97l14 80h124l-14 -80h99z" />
    <glyph glyph-name="uni0E4C" unicode="&#xe4c;" 
d="M-68 811l33 -39l-15 -90l-65 -54h-99l-52 64l15 87l218 186l61 -73zM-112 748l-16 19h-30l-22 -19l-6 -32l16 -19h30l22 19z" />
    <glyph glyph-name="uni0E4D" unicode="&#xe4d;" 
d="M-186 702l17 96l79 68h108l65 -80l-17 -96l-77 -66h-112zM-42 699l34 28l6 36l-23 28h-38l-32 -28l-6 -36l22 -28h37z" />
    <glyph glyph-name="uni0E4E" unicode="&#xe4e;" 
d="M63 972l-13 -77h-64l-24 -20l-4 -25l-7 -37l-4 -24l-3 -15h-107l-17 -15l-5 -23l13 -15h88l-14 -78h-141l-46 56l17 97l61 54h76l11 66l65 56h118z" />
    <glyph glyph-name="uni0E4F" unicode="&#xe4f;" horiz-adv-x="591" 
d="M29 184l36 206l170 144h206l132 -160l-37 -208l-167 -141h-208zM336 118l114 97l22 128l-79 98h-126l-115 -98l-22 -128l80 -97h126zM169 228l18 102l85 72h101l59 -72l-18 -102l-83 -71h-103zM312 234l31 26l7 39l-23 26h-36l-31 -26l-7 -39l21 -26h38z" />
    <glyph glyph-name="uni0E50" unicode="&#xe50;" horiz-adv-x="658" 
d="M26 112l47 267l113 96h350l92 -112l-47 -269l-110 -94h-352zM419 111l40 34l32 183l-29 36h-224l-43 -36l-32 -183l28 -34h228z" />
    <glyph glyph-name="uni0E51" unicode="&#xe51;" horiz-adv-x="656" 
d="M349 -12l95 85l45 253l-30 37h-231l-42 -37l-37 -211l16 -21h45l-24 34l11 60l70 60h93l60 -74l-15 -83l-104 -91h-198l-80 97l49 277l117 101h341l95 -117l-59 -336l-140 -121zM306 96l26 23l6 33l-18 22h-30l-26 -22l-5 -29l19 -27h28z" />
    <glyph glyph-name="uni0E52" unicode="&#xe52;" horiz-adv-x="759" 
d="M31 111l98 559h132l-93 -525l27 -34h326l39 34l36 203l-19 23h-12l-85 -77l-65 77h-42l-30 -26l-3 -13h54l47 -57l-12 -74l-58 -49h-97l-51 63l29 161l107 99h89l45 -61l62 61h92l83 -107l-49 -275l-108 -93h-452zM347 205l24 20l5 32l-16 20h-32l-24 -20l-5 -32l16 -20
h32z" />
    <glyph glyph-name="uni0E53" unicode="&#xe53;" horiz-adv-x="756" 
d="M24 73l53 303l115 99h175l43 -53l62 53h154l95 -114l-64 -361h-131l58 331l-26 32h-58l-36 -30l-58 -333h-126l58 333l-24 30h-79l-38 -32l-17 -97l-3 -15h36l60 -72l-15 -82l-77 -65h-97zM161 74l23 20l6 34l-16 20h-34l-24 -20l-6 -34l17 -20h34z" />
    <glyph glyph-name="uni0E54" unicode="&#xe54;" horiz-adv-x="687" 
d="M27 116l45 259l118 100h355l123 104l72 -87l-150 -129h-352l-42 -36l-33 -185l28 -34h111l-43 64l17 98l73 62h105l57 -68l-14 -80l-60 -51h-32l17 -25h193l-19 -108h-474zM401 188l24 20l6 34l-17 20h-34l-23 -20l-6 -34l16 -20h34z" />
    <glyph glyph-name="uni0E55" unicode="&#xe55;" horiz-adv-x="687" 
d="M422 108h193l-19 -108h-474l-95 116l45 259l118 100h85l11 61l78 67h96l62 -74l-9 -54h32l123 104l72 -87l-150 -129h-352l-42 -36l-33 -185l28 -34h111l-43 64l17 98l73 62h105l57 -68l-14 -80l-60 -51h-32zM360 476l16 -20h32l24 20l6 32l-17 20h-32l-23 -20zM401 188
l24 20l6 34l-17 20h-34l-23 -20l-6 -34l16 -20h34z" />
    <glyph glyph-name="uni0E56" unicode="&#xe56;" horiz-adv-x="652" 
d="M43 88l15 90l91 77h91l66 -80l-7 -41l-24 -22h135l43 37l31 181l-26 33h-320l-105 129l102 87l86 -104h309l92 -113l-47 -265l-113 -97h-345zM181 93l29 27l5 28l-18 21h-31l-25 -21l-5 -33l17 -22h28z" />
    <glyph glyph-name="uni0E57" unicode="&#xe57;" horiz-adv-x="897" 
d="M24 73l54 304l115 98h161l42 -53l63 53h137l90 -110l-45 -255h34l19 16l96 544h126l-103 -584l-101 -86h-217l59 333l-25 30h-45l-35 -30l-59 -333h-120l59 333l-25 30h-68l-38 -32l-17 -99l-4 -15h32l60 -72l-14 -80l-77 -65h-94zM159 72l23 20l6 34l-16 20h-34l-24 -20
l-6 -34l17 -20h34z" />
    <glyph glyph-name="uni0E58" unicode="&#xe58;" horiz-adv-x="693" 
d="M24 104l48 271l118 100h331l123 104l72 -87l-149 -129h-329l-42 -36l-34 -191l20 -24h22l112 93l86 -99h85l18 14l3 15h-40l-49 60l12 74l69 60h98l57 -68l-32 -173l-103 -88h-169l-59 70l-82 -70h-100zM546 192l23 20l6 32l-16 20h-32l-24 -20l-6 -32l17 -20h32z" />
    <glyph glyph-name="uni0E59" unicode="&#xe59;" horiz-adv-x="678" 
d="M472 339l138 -287l-101 -71l-184 382h-103l-39 -33l-36 -202l30 -36h25l-18 23l9 50l64 55h86l52 -63l-16 -92l-78 -65h-187l-89 107l47 268l118 100h217l22 -46l54 46h76l120 104l58 -81l-148 -131h-84zM248 107l23 -27h26l25 22l5 33l-17 21h-31l-26 -22z" />
    <glyph glyph-name="uni0E5A" unicode="&#xe5a;" horiz-adv-x="761" 
d="M358 339l-53 -37h-186l-78 95l15 87l87 74h93l58 -71l-12 -67l-27 -28l28 2h17l83 63l18 101h126l-29 -162h33l80 63l18 99h126l-99 -558h-130l60 337l-64 -45h-42l-52 -292h-130zM182 403l23 20l6 35l-15 20h-37l-24 -20l-6 -35l16 -20h37z" />
    <glyph glyph-name="uni0E5B" unicode="&#xe5b;" horiz-adv-x="1189" 
d="M21 142l51 286l115 98h218l79 -96l-35 -199l-83 -65h-104l-54 65l16 92l65 55h48l15 -13h7l4 26l-18 21h-114l-40 -34l-36 -204l28 -34h224l50 40l129 273h85l34 -189l87 169h72l28 -145l71 125h63l34 -87h123l-19 -106h-150l-28 67l-87 -153h-68l-31 142l-84 -162h-76
l-30 162l-75 -161l-98 -87h-322zM343 238l23 20l6 34l-16 20h-34l-23 -20l-6 -34l16 -20h34z" />
    <glyph glyph-name="uni1E0C" unicode="&#x1e0c;" horiz-adv-x="688" 
d="M145 700h439l106 -128l-83 -469l-122 -103h-463zM422 116l60 51l65 366l-42 51h-244l-83 -468h244zM192 -150l11 62l48 41h70l34 -41l-11 -64l-46 -39h-72z" />
    <glyph glyph-name="uni1E0D" unicode="&#x1e0d;" horiz-adv-x="602" 
d="M26 112l51 290l112 96h198l56 -58l49 274h132l-126 -714h-124l13 77l-89 -77h-180zM305 112l96 83l23 130l-57 61h-122l-45 -39l-35 -196l31 -39h109zM154 -150l11 62l48 41h70l34 -41l-11 -64l-46 -39h-72z" />
    <glyph glyph-name="uni1E0E" unicode="&#x1e0e;" horiz-adv-x="688" 
d="M145 700h439l106 -128l-83 -469l-122 -103h-463zM422 116l60 51l65 366l-42 51h-244l-83 -468h244zM114 -59h340l-19 -106h-340z" />
    <glyph glyph-name="uni1E0F" unicode="&#x1e0f;" horiz-adv-x="602" 
d="M26 112l51 290l112 96h198l56 -58l49 274h132l-126 -714h-124l13 77l-89 -77h-180zM305 112l96 83l23 130l-57 61h-122l-45 -39l-35 -196l31 -39h109zM76 -59h340l-19 -106h-340z" />
    <glyph glyph-name="uni1E20" unicode="&#x1e20;" horiz-adv-x="676" 
d="M33 124l84 469l125 107h346l101 -121l-18 -99h-136l10 57l-38 47h-205l-60 -51l-66 -366l42 -51h209l57 48l19 110h-149l20 116h281l-50 -287l-123 -103h-347zM272 862h340l-19 -106h-340z" />
    <glyph glyph-name="uni1E21" unicode="&#x1e21;" horiz-adv-x="602" 
d="M586 498l-110 -622l-115 -97h-273l-84 100l11 60h132l-5 -30l15 -20h154l41 35l26 141l-80 -65h-180l-92 112l51 290l112 96h196l66 -75l13 75h122zM424 325l-57 61h-122l-45 -39l-35 -196l31 -39h109l96 83zM192 660h340l-19 -106h-340z" />
    <glyph glyph-name="uni1E24" unicode="&#x1e24;" horiz-adv-x="698" 
d="M145 700h136l-51 -293h295l51 293h136l-123 -700h-136l51 291h-295l-51 -291h-136zM209 -150l11 62l48 41h70l34 -41l-11 -64l-46 -39h-72z" />
    <glyph glyph-name="uni1E25" unicode="&#x1e25;" horiz-adv-x="594" 
d="M142 714h132l-52 -290l87 74h155l98 -119l-67 -379h-132l62 351l-28 35h-82l-117 -100l-50 -286h-132zM159 -150l11 62l48 41h70l34 -41l-11 -64l-46 -39h-72z" />
    <glyph glyph-name="uni1E2A" unicode="&#x1e2a;" horiz-adv-x="698" 
d="M145 700h136l-51 -293h295l51 293h136l-123 -700h-136l51 291h-295l-51 -291h-136zM121 -135l13 76h110l-8 -48l22 -27h58l32 27l8 48h114l-13 -76l-98 -83h-170z" />
    <glyph glyph-name="uni1E2B" unicode="&#x1e2b;" horiz-adv-x="594" 
d="M142 714h132l-52 -290l87 74h155l98 -119l-67 -379h-132l62 351l-28 35h-82l-117 -100l-50 -286h-132zM71 -135l13 76h110l-8 -48l22 -27h58l32 27l8 48h114l-13 -76l-98 -83h-170z" />
    <glyph glyph-name="uni1E36" unicode="&#x1e36;" horiz-adv-x="561" 
d="M145 700h136l-103 -585h349l-20 -115h-485zM163 -150l11 62l48 41h70l34 -41l-11 -64l-46 -39h-72z" />
    <glyph glyph-name="uni1E37" unicode="&#x1e37;" horiz-adv-x="262" 
d="M148 714h132l-127 -714h-132zM-16 -150l11 62l48 41h70l34 -41l-11 -64l-46 -39h-72z" />
    <glyph glyph-name="uni1E38" unicode="&#x1e38;" horiz-adv-x="561" 
d="M145 700h136l-103 -585h349l-20 -115h-485zM71 862h340l-19 -106h-340zM163 -150l11 62l48 41h70l34 -41l-11 -64l-46 -39h-72z" />
    <glyph glyph-name="uni1E39" unicode="&#x1e39;" horiz-adv-x="262" 
d="M148 714h132l-127 -714h-132zM73 886h340l-19 -106h-340zM-16 -150l11 62l48 41h70l34 -41l-11 -64l-46 -39h-72z" />
    <glyph glyph-name="uni1E3A" unicode="&#x1e3a;" horiz-adv-x="561" 
d="M145 700h136l-103 -585h349l-20 -115h-485zM85 -59h340l-19 -106h-340z" />
    <glyph glyph-name="uni1E3B" unicode="&#x1e3b;" horiz-adv-x="262" 
d="M148 714h132l-127 -714h-132zM-94 -59h340l-19 -106h-340z" />
    <glyph glyph-name="uni1E42" unicode="&#x1e42;" horiz-adv-x="801" 
d="M145 700h118l129 -452h2l287 452h134l-123 -700h-131l75 426h-2l-218 -328h-84l-102 328h-2l-75 -426h-131zM257 -150l11 62l48 41h70l34 -41l-11 -64l-46 -39h-72z" />
    <glyph glyph-name="uni1E43" unicode="&#x1e43;" horiz-adv-x="861" 
d="M104 498h122l-15 -82l96 82h122l56 -69l80 69h169l95 -116l-68 -382h-132l62 351l-28 35h-83l-62 -53l-59 -333h-128l62 353l-26 33h-56l-112 -96l-51 -290h-132zM292 -150l11 62l48 41h70l34 -41l-11 -64l-46 -39h-72z" />
    <glyph glyph-name="uni1E44" unicode="&#x1e44;" horiz-adv-x="697" 
d="M145 700h122l229 -475h2l83 475h131l-124 -700h-122l-227 474h-2l-84 -474h-131zM358 790l11 62l48 41h70l34 -41l-11 -64l-46 -39h-72z" />
    <glyph glyph-name="uni1E45" unicode="&#x1e45;" horiz-adv-x="592" 
d="M104 498h122l-15 -83l98 83h153l98 -119l-67 -379h-132l62 351l-28 35h-80l-117 -100l-50 -286h-132zM285 588l11 62l48 41h70l34 -41l-11 -64l-46 -39h-72z" />
    <glyph glyph-name="uni1E46" unicode="&#x1e46;" horiz-adv-x="697" 
d="M145 700h122l229 -475h2l83 475h131l-124 -700h-122l-227 474h-2l-84 -474h-131zM213 -150l11 62l48 41h70l34 -41l-11 -64l-46 -39h-72z" />
    <glyph glyph-name="uni1E47" unicode="&#x1e47;" horiz-adv-x="592" 
d="M104 498h122l-15 -83l98 83h153l98 -119l-67 -379h-132l62 351l-28 35h-80l-117 -100l-50 -286h-132zM152 -150l11 62l48 41h70l34 -41l-11 -64l-46 -39h-72z" />
    <glyph glyph-name="uni1E48" unicode="&#x1e48;" horiz-adv-x="697" 
d="M145 700h122l229 -475h2l83 475h131l-124 -700h-122l-227 474h-2l-84 -474h-131zM135 -59h340l-19 -106h-340z" />
    <glyph glyph-name="uni1E49" unicode="&#x1e49;" horiz-adv-x="592" 
d="M104 498h122l-15 -83l98 83h153l98 -119l-67 -379h-132l62 351l-28 35h-80l-117 -100l-50 -286h-132zM74 -59h340l-19 -106h-340z" />
    <glyph glyph-name="uni1E5A" unicode="&#x1e5a;" horiz-adv-x="675" 
d="M633 372l-76 -65l55 -75l-41 -232h-136l36 207l-44 61h-222l-47 -268h-136l123 700h430l95 -116zM225 380h240l41 35l24 136l-29 35h-240zM208 -150l11 62l48 41h70l34 -41l-11 -64l-46 -39h-72z" />
    <glyph glyph-name="uni1E5B" unicode="&#x1e5b;" horiz-adv-x="409" 
d="M104 498h122l-15 -83l95 83h142l-20 -112h-111l-120 -104l-49 -282h-132zM-21 -150l11 62l48 41h70l34 -41l-11 -64l-46 -39h-72z" />
    <glyph glyph-name="uni1E5C" unicode="&#x1e5c;" horiz-adv-x="675" 
d="M633 372l-76 -65l55 -75l-41 -232h-136l36 207l-44 61h-222l-47 -268h-136l123 700h430l95 -116zM225 380h240l41 35l24 136l-29 35h-240zM262 862h340l-19 -106h-340zM208 -150l11 62l48 41h70l34 -41l-11 -64l-46 -39h-72z" />
    <glyph glyph-name="uni1E5D" unicode="&#x1e5d;" horiz-adv-x="409" 
d="M104 498h122l-15 -83l95 83h142l-20 -112h-111l-120 -104l-49 -282h-132zM130 660h340l-19 -106h-340zM-21 -150l11 62l48 41h70l34 -41l-11 -64l-46 -39h-72z" />
    <glyph glyph-name="uni1E5E" unicode="&#x1e5e;" horiz-adv-x="675" 
d="M633 372l-76 -65l55 -75l-41 -232h-136l36 207l-44 61h-222l-47 -268h-136l123 700h430l95 -116zM225 380h240l41 35l24 136l-29 35h-240zM130 -59h340l-19 -106h-340z" />
    <glyph glyph-name="uni1E5F" unicode="&#x1e5f;" horiz-adv-x="409" 
d="M104 498h122l-15 -83l95 83h142l-20 -112h-111l-120 -104l-49 -282h-132zM-99 -59h340l-19 -106h-340z" />
    <glyph glyph-name="uni1E60" unicode="&#x1e60;" horiz-adv-x="637" 
d="M27 116l17 92h134l-11 -59l27 -33h206l40 34l21 116l-27 33h-257l-96 116l32 185l118 100h315l97 -116l-16 -93h-134l10 60l-27 33h-198l-39 -33l-18 -103l27 -33h257l96 -116l-36 -199l-117 -100h-325zM328 790l11 62l48 41h70l34 -41l-11 -64l-46 -39h-72z" />
    <glyph glyph-name="uni1E61" unicode="&#x1e61;" horiz-adv-x="536" 
d="M10 106l9 53h130l-5 -28l18 -23h162l26 23l7 43l-18 24h-207l-85 103l20 109l103 88h260l86 -106l-10 -53h-130l5 28l-18 23h-148l-26 -23l-6 -39l18 -24h207l85 -103l-20 -113l-103 -88h-274zM239 588l11 62l48 41h70l34 -41l-11 -64l-46 -39h-72z" />
    <glyph glyph-name="uni1E62" unicode="&#x1e62;" horiz-adv-x="637" 
d="M27 116l17 92h134l-11 -59l27 -33h206l40 34l21 116l-27 33h-257l-96 116l32 185l118 100h315l97 -116l-16 -93h-134l10 60l-27 33h-198l-39 -33l-18 -103l27 -33h257l96 -116l-36 -199l-117 -100h-325zM181 -150l11 62l48 41h70l34 -41l-11 -64l-46 -39h-72z" />
    <glyph glyph-name="uni1E63" unicode="&#x1e63;" horiz-adv-x="536" 
d="M10 106l9 53h130l-5 -28l18 -23h162l26 23l7 43l-18 24h-207l-85 103l20 109l103 88h260l86 -106l-10 -53h-130l5 28l-18 23h-148l-26 -23l-6 -39l18 -24h207l85 -103l-20 -113l-103 -88h-274zM137 -150l11 62l48 41h70l34 -41l-11 -64l-46 -39h-72z" />
    <glyph glyph-name="uni1E6C" unicode="&#x1e6c;" horiz-adv-x="584" 
d="M284 585h-209l20 115h554l-21 -115h-208l-103 -585h-136zM146 -150l11 62l48 41h70l34 -41l-11 -64l-46 -39h-72z" />
    <glyph glyph-name="uni1E6D" unicode="&#x1e6d;" horiz-adv-x="414" 
d="M80 110l49 277h-90l20 111h92l28 162h130l-28 -162h152l-20 -112h-152l-43 -241l29 -33h118l-20 -112h-173zM86 -150l11 62l48 41h70l34 -41l-11 -64l-46 -39h-72z" />
    <glyph glyph-name="uni1E6E" unicode="&#x1e6e;" horiz-adv-x="584" 
d="M284 585h-209l20 115h554l-21 -115h-208l-103 -585h-136zM68 -59h340l-19 -106h-340z" />
    <glyph glyph-name="uni1E6F" unicode="&#x1e6f;" horiz-adv-x="414" 
d="M80 110l49 277h-90l20 111h92l28 162h130l-28 -162h152l-20 -112h-152l-43 -241l29 -33h118l-20 -112h-173zM8 -59h340l-19 -106h-340z" />
    <glyph glyph-name="Wgrave" unicode="&#x1e80;" horiz-adv-x="879" 
d="M105 700h134l-2 -494h4l226 494h102l49 -494h4l172 494h140l-268 -700h-127l-53 492h-4l-228 -492h-127zM396 915h139l46 -169h-116z" />
    <glyph glyph-name="wgrave" unicode="&#x1e81;" horiz-adv-x="729" 
d="M64 498h131l2 -314h4l145 314h120l28 -314h4l118 314h137l-217 -498h-123l-33 336h-4l-157 -336h-123zM283 713h139l46 -169h-116z" />
    <glyph glyph-name="Wacute" unicode="&#x1e82;" horiz-adv-x="879" 
d="M105 700h134l-2 -494h4l226 494h102l49 -494h4l172 494h140l-268 -700h-127l-53 492h-4l-228 -492h-127zM574 915h139l-129 -169h-116z" />
    <glyph glyph-name="wacute" unicode="&#x1e83;" horiz-adv-x="729" 
d="M64 498h131l2 -314h4l145 314h120l28 -314h4l118 314h137l-217 -498h-123l-33 336h-4l-157 -336h-123zM461 713h139l-129 -169h-116z" />
    <glyph glyph-name="Wdieresis" unicode="&#x1e84;" horiz-adv-x="879" 
d="M105 700h134l-2 -494h4l226 494h102l49 -494h4l172 494h140l-268 -700h-127l-53 492h-4l-228 -492h-127zM353 792l10 58l46 39h67l31 -40l-10 -58l-43 -38h-69zM573 793l10 56l45 40h67l32 -39l-10 -60l-44 -37h-69z" />
    <glyph glyph-name="wdieresis" unicode="&#x1e85;" horiz-adv-x="729" 
d="M64 498h131l2 -314h4l145 314h120l28 -314h4l118 314h137l-217 -498h-123l-33 336h-4l-157 -336h-123zM240 590l10 58l46 39h67l31 -40l-10 -58l-43 -38h-69zM460 591l10 56l45 40h67l32 -39l-10 -60l-44 -37h-69z" />
    <glyph glyph-name="uni1E8E" unicode="&#x1e8e;" horiz-adv-x="634" 
d="M256 286l-176 414h141l116 -287h2l218 287h157l-322 -414l-50 -286h-136zM327 790l11 62l48 41h70l34 -41l-11 -64l-46 -39h-72z" />
    <glyph glyph-name="uni1E8F" unicode="&#x1e8f;" horiz-adv-x="593" 
d="M577 498l-110 -622l-116 -97h-263l-84 100l11 60h132l-5 -30l15 -20h146l40 35l27 150l-87 -74h-173l-81 100l70 398h132l-62 -351l28 -35h87l110 99l51 287h132zM278 588l11 62l48 41h70l34 -41l-11 -64l-46 -39h-72z" />
    <glyph glyph-name="uni1E92" unicode="&#x1e92;" horiz-adv-x="592" 
d="M10 108l443 476v2h-349l20 114h512l-19 -108l-443 -476v-2h359l-20 -114h-522zM156 -150l11 62l48 41h70l34 -41l-11 -64l-46 -39h-72z" />
    <glyph glyph-name="uni1E93" unicode="&#x1e93;" horiz-adv-x="498" 
d="M-1 102l328 287v2h-267l19 107h438l-18 -102l-328 -287v-2h277l-19 -107h-448zM109 -150l11 62l48 41h70l34 -41l-11 -64l-46 -39h-72z" />
    <glyph glyph-name="uni1E97" unicode="&#x1e97;" horiz-adv-x="414" 
d="M80 110l49 277h-90l20 111h92l28 162h130l-28 -162h152l-20 -112h-152l-43 -241l29 -33h118l-20 -112h-173zM75 752l10 58l46 39h67l31 -40l-10 -58l-43 -38h-69zM295 753l10 56l45 40h67l32 -39l-10 -60l-44 -37h-69z" />
    <glyph glyph-name="uni1E9E" unicode="&#x1e9e;" horiz-adv-x="691" 
d="M578 408l88 -106l-39 -214l-103 -88h-206l-86 104l14 80h132l-7 -45l18 -23h86l28 23l24 137l-20 24h-164l18 102l159 180h-232l-33 -28l-98 -554h-136l107 607l109 93h441l-20 -118l-157 -174h77z" />
    <glyph glyph-name="uni1EA0" unicode="&#x1ea0;" horiz-adv-x="646" 
d="M340 700h124l133 -700h-138l-28 155h-246l-86 -155h-138zM418 267l-45 266h-2l-138 -266h185zM180 -150l11 62l48 41h70l34 -41l-11 -64l-46 -39h-72z" />
    <glyph glyph-name="uni1EA1" unicode="&#x1ea1;" horiz-adv-x="575" 
d="M19 100l19 112l101 86h259l10 63l-25 31h-149l-36 -31l-5 -28h-130l13 65l116 100h256l95 -116l-67 -382h-119l12 71l-86 -71h-182zM292 102l84 69l6 33h-188l-32 -27l-9 -50l21 -25h118zM147 -150l11 62l48 41h70l34 -41l-11 -64l-46 -39h-72z" />
    <glyph glyph-name="uni1EA2" unicode="&#x1ea2;" horiz-adv-x="646" 
d="M340 700h124l133 -700h-138l-28 155h-246l-86 -155h-138zM418 267l-45 266h-2l-138 -266h185zM359 804l101 67l5 28l-10 12h-38l-14 -12l-7 -39h-103l12 68l79 67h134l55 -67l-15 -86l-85 -56l-7 -40h-117z" />
    <glyph glyph-name="uni1EA3" unicode="&#x1ea3;" horiz-adv-x="575" 
d="M19 100l19 112l101 86h259l10 63l-25 31h-149l-36 -31l-5 -28h-130l13 65l116 100h256l95 -116l-67 -382h-119l12 71l-86 -71h-182zM292 102l84 69l6 33h-188l-32 -27l-9 -50l21 -25h118zM294 602l101 67l5 28l-10 12h-38l-14 -12l-7 -39h-103l12 68l79 67h134l55 -67
l-15 -86l-85 -56l-7 -40h-117z" />
    <glyph glyph-name="uni1EA4" unicode="&#x1ea4;" horiz-adv-x="646" 
d="M340 700h124l133 -700h-138l-28 155h-246l-86 -155h-138zM418 267l-45 266h-2l-138 -266h185zM627 1024h125l-111 -139h-102zM382 907h106l114 -161h-124l-52 75h-6l-78 -75h-130z" />
    <glyph glyph-name="uni1EA5" unicode="&#x1ea5;" horiz-adv-x="575" 
d="M19 100l19 112l101 86h259l10 63l-25 31h-149l-36 -31l-5 -28h-130l13 65l116 100h256l95 -116l-67 -382h-119l12 71l-86 -71h-182zM292 102l84 69l6 33h-188l-32 -27l-9 -50l21 -25h118zM562 822h125l-111 -139h-102zM317 705h106l114 -161h-124l-52 75h-6l-78 -75h-130
z" />
    <glyph glyph-name="uni1EA6" unicode="&#x1ea6;" horiz-adv-x="646" 
d="M340 700h124l133 -700h-138l-28 155h-246l-86 -155h-138zM418 267l-45 266h-2l-138 -266h185zM503 1024h125l38 -139h-102zM381 907h106l114 -161h-124l-52 75h-6l-78 -75h-130z" />
    <glyph glyph-name="uni1EA7" unicode="&#x1ea7;" horiz-adv-x="575" 
d="M19 100l19 112l101 86h259l10 63l-25 31h-149l-36 -31l-5 -28h-130l13 65l116 100h256l95 -116l-67 -382h-119l12 71l-86 -71h-182zM292 102l84 69l6 33h-188l-32 -27l-9 -50l21 -25h118zM438 822h125l38 -139h-102zM316 705h106l114 -161h-124l-52 75h-6l-78 -75h-130z
" />
    <glyph glyph-name="uni1EA8" unicode="&#x1ea8;" horiz-adv-x="646" 
d="M340 700h124l133 -700h-138l-28 155h-246l-86 -155h-138zM418 267l-45 266h-2l-138 -266h185zM569 894l83 57l4 23l-8 10h-28l-12 -10l-5 -30h-88l10 54l65 56h112l47 -56l-13 -71l-70 -46l-4 -24h-99zM381 907h106l114 -161h-124l-52 75h-6l-78 -75h-130z" />
    <glyph glyph-name="uni1EA9" unicode="&#x1ea9;" horiz-adv-x="575" 
d="M19 100l19 112l101 86h259l10 63l-25 31h-149l-36 -31l-5 -28h-130l13 65l116 100h256l95 -116l-67 -382h-119l12 71l-86 -71h-182zM292 102l84 69l6 33h-188l-32 -27l-9 -50l21 -25h118zM504 692l83 57l4 23l-8 10h-28l-12 -10l-5 -30h-88l10 54l65 56h112l47 -56
l-13 -71l-70 -46l-4 -24h-99zM316 705h106l114 -161h-124l-52 75h-6l-78 -75h-130z" />
    <glyph glyph-name="uni1EAA" unicode="&#x1eaa;" horiz-adv-x="646" 
d="M340 700h124l133 -700h-138l-28 155h-246l-86 -155h-138zM418 267l-45 266h-2l-138 -266h185zM405 993h-25l-15 -12l-6 -32h-88l10 59l79 67h75l55 -50h26l15 12l5 32h88l-10 -59l-79 -67h-75zM381 907h106l114 -161h-124l-52 75h-6l-78 -75h-130z" />
    <glyph glyph-name="uni1EAB" unicode="&#x1eab;" horiz-adv-x="575" 
d="M19 100l19 112l101 86h259l10 63l-25 31h-149l-36 -31l-5 -28h-130l13 65l116 100h256l95 -116l-67 -382h-119l12 71l-86 -71h-182zM292 102l84 69l6 33h-188l-32 -27l-9 -50l21 -25h118zM340 791h-25l-15 -12l-6 -32h-88l10 59l79 67h75l55 -50h26l15 12l5 32h88
l-10 -59l-79 -67h-75zM316 705h106l114 -161h-124l-52 75h-6l-78 -75h-130z" />
    <glyph glyph-name="uni1EAC" unicode="&#x1eac;" horiz-adv-x="646" 
d="M340 700h124l133 -700h-138l-28 155h-246l-86 -155h-138zM418 267l-45 266h-2l-138 -266h185zM382 907h106l114 -161h-124l-52 75h-6l-78 -75h-130zM180 -150l11 62l48 41h70l34 -41l-11 -64l-46 -39h-72z" />
    <glyph glyph-name="uni1EAD" unicode="&#x1ead;" horiz-adv-x="575" 
d="M19 100l19 112l101 86h259l10 63l-25 31h-149l-36 -31l-5 -28h-130l13 65l116 100h256l95 -116l-67 -382h-119l12 71l-86 -71h-182zM292 102l84 69l6 33h-188l-32 -27l-9 -50l21 -25h118zM317 705h106l114 -161h-124l-52 75h-6l-78 -75h-130zM147 -150l11 62l48 41h70
l34 -41l-11 -64l-46 -39h-72z" />
    <glyph glyph-name="uni1EAE" unicode="&#x1eae;" horiz-adv-x="646" 
d="M340 700h124l133 -700h-138l-28 155h-246l-86 -155h-138zM418 267l-45 266h-2l-138 -266h185zM474 1080h125l-111 -139h-102zM253 829l13 76h110l-8 -48l22 -27h58l32 27l8 48h114l-13 -76l-98 -83h-170z" />
    <glyph glyph-name="uni1EAF" unicode="&#x1eaf;" horiz-adv-x="575" 
d="M19 100l19 112l101 86h259l10 63l-25 31h-149l-36 -31l-5 -28h-130l13 65l116 100h256l95 -116l-67 -382h-119l12 71l-86 -71h-182zM292 102l84 69l6 33h-188l-32 -27l-9 -50l21 -25h118zM409 878h125l-111 -139h-102zM188 627l13 76h110l-8 -48l22 -27h58l32 27l8 48
h114l-13 -76l-98 -83h-170z" />
    <glyph glyph-name="uni1EB0" unicode="&#x1eb0;" horiz-adv-x="646" 
d="M340 700h124l133 -700h-138l-28 155h-246l-86 -155h-138zM418 267l-45 266h-2l-138 -266h185zM323 1080h125l38 -139h-102zM253 829l13 76h110l-8 -48l22 -27h58l32 27l8 48h114l-13 -76l-98 -83h-170z" />
    <glyph glyph-name="uni1EB1" unicode="&#x1eb1;" horiz-adv-x="575" 
d="M19 100l19 112l101 86h259l10 63l-25 31h-149l-36 -31l-5 -28h-130l13 65l116 100h256l95 -116l-67 -382h-119l12 71l-86 -71h-182zM292 102l84 69l6 33h-188l-32 -27l-9 -50l21 -25h118zM258 878h125l38 -139h-102zM188 627l13 76h110l-8 -48l22 -27h58l32 27l8 48h114
l-13 -76l-98 -83h-170z" />
    <glyph glyph-name="uni1EB2" unicode="&#x1eb2;" horiz-adv-x="646" 
d="M340 700h124l133 -700h-138l-28 155h-246l-86 -155h-138zM418 267l-45 266h-2l-138 -266h185zM395 976l82 55l4 21l-8 10h-28l-12 -10l-5 -28h-88l9 50l66 56h112l46 -56l-12 -67l-70 -44l-4 -22h-99zM253 829l13 76h110l-8 -48l22 -27h58l32 27l8 48h114l-13 -76
l-98 -83h-170z" />
    <glyph glyph-name="uni1EB3" unicode="&#x1eb3;" horiz-adv-x="575" 
d="M19 100l19 112l101 86h259l10 63l-25 31h-149l-36 -31l-5 -28h-130l13 65l116 100h256l95 -116l-67 -382h-119l12 71l-86 -71h-182zM292 102l84 69l6 33h-188l-32 -27l-9 -50l21 -25h118zM330 774l82 55l4 21l-8 10h-28l-12 -10l-5 -28h-88l9 50l66 56h112l46 -56
l-12 -67l-70 -44l-4 -22h-99zM188 627l13 76h110l-8 -48l22 -27h58l32 27l8 48h114l-13 -76l-98 -83h-170z" />
    <glyph glyph-name="uni1EB4" unicode="&#x1eb4;" horiz-adv-x="646" 
d="M340 700h124l133 -700h-138l-28 155h-246l-86 -155h-138zM418 267l-45 266h-2l-138 -266h185zM401 991h-25l-15 -12l-6 -32h-88l10 59l79 67h75l55 -50h26l15 12l5 32h88l-10 -59l-79 -67h-75zM254 829l13 76h110l-8 -48l22 -27h58l32 27l8 48h114l-13 -76l-98 -83h-170z
" />
    <glyph glyph-name="uni1EB5" unicode="&#x1eb5;" horiz-adv-x="575" 
d="M19 100l19 112l101 86h259l10 63l-25 31h-149l-36 -31l-5 -28h-130l13 65l116 100h256l95 -116l-67 -382h-119l12 71l-86 -71h-182zM292 102l84 69l6 33h-188l-32 -27l-9 -50l21 -25h118zM336 789h-25l-15 -12l-6 -32h-88l10 59l79 67h75l55 -50h26l15 12l5 32h88
l-10 -59l-79 -67h-75zM189 627l13 76h110l-8 -48l22 -27h58l32 27l8 48h114l-13 -76l-98 -83h-170z" />
    <glyph glyph-name="uni1EB6" unicode="&#x1eb6;" horiz-adv-x="646" 
d="M340 700h124l133 -700h-138l-28 155h-246l-86 -155h-138zM418 267l-45 266h-2l-138 -266h185zM254 829l13 76h110l-8 -48l22 -27h58l32 27l8 48h114l-13 -76l-98 -83h-170zM180 -150l11 62l48 41h70l34 -41l-11 -64l-46 -39h-72z" />
    <glyph glyph-name="uni1EB7" unicode="&#x1eb7;" horiz-adv-x="575" 
d="M19 100l19 112l101 86h259l10 63l-25 31h-149l-36 -31l-5 -28h-130l13 65l116 100h256l95 -116l-67 -382h-119l12 71l-86 -71h-182zM292 102l84 69l6 33h-188l-32 -27l-9 -50l21 -25h118zM189 627l13 76h110l-8 -48l22 -27h58l32 27l8 48h114l-13 -76l-98 -83h-170z
M147 -150l11 62l48 41h70l34 -41l-11 -64l-46 -39h-72z" />
    <glyph glyph-name="uni1EB8" unicode="&#x1eb8;" horiz-adv-x="606" 
d="M145 700h505l-20 -115h-369l-31 -177h340l-20 -113h-340l-32 -180h369l-20 -115h-505zM182 -150l11 62l48 41h70l34 -41l-11 -64l-46 -39h-72z" />
    <glyph glyph-name="uni1EB9" unicode="&#x1eb9;" horiz-adv-x="583" 
d="M26 110l51 292l113 96h280l92 -112l-32 -181h-355l-11 -64l26 -33h162l36 31l4 26h130l-13 -75l-105 -90h-288zM414 297l11 58l-28 35h-155l-40 -35l-11 -58h223zM157 -150l11 62l48 41h70l34 -41l-11 -64l-46 -39h-72z" />
    <glyph glyph-name="uni1EBA" unicode="&#x1eba;" horiz-adv-x="606" 
d="M145 700h505l-20 -115h-369l-31 -177h340l-20 -113h-340l-32 -180h369l-20 -115h-505zM364 804l101 67l5 28l-10 12h-38l-14 -12l-7 -39h-103l12 68l79 67h134l55 -67l-15 -86l-85 -56l-7 -40h-117z" />
    <glyph glyph-name="uni1EBB" unicode="&#x1ebb;" horiz-adv-x="583" 
d="M26 110l51 292l113 96h280l92 -112l-32 -181h-355l-11 -64l26 -33h162l36 31l4 26h130l-13 -75l-105 -90h-288zM414 297l11 58l-28 35h-155l-40 -35l-11 -58h223zM292 602l101 67l5 28l-10 12h-38l-14 -12l-7 -39h-103l12 68l79 67h134l55 -67l-15 -86l-85 -56l-7 -40
h-117z" />
    <glyph glyph-name="uni1EBC" unicode="&#x1ebc;" horiz-adv-x="606" 
d="M145 700h505l-20 -115h-369l-31 -177h340l-20 -113h-340l-32 -180h369l-20 -115h-505zM379 808h-22l-15 -12l-6 -33l-96 -1l13 71l81 69h84l55 -52h23l14 12l6 34h96l-13 -71l-81 -69h-84z" />
    <glyph glyph-name="uni1EBD" unicode="&#x1ebd;" horiz-adv-x="583" 
d="M26 110l51 292l113 96h280l92 -112l-32 -181h-355l-11 -64l26 -33h162l36 31l4 26h130l-13 -75l-105 -90h-288zM414 297l11 58l-28 35h-155l-40 -35l-11 -58h223zM307 606h-22l-15 -12l-6 -33l-96 -1l13 71l81 69h84l55 -52h23l14 12l6 34h96l-13 -71l-81 -69h-84z" />
    <glyph glyph-name="uni1EBE" unicode="&#x1ebe;" horiz-adv-x="606" 
d="M145 700h505l-20 -115h-369l-31 -177h340l-20 -113h-340l-32 -180h369l-20 -115h-505zM632 1024h125l-111 -139h-102zM387 907h106l114 -161h-124l-52 75h-6l-78 -75h-130z" />
    <glyph glyph-name="uni1EBF" unicode="&#x1ebf;" horiz-adv-x="583" 
d="M26 110l51 292l113 96h280l92 -112l-32 -181h-355l-11 -64l26 -33h162l36 31l4 26h130l-13 -75l-105 -90h-288zM414 297l11 58l-28 35h-155l-40 -35l-11 -58h223zM560 822h125l-111 -139h-102zM315 705h106l114 -161h-124l-52 75h-6l-78 -75h-130z" />
    <glyph glyph-name="uni1EC0" unicode="&#x1ec0;" horiz-adv-x="606" 
d="M145 700h505l-20 -115h-369l-31 -177h340l-20 -113h-340l-32 -180h369l-20 -115h-505zM508 1024h125l38 -139h-102zM386 907h106l114 -161h-124l-52 75h-6l-78 -75h-130z" />
    <glyph glyph-name="uni1EC1" unicode="&#x1ec1;" horiz-adv-x="583" 
d="M26 110l51 292l113 96h280l92 -112l-32 -181h-355l-11 -64l26 -33h162l36 31l4 26h130l-13 -75l-105 -90h-288zM414 297l11 58l-28 35h-155l-40 -35l-11 -58h223zM436 822h125l38 -139h-102zM314 705h106l114 -161h-124l-52 75h-6l-78 -75h-130z" />
    <glyph glyph-name="uni1EC2" unicode="&#x1ec2;" horiz-adv-x="606" 
d="M145 700h505l-20 -115h-369l-31 -177h340l-20 -113h-340l-32 -180h369l-20 -115h-505zM574 894l83 57l4 23l-8 10h-28l-12 -10l-5 -30h-88l10 54l65 56h112l47 -56l-13 -71l-70 -46l-4 -24h-99zM386 907h106l114 -161h-124l-52 75h-6l-78 -75h-130z" />
    <glyph glyph-name="uni1EC3" unicode="&#x1ec3;" horiz-adv-x="583" 
d="M26 110l51 292l113 96h280l92 -112l-32 -181h-355l-11 -64l26 -33h162l36 31l4 26h130l-13 -75l-105 -90h-288zM414 297l11 58l-28 35h-155l-40 -35l-11 -58h223zM502 692l83 57l4 23l-8 10h-28l-12 -10l-5 -30h-88l10 54l65 56h112l47 -56l-13 -71l-70 -46l-4 -24h-99z
M314 705h106l114 -161h-124l-52 75h-6l-78 -75h-130z" />
    <glyph glyph-name="uni1EC4" unicode="&#x1ec4;" horiz-adv-x="606" 
d="M145 700h505l-20 -115h-369l-31 -177h340l-20 -113h-340l-32 -180h369l-20 -115h-505zM410 993h-25l-15 -12l-6 -32h-88l10 59l79 67h75l55 -50h26l15 12l5 32h88l-10 -59l-79 -67h-75zM386 907h106l114 -161h-124l-52 75h-6l-78 -75h-130z" />
    <glyph glyph-name="uni1EC5" unicode="&#x1ec5;" horiz-adv-x="583" 
d="M26 110l51 292l113 96h280l92 -112l-32 -181h-355l-11 -64l26 -33h162l36 31l4 26h130l-13 -75l-105 -90h-288zM414 297l11 58l-28 35h-155l-40 -35l-11 -58h223zM338 791h-25l-15 -12l-6 -32h-88l10 59l79 67h75l55 -50h26l15 12l5 32h88l-10 -59l-79 -67h-75zM314 705
h106l114 -161h-124l-52 75h-6l-78 -75h-130z" />
    <glyph glyph-name="uni1EC6" unicode="&#x1ec6;" horiz-adv-x="606" 
d="M145 700h505l-20 -115h-369l-31 -177h340l-20 -113h-340l-32 -180h369l-20 -115h-505zM387 907h106l114 -161h-124l-52 75h-6l-78 -75h-130zM182 -150l11 62l48 41h70l34 -41l-11 -64l-46 -39h-72z" />
    <glyph glyph-name="uni1EC7" unicode="&#x1ec7;" horiz-adv-x="583" 
d="M26 110l51 292l113 96h280l92 -112l-32 -181h-355l-11 -64l26 -33h162l36 31l4 26h130l-13 -75l-105 -90h-288zM414 297l11 58l-28 35h-155l-40 -35l-11 -58h223zM315 705h106l114 -161h-124l-52 75h-6l-78 -75h-130zM157 -150l11 62l48 41h70l34 -41l-11 -64l-46 -39
h-72z" />
    <glyph glyph-name="uni1EC8" unicode="&#x1ec8;" horiz-adv-x="276" 
d="M150 700h136l-124 -700h-136zM178 804l101 67l5 28l-10 12h-38l-14 -12l-7 -39h-103l12 68l79 67h134l55 -67l-15 -86l-85 -56l-7 -40h-117z" />
    <glyph glyph-name="uni1EC9" unicode="&#x1ec9;" horiz-adv-x="272" 
d="M114 498h132l-88 -498h-132zM140 602l101 67l5 28l-10 12h-38l-14 -12l-7 -39h-103l12 68l79 67h134l55 -67l-15 -86l-85 -56l-7 -40h-117z" />
    <glyph glyph-name="uni1ECA" unicode="&#x1eca;" horiz-adv-x="276" 
d="M150 700h136l-124 -700h-136zM-9 -150l11 62l48 41h70l34 -41l-11 -64l-46 -39h-72z" />
    <glyph glyph-name="uni1ECB" unicode="&#x1ecb;" horiz-adv-x="272" 
d="M118 602l11 64l55 46h69l37 -46l-11 -66l-52 -44h-71zM115 498h132l-88 -498h-132zM-11 -150l11 62l48 41h70l34 -41l-11 -64l-46 -39h-72z" />
    <glyph glyph-name="uni1ECC" unicode="&#x1ecc;" horiz-adv-x="700" 
d="M33 124l83 469l125 107h360l102 -123l-84 -474l-122 -103h-362zM434 116l60 51l65 366l-42 51h-215l-60 -51l-66 -366l42 -51h216zM217 -150l11 62l48 41h70l34 -41l-11 -64l-46 -39h-72z" />
    <glyph glyph-name="uni1ECD" unicode="&#x1ecd;" horiz-adv-x="592" 
d="M26 112l51 290l112 96h285l92 -112l-51 -292l-109 -94h-288zM351 110l41 35l36 208l-29 35h-157l-41 -35l-37 -208l29 -35h158zM159 -150l11 62l48 41h70l34 -41l-11 -64l-46 -39h-72z" />
    <glyph glyph-name="uni1ECE" unicode="&#x1ece;" horiz-adv-x="700" 
d="M33 124l83 469l125 107h360l102 -123l-84 -474l-122 -103h-362zM434 116l60 51l65 366l-42 51h-215l-60 -51l-66 -366l42 -51h216zM386 804l101 67l5 28l-10 12h-38l-14 -12l-7 -39h-103l12 68l79 67h134l55 -67l-15 -86l-85 -56l-7 -40h-117z" />
    <glyph glyph-name="uni1ECF" unicode="&#x1ecf;" horiz-adv-x="592" 
d="M26 112l51 290l112 96h285l92 -112l-51 -292l-109 -94h-288zM351 110l41 35l36 208l-29 35h-157l-41 -35l-37 -208l29 -35h158zM293 602l101 67l5 28l-10 12h-38l-14 -12l-7 -39h-103l12 68l79 67h134l55 -67l-15 -86l-85 -56l-7 -40h-117z" />
    <glyph glyph-name="uni1ED0" unicode="&#x1ed0;" horiz-adv-x="700" 
d="M33 124l83 469l125 107h360l102 -123l-84 -474l-122 -103h-362zM434 116l60 51l65 366l-42 51h-215l-60 -51l-66 -366l42 -51h216zM654 1024h125l-111 -139h-102zM409 907h106l114 -161h-124l-52 75h-6l-78 -75h-130z" />
    <glyph glyph-name="uni1ED1" unicode="&#x1ed1;" horiz-adv-x="592" 
d="M26 112l51 290l112 96h285l92 -112l-51 -292l-109 -94h-288zM351 110l41 35l36 208l-29 35h-157l-41 -35l-37 -208l29 -35h158zM561 822h125l-111 -139h-102zM316 705h106l114 -161h-124l-52 75h-6l-78 -75h-130z" />
    <glyph glyph-name="uni1ED2" unicode="&#x1ed2;" horiz-adv-x="700" 
d="M33 124l83 469l125 107h360l102 -123l-84 -474l-122 -103h-362zM434 116l60 51l65 366l-42 51h-215l-60 -51l-66 -366l42 -51h216zM530 1024h125l38 -139h-102zM408 907h106l114 -161h-124l-52 75h-6l-78 -75h-130z" />
    <glyph glyph-name="uni1ED3" unicode="&#x1ed3;" horiz-adv-x="592" 
d="M26 112l51 290l112 96h285l92 -112l-51 -292l-109 -94h-288zM351 110l41 35l36 208l-29 35h-157l-41 -35l-37 -208l29 -35h158zM437 822h125l38 -139h-102zM315 705h106l114 -161h-124l-52 75h-6l-78 -75h-130z" />
    <glyph glyph-name="uni1ED4" unicode="&#x1ed4;" horiz-adv-x="700" 
d="M33 124l83 469l125 107h360l102 -123l-84 -474l-122 -103h-362zM434 116l60 51l65 366l-42 51h-215l-60 -51l-66 -366l42 -51h216zM596 894l83 57l4 23l-8 10h-28l-12 -10l-5 -30h-88l10 54l65 56h112l47 -56l-13 -71l-70 -46l-4 -24h-99zM408 907h106l114 -161h-124
l-52 75h-6l-78 -75h-130z" />
    <glyph glyph-name="uni1ED5" unicode="&#x1ed5;" horiz-adv-x="592" 
d="M26 112l51 290l112 96h285l92 -112l-51 -292l-109 -94h-288zM351 110l41 35l36 208l-29 35h-157l-41 -35l-37 -208l29 -35h158zM503 692l83 57l4 23l-8 10h-28l-12 -10l-5 -30h-88l10 54l65 56h112l47 -56l-13 -71l-70 -46l-4 -24h-99zM315 705h106l114 -161h-124l-52 75
h-6l-78 -75h-130z" />
    <glyph glyph-name="uni1ED6" unicode="&#x1ed6;" horiz-adv-x="700" 
d="M33 124l83 469l125 107h360l102 -123l-84 -474l-122 -103h-362zM434 116l60 51l65 366l-42 51h-215l-60 -51l-66 -366l42 -51h216zM432 993h-25l-15 -12l-6 -32h-88l10 59l79 67h75l55 -50h26l15 12l5 32h88l-10 -59l-79 -67h-75zM408 907h106l114 -161h-124l-52 75h-6
l-78 -75h-130z" />
    <glyph glyph-name="uni1ED7" unicode="&#x1ed7;" horiz-adv-x="592" 
d="M26 112l51 290l112 96h285l92 -112l-51 -292l-109 -94h-288zM351 110l41 35l36 208l-29 35h-157l-41 -35l-37 -208l29 -35h158zM339 791h-25l-15 -12l-6 -32h-88l10 59l79 67h75l55 -50h26l15 12l5 32h88l-10 -59l-79 -67h-75zM315 705h106l114 -161h-124l-52 75h-6
l-78 -75h-130z" />
    <glyph glyph-name="uni1ED8" unicode="&#x1ed8;" horiz-adv-x="700" 
d="M33 124l83 469l125 107h360l102 -123l-84 -474l-122 -103h-362zM434 116l60 51l65 366l-42 51h-215l-60 -51l-66 -366l42 -51h216zM409 907h106l114 -161h-124l-52 75h-6l-78 -75h-130zM217 -150l11 62l48 41h70l34 -41l-11 -64l-46 -39h-72z" />
    <glyph glyph-name="uni1ED9" unicode="&#x1ed9;" horiz-adv-x="592" 
d="M26 112l51 290l112 96h285l92 -112l-51 -292l-109 -94h-288zM351 110l41 35l36 208l-29 35h-157l-41 -35l-37 -208l29 -35h158zM316 705h106l114 -161h-124l-52 75h-6l-78 -75h-130zM159 -150l11 62l48 41h70l34 -41l-11 -64l-46 -39h-72z" />
    <glyph glyph-name="uni1EDA" unicode="&#x1eda;" horiz-adv-x="777" 
d="M881 710l-20 -115l-108 -92h-63l-71 -400l-122 -103h-362l-102 124l83 469l125 107h360l84 -101h30l41 35l13 76h112zM559 533l-42 51h-215l-60 -51l-66 -366l42 -51h216l60 51zM480 915h139l-129 -169h-116z" />
    <glyph glyph-name="uni1EDB" unicode="&#x1edb;" horiz-adv-x="675" 
d="M763 508l-20 -115l-108 -92h-84l-36 -207l-109 -94h-288l-92 112l51 290l112 96h285l83 -101h40l41 35l13 76h112zM428 353l-29 35h-157l-41 -35l-37 -208l29 -35h158l41 35zM387 713h139l-129 -169h-116z" />
    <glyph glyph-name="uni1EDC" unicode="&#x1edc;" horiz-adv-x="777" 
d="M881 710l-20 -115l-108 -92h-63l-71 -400l-122 -103h-362l-102 124l83 469l125 107h360l84 -101h30l41 35l13 76h112zM559 533l-42 51h-215l-60 -51l-66 -366l42 -51h216l60 51zM302 915h139l46 -169h-116z" />
    <glyph glyph-name="uni1EDD" unicode="&#x1edd;" horiz-adv-x="675" 
d="M763 508l-20 -115l-108 -92h-84l-36 -207l-109 -94h-288l-92 112l51 290l112 96h285l83 -101h40l41 35l13 76h112zM428 353l-29 35h-157l-41 -35l-37 -208l29 -35h158l41 35zM209 713h139l46 -169h-116z" />
    <glyph glyph-name="uni1EDE" unicode="&#x1ede;" horiz-adv-x="777" 
d="M881 710l-20 -115l-108 -92h-63l-71 -400l-122 -103h-362l-102 124l83 469l125 107h360l84 -101h30l41 35l13 76h112zM559 533l-42 51h-215l-60 -51l-66 -366l42 -51h216l60 51zM386 804l101 67l5 28l-10 12h-38l-14 -12l-7 -39h-103l12 68l79 67h134l55 -67l-15 -86
l-85 -56l-7 -40h-117z" />
    <glyph glyph-name="uni1EDF" unicode="&#x1edf;" horiz-adv-x="675" 
d="M763 508l-20 -115l-108 -92h-84l-36 -207l-109 -94h-288l-92 112l51 290l112 96h285l83 -101h40l41 35l13 76h112zM428 353l-29 35h-157l-41 -35l-37 -208l29 -35h158l41 35zM293 602l101 67l5 28l-10 12h-38l-14 -12l-7 -39h-103l12 68l79 67h134l55 -67l-15 -86
l-85 -56l-7 -40h-117z" />
    <glyph glyph-name="uni1EE0" unicode="&#x1ee0;" horiz-adv-x="777" 
d="M881 710l-20 -115l-108 -92h-63l-71 -400l-122 -103h-362l-102 124l83 469l125 107h360l84 -101h30l41 35l13 76h112zM559 533l-42 51h-215l-60 -51l-66 -366l42 -51h216l60 51zM401 808h-22l-15 -12l-6 -33l-96 -1l13 71l81 69h84l55 -52h23l14 12l6 34h96l-13 -71
l-81 -69h-84z" />
    <glyph glyph-name="uni1EE1" unicode="&#x1ee1;" horiz-adv-x="675" 
d="M763 508l-20 -115l-108 -92h-84l-36 -207l-109 -94h-288l-92 112l51 290l112 96h285l83 -101h40l41 35l13 76h112zM428 353l-29 35h-157l-41 -35l-37 -208l29 -35h158l41 35zM308 606h-22l-15 -12l-6 -33l-96 -1l13 71l81 69h84l55 -52h23l14 12l6 34h96l-13 -71l-81 -69
h-84z" />
    <glyph glyph-name="uni1EE2" unicode="&#x1ee2;" horiz-adv-x="777" 
d="M881 710l-20 -115l-108 -92h-63l-71 -400l-122 -103h-362l-102 124l83 469l125 107h360l84 -101h30l41 35l13 76h112zM559 533l-42 51h-215l-60 -51l-66 -366l42 -51h216l60 51zM217 -150l11 62l48 41h70l34 -41l-11 -64l-46 -39h-72z" />
    <glyph glyph-name="uni1EE3" unicode="&#x1ee3;" horiz-adv-x="675" 
d="M763 508l-20 -115l-108 -92h-84l-36 -207l-109 -94h-288l-92 112l51 290l112 96h285l83 -101h40l41 35l13 76h112zM428 353l-29 35h-157l-41 -35l-37 -208l29 -35h158l41 35zM159 -150l11 62l48 41h70l34 -41l-11 -64l-46 -39h-72z" />
    <glyph glyph-name="uni1EE4" unicode="&#x1ee4;" horiz-adv-x="700" 
d="M44 128l101 572h136l-94 -533l42 -51h195l60 51l94 533h136l-104 -590l-129 -110h-331zM214 -150l11 62l48 41h70l34 -41l-11 -64l-46 -39h-72z" />
    <glyph glyph-name="uni1EE5" unicode="&#x1ee5;" horiz-adv-x="591" 
d="M32 113l67 385h132l-62 -352l28 -34h78l118 100l50 286h132l-88 -498h-122l15 85l-101 -85h-155zM156 -150l11 62l48 41h70l34 -41l-11 -64l-46 -39h-72z" />
    <glyph glyph-name="uni1EE6" unicode="&#x1ee6;" horiz-adv-x="700" 
d="M44 128l101 572h136l-94 -533l42 -51h195l60 51l94 533h136l-104 -590l-129 -110h-331zM390 804l101 67l5 28l-10 12h-38l-14 -12l-7 -39h-103l12 68l79 67h134l55 -67l-15 -86l-85 -56l-7 -40h-117z" />
    <glyph glyph-name="uni1EE7" unicode="&#x1ee7;" horiz-adv-x="591" 
d="M32 113l67 385h132l-62 -352l28 -34h78l118 100l50 286h132l-88 -498h-122l15 85l-101 -85h-155zM297 602l101 67l5 28l-10 12h-38l-14 -12l-7 -39h-103l12 68l79 67h134l55 -67l-15 -86l-85 -56l-7 -40h-117z" />
    <glyph glyph-name="uni1EE8" unicode="&#x1ee8;" horiz-adv-x="791" 
d="M891 710l-20 -115l-108 -92h-84l-69 -393l-129 -110h-331l-106 128l101 572h136l-94 -533l42 -51h195l60 51l94 533h136l-18 -101h29l41 35l13 76h112zM484 915h139l-129 -169h-116z" />
    <glyph glyph-name="uni1EE9" unicode="&#x1ee9;" horiz-adv-x="680" 
d="M752 508l-20 -115l-108 -92h-84l-53 -301h-122l15 85l-101 -85h-155l-92 113l67 385h132l-62 -352l28 -34h78l118 100l50 286h132l-18 -101h29l41 35l13 76h112zM391 713h139l-129 -169h-116z" />
    <glyph glyph-name="uni1EEA" unicode="&#x1eea;" horiz-adv-x="791" 
d="M891 710l-20 -115l-108 -92h-84l-69 -393l-129 -110h-331l-106 128l101 572h136l-94 -533l42 -51h195l60 51l94 533h136l-18 -101h29l41 35l13 76h112zM280 915h139l46 -169h-116z" />
    <glyph glyph-name="uni1EEB" unicode="&#x1eeb;" horiz-adv-x="680" 
d="M752 508l-20 -115l-108 -92h-84l-53 -301h-122l15 85l-101 -85h-155l-92 113l67 385h132l-62 -352l28 -34h78l118 100l50 286h132l-18 -101h29l41 35l13 76h112zM211 713h139l46 -169h-116z" />
    <glyph glyph-name="uni1EEC" unicode="&#x1eec;" horiz-adv-x="791" 
d="M891 710l-20 -115l-108 -92h-84l-69 -393l-129 -110h-331l-106 128l101 572h136l-94 -533l42 -51h195l60 51l94 533h136l-18 -101h29l41 35l13 76h112zM390 804l101 67l5 28l-10 12h-38l-14 -12l-7 -39h-103l12 68l79 67h134l55 -67l-15 -86l-85 -56l-7 -40h-117z" />
    <glyph glyph-name="uni1EED" unicode="&#x1eed;" horiz-adv-x="680" 
d="M752 508l-20 -115l-108 -92h-84l-53 -301h-122l15 85l-101 -85h-155l-92 113l67 385h132l-62 -352l28 -34h78l118 100l50 286h132l-18 -101h29l41 35l13 76h112zM297 602l101 67l5 28l-10 12h-38l-14 -12l-7 -39h-103l12 68l79 67h134l55 -67l-15 -86l-85 -56l-7 -40
h-117z" />
    <glyph glyph-name="uni1EEE" unicode="&#x1eee;" horiz-adv-x="791" 
d="M891 710l-20 -115l-108 -92h-84l-69 -393l-129 -110h-331l-106 128l101 572h136l-94 -533l42 -51h195l60 51l94 533h136l-18 -101h29l41 35l13 76h112zM405 808h-22l-15 -12l-6 -33l-96 -1l13 71l81 69h84l55 -52h23l14 12l6 34h96l-13 -71l-81 -69h-84z" />
    <glyph glyph-name="uni1EEF" unicode="&#x1eef;" horiz-adv-x="680" 
d="M752 508l-20 -115l-108 -92h-84l-53 -301h-122l15 85l-101 -85h-155l-92 113l67 385h132l-62 -352l28 -34h78l118 100l50 286h132l-18 -101h29l41 35l13 76h112zM312 606h-22l-15 -12l-6 -33l-96 -1l13 71l81 69h84l55 -52h23l14 12l6 34h96l-13 -71l-81 -69h-84z" />
    <glyph glyph-name="uni1EF0" unicode="&#x1ef0;" horiz-adv-x="791" 
d="M891 710l-20 -115l-108 -92h-84l-69 -393l-129 -110h-331l-106 128l101 572h136l-94 -533l42 -51h195l60 51l94 533h136l-18 -101h29l41 35l13 76h112zM214 -150l11 62l48 41h70l34 -41l-11 -64l-46 -39h-72z" />
    <glyph glyph-name="uni1EF1" unicode="&#x1ef1;" horiz-adv-x="680" 
d="M752 508l-20 -115l-108 -92h-84l-53 -301h-122l15 85l-101 -85h-155l-92 113l67 385h132l-62 -352l28 -34h78l118 100l50 286h132l-18 -101h29l41 35l13 76h112zM156 -150l11 62l48 41h70l34 -41l-11 -64l-46 -39h-72z" />
    <glyph glyph-name="Ygrave" unicode="&#x1ef2;" horiz-adv-x="634" 
d="M256 286l-176 414h141l116 -287h2l218 287h157l-322 -414l-50 -286h-136zM264 915h139l46 -169h-116z" />
    <glyph glyph-name="ygrave" unicode="&#x1ef3;" horiz-adv-x="593" 
d="M577 498l-110 -622l-116 -97h-263l-84 100l11 60h132l-5 -30l15 -20h146l40 35l27 150l-87 -74h-173l-81 100l70 398h132l-62 -351l28 -35h87l110 99l51 287h132zM211 713h139l46 -169h-116z" />
    <glyph glyph-name="uni1EF4" unicode="&#x1ef4;" horiz-adv-x="634" 
d="M256 286l-176 414h141l116 -287h2l218 287h157l-322 -414l-50 -286h-136zM170 -150l11 62l48 41h70l34 -41l-11 -64l-46 -39h-72z" />
    <glyph glyph-name="uni1EF5" unicode="&#x1ef5;" horiz-adv-x="593" 
d="M577 498l-110 -622l-116 -97h-263l-84 100l11 60h132l-5 -30l15 -20h146l40 35l27 150l-87 -74h-173l-81 100l70 398h132l-62 -351l28 -35h87l110 99l51 287h132zM114 -371l11 62l48 41h70l34 -41l-11 -64l-46 -39h-72z" />
    <glyph glyph-name="uni1EF6" unicode="&#x1ef6;" horiz-adv-x="634" 
d="M256 286l-176 414h141l116 -287h2l218 287h157l-322 -414l-50 -286h-136zM348 804l101 67l5 28l-10 12h-38l-14 -12l-7 -39h-103l12 68l79 67h134l55 -67l-15 -86l-85 -56l-7 -40h-117z" />
    <glyph glyph-name="uni1EF7" unicode="&#x1ef7;" horiz-adv-x="593" 
d="M577 498l-110 -622l-116 -97h-263l-84 100l11 60h132l-5 -30l15 -20h146l40 35l27 150l-87 -74h-173l-81 100l70 398h132l-62 -351l28 -35h87l110 99l51 287h132zM299 602l101 67l5 28l-10 12h-38l-14 -12l-7 -39h-103l12 68l79 67h134l55 -67l-15 -86l-85 -56l-7 -40
h-117z" />
    <glyph glyph-name="uni1EF8" unicode="&#x1ef8;" horiz-adv-x="634" 
d="M256 286l-176 414h141l116 -287h2l218 287h157l-322 -414l-50 -286h-136zM363 808h-22l-15 -12l-6 -33l-96 -1l13 71l81 69h84l55 -52h23l14 12l6 34h96l-13 -71l-81 -69h-84z" />
    <glyph glyph-name="uni1EF9" unicode="&#x1ef9;" horiz-adv-x="593" 
d="M577 498l-110 -622l-116 -97h-263l-84 100l11 60h132l-5 -30l15 -20h146l40 35l27 150l-87 -74h-173l-81 100l70 398h132l-62 -351l28 -35h87l110 99l51 287h132zM314 606h-22l-15 -12l-6 -33l-96 -1l13 71l81 69h84l55 -52h23l14 12l6 34h96l-13 -71l-81 -69h-84z" />
    <glyph glyph-name="uni2007" unicode="&#x2007;" horiz-adv-x="652" 
 />
    <glyph glyph-name="uni2010" unicode="&#x2010;" horiz-adv-x="784" 
d="M51 314h704l-20 -114h-704z" />
    <glyph glyph-name="figuredash" unicode="&#x2012;" horiz-adv-x="622" 
d="M51 314h542l-20 -114h-542z" />
    <glyph glyph-name="endash" unicode="&#x2013;" horiz-adv-x="637" 
d="M51 314h557l-20 -114h-557z" />
    <glyph glyph-name="emdash" unicode="&#x2014;" horiz-adv-x="751" 
d="M51 314h671l-20 -114h-671z" />
    <glyph glyph-name="uni2015" unicode="&#x2015;" horiz-adv-x="932" 
d="M51 314h852l-20 -114h-852z" />
    <glyph glyph-name="quoteleft" unicode="&#x2018;" horiz-adv-x="234" 
d="M187 566h22l36 -43l-11 -64l-51 -43h-75l-34 44l18 106l81 134h78z" />
    <glyph glyph-name="quoteright" unicode="&#x2019;" horiz-adv-x="234" 
d="M156 550h-22l-36 43l11 64l51 43h75l34 -44l-18 -106l-81 -134h-78z" />
    <glyph glyph-name="quotesinglbase" unicode="&#x201a;" horiz-adv-x="234" 
d="M59 0h-22l-36 43l11 64l51 43h75l34 -44l-18 -106l-81 -134h-78z" />
    <glyph glyph-name="quotedblleft" unicode="&#x201c;" horiz-adv-x="441" 
d="M187 566h22l36 -43l-11 -64l-51 -43h-75l-34 44l18 106l81 134h78zM394 566h22l36 -43l-11 -64l-51 -43h-75l-34 44l18 106l81 134h78z" />
    <glyph glyph-name="quotedblright" unicode="&#x201d;" horiz-adv-x="441" 
d="M156 550h-22l-36 43l11 64l51 43h75l34 -44l-18 -106l-81 -134h-78zM363 550h-22l-36 43l11 64l51 43h75l34 -44l-18 -106l-81 -134h-78z" />
    <glyph glyph-name="quotedblbase" unicode="&#x201e;" horiz-adv-x="441" 
d="M59 0h-22l-36 43l11 64l51 43h75l34 -44l-18 -106l-81 -134h-78zM266 0h-22l-36 43l11 64l51 43h75l34 -44l-18 -106l-81 -134h-78z" />
    <glyph glyph-name="dagger" unicode="&#x2020;" horiz-adv-x="536" 
d="M225 386h-161l20 112h161l31 175h134l-31 -175h161l-20 -112h-161l-86 -486h-134z" />
    <glyph glyph-name="daggerdbl" unicode="&#x2021;" horiz-adv-x="536" 
d="M359 386l-35 -199h161l-20 -112h-161l-31 -175h-134l31 175h-161l20 112h161l35 199h-161l20 112h161l30 175h134l-30 -175h161l-20 -112h-161z" />
    <glyph glyph-name="bullet" unicode="&#x2022;" horiz-adv-x="304" 
d="M39 242l18 101l67 59h106l50 -63l-18 -103l-66 -57h-107z" />
    <glyph glyph-name="ellipsis" unicode="&#x2026;" horiz-adv-x="715" 
d="M4 43l12 64l50 43h73l34 -44l-10 -62l-50 -44h-73zM242 43l12 64l50 43h73l34 -44l-10 -62l-50 -44h-73zM481 43l12 64l50 43h73l34 -44l-10 -62l-50 -44h-73z" />
    <glyph glyph-name="perthousand" unicode="&#x2030;" horiz-adv-x="1249" 
d="M70 418l37 210l85 72h190l59 -72l-39 -224l-85 -72h-176zM641 700h136l-507 -700h-136zM269 432l25 22l22 124l-18 22h-58l-26 -22l-22 -124l19 -22h58zM472 86l37 210l85 72h190l59 -72l-39 -224l-85 -72h-176zM846 86l37 210l85 72h190l59 -72l-39 -224l-85 -72h-176z
M671 100l25 22l22 124l-18 22h-58l-26 -22l-22 -124l19 -22h58zM1045 100l25 22l22 124l-18 22h-58l-26 -22l-22 -124l19 -22h58z" />
    <glyph glyph-name="minute" unicode="&#x2032;" horiz-adv-x="250" 
d="M166 700h134l-103 -228h-118z" />
    <glyph glyph-name="second" unicode="&#x2033;" horiz-adv-x="423" 
d="M166 700h134l-103 -228h-118zM339 700h134l-103 -228h-118z" />
    <glyph glyph-name="guilsinglleft" unicode="&#x2039;" horiz-adv-x="313" 
d="M16 225l16 88l286 193l-25 -146l-146 -96l-1 -6l112 -96l-23 -130z" />
    <glyph glyph-name="guilsinglright" unicode="&#x203a;" horiz-adv-x="313" 
d="M304 313l-16 -88l-286 -193l25 146l146 96l1 6l-112 96l23 130z" />
    <glyph glyph-name="fraction" unicode="&#x2044;" horiz-adv-x="587" 
d="M642 700l-524 -700h-136l524 700h136z" />
    <glyph glyph-name="uni2070" unicode="&#x2070;" horiz-adv-x="456" 
d="M61 368l46 258l87 74h216l71 -86l-47 -262l-84 -72h-216zM296 384l21 18l31 176l-14 18h-88l-22 -18l-30 -175l14 -19h88z" />
    <glyph glyph-name="uni2074" unicode="&#x2074;" horiz-adv-x="416" 
d="M241 346h-209l18 102l234 252h145l-44 -250h51l-18 -104h-51l-12 -66h-126zM270 444l24 135h-2l-115 -127l-2 -8h95z" />
    <glyph glyph-name="uni2075" unicode="&#x2075;" horiz-adv-x="420" 
d="M56 364l10 59h124l-4 -27l11 -14h82l17 14l9 50l-12 14h-214l42 240h346l-17 -100h-224l-7 -40h145l71 -87l-22 -123l-82 -70h-206z" />
    <glyph glyph-name="uni2076" unicode="&#x2076;" horiz-adv-x="434" 
d="M60 364l46 261l87 75h202l70 -86l-8 -48h-120l3 20l-11 14h-91l-17 -14l-11 -64l33 20h134l65 -78l-20 -114l-83 -70h-210zM289 380l16 14l8 42l-12 14h-77l-28 -21l-7 -35l12 -14h88z" />
    <glyph glyph-name="uni2077" unicode="&#x2077;" horiz-adv-x="381" 
d="M277 590v4h-201l19 106h346l-17 -96l-231 -324h-138z" />
    <glyph glyph-name="uni2078" unicode="&#x2078;" horiz-adv-x="443" 
d="M55 362l16 92l54 44l-33 43l16 89l83 70h210l66 -82l-15 -83l-46 -43l37 -44l-17 -100l-79 -68h-224zM317 538l17 14l6 37l-11 14h-88l-17 -14l-6 -37l11 -14h88zM295 377l16 14l7 41l-11 14h-100l-17 -14l-7 -41l12 -14h100z" />
    <glyph glyph-name="uni2079" unicode="&#x2079;" horiz-adv-x="434" 
d="M57 364l9 48h122l-4 -18l12 -14h85l16 14l11 57l-22 -16h-140l-68 82l19 109l87 74h204l71 -86l-47 -264l-83 -70h-203zM302 527l21 16l7 43l-11 14h-88l-17 -14l-8 -45l12 -14h84z" />
    <glyph glyph-name="uni207D" unicode="&#x207d;" horiz-adv-x="248" 
d="M48 292l70 399l82 70h129l-18 -100h-52l-30 -26l-54 -301l22 -26h52l-18 -100h-115z" />
    <glyph glyph-name="uni207E" unicode="&#x207e;" horiz-adv-x="248" 
d="M283 677l-70 -399l-82 -70h-129l18 100h52l30 26l54 301l-22 26h-52l18 100h115z" />
    <glyph glyph-name="uni207F" unicode="&#x207f;" horiz-adv-x="434" 
d="M120 700h106l-10 -52l64 52h102l75 -92l-45 -257h-118l41 233l-13 16h-51l-60 -52l-35 -197h-118z" />
    <glyph glyph-name="uni2080" unicode="&#x2080;" horiz-adv-x="456" 
d="M-15 -62l46 258l87 74h216l71 -86l-47 -262l-84 -72h-216zM220 -46l21 18l31 176l-14 18h-88l-22 -18l-30 -175l14 -19h88z" />
    <glyph glyph-name="uni2081" unicode="&#x2081;" horiz-adv-x="292" 
d="M96 136l-104 -47l20 114l134 67h100l-74 -420h-126z" />
    <glyph glyph-name="uni2082" unicode="&#x2082;" horiz-adv-x="398" 
d="M-26 -53l254 173l5 32l-11 14h-73l-17 -14l-7 -40h-124l15 84l87 74h191l71 -86l-18 -101l-206 -131l-1 -4h185l-17 -98h-351z" />
    <glyph glyph-name="uni2083" unicode="&#x2083;" horiz-adv-x="431" 
d="M-25 -64l10 55h124l-4 -26l10 -14h83l17 14l7 41l-9 11h-116l15 88h116l13 12l7 38l-12 14h-78l-16 -14l-5 -26h-124l13 71l82 70h200l72 -86l-17 -92l-37 -31l26 -31l-19 -112l-80 -68h-207z" />
    <glyph glyph-name="uni2084" unicode="&#x2084;" horiz-adv-x="416" 
d="M165 -84h-209l18 102l234 252h145l-44 -250h51l-18 -104h-51l-12 -66h-126zM194 14l24 135h-2l-115 -127l-2 -8h95z" />
    <glyph glyph-name="uni2085" unicode="&#x2085;" horiz-adv-x="420" 
d="M-20 -66l10 59h124l-4 -27l11 -14h82l17 14l9 50l-12 14h-214l42 240h346l-17 -100h-224l-7 -40h145l71 -87l-22 -123l-82 -70h-206z" />
    <glyph glyph-name="uni2086" unicode="&#x2086;" horiz-adv-x="434" 
d="M-16 -66l46 261l87 75h202l70 -86l-8 -48h-120l3 20l-11 14h-91l-17 -14l-11 -64l33 20h134l65 -78l-20 -114l-83 -70h-210zM213 -50l16 14l8 42l-12 14h-77l-28 -21l-7 -35l12 -14h88z" />
    <glyph glyph-name="uni2087" unicode="&#x2087;" horiz-adv-x="381" 
d="M201 160v4h-201l19 106h346l-17 -96l-231 -324h-138z" />
    <glyph glyph-name="uni2088" unicode="&#x2088;" horiz-adv-x="443" 
d="M-21 -68l16 92l54 44l-33 43l16 89l83 70h210l66 -82l-15 -83l-46 -43l37 -44l-17 -100l-79 -68h-224zM241 108l17 14l6 37l-11 14h-88l-17 -14l-6 -37l11 -14h88zM219 -53l16 14l7 41l-11 14h-100l-17 -14l-7 -41l12 -14h100z" />
    <glyph glyph-name="uni2089" unicode="&#x2089;" horiz-adv-x="434" 
d="M-19 -66l9 48h122l-4 -18l12 -14h85l16 14l11 57l-22 -16h-140l-68 82l19 109l87 74h204l71 -86l-47 -264l-83 -70h-203zM226 97l21 16l7 43l-11 14h-88l-17 -14l-8 -45l12 -14h84z" />
    <glyph glyph-name="uni208D" unicode="&#x208d;" horiz-adv-x="248" 
d="M-26 -125l70 399l82 70h129l-18 -100h-52l-30 -26l-54 -301l22 -26h52l-18 -100h-115z" />
    <glyph glyph-name="uni208E" unicode="&#x208e;" horiz-adv-x="248" 
d="M210 260l-70 -399l-82 -70h-129l18 100h52l30 26l54 301l-22 26h-52l18 100h115z" />
    <glyph glyph-name="colonmonetary" unicode="&#x20a1;" horiz-adv-x="655" 
d="M621 653l62 -74l-18 -99h-111l-143 -364h7l55 47l11 57h136l-21 -115l-123 -105h-111l-43 -110h-100l43 110h-70l-43 -110h-100l56 143l-75 91l83 469l125 107h129l43 110h100l-43 -110h70l43 110h100zM189 238l135 346h-23l-60 -51zM311 116l183 468h-70l-183 -468h70z
" />
    <glyph glyph-name="lira" unicode="&#x20a4;" horiz-adv-x="632" 
d="M515 502l8 47l-31 37h-115l-60 -51l-13 -72h238l-18 -100h-237l-8 -44h237l-17 -100h-237l-87 -84l-4 -21h417l-20 -114h-555l26 146l75 73h-79l17 100h93l8 44h-93l18 100h92l21 119l139 118h231l100 -120l-14 -78h-132z" />
    <glyph glyph-name="uni20A6" unicode="&#x20a6;" horiz-adv-x="793" 
d="M791 293h-106l-52 -293h-122l-140 293h-121l-52 -293h-131l51 293h-100l20 112h100l52 295h122l142 -295h120l52 295h131l-52 -295h106zM317 405l-33 69h-2l-12 -69h47zM555 293h-47l33 -68h2z" />
    <glyph glyph-name="peseta" unicode="&#x20a7;" horiz-adv-x="752" 
d="M771 414h-86l-14 -78l-115 -98h-311l-42 -238h-136l73 414h-101l20 112h100l31 174h430l95 -116l-10 -58h86zM295 526h276l4 25l-29 35h-240zM551 414h-275l-11 -62h240l41 35z" />
    <glyph glyph-name="dong" unicode="&#x20ab;" horiz-adv-x="615" 
d="M673 550h-78l-97 -550h-124l13 77l-89 -77h-180l-92 112l51 290l112 96h198l56 -58l20 110h-157l17 94h156l13 70h132l-12 -70h78zM424 325l-57 61h-122l-45 -39l-35 -196l31 -39h109l96 83zM47 -52h410l-18 -104h-410z" />
    <glyph glyph-name="Euro" unicode="&#x20ac;" horiz-adv-x="705" 
d="M579 480l10 57l-38 47h-200l-60 -51l-10 -58h201l-17 -100h-202l-10 -58h202l-18 -100h-202l-9 -50l42 -51h200l55 47l11 57h136l-21 -115l-123 -105h-341l-102 124l16 93h-89l18 100h89l10 58h-89l17 100h90l21 118l125 107h341l101 -121l-18 -99h-136z" />
    <glyph glyph-name="uni20B1" unicode="&#x20b1;" horiz-adv-x="752" 
d="M698 487l-7 -36h87l-13 -72h-86l-8 -43l-115 -98h-311l-42 -238h-136l67 379h-101l13 72h100l7 36h-101l13 72h100l25 141h430l95 -116l-4 -25h86l-13 -72h-86zM301 559h267l-22 27h-240zM564 487h-275l-7 -36h275zM537 379h-267l-5 -27h240z" />
    <glyph glyph-name="uni20B2" unicode="&#x20b2;" horiz-adv-x="676" 
d="M535 480l10 57l-38 47h-45l-34 -194h227l-50 -287l-123 -103h-124l-19 -110h-114l19 110h-109l-102 124l84 469l125 107h127l19 110h114l-19 -110h105l101 -121l-18 -99h-136zM348 584h-46l-60 -51l-66 -366l42 -51h47zM407 274l-28 -158h48l57 48l19 110h-96z" />
    <glyph glyph-name="uni20B5" unicode="&#x20b5;" horiz-adv-x="655" 
d="M529 480l10 57l-38 47h-36l-82 -468h35l55 47l11 57h136l-21 -115l-123 -105h-114l-19 -110h-114l19 110h-113l-102 124l83 469l125 107h131l19 110h114l-19 -110h96l101 -121l-18 -99h-136zM351 584h-50l-60 -51l-65 -366l42 -51h51z" />
    <glyph glyph-name="uni20B9" unicode="&#x20b9;" horiz-adv-x="670" 
d="M692 598h-160l30 -36l-5 -30h123l-17 -98h-123l-11 -60l-82 -69l59 -79l-39 -226h-136l35 202l-51 67h-271l20 112h296l42 35l3 18h-332l17 98h333l3 19l-30 35h-296l2 12l18 102h590z" />
    <glyph glyph-name="uni20BA" unicode="&#x20ba;" horiz-adv-x="635" 
d="M619 300l-20 -114l-218 -186h-284l42 239l-106 -32l18 100l106 32l9 53l-106 -32l18 100l105 32l37 208h134l-29 -166l181 55l-17 -100l-182 -55l-9 -53l181 55l-17 -100l-182 -55l-29 -165h88l136 114l12 70h132z" />
    <glyph glyph-name="uni20BD" unicode="&#x20bd;" horiz-adv-x="691" 
d="M715 584l-44 -248l-115 -98h-311l-10 -56h180l-18 -102h-180l-14 -80h-136l14 80h-101l18 102h101l10 56h-101l20 112h101l61 350h430zM575 551l-29 35h-240l-41 -234h240l41 35z" />
    <glyph glyph-name="uni210A" unicode="&#x210a;" horiz-adv-x="602" 
d="M2 -208l17 98l91 77h251l20 116l-80 -65h-180l-92 112l48 272l112 96h196l66 -75l14 75h122l-93 -527h83l-17 -98h-84l-15 -86l-107 -91h-273zM306 126l97 81l21 118l-57 61h-122l-45 -39l-32 -182l31 -39h107zM303 -210l34 29l10 56h-187l-23 -19l-7 -42l20 -24h153z
" />
    <glyph glyph-name="uni2113" unicode="&#x2113;" horiz-adv-x="508" 
d="M241 291l-27 -156l18 -23h58l26 23l10 61h132l-18 -108l-103 -88h-176l-87 106l21 120l-66 -30l-27 94l114 53l47 267l105 90h170l87 -106l-34 -191zM262 411l105 48l19 108l-18 23h-52l-26 -23z" />
    <glyph glyph-name="uni2117" unicode="&#x2117;" horiz-adv-x="838" 
d="M32 201l55 314l218 185h369l167 -201l-55 -316l-216 -183h-372zM531 102l155 132l41 232l-109 132h-276l-155 -132l-41 -232l109 -132h276zM313 545h272l71 -86l-23 -128l-83 -70h-179l-19 -107h-108zM506 348l29 24l10 62l-19 24h-120l-20 -110h120z" />
    <glyph glyph-name="uni2120" unicode="&#x2120;" horiz-adv-x="855" 
d="M71 423l7 39h114l-3 -16l8 -10h88l12 10l5 28l-9 10h-139l-58 73l14 79l75 64h195l58 -70l-8 -40h-112l3 15l-8 10h-85l-12 -10l-5 -27l8 -10h144l55 -67l-15 -87l-74 -63h-199zM496 700h114l54 -156h1l110 156h119l-61 -349h-112l32 180h-3l-86 -117h-39l-43 117h-3
l-32 -180h-112z" />
    <glyph glyph-name="trademark" unicode="&#x2122;" horiz-adv-x="826" 
d="M201 601h-98l17 99h315l-17 -99h-99l-44 -250h-118zM467 700h114l54 -156h1l110 156h119l-61 -349h-112l32 180h-3l-86 -117h-39l-43 117h-3l-32 -180h-112z" />
    <glyph glyph-name="estimated" unicode="&#x212e;" horiz-adv-x="796" 
d="M245 32.5q-81 42.5 -127 119t-46 175.5t45.5 175.5t124.5 119t178 42.5q96 0 173 -40t121 -113t44 -168v-17h-541v-231q26 -34 84 -54.5t126 -20.5q79 0 149.5 34t108.5 90h37q-41 -69 -122 -111.5t-173 -42.5q-101 0 -182 42.5zM625 357v208q-28 30 -84 49.5t-121 19.5
q-62 0 -118 -18t-85 -47v-212h408z" />
    <glyph glyph-name="uni2153" unicode="&#x2153;" horiz-adv-x="926" 
d="M496 86l10 55h124l-4 -26l10 -14h83l17 14l7 41l-9 11h-116l15 88h116l13 12l7 38l-12 14h-78l-16 -14l-5 -26h-124l13 71l82 70h200l72 -86l-17 -92l-37 -31l26 -31l-19 -112l-80 -68h-207zM765 700l-524 -700h-136l524 700h136zM192 566l-104 -47l20 114l134 67h100
l-74 -420h-126z" />
    <glyph glyph-name="uni2154" unicode="&#x2154;" horiz-adv-x="1041" 
d="M65 377l254 173l5 32l-11 14h-73l-17 -14l-7 -40h-124l15 84l87 74h191l71 -86l-18 -101l-206 -131l-1 -4h185l-17 -98h-351zM611 86l10 55h124l-4 -26l10 -14h83l17 14l7 41l-9 11h-116l15 88h116l13 12l7 38l-12 14h-78l-16 -14l-5 -26h-124l13 71l82 70h200l72 -86
l-17 -92l-37 -31l26 -31l-19 -112l-80 -68h-207zM885 700l-524 -700h-136l524 700h136z" />
    <glyph glyph-name="oneeighth" unicode="&#x215b;" horiz-adv-x="941" 
d="M498 83l16 92l54 44l-33 43l16 89l83 70h210l66 -82l-15 -83l-46 -43l37 -44l-17 -100l-79 -68h-224zM760 259l17 14l6 37l-11 14h-88l-17 -14l-6 -37l11 -14h88zM738 98l16 14l7 41l-11 14h-100l-17 -14l-7 -41l12 -14h100zM765 700l-524 -700h-136l524 700h136z
M192 566l-104 -47l20 114l134 67h100l-74 -420h-126z" />
    <glyph glyph-name="threeeighths" unicode="&#x215c;" horiz-adv-x="1036" 
d="M61 366l10 55h124l-4 -26l10 -14h83l17 14l7 41l-9 11h-116l15 88h116l13 12l7 38l-12 14h-78l-16 -14l-5 -26h-124l13 71l82 70h200l72 -86l-17 -92l-37 -31l26 -31l-19 -112l-80 -68h-207zM593 83l16 92l54 44l-33 43l16 89l83 70h210l66 -82l-15 -83l-46 -43l37 -44
l-17 -100l-79 -68h-224zM855 259l17 14l6 37l-11 14h-88l-17 -14l-6 -37l11 -14h88zM833 98l16 14l7 41l-11 14h-100l-17 -14l-7 -41l12 -14h100zM865 700l-524 -700h-136l524 700h136z" />
    <glyph glyph-name="fiveeighths" unicode="&#x215d;" horiz-adv-x="1035" 
d="M61 364l10 59h124l-4 -27l11 -14h82l17 14l9 50l-12 14h-214l42 240h346l-17 -100h-224l-7 -40h145l71 -87l-22 -123l-82 -70h-206zM592 83l16 92l54 44l-33 43l16 89l83 70h210l66 -82l-15 -83l-46 -43l37 -44l-17 -100l-79 -68h-224zM854 259l17 14l6 37l-11 14h-88
l-17 -14l-6 -37l11 -14h88zM832 98l16 14l7 41l-11 14h-100l-17 -14l-7 -41l12 -14h100zM864 700l-524 -700h-136l524 700h136z" />
    <glyph glyph-name="seveneighths" unicode="&#x215e;" horiz-adv-x="938" 
d="M302 590v4h-201l19 106h346l-17 -96l-231 -324h-138zM495 83l16 92l54 44l-33 43l16 89l83 70h210l66 -82l-15 -83l-46 -43l37 -44l-17 -100l-79 -68h-224zM757 259l17 14l6 37l-11 14h-88l-17 -14l-6 -37l11 -14h88zM735 98l16 14l7 41l-11 14h-100l-17 -14l-7 -41
l12 -14h100zM765 700l-524 -700h-136l524 700h136z" />
    <glyph glyph-name="arrowleft" unicode="&#x2190;" horiz-adv-x="699" 
d="M40 249l8 46l161 154h124l-115 -116l455 -1l-22 -126l-455 1l73 -116h-124z" />
    <glyph glyph-name="arrowup" unicode="&#x2191;" horiz-adv-x="438" 
d="M187 422l-133 -94l22 124l179 133h46l132 -135l-21 -122l-99 94l-81 -456h-126z" />
    <glyph glyph-name="arrowright" unicode="&#x2192;" horiz-adv-x="699" 
d="M489 206h-456l22 126h456l-73 116h124l105 -154l-8 -46l-160 -158h-124z" />
    <glyph glyph-name="arrowdown" unicode="&#x2193;" horiz-adv-x="438" 
d="M14 101l22 122l98 -94l81 456h126l-81 -456l133 94l-22 -126l-179 -131h-46z" />
    <glyph glyph-name="partialdiff" unicode="&#x2202;" horiz-adv-x="592" 
d="M17 116l43 246l118 100h208l59 -59l14 82l-59 103h-152l19 112h220l110 -195l-72 -407l-116 -98h-296zM359 116l42 35l22 125l-67 70h-129l-41 -35l-28 -160l28 -35h173z" />
    <glyph glyph-name="product" unicode="&#x220f;" horiz-adv-x="697" 
d="M145 700h567l-143 -810h-132l123 698h-303l-123 -698h-132z" />
    <glyph glyph-name="summation" unicode="&#x2211;" horiz-adv-x="597" 
d="M1 30l260 266l-167 260l26 144h536l-20 -114h-402l-1 -4l169 -264l-9 -55l-264 -271l-1 -4h402l-20 -114h-536z" />
    <glyph glyph-name="minus" unicode="&#x2212;" horiz-adv-x="564" 
d="M53 320h484l-20 -112h-484z" />
    <glyph glyph-name="uni2215" unicode="&#x2215;" horiz-adv-x="153" 
d="M291 701h136l-512 -701h-136z" />
    <glyph glyph-name="uni2219" unicode="&#x2219;" horiz-adv-x="372" 
d="M40 229l22 123l91 80h130l63 -80l-22 -123l-91 -80h-130z" />
    <glyph glyph-name="radical" unicode="&#x221a;" horiz-adv-x="614" 
d="M117 216h-93l21 112h171l33 -175h6l297 547h132l-382 -700h-138z" />
    <glyph glyph-name="infinity" unicode="&#x221e;" horiz-adv-x="941" 
d="M36 229l28 156l157 134h168l97 -119l138 119h175l122 -150l-27 -158l-155 -132h-151l-104 128l-151 -128h-174zM296 191l120 103l-92 113h-55l-82 -70l-13 -76l57 -70h65zM689 191l81 68l14 80l-57 68h-65l-110 -93l102 -123h35z" />
    <glyph glyph-name="integral" unicode="&#x222b;" horiz-adv-x="486" 
d="M-62 -16h97l48 41l215 577l108 94h173l-19 -110h-104l-43 -37l-216 -581l-108 -94h-170z" />
    <glyph glyph-name="approxequal" unicode="&#x2248;" horiz-adv-x="576" 
d="M228 365h-19l-27 -24l-10 -60h-126l15 88l121 104h98l111 -94h15l32 28l10 56h126l-16 -88l-121 -104h-98zM188 135h-19l-27 -24l-11 -60h-126l16 88l121 104h98l110 -94h15l32 28l10 56h126l-15 -88l-122 -104h-98z" />
    <glyph glyph-name="notequal" unicode="&#x2260;" horiz-adv-x="564" 
d="M370 296l-39 -64h190l-20 -112h-239l-67 -110h-132l67 110h-113l20 112h162l39 64h-190l20 112h239l67 110h132l-67 -110h113l-20 -112h-162z" />
    <glyph glyph-name="lessequal" unicode="&#x2264;" horiz-adv-x="614" 
d="M41 305l19 112l575 173l-18 -106l-402 -115l-1 -6l359 -121l-21 -120zM-13 0l19 104h544l-19 -104h-544z" />
    <glyph glyph-name="greaterequal" unicode="&#x2265;" horiz-adv-x="614" 
d="M39 242l402 121l1 6l-361 115l19 106l514 -173l-20 -112l-576 -183zM14 104h544l-18 -104h-544z" />
    <glyph glyph-name="filledbox" unicode="&#x25a0;" horiz-adv-x="560" 
d="M102 603h480l-85 -484h-480z" />
    <glyph glyph-name="triagup" unicode="&#x25b2;" horiz-adv-x="660" 
d="M390 588l186 -588h-580z" />
    <glyph glyph-name="uni25B3" unicode="&#x25b3;" horiz-adv-x="660" 
d="M390 588l186 -588h-580zM446 92l-88 292l-192 -292h280z" />
    <glyph glyph-name="uni25B6" unicode="&#x25b6;" horiz-adv-x="661" 
d="M100 586l529 -294l-633 -294z" />
    <glyph glyph-name="uni25B7" unicode="&#x25b7;" horiz-adv-x="668" 
d="M99 581l536 -290l-638 -291zM442 296l-271 141l-50 -283z" />
    <glyph glyph-name="triagdn" unicode="&#x25bc;" horiz-adv-x="660" 
d="M99 584h580l-394 -589z" />
    <glyph glyph-name="uni25BD" unicode="&#x25bd;" horiz-adv-x="660" 
d="M100 588h580l-394 -588zM509 496h-280l88 -292z" />
    <glyph glyph-name="uni25C0" unicode="&#x25c0;" horiz-adv-x="661" 
d="M48 292l632 294l-104 -588z" />
    <glyph glyph-name="uni25C1" unicode="&#x25c1;" horiz-adv-x="668" 
d="M47 291l639 290l-102 -581zM562 429l-321 -141l271 -142z" />
    <glyph glyph-name="uni25C6" unicode="&#x25c6;" horiz-adv-x="604" 
d="M54 330l308 269l216 -269l-310 -268z" />
    <glyph glyph-name="lozenge" unicode="&#x25ca;" horiz-adv-x="574" 
d="M56 340l241 340h132l121 -340l-241 -340h-132zM266 132l145 208l-69 208h-6l-145 -208l69 -208h6z" />
    <glyph glyph-name="dieresis_acute" unicode="&#xf6d7;" 
d="M118 868h125l-111 -139h-102zM-123 590l10 58l46 39h67l31 -40l-10 -58l-43 -38h-69zM97 591l10 56l45 40h67l32 -39l-10 -60l-44 -37h-69z" />
    <glyph glyph-name="dieresis_grave" unicode="&#xf6d8;" 
d="M-31 868h125l38 -139h-102zM-123 590l10 58l46 39h67l31 -40l-10 -58l-43 -38h-69zM97 591l10 56l45 40h67l32 -39l-10 -60l-44 -37h-69z" />
    <glyph glyph-name="uniF8FF" unicode="&#xf8ff;" horiz-adv-x="539" 
d="M90 712h409v-712h-409v712zM443 54v603h-297v-603h297z" />
    <glyph glyph-name="yoYingthai.less" horiz-adv-x="899" 
d="M44 71l37 209l69 69l-82 85l136 124h293l82 -101l-55 -321l17 -22h114l25 22l74 422h134l-86 -484l-85 -74h-262l-72 88l58 329l-22 27h-176l-27 -24l68 -76l-73 -75l-6 -33l-4 -12h38l57 -69l-16 -94l-72 -61h-106zM181 75l24 20l6 34l-17 20h-34l-23 -20l-6 -34l16 -20
h34z" />
    <glyph glyph-name="doChadathai.short" horiz-adv-x="639" 
d="M16 -161l15 87l74 61h208l67 -79l90 509l-22 27h-193l-27 -24l85 -76l-57 -78l-34 -194l-72 -62h-105l-60 71l17 94l71 61h50l-1 16l5 32l52 65l-99 85l136 124h308l86 -105l-121 -687h-91l-46 54l-62 -54h-214zM122 87l23 20l6 34l-16 20h-34l-24 -20l-6 -34l17 -20h34z
M260 -158l35 32l-31 37h-121l-22 -19l-5 -31l15 -19h129z" />
    <glyph glyph-name="toPatakthai.short" horiz-adv-x="639" 
d="M-8 -165l15 87l70 60h131l67 -100l52 72l49 -67l94 530l-22 27h-193l-27 -24l85 -76l-57 -78l-34 -194l-72 -62h-105l-60 71l17 94l71 61h50l-1 16l5 32l52 65l-99 85l136 124h308l86 -105l-121 -687h-102l-58 76l-56 -76l-45 66l-70 -66h-109zM122 87l23 20l6 34l-16 20
h-34l-24 -20l-6 -34l17 -20h34zM152 -159l37 36l-24 34h-63l-21 -18l-6 -34l15 -18h62z" />
    <glyph glyph-name="thoThanthai.less" horiz-adv-x="548" 
d="M187 433l-2 -9l320 -54l-66 -370h-134l13 71l-11 13l-17 22l-59 -48h-86l-59 73l14 82l74 64h95l75 -90l19 106l-324 59l20 116l105 90h383l-18 -104h-318zM246 184l-17 20h-33l-23 -20l-6 -33l17 -20h33l23 20z" />
    <glyph glyph-name="uni0E24.short" horiz-adv-x="625" 
d="M456 417l-22 27h-191l-27 -24l66 -76l-71 -75l-6 -33l-4 -12h38l57 -69l-16 -94l-72 -61h-106l-58 71l37 209l67 69l-80 85l136 124h306l86 -105l-100 -563h-134zM181 75l24 20l6 34l-17 20h-34l-23 -20l-6 -34l16 -20h34z" />
    <glyph glyph-name="uni0E26.short" horiz-adv-x="639" 
d="M470 417l-22 27h-193l-27 -24l85 -76l-56 -78l-36 -204l-72 -62h-105l-60 71l17 94l71 61h50l-1 16l7 42l51 65l-99 85l136 124h308l86 -105l-99 -563h-134zM121 77l23 20l6 34l-16 20h-34l-24 -20l-6 -34l17 -20h34z" />
    <glyph glyph-name="loChulathai.short" horiz-adv-x="722" 
d="M141 286l14 34h-51l-63 77l16 92l81 69h106l62 -76l-53 -302h3l122 156h50l66 -156h3l27 153l9 25h-40l-60 72l16 86l72 62h96l54 -67l-4 -24l59 52l40 -68l-103 -90l-67 -381h-124l-88 206l-159 -206h-133zM562 433l23 20l6 30l-17 20h-29l-24 -20l-6 -30l18 -20h29z
M185 400l24 20l6 36l-16 20h-36l-24 -20l-6 -36l16 -20h36z" />
    <glyph glyph-name="breve_acute" 
d="M120 878h125l-111 -139h-102zM-101 627l13 76h110l-8 -48l22 -27h58l32 27l8 48h114l-13 -76l-98 -83h-170z" />
    <glyph glyph-name="breve_grave" 
d="M-31 878h125l38 -139h-102zM-101 627l13 76h110l-8 -48l22 -27h58l32 27l8 48h114l-13 -76l-98 -83h-170z" />
    <glyph glyph-name="breve_hookabove" 
d="M41 774l82 55l4 21l-8 10h-28l-12 -10l-5 -28h-88l9 50l66 56h112l46 -56l-12 -67l-70 -44l-4 -22h-99zM-101 627l13 76h110l-8 -48l22 -27h58l32 27l8 48h114l-13 -76l-98 -83h-170z" />
    <glyph glyph-name="breve_tilde" 
d="M46 789h-25l-15 -12l-6 -32h-88l10 59l79 67h75l55 -50h26l15 12l5 32h88l-10 -59l-79 -67h-75zM-101 627l13 76h110l-8 -48l22 -27h58l32 27l8 48h114l-13 -76l-98 -83h-170z" />
    <glyph glyph-name="circumflex_acute" 
d="M272 822h125l-111 -139h-102zM27 705h106l114 -161h-124l-52 75h-6l-78 -75h-130z" />
    <glyph glyph-name="circumflex_grave" 
d="M149 822h125l38 -139h-102zM27 705h106l114 -161h-124l-52 75h-6l-78 -75h-130z" />
    <glyph glyph-name="circumflex_hookabove" 
d="M215 692l83 57l4 23l-8 10h-28l-12 -10l-5 -30h-88l10 54l65 56h112l47 -56l-13 -71l-70 -46l-4 -24h-99zM27 705h106l114 -161h-124l-52 75h-6l-78 -75h-130z" />
    <glyph glyph-name="circumflex_tilde" 
d="M51 791h-25l-15 -12l-6 -32h-88l10 59l79 67h75l55 -50h26l15 12l5 32h88l-10 -59l-79 -67h-75zM27 705h106l114 -161h-124l-52 75h-6l-78 -75h-130z" />
    <glyph glyph-name="dieresis_caron" 
d="M-70 873h113l52 -75h6l78 75h113l-159 -153h-98zM-123 590l10 58l46 39h67l31 -40l-10 -58l-43 -38h-69zM97 591l10 56l45 40h67l32 -39l-10 -60l-44 -37h-69z" />
    <glyph glyph-name="dieresis_macron" 
d="M-64 849h340l-17 -98h-340zM-123 590l10 58l46 39h67l31 -40l-10 -58l-43 -38h-69zM97 591l10 56l45 40h67l32 -39l-10 -60l-44 -37h-69z" />
    <glyph glyph-name="uni0E31.narrow" 
d="M-560 698l16 87l69 59h94l55 -67l-8 -48h50l98 93l60 -79l-122 -115h-254zM-433 703l21 18l6 32l-15 18h-32l-21 -18l-6 -32l15 -18h32z" />
    <glyph glyph-name="uni0E48.small" 
d="M-25 1117h113l-30 -172h-113z" />
    <glyph glyph-name="uni0E48.narrow" 
d="M-292 838h131l-37 -210h-131z" />
    <glyph glyph-name="uni0E49.small" 
d="M-185 1019h82l15 19h-36l-36 43l12 65l54 46h80l44 -54l-13 -75l-31 -40h55l129 142l57 -62l-145 -158h-280zM-59 1082l20 17l4 24l-14 17h-22l-20 -17l-4 -24l14 -17h22z" />
    <glyph glyph-name="uni0E49.narrow" 
d="M-537 712h80l17 20h-42l-41 48l13 75l61 52h89l50 -61l-15 -86l-35 -44h50l132 144l64 -69l-152 -163h-286zM-409 782l23 19l4 28l-15 19h-26l-23 -19l-4 -28l15 -19h26z" />
    <glyph glyph-name="uni0E4A.small" 
d="M-258 993l17 98l87 83h77l27 -35l40 35h60l52 -62l-15 -84h5l91 111l51 -50l-122 -144h-164l12 68h41l15 82l-7 9h-14l-53 -46l-39 46h-28l-29 -26h29l38 -47l-8 -48l-47 -42h-75zM-166 990l17 14l3 19l-12 14h-20l-16 -14l-3 -19l11 -14h20z" />
    <glyph glyph-name="uni0E4A.narrow" 
d="M-606 682l21 120l95 87h65l31 -35l41 35h59l53 -60l-19 -107h4l89 106l48 -54l-126 -146h-158l14 76h38l16 95l-8 10h-14l-46 -41l-34 41h-34l-34 -29h35l43 -53l-9 -55l-55 -48h-70zM-509 680l19 16l4 21l-13 16h-22l-19 -16l-4 -21l13 -16h22z" />
    <glyph glyph-name="uni0E4B.small" 
d="M153 1014h-90l-12 -69h-103l12 69h-90l14 81h90l12 69h103l-12 -69h90z" />
    <glyph glyph-name="uni0E4C.small" 
d="M37 1115l37 -42l-13 -78l-59 -50h-93l-49 60l14 81l190 162l53 -65zM4 1056l-15 18h-30l-21 -18l-6 -30l15 -18h30l21 18z" />
    <glyph glyph-name="uni0E4C.narrow" 
d="M-204 811l33 -39l-15 -90l-65 -54h-99l-52 64l15 87l218 186l61 -73zM-248 748l-16 19h-30l-22 -19l-6 -32l16 -19h30l22 19z" />
    <glyph glyph-name="uni0E47.narrow" 
d="M-535 821l85 73h215l82 70l53 -65l-103 -89h-214l-26 -22l-13 -76l77 57l50 -50h10l1 6l3 16l52 45h74l41 -51l-12 -68l-45 -39h-139l-53 53l-72 -53h-100zM-228 678l19 16l4 26l-13 16h-28l-19 -16l-4 -26l13 -16h28z" />
    <glyph glyph-name="uni0E34.narrow" 
d="M-594 749l116 98h233l90 -110l-19 -109h-441zM-276 706l4 24l-29 35h-139l-41 -35l-4 -24h209z" />
    <glyph glyph-name="uni0E35.narrow" 
d="M-128 893l-34 -191l-13 -74h-441l21 120l117 99h168l50 -49l17 95h115zM-288 734l-31 31h-124l-39 -33l-4 -26h193z" />
    <glyph glyph-name="uni0E36.narrow" 
d="M-134 747l-57 -44l-13 -75h-419l21 120l117 99h144l25 -24l3 17l62 54h79l53 -64zM-188 811l-15 18h-32l-21 -18l-5 -32l14 -18h32l22 18zM-317 734l-31 31h-102l-39 -33l-4 -26h171z" />
    <glyph glyph-name="uni0E37.narrow" 
d="M-128 893l-34 -191l-13 -74h-441l21 120l117 99h104l8 46h95l-13 -72l41 -40l20 112h95zM-288 734l-31 31h-124l-39 -33l-4 -26h193z" />
    <glyph glyph-name="uni0E4D0E48" 
d="M-186 702l17 96l79 68h108l65 -80l-17 -96l-77 -66h-112zM-42 699l34 28l6 36l-23 28h-38l-32 -28l-6 -36l22 -28h37zM-54 1093h113l-30 -172h-113z" />
    <glyph glyph-name="uni0E4D0E49" 
d="M-186 702l17 96l79 68h108l65 -80l-17 -96l-77 -66h-112zM-42 699l34 28l6 36l-23 28h-38l-32 -28l-6 -36l22 -28h37zM-179 995h82l15 19h-36l-36 43l12 65l54 46h80l44 -54l-13 -75l-31 -40h55l129 142l57 -62l-145 -158h-280zM-53 1058l20 17l4 24l-14 17h-22l-20 -17
l-4 -24l14 -17h22z" />
    <glyph glyph-name="uni0E4D0E4A" 
d="M-186 702l17 96l79 68h108l65 -80l-17 -96l-77 -66h-112zM-42 699l34 28l6 36l-23 28h-38l-32 -28l-6 -36l22 -28h37zM-232 969l17 98l87 83h77l27 -35l40 35h60l52 -62l-15 -84h5l91 111l51 -50l-122 -144h-164l12 68h41l15 82l-7 9h-14l-53 -46l-39 46h-28l-29 -26h29
l38 -47l-8 -48l-47 -42h-75zM-140 966l17 14l3 19l-12 14h-20l-16 -14l-3 -19l11 -14h20z" />
    <glyph glyph-name="uni0E4D0E4B" 
d="M-186 702l17 96l79 68h108l65 -80l-17 -96l-77 -66h-112zM-42 699l34 28l6 36l-23 28h-38l-32 -28l-6 -36l22 -28h37zM126 991h-90l-12 -69h-103l12 69h-90l14 81h90l12 69h103l-12 -69h90z" />
    <glyph glyph-name="uni0E3A.small" 
d="M-327 -383l11 64l56 47h72l38 -47l-11 -66l-53 -45h-74z" />
    <glyph glyph-name="uni0E38.small" 
d="M-333 -534l17 44h-47l-60 73l14 79l78 66h105l57 -70l-40 -224h-130zM-287 -419l25 22l5 30l-17 22h-32l-25 -22l-5 -30l17 -22h32z" />
    <glyph glyph-name="uni0E39.small" 
d="M-494 -505l3 17l4 12h-48l-53 62l15 85l74 63h95l55 -68l-23 -134h68l34 196h114l-42 -239l-65 -55h-181zM-459 -413l25 22l5 30l-17 22h-32l-25 -22l-5 -30l17 -22h32z" />
    <glyph glyph-name="uni0E4B.narrow" 
d="M-152 709h-96l-14 -81h-125l14 81h-98l17 84h96l14 80h125l-14 -80h98z" />
    <glyph glyph-name="uni0E4D.narrow" 
d="M-414 702l17 96l79 68h108l65 -80l-17 -96l-77 -66h-112zM-270 699l34 28l6 36l-23 28h-38l-32 -28l-6 -36l22 -28h37z" />
    <glyph glyph-name="uni0E4D0E48.narrow" 
d="M-414 702l17 96l79 68h108l65 -80l-17 -96l-77 -66h-112zM-270 699l34 28l6 36l-23 28h-38l-32 -28l-6 -36l22 -28h37zM-276 1093h113l-30 -172h-113z" />
    <glyph glyph-name="uni0E4D0E49.narrow" 
d="M-414 702l17 96l79 68h108l65 -80l-17 -96l-77 -66h-112zM-270 699l34 28l6 36l-23 28h-38l-32 -28l-6 -36l22 -28h37zM-394 995h82l15 19h-36l-36 43l12 65l54 46h80l44 -54l-13 -75l-31 -40h55l129 142l57 -62l-145 -158h-280zM-268 1058l20 17l4 24l-14 17h-22
l-20 -17l-4 -24l14 -17h22z" />
    <glyph glyph-name="uni0E4D0E4A.narrow" 
d="M-414 702l17 96l79 68h108l65 -80l-17 -96l-77 -66h-112zM-270 699l34 28l6 36l-23 28h-38l-32 -28l-6 -36l22 -28h37zM-437 969l17 98l87 83h77l27 -35l40 35h60l52 -62l-15 -84h5l91 111l51 -50l-122 -144h-164l12 68h41l15 82l-7 9h-14l-53 -46l-39 46h-28l-29 -26h29
l38 -47l-8 -48l-47 -42h-75zM-345 966l17 14l3 19l-12 14h-20l-16 -14l-3 -19l11 -14h20z" />
    <glyph glyph-name="uni0E4D0E4B.narrow" 
d="M-414 702l17 96l79 68h108l65 -80l-17 -96l-77 -66h-112zM-270 699l34 28l6 36l-23 28h-38l-32 -28l-6 -36l22 -28h37zM-103 991h-90l-12 -69h-103l12 69h-90l14 81h90l12 69h103l-12 -69h90z" />
    </font>
</defs>
</svg>
