<?xml version="1.0" standalone="no"?>
<!DOCTYPE svg PUBLIC "-//W3C//DTD SVG 1.1//EN" "http://www.w3.org/Graphics/SVG/1.1/DTD/svg11.dtd" >
<svg xmlns="http://www.w3.org/2000/svg" xmlns:xlink="http://www.w3.org/1999/xlink" version="1.1">
<metadata>
Created by FontForge 20170731 at Fri Sep  7 16:47:53 2018
 By Aleksey,,,
Copyright 2018 The Chakra Petch Project Authors (https://github.com/m4rc1e/Chakra-Petch.git)
</metadata>
<defs>
<font id="ChakraPetch-LightItalic" horiz-adv-x="0" >
  <font-face 
    font-family="Chakra Petch Light"
    font-weight="300"
    font-style="italic"
    font-stretch="normal"
    units-per-em="1000"
    panose-1="0 0 4 0 0 0 0 0 0 0"
    ascent="800"
    descent="-200"
    x-height="498"
    cap-height="700"
    bbox="-524 -513 1123 1226"
    underline-thickness="50"
    underline-position="-150"
    slope="-10"
    unicode-range="U+000D-FB02"
  />
<missing-glyph horiz-adv-x="589" 
d="M90 712h409v-712h-409v712zM443 54v603h-297v-603h297z" />
    <glyph glyph-name="fi" unicode="fi" horiz-adv-x="560" 
d="M436 0h-56l79 448h-243l-79 -448h-56l79 448h-90l9 50h90l22 127l93 78h134l-9 -49h-107l-59 -50l-18 -106h299z" />
    <glyph glyph-name="fl" unicode="fl" horiz-adv-x="577" 
d="M449 0h-56l117 662h-206l-60 -50l-19 -114h157l-9 -50h-157l-79 -448h-56l79 448h-90l9 50h90l23 134l92 78h290z" />
    <glyph glyph-name="uni0E240E45" unicode="&#xe24;&#xe45;" horiz-adv-x="910" 
d="M865 477l-121 -687h-56l118 668l-40 48h-179l-55 -47l-118 -669h-56l117 669l-39 48h-224l-52 -43l68 -85l-81 -84l-14 -84l-12 -45l21 8h48l48 -56l-12 -69l-58 -49h-73l-46 56l45 254l71 72l-72 85l107 91h266l43 -50l59 50h230zM102 108l-7 -42l21 -25h38l31 25l7 42
l-21 25h-38z" />
    <glyph glyph-name="uni0E260E45" unicode="&#xe26;&#xe45;" horiz-adv-x="950" 
d="M905 477l-121 -687h-56l118 668l-40 48h-179l-55 -47l-118 -669h-56l117 669l-39 48h-224l-53 -43l81 -85l-63 -83l-44 -247l-57 -49h-68l-47 56l12 68l58 48h57l13 -10l3 42l20 109l54 67l-85 87l107 91h267l42 -50l59 50h230zM141 107l-22 25h-37l-29 -25l-8 -41
l21 -25h37l30 25z" />
    <glyph glyph-name=".notdef" horiz-adv-x="589" 
d="M90 712h409v-712h-409v712zM443 54v603h-297v-603h297z" />
    <glyph glyph-name=".null" 
 />
    <glyph glyph-name="nonmarkingreturn" unicode="&#xd;" horiz-adv-x="236" 
 />
    <glyph glyph-name="NULL" 
 />
    <glyph glyph-name="NULL" 
 />
    <glyph glyph-name="space" unicode=" " horiz-adv-x="236" 
 />
    <glyph glyph-name="exclam" unicode="!" horiz-adv-x="236" 
d="M146 566l23 134h58l-24 -134l-83 -416h-38zM41 22l5 33l26 22h31l18 -22l-5 -33l-26 -22h-31z" />
    <glyph glyph-name="quotedbl" unicode="&#x22;" horiz-adv-x="304" 
d="M123 599l17 101h58l-18 -101l-36 -129h-30zM250 599l17 101h58l-18 -101l-36 -129h-30z" />
    <glyph glyph-name="numbersign" unicode="#" horiz-adv-x="679" 
d="M533 449l-67 -193h133l-8 -49h-142l-72 -207h-55l72 207h-179l-72 -207h-54l72 207h-108l8 49h117l67 193h-130l9 49h138l70 202h55l-70 -202h178l70 202h55l-70 -202h112l-9 -49h-120zM478 449h-178l-68 -193h179z" />
    <glyph glyph-name="dollar" unicode="$" horiz-adv-x="605" 
d="M530 559l6 35l-45 54h-83l-46 -262h113l73 -88l-38 -216l-96 -82h-120l-19 -110h-54l19 110h-121l-76 92l8 48h57l-6 -33l45 -55h103l49 282h-124l-72 88l35 196l96 82h130l19 110h54l-19 -110h102l76 -91l-9 -50h-57zM354 648h-99l-65 -54l-27 -154l45 -54h100zM353 334
l-49 -282h89l65 57l30 170l-45 55h-90z" />
    <glyph glyph-name="percent" unicode="%" horiz-adv-x="811" 
d="M86 396l44 248l66 56h143l54 -64l-44 -248l-64 -56h-146zM650 700h60l-509 -700h-59zM265 378l38 32l37 213l-27 32h-98l-38 -32l-38 -213l27 -32h99zM454 64l44 248l65 56h144l53 -64l-43 -248l-65 -56h-145zM632 46l38 32l38 213l-27 32h-99l-38 -32l-37 -213l27 -32
h98z" />
    <glyph glyph-name="ampersand" unicode="&#x26;" horiz-adv-x="630" 
d="M42 91l35 200l83 70l-34 41l38 216l97 82h234l74 -89l-10 -57h-56l7 41l-44 53h-187l-63 -53l-31 -178l38 -46h276l12 64h56l-11 -64h65l-9 -51h-65l-42 -239l-95 -81h-293zM388 52l65 55l37 213h-299l-61 -52l-29 -161l46 -55h241z" />
    <glyph glyph-name="quotesingle" unicode="'" horiz-adv-x="178" 
d="M123 599l17 101h58l-18 -101l-36 -129h-30z" />
    <glyph glyph-name="parenleft" unicode="(" horiz-adv-x="298" 
d="M37 -26l134 760l96 82h103l-8 -50h-74l-66 -55l-127 -723l46 -55h74l-9 -50h-94z" />
    <glyph glyph-name="parenright" unicode=")" horiz-adv-x="298" 
d="M297 725l-134 -760l-96 -82h-104l9 50h74l66 55l127 723l-46 55h-74l9 50h94z" />
    <glyph glyph-name="asterisk" unicode="*" horiz-adv-x="335" 
d="M206 561l-77 -52l-16 41l83 37l-70 37l31 41l58 -52l9 88h48l-26 -88l80 52l15 -41l-84 -37l71 -37l-30 -41l-61 52l-6 -87h-48z" />
    <glyph glyph-name="plus" unicode="+" horiz-adv-x="531" 
d="M469 239h-177l-31 -176h-56l31 176h-177l8 50h178l31 176h56l-31 -176h177z" />
    <glyph glyph-name="comma" unicode="," horiz-adv-x="202" 
d="M52 0h-13l-20 25l6 37l30 24h36l20 -24l-11 -62l-66 -121h-35z" />
    <glyph glyph-name="hyphen" unicode="-" horiz-adv-x="394" 
d="M65 277h274l-9 -50h-274z" />
    <glyph glyph-name="period" unicode="." horiz-adv-x="202" 
d="M18 25l7 37l29 24h37l20 -24l-7 -37l-28 -25h-37z" />
    <glyph glyph-name="slash" unicode="/" horiz-adv-x="447" 
d="M468 702h59l-511 -702h-60z" />
    <glyph glyph-name="zero" unicode="0" horiz-adv-x="620" 
d="M49 99l90 511l105 90h280l83 -100l-91 -512l-104 -88h-283zM390 52l73 62l84 472l-52 62h-230l-73 -62l-84 -472l52 -62h230z" />
    <glyph glyph-name="one" unicode="1" horiz-adv-x="350" 
d="M272 644l-171 -82l9 53l172 85h58l-124 -700h-58z" />
    <glyph glyph-name="two" unicode="2" horiz-adv-x="542" 
d="M38 125l432 377l16 92l-46 54h-202l-64 -54l-9 -48h-57l13 72l97 82h252l76 -91l-22 -127l-432 -375l-10 -55h370l-9 -52h-427z" />
    <glyph glyph-name="three" unicode="3" horiz-adv-x="571" 
d="M27 91l12 64h57l-9 -48l46 -55h220l64 55l30 166l-45 53h-194l10 52h194l63 53l29 163l-46 54h-214l-64 -54l-9 -48h-58l14 72l96 82h264l77 -91l-35 -195l-75 -64l53 -63l-36 -205l-96 -82h-273z" />
    <glyph glyph-name="four" unicode="4" horiz-adv-x="547" 
d="M356 147h-344l19 107l388 446h92l-88 -501h85l-9 -52h-85l-26 -147h-58zM365 198l80 450h-6l-354 -406l-8 -44h288z" />
    <glyph glyph-name="five" unicode="5" horiz-adv-x="574" 
d="M37 91l12 63h57l-9 -47l46 -55h219l64 55l38 213l-46 54h-321l58 326h419l-9 -51h-363l-39 -223h284l76 -93l-44 -252l-95 -81h-271z" />
    <glyph glyph-name="six" unicode="6" horiz-adv-x="590" 
d="M47 91l93 527l97 82h271l76 -92l-11 -62h-58l9 49l-44 53h-223l-64 -53l-46 -260l106 89h213l74 -89l-45 -254l-95 -81h-278zM379 52l63 54l38 212l-46 54h-172l-127 -108l-28 -158l45 -54h227z" />
    <glyph glyph-name="seven" unicode="7" horiz-adv-x="490" 
d="M450 605l7 43h-361l9 52h419l-17 -100l-377 -600h-60z" />
    <glyph glyph-name="eight" unicode="8" horiz-adv-x="606" 
d="M43 91l36 210l74 63l-43 53l36 201l96 82h271l76 -91l-35 -200l-63 -53l52 -63l-37 -212l-95 -81h-294zM440 382l61 51l28 161l-45 54h-221l-64 -54l-29 -161l43 -51h227zM389 52l64 54l30 172l-44 53h-243l-63 -53l-31 -172l46 -54h241z" />
    <glyph glyph-name="nine" unicode="9" horiz-adv-x="595" 
d="M52 91l12 68h57l-9 -53l45 -54h216l63 54l44 246l-93 -79h-223l-74 89l45 256l97 82h274l77 -91l-93 -528l-96 -81h-266zM378 325l114 97l31 172l-45 54h-226l-64 -54l-37 -215l45 -54h182z" />
    <glyph glyph-name="colon" unicode=":" horiz-adv-x="202" 
d="M84 392l6 37l29 24h36l20 -24l-6 -37l-29 -25h-36zM19 25l6 37l29 24h36l20 -24l-6 -37l-28 -25h-36z" />
    <glyph glyph-name="semicolon" unicode=";" horiz-adv-x="202" 
d="M83 392l6 37l30 24h36l20 -24l-6 -37l-29 -25h-36zM51 0h-12l-21 25l7 37l29 24h36l21 -24l-11 -62l-66 -121h-35z" />
    <glyph glyph-name="less" unicode="&#x3c;" horiz-adv-x="582" 
d="M568 513l-460 -230l-1 -6l380 -222l-9 -55l-428 250l12 65l517 257z" />
    <glyph glyph-name="equal" unicode="=" horiz-adv-x="531" 
d="M82 373h411l-9 -50h-411zM52 205h411l-8 -50h-411z" />
    <glyph glyph-name="greater" unicode="&#x3e;" horiz-adv-x="582" 
d="M27 59l460 230l1 6l-380 222l9 55l428 -249l-12 -65l-517 -258z" />
    <glyph glyph-name="question" unicode="?" horiz-adv-x="524" 
d="M238 314l211 176l16 87l-61 73h-162l-82 -69l-7 -40h-56l11 63l114 96h210l91 -109l-20 -118l-212 -176l-26 -145h-55zM177 22l5 33l26 22h32l18 -22l-6 -33l-25 -22h-32z" />
    <glyph glyph-name="at" unicode="@" horiz-adv-x="803" 
d="M778 453l-44 -251l-106 -91h-113l-28 34l6 38l-84 -72h-117l-74 91l32 183l97 83h146l44 -51l9 51h50l-30 -169l-25 -138h68l74 62l37 214l-126 154h-258l-188 -159l-49 -276l129 -158h397l-8 -50h-418l-158 191l56 318l219 184h306zM523 363l-47 56h-113l-61 -52
l-27 -154l43 -52h87l98 84z" />
    <glyph glyph-name="A" unicode="A" horiz-adv-x="605" 
d="M348 700h68l120 -700h-58l-33 200h-299l-103 -200h-62zM437 251l-63 386h-2l-200 -386h265z" />
    <glyph glyph-name="B" unicode="B" horiz-adv-x="638" 
d="M165 700h375l76 -90l-36 -199l-59 -50l67 -82l-34 -193l-101 -86h-411zM465 377l63 54l29 164l-45 54h-299l-48 -272h300zM429 51l73 62l27 153l-51 61h-322l-48 -276h321z" />
    <glyph glyph-name="C" unicode="C" horiz-adv-x="623" 
d="M51 110l87 490l117 100h290l88 -106l-9 -48h-57l6 35l-56 67h-241l-85 -72l-80 -451l61 -73h240l80 67l6 35h58l-11 -58l-113 -96h-291z" />
    <glyph glyph-name="D" unicode="D" horiz-adv-x="656" 
d="M165 700h384l92 -110l-87 -492l-115 -98h-397zM415 52l86 73l79 451l-60 72h-306l-105 -596h306z" />
    <glyph glyph-name="E" unicode="E" horiz-adv-x="574" 
d="M165 700h433l-9 -52h-375l-48 -270h347l-9 -52h-347l-48 -274h375l-9 -52h-433z" />
    <glyph glyph-name="F" unicode="F" horiz-adv-x="544" 
d="M165 700h423l-9 -52h-365l-48 -272h317l-9 -52h-317l-57 -324h-58z" />
    <glyph glyph-name="G" unicode="G" horiz-adv-x="644" 
d="M51 110l86 490l118 100h297l87 -105l-8 -49h-58l7 35l-57 67h-247l-86 -72l-80 -451l61 -73h243l85 72l32 182h-161l9 52h219l-46 -259l-117 -99h-294z" />
    <glyph glyph-name="H" unicode="H" horiz-adv-x="666" 
d="M165 700h58l-57 -325h380l56 325h58l-123 -700h-58l57 323h-380l-57 -323h-57z" />
    <glyph glyph-name="I" unicode="I" horiz-adv-x="238" 
d="M170 700h58l-124 -700h-58z" />
    <glyph glyph-name="J" unicode="J" horiz-adv-x="548" 
d="M16 109l14 84h56l-12 -68l61 -73h179l72 61l104 587h57l-108 -612l-103 -88h-231z" />
    <glyph glyph-name="K" unicode="K" horiz-adv-x="603" 
d="M165 700h58l-57 -324h174l236 324h67l-254 -349l145 -351h-60l-134 324h-183l-57 -324h-58z" />
    <glyph glyph-name="L" unicode="L" horiz-adv-x="529" 
d="M165 700h58l-114 -648h355l-9 -52h-413z" />
    <glyph glyph-name="M" unicode="M" horiz-adv-x="769" 
d="M165 700h66l131 -569h2l331 569h68l-123 -700h-55l105 592h-2l-311 -527h-49l-125 527h-2l-104 -592h-55z" />
    <glyph glyph-name="N" unicode="N" horiz-adv-x="665" 
d="M165 700h58l273 -605h2l107 605h54l-123 -700h-58l-272 606h-2l-107 -606h-55z" />
    <glyph glyph-name="O" unicode="O" horiz-adv-x="668" 
d="M51 110l86 490l118 100h308l90 -109l-87 -492l-116 -99h-309zM428 52l85 73l80 451l-61 72h-256l-86 -72l-80 -451l61 -73h257z" />
    <glyph glyph-name="P" unicode="P" horiz-adv-x="614" 
d="M165 700h381l76 -91l-39 -221l-96 -82h-333l-54 -306h-58zM466 357l65 54l32 184l-45 54h-304l-51 -292h303z" />
    <glyph glyph-name="Q" unicode="Q" horiz-adv-x="668" 
d="M566 99l-88 -75l75 -92l-42 -36l-86 104h-284l-90 110l86 490l118 100h308l90 -109zM513 125l80 451l-61 72h-256l-86 -72l-80 -451l61 -73h257z" />
    <glyph glyph-name="R" unicode="R" horiz-adv-x="643" 
d="M583 389l-91 -77l66 -88l-39 -224h-58l38 213l-67 90h-279l-53 -303h-58l123 700h381l76 -91zM563 595l-45 54h-304l-52 -295h303l65 54z" />
    <glyph glyph-name="S" unicode="S" horiz-adv-x="605" 
d="M43 92l8 48h57l-6 -33l45 -55h246l65 57l30 170l-45 55h-268l-72 88l35 196l96 82h286l76 -91l-9 -50h-57l6 35l-45 54h-236l-65 -54l-27 -154l45 -54h267l73 -88l-38 -216l-96 -82h-295z" />
    <glyph glyph-name="T" unicode="T" horiz-adv-x="552" 
d="M318 649h-212l9 51h481l-9 -51h-211l-115 -649h-57z" />
    <glyph glyph-name="U" unicode="U" horiz-adv-x="668" 
d="M61 110l104 590h58l-102 -576l60 -72h237l85 72l102 576h58l-107 -601l-116 -99h-289z" />
    <glyph glyph-name="V" unicode="V" horiz-adv-x="611" 
d="M110 700h56l103 -636h2l327 636h63l-365 -700h-67z" />
    <glyph glyph-name="W" unicode="W" horiz-adv-x="851" 
d="M125 700h57l8 -619h2l287 619h57l65 -619h2l224 619h59l-260 -700h-64l-66 618h-2l-290 -618h-64z" />
    <glyph glyph-name="X" unicode="X" horiz-adv-x="582" 
d="M279 359l-170 341h60l146 -295l247 295h69l-289 -343l176 -357h-60l-152 311l-261 -311h-69z" />
    <glyph glyph-name="Y" unicode="Y" horiz-adv-x="572" 
d="M266 294l-166 406h58l140 -353h2l266 353h66l-309 -406l-51 -294h-58z" />
    <glyph glyph-name="Z" unicode="Z" horiz-adv-x="560" 
d="M22 60l493 589v2h-379l8 49h440l-10 -59l-494 -589v-2h389l-8 -50h-449z" />
    <glyph glyph-name="bracketleft" unicode="[" horiz-adv-x="298" 
d="M185 816h186l-10 -49h-129l-147 -835h129l-8 -49h-186z" />
    <glyph glyph-name="backslash" unicode="\" horiz-adv-x="462" 
d="M80 700h60l278 -700h-59z" />
    <glyph glyph-name="bracketright" unicode="]" horiz-adv-x="298" 
d="M148 -117h-186l10 49h130l147 835h-130l9 49h185z" />
    <glyph glyph-name="asciicircum" unicode="^" horiz-adv-x="629" 
d="M360 700h66l144 -445h-54l-126 392h-6l-262 -392h-61z" />
    <glyph glyph-name="underscore" unicode="_" horiz-adv-x="404" 
d="M-46 -10h404l-9 -50h-404z" />
    <glyph glyph-name="grave" unicode="`" horiz-adv-x="240" 
d="M133 718h66l47 -153h-53z" />
    <glyph glyph-name="a" unicode="a" horiz-adv-x="543" 
d="M36 79l22 131l88 73h272l19 111l-45 55h-176l-66 -55l-7 -45h-56l11 65l99 84h225l74 -89l-72 -409h-55l17 97l-117 -97h-168zM263 50l133 110l13 73h-247l-51 -42l-17 -98l36 -43h133z" />
    <glyph glyph-name="b" unicode="b" horiz-adv-x="570" 
d="M52 89l110 625h56l-57 -325l128 109h164l74 -91l-57 -327l-93 -80h-251zM355 51l64 54l50 289l-44 54h-127l-149 -127l-38 -216l45 -54h199z" />
    <glyph glyph-name="c" unicode="c" horiz-adv-x="526" 
d="M42 89l58 328l95 81h232l76 -91l-8 -47h-56l6 34l-45 54h-185l-64 -54l-51 -289l45 -54h185l64 54l6 33h56l-11 -57l-95 -81h-235z" />
    <glyph glyph-name="d" unicode="d" horiz-adv-x="572" 
d="M42 89l58 328l95 81h191l79 -81l52 297h56l-125 -714h-55l16 97l-113 -97h-181zM288 51l132 112l34 194l-88 91h-150l-64 -54l-52 -289l45 -54h143z" />
    <glyph glyph-name="e" unicode="e" horiz-adv-x="553" 
d="M42 90l58 327l95 81h245l76 -91l-31 -173h-361l-23 -128l46 -55h193l65 54l8 44h56l-12 -66l-97 -83h-243zM438 283l19 110l-45 55h-196l-64 -55l-20 -110h306z" />
    <glyph glyph-name="f" unicode="f" horiz-adv-x="368" 
d="M160 448h-90l9 50h90l21 120l93 78h134l-9 -49h-107l-59 -50l-17 -99h157l-9 -50h-157l-79 -448h-56z" />
    <glyph glyph-name="g" unicode="g" horiz-adv-x="572" 
d="M535 498l-111 -634l-96 -81h-239l-62 76l8 52h56l-6 -38l32 -40h191l64 54l35 203l-115 -90h-176l-74 90l58 327l95 81h186l81 -101l18 101h55zM450 334l-93 114h-141l-64 -54l-52 -289l45 -54h143l131 103z" />
    <glyph glyph-name="h" unicode="h" horiz-adv-x="562" 
d="M164 714h56l-60 -329l132 113h148l74 -90l-71 -408h-56l69 393l-45 54h-108l-155 -131l-56 -316h-56z" />
    <glyph glyph-name="i" unicode="i" horiz-adv-x="236" 
d="M140 615l7 38l29 25h36l21 -25l-7 -39l-29 -24h-37zM134 498h56l-88 -498h-56z" />
    <glyph glyph-name="j" unicode="j" horiz-adv-x="251" 
d="M155 615l7 38l29 25h36l21 -25l-7 -39l-28 -24h-37zM-118 -168h95l65 55l107 611h56l-112 -635l-96 -81h-124z" />
    <glyph glyph-name="k" unicode="k" horiz-adv-x="509" 
d="M164 714h56l-78 -430h120l188 214h68l-210 -240l132 -258h-60l-119 234h-128l-41 -234h-56z" />
    <glyph glyph-name="l" unicode="l" horiz-adv-x="226" 
d="M168 714h56l-127 -714h-56z" />
    <glyph glyph-name="m" unicode="m" horiz-adv-x="829" 
d="M124 498h55l-18 -102l120 102h117l64 -79l93 79h154l73 -88l-72 -410h-56l69 394l-45 54h-117l-89 -76l-66 -372h-55l69 388l-50 60h-84l-135 -115l-59 -333h-56z" />
    <glyph glyph-name="n" unicode="n" horiz-adv-x="560" 
d="M124 498h55l-20 -113l133 113h146l74 -90l-71 -408h-56l69 393l-45 54h-106l-155 -131l-56 -316h-56z" />
    <glyph glyph-name="o" unicode="o" horiz-adv-x="562" 
d="M42 89l58 328l95 81h250l75 -91l-58 -327l-94 -80h-252zM346 51l64 54l51 289l-45 54h-200l-64 -54l-51 -289l45 -54h200z" />
    <glyph glyph-name="p" unicode="p" horiz-adv-x="572" 
d="M124 498h55l-17 -96l113 96h180l75 -91l-58 -325l-96 -82h-196l-74 79l-51 -291h-56zM356 51l64 54l51 289l-45 54h-142l-132 -112l-34 -193l85 -92h153z" />
    <glyph glyph-name="q" unicode="q" horiz-adv-x="565" 
d="M409 106l-124 -106h-169l-74 90l58 327l95 81h249l74 -89l-110 -621h-56zM277 51l144 124l38 219l-45 54h-198l-64 -54l-51 -289l45 -54h131z" />
    <glyph glyph-name="r" unicode="r" horiz-adv-x="377" 
d="M124 498h55l-16 -93l110 93h123l-9 -50h-105l-131 -111l-59 -337h-56z" />
    <glyph glyph-name="s" unicode="s" horiz-adv-x="504" 
d="M25 80l11 59h56l-8 -45l37 -44h191l53 44l15 88l-37 45h-214l-61 74l22 126l84 71h227l67 -81l-11 -58h-56l8 45l-36 45h-178l-53 -45l-15 -84l38 -45h210l64 -78l-22 -125l-85 -72h-240z" />
    <glyph glyph-name="t" unicode="t" horiz-adv-x="382" 
d="M97 90l63 359h-89l8 49h92l29 162h54l-29 -162h155l-8 -50h-156l-60 -343l45 -55h100l-8 -50h-122z" />
    <glyph glyph-name="u" unicode="u" horiz-adv-x="559" 
d="M48 90l71 408h56l-69 -393l45 -54h106l154 132l56 315h56l-88 -498h-55l19 114l-132 -114h-146z" />
    <glyph glyph-name="v" unicode="v" horiz-adv-x="469" 
d="M64 498h56l76 -444h4l232 444h61l-266 -498h-71z" />
    <glyph glyph-name="w" unicode="w" horiz-adv-x="694" 
d="M84 498h57l14 -433h3l206 433h56l40 -433h3l176 433h59l-212 -498h-62l-42 431h-3l-205 -431h-63z" />
    <glyph glyph-name="x" unicode="x" horiz-adv-x="479" 
d="M349 0l-113 210l-188 -210h-67l228 253l-135 245h61l110 -202l181 202h67l-221 -247l138 -251h-61z" />
    <glyph glyph-name="y" unicode="y" horiz-adv-x="561" 
d="M524 498l-110 -629l-103 -86h-228l-62 75l9 52h56l-7 -39l32 -38h186l64 54l40 227l-134 -114h-147l-73 89l72 409h56l-69 -393l45 -54h107l155 132l55 315h56z" />
    <glyph glyph-name="z" unicode="z" horiz-adv-x="466" 
d="M11 55l383 394v2h-303l8 47h366l-10 -55l-383 -393v-2h313l-8 -48h-376z" />
    <glyph glyph-name="braceleft" unicode="{" horiz-adv-x="333" 
d="M80 -26l49 277l-64 81l6 37l92 81l51 284l97 82h95l-9 -50h-66l-65 -55l-50 -282l-86 -75l-2 -8l60 -75l-50 -283l46 -55h66l-9 -50h-86z" />
    <glyph glyph-name="bar" unicode="|" horiz-adv-x="227" 
d="M190 846h57l-185 -1050h-57z" />
    <glyph glyph-name="braceright" unicode="}" horiz-adv-x="333" 
d="M289 725l-49 -276l64 -81l-6 -37l-92 -81l-51 -285l-97 -82h-95l9 50h66l65 55l50 282l86 75l2 8l-60 75l50 283l-46 55h-66l9 50h86z" />
    <glyph glyph-name="asciitilde" unicode="~" horiz-adv-x="554" 
d="M214 295h-39l-60 -51l-6 -35h-56l9 50l101 87h73l111 -97h37l63 53l6 34h56l-9 -51l-102 -86h-73z" />
    <glyph glyph-name="uni00A0" unicode="&#xa0;" horiz-adv-x="236" 
 />
    <glyph glyph-name="exclamdown" unicode="&#xa1;" horiz-adv-x="236" 
d="M195 476l-5 -33l-26 -21h-31l-18 22l5 32l26 22h31zM90 -68l-23 -134h-58l24 134l83 417h38z" />
    <glyph glyph-name="cent" unicode="&#xa2;" horiz-adv-x="526" 
d="M439 360l6 34l-45 54h-185l-64 -54l-51 -289l45 -54h185l64 54l6 33h56l-11 -57l-95 -81h-91l-18 -100h-55l18 100h-89l-73 89l58 328l95 81h97l17 100h55l-17 -100h80l76 -91l-8 -47h-56z" />
    <glyph glyph-name="sterling" unicode="&#xa3;" horiz-adv-x="600" 
d="M612 605l-10 -53h-56l7 40l-47 56h-151l-86 -73l-35 -202h240l-9 -49h-240l-25 -142l-92 -85l-8 -46h425l-9 -51h-482l19 111l92 86l22 127h-93l8 49h94l40 226l118 101h199z" />
    <glyph glyph-name="currency" unicode="&#xa4;" horiz-adv-x="627" 
d="M483 188l60 -74l-40 -34l-60 73l-32 -27h-237l-22 27l-84 -73l-31 36l86 74l-20 24l43 248l103 87h70l56 48l39 -48h72l72 -87l-44 -248zM364 549h23l-9 12zM464 227l40 221l-45 53h-76l-29 -24l-20 24h-75l-63 -53l-39 -221l44 -53h201z" />
    <glyph glyph-name="yen" unicode="&#xa5;" horiz-adv-x="572" 
d="M343 320h140l-8 -48h-156l-16 -92h155l-8 -49h-155l-23 -131h-58l23 131h-155l9 49h155l16 92h-155l9 48h139l-155 380h58l140 -353h2l266 353h66z" />
    <glyph glyph-name="brokenbar" unicode="&#xa6;" horiz-adv-x="227" 
d="M191 846h56l-73 -417h-57zM83 233h56l-77 -437h-56z" />
    <glyph glyph-name="section" unicode="&#xa7;" horiz-adv-x="514" 
d="M434 564l7 42l-37 45h-156l-53 -45l-16 -93l33 -41h199l68 -81l-23 -133l-72 -61l38 -46l-22 -128l-84 -71h-205l-67 81l10 55h56l-8 -42l37 -44h156l53 44l16 95l-33 40h-203l-65 79l23 134l71 61l-37 44l23 129l85 72h203l69 -81l-10 -55h-56zM193 424l-53 -45
l-18 -104l37 -45h192l52 44l18 105l-38 45h-190z" />
    <glyph glyph-name="dieresis" unicode="&#xa8;" horiz-adv-x="399" 
d="M126 603l6 36l28 23h36l18 -23l-6 -37l-26 -22h-37zM317 603l6 36l27 23h36l19 -23l-6 -37l-27 -22h-37z" />
    <glyph glyph-name="copyright" unicode="&#xa9;" horiz-adv-x="826" 
d="M48 180l62 349l201 171h354l149 -180l-62 -350l-200 -170h-356zM530 50l174 148l54 305l-121 147h-305l-174 -147l-54 -305l121 -148h305zM221 253l36 204l114 97h184l87 -104l-9 -51h-54l7 40l-55 66h-143l-80 -68l-30 -173l56 -67h142l79 66l7 42h54l-11 -62l-113 -96
h-185z" />
    <glyph glyph-name="ordfeminine" unicode="&#xaa;" horiz-adv-x="411" 
d="M84 411l15 86l66 55h187l12 68l-27 33h-122l-39 -33l-5 -29h-52l8 47l73 62h161l57 -69l-49 -280h-50l11 61l-74 -61h-123zM255 398l81 68l8 42h-162l-32 -27l-10 -57l22 -26h93z" />
    <glyph glyph-name="guillemotleft" unicode="&#xab;" horiz-adv-x="499" 
d="M39 243l10 52l232 182l-13 -72l-174 -137l-1 -6l125 -138l-11 -63zM238 243l9 52l232 182l-13 -72l-174 -137l-1 -6l125 -138l-10 -63z" />
    <glyph glyph-name="logicalnot" unicode="&#xac;" horiz-adv-x="529" 
d="M426 321h-353l9 51h408l-40 -226h-55z" />
    <glyph glyph-name="uni00AD" unicode="&#xad;" horiz-adv-x="394" 
d="M65 277h274l-9 -50h-274z" />
    <glyph glyph-name="registered" unicode="&#xae;" horiz-adv-x="525" 
d="M88 406l32 182l126 107h182l95 -115l-31 -183l-126 -107h-183zM348 331l104 87l25 149l-72 87h-142l-103 -87l-26 -149l72 -87h142zM245 598h126l34 -41l-10 -53l-32 -27l23 -32l-9 -51h-40l7 42l-19 27h-64l-12 -69h-40zM337 498l19 17l6 30l-14 17h-69l-11 -64h69z" />
    <glyph glyph-name="macron" unicode="&#xaf;" horiz-adv-x="342" 
d="M108 629h261l-8 -46h-262z" />
    <glyph glyph-name="degree" unicode="&#xb0;" horiz-adv-x="324" 
d="M114 550l15 88l64 54h87l51 -61l-16 -88l-62 -53h-90zM238 534l37 31l9 53l-25 31h-51l-37 -31l-9 -53l25 -31h51z" />
    <glyph glyph-name="plusminus" unicode="&#xb1;" horiz-adv-x="531" 
d="M490 359l-8 -51h-178l-31 -176h-56l31 176h-177l8 51h178l31 176h56l-31 -176h177zM25 51h411l-9 -51h-411z" />
    <glyph glyph-name="uni00B2" unicode="&#xb2;" horiz-adv-x="366" 
d="M67 361l260 214l8 50l-21 26h-116l-32 -26l-6 -37h-55l10 55l67 57h158l52 -62l-14 -81l-257 -210l-3 -19h223l-9 -48h-279z" />
    <glyph glyph-name="uni00B3" unicode="&#xb3;" horiz-adv-x="399" 
d="M67 342l8 49h56l-7 -36l22 -26h127l31 26l15 86l-22 26h-122l9 49h122l30 26l15 83l-21 26h-124l-31 -26l-6 -36h-54l9 54l67 57h164l52 -63l-20 -113l-40 -34l28 -34l-21 -123l-62 -53h-173z" />
    <glyph glyph-name="acute" unicode="&#xb4;" horiz-adv-x="253" 
d="M215 718h65l-114 -153h-53z" />
    <glyph glyph-name="paragraph" unicode="&#xb6;" horiz-adv-x="519" 
d="M278 347h-102l-81 98l29 167l105 88h168l-159 -903h-57zM456 700h57l-159 -903h-57z" />
    <glyph glyph-name="periodcentered" unicode="&#xb7;" horiz-adv-x="202" 
d="M54 229l7 37l29 24h37l20 -24l-7 -37l-28 -25h-37z" />
    <glyph glyph-name="cedilla" unicode="&#xb8;" horiz-adv-x="279" 
d="M-31 -183h119l27 23l6 38l-19 22h-100l7 39l50 88h52l-48 -83h64l44 -53l-13 -73l-52 -44h-145z" />
    <glyph glyph-name="uni00B9" unicode="&#xb9;" horiz-adv-x="257" 
d="M202 641l-101 -48l9 52l111 55h46l-74 -420h-54z" />
    <glyph glyph-name="ordmasculine" unicode="&#xba;" horiz-adv-x="419" 
d="M85 419l39 220l72 61h178l57 -68l-39 -220l-71 -61h-180zM302 399l40 35l33 184l-29 34h-131l-41 -34l-32 -184l28 -35h132z" />
    <glyph glyph-name="guillemotright" unicode="&#xbb;" horiz-adv-x="499" 
d="M259 295l-10 -52l-232 -182l13 72l174 138l1 6l-125 137l11 63zM457 295l-9 -52l-232 -182l13 72l174 138l1 6l-125 137l10 63z" />
    <glyph glyph-name="onequarter" unicode="&#xbc;" horiz-adv-x="791" 
d="M596 83h-209l13 75l235 262h75l-51 -288h51l-8 -49h-51l-15 -83h-54zM607 131l41 231h-3l-190 -212l-3 -19h155zM685 700l-525 -700h-60l525 700h60zM222 641l-101 -48l9 52l111 55h46l-74 -420h-54z" />
    <glyph glyph-name="onehalf" unicode="&#xbd;" horiz-adv-x="833" 
d="M679 700l-525 -700h-60l525 700h60zM222 641l-101 -48l9 52l111 55h46l-74 -420h-54zM464 81l260 214l8 50l-21 26h-116l-32 -26l-6 -37h-55l10 55l67 57h158l52 -62l-14 -81l-257 -210l-3 -19h223l-9 -48h-279z" />
    <glyph glyph-name="threequarters" unicode="&#xbe;" horiz-adv-x="893" 
d="M77 342l8 49h56l-7 -36l22 -26h127l31 26l15 86l-22 26h-122l9 49h122l30 26l15 83l-21 26h-124l-31 -26l-6 -36h-54l9 54l67 57h164l52 -63l-20 -113l-40 -34l28 -34l-21 -123l-62 -53h-173zM685 83h-209l13 75l235 262h75l-51 -288h51l-8 -49h-51l-15 -83h-54zM696 131
l41 231h-3l-190 -212l-3 -19h155zM792 700l-525 -700h-60l525 700h60z" />
    <glyph glyph-name="questiondown" unicode="&#xbf;" horiz-adv-x="524" 
d="M340 476l-6 -33l-25 -21h-32l-18 22l5 32l26 22h31zM278 184l-211 -175l-15 -88l61 -73h162l81 69l7 40h57l-11 -63l-114 -96h-211l-91 109l21 118l212 176l25 145h56z" />
    <glyph glyph-name="Agrave" unicode="&#xc0;" horiz-adv-x="605" 
d="M348 700h68l120 -700h-58l-33 200h-299l-103 -200h-62zM437 251l-63 386h-2l-200 -386h265zM304 920h66l48 -153h-53z" />
    <glyph glyph-name="Aacute" unicode="&#xc1;" horiz-adv-x="605" 
d="M348 700h68l120 -700h-58l-33 200h-299l-103 -200h-62zM437 251l-63 386h-2l-200 -386h265zM471 920h66l-114 -153h-53z" />
    <glyph glyph-name="Acircumflex" unicode="&#xc2;" horiz-adv-x="605" 
d="M348 700h68l120 -700h-58l-33 200h-299l-103 -200h-62zM437 251l-63 386h-2l-200 -386h265zM388 900h59l70 -133h-53l-49 95h-5l-82 -95h-57z" />
    <glyph glyph-name="Atilde" unicode="&#xc3;" horiz-adv-x="605" 
d="M348 700h68l120 -700h-58l-33 200h-299l-103 -200h-62zM437 251l-63 386h-2l-200 -386h265zM366 827h-21l-25 -20l-4 -24h-47l7 38l55 47h56l55 -50h22l23 20l5 25h46l-6 -39l-56 -47h-55z" />
    <glyph glyph-name="Adieresis" unicode="&#xc4;" horiz-adv-x="605" 
d="M348 700h68l120 -700h-58l-33 200h-299l-103 -200h-62zM437 251l-63 386h-2l-200 -386h265zM263 805l6 36l28 23h36l19 -23l-7 -37l-26 -22h-37zM454 805l7 36l26 23h36l20 -23l-7 -37l-26 -22h-37z" />
    <glyph glyph-name="Aring" unicode="&#xc5;" horiz-adv-x="605" 
d="M348 700h68l120 -700h-58l-33 200h-299l-103 -200h-62zM437 251l-63 386h-2l-200 -386h265zM308 813l14 80l59 50h82l46 -56l-14 -80l-58 -50h-83zM424 798l32 27l8 50l-22 27h-49l-32 -27l-8 -50l22 -27h49z" />
    <glyph glyph-name="AE" unicode="&#xc6;" horiz-adv-x="915" 
d="M572 648l-48 -271h329l-9 -52h-329l-48 -273h358l-9 -52h-416l34 193h-279l-118 -193h-61l432 700h531l-9 -52h-358zM514 648h-80l-247 -403h256z" />
    <glyph glyph-name="Ccedilla" unicode="&#xc7;" horiz-adv-x="623" 
d="M633 594l-9 -48h-57l6 35l-56 67h-241l-85 -72l-80 -451l61 -73h240l80 67l6 35h58l-11 -58l-113 -96h-131l-32 -56h64l44 -53l-13 -73l-52 -44h-144l7 43h119l27 23l6 38l-19 22h-100l7 39l35 61h-109l-90 110l87 490l117 100h290z" />
    <glyph glyph-name="Egrave" unicode="&#xc8;" horiz-adv-x="574" 
d="M165 700h433l-9 -52h-375l-48 -270h347l-9 -52h-347l-48 -274h375l-9 -52h-433zM300 920h66l48 -153h-53z" />
    <glyph glyph-name="Eacute" unicode="&#xc9;" horiz-adv-x="574" 
d="M165 700h433l-9 -52h-375l-48 -270h347l-9 -52h-347l-48 -274h375l-9 -52h-433zM475 920h66l-114 -153h-53z" />
    <glyph glyph-name="Ecircumflex" unicode="&#xca;" horiz-adv-x="574" 
d="M165 700h433l-9 -52h-375l-48 -270h347l-9 -52h-347l-48 -274h375l-9 -52h-433zM392 900h59l70 -133h-53l-49 95h-5l-82 -95h-57z" />
    <glyph glyph-name="Edieresis" unicode="&#xcb;" horiz-adv-x="574" 
d="M165 700h433l-9 -52h-375l-48 -270h347l-9 -52h-347l-48 -274h375l-9 -52h-433zM267 805l6 36l28 23h36l19 -23l-7 -37l-26 -22h-37zM458 805l7 36l26 23h36l20 -23l-7 -37l-26 -22h-37z" />
    <glyph glyph-name="Igrave" unicode="&#xcc;" horiz-adv-x="238" 
d="M170 700h58l-124 -700h-58zM121 920h66l48 -153h-53z" />
    <glyph glyph-name="Iacute" unicode="&#xcd;" horiz-adv-x="238" 
d="M170 700h58l-124 -700h-58zM287 920h66l-114 -153h-53z" />
    <glyph glyph-name="Icircumflex" unicode="&#xce;" horiz-adv-x="238" 
d="M170 700h58l-124 -700h-58zM204 900h59l70 -133h-53l-49 95h-5l-82 -95h-57z" />
    <glyph glyph-name="Idieresis" unicode="&#xcf;" horiz-adv-x="238" 
d="M170 700h58l-124 -700h-58zM80 805l6 36l28 23h36l19 -23l-7 -37l-26 -22h-37zM271 805l7 36l26 23h36l20 -23l-7 -37l-26 -22h-37z" />
    <glyph glyph-name="Eth" unicode="&#xd0;" horiz-adv-x="696" 
d="M681 590l-87 -492l-115 -98h-397l57 325h-95l9 51h95l57 324h384zM620 576l-60 72h-306l-48 -272h173l-9 -51h-173l-48 -273h306l86 73z" />
    <glyph glyph-name="Ntilde" unicode="&#xd1;" horiz-adv-x="665" 
d="M165 700h58l273 -605h2l107 605h54l-123 -700h-58l-272 606h-2l-107 -606h-55zM396 827h-21l-25 -20l-4 -24h-47l7 38l55 47h56l55 -50h22l23 20l5 25h46l-6 -39l-56 -47h-55z" />
    <glyph glyph-name="Ograve" unicode="&#xd2;" horiz-adv-x="668" 
d="M51 110l86 490l118 100h308l90 -109l-87 -492l-116 -99h-309zM428 52l85 73l80 451l-61 72h-256l-86 -72l-80 -451l61 -73h257zM336 920h66l48 -153h-53z" />
    <glyph glyph-name="Oacute" unicode="&#xd3;" horiz-adv-x="668" 
d="M51 110l86 490l118 100h308l90 -109l-87 -492l-116 -99h-309zM428 52l85 73l80 451l-61 72h-256l-86 -72l-80 -451l61 -73h257zM503 920h66l-114 -153h-53z" />
    <glyph glyph-name="Ocircumflex" unicode="&#xd4;" horiz-adv-x="668" 
d="M51 110l86 490l118 100h308l90 -109l-87 -492l-116 -99h-309zM428 52l85 73l80 451l-61 72h-256l-86 -72l-80 -451l61 -73h257zM420 900h59l70 -133h-53l-49 95h-5l-82 -95h-57z" />
    <glyph glyph-name="Otilde" unicode="&#xd5;" horiz-adv-x="668" 
d="M51 110l86 490l118 100h308l90 -109l-87 -492l-116 -99h-309zM428 52l85 73l80 451l-61 72h-256l-86 -72l-80 -451l61 -73h257zM398 827h-21l-25 -20l-4 -24h-47l7 38l55 47h56l55 -50h22l23 20l5 25h46l-6 -39l-56 -47h-55z" />
    <glyph glyph-name="Odieresis" unicode="&#xd6;" horiz-adv-x="668" 
d="M51 110l86 490l118 100h308l90 -109l-87 -492l-116 -99h-309zM428 52l85 73l80 451l-61 72h-256l-86 -72l-80 -451l61 -73h257zM295 805l6 36l28 23h36l19 -23l-7 -37l-26 -22h-37zM486 805l7 36l26 23h36l20 -23l-7 -37l-26 -22h-37z" />
    <glyph glyph-name="multiply" unicode="&#xd7;" horiz-adv-x="472" 
d="M274 264l115 -141l-41 -35l-115 141l-165 -141l-30 35l166 141l-116 141l41 35l116 -141l165 141l29 -35z" />
    <glyph glyph-name="Oslash" unicode="&#xd8;" horiz-adv-x="668" 
d="M624 626l29 -35l-87 -492l-116 -99h-309l-30 37l-59 -67h-62l91 104l-30 36l86 490l118 100h308l31 -38l60 68h61zM118 116l439 503l-25 29h-256l-86 -72l-80 -451zM587 583l-439 -503l23 -28h257l85 73l80 451z" />
    <glyph glyph-name="Ugrave" unicode="&#xd9;" horiz-adv-x="668" 
d="M61 110l104 590h58l-102 -576l60 -72h237l85 72l102 576h58l-107 -601l-116 -99h-289zM330 920h66l48 -153h-53z" />
    <glyph glyph-name="Uacute" unicode="&#xda;" horiz-adv-x="668" 
d="M61 110l104 590h58l-102 -576l60 -72h237l85 72l102 576h58l-107 -601l-116 -99h-289zM503 920h66l-114 -153h-53z" />
    <glyph glyph-name="Ucircumflex" unicode="&#xdb;" horiz-adv-x="668" 
d="M61 110l104 590h58l-102 -576l60 -72h237l85 72l102 576h58l-107 -601l-116 -99h-289zM420 900h59l70 -133h-53l-49 95h-5l-82 -95h-57z" />
    <glyph glyph-name="Udieresis" unicode="&#xdc;" horiz-adv-x="668" 
d="M61 110l104 590h58l-102 -576l60 -72h237l85 72l102 576h58l-107 -601l-116 -99h-289zM296 805l6 36l28 23h36l19 -23l-7 -37l-26 -22h-37zM487 805l7 36l26 23h36l20 -23l-7 -37l-26 -22h-37z" />
    <glyph glyph-name="Yacute" unicode="&#xdd;" horiz-adv-x="572" 
d="M266 294l-166 406h58l140 -353h2l266 353h66l-309 -406l-51 -294h-58zM447 920h66l-114 -153h-53z" />
    <glyph glyph-name="Thorn" unicode="&#xde;" horiz-adv-x="614" 
d="M595 456l-38 -221l-97 -82h-333l-27 -153h-58l86 487l37 213h58l-27 -153h324zM536 442l-45 54h-304l-51 -292h304l64 54z" />
    <glyph glyph-name="germandbls" unicode="&#xdf;" horiz-adv-x="617" 
d="M150 616l94 80h232l69 -85l-18 -105l-101 -114l-7 -39l20 -24h73l65 -79l-32 -179l-83 -71h-156l-67 82l10 54h56l-7 -43l37 -44h105l53 44l25 143l-37 45h-75l-45 55l11 66l101 114l14 81l-41 50h-185l-58 -50l-106 -597h-56z" />
    <glyph glyph-name="agrave" unicode="&#xe0;" horiz-adv-x="543" 
d="M36 79l22 131l88 73h272l19 111l-45 55h-176l-66 -55l-7 -45h-56l11 65l99 84h225l74 -89l-72 -409h-55l17 97l-117 -97h-168zM263 50l133 110l13 73h-247l-51 -42l-17 -98l36 -43h133zM252 718h66l48 -153h-53z" />
    <glyph glyph-name="aacute" unicode="&#xe1;" horiz-adv-x="543" 
d="M36 79l22 131l88 73h272l19 111l-45 55h-176l-66 -55l-7 -45h-56l11 65l99 84h225l74 -89l-72 -409h-55l17 97l-117 -97h-168zM263 50l133 110l13 73h-247l-51 -42l-17 -98l36 -43h133zM406 718h66l-114 -153h-53z" />
    <glyph glyph-name="acircumflex" unicode="&#xe2;" horiz-adv-x="543" 
d="M36 79l22 131l88 73h272l19 111l-45 55h-176l-66 -55l-7 -45h-56l11 65l99 84h225l74 -89l-72 -409h-55l17 97l-117 -97h-168zM263 50l133 110l13 73h-247l-51 -42l-17 -98l36 -43h133zM323 698h59l70 -133h-53l-49 95h-5l-82 -95h-57z" />
    <glyph glyph-name="atilde" unicode="&#xe3;" horiz-adv-x="543" 
d="M36 79l22 131l88 73h272l19 111l-45 55h-176l-66 -55l-7 -45h-56l11 65l99 84h225l74 -89l-72 -409h-55l17 97l-117 -97h-168zM263 50l133 110l13 73h-247l-51 -42l-17 -98l36 -43h133zM301 625h-21l-25 -20l-4 -24h-47l7 38l55 47h56l55 -50h22l23 20l5 25h46l-6 -39
l-56 -47h-55z" />
    <glyph glyph-name="adieresis" unicode="&#xe4;" horiz-adv-x="543" 
d="M36 79l22 131l88 73h272l19 111l-45 55h-176l-66 -55l-7 -45h-56l11 65l99 84h225l74 -89l-72 -409h-55l17 97l-117 -97h-168zM263 50l133 110l13 73h-247l-51 -42l-17 -98l36 -43h133zM198 603l6 36l28 23h36l19 -23l-7 -37l-26 -22h-37zM389 603l7 36l26 23h36l20 -23
l-7 -37l-26 -22h-37z" />
    <glyph glyph-name="aring" unicode="&#xe5;" horiz-adv-x="543" 
d="M36 79l22 131l88 73h272l19 111l-45 55h-176l-66 -55l-7 -45h-56l11 65l99 84h225l74 -89l-72 -409h-55l17 97l-117 -97h-168zM263 50l133 110l13 73h-247l-51 -42l-17 -98l36 -43h133zM243 611l14 80l59 50h82l46 -56l-14 -80l-58 -50h-83zM359 596l32 27l8 50l-22 27
h-49l-32 -27l-8 -50l22 -27h49z" />
    <glyph glyph-name="ae" unicode="&#xe6;" horiz-adv-x="877" 
d="M443 106l46 -55h175l65 54l8 44h56l-12 -66l-97 -83h-225l-67 81l-97 -81h-194l-65 79l22 131l88 73h273l6 36l13 75l-46 55h-176l-65 -55l-8 -45h-56l11 65l100 84h224l49 -58l68 58h225l76 -91l-31 -173h-343l-12 -69l-7 -38zM494 393l-19 -110h287l19 110l-45 55h-177
zM394 141l7 38l9 54h-248l-51 -42l-17 -98l36 -43h155z" />
    <glyph glyph-name="ccedilla" unicode="&#xe7;" horiz-adv-x="526" 
d="M439 360l6 34l-45 54h-185l-64 -54l-51 -289l45 -54h185l64 54l6 33h56l-11 -57l-95 -81h-93l-32 -56h65l43 -53l-13 -73l-52 -44h-144l8 43h118l27 23l7 38l-19 22h-100l7 39l35 61h-92l-73 89l58 328l95 81h232l76 -91l-8 -47h-56z" />
    <glyph glyph-name="egrave" unicode="&#xe8;" horiz-adv-x="553" 
d="M42 90l58 327l95 81h245l76 -91l-31 -173h-361l-23 -128l46 -55h193l65 54l8 44h56l-12 -66l-97 -83h-243zM438 283l19 110l-45 55h-196l-64 -55l-20 -110h306zM245 718h66l48 -153h-53z" />
    <glyph glyph-name="eacute" unicode="&#xe9;" horiz-adv-x="553" 
d="M42 90l58 327l95 81h245l76 -91l-31 -173h-361l-23 -128l46 -55h193l65 54l8 44h56l-12 -66l-97 -83h-243zM438 283l19 110l-45 55h-196l-64 -55l-20 -110h306zM412 718h66l-114 -153h-53z" />
    <glyph glyph-name="ecircumflex" unicode="&#xea;" horiz-adv-x="553" 
d="M42 90l58 327l95 81h245l76 -91l-31 -173h-361l-23 -128l46 -55h193l65 54l8 44h56l-12 -66l-97 -83h-243zM438 283l19 110l-45 55h-196l-64 -55l-20 -110h306zM329 698h59l70 -133h-53l-49 95h-5l-82 -95h-57z" />
    <glyph glyph-name="edieresis" unicode="&#xeb;" horiz-adv-x="553" 
d="M42 90l58 327l95 81h245l76 -91l-31 -173h-361l-23 -128l46 -55h193l65 54l8 44h56l-12 -66l-97 -83h-243zM438 283l19 110l-45 55h-196l-64 -55l-20 -110h306zM204 603l6 36l28 23h36l19 -23l-7 -37l-26 -22h-37zM395 603l7 36l26 23h36l20 -23l-7 -37l-26 -22h-37z" />
    <glyph glyph-name="igrave" unicode="&#xec;" horiz-adv-x="236" 
d="M134 498h56l-88 -498h-56zM85 718h66l48 -153h-53z" />
    <glyph glyph-name="iacute" unicode="&#xed;" horiz-adv-x="236" 
d="M134 498h56l-88 -498h-56zM251 718h66l-114 -153h-53z" />
    <glyph glyph-name="icircumflex" unicode="&#xee;" horiz-adv-x="236" 
d="M134 498h56l-88 -498h-56zM168 698h59l70 -133h-53l-49 95h-5l-82 -95h-57z" />
    <glyph glyph-name="idieresis" unicode="&#xef;" horiz-adv-x="236" 
d="M134 498h56l-88 -498h-56zM44 603l6 36l28 23h36l19 -23l-7 -37l-26 -22h-37zM235 603l7 36l26 23h36l20 -23l-7 -37l-26 -22h-37z" />
    <glyph glyph-name="eth" unicode="&#xf0;" horiz-adv-x="568" 
d="M493 572l52 -126l-65 -365l-95 -81h-267l-76 92l46 256l97 83h208l78 -84l16 91l-44 108l-92 -49l-16 41l92 48l-27 66h-112l9 48h144l36 -87l89 47l17 -41zM460 288l-85 92h-171l-64 -54l-39 -221l45 -54h218l64 54z" />
    <glyph glyph-name="ntilde" unicode="&#xf1;" horiz-adv-x="560" 
d="M124 498h55l-20 -113l133 113h146l74 -90l-71 -408h-56l69 393l-45 54h-106l-155 -131l-56 -316h-56zM314 625h-21l-25 -20l-4 -24h-47l7 38l55 47h56l55 -50h22l23 20l5 25h46l-6 -39l-56 -47h-55z" />
    <glyph glyph-name="ograve" unicode="&#xf2;" horiz-adv-x="562" 
d="M42 89l58 328l95 81h250l75 -91l-58 -327l-94 -80h-252zM346 51l64 54l51 289l-45 54h-200l-64 -54l-51 -289l45 -54h200zM248 718h66l48 -153h-53z" />
    <glyph glyph-name="oacute" unicode="&#xf3;" horiz-adv-x="562" 
d="M42 89l58 328l95 81h250l75 -91l-58 -327l-94 -80h-252zM346 51l64 54l51 289l-45 54h-200l-64 -54l-51 -289l45 -54h200zM415 718h66l-114 -153h-53z" />
    <glyph glyph-name="ocircumflex" unicode="&#xf4;" horiz-adv-x="562" 
d="M42 89l58 328l95 81h250l75 -91l-58 -327l-94 -80h-252zM346 51l64 54l51 289l-45 54h-200l-64 -54l-51 -289l45 -54h200zM332 698h59l70 -133h-53l-49 95h-5l-82 -95h-57z" />
    <glyph glyph-name="otilde" unicode="&#xf5;" horiz-adv-x="562" 
d="M42 89l58 328l95 81h250l75 -91l-58 -327l-94 -80h-252zM346 51l64 54l51 289l-45 54h-200l-64 -54l-51 -289l45 -54h200zM310 625h-21l-25 -20l-4 -24h-47l7 38l55 47h56l55 -50h22l23 20l5 25h46l-6 -39l-56 -47h-55z" />
    <glyph glyph-name="odieresis" unicode="&#xf6;" horiz-adv-x="562" 
d="M42 89l58 328l95 81h250l75 -91l-58 -327l-94 -80h-252zM346 51l64 54l51 289l-45 54h-200l-64 -54l-51 -289l45 -54h200zM207 603l6 36l28 23h36l19 -23l-7 -37l-26 -22h-37zM398 603l7 36l26 23h36l20 -23l-7 -37l-26 -22h-37z" />
    <glyph glyph-name="divide" unicode="&#xf7;" horiz-adv-x="531" 
d="M245 387l6 39l32 26h39l22 -26l-7 -40l-31 -26h-40zM67 289h411l-9 -50h-410zM195 103l7 39l31 27h39l22 -27l-7 -40l-30 -26h-40z" />
    <glyph glyph-name="oslash" unicode="&#xf8;" horiz-adv-x="562" 
d="M494 439l26 -32l-58 -327l-94 -80h-252l-21 26l-64 -66h-62l97 100l-24 29l58 328l95 81h250l21 -25l63 65h61zM105 100l323 334l-12 14h-200l-64 -54l-51 -289zM456 400l-322 -334l12 -15h200l64 54l51 289z" />
    <glyph glyph-name="ugrave" unicode="&#xf9;" horiz-adv-x="559" 
d="M48 90l71 408h56l-69 -393l45 -54h106l154 132l56 315h56l-88 -498h-55l19 114l-132 -114h-146zM257 718h66l48 -153h-53z" />
    <glyph glyph-name="uacute" unicode="&#xfa;" horiz-adv-x="559" 
d="M48 90l71 408h56l-69 -393l45 -54h106l154 132l56 315h56l-88 -498h-55l19 114l-132 -114h-146zM411 718h66l-114 -153h-53z" />
    <glyph glyph-name="ucircumflex" unicode="&#xfb;" horiz-adv-x="559" 
d="M48 90l71 408h56l-69 -393l45 -54h106l154 132l56 315h56l-88 -498h-55l19 114l-132 -114h-146zM328 698h59l70 -133h-53l-49 95h-5l-82 -95h-57z" />
    <glyph glyph-name="udieresis" unicode="&#xfc;" horiz-adv-x="559" 
d="M48 90l71 408h56l-69 -393l45 -54h106l154 132l56 315h56l-88 -498h-55l19 114l-132 -114h-146zM203 603l6 36l28 23h36l19 -23l-7 -37l-26 -22h-37zM394 603l7 36l26 23h36l20 -23l-7 -37l-26 -22h-37z" />
    <glyph glyph-name="yacute" unicode="&#xfd;" horiz-adv-x="561" 
d="M524 498l-110 -629l-103 -86h-228l-62 75l9 52h56l-7 -39l32 -38h186l64 54l40 227l-134 -114h-147l-73 89l72 409h56l-69 -393l45 -54h107l155 132l55 315h56zM413 718h66l-114 -153h-53z" />
    <glyph glyph-name="thorn" unicode="&#xfe;" horiz-adv-x="572" 
d="M162 710h55l-55 -308l113 96h180l75 -91l-58 -325l-96 -82h-196l-74 78l-51 -290h-56zM356 51l64 54l51 289l-45 54h-142l-132 -112l-34 -193l85 -92h153z" />
    <glyph glyph-name="ydieresis" unicode="&#xff;" horiz-adv-x="561" 
d="M524 498l-110 -629l-103 -86h-228l-62 75l9 52h56l-7 -39l32 -38h186l64 54l40 227l-134 -114h-147l-73 89l72 409h56l-69 -393l45 -54h107l155 132l55 315h56zM205 603l6 36l28 23h36l19 -23l-7 -37l-26 -22h-37zM396 603l7 36l26 23h36l20 -23l-7 -37l-26 -22h-37z" />
    <glyph glyph-name="Amacron" unicode="&#x100;" horiz-adv-x="605" 
d="M348 700h68l120 -700h-58l-33 200h-299l-103 -200h-62zM437 251l-63 386h-2l-200 -386h265zM274 831h262l-8 -46h-262z" />
    <glyph glyph-name="amacron" unicode="&#x101;" horiz-adv-x="543" 
d="M36 79l22 131l88 73h272l19 111l-45 55h-176l-66 -55l-7 -45h-56l11 65l99 84h225l74 -89l-72 -409h-55l17 97l-117 -97h-168zM263 50l133 110l13 73h-247l-51 -42l-17 -98l36 -43h133zM209 629h262l-8 -46h-262z" />
    <glyph glyph-name="Abreve" unicode="&#x102;" horiz-adv-x="605" 
d="M348 700h68l120 -700h-58l-33 200h-299l-103 -200h-62zM437 251l-63 386h-2l-200 -386h265zM277 838l10 53h48l-8 -40l35 -41h79l48 41l8 40h48l-11 -58l-76 -66h-123z" />
    <glyph glyph-name="abreve" unicode="&#x103;" horiz-adv-x="543" 
d="M36 79l22 131l88 73h272l19 111l-45 55h-176l-66 -55l-7 -45h-56l11 65l99 84h225l74 -89l-72 -409h-55l17 97l-117 -97h-168zM263 50l133 110l13 73h-247l-51 -42l-17 -98l36 -43h133zM212 636l10 53h48l-8 -40l35 -41h79l48 41l8 40h48l-11 -58l-76 -66h-123z" />
    <glyph glyph-name="Aogonek" unicode="&#x104;" horiz-adv-x="605" 
d="M348 700h68l120 -700h-58l-33 200h-299l-103 -200h-62zM437 251l-63 386h-2l-200 -386h265zM408 -126l11 65l64 61h53l-68 -69l-7 -43l22 -26h68l-8 -43h-90z" />
    <glyph glyph-name="aogonek" unicode="&#x105;" horiz-adv-x="543" 
d="M36 79l22 131l88 73h272l19 111l-45 55h-176l-66 -55l-7 -45h-56l11 65l99 84h225l74 -89l-72 -409h-55l17 97l-117 -97h-168zM263 50l133 110l13 73h-247l-51 -42l-17 -98l36 -43h133zM296 -126l11 65l64 61h53l-68 -69l-7 -43l22 -26h68l-8 -43h-90z" />
    <glyph glyph-name="Cacute" unicode="&#x106;" horiz-adv-x="623" 
d="M51 110l87 490l117 100h290l88 -106l-9 -48h-57l6 35l-56 67h-241l-85 -72l-80 -451l61 -73h240l80 67l6 35h58l-11 -58l-113 -96h-291zM492 920h66l-114 -153h-53z" />
    <glyph glyph-name="cacute" unicode="&#x107;" horiz-adv-x="526" 
d="M42 89l58 328l95 81h232l76 -91l-8 -47h-56l6 34l-45 54h-185l-64 -54l-51 -289l45 -54h185l64 54l6 33h56l-11 -57l-95 -81h-235zM402 718h66l-114 -153h-53z" />
    <glyph glyph-name="Ccircumflex" unicode="&#x108;" horiz-adv-x="623" 
d="M51 110l87 490l117 100h290l88 -106l-9 -48h-57l6 35l-56 67h-241l-85 -72l-80 -451l61 -73h240l80 67l6 35h58l-11 -58l-113 -96h-291zM409 900h59l70 -133h-53l-49 95h-5l-82 -95h-57z" />
    <glyph glyph-name="ccircumflex" unicode="&#x109;" horiz-adv-x="526" 
d="M42 89l58 328l95 81h232l76 -91l-8 -47h-56l6 34l-45 54h-185l-64 -54l-51 -289l45 -54h185l64 54l6 33h56l-11 -57l-95 -81h-235zM319 698h59l70 -133h-53l-49 95h-5l-82 -95h-57z" />
    <glyph glyph-name="Cdotaccent" unicode="&#x10a;" horiz-adv-x="623" 
d="M51 110l87 490l117 100h290l88 -106l-9 -48h-57l6 35l-56 67h-241l-85 -72l-80 -451l61 -73h240l80 67l6 35h58l-11 -58l-113 -96h-291zM379 802l7 38l26 22h38l19 -23l-7 -38l-25 -22h-39z" />
    <glyph glyph-name="cdotaccent" unicode="&#x10b;" horiz-adv-x="526" 
d="M42 89l58 328l95 81h232l76 -91l-8 -47h-56l6 34l-45 54h-185l-64 -54l-51 -289l45 -54h185l64 54l6 33h56l-11 -57l-95 -81h-235zM289 600l7 38l26 22h38l19 -23l-7 -38l-25 -22h-39z" />
    <glyph glyph-name="Ccaron" unicode="&#x10c;" horiz-adv-x="623" 
d="M51 110l87 490l117 100h290l88 -106l-9 -48h-57l6 35l-56 67h-241l-85 -72l-80 -451l61 -73h240l80 67l6 35h58l-11 -58l-113 -96h-291zM315 900h53l49 -94h5l81 94h59l-117 -133h-59z" />
    <glyph glyph-name="ccaron" unicode="&#x10d;" horiz-adv-x="526" 
d="M42 89l58 328l95 81h232l76 -91l-8 -47h-56l6 34l-45 54h-185l-64 -54l-51 -289l45 -54h185l64 54l6 33h56l-11 -57l-95 -81h-235zM225 698h53l49 -94h5l81 94h59l-117 -133h-59z" />
    <glyph glyph-name="Dcaron" unicode="&#x10e;" horiz-adv-x="656" 
d="M165 700h384l92 -110l-87 -492l-115 -98h-397zM415 52l86 73l79 451l-60 72h-306l-105 -596h306zM314 900h53l49 -94h5l81 94h59l-117 -133h-59z" />
    <glyph glyph-name="dcaron" unicode="&#x10f;" horiz-adv-x="707" 
d="M42 89l58 328l95 81h191l79 -81l52 297h56l-125 -714h-55l16 97l-113 -97h-181zM288 51l132 112l34 194l-88 91h-150l-64 -54l-52 -289l45 -54h143zM685 621h-13l-20 25l6 37l30 24h36l20 -24l-11 -62l-66 -121h-35z" />
    <glyph glyph-name="Dcroat" unicode="&#x110;" horiz-adv-x="696" 
d="M681 590l-87 -492l-115 -98h-397l57 325h-95l9 51h95l57 324h384zM620 576l-60 72h-306l-48 -272h173l-9 -51h-173l-48 -273h306l86 73z" />
    <glyph glyph-name="dcroat" unicode="&#x111;" horiz-adv-x="589" 
d="M633 585h-83l-102 -585h-55l16 97l-113 -97h-181l-73 89l58 328l95 81h191l79 -81l29 168h-151l9 47h151l14 82h56l-14 -82h83zM454 357l-88 91h-150l-64 -54l-52 -289l45 -54h143l132 112z" />
    <glyph glyph-name="Emacron" unicode="&#x112;" horiz-adv-x="574" 
d="M165 700h433l-9 -52h-375l-48 -270h347l-9 -52h-347l-48 -274h375l-9 -52h-433zM278 831h262l-8 -46h-262z" />
    <glyph glyph-name="emacron" unicode="&#x113;" horiz-adv-x="553" 
d="M42 90l58 327l95 81h245l76 -91l-31 -173h-361l-23 -128l46 -55h193l65 54l8 44h56l-12 -66l-97 -83h-243zM438 283l19 110l-45 55h-196l-64 -55l-20 -110h306zM215 629h262l-8 -46h-262z" />
    <glyph glyph-name="Ebreve" unicode="&#x114;" horiz-adv-x="574" 
d="M165 700h433l-9 -52h-375l-48 -270h347l-9 -52h-347l-48 -274h375l-9 -52h-433zM265 838l10 53h48l-8 -40l35 -41h79l48 41l8 40h48l-11 -58l-76 -66h-123z" />
    <glyph glyph-name="ebreve" unicode="&#x115;" horiz-adv-x="553" 
d="M42 90l58 327l95 81h245l76 -91l-31 -173h-361l-23 -128l46 -55h193l65 54l8 44h56l-12 -66l-97 -83h-243zM438 283l19 110l-45 55h-196l-64 -55l-20 -110h306zM218 636l10 53h48l-8 -40l35 -41h79l48 41l8 40h48l-11 -58l-76 -66h-123z" />
    <glyph glyph-name="Edotaccent" unicode="&#x116;" horiz-adv-x="574" 
d="M165 700h433l-9 -52h-375l-48 -270h347l-9 -52h-347l-48 -274h375l-9 -52h-433zM362 802l7 38l26 22h38l19 -23l-7 -38l-25 -22h-39z" />
    <glyph glyph-name="edotaccent" unicode="&#x117;" horiz-adv-x="553" 
d="M42 90l58 327l95 81h245l76 -91l-31 -173h-361l-23 -128l46 -55h193l65 54l8 44h56l-12 -66l-97 -83h-243zM438 283l19 110l-45 55h-196l-64 -55l-20 -110h306zM299 600l7 38l26 22h38l19 -23l-7 -38l-25 -22h-39z" />
    <glyph glyph-name="Eogonek" unicode="&#x118;" horiz-adv-x="574" 
d="M165 700h433l-9 -52h-375l-48 -270h347l-9 -52h-347l-48 -274h375l-9 -52h-433zM347 -126l11 65l64 61h53l-68 -69l-7 -43l22 -26h68l-8 -43h-90z" />
    <glyph glyph-name="eogonek" unicode="&#x119;" horiz-adv-x="553" 
d="M42 90l58 327l95 81h245l76 -91l-31 -173h-361l-23 -128l46 -55h193l65 54l8 44h56l-12 -66l-97 -83h-243zM438 283l19 110l-45 55h-196l-64 -55l-20 -110h306zM233 -126l11 65l64 61h53l-68 -69l-7 -43l22 -26h68l-8 -43h-90z" />
    <glyph glyph-name="Ecaron" unicode="&#x11a;" horiz-adv-x="574" 
d="M165 700h433l-9 -52h-375l-48 -270h347l-9 -52h-347l-48 -274h375l-9 -52h-433zM298 900h53l49 -94h5l81 94h59l-117 -133h-59z" />
    <glyph glyph-name="ecaron" unicode="&#x11b;" horiz-adv-x="553" 
d="M42 90l58 327l95 81h245l76 -91l-31 -173h-361l-23 -128l46 -55h193l65 54l8 44h56l-12 -66l-97 -83h-243zM438 283l19 110l-45 55h-196l-64 -55l-20 -110h306zM235 698h53l49 -94h5l81 94h59l-117 -133h-59z" />
    <glyph glyph-name="Gcircumflex" unicode="&#x11c;" horiz-adv-x="644" 
d="M51 110l86 490l118 100h297l87 -105l-8 -49h-58l7 35l-57 67h-247l-86 -72l-80 -451l61 -73h243l85 72l32 182h-161l9 52h219l-46 -259l-117 -99h-294zM411 900h59l70 -133h-53l-49 95h-5l-82 -95h-57z" />
    <glyph glyph-name="gcircumflex" unicode="&#x11d;" horiz-adv-x="572" 
d="M535 498l-111 -634l-96 -81h-239l-62 76l8 52h56l-6 -38l32 -40h191l64 54l35 203l-115 -90h-176l-74 90l58 327l95 81h186l81 -101l18 101h55zM450 334l-93 114h-141l-64 -54l-52 -289l45 -54h143l131 103zM334 698h59l70 -133h-53l-49 95h-5l-82 -95h-57z" />
    <glyph glyph-name="Gbreve" unicode="&#x11e;" horiz-adv-x="644" 
d="M51 110l86 490l118 100h297l87 -105l-8 -49h-58l7 35l-57 67h-247l-86 -72l-80 -451l61 -73h243l85 72l32 182h-161l9 52h219l-46 -259l-117 -99h-294zM300 838l10 53h48l-8 -40l35 -41h79l48 41l8 40h48l-11 -58l-76 -66h-123z" />
    <glyph glyph-name="gbreve" unicode="&#x11f;" horiz-adv-x="572" 
d="M535 498l-111 -634l-96 -81h-239l-62 76l8 52h56l-6 -38l32 -40h191l64 54l35 203l-115 -90h-176l-74 90l58 327l95 81h186l81 -101l18 101h55zM450 334l-93 114h-141l-64 -54l-52 -289l45 -54h143l131 103zM223 636l10 53h48l-8 -40l35 -41h79l48 41l8 40h48l-11 -58
l-76 -66h-123z" />
    <glyph glyph-name="Gdotaccent" unicode="&#x120;" horiz-adv-x="644" 
d="M51 110l86 490l118 100h297l87 -105l-8 -49h-58l7 35l-57 67h-247l-86 -72l-80 -451l61 -73h243l85 72l32 182h-161l9 52h219l-46 -259l-117 -99h-294zM381 802l7 38l26 22h38l19 -23l-7 -38l-25 -22h-39z" />
    <glyph glyph-name="gdotaccent" unicode="&#x121;" horiz-adv-x="572" 
d="M535 498l-111 -634l-96 -81h-239l-62 76l8 52h56l-6 -38l32 -40h191l64 54l35 203l-115 -90h-176l-74 90l58 327l95 81h186l81 -101l18 101h55zM450 334l-93 114h-141l-64 -54l-52 -289l45 -54h143l131 103zM304 600l7 38l26 22h38l19 -23l-7 -38l-25 -22h-39z" />
    <glyph glyph-name="uni0122" unicode="&#x122;" horiz-adv-x="644" 
d="M51 110l86 490l118 100h297l87 -105l-8 -49h-58l7 35l-57 67h-247l-86 -72l-80 -451l61 -73h243l85 72l32 182h-161l9 52h219l-46 -259l-117 -99h-294zM252 -154h-13l-20 25l6 37l30 24h36l20 -24l-11 -62l-66 -121h-35z" />
    <glyph glyph-name="uni0123" unicode="&#x123;" horiz-adv-x="572" 
d="M535 498l-111 -634l-96 -81h-239l-62 76l8 52h56l-6 -38l32 -40h191l64 54l35 203l-115 -90h-176l-74 90l58 327l95 81h186l81 -101l18 101h55zM450 334l-93 114h-141l-64 -54l-52 -289l45 -54h143l131 103zM359 648h13l20 -24l-6 -37l-30 -25h-36l-20 25l11 61l66 121
h34z" />
    <glyph glyph-name="Hcircumflex" unicode="&#x124;" horiz-adv-x="666" 
d="M165 700h58l-57 -325h380l56 325h58l-123 -700h-58l57 323h-380l-57 -323h-57zM418 900h59l70 -133h-53l-49 95h-5l-82 -95h-57z" />
    <glyph glyph-name="hcircumflex" unicode="&#x125;" horiz-adv-x="562" 
d="M164 714h56l-60 -329l132 113h148l74 -90l-71 -408h-56l69 393l-45 54h-108l-155 -131l-56 -316h-56zM370 900h59l70 -133h-53l-49 95h-5l-82 -95h-57z" />
    <glyph glyph-name="Hbar" unicode="&#x126;" horiz-adv-x="761" 
d="M777 514h-103l-90 -514h-58l57 323h-380l-57 -323h-57l90 514h-102l8 47h103l24 139h58l-24 -139h379l24 139h58l-24 -139h102zM617 514h-380l-24 -139h380z" />
    <glyph glyph-name="hbar" unicode="&#x127;" horiz-adv-x="587" 
d="M539 408l-71 -408h-56l69 393l-45 54h-108l-155 -131l-56 -316h-56l105 585h-92l9 47h91l15 82h56l-15 -82h150l-9 -47h-150l-36 -200l132 113h148z" />
    <glyph glyph-name="Itilde" unicode="&#x128;" horiz-adv-x="238" 
d="M170 700h58l-124 -700h-58zM182 827h-21l-25 -20l-4 -24h-47l7 38l55 47h56l55 -50h22l23 20l5 25h46l-6 -39l-56 -47h-55z" />
    <glyph glyph-name="itilde" unicode="&#x129;" horiz-adv-x="236" 
d="M134 498h56l-88 -498h-56zM146 625h-21l-25 -20l-4 -24h-47l7 38l55 47h56l55 -50h22l23 20l5 25h46l-6 -39l-56 -47h-55z" />
    <glyph glyph-name="Imacron" unicode="&#x12a;" horiz-adv-x="238" 
d="M170 700h58l-124 -700h-58zM90 831h262l-8 -46h-262z" />
    <glyph glyph-name="imacron" unicode="&#x12b;" horiz-adv-x="236" 
d="M134 498h56l-88 -498h-56zM54 629h262l-8 -46h-262z" />
    <glyph glyph-name="Ibreve" unicode="&#x12c;" horiz-adv-x="238" 
d="M170 700h58l-124 -700h-58zM93 838l10 53h48l-8 -40l35 -41h79l48 41l8 40h48l-11 -58l-76 -66h-123z" />
    <glyph glyph-name="ibreve" unicode="&#x12d;" horiz-adv-x="236" 
d="M134 498h56l-88 -498h-56zM57 636l10 53h48l-8 -40l35 -41h79l48 41l8 40h48l-11 -58l-76 -66h-123z" />
    <glyph glyph-name="Iogonek" unicode="&#x12e;" horiz-adv-x="238" 
d="M170 700h58l-124 -700h-58zM-24 -126l11 65l64 61h53l-68 -69l-7 -43l22 -26h68l-8 -43h-90z" />
    <glyph glyph-name="iogonek" unicode="&#x12f;" horiz-adv-x="236" 
d="M140 615l7 38l29 25h36l21 -25l-7 -39l-29 -24h-37zM134 498h56l-88 -498h-56zM-25 -126l11 65l64 61h53l-68 -69l-7 -43l22 -26h68l-8 -43h-90z" />
    <glyph glyph-name="Idotaccent" unicode="&#x130;" horiz-adv-x="238" 
d="M170 700h58l-124 -700h-58zM174 802l7 38l26 22h38l19 -23l-7 -38l-25 -22h-39z" />
    <glyph glyph-name="dotlessi" unicode="&#x131;" horiz-adv-x="236" 
d="M134 498h56l-88 -498h-56z" />
    <glyph glyph-name="IJ" unicode="&#x132;" horiz-adv-x="769" 
d="M170 700h58l-124 -700h-58zM237 109l14 84h56l-12 -68l61 -73h179l72 61l104 587h57l-108 -612l-103 -88h-231z" />
    <glyph glyph-name="ij" unicode="&#x133;" horiz-adv-x="471" 
d="M140 615l7 38l29 25h36l21 -25l-7 -39l-29 -24h-37zM134 498h56l-88 -498h-56zM375 615l7 38l29 25h36l21 -25l-7 -39l-28 -24h-37zM102 -168h95l65 55l107 611h56l-112 -635l-96 -81h-124z" />
    <glyph glyph-name="Jcircumflex" unicode="&#x134;" horiz-adv-x="548" 
d="M16 109l14 84h56l-12 -68l61 -73h179l72 61l104 587h57l-108 -612l-103 -88h-231zM524 900h59l70 -133h-53l-49 95h-5l-82 -95h-57z" />
    <glyph glyph-name="jcircumflex" unicode="&#x135;" horiz-adv-x="246" 
d="M-123 -168h95l64 54l108 612h56l-111 -630l-101 -86h-120zM178 698h59l70 -133h-53l-49 95h-5l-82 -95h-57z" />
    <glyph glyph-name="uni0136" unicode="&#x136;" horiz-adv-x="603" 
d="M165 700h58l-57 -324h174l236 324h67l-254 -349l145 -351h-60l-134 324h-183l-57 -324h-58zM233 -154h-13l-20 25l6 37l30 24h36l20 -24l-11 -62l-66 -121h-35z" />
    <glyph glyph-name="uni0137" unicode="&#x137;" horiz-adv-x="509" 
d="M164 714h56l-78 -430h120l188 214h68l-210 -240l132 -258h-60l-119 234h-128l-41 -234h-56zM185 -154h-13l-20 25l6 37l30 24h36l20 -24l-11 -62l-66 -121h-35z" />
    <glyph glyph-name="kgreenlandic" unicode="&#x138;" horiz-adv-x="553" 
d="M124 498h58l-40 -224h160l185 224h70l-206 -247l133 -251h-62l-119 222h-170l-39 -222h-58z" />
    <glyph glyph-name="Lacute" unicode="&#x139;" horiz-adv-x="529" 
d="M165 700h58l-114 -648h355l-9 -52h-413zM284 920h66l-114 -153h-53z" />
    <glyph glyph-name="lacute" unicode="&#x13a;" horiz-adv-x="226" 
d="M168 714h56l-127 -714h-56zM285 935h66l-114 -153h-53z" />
    <glyph glyph-name="uni013B" unicode="&#x13b;" horiz-adv-x="529" 
d="M165 700h58l-114 -648h355l-9 -52h-413zM217 -154h-13l-20 25l6 37l30 24h36l20 -24l-11 -62l-66 -121h-35z" />
    <glyph glyph-name="uni013C" unicode="&#x13c;" horiz-adv-x="226" 
d="M36 -154h-13l-20 25l6 37l30 24h36l20 -24l-11 -62l-66 -121h-35zM168 714h56l-127 -714h-56z" />
    <glyph glyph-name="Lcaron" unicode="&#x13d;" horiz-adv-x="575" 
d="M165 700h58l-114 -648h355l-9 -52h-413zM553 621h-13l-20 25l6 37l30 24h36l20 -24l-11 -62l-66 -121h-35z" />
    <glyph glyph-name="lcaron" unicode="&#x13e;" horiz-adv-x="355" 
d="M168 714h56l-127 -714h-56zM329 621h-13l-20 25l6 37l30 24h36l20 -24l-11 -62l-66 -121h-35z" />
    <glyph glyph-name="Ldot" unicode="&#x13f;" horiz-adv-x="539" 
d="M165 700h58l-114 -648h355l-9 -52h-413zM344 259l7 37l29 24h37l20 -24l-7 -37l-28 -25h-37z" />
    <glyph glyph-name="ldot" unicode="&#x140;" horiz-adv-x="354" 
d="M168 714h56l-127 -714h-56zM228 229l7 37l29 24h37l20 -24l-7 -37l-28 -25h-37z" />
    <glyph glyph-name="Lslash" unicode="&#x141;" horiz-adv-x="569" 
d="M504 52l-9 -52h-413l49 278l-118 -71l9 56l119 72l64 365h58l-57 -326l148 89l-10 -56l-148 -90l-47 -265h355z" />
    <glyph glyph-name="lslash" unicode="&#x142;" horiz-adv-x="311" 
d="M321 416l-122 -79l-60 -337h-56l53 296l-121 -78l10 56l121 78l64 362h56l-57 -321l121 79z" />
    <glyph glyph-name="Nacute" unicode="&#x143;" horiz-adv-x="665" 
d="M165 700h58l273 -605h2l107 605h54l-123 -700h-58l-272 606h-2l-107 -606h-55zM501 920h66l-114 -153h-53z" />
    <glyph glyph-name="nacute" unicode="&#x144;" horiz-adv-x="560" 
d="M124 498h55l-20 -113l133 113h146l74 -90l-71 -408h-56l69 393l-45 54h-106l-155 -131l-56 -316h-56zM419 718h66l-114 -153h-53z" />
    <glyph glyph-name="uni0145" unicode="&#x145;" horiz-adv-x="665" 
d="M165 700h58l273 -605h2l107 605h54l-123 -700h-58l-272 606h-2l-107 -606h-55zM255 -154h-13l-20 25l6 37l30 24h36l20 -24l-11 -62l-66 -121h-35z" />
    <glyph glyph-name="uni0146" unicode="&#x146;" horiz-adv-x="560" 
d="M124 498h55l-20 -113l133 113h146l74 -90l-71 -408h-56l69 393l-45 54h-106l-155 -131l-56 -316h-56zM211 -154h-13l-20 25l6 37l30 24h36l20 -24l-11 -62l-66 -121h-35z" />
    <glyph glyph-name="Ncaron" unicode="&#x147;" horiz-adv-x="665" 
d="M165 700h58l273 -605h2l107 605h54l-123 -700h-58l-272 606h-2l-107 -606h-55zM324 900h53l49 -94h5l81 94h59l-117 -133h-59z" />
    <glyph glyph-name="ncaron" unicode="&#x148;" horiz-adv-x="560" 
d="M124 498h55l-20 -113l133 113h146l74 -90l-71 -408h-56l69 393l-45 54h-106l-155 -131l-56 -316h-56zM242 698h53l49 -94h5l81 94h59l-117 -133h-59z" />
    <glyph glyph-name="napostrophe" unicode="&#x149;" horiz-adv-x="682" 
d="M246 498h55l-20 -113l133 113h146l74 -90l-71 -408h-56l69 393l-45 54h-106l-155 -131l-56 -316h-56zM148 538h-13l-20 25l6 37l30 24h36l20 -24l-11 -62l-66 -121h-35z" />
    <glyph glyph-name="Eng" unicode="&#x14a;" horiz-adv-x="663" 
d="M658 700l-124 -700l-23 -132l-101 -86h-120l8 51h95l65 54l20 113l-272 606h-2l-107 -606h-55l123 700h58l271 -604h2l107 604h55z" />
    <glyph glyph-name="eng" unicode="&#x14b;" horiz-adv-x="559" 
d="M513 411l-73 -411l-23 -134l-99 -84h-121l8 50h96l63 54l20 114l70 394l-46 53h-105l-155 -131l-56 -316h-56l88 498h55l-20 -116l136 116h146z" />
    <glyph glyph-name="Omacron" unicode="&#x14c;" horiz-adv-x="668" 
d="M51 110l86 490l118 100h308l90 -109l-87 -492l-116 -99h-309zM428 52l85 73l80 451l-61 72h-256l-86 -72l-80 -451l61 -73h257zM306 831h262l-8 -46h-262z" />
    <glyph glyph-name="omacron" unicode="&#x14d;" horiz-adv-x="562" 
d="M42 89l58 328l95 81h250l75 -91l-58 -327l-94 -80h-252zM346 51l64 54l51 289l-45 54h-200l-64 -54l-51 -289l45 -54h200zM218 629h262l-8 -46h-262z" />
    <glyph glyph-name="Obreve" unicode="&#x14e;" horiz-adv-x="668" 
d="M51 110l86 490l118 100h308l90 -109l-87 -492l-116 -99h-309zM428 52l85 73l80 451l-61 72h-256l-86 -72l-80 -451l61 -73h257zM309 838l10 53h48l-8 -40l35 -41h79l48 41l8 40h48l-11 -58l-76 -66h-123z" />
    <glyph glyph-name="obreve" unicode="&#x14f;" horiz-adv-x="562" 
d="M42 89l58 328l95 81h250l75 -91l-58 -327l-94 -80h-252zM346 51l64 54l51 289l-45 54h-200l-64 -54l-51 -289l45 -54h200zM221 636l10 53h48l-8 -40l35 -41h79l48 41l8 40h48l-11 -58l-76 -66h-123z" />
    <glyph glyph-name="Ohungarumlaut" unicode="&#x150;" horiz-adv-x="668" 
d="M51 110l86 490l118 100h308l90 -109l-87 -492l-116 -99h-309zM428 52l85 73l80 451l-61 72h-256l-86 -72l-80 -451l61 -73h257zM432 920h63l-114 -153h-53zM576 920h63l-114 -153h-53z" />
    <glyph glyph-name="ohungarumlaut" unicode="&#x151;" horiz-adv-x="562" 
d="M42 89l58 328l95 81h250l75 -91l-58 -327l-94 -80h-252zM346 51l64 54l51 289l-45 54h-200l-64 -54l-51 -289l45 -54h200zM344 718h63l-114 -153h-53zM488 718h63l-114 -153h-53z" />
    <glyph glyph-name="OE" unicode="&#x152;" horiz-adv-x="1006" 
d="M645 545l-30 -168h328l-9 -52h-328l-20 -117l-27 -156h357l-10 -52h-409l12 70l-82 -70h-286l-90 110l86 490l118 100h291l61 -73l13 73h410l-10 -52h-357zM516 138l75 424l-72 86h-243l-86 -72l-80 -451l61 -73h244z" />
    <glyph glyph-name="oe" unicode="&#x153;" horiz-adv-x="908" 
d="M489 234l-23 -128l46 -55h183l65 54l8 44h56l-12 -66l-97 -83h-232l-50 60l-71 -60h-246l-74 89l58 328l95 81h249l48 -59l69 59h234l76 -91l-31 -173h-351zM409 105l45 252l7 37l-45 54h-200l-64 -54l-51 -289l45 -54h200zM517 393l-18 -100l-2 -10h296l19 110l-45 55
h-186z" />
    <glyph glyph-name="Racute" unicode="&#x154;" horiz-adv-x="643" 
d="M583 389l-91 -77l66 -88l-39 -224h-58l38 213l-67 90h-279l-53 -303h-58l123 700h381l76 -91zM563 595l-45 54h-304l-52 -295h303l65 54zM482 920h66l-114 -153h-53z" />
    <glyph glyph-name="racute" unicode="&#x155;" horiz-adv-x="377" 
d="M124 498h55l-16 -93l110 93h123l-9 -50h-105l-131 -111l-59 -337h-56zM389 718h66l-114 -153h-53z" />
    <glyph glyph-name="uni0156" unicode="&#x156;" horiz-adv-x="643" 
d="M583 389l-91 -77l66 -88l-39 -224h-58l38 213l-67 90h-279l-53 -303h-58l123 700h381l76 -91zM563 595l-45 54h-304l-52 -295h303l65 54zM244 -154h-13l-20 25l6 37l30 24h36l20 -24l-11 -62l-66 -121h-35z" />
    <glyph glyph-name="uni0157" unicode="&#x157;" horiz-adv-x="377" 
d="M124 498h55l-16 -93l110 93h123l-9 -50h-105l-131 -111l-59 -337h-56zM34 -154h-13l-20 25l6 37l30 24h36l20 -24l-11 -62l-66 -121h-35z" />
    <glyph glyph-name="Rcaron" unicode="&#x158;" horiz-adv-x="643" 
d="M583 389l-91 -77l66 -88l-39 -224h-58l38 213l-67 90h-279l-53 -303h-58l123 700h381l76 -91zM563 595l-45 54h-304l-52 -295h303l65 54zM305 900h53l49 -94h5l81 94h59l-117 -133h-59z" />
    <glyph glyph-name="rcaron" unicode="&#x159;" horiz-adv-x="377" 
d="M124 498h55l-16 -93l110 93h123l-9 -50h-105l-131 -111l-59 -337h-56zM212 698h53l49 -94h5l81 94h59l-117 -133h-59z" />
    <glyph glyph-name="Sacute" unicode="&#x15a;" horiz-adv-x="605" 
d="M43 92l8 48h57l-6 -33l45 -55h246l65 57l30 170l-45 55h-268l-72 88l35 196l96 82h286l76 -91l-9 -50h-57l6 35l-45 54h-236l-65 -54l-27 -154l45 -54h267l73 -88l-38 -216l-96 -82h-295zM468 920h66l-114 -153h-53z" />
    <glyph glyph-name="sacute" unicode="&#x15b;" horiz-adv-x="504" 
d="M25 80l11 59h56l-8 -45l37 -44h191l53 44l15 88l-37 45h-214l-61 74l22 126l84 71h227l67 -81l-11 -58h-56l8 45l-36 45h-178l-53 -45l-15 -84l38 -45h210l64 -78l-22 -125l-85 -72h-240zM374 718h66l-114 -153h-53z" />
    <glyph glyph-name="Scircumflex" unicode="&#x15c;" horiz-adv-x="605" 
d="M43 92l8 48h57l-6 -33l45 -55h246l65 57l30 170l-45 55h-268l-72 88l35 196l96 82h286l76 -91l-9 -50h-57l6 35l-45 54h-236l-65 -54l-27 -154l45 -54h267l73 -88l-38 -216l-96 -82h-295zM385 900h59l70 -133h-53l-49 95h-5l-82 -95h-57z" />
    <glyph glyph-name="scircumflex" unicode="&#x15d;" horiz-adv-x="504" 
d="M25 80l11 59h56l-8 -45l37 -44h191l53 44l15 88l-37 45h-214l-61 74l22 126l84 71h227l67 -81l-11 -58h-56l8 45l-36 45h-178l-53 -45l-15 -84l38 -45h210l64 -78l-22 -125l-85 -72h-240zM291 698h59l70 -133h-53l-49 95h-5l-82 -95h-57z" />
    <glyph glyph-name="Scedilla" unicode="&#x15e;" horiz-adv-x="605" 
d="M530 559l6 35l-45 54h-236l-65 -54l-27 -154l45 -54h267l73 -88l-38 -216l-96 -82h-119l-32 -56h64l44 -53l-13 -73l-52 -44h-144l7 43h119l27 23l6 38l-19 22h-100l7 39l35 61h-125l-76 92l8 48h57l-6 -33l45 -55h246l65 57l30 170l-45 55h-268l-72 88l35 196l96 82h286
l76 -91l-9 -50h-57z" />
    <glyph glyph-name="scedilla" unicode="&#x15f;" horiz-adv-x="504" 
d="M401 359l8 45l-36 45h-178l-53 -45l-15 -84l38 -45h210l64 -78l-22 -125l-85 -72h-89l-32 -56h64l44 -53l-13 -73l-52 -44h-144l7 43h119l27 23l6 38l-19 22h-100l7 39l35 61h-100l-67 80l11 59h56l-8 -45l37 -44h191l53 44l15 88l-37 45h-214l-61 74l22 126l84 71h227
l67 -81l-11 -58h-56z" />
    <glyph glyph-name="Scaron" unicode="&#x160;" horiz-adv-x="605" 
d="M43 92l8 48h57l-6 -33l45 -55h246l65 57l30 170l-45 55h-268l-72 88l35 196l96 82h286l76 -91l-9 -50h-57l6 35l-45 54h-236l-65 -54l-27 -154l45 -54h267l73 -88l-38 -216l-96 -82h-295zM291 900h53l49 -94h5l81 94h59l-117 -133h-59z" />
    <glyph glyph-name="scaron" unicode="&#x161;" horiz-adv-x="504" 
d="M25 80l11 59h56l-8 -45l37 -44h191l53 44l15 88l-37 45h-214l-61 74l22 126l84 71h227l67 -81l-11 -58h-56l8 45l-36 45h-178l-53 -45l-15 -84l38 -45h210l64 -78l-22 -125l-85 -72h-240zM197 698h53l49 -94h5l81 94h59l-117 -133h-59z" />
    <glyph glyph-name="uni0162" unicode="&#x162;" horiz-adv-x="552" 
d="M318 649h-212l9 51h481l-9 -51h-211l-115 -649h-57zM118 -210h118l27 23l7 38l-19 22h-100l7 39l50 88h51l-48 -83h65l44 -53l-13 -73l-53 -44h-144z" />
    <glyph glyph-name="uni0163" unicode="&#x163;" horiz-adv-x="382" 
d="M216 448l-60 -343l45 -55h100l-8 -50h-96l-32 -56h64l44 -53l-13 -73l-52 -44h-144l7 43h119l27 23l6 38l-19 22h-100l7 39l45 79l-59 72l63 359h-89l8 49h92l29 162h54l-29 -162h155l-8 -50h-156z" />
    <glyph glyph-name="Tcaron" unicode="&#x164;" horiz-adv-x="552" 
d="M318 649h-212l9 51h481l-9 -51h-211l-115 -649h-57zM267 900h53l49 -94h5l81 94h59l-117 -133h-59z" />
    <glyph glyph-name="tcaron" unicode="&#x165;" horiz-adv-x="508" 
d="M97 90l63 359h-89l8 49h92l29 162h54l-29 -162h155l-8 -50h-156l-60 -343l45 -55h100l-8 -50h-122zM494 621h-13l-20 25l6 37l30 24h36l20 -24l-11 -62l-66 -121h-35z" />
    <glyph glyph-name="Tbar" unicode="&#x166;" horiz-adv-x="552" 
d="M376 649l-52 -295h173l-9 -48h-173l-54 -306h-57l54 306h-166l8 48h166l52 295h-212l9 51h481l-9 -51h-211z" />
    <glyph glyph-name="tbar" unicode="&#x167;" horiz-adv-x="382" 
d="M216 448l-32 -181h156l-9 -47h-155l-20 -115l45 -55h100l-8 -50h-122l-74 90l23 130h-90l9 47h89l32 182h-89l8 49h92l29 162h54l-29 -162h155l-8 -50h-156z" />
    <glyph glyph-name="Utilde" unicode="&#x168;" horiz-adv-x="668" 
d="M61 110l104 590h58l-102 -576l60 -72h237l85 72l102 576h58l-107 -601l-116 -99h-289zM398 827h-21l-25 -20l-4 -24h-47l7 38l55 47h56l55 -50h22l23 20l5 25h46l-6 -39l-56 -47h-55z" />
    <glyph glyph-name="utilde" unicode="&#x169;" horiz-adv-x="559" 
d="M48 90l71 408h56l-69 -393l45 -54h106l154 132l56 315h56l-88 -498h-55l19 114l-132 -114h-146zM306 625h-21l-25 -20l-4 -24h-47l7 38l55 47h56l55 -50h22l23 20l5 25h46l-6 -39l-56 -47h-55z" />
    <glyph glyph-name="Umacron" unicode="&#x16a;" horiz-adv-x="668" 
d="M61 110l104 590h58l-102 -576l60 -72h237l85 72l102 576h58l-107 -601l-116 -99h-289zM306 831h262l-8 -46h-262z" />
    <glyph glyph-name="umacron" unicode="&#x16b;" horiz-adv-x="559" 
d="M48 90l71 408h56l-69 -393l45 -54h106l154 132l56 315h56l-88 -498h-55l19 114l-132 -114h-146zM214 629h262l-8 -46h-262z" />
    <glyph glyph-name="Ubreve" unicode="&#x16c;" horiz-adv-x="668" 
d="M61 110l104 590h58l-102 -576l60 -72h237l85 72l102 576h58l-107 -601l-116 -99h-289zM309 838l10 53h48l-8 -40l35 -41h79l48 41l8 40h48l-11 -58l-76 -66h-123z" />
    <glyph glyph-name="ubreve" unicode="&#x16d;" horiz-adv-x="559" 
d="M48 90l71 408h56l-69 -393l45 -54h106l154 132l56 315h56l-88 -498h-55l19 114l-132 -114h-146zM217 636l10 53h48l-8 -40l35 -41h79l48 41l8 40h48l-11 -58l-76 -66h-123z" />
    <glyph glyph-name="Uring" unicode="&#x16e;" horiz-adv-x="668" 
d="M61 110l104 590h58l-102 -576l60 -72h237l85 72l102 576h58l-107 -601l-116 -99h-289zM340 813l14 80l59 50h82l46 -56l-14 -80l-58 -50h-83zM456 798l32 27l8 50l-22 27h-49l-32 -27l-8 -50l22 -27h49z" />
    <glyph glyph-name="uring" unicode="&#x16f;" horiz-adv-x="559" 
d="M48 90l71 408h56l-69 -393l45 -54h106l154 132l56 315h56l-88 -498h-55l19 114l-132 -114h-146zM248 611l14 80l59 50h82l46 -56l-14 -80l-58 -50h-83zM364 596l32 27l8 50l-22 27h-49l-32 -27l-8 -50l22 -27h49z" />
    <glyph glyph-name="Uhungarumlaut" unicode="&#x170;" horiz-adv-x="668" 
d="M61 110l104 590h58l-102 -576l60 -72h237l85 72l102 576h58l-107 -601l-116 -99h-289zM432 920h63l-114 -153h-53zM576 920h63l-114 -153h-53z" />
    <glyph glyph-name="uhungarumlaut" unicode="&#x171;" horiz-adv-x="559" 
d="M48 90l71 408h56l-69 -393l45 -54h106l154 132l56 315h56l-88 -498h-55l19 114l-132 -114h-146zM340 718h63l-114 -153h-53zM484 718h63l-114 -153h-53z" />
    <glyph glyph-name="Uogonek" unicode="&#x172;" horiz-adv-x="668" 
d="M61 110l104 590h58l-102 -576l60 -72h237l85 72l102 576h58l-107 -601l-116 -99h-289zM214 -126l11 65l64 61h53l-68 -69l-7 -43l22 -26h68l-8 -43h-90z" />
    <glyph glyph-name="uogonek" unicode="&#x173;" horiz-adv-x="559" 
d="M48 90l71 408h56l-69 -393l45 -54h106l154 132l56 315h56l-88 -498h-55l19 114l-132 -114h-146zM307 -126l11 65l64 61h53l-68 -69l-7 -43l22 -26h68l-8 -43h-90z" />
    <glyph glyph-name="Wcircumflex" unicode="&#x174;" horiz-adv-x="851" 
d="M125 700h57l8 -619h2l287 619h57l65 -619h2l224 619h59l-260 -700h-64l-66 618h-2l-290 -618h-64zM515 900h59l70 -133h-53l-49 95h-5l-82 -95h-57z" />
    <glyph glyph-name="wcircumflex" unicode="&#x175;" horiz-adv-x="694" 
d="M84 498h57l14 -433h3l206 433h56l40 -433h3l176 433h59l-212 -498h-62l-42 431h-3l-205 -431h-63zM399 698h59l70 -133h-53l-49 95h-5l-82 -95h-57z" />
    <glyph glyph-name="Ycircumflex" unicode="&#x176;" horiz-adv-x="572" 
d="M266 294l-166 406h58l140 -353h2l266 353h66l-309 -406l-51 -294h-58zM364 900h59l70 -133h-53l-49 95h-5l-82 -95h-57z" />
    <glyph glyph-name="ycircumflex" unicode="&#x177;" horiz-adv-x="561" 
d="M524 498l-110 -629l-103 -86h-228l-62 75l9 52h56l-7 -39l32 -38h186l64 54l40 227l-134 -114h-147l-73 89l72 409h56l-69 -393l45 -54h107l155 132l55 315h56zM330 698h59l70 -133h-53l-49 95h-5l-82 -95h-57z" />
    <glyph glyph-name="Ydieresis" unicode="&#x178;" horiz-adv-x="572" 
d="M266 294l-166 406h58l140 -353h2l266 353h66l-309 -406l-51 -294h-58zM239 805l6 36l28 23h36l19 -23l-7 -37l-26 -22h-37zM430 805l7 36l26 23h36l20 -23l-7 -37l-26 -22h-37z" />
    <glyph glyph-name="Zacute" unicode="&#x179;" horiz-adv-x="560" 
d="M22 60l493 589v2h-379l8 49h440l-10 -59l-494 -589v-2h389l-8 -50h-449zM454 920h66l-114 -153h-53z" />
    <glyph glyph-name="zacute" unicode="&#x17a;" horiz-adv-x="466" 
d="M11 55l383 394v2h-303l8 47h366l-10 -55l-383 -393v-2h313l-8 -48h-376zM371 718h66l-114 -153h-53z" />
    <glyph glyph-name="Zdotaccent" unicode="&#x17b;" horiz-adv-x="560" 
d="M22 60l493 589v2h-379l8 49h440l-10 -59l-494 -589v-2h389l-8 -50h-449zM341 802l7 38l26 22h38l19 -23l-7 -38l-25 -22h-39z" />
    <glyph glyph-name="zdotaccent" unicode="&#x17c;" horiz-adv-x="466" 
d="M11 55l383 394v2h-303l8 47h366l-10 -55l-383 -393v-2h313l-8 -48h-376zM258 600l7 38l26 22h38l19 -23l-7 -38l-25 -22h-39z" />
    <glyph glyph-name="Zcaron" unicode="&#x17d;" horiz-adv-x="560" 
d="M22 60l493 589v2h-379l8 49h440l-10 -59l-494 -589v-2h389l-8 -50h-449zM277 900h53l49 -94h5l81 94h59l-117 -133h-59z" />
    <glyph glyph-name="zcaron" unicode="&#x17e;" horiz-adv-x="466" 
d="M11 55l383 394v2h-303l8 47h366l-10 -55l-383 -393v-2h313l-8 -48h-376zM194 698h53l49 -94h5l81 94h59l-117 -133h-59z" />
    <glyph glyph-name="uni018F" unicode="&#x18f;" horiz-adv-x="690" 
d="M54 126l44 248h482l31 182l-76 92h-239l-109 -92l-12 -65h-57l15 87l144 122h291l104 -126l-80 -452l-143 -122h-291zM427 52l112 95l31 175h-424l-31 -175l78 -95h234z" />
    <glyph glyph-name="florin" unicode="&#x192;" horiz-adv-x="593" 
d="M439 597l-54 -142h194l-9 -51h-205l-132 -346l-94 -80h-147l9 49h122l64 55l120 322h-160l9 51h170l59 159l97 82h150l-9 -49h-125z" />
    <glyph glyph-name="Ohorn" unicode="&#x1a0;" horiz-adv-x="726" 
d="M791 709l-18 -100l-88 -76h-42l-77 -434l-116 -99h-309l-90 110l86 490l118 100h308l90 -109l-2 -9h15l58 48l13 79h54zM593 576l-61 72h-256l-86 -72l-80 -451l61 -73h257l85 73z" />
    <glyph glyph-name="ohorn" unicode="&#x1a1;" horiz-adv-x="630" 
d="M675 508l-18 -100l-88 -76h-62l-45 -252l-94 -80h-252l-74 89l58 328l95 81h250l75 -91l-5 -26h35l58 48l13 79h54zM461 394l-45 54h-200l-64 -54l-51 -289l45 -54h200l64 54z" />
    <glyph glyph-name="Uhorn" unicode="&#x1af;" horiz-adv-x="730" 
d="M800 715l-17 -100l-89 -76h-60l-78 -440l-116 -99h-289l-90 110l104 590h58l-102 -576l60 -72h237l85 72l102 576h58l-20 -112h33l57 48l14 79h53z" />
    <glyph glyph-name="uhorn" unicode="&#x1b0;" horiz-adv-x="630" 
d="M662 508l-18 -100l-88 -76h-62l-59 -332h-55l19 114l-132 -114h-146l-73 90l71 408h56l-69 -393l45 -54h106l154 132l56 315h56l-21 -117h35l58 48l13 79h54z" />
    <glyph glyph-name="uni01CD" unicode="&#x1cd;" horiz-adv-x="605" 
d="M348 700h68l120 -700h-58l-33 200h-299l-103 -200h-62zM437 251l-63 386h-2l-200 -386h265zM294 900h53l49 -94h5l81 94h59l-117 -133h-59z" />
    <glyph glyph-name="uni01CE" unicode="&#x1ce;" horiz-adv-x="543" 
d="M36 79l22 131l88 73h272l19 111l-45 55h-176l-66 -55l-7 -45h-56l11 65l99 84h225l74 -89l-72 -409h-55l17 97l-117 -97h-168zM263 50l133 110l13 73h-247l-51 -42l-17 -98l36 -43h133zM229 698h53l49 -94h5l81 94h59l-117 -133h-59z" />
    <glyph glyph-name="uni01CF" unicode="&#x1cf;" horiz-adv-x="238" 
d="M170 700h58l-124 -700h-58zM110 900h53l49 -94h5l81 94h59l-117 -133h-59z" />
    <glyph glyph-name="uni01D0" unicode="&#x1d0;" horiz-adv-x="236" 
d="M134 498h56l-88 -498h-56zM74 698h53l49 -94h5l81 94h59l-117 -133h-59z" />
    <glyph glyph-name="uni01D1" unicode="&#x1d1;" horiz-adv-x="668" 
d="M51 110l86 490l118 100h308l90 -109l-87 -492l-116 -99h-309zM428 52l85 73l80 451l-61 72h-256l-86 -72l-80 -451l61 -73h257zM326 900h53l49 -94h5l81 94h59l-117 -133h-59z" />
    <glyph glyph-name="uni01D2" unicode="&#x1d2;" horiz-adv-x="562" 
d="M42 89l58 328l95 81h250l75 -91l-58 -327l-94 -80h-252zM346 51l64 54l51 289l-45 54h-200l-64 -54l-51 -289l45 -54h200zM238 698h53l49 -94h5l81 94h59l-117 -133h-59z" />
    <glyph glyph-name="uni01D3" unicode="&#x1d3;" horiz-adv-x="668" 
d="M61 110l104 590h58l-102 -576l60 -72h237l85 72l102 576h58l-107 -601l-116 -99h-289zM326 900h53l49 -94h5l81 94h59l-117 -133h-59z" />
    <glyph glyph-name="uni01D4" unicode="&#x1d4;" horiz-adv-x="559" 
d="M48 90l71 408h56l-69 -393l45 -54h106l154 132l56 315h56l-88 -498h-55l19 114l-132 -114h-146zM234 698h53l49 -94h5l81 94h59l-117 -133h-59z" />
    <glyph glyph-name="uni01D5" unicode="&#x1d5;" horiz-adv-x="668" 
d="M61 110l104 590h58l-102 -576l60 -72h237l85 72l102 576h58l-107 -601l-116 -99h-289zM333 981h262l-8 -45h-262zM295 805l7 36l27 23h36l19 -23l-6 -37l-26 -22h-37zM487 805l6 36l27 23h36l19 -23l-6 -37l-27 -22h-37z" />
    <glyph glyph-name="uni01D6" unicode="&#x1d6;" horiz-adv-x="559" 
d="M48 90l71 408h56l-69 -393l45 -54h106l154 132l56 315h56l-88 -498h-55l19 114l-132 -114h-146zM241 779h262l-8 -45h-262zM203 603l7 36l27 23h36l19 -23l-6 -37l-26 -22h-37zM395 603l6 36l27 23h36l19 -23l-6 -37l-27 -22h-37z" />
    <glyph glyph-name="uni01D7" unicode="&#x1d7;" horiz-adv-x="668" 
d="M61 110l104 590h58l-102 -576l60 -72h237l85 72l102 576h58l-107 -601l-116 -99h-289zM507 1029h60l-96 -126h-48zM296 805l6 36l28 23h36l19 -23l-7 -37l-26 -22h-37zM487 805l7 36l26 23h36l20 -23l-7 -37l-26 -22h-37z" />
    <glyph glyph-name="uni01D8" unicode="&#x1d8;" horiz-adv-x="559" 
d="M48 90l71 408h56l-69 -393l45 -54h106l154 132l56 315h56l-88 -498h-55l19 114l-132 -114h-146zM414 827h60l-96 -126h-48zM203 603l6 36l28 23h36l19 -23l-7 -37l-26 -22h-37zM394 603l7 36l26 23h36l20 -23l-7 -37l-26 -22h-37z" />
    <glyph glyph-name="uni01D9" unicode="&#x1d9;" horiz-adv-x="668" 
d="M61 110l104 590h58l-102 -576l60 -72h237l85 72l102 576h58l-107 -601l-116 -99h-289zM349 1021h53l48 -82h5l76 82h58l-113 -118h-55zM296 805l6 36l28 23h36l19 -23l-7 -37l-26 -22h-37zM487 805l7 36l26 23h36l20 -23l-7 -37l-26 -22h-37z" />
    <glyph glyph-name="uni01DA" unicode="&#x1da;" horiz-adv-x="559" 
d="M48 90l71 408h56l-69 -393l45 -54h106l154 132l56 315h56l-88 -498h-55l19 114l-132 -114h-146zM256 819h53l48 -82h5l76 82h58l-113 -118h-55zM203 603l6 36l28 23h36l19 -23l-7 -37l-26 -22h-37zM394 603l7 36l26 23h36l20 -23l-7 -37l-26 -22h-37z" />
    <glyph glyph-name="uni01DB" unicode="&#x1db;" horiz-adv-x="668" 
d="M61 110l104 590h58l-102 -576l60 -72h237l85 72l102 576h58l-107 -601l-116 -99h-289zM377 1029h60l40 -126h-48zM296 805l6 36l28 23h36l19 -23l-7 -37l-26 -22h-37zM487 805l7 36l26 23h36l20 -23l-7 -37l-26 -22h-37z" />
    <glyph glyph-name="uni01DC" unicode="&#x1dc;" horiz-adv-x="559" 
d="M48 90l71 408h56l-69 -393l45 -54h106l154 132l56 315h56l-88 -498h-55l19 114l-132 -114h-146zM284 827h60l40 -126h-48zM203 603l6 36l28 23h36l19 -23l-7 -37l-26 -22h-37zM394 603l7 36l26 23h36l20 -23l-7 -37l-26 -22h-37z" />
    <glyph glyph-name="Gcaron" unicode="&#x1e6;" horiz-adv-x="644" 
d="M51 110l86 490l118 100h297l87 -105l-8 -49h-58l7 35l-57 67h-247l-86 -72l-80 -451l61 -73h243l85 72l32 182h-161l9 52h219l-46 -259l-117 -99h-294zM317 900h53l49 -94h5l81 94h59l-117 -133h-59z" />
    <glyph glyph-name="gcaron" unicode="&#x1e7;" horiz-adv-x="572" 
d="M535 498l-111 -634l-96 -81h-239l-62 76l8 52h56l-6 -38l32 -40h191l64 54l35 203l-115 -90h-176l-74 90l58 327l95 81h186l81 -101l18 101h55zM450 334l-93 114h-141l-64 -54l-52 -289l45 -54h143l131 103zM240 698h53l49 -94h5l81 94h59l-117 -133h-59z" />
    <glyph glyph-name="Aringacute" unicode="&#x1fa;" horiz-adv-x="605" 
d="M348 700h68l120 -700h-58l-33 200h-299l-103 -200h-62zM437 251l-63 386h-2l-200 -386h265zM308 813l14 80l59 50h82l46 -56l-14 -80l-58 -50h-83zM424 798l32 27l8 50l-22 27h-49l-32 -27l-8 -50l22 -27h49zM510 1146h66l-114 -153h-53z" />
    <glyph glyph-name="aringacute" unicode="&#x1fb;" horiz-adv-x="543" 
d="M36 79l22 131l88 73h272l19 111l-45 55h-176l-66 -55l-7 -45h-56l11 65l99 84h225l74 -89l-72 -409h-55l17 97l-117 -97h-168zM263 50l133 110l13 73h-247l-51 -42l-17 -98l36 -43h133zM243 611l14 80l59 50h82l46 -56l-14 -80l-58 -50h-83zM359 596l32 27l8 50l-22 27
h-49l-32 -27l-8 -50l22 -27h49zM445 944h66l-114 -153h-53z" />
    <glyph glyph-name="AEacute" unicode="&#x1fc;" horiz-adv-x="915" 
d="M572 648l-48 -271h329l-9 -52h-329l-48 -273h358l-9 -52h-416l34 193h-279l-118 -193h-61l432 700h531l-9 -52h-358zM514 648h-80l-247 -403h256zM664 920h66l-114 -153h-53z" />
    <glyph glyph-name="aeacute" unicode="&#x1fd;" horiz-adv-x="877" 
d="M443 106l46 -55h175l65 54l8 44h56l-12 -66l-97 -83h-225l-67 81l-97 -81h-194l-65 79l22 131l88 73h273l6 36l13 75l-46 55h-176l-65 -55l-8 -45h-56l11 65l100 84h224l49 -58l68 58h225l76 -91l-31 -173h-343l-12 -69l-7 -38zM494 393l-19 -110h287l19 110l-45 55h-177
zM394 141l7 38l9 54h-248l-51 -42l-17 -98l36 -43h155zM578 718h66l-114 -153h-53z" />
    <glyph glyph-name="Oslashacute" unicode="&#x1fe;" horiz-adv-x="668" 
d="M624 626l29 -35l-87 -492l-116 -99h-309l-30 37l-59 -67h-62l91 104l-30 36l86 490l118 100h308l31 -38l60 68h61zM118 116l439 503l-25 29h-256l-86 -72l-80 -451zM587 583l-439 -503l23 -28h257l85 73l80 451zM503 920h66l-114 -153h-53z" />
    <glyph glyph-name="oslashacute" unicode="&#x1ff;" horiz-adv-x="562" 
d="M494 439l26 -32l-58 -327l-94 -80h-252l-21 26l-64 -66h-62l97 100l-24 29l58 328l95 81h250l21 -25l63 65h61zM105 100l323 334l-12 14h-200l-64 -54l-51 -289zM456 400l-322 -334l12 -15h200l64 54l51 289zM415 718h66l-114 -153h-53z" />
    <glyph glyph-name="uni0218" unicode="&#x218;" horiz-adv-x="605" 
d="M43 92l8 48h57l-6 -33l45 -55h246l65 57l30 170l-45 55h-268l-72 88l35 196l96 82h286l76 -91l-9 -50h-57l6 35l-45 54h-236l-65 -54l-27 -154l45 -54h267l73 -88l-38 -216l-96 -82h-295zM239 -154h-13l-20 25l6 37l30 24h36l20 -24l-11 -62l-66 -121h-35z" />
    <glyph glyph-name="uni0219" unicode="&#x219;" horiz-adv-x="504" 
d="M25 80l11 59h56l-8 -45l37 -44h191l53 44l15 88l-37 45h-214l-61 74l22 126l84 71h227l67 -81l-11 -58h-56l8 45l-36 45h-178l-53 -45l-15 -84l38 -45h210l64 -78l-22 -125l-85 -72h-240zM187 -154h-13l-20 25l6 37l30 24h36l20 -24l-11 -62l-66 -121h-35z" />
    <glyph glyph-name="uni021A" unicode="&#x21a;" horiz-adv-x="552" 
d="M318 649h-212l9 51h481l-9 -51h-211l-115 -649h-57zM202 -154h-13l-20 25l6 37l30 24h36l20 -24l-11 -62l-66 -121h-35z" />
    <glyph glyph-name="uni021B" unicode="&#x21b;" horiz-adv-x="382" 
d="M97 90l63 359h-89l8 49h92l29 162h54l-29 -162h155l-8 -50h-156l-60 -343l45 -55h100l-8 -50h-122zM141 -154h-13l-20 25l6 37l30 24h36l20 -24l-11 -62l-66 -121h-35z" />
    <glyph glyph-name="uni0237" unicode="&#x237;" horiz-adv-x="246" 
d="M-123 -168h95l64 54l108 612h56l-111 -630l-101 -86h-120z" />
    <glyph glyph-name="uni0251" unicode="&#x251;" horiz-adv-x="587" 
d="M42 90l58 327l95 81h191l78 -90l17 90h55l-80 -451h70l-8 -47h-91l-28 37l11 62l-115 -99h-179zM288 51l133 113l32 183l-88 101h-149l-64 -54l-51 -289l45 -54h142z" />
    <glyph glyph-name="uni0259" unicode="&#x259;" horiz-adv-x="553" 
d="M511 408l-58 -326l-95 -82h-245l-76 91l31 174h361l23 128l-46 55h-193l-65 -55l-8 -43h-56l12 66l97 82h243zM115 216l-19 -111l45 -54h196l64 54l20 111h-306z" />
    <glyph glyph-name="uni02BB" unicode="&#x2bb;" horiz-adv-x="241" 
d="M208 648h13l20 -24l-6 -37l-30 -25h-36l-20 25l11 61l66 121h34z" />
    <glyph glyph-name="uni02BC" unicode="&#x2bc;" horiz-adv-x="210" 
d="M160 606h-13l-20 25l6 37l30 24h36l20 -24l-11 -62l-66 -121h-35z" />
    <glyph glyph-name="uni02BE" unicode="&#x2be;" 
d="M94 631l5 -44l-15 -12l-20 27l-7 40h-2l18 28l21 22l12 -14l-18 -37l-22 3z" />
    <glyph glyph-name="uni02BF" unicode="&#x2bf;" 
d="M-7 600l15 81l59 50h44l-7 -42h-24l-32 -27l-8 -49l22 -26h24l-8 -42h-39z" />
    <glyph glyph-name="circumflex" unicode="&#x2c6;" horiz-adv-x="420" 
d="M260 698h59l70 -133h-53l-49 95h-5l-81 -95h-58z" />
    <glyph glyph-name="caron" unicode="&#x2c7;" horiz-adv-x="420" 
d="M167 698h52l49 -94h5l81 94h59l-117 -133h-59z" />
    <glyph glyph-name="uni02C8" unicode="&#x2c8;" 
d="M56 726h56l-24 -137h-56z" />
    <glyph glyph-name="uni02C9" unicode="&#x2c9;" horiz-adv-x="492" 
d="M161 617h301l-7 -42h-302z" />
    <glyph glyph-name="uni02CA" unicode="&#x2ca;" 
d="M106 716h67l-161 -153h-57z" />
    <glyph glyph-name="uni02CB" unicode="&#x2cb;" 
d="M-18 716h67l96 -153h-56z" />
    <glyph glyph-name="uni02CC" unicode="&#x2cc;" 
d="M-79 -42h56l-24 -137h-56z" />
    <glyph glyph-name="breve" unicode="&#x2d8;" horiz-adv-x="425" 
d="M152 636l10 53h48l-8 -40l34 -41h80l48 41l7 40h48l-10 -58l-77 -66h-122z" />
    <glyph glyph-name="dotaccent" unicode="&#x2d9;" horiz-adv-x="239" 
d="M140 600l7 38l26 22h38l19 -23l-7 -38l-25 -22h-39z" />
    <glyph glyph-name="ring" unicode="&#x2da;" horiz-adv-x="308" 
d="M124 611l14 80l59 50h82l46 -56l-14 -80l-58 -50h-83zM240 596l32 27l8 50l-22 27h-49l-32 -27l-8 -50l22 -27h49z" />
    <glyph glyph-name="ogonek" unicode="&#x2db;" horiz-adv-x="279" 
d="M1 -126l12 65l64 61h52l-67 -69l-7 -43l21 -26h68l-8 -43h-89z" />
    <glyph glyph-name="tilde" unicode="&#x2dc;" horiz-adv-x="391" 
d="M224 625h-21l-24 -20l-5 -24h-46l6 38l56 47h55l55 -50h22l23 20l5 25h46l-6 -39l-56 -47h-55z" />
    <glyph glyph-name="hungarumlaut" unicode="&#x2dd;" horiz-adv-x="377" 
d="M206 718h64l-115 -153h-52zM351 718h63l-115 -153h-52z" />
    <glyph glyph-name="gravecomb" unicode="&#x300;" 
d="M-34 718h66l48 -153h-53z" />
    <glyph glyph-name="acutecomb" unicode="&#x301;" 
d="M133 718h66l-114 -153h-53z" />
    <glyph glyph-name="uni0302" unicode="&#x302;" 
d="M50 698h59l70 -133h-53l-49 95h-5l-82 -95h-57z" />
    <glyph glyph-name="tildecomb" unicode="&#x303;" 
d="M28 625h-21l-25 -20l-4 -24h-47l7 38l55 47h56l55 -50h22l23 20l5 25h46l-6 -39l-56 -47h-55z" />
    <glyph glyph-name="uni0304" unicode="&#x304;" 
d="M-64 629h262l-8 -46h-262z" />
    <glyph glyph-name="uni0306" unicode="&#x306;" 
d="M-61 636l10 53h48l-8 -40l35 -41h79l48 41l8 40h48l-11 -58l-76 -66h-123z" />
    <glyph glyph-name="uni0307" unicode="&#x307;" 
d="M20 600l7 38l26 22h38l19 -23l-7 -38l-25 -22h-39z" />
    <glyph glyph-name="uni0308" unicode="&#x308;" 
d="M-74 603l6 36l28 23h36l19 -23l-7 -37l-26 -22h-37zM117 603l7 36l26 23h36l20 -23l-7 -37l-26 -22h-37z" />
    <glyph glyph-name="hookabovecomb" unicode="&#x309;" 
d="M37 600l84 73l5 27l-14 17h-58l-24 -20l-3 -20h-46l7 36l54 46h94l41 -49l-8 -46l-83 -72l-5 -27h-50z" />
    <glyph glyph-name="uni030A" unicode="&#x30a;" 
d="M-30 611l14 80l59 50h82l46 -56l-14 -80l-58 -50h-83zM86 596l32 27l8 50l-22 27h-49l-32 -27l-8 -50l22 -27h49z" />
    <glyph glyph-name="uni030B" unicode="&#x30b;" 
d="M62 718h63l-114 -153h-53zM206 718h63l-114 -153h-53z" />
    <glyph glyph-name="uni030C" unicode="&#x30c;" 
d="M-44 698h53l49 -94h5l81 94h59l-117 -133h-59z" />
    <glyph glyph-name="uni031B" unicode="&#x31b;" 
d="M-47 419h57l58 48l13 79h54l-18 -100l-88 -76h-85z" />
    <glyph glyph-name="dotbelowcomb" unicode="&#x323;" 
d="M-110 -135l7 38l26 22h38l19 -23l-7 -38l-25 -22h-39z" />
    <glyph glyph-name="uni0324" unicode="&#x324;" 
d="M-204 -134l6 36l28 23h36l19 -23l-7 -37l-26 -22h-37zM-13 -134l7 36l26 23h36l20 -23l-7 -37l-26 -22h-37z" />
    <glyph glyph-name="uni0326" unicode="&#x326;" 
d="M-78 -154h-13l-20 25l6 37l30 24h36l20 -24l-11 -62l-66 -121h-35z" />
    <glyph glyph-name="uni0327" unicode="&#x327;" 
d="M-147 -183h118l27 23l7 38l-19 22h-100l7 39l50 88h51l-48 -83h65l44 -53l-13 -73l-53 -44h-144z" />
    <glyph glyph-name="uni0328" unicode="&#x328;" 
d="M-126 -126l11 65l64 61h53l-68 -69l-7 -43l22 -26h68l-8 -43h-90z" />
    <glyph glyph-name="uni032E" unicode="&#x32e;" 
d="M-197 -133l10 53h48l-8 -40l35 -41h79l48 41l8 40h48l-11 -58l-76 -66h-123z" />
    <glyph glyph-name="uni0331" unicode="&#x331;" 
d="M-191 -90h262l-8 -46h-262z" />
    <glyph glyph-name="uni0394" unicode="&#x394;" horiz-adv-x="633" 
d="M5 49l352 651h78l122 -651l-8 -49h-553zM501 50l-108 599h-5l-321 -599h434z" />
    <glyph glyph-name="uni03A9" unicode="&#x3a9;" horiz-adv-x="683" 
d="M30 50h129l20 114l-92 111l61 341l99 84h338l78 -93l-60 -336l-131 -112l-19 -109h129l-8 -50h-184l33 184l129 110l52 296l-50 60h-284l-71 -60l-53 -301l90 -111l-31 -178h-184z" />
    <glyph glyph-name="uni03BC" unicode="&#x3bc;" horiz-adv-x="564" 
d="M528 498l-88 -498h-55l19 109l-127 -109h-135l-41 49l-44 -249h-56l84 476l39 222h56l-62 -354l-5 -29l53 -64h101l148 127l57 320h56z" />
    <glyph glyph-name="pi" unicode="&#x3c0;" horiz-adv-x="702" 
d="M561 447l-62 -352l37 -45h70l-9 -50h-90l-66 81l64 367h-248l-80 -448h-56l79 448h-105l9 50h581l-8 -51h-116z" />
    <glyph glyph-name="uni0E01" unicode="&#xe01;" horiz-adv-x="578" 
d="M99 313l66 69l-72 85l107 91h265l68 -81l-84 -477h-56l81 459l-40 48h-222l-52 -43l68 -85l-77 -84l-52 -295h-56z" />
    <glyph glyph-name="uni0E02" unicode="&#xe02;" horiz-adv-x="565" 
d="M210 78l36 204l79 131l11 64l-37 45h-102l-40 -34h46l46 -57l-12 -65l-57 -49h-73l-45 56l17 99l107 96h140l65 -77l-15 -85l-75 -127l-32 -186l34 -42h43l50 42l82 465h56l-87 -490l-79 -68h-94zM166 357l31 26l7 40l-22 26h-38l-30 -25l-7 -41l21 -26h38z" />
    <glyph glyph-name="uni0E03" unicode="&#xe03;" horiz-adv-x="578" 
d="M222 78l37 210l101 126l15 81l-19 27h-19l-63 -57l-45 57h-47l-46 -42h59l44 -55l-11 -64l-57 -48h-70l-45 55l19 107l97 93h72l35 -49l51 49h51l47 -63l-18 -100l-95 -121l-34 -191l34 -42h44l50 42l82 465h56l-87 -490l-79 -68h-95zM158 353l30 25l7 39l-21 26h-37
l-30 -25l-7 -40l21 -25h37z" />
    <glyph glyph-name="uni0E04" unicode="&#xe04;" horiz-adv-x="610" 
d="M564 472l-83 -472h-56l81 459l-40 48h-232l-56 -48l-41 -231l154 120h66l45 -57l-11 -67l-57 -49h-71l-49 60l-32 -26l-55 -42l-30 -167h-56l85 480l91 78h275zM261 240l20 -25h40l30 25l7 42l-21 25h-40l-29 -25z" />
    <glyph glyph-name="uni0E05" unicode="&#xe05;" horiz-adv-x="612" 
d="M567 479l-84 -479h-56l82 466l-30 41h-45l-94 -65l-72 65h-45l-44 -41l-42 -241l153 119h66l45 -57l-11 -67l-57 -49h-71l-49 60l-32 -26l-55 -42l-29 -163h-56l86 487l76 71h83l60 -57l79 57h82zM260 236l20 -25h40l30 25l7 42l-21 25h-40l-29 -25z" />
    <glyph glyph-name="uni0E06" unicode="&#xe06;" horiz-adv-x="649" 
d="M618 558l-98 -558h-52l-189 104l-10 -56l-56 -48h-75l-47 56l13 68l59 50h56l17 97l145 152l13 72l-19 27h-28l-63 -57l-45 57h-47l-46 -42h59l44 -55l-11 -64l-57 -48h-70l-45 55l19 107l97 93h72l35 -49l51 49h60l47 -63l-17 -95l-139 -146l-17 -98l200 -109l88 501h56
zM117 418l-7 -40l21 -25h37l30 25l7 39l-21 26h-37zM237 107l-22 26h-39l-31 -26l-7 -39l21 -27h39l32 27z" />
    <glyph glyph-name="uni0E07" unicode="&#xe07;" horiz-adv-x="471" 
d="M46 337l48 32l162 -317h40l51 293l13 48l-21 -9h-52l-45 55l13 70l57 49h72l47 -56l-83 -469l-37 -33h-91zM348 425l30 25l7 42l-20 25h-40l-30 -25l-7 -42l20 -25h40z" />
    <glyph glyph-name="uni0E08" unicode="&#xe08;" horiz-adv-x="557" 
d="M512 477l-84 -477h-56l32 177l-54 54l-6 9l-68 -58h-70l-47 57l12 67l58 50h76l110 -112l38 215l-39 48h-231l-54 -46l-10 -54h-56l14 78l86 73h281zM302 290l-21 25h-40l-29 -25l-7 -42l20 -25h40l30 25z" />
    <glyph glyph-name="uni0E09" unicode="&#xe09;" horiz-adv-x="594" 
d="M485 160l36 -42l-13 -72l-55 -46h-75l-43 53l7 38l-163 -91h-51l26 148l13 48l-19 -8h-52l-46 57l12 67l57 50h72l46 -56l-44 -249l241 130l48 272l-39 48h-238l-54 -46l-8 -44h-56l12 68l86 73h289l67 -81zM192 296l-20 25h-40l-30 -25l-7 -42l20 -25h40l30 25zM476 104
l-22 27h-36l-30 -26l-7 -38l21 -27h36l31 27z" />
    <glyph glyph-name="uni0E0A" unicode="&#xe0a;" horiz-adv-x="585" 
d="M210 78l36 204l79 131l12 64l-37 45h-102l-41 -34h46l46 -57l-12 -65l-57 -49h-73l-45 56l17 99l108 96h140l64 -77l-14 -85l-75 -127l-33 -186l34 -42h54l50 42l56 323l-25 43l5 28l167 141l30 -38l-148 -122l28 -44l-63 -356l-79 -68h-104zM166 357l31 26l7 40l-22 26
h-38l-30 -25l-7 -41l21 -26h38z" />
    <glyph glyph-name="uni0E0B" unicode="&#xe0b;" horiz-adv-x="599" 
d="M222 78l37 210l101 126l15 81l-19 27h-19l-63 -57l-45 57h-47l-46 -42h59l44 -55l-11 -64l-57 -48h-70l-45 55l19 107l97 93h72l35 -49l51 49h51l47 -63l-18 -100l-95 -121l-34 -191l34 -42h55l50 42l56 323l-21 43l5 28l164 141l30 -38l-144 -122l24 -45l-63 -355
l-80 -68h-105zM158 353l30 25l7 39l-21 26h-37l-30 -25l-7 -40l21 -25h37z" />
    <glyph glyph-name="uni0E0C" unicode="&#xe0c;" horiz-adv-x="842" 
d="M811 558l-98 -558h-53l-180 103l-10 -55l-57 -48h-74l-47 57l13 68l57 49h57l51 285l-40 48h-218l-52 -43l68 -85l-80 -84l-15 -84l-12 -45l21 8h48l49 -56l-13 -69l-57 -49h-73l-47 56l45 254l71 72l-72 85l107 91h261l68 -81l-55 -311l192 -109l89 501h56zM103 108
l-7 -42l21 -25h38l31 25l7 42l-22 25h-38zM437 107l-22 26h-39l-31 -26l-7 -39l22 -27h39l31 27z" />
    <glyph glyph-name="uni0E0D" unicode="&#xe0d;" horiz-adv-x="854" 
d="M49 56l45 254l71 72l-72 85l107 91h249l68 -81l-66 -380l37 -45h145l53 45l81 461h56l-86 -486l-84 -72h-195l-66 81l66 378l-39 48h-207l-52 -43l68 -85l-81 -84l-14 -84l-12 -45l21 8h48l48 -56l-12 -69l-58 -49h-73zM154 41l31 25l7 42l-21 25h-38l-31 -25l-7 -42
l21 -25h38zM347 -167l12 67l53 45h68l40 -49l-10 -54l-3 -6h83l95 82l31 -38l-109 -95h-220zM442 -177l27 23l7 37l-20 23h-31l-28 -23l-6 -37l19 -23h32z" />
    <glyph glyph-name="uni0E0E" unicode="&#xe0e;" horiz-adv-x="620" 
d="M29 -214l11 65l62 54h206l90 -115l117 669l-39 48h-224l-53 -43l81 -85l-63 -83l-44 -247l-57 -49h-68l-47 56l12 68l58 48h57l13 -10l3 42l20 109l54 67l-85 87l107 91h267l68 -81l-133 -751h-50l-45 55l-61 -55h-210zM103 41l30 25l8 41l-22 25h-37l-29 -25l-8 -41
l21 -25h37zM273 -229l47 43l-34 46h-168l-32 -28l-5 -33l21 -28h171z" />
    <glyph glyph-name="uni0E0F" unicode="&#xe0f;" horiz-adv-x="620" 
d="M10 -216l14 79l60 51h87l102 -126l66 63l58 -66l118 674l-39 48h-224l-53 -43l81 -85l-63 -83l-44 -247l-57 -49h-68l-47 56l12 68l58 48h57l13 -10l3 42l20 109l54 67l-85 87l107 91h267l68 -81l-133 -751h-54l-55 64l-68 -64l-50 62l-79 -62h-78zM103 41l30 25l8 41
l-22 25h-37l-29 -25l-8 -41l21 -25h37zM130 -231l62 50l-43 51h-50l-30 -26l-9 -49l22 -26h48z" />
    <glyph glyph-name="uni0E10" unicode="&#xe10;" horiz-adv-x="516" 
d="M134 464l-4 -24l320 -77l-64 -363h-56l21 118l-56 54l-6 9l-69 -59h-68l-46 57l12 66l58 50h74l113 -111l25 144l-320 78l14 79l86 73h327l-9 -50h-299zM248 229l-21 25h-39l-29 -25l-8 -41l21 -25h39l29 25zM369 -32l36 -43l-34 -191h-105l-41 51l-55 -51l-42 60
l-62 -60h-77l-48 58l14 80l61 50h79l86 -130l53 50l53 -66h43l6 38l8 23h-50l-35 41l9 49l48 41h53zM366 -84l-14 17h-28l-20 -17l-5 -29l14 -17h28l20 17zM108 -175l-35 55h-43l-33 -27l-9 -50l23 -27h46z" />
    <glyph glyph-name="uni0E11" unicode="&#xe11;" horiz-adv-x="706" 
d="M274 334l87 124l6 37l-19 27h-18l-62 -57l-45 57h-46l-46 -42h59l44 -55l-11 -64l-57 -48h-70l-45 55l19 107l97 93h70l36 -49l50 49h51l46 -63l-9 -53l-84 -125l-43 -242h1l239 473h84l52 -85l-83 -473h-56l81 462l-27 45h-28l-257 -507h-74zM153 353l30 25l7 39l-21 26
h-37l-30 -25l-7 -40l21 -25h37z" />
    <glyph glyph-name="uni0E12" unicode="&#xe12;" horiz-adv-x="874" 
d="M843 558l-98 -558h-53l-175 102l-9 -54l-57 -48h-74l-47 57l13 68l57 49h54l52 292l-30 41h-42l-94 -65l-72 65h-45l-44 -41l-71 -402l116 97l31 25l-46 56l11 68l58 49h71l46 -56l-12 -67l-284 -236h-58l86 487l76 71h83l60 -57l79 57h79l60 -79l-55 -313l190 -109
l88 501h56zM253 252l20 -25h40l30 25l7 42l-20 25h-40l-30 -25zM475 107l-22 26h-39l-31 -26l-7 -39l22 -27h39l31 27z" />
    <glyph glyph-name="uni0E13" unicode="&#xe13;" horiz-adv-x="861" 
d="M755 162l37 -44l-13 -73l-54 -45h-75l-43 54l7 41l-180 -95h-53l81 459l-40 48h-210l-52 -43l68 -85l-81 -84l-14 -84l-12 -45l21 8h48l48 -56l-12 -69l-58 -49h-73l-46 56l45 254l71 72l-72 85l107 91h253l68 -81l-74 -420l255 128l66 373h56zM102 108l-7 -42l21 -25h38
l31 25l7 42l-21 25h-38zM747 104l-22 27h-35l-31 -26l-7 -38l22 -27h35l31 27z" />
    <glyph glyph-name="uni0E14" unicode="&#xe14;" horiz-adv-x="610" 
d="M565 476l-84 -476h-56l81 458l-41 49h-230l-57 -49l-70 -395l117 95l35 28l-44 54l12 68l58 49h70l46 -56l-12 -67l-291 -234h-58l86 485l85 73h284zM260 250l21 -25h40l29 25l8 42l-21 25h-40l-29 -25z" />
    <glyph glyph-name="uni0E15" unicode="&#xe15;" horiz-adv-x="612" 
d="M567 479l-84 -479h-56l82 466l-30 41h-45l-94 -65l-72 65h-45l-44 -41l-71 -403l118 95l34 25l-44 54l12 68l58 49h70l46 -56l-12 -67l-291 -231h-58l86 487l76 71h83l60 -57l79 57h82zM260 247l21 -25h40l29 25l8 42l-21 25h-40l-29 -25z" />
    <glyph glyph-name="uni0E16" unicode="&#xe16;" horiz-adv-x="578" 
d="M49 56l45 254l71 72l-72 85l107 91h264l69 -81l-84 -477h-56l80 459l-39 48h-222l-52 -43l68 -85l-81 -84l-14 -84l-12 -45l21 8h48l48 -56l-12 -69l-58 -49h-73zM154 41l31 25l7 42l-21 25h-38l-31 -25l-7 -42l21 -25h38z" />
    <glyph glyph-name="uni0E17" unicode="&#xe17;" horiz-adv-x="634" 
d="M174 345l12 48l-20 -9h-52l-45 55l12 70l58 49h71l48 -56l-71 -401h1l251 457h83l67 -81l-84 -477h-56l81 461l-37 46h-30l-282 -507h-68zM175 425l30 25l7 42l-21 25h-40l-29 -25l-7 -42l20 -25h40z" />
    <glyph glyph-name="uni0E18" unicode="&#xe18;" horiz-adv-x="548" 
d="M62 81l37 208h56l-34 -192l37 -45h174l53 45l39 222l-332 80l15 86l86 73h334l-9 -50h-305l-54 -46l-5 -29l332 -80l-50 -281l-84 -72h-224z" />
    <glyph glyph-name="uni0E19" unicode="&#xe19;" horiz-adv-x="608" 
d="M502 163l38 -45l-13 -73l-55 -45h-74l-44 54l8 43l-197 -97h-52l61 345l12 48l-20 -9h-52l-45 55l12 70l58 49h72l47 -56l-79 -444l271 128l65 372h56zM205 450l7 42l-21 25h-40l-29 -25l-7 -42l20 -25h40zM494 104l-21 27h-36l-31 -26l-6 -38l21 -27h36l31 27z" />
    <glyph glyph-name="uni0E1A" unicode="&#xe1a;" horiz-adv-x="629" 
d="M127 81l47 264l12 48l-20 -9h-52l-45 55l12 70l58 49h72l47 -56l-72 -405l37 -45h185l53 45l81 461h56l-86 -486l-84 -72h-234zM175 425l30 25l7 42l-21 25h-40l-29 -25l-7 -42l20 -25h40z" />
    <glyph glyph-name="uni0E1B" unicode="&#xe1b;" horiz-adv-x="631" 
d="M127 81l47 264l12 48l-20 -9h-52l-45 55l12 70l58 49h72l47 -56l-72 -405l37 -45h187l53 45l118 671h56l-122 -696l-85 -72h-236zM175 425l30 25l7 42l-21 25h-40l-29 -25l-7 -42l20 -25h40z" />
    <glyph glyph-name="uni0E1C" unicode="&#xe1c;" horiz-adv-x="601" 
d="M131 509l58 49h71l47 -57l-11 -67l-58 -50h-56l-19 10l-6 -50l-46 -266h1l173 186h35l109 -186h1l84 480h56l-98 -558h-50l-124 212l-199 -212h-58zM225 425l30 25l7 42l-20 25h-40l-30 -25l-7 -42l20 -25h40z" />
    <glyph glyph-name="uni0E1D" unicode="&#xe1d;" horiz-adv-x="603" 
d="M131 509l58 49h71l47 -57l-11 -67l-58 -50h-56l-19 10l-6 -50l-46 -266h1l174 186h35l110 -186h1l121 690h56l-135 -768h-50l-125 212l-200 -212h-58zM225 425l30 25l7 42l-20 25h-40l-30 -25l-7 -42l20 -25h40z" />
    <glyph glyph-name="uni0E1E" unicode="&#xe1e;" horiz-adv-x="672" 
d="M174 345l12 48l-20 -9h-52l-45 55l12 70l58 49h72l46 -55l-68 -385h2l201 350h38l77 -351h1l78 441h55l-98 -558h-53l-89 401l-230 -401h-57zM175 425l30 25l7 42l-21 25h-40l-29 -25l-7 -42l20 -25h40z" />
    <glyph glyph-name="uni0E1F" unicode="&#xe1f;" horiz-adv-x="674" 
d="M174 345l12 48l-20 -9h-52l-45 55l12 70l58 49h72l46 -55l-68 -385h2l202 350h38l78 -351h1l115 651h55l-135 -768h-53l-90 401l-231 -401h-57zM175 425l30 25l7 42l-21 25h-40l-29 -25l-7 -42l20 -25h40z" />
    <glyph glyph-name="uni0E20" unicode="&#xe20;" horiz-adv-x="618" 
d="M1 56l12 68l58 48h57l13 -10l3 42l20 109l54 67l-85 87l107 91h265l68 -81l-84 -477h-56l80 459l-39 48h-222l-53 -43l81 -85l-63 -83l-44 -247l-57 -49h-68zM103 41l30 25l8 41l-22 25h-37l-29 -25l-8 -41l21 -25h37z" />
    <glyph glyph-name="uni0E21" unicode="&#xe21;" horiz-adv-x="608" 
d="M577 558l-98 -558h-51l-211 107l-10 -59l-56 -48h-75l-47 56l13 68l59 50h58l30 171l12 48l-20 -9h-52l-45 55l12 70l58 49h72l47 -56l-59 -336l219 -109l88 501h56zM220 450l7 42l-21 25h-40l-29 -25l-7 -42l20 -25h40zM175 107l-22 26h-39l-31 -26l-7 -39l21 -27h39
l32 27z" />
    <glyph glyph-name="uni0E22" unicode="&#xe22;" horiz-adv-x="580" 
d="M549 558l-86 -486l-85 -72h-264l-68 83l17 97l91 77l-66 66l31 172l73 63h76l47 -56l-13 -68l-57 -49h-63l-27 29l-13 -79l54 -53h121l-8 -49h-111l-83 -71l-10 -63l38 -47h216l53 45l81 461h56zM171 451l21 -25h40l29 25l8 41l-21 25h-40l-29 -25z" />
    <glyph glyph-name="uni0E23" unicode="&#xe23;" horiz-adv-x="477" 
d="M159 56l12 69l59 49h56l18 -9l5 49l21 119l-254 60l16 93l85 72h294l-9 -51h-265l-53 -44l-6 -35l255 -57l-57 -322l-58 -49h-72zM265 41l30 25l7 42l-21 25h-38l-31 -25l-7 -42l22 -25h38z" />
    <glyph glyph-name="uni0E24" unicode="&#xe24;" horiz-adv-x="580" 
d="M475 459l-39 48h-224l-52 -43l68 -85l-81 -84l-14 -84l-12 -45l21 8h48l48 -56l-12 -69l-58 -49h-73l-46 56l45 254l71 72l-72 85l107 91h266l69 -81l-121 -687h-56zM154 41l31 25l7 42l-21 25h-38l-31 -25l-7 -42l21 -25h38z" />
    <glyph glyph-name="uni0E25" unicode="&#xe25;" horiz-adv-x="584" 
d="M56 55l40 228l84 69h184l80 -93l35 200l-39 48h-227l-54 -46l-8 -44h-56l12 68l87 73h277l67 -81l-83 -477h-56l34 194l-92 107h-142l-52 -43l-8 -50l-12 -42l20 8h51l47 -56l-13 -69l-57 -49h-74zM162 41l30 25l7 42l-21 25h-40l-29 -25l-7 -42l20 -25h40z" />
    <glyph glyph-name="uni0E26" unicode="&#xe26;" horiz-adv-x="620" 
d="M515 459l-39 48h-224l-53 -43l81 -85l-63 -83l-44 -247l-57 -49h-68l-47 56l12 68l58 48h57l13 -10l3 42l20 109l54 67l-85 87l107 91h267l68 -81l-121 -687h-56zM103 41l30 25l8 41l-22 25h-37l-29 -25l-8 -41l21 -25h37z" />
    <glyph glyph-name="uni0E27" unicode="&#xe27;" horiz-adv-x="512" 
d="M215 56l12 69l59 49h56l17 -9l6 49l43 245l-39 48h-180l-56 -48l-9 -54h-56l14 81l86 72h232l67 -81l-76 -428l-57 -49h-73zM320 41l31 25l7 42l-21 25h-38l-31 -25l-7 -42l21 -25h38z" />
    <glyph glyph-name="uni0E28" unicode="&#xe28;" horiz-adv-x="610" 
d="M521 523l43 -51l-83 -472h-56l81 459l-40 48h-232l-56 -48l-41 -231l154 120h66l45 -57l-11 -67l-57 -49h-71l-49 60l-32 -26l-55 -42l-30 -167h-56l85 480l91 78h269l93 79l31 -38zM261 240l20 -25h40l30 25l7 42l-21 25h-40l-29 -25z" />
    <glyph glyph-name="uni0E29" unicode="&#xe29;" horiz-adv-x="651" 
d="M620 558l-86 -486l-84 -72h-256l-67 81l47 264l12 48l-20 -9h-52l-45 55l12 70l58 49h72l47 -56l-72 -405l37 -45h207l53 45l20 114h-176l-40 49l11 64l56 48h66l41 -50l-9 -50l-18 -15l47 2h30l53 299h56zM205 450l7 42l-21 25h-40l-29 -25l-7 -42l20 -25h40zM417 310
l-17 22h-36l-27 -22l-6 -38l17 -21h36l27 21z" />
    <glyph glyph-name="uni0E2A" unicode="&#xe2a;" horiz-adv-x="584" 
d="M500 523l38 -46l-83 -477h-56l34 194l-92 107h-142l-52 -43l-8 -50l-12 -42l20 8h51l47 -56l-13 -69l-57 -49h-74l-45 55l40 228l84 69h184l80 -93l35 200l-39 48h-227l-54 -46l-8 -44h-56l12 68l87 73h271l93 79l31 -38zM109 108l-7 -42l20 -25h40l30 25l7 42l-21 25
h-40z" />
    <glyph glyph-name="uni0E2B" unicode="&#xe2b;" horiz-adv-x="634" 
d="M581 434l-54 -47l39 -40l-61 -347h-56l59 333l-33 32l-304 -365h-58l61 345l12 48l-20 -9h-52l-45 55l12 70l58 49h72l47 -56l-75 -424l260 316l-38 47l12 68l57 49h72l47 -56zM205 450l7 42l-21 25h-40l-29 -25l-7 -42l20 -25h40zM547 492l-20 25h-40l-30 -25l-7 -42
l20 -25h40l30 25z" />
    <glyph glyph-name="uni0E2C" unicode="&#xe2c;" horiz-adv-x="683" 
d="M174 345l12 48l-20 -9h-52l-45 55l12 70l58 49h72l46 -55l-71 -404h2l191 288h35l89 -288h2l60 343l13 47l-18 -9h-54l-46 55l12 66l57 49h70l46 -54l-2 -18l62 52l22 -31l-92 -77l-92 -522h-53l-101 325l-215 -325h-61zM562 519l32 27l6 38l-22 26h-35l-32 -26l-6 -38
l21 -27h36zM175 425l30 25l7 42l-21 25h-40l-29 -25l-7 -42l20 -25h40z" />
    <glyph glyph-name="uni0E2D" unicode="&#xe2d;" horiz-adv-x="569" 
d="M56 81l40 229l59 50h72l46 -56l-12 -69l-57 -49h-59l-17 10l-4 -44l-10 -55l38 -45h201l53 45l64 362l-39 48h-223l-54 -46l-8 -44h-56l12 68l87 73h273l67 -81l-71 -405l-85 -72h-251zM191 227l29 25l7 42l-20 25h-40l-30 -25l-7 -42l21 -25h40z" />
    <glyph glyph-name="uni0E2E" unicode="&#xe2e;" horiz-adv-x="568" 
d="M55 81l35 193l59 50h72l46 -56l-12 -69l-56 -48h-60l-16 10l-4 -35l-5 -29l37 -45h202l53 45l65 365l-22 26l-125 -108h-182l-48 59l12 68l60 51h294l67 57l30 -34l-64 -55l36 -44l-72 -410l-84 -72h-252zM314 428l96 83h-224l-32 -26l-5 -31l22 -26h143zM185 191l29 25
l7 42l-20 25h-40l-30 -25l-7 -42l21 -25h40z" />
    <glyph glyph-name="uni0E2F" unicode="&#xe2f;" horiz-adv-x="505" 
d="M404 448l-95 -78h-187l-54 66l12 69l63 53h76l41 -52l-12 -67l-27 -25l45 3h32l118 98l8 43h55l-98 -558h-56zM177 423l29 25l8 44l-21 24h-42l-28 -24l-8 -44l20 -25h42z" />
    <glyph glyph-name="uni0E30" unicode="&#xe30;" horiz-adv-x="475" 
d="M80 388l13 73l57 49h74l46 -54l-11 -64l-12 -13l38 4h39l111 95l31 -41l-121 -105h-219zM188 374l28 24l8 44l-20 24h-42l-28 -24l-8 -44l20 -24h42zM26 85l13 73l57 49h74l46 -54l-11 -64l-12 -13l38 4h39l111 95l31 -41l-121 -105h-219zM134 71l28 24l8 44l-20 24h-42
l-28 -24l-8 -44l20 -24h42z" />
    <glyph glyph-name="uni0E31" unicode="&#xe31;" 
d="M-262 712l13 68l51 44h71l43 -51l-9 -50l-12 -15h115l114 97l28 -37l-128 -109h-242zM-162 700l27 23l7 39l-19 23h-36l-28 -23l-7 -39l20 -23h36z" />
    <glyph glyph-name="uni0E32" unicode="&#xe32;" horiz-adv-x="511" 
d="M407 458l-40 48h-178l-56 -48l-9 -53h-56l14 80l85 73h232l67 -81l-84 -477h-56z" />
    <glyph glyph-name="uni0E33" unicode="&#xe33;" horiz-adv-x="511" 
d="M-141 713l14 76l63 53h82l49 -58l-14 -78l-62 -52h-83zM-25 698l36 30l7 40l-25 30h-42l-35 -30l-8 -40l25 -30h42zM407 458l-40 48h-178l-56 -48l-9 -53h-56l14 80l85 73h232l67 -81l-84 -477h-56z" />
    <glyph glyph-name="uni0E34" unicode="&#xe34;" 
d="M-402 747l104 88h217l83 -98l-15 -78h-404zM-56 702l5 27l-52 62h-179l-73 -62l-4 -27h303z" />
    <glyph glyph-name="uni0E35" unicode="&#xe35;" 
d="M29 892l-28 -160l-14 -73h-404l15 88l104 88h208l46 -52l19 109h54zM-51 727l-56 64h-175l-73 -62l-4 -27h303z" />
    <glyph glyph-name="uni0E36" unicode="&#xe36;" 
d="M27 757l-32 -11l7 -5l-15 -82h-404l15 88l104 88h185l29 -25l-2 7l30 48l53 19l48 -26l14 -53zM24 825l-17 21h-30l-24 -21l-5 -29l17 -21h29l25 21zM-51 730l-69 61h-162l-73 -62l-4 -27h303z" />
    <glyph glyph-name="uni0E37" unicode="&#xe37;" 
d="M29 892l-28 -160l-14 -73h-404l15 88l104 88h157l10 57h52l-10 -61l46 -50l19 111h53zM-51 727l-56 64h-175l-73 -62l-4 -27h303z" />
    <glyph glyph-name="uni0E38" unicode="&#xe38;" 
d="M-234 -273l11 43l-18 -9h-48l-46 56l12 66l56 48h71l45 -54l-39 -221h-56zM-233 -199l30 26l7 38l-21 26h-36l-30 -26l-7 -38l21 -26h36z" />
    <glyph glyph-name="uni0E39" unicode="&#xe39;" 
d="M-381 -293l5 34l8 30l-19 -8h-47l-45 55l11 65l57 48h68l45 -53l-29 -163h94l37 210h53l-40 -223l-39 -34h-126zM-378 -197l29 25l7 38l-21 25h-35l-29 -25l-7 -38l21 -25h35z" />
    <glyph glyph-name="uni0E3A" unicode="&#xe3a;" 
d="M-230 -140l7 42l30 25h42l22 -27l-7 -43l-29 -24h-42z" />
    <glyph glyph-name="uni0E3F" unicode="&#xe3f;" horiz-adv-x="638" 
d="M521 361l67 -82l-34 -193l-101 -86h-151l-19 -110h-54l19 110h-206l123 700h207l19 110h54l-19 -110h114l76 -90l-36 -199zM165 377h150l48 272h-150zM417 649l-48 -272h96l63 54l29 164l-45 54h-95zM257 51l49 276h-150l-48 -276h149zM478 327h-118l-49 -276h118l73 62
l27 153z" />
    <glyph glyph-name="uni0E40" unicode="&#xe40;" horiz-adv-x="299" 
d="M51 57l89 501h56l-61 -347l-12 -45l16 8h54l47 -57l-12 -69l-56 -48h-74zM158 41l30 25l7 42l-21 25h-40l-29 -25l-7 -42l20 -25h40z" />
    <glyph glyph-name="uni0E41" unicode="&#xe41;" horiz-adv-x="562" 
d="M51 57l89 501h56l-61 -347l-12 -45l16 8h54l47 -57l-12 -69l-56 -48h-74zM315 57l88 501h56l-61 -347l-12 -45l17 8h54l47 -57l-12 -69l-57 -48h-73zM158 41l30 25l7 42l-21 25h-40l-29 -25l-7 -42l20 -25h40zM422 41l29 25l7 42l-20 25h-40l-30 -25l-7 -42l21 -25h40z
" />
    <glyph glyph-name="uni0E42" unicode="&#xe42;" horiz-adv-x="354" 
d="M106 57l111 629l-152 86l14 80l86 72h284l-8 -49h-257l-54 -44l-6 -33l154 -86l-89 -501l-11 -45l16 8h54l47 -57l-12 -69l-56 -48h-74zM213 41l30 25l7 42l-21 25h-40l-29 -25l-7 -42l20 -25h40z" />
    <glyph glyph-name="uni0E43" unicode="&#xe43;" horiz-adv-x="349" 
d="M102 57l96 548l130 138l19 108l-38 47h-114l-47 -40h54l43 -53l-12 -68l-59 -50h-71l-46 55l18 102l108 100h154l65 -80l-23 -133l-126 -133l-69 -387l-11 -45l16 8h54l47 -57l-12 -69l-56 -48h-74zM163 728l29 25l7 41l-20 25h-40l-29 -24l-7 -42l20 -25h40zM208 41
l30 25l7 42l-20 25h-40l-30 -25l-7 -42l20 -25h40z" />
    <glyph glyph-name="uni0E44" unicode="&#xe44;" horiz-adv-x="332" 
d="M86 57l107 611l148 142l10 60l-13 15h-42l-104 -87l-74 87h-45l9 49h59l61 -73l83 73h86l37 -45l-15 -91l-145 -141l-80 -446l-11 -45l16 8h54l47 -57l-12 -69l-56 -48h-74zM192 41l30 25l7 42l-20 25h-40l-30 -25l-7 -42l20 -25h40z" />
    <glyph glyph-name="uni0E45" unicode="&#xe45;" horiz-adv-x="511" 
d="M407 458l-40 48h-178l-56 -48l-9 -53h-56l14 80l85 73h232l67 -81l-121 -687h-56z" />
    <glyph glyph-name="uni0E46" unicode="&#xe46;" horiz-adv-x="491" 
d="M393 492l-21 27h-21l-68 -58l-49 58h-47l-46 -42h61l43 -52l-12 -62l-62 -53h-67l-44 52l20 110l100 96h72l40 -49l55 49h59l45 -59l-109 -619h-56zM162 350l31 25l6 39l-20 26h-37l-30 -25l-7 -40l20 -25h37z" />
    <glyph glyph-name="uni0E47" unicode="&#xe47;" 
d="M-334 813l81 69h190l69 59l27 -33l-83 -70h-184l-53 -45l-15 -81l72 51l50 -61h32l-7 14l8 47l49 42h62l38 -48l-11 -58l-45 -40h-146l-41 51l-74 -51h-46zM-67 697l23 20l5 32l-15 19h-33l-24 -19l-5 -32l16 -20h33z" />
    <glyph glyph-name="uni0E48" unicode="&#xe48;" 
d="M-34 856h57l-36 -197h-56z" />
    <glyph glyph-name="uni0E49" unicode="&#xe49;" 
d="M-260 701h77l28 34h-35l-40 48l9 55l52 44h63l42 -50l-11 -61l-55 -69h99l129 142l31 -34l-139 -151h-258zM-139 768l27 23l6 32l-19 23h-31l-27 -23l-6 -32l19 -23h31z" />
    <glyph glyph-name="uni0E4A" unicode="&#xe4a;" 
d="M-357 703l14 78l87 85h69l33 -46l48 46h50l45 -55l-19 -111h18l112 128l29 -31l-121 -138h-126l7 41h31l18 104l-16 18h-23l-60 -55l-42 55h-46l-40 -39h45l35 -43l-7 -45l-45 -40h-57zM-273 690l21 19l4 24l-15 19h-27l-22 -19l-4 -24l16 -19h27z" />
    <glyph glyph-name="uni0E4B" unicode="&#xe4b;" 
d="M94 742h-95l-15 -83h-52l15 83h-96l8 43h95l15 83h52l-15 -83h96z" />
    <glyph glyph-name="uni0E4C" unicode="&#xe4c;" 
d="M-75 825l44 -54l-13 -68l-52 -44h-70l-43 52l11 67l221 190l29 -35zM-75 761l-19 23h-37l-27 -23l-7 -39l19 -23h37l27 23z" />
    <glyph glyph-name="uni0E4D" unicode="&#xe4d;" 
d="M-141 713l13 76l63 53h83l48 -58l-13 -78l-62 -52h-84zM-25 698l35 30l8 40l-25 30h-42l-36 -30l-7 -40l25 -30h42z" />
    <glyph glyph-name="uni0E4E" unicode="&#xe4e;" 
d="M66 965l-8 -43h-70l-41 -35l-11 -66l-4 -20h-96l-39 -33l-7 -39l28 -33h69l-8 -44h-88l-52 63l12 71l69 59h72l12 64l66 56h96z" />
    <glyph glyph-name="uni0E4F" unicode="&#xe4f;" horiz-adv-x="631" 
d="M48 180l36 206l174 148h207l128 -156l-36 -207l-173 -146h-208zM365 76l145 122l28 162l-102 124h-159l-145 -124l-28 -162l102 -122h159zM189 228l18 102l85 72h101l59 -72l-18 -102l-83 -71h-103zM340 206l48 40l12 66l-35 42h-61l-50 -42l-12 -66l35 -40h63z" />
    <glyph glyph-name="uni0E50" unicode="&#xe50;" horiz-adv-x="626" 
d="M43 91l53 302l97 82h311l75 -91l-53 -303l-95 -81h-313zM409 51l65 55l47 262l-47 57h-260l-67 -57l-46 -262l46 -55h262z" />
    <glyph glyph-name="uni0E51" unicode="&#xe51;" horiz-adv-x="625" 
d="M384 -15l80 69l55 314l-46 57h-259l-67 -57l-48 -271l39 -49h59l-22 32l9 54l62 52h72l48 -60l-12 -67l-69 -59h-180l-65 81l56 311l96 83h311l75 -92l-61 -350l-101 -86zM280 48l32 28l7 41l-22 27h-37l-34 -27l-6 -34l27 -35h33z" />
    <glyph glyph-name="uni0E52" unicode="&#xe52;" horiz-adv-x="727" 
d="M47 89l102 581h56l-99 -564l45 -55h360l65 55l48 273l-38 45h-26l-89 -82l-68 83h-52l-59 -51l-10 -57l16 9h55l47 -56l-12 -69l-59 -50h-73l-47 57l33 186l94 81h89l53 -69l73 69h65l66 -81l-55 -315l-94 -79h-413zM316 193l30 25l7 42l-21 25h-39l-30 -25l-7 -42
l20 -25h40z" />
    <glyph glyph-name="uni0E53" unicode="&#xe53;" horiz-adv-x="724" 
d="M42 57l59 336l97 82h152l49 -59l69 59h129l75 -90l-67 -385h-56l65 371l-45 54h-86l-61 -52l-65 -373h-55l65 373l-43 52h-106l-65 -55l-31 -171l-7 -34l18 9h50l47 -56l-12 -69l-57 -49h-73zM147 41l30 25l7 42l-20 25h-40l-30 -25l-7 -42l20 -25h40z" />
    <glyph glyph-name="uni0E54" unicode="&#xe54;" horiz-adv-x="643" 
d="M43 91l53 302l97 82h355l104 87l29 -36l-117 -101h-350l-67 -57l-46 -261l46 -56h176l-54 132l14 80l59 50h71l47 -57l-12 -68l-57 -48h-48l37 -89h173l-9 -51h-426zM377 180l29 25l8 42l-21 25h-40l-29 -25l-8 -42l21 -25h40z" />
    <glyph glyph-name="uni0E55" unicode="&#xe55;" horiz-adv-x="643" 
d="M147 368l-46 -261l46 -56h176l-54 132l14 80l59 50h71l47 -57l-12 -68l-57 -48h-48l37 -89h173l-9 -51h-426l-75 91l53 302l97 82h116l-17 21l11 62l56 48h71l43 -53l-10 -62l-19 -16h104l104 87l29 -36l-117 -101h-350zM337 503l20 -24h37l28 24l6 39l-20 24h-37
l-28 -24zM337 180h40l29 25l8 42l-21 25h-40l-29 -25l-8 -42z" />
    <glyph glyph-name="uni0E56" unicode="&#xe56;" horiz-adv-x="608" 
d="M48 63l12 69l62 54h71l49 -59l-9 -48l-33 -30h190l66 57l47 264l-45 55h-317l-82 101l42 36l73 -87h313l75 -90l-54 -304l-95 -81h-314zM150 49l39 35l6 32l-24 28h-37l-32 -28l-7 -39l22 -28h33z" />
    <glyph glyph-name="uni0E57" unicode="&#xe57;" horiz-adv-x="853" 
d="M42 57l59 336l97 82h138l49 -59l69 59h117l75 -90l-59 -335h63l43 36l103 584h56l-108 -605l-75 -65h-146l65 371l-45 54h-74l-61 -52l-65 -373h-55l65 373l-43 52h-92l-65 -55l-31 -175l-7 -30l18 9h50l47 -56l-12 -69l-57 -49h-73zM147 41l30 25l7 42l-20 25h-40
l-30 -25l-7 -42l20 -25h40z" />
    <glyph glyph-name="uni0E58" unicode="&#xe58;" horiz-adv-x="659" 
d="M41 81l55 312l97 82h331l104 87l29 -36l-117 -101h-325l-68 -57l-48 -273l37 -44h43l113 117l79 -117h93l56 47l9 46l-17 -10h-57l-45 55l12 68l60 51h71l48 -58l-31 -171l-93 -79h-130l-63 97l-92 -97h-84zM516 174l30 25l8 42l-21 25h-40l-29 -25l-8 -42l21 -25h39z
" />
    <glyph glyph-name="uni0E59" unicode="&#xe59;" horiz-adv-x="634" 
d="M403 373l159 -346l-46 -31l-198 429h-105l-65 -55l-48 -273l39 -49h59l-23 32l9 53l63 53h71l48 -60l-12 -67l-68 -59h-180l-65 81l55 312l97 82h163l27 -59l70 59h94l103 87l28 -36l-117 -99h-95zM221 83l26 -35h33l32 28l7 41l-21 27h-38l-34 -27z" />
    <glyph glyph-name="uni0E5A" unicode="&#xe5a;" horiz-adv-x="715" 
d="M404 448l-95 -78h-187l-54 66l12 69l63 53h76l41 -52l-12 -67l-27 -25l45 3h32l118 98l8 43h55l-27 -151h54l120 103l8 48h55l-98 -558h-56l78 443l-98 -83h-71l-63 -360h-56zM177 423l29 25l8 44l-21 24h-42l-28 -24l-8 -44l20 -25h42z" />
    <glyph glyph-name="uni0E5B" unicode="&#xe5b;" horiz-adv-x="1155" 
d="M43 149l46 260l97 83h182l56 -69l-32 -181l-65 -53h-71l-45 53l12 67l63 54h55l19 -20h2l4 39l3 18l-35 42h-130l-65 -55l-38 -219l45 -55h242l59 52l130 259h54l48 -224l102 204h44l41 -186l91 166h44l25 -89h97l-8 -45h-122l-21 81l-93 -168h-46l-39 180l-101 -200h-50
l-47 218l-109 -223l-86 -76h-287zM318 230l30 25l7 42l-20 25h-40l-30 -25l-7 -42l20 -25h40z" />
    <glyph glyph-name="uni1E0C" unicode="&#x1e0c;" horiz-adv-x="656" 
d="M165 700h384l92 -110l-87 -492l-115 -98h-397zM415 52l86 73l79 451l-60 72h-306l-105 -596h306zM213 -135l7 38l26 22h38l19 -23l-7 -38l-25 -22h-39z" />
    <glyph glyph-name="uni1E0D" unicode="&#x1e0d;" horiz-adv-x="572" 
d="M42 89l58 328l95 81h191l79 -81l52 297h56l-125 -714h-55l16 97l-113 -97h-181zM288 51l132 112l34 194l-88 91h-150l-64 -54l-52 -289l45 -54h143zM177 -135l7 38l26 22h38l19 -23l-7 -38l-25 -22h-39z" />
    <glyph glyph-name="uni1E0E" unicode="&#x1e0e;" horiz-adv-x="656" 
d="M165 700h384l92 -110l-87 -492l-115 -98h-397zM415 52l86 73l79 451l-60 72h-306l-105 -596h306zM132 -90h262l-8 -46h-262z" />
    <glyph glyph-name="uni1E0F" unicode="&#x1e0f;" horiz-adv-x="572" 
d="M42 89l58 328l95 81h191l79 -81l52 297h56l-125 -714h-55l16 97l-113 -97h-181zM288 51l132 112l34 194l-88 91h-150l-64 -54l-52 -289l45 -54h143zM95 -90h262l-8 -46h-262z" />
    <glyph glyph-name="uni1E20" unicode="&#x1e20;" horiz-adv-x="644" 
d="M51 110l86 490l118 100h297l87 -105l-8 -49h-58l7 35l-57 67h-247l-86 -72l-80 -451l61 -73h243l85 72l32 182h-161l9 52h219l-46 -259l-117 -99h-294zM297 831h262l-8 -46h-262z" />
    <glyph glyph-name="uni1E21" unicode="&#x1e21;" horiz-adv-x="572" 
d="M535 498l-111 -634l-96 -81h-239l-62 76l8 52h56l-6 -38l32 -40h191l64 54l35 203l-115 -90h-176l-74 90l58 327l95 81h186l81 -101l18 101h55zM450 334l-93 114h-141l-64 -54l-52 -289l45 -54h143l131 103zM220 629h262l-8 -46h-262z" />
    <glyph glyph-name="uni1E24" unicode="&#x1e24;" horiz-adv-x="666" 
d="M165 700h58l-57 -325h380l56 325h58l-123 -700h-58l57 323h-380l-57 -323h-57zM225 -135l7 38l26 22h38l19 -23l-7 -38l-25 -22h-39z" />
    <glyph glyph-name="uni1E25" unicode="&#x1e25;" horiz-adv-x="562" 
d="M164 714h56l-60 -329l132 113h148l74 -90l-71 -408h-56l69 393l-45 54h-108l-155 -131l-56 -316h-56zM181 -135l7 38l26 22h38l19 -23l-7 -38l-25 -22h-39z" />
    <glyph glyph-name="uni1E2A" unicode="&#x1e2a;" horiz-adv-x="666" 
d="M165 700h58l-57 -325h380l56 325h58l-123 -700h-58l57 323h-380l-57 -323h-57zM138 -133l10 53h48l-8 -40l35 -41h79l48 41l8 40h48l-11 -58l-76 -66h-123z" />
    <glyph glyph-name="uni1E2B" unicode="&#x1e2b;" horiz-adv-x="562" 
d="M164 714h56l-60 -329l132 113h148l74 -90l-71 -408h-56l69 393l-45 54h-108l-155 -131l-56 -316h-56zM94 -133l10 53h48l-8 -40l35 -41h79l48 41l8 40h48l-11 -58l-76 -66h-123z" />
    <glyph glyph-name="uni1E36" unicode="&#x1e36;" horiz-adv-x="529" 
d="M165 700h58l-114 -648h355l-9 -52h-413zM185 -135l7 38l26 22h38l19 -23l-7 -38l-25 -22h-39z" />
    <glyph glyph-name="uni1E37" unicode="&#x1e37;" horiz-adv-x="226" 
d="M168 714h56l-127 -714h-56zM3 -135l7 38l26 22h38l19 -23l-7 -38l-25 -22h-39z" />
    <glyph glyph-name="uni1E38" unicode="&#x1e38;" horiz-adv-x="529" 
d="M165 700h58l-114 -648h355l-9 -52h-413zM87 831h262l-8 -46h-262zM185 -135l7 38l26 22h38l19 -23l-7 -38l-25 -22h-39z" />
    <glyph glyph-name="uni1E39" unicode="&#x1e39;" horiz-adv-x="226" 
d="M168 714h56l-127 -714h-56zM88 846h262l-8 -46h-262zM3 -135l7 38l26 22h38l19 -23l-7 -38l-25 -22h-39z" />
    <glyph glyph-name="uni1E3A" unicode="&#x1e3a;" horiz-adv-x="529" 
d="M165 700h58l-114 -648h355l-9 -52h-413zM104 -90h262l-8 -46h-262z" />
    <glyph glyph-name="uni1E3B" unicode="&#x1e3b;" horiz-adv-x="226" 
d="M168 714h56l-127 -714h-56zM-78 -90h262l-8 -46h-262z" />
    <glyph glyph-name="uni1E42" unicode="&#x1e42;" horiz-adv-x="769" 
d="M165 700h66l131 -569h2l331 569h68l-123 -700h-55l105 592h-2l-311 -527h-49l-125 527h-2l-104 -592h-55zM275 -135l7 38l26 22h38l19 -23l-7 -38l-25 -22h-39z" />
    <glyph glyph-name="uni1E43" unicode="&#x1e43;" horiz-adv-x="829" 
d="M124 498h55l-18 -102l120 102h117l64 -79l93 79h154l73 -88l-72 -410h-56l69 394l-45 54h-117l-89 -76l-66 -372h-55l69 388l-50 60h-84l-135 -115l-59 -333h-56zM313 -135l7 38l26 22h38l19 -23l-7 -38l-25 -22h-39z" />
    <glyph glyph-name="uni1E44" unicode="&#x1e44;" horiz-adv-x="665" 
d="M165 700h58l273 -605h2l107 605h54l-123 -700h-58l-272 606h-2l-107 -606h-55zM388 802l7 38l26 22h38l19 -23l-7 -38l-25 -22h-39z" />
    <glyph glyph-name="uni1E45" unicode="&#x1e45;" horiz-adv-x="560" 
d="M124 498h55l-20 -113l133 113h146l74 -90l-71 -408h-56l69 393l-45 54h-106l-155 -131l-56 -316h-56zM306 600l7 38l26 22h38l19 -23l-7 -38l-25 -22h-39z" />
    <glyph glyph-name="uni1E46" unicode="&#x1e46;" horiz-adv-x="665" 
d="M165 700h58l273 -605h2l107 605h54l-123 -700h-58l-272 606h-2l-107 -606h-55zM223 -135l7 38l26 22h38l19 -23l-7 -38l-25 -22h-39z" />
    <glyph glyph-name="uni1E47" unicode="&#x1e47;" horiz-adv-x="560" 
d="M124 498h55l-20 -113l133 113h146l74 -90l-71 -408h-56l69 393l-45 54h-106l-155 -131l-56 -316h-56zM179 -135l7 38l26 22h38l19 -23l-7 -38l-25 -22h-39z" />
    <glyph glyph-name="uni1E48" unicode="&#x1e48;" horiz-adv-x="665" 
d="M165 700h58l273 -605h2l107 605h54l-123 -700h-58l-272 606h-2l-107 -606h-55zM142 -90h262l-8 -46h-262z" />
    <glyph glyph-name="uni1E49" unicode="&#x1e49;" horiz-adv-x="560" 
d="M124 498h55l-20 -113l133 113h146l74 -90l-71 -408h-56l69 393l-45 54h-106l-155 -131l-56 -316h-56zM97 -90h262l-8 -46h-262z" />
    <glyph glyph-name="uni1E5A" unicode="&#x1e5a;" horiz-adv-x="643" 
d="M583 389l-91 -77l66 -88l-39 -224h-58l38 213l-67 90h-279l-53 -303h-58l123 700h381l76 -91zM563 595l-45 54h-304l-52 -295h303l65 54zM212 -135l7 38l26 22h38l19 -23l-7 -38l-25 -22h-39z" />
    <glyph glyph-name="uni1E5B" unicode="&#x1e5b;" horiz-adv-x="377" 
d="M124 498h55l-16 -93l110 93h123l-9 -50h-105l-131 -111l-59 -337h-56zM2 -135l7 38l26 22h38l19 -23l-7 -38l-25 -22h-39z" />
    <glyph glyph-name="uni1E5C" unicode="&#x1e5c;" horiz-adv-x="643" 
d="M583 389l-91 -77l66 -88l-39 -224h-58l38 213l-67 90h-279l-53 -303h-58l123 700h381l76 -91zM563 595l-45 54h-304l-52 -295h303l65 54zM285 831h262l-8 -46h-262zM212 -135l7 38l26 22h38l19 -23l-7 -38l-25 -22h-39z" />
    <glyph glyph-name="uni1E5D" unicode="&#x1e5d;" horiz-adv-x="377" 
d="M124 498h55l-16 -93l110 93h123l-9 -50h-105l-131 -111l-59 -337h-56zM192 629h262l-8 -46h-262zM2 -135l7 38l26 22h38l19 -23l-7 -38l-25 -22h-39z" />
    <glyph glyph-name="uni1E5E" unicode="&#x1e5e;" horiz-adv-x="643" 
d="M583 389l-91 -77l66 -88l-39 -224h-58l38 213l-67 90h-279l-53 -303h-58l123 700h381l76 -91zM563 595l-45 54h-304l-52 -295h303l65 54zM131 -90h262l-8 -46h-262z" />
    <glyph glyph-name="uni1E5F" unicode="&#x1e5f;" horiz-adv-x="377" 
d="M124 498h55l-16 -93l110 93h123l-9 -50h-105l-131 -111l-59 -337h-56zM-80 -90h262l-8 -46h-262z" />
    <glyph glyph-name="uni1E60" unicode="&#x1e60;" horiz-adv-x="605" 
d="M43 92l8 48h57l-6 -33l45 -55h246l65 57l30 170l-45 55h-268l-72 88l35 196l96 82h286l76 -91l-9 -50h-57l6 35l-45 54h-236l-65 -54l-27 -154l45 -54h267l73 -88l-38 -216l-96 -82h-295zM355 802l7 38l26 22h38l19 -23l-7 -38l-25 -22h-39z" />
    <glyph glyph-name="uni1E61" unicode="&#x1e61;" horiz-adv-x="504" 
d="M25 80l11 59h56l-8 -45l37 -44h191l53 44l15 88l-37 45h-214l-61 74l22 126l84 71h227l67 -81l-11 -58h-56l8 45l-36 45h-178l-53 -45l-15 -84l38 -45h210l64 -78l-22 -125l-85 -72h-240zM261 600l7 38l26 22h38l19 -23l-7 -38l-25 -22h-39z" />
    <glyph glyph-name="uni1E62" unicode="&#x1e62;" horiz-adv-x="605" 
d="M43 92l8 48h57l-6 -33l45 -55h246l65 57l30 170l-45 55h-268l-72 88l35 196l96 82h286l76 -91l-9 -50h-57l6 35l-45 54h-236l-65 -54l-27 -154l45 -54h267l73 -88l-38 -216l-96 -82h-295zM207 -135l7 38l26 22h38l19 -23l-7 -38l-25 -22h-39z" />
    <glyph glyph-name="uni1E63" unicode="&#x1e63;" horiz-adv-x="504" 
d="M25 80l11 59h56l-8 -45l37 -44h191l53 44l15 88l-37 45h-214l-61 74l22 126l84 71h227l67 -81l-11 -58h-56l8 45l-36 45h-178l-53 -45l-15 -84l38 -45h210l64 -78l-22 -125l-85 -72h-240zM155 -135l7 38l26 22h38l19 -23l-7 -38l-25 -22h-39z" />
    <glyph glyph-name="uni1E6C" unicode="&#x1e6c;" horiz-adv-x="552" 
d="M318 649h-212l9 51h481l-9 -51h-211l-115 -649h-57zM170 -135l7 38l26 22h38l19 -23l-7 -38l-25 -22h-39z" />
    <glyph glyph-name="uni1E6D" unicode="&#x1e6d;" horiz-adv-x="382" 
d="M97 90l63 359h-89l8 49h92l29 162h54l-29 -162h155l-8 -50h-156l-60 -343l45 -55h100l-8 -50h-122zM109 -135l7 38l26 22h38l19 -23l-7 -38l-25 -22h-39z" />
    <glyph glyph-name="uni1E6E" unicode="&#x1e6e;" horiz-adv-x="552" 
d="M318 649h-212l9 51h481l-9 -51h-211l-115 -649h-57zM88 -90h262l-8 -46h-262z" />
    <glyph glyph-name="uni1E6F" unicode="&#x1e6f;" horiz-adv-x="382" 
d="M97 90l63 359h-89l8 49h92l29 162h54l-29 -162h155l-8 -50h-156l-60 -343l45 -55h100l-8 -50h-122zM27 -90h262l-8 -46h-262z" />
    <glyph glyph-name="Wgrave" unicode="&#x1e80;" horiz-adv-x="851" 
d="M125 700h57l8 -619h2l287 619h57l65 -619h2l224 619h59l-260 -700h-64l-66 618h-2l-290 -618h-64zM432 920h66l48 -153h-53z" />
    <glyph glyph-name="wgrave" unicode="&#x1e81;" horiz-adv-x="694" 
d="M84 498h57l14 -433h3l206 433h56l40 -433h3l176 433h59l-212 -498h-62l-42 431h-3l-205 -431h-63zM315 718h66l48 -153h-53z" />
    <glyph glyph-name="Wacute" unicode="&#x1e82;" horiz-adv-x="851" 
d="M125 700h57l8 -619h2l287 619h57l65 -619h2l224 619h59l-260 -700h-64l-66 618h-2l-290 -618h-64zM598 920h66l-114 -153h-53z" />
    <glyph glyph-name="wacute" unicode="&#x1e83;" horiz-adv-x="694" 
d="M84 498h57l14 -433h3l206 433h56l40 -433h3l176 433h59l-212 -498h-62l-42 431h-3l-205 -431h-63zM482 718h66l-114 -153h-53z" />
    <glyph glyph-name="Wdieresis" unicode="&#x1e84;" horiz-adv-x="851" 
d="M125 700h57l8 -619h2l287 619h57l65 -619h2l224 619h59l-260 -700h-64l-66 618h-2l-290 -618h-64zM391 805l6 36l28 23h36l19 -23l-7 -37l-26 -22h-37zM582 805l7 36l26 23h36l20 -23l-7 -37l-26 -22h-37z" />
    <glyph glyph-name="wdieresis" unicode="&#x1e85;" horiz-adv-x="694" 
d="M84 498h57l14 -433h3l206 433h56l40 -433h3l176 433h59l-212 -498h-62l-42 431h-3l-205 -431h-63zM274 603l6 36l28 23h36l19 -23l-7 -37l-26 -22h-37zM465 603l7 36l26 23h36l20 -23l-7 -37l-26 -22h-37z" />
    <glyph glyph-name="uni1E8E" unicode="&#x1e8e;" horiz-adv-x="572" 
d="M266 294l-166 406h58l140 -353h2l266 353h66l-309 -406l-51 -294h-58zM334 802l7 38l26 22h38l19 -23l-7 -38l-25 -22h-39z" />
    <glyph glyph-name="uni1E8F" unicode="&#x1e8f;" horiz-adv-x="561" 
d="M524 498l-110 -629l-103 -86h-228l-62 75l9 52h56l-7 -39l32 -38h186l64 54l40 227l-134 -114h-147l-73 89l72 409h56l-69 -393l45 -54h107l155 132l55 315h56zM300 600l7 38l26 22h38l19 -23l-7 -38l-25 -22h-39z" />
    <glyph glyph-name="uni1E92" unicode="&#x1e92;" horiz-adv-x="560" 
d="M22 60l493 589v2h-379l8 49h440l-10 -59l-494 -589v-2h389l-8 -50h-449zM177 -135l7 38l26 22h38l19 -23l-7 -38l-25 -22h-39z" />
    <glyph glyph-name="uni1E93" unicode="&#x1e93;" horiz-adv-x="466" 
d="M11 55l383 394v2h-303l8 47h366l-10 -55l-383 -393v-2h313l-8 -48h-376zM128 -135l7 38l26 22h38l19 -23l-7 -38l-25 -22h-39z" />
    <glyph glyph-name="uni1E97" unicode="&#x1e97;" horiz-adv-x="382" 
d="M97 90l63 359h-89l8 49h92l29 162h54l-29 -162h155l-8 -50h-156l-60 -343l45 -55h100l-8 -50h-122zM108 765l6 36l28 23h36l19 -23l-7 -37l-26 -22h-37zM299 765l7 36l26 23h36l20 -23l-7 -37l-26 -22h-37z" />
    <glyph glyph-name="uni1E9E" unicode="&#x1e9e;" horiz-adv-x="653" 
d="M611 648l-180 -262h112l65 -78l-42 -237l-83 -71h-188l-65 79l9 53h56l-6 -37l37 -44h134l53 44l34 195l-37 45h-144l12 61l171 252h-286l-59 -49l-105 -599h-58l110 623l91 77h378z" />
    <glyph glyph-name="uni1EA0" unicode="&#x1ea0;" horiz-adv-x="605" 
d="M348 700h68l120 -700h-58l-33 200h-299l-103 -200h-62zM437 251l-63 386h-2l-200 -386h265zM196 -135l7 38l26 22h38l19 -23l-7 -38l-25 -22h-39z" />
    <glyph glyph-name="uni1EA1" unicode="&#x1ea1;" horiz-adv-x="543" 
d="M36 79l22 131l88 73h272l19 111l-45 55h-176l-66 -55l-7 -45h-56l11 65l99 84h225l74 -89l-72 -409h-55l17 97l-117 -97h-168zM263 50l133 110l13 73h-247l-51 -42l-17 -98l36 -43h133zM165 -135l7 38l26 22h38l19 -23l-7 -38l-25 -22h-39z" />
    <glyph glyph-name="uni1EA2" unicode="&#x1ea2;" horiz-adv-x="605" 
d="M348 700h68l120 -700h-58l-33 200h-299l-103 -200h-62zM437 251l-63 386h-2l-200 -386h265zM375 802l84 73l5 27l-14 17h-58l-24 -20l-3 -20h-46l7 36l54 46h94l41 -49l-8 -46l-83 -72l-5 -27h-50z" />
    <glyph glyph-name="uni1EA3" unicode="&#x1ea3;" horiz-adv-x="543" 
d="M36 79l22 131l88 73h272l19 111l-45 55h-176l-66 -55l-7 -45h-56l11 65l99 84h225l74 -89l-72 -409h-55l17 97l-117 -97h-168zM263 50l133 110l13 73h-247l-51 -42l-17 -98l36 -43h133zM310 600l84 73l5 27l-14 17h-58l-24 -20l-3 -20h-46l7 36l54 46h94l41 -49l-8 -46
l-83 -72l-5 -27h-50z" />
    <glyph glyph-name="uni1EA4" unicode="&#x1ea4;" horiz-adv-x="605" 
d="M348 700h68l120 -700h-58l-33 200h-299l-103 -200h-62zM437 251l-63 386h-2l-200 -386h265zM589 1019h60l-96 -126h-48zM388 900h59l70 -133h-53l-49 95h-5l-82 -95h-57z" />
    <glyph glyph-name="uni1EA5" unicode="&#x1ea5;" horiz-adv-x="543" 
d="M36 79l22 131l88 73h272l19 111l-45 55h-176l-66 -55l-7 -45h-56l11 65l99 84h225l74 -89l-72 -409h-55l17 97l-117 -97h-168zM263 50l133 110l13 73h-247l-51 -42l-17 -98l36 -43h133zM524 817h60l-96 -126h-48zM323 698h59l70 -133h-53l-49 95h-5l-82 -95h-57z" />
    <glyph glyph-name="uni1EA6" unicode="&#x1ea6;" horiz-adv-x="605" 
d="M348 700h68l120 -700h-58l-33 200h-299l-103 -200h-62zM437 251l-63 386h-2l-200 -386h265zM482 1019h60l39 -126h-48zM387 900h59l70 -133h-53l-49 95h-5l-82 -95h-57z" />
    <glyph glyph-name="uni1EA7" unicode="&#x1ea7;" horiz-adv-x="543" 
d="M36 79l22 131l88 73h272l19 111l-45 55h-176l-66 -55l-7 -45h-56l11 65l99 84h225l74 -89l-72 -409h-55l17 97l-117 -97h-168zM263 50l133 110l13 73h-247l-51 -42l-17 -98l36 -43h133zM417 817h60l39 -126h-48zM322 698h59l70 -133h-53l-49 95h-5l-82 -95h-57z" />
    <glyph glyph-name="uni1EA8" unicode="&#x1ea8;" horiz-adv-x="605" 
d="M348 700h68l120 -700h-58l-33 200h-299l-103 -200h-62zM437 251l-63 386h-2l-200 -386h265zM519 908l74 55l4 21l-14 16h-47l-22 -18l-4 -21h-44l7 37l50 43h84l38 -45l-9 -46l-71 -52l-4 -24h-48zM387 900h59l70 -133h-53l-49 95h-5l-82 -95h-57z" />
    <glyph glyph-name="uni1EA9" unicode="&#x1ea9;" horiz-adv-x="543" 
d="M36 79l22 131l88 73h272l19 111l-45 55h-176l-66 -55l-7 -45h-56l11 65l99 84h225l74 -89l-72 -409h-55l17 97l-117 -97h-168zM263 50l133 110l13 73h-247l-51 -42l-17 -98l36 -43h133zM454 706l74 55l4 21l-14 16h-47l-22 -18l-4 -21h-44l7 37l50 43h84l38 -45l-9 -46
l-71 -52l-4 -24h-48zM322 698h59l70 -133h-53l-49 95h-5l-82 -95h-57z" />
    <glyph glyph-name="uni1EAA" unicode="&#x1eaa;" horiz-adv-x="605" 
d="M348 700h68l120 -700h-58l-33 200h-299l-103 -200h-62zM437 251l-63 386h-2l-200 -386h265zM395 983h-20l-24 -19l-3 -22h-46l6 34l55 47h53l53 -47h20l23 19l4 23h45l-7 -35l-54 -47h-53zM387 900h59l70 -133h-53l-49 95h-5l-82 -95h-57z" />
    <glyph glyph-name="uni1EAB" unicode="&#x1eab;" horiz-adv-x="543" 
d="M36 79l22 131l88 73h272l19 111l-45 55h-176l-66 -55l-7 -45h-56l11 65l99 84h225l74 -89l-72 -409h-55l17 97l-117 -97h-168zM263 50l133 110l13 73h-247l-51 -42l-17 -98l36 -43h133zM330 781h-20l-24 -19l-3 -22h-46l6 34l55 47h53l53 -47h20l23 19l4 23h45l-7 -35
l-54 -47h-53zM322 698h59l70 -133h-53l-49 95h-5l-82 -95h-57z" />
    <glyph glyph-name="uni1EAC" unicode="&#x1eac;" horiz-adv-x="605" 
d="M348 700h68l120 -700h-58l-33 200h-299l-103 -200h-62zM437 251l-63 386h-2l-200 -386h265zM388 900h59l70 -133h-53l-49 95h-5l-82 -95h-57zM196 -135l7 38l26 22h38l19 -23l-7 -38l-25 -22h-39z" />
    <glyph glyph-name="uni1EAD" unicode="&#x1ead;" horiz-adv-x="543" 
d="M36 79l22 131l88 73h272l19 111l-45 55h-176l-66 -55l-7 -45h-56l11 65l99 84h225l74 -89l-72 -409h-55l17 97l-117 -97h-168zM263 50l133 110l13 73h-247l-51 -42l-17 -98l36 -43h133zM323 698h59l70 -133h-53l-49 95h-5l-82 -95h-57zM165 -135l7 38l26 22h38l19 -23
l-7 -38l-25 -22h-39z" />
    <glyph glyph-name="uni1EAE" unicode="&#x1eae;" horiz-adv-x="605" 
d="M348 700h68l120 -700h-58l-33 200h-299l-103 -200h-62zM437 251l-63 386h-2l-200 -386h265zM472 1029h60l-95 -126h-48zM276 838l10 53h48l-8 -40l35 -41h79l48 41l8 40h48l-11 -58l-76 -66h-123z" />
    <glyph glyph-name="uni1EAF" unicode="&#x1eaf;" horiz-adv-x="543" 
d="M36 79l22 131l88 73h272l19 111l-45 55h-176l-66 -55l-7 -45h-56l11 65l99 84h225l74 -89l-72 -409h-55l17 97l-117 -97h-168zM263 50l133 110l13 73h-247l-51 -42l-17 -98l36 -43h133zM407 827h60l-95 -126h-48zM211 636l10 53h48l-8 -40l35 -41h79l48 41l8 40h48
l-11 -58l-76 -66h-123z" />
    <glyph glyph-name="uni1EB0" unicode="&#x1eb0;" horiz-adv-x="605" 
d="M348 700h68l120 -700h-58l-33 200h-299l-103 -200h-62zM437 251l-63 386h-2l-200 -386h265zM341 1029h60l39 -126h-48zM276 838l10 53h48l-8 -40l35 -41h79l48 41l8 40h48l-11 -58l-76 -66h-123z" />
    <glyph glyph-name="uni1EB1" unicode="&#x1eb1;" horiz-adv-x="543" 
d="M36 79l22 131l88 73h272l19 111l-45 55h-176l-66 -55l-7 -45h-56l11 65l99 84h225l74 -89l-72 -409h-55l17 97l-117 -97h-168zM263 50l133 110l13 73h-247l-51 -42l-17 -98l36 -43h133zM276 827h60l39 -126h-48zM211 636l10 53h48l-8 -40l35 -41h79l48 41l8 40h48
l-11 -58l-76 -66h-123z" />
    <glyph glyph-name="uni1EB2" unicode="&#x1eb2;" horiz-adv-x="605" 
d="M348 700h68l120 -700h-58l-33 200h-299l-103 -200h-62zM437 251l-63 386h-2l-200 -386h265zM395 929l76 56l4 21l-14 16h-49l-22 -19l-4 -20h-44l7 36l50 43h86l38 -45l-9 -46l-73 -51l-4 -25h-48zM276 838l10 53h48l-8 -40l35 -41h79l48 41l8 40h48l-11 -58l-76 -66
h-123z" />
    <glyph glyph-name="uni1EB3" unicode="&#x1eb3;" horiz-adv-x="543" 
d="M36 79l22 131l88 73h272l19 111l-45 55h-176l-66 -55l-7 -45h-56l11 65l99 84h225l74 -89l-72 -409h-55l17 97l-117 -97h-168zM263 50l133 110l13 73h-247l-51 -42l-17 -98l36 -43h133zM330 727l76 56l4 21l-14 16h-49l-22 -19l-4 -20h-44l7 36l50 43h86l38 -45l-9 -46
l-73 -51l-4 -25h-48zM211 636l10 53h48l-8 -40l35 -41h79l48 41l8 40h48l-11 -58l-76 -66h-123z" />
    <glyph glyph-name="uni1EB4" unicode="&#x1eb4;" horiz-adv-x="605" 
d="M348 700h68l120 -700h-58l-33 200h-299l-103 -200h-62zM437 251l-63 386h-2l-200 -386h265zM391 978h-20l-24 -19l-3 -22h-46l6 34l55 47h53l53 -47h20l23 19l4 23h45l-7 -35l-54 -47h-53zM276 838l10 53h48l-8 -40l35 -41h79l48 41l8 40h48l-11 -58l-76 -66h-123z" />
    <glyph glyph-name="uni1EB5" unicode="&#x1eb5;" horiz-adv-x="543" 
d="M36 79l22 131l88 73h272l19 111l-45 55h-176l-66 -55l-7 -45h-56l11 65l99 84h225l74 -89l-72 -409h-55l17 97l-117 -97h-168zM263 50l133 110l13 73h-247l-51 -42l-17 -98l36 -43h133zM326 776h-20l-24 -19l-3 -22h-46l6 34l55 47h53l53 -47h20l23 19l4 23h45l-7 -35
l-54 -47h-53zM211 636l10 53h48l-8 -40l35 -41h79l48 41l8 40h48l-11 -58l-76 -66h-123z" />
    <glyph glyph-name="uni1EB6" unicode="&#x1eb6;" horiz-adv-x="605" 
d="M348 700h68l120 -700h-58l-33 200h-299l-103 -200h-62zM437 251l-63 386h-2l-200 -386h265zM277 838l10 53h48l-8 -40l35 -41h79l48 41l8 40h48l-11 -58l-76 -66h-123zM196 -135l7 38l26 22h38l19 -23l-7 -38l-25 -22h-39z" />
    <glyph glyph-name="uni1EB7" unicode="&#x1eb7;" horiz-adv-x="543" 
d="M36 79l22 131l88 73h272l19 111l-45 55h-176l-66 -55l-7 -45h-56l11 65l99 84h225l74 -89l-72 -409h-55l17 97l-117 -97h-168zM263 50l133 110l13 73h-247l-51 -42l-17 -98l36 -43h133zM212 636l10 53h48l-8 -40l35 -41h79l48 41l8 40h48l-11 -58l-76 -66h-123zM165 -135
l7 38l26 22h38l19 -23l-7 -38l-25 -22h-39z" />
    <glyph glyph-name="uni1EB8" unicode="&#x1eb8;" horiz-adv-x="574" 
d="M165 700h433l-9 -52h-375l-48 -270h347l-9 -52h-347l-48 -274h375l-9 -52h-433zM200 -135l7 38l26 22h38l19 -23l-7 -38l-25 -22h-39z" />
    <glyph glyph-name="uni1EB9" unicode="&#x1eb9;" horiz-adv-x="553" 
d="M42 90l58 327l95 81h245l76 -91l-31 -173h-361l-23 -128l46 -55h193l65 54l8 44h56l-12 -66l-97 -83h-243zM438 283l19 110l-45 55h-196l-64 -55l-20 -110h306zM172 -135l7 38l26 22h38l19 -23l-7 -38l-25 -22h-39z" />
    <glyph glyph-name="uni1EBA" unicode="&#x1eba;" horiz-adv-x="574" 
d="M165 700h433l-9 -52h-375l-48 -270h347l-9 -52h-347l-48 -274h375l-9 -52h-433zM379 802l84 73l5 27l-14 17h-58l-24 -20l-3 -20h-46l7 36l54 46h94l41 -49l-8 -46l-83 -72l-5 -27h-50z" />
    <glyph glyph-name="uni1EBB" unicode="&#x1ebb;" horiz-adv-x="553" 
d="M42 90l58 327l95 81h245l76 -91l-31 -173h-361l-23 -128l46 -55h193l65 54l8 44h56l-12 -66l-97 -83h-243zM438 283l19 110l-45 55h-196l-64 -55l-20 -110h306zM316 600l84 73l5 27l-14 17h-58l-24 -20l-3 -20h-46l7 36l54 46h94l41 -49l-8 -46l-83 -72l-5 -27h-50z" />
    <glyph glyph-name="uni1EBC" unicode="&#x1ebc;" horiz-adv-x="574" 
d="M165 700h433l-9 -52h-375l-48 -270h347l-9 -52h-347l-48 -274h375l-9 -52h-433zM370 827h-21l-25 -20l-4 -24h-47l7 38l55 47h56l55 -50h22l23 20l5 25h46l-6 -39l-56 -47h-55z" />
    <glyph glyph-name="uni1EBD" unicode="&#x1ebd;" horiz-adv-x="553" 
d="M42 90l58 327l95 81h245l76 -91l-31 -173h-361l-23 -128l46 -55h193l65 54l8 44h56l-12 -66l-97 -83h-243zM438 283l19 110l-45 55h-196l-64 -55l-20 -110h306zM307 625h-21l-25 -20l-4 -24h-47l7 38l55 47h56l55 -50h22l23 20l5 25h46l-6 -39l-56 -47h-55z" />
    <glyph glyph-name="uni1EBE" unicode="&#x1ebe;" horiz-adv-x="574" 
d="M165 700h433l-9 -52h-375l-48 -270h347l-9 -52h-347l-48 -274h375l-9 -52h-433zM593 1019h60l-96 -126h-48zM392 900h59l70 -133h-53l-49 95h-5l-82 -95h-57z" />
    <glyph glyph-name="uni1EBF" unicode="&#x1ebf;" horiz-adv-x="553" 
d="M42 90l58 327l95 81h245l76 -91l-31 -173h-361l-23 -128l46 -55h193l65 54l8 44h56l-12 -66l-97 -83h-243zM438 283l19 110l-45 55h-196l-64 -55l-20 -110h306zM530 817h60l-96 -126h-48zM329 698h59l70 -133h-53l-49 95h-5l-82 -95h-57z" />
    <glyph glyph-name="uni1EC0" unicode="&#x1ec0;" horiz-adv-x="574" 
d="M165 700h433l-9 -52h-375l-48 -270h347l-9 -52h-347l-48 -274h375l-9 -52h-433zM486 1019h60l39 -126h-48zM391 900h59l70 -133h-53l-49 95h-5l-82 -95h-57z" />
    <glyph glyph-name="uni1EC1" unicode="&#x1ec1;" horiz-adv-x="553" 
d="M42 90l58 327l95 81h245l76 -91l-31 -173h-361l-23 -128l46 -55h193l65 54l8 44h56l-12 -66l-97 -83h-243zM438 283l19 110l-45 55h-196l-64 -55l-20 -110h306zM423 817h60l39 -126h-48zM328 698h59l70 -133h-53l-49 95h-5l-82 -95h-57z" />
    <glyph glyph-name="uni1EC2" unicode="&#x1ec2;" horiz-adv-x="574" 
d="M165 700h433l-9 -52h-375l-48 -270h347l-9 -52h-347l-48 -274h375l-9 -52h-433zM523 908l74 55l4 21l-14 16h-47l-22 -18l-4 -21h-44l7 37l50 43h84l38 -45l-9 -46l-71 -52l-4 -24h-48zM391 900h59l70 -133h-53l-49 95h-5l-82 -95h-57z" />
    <glyph glyph-name="uni1EC3" unicode="&#x1ec3;" horiz-adv-x="553" 
d="M42 90l58 327l95 81h245l76 -91l-31 -173h-361l-23 -128l46 -55h193l65 54l8 44h56l-12 -66l-97 -83h-243zM438 283l19 110l-45 55h-196l-64 -55l-20 -110h306zM460 706l74 55l4 21l-14 16h-47l-22 -18l-4 -21h-44l7 37l50 43h84l38 -45l-9 -46l-71 -52l-4 -24h-48z
M328 698h59l70 -133h-53l-49 95h-5l-82 -95h-57z" />
    <glyph glyph-name="uni1EC4" unicode="&#x1ec4;" horiz-adv-x="574" 
d="M165 700h433l-9 -52h-375l-48 -270h347l-9 -52h-347l-48 -274h375l-9 -52h-433zM399 983h-20l-24 -19l-3 -22h-46l6 34l55 47h53l53 -47h20l23 19l4 23h45l-7 -35l-54 -47h-53zM391 900h59l70 -133h-53l-49 95h-5l-82 -95h-57z" />
    <glyph glyph-name="uni1EC5" unicode="&#x1ec5;" horiz-adv-x="553" 
d="M42 90l58 327l95 81h245l76 -91l-31 -173h-361l-23 -128l46 -55h193l65 54l8 44h56l-12 -66l-97 -83h-243zM438 283l19 110l-45 55h-196l-64 -55l-20 -110h306zM336 781h-20l-24 -19l-3 -22h-46l6 34l55 47h53l53 -47h20l23 19l4 23h45l-7 -35l-54 -47h-53zM328 698h59
l70 -133h-53l-49 95h-5l-82 -95h-57z" />
    <glyph glyph-name="uni1EC6" unicode="&#x1ec6;" horiz-adv-x="574" 
d="M165 700h433l-9 -52h-375l-48 -270h347l-9 -52h-347l-48 -274h375l-9 -52h-433zM392 900h59l70 -133h-53l-49 95h-5l-82 -95h-57zM200 -135l7 38l26 22h38l19 -23l-7 -38l-25 -22h-39z" />
    <glyph glyph-name="uni1EC7" unicode="&#x1ec7;" horiz-adv-x="553" 
d="M42 90l58 327l95 81h245l76 -91l-31 -173h-361l-23 -128l46 -55h193l65 54l8 44h56l-12 -66l-97 -83h-243zM438 283l19 110l-45 55h-196l-64 -55l-20 -110h306zM329 698h59l70 -133h-53l-49 95h-5l-82 -95h-57zM172 -135l7 38l26 22h38l19 -23l-7 -38l-25 -22h-39z" />
    <glyph glyph-name="uni1EC8" unicode="&#x1ec8;" horiz-adv-x="238" 
d="M170 700h58l-124 -700h-58zM191 802l84 73l5 27l-14 17h-58l-24 -20l-3 -20h-46l7 36l54 46h94l41 -49l-8 -46l-83 -72l-5 -27h-50z" />
    <glyph glyph-name="uni1EC9" unicode="&#x1ec9;" horiz-adv-x="236" 
d="M134 498h56l-88 -498h-56zM155 600l84 73l5 27l-14 17h-58l-24 -20l-3 -20h-46l7 36l54 46h94l41 -49l-8 -46l-83 -72l-5 -27h-50z" />
    <glyph glyph-name="uni1ECA" unicode="&#x1eca;" horiz-adv-x="238" 
d="M170 700h58l-124 -700h-58zM9 -135l7 38l26 22h38l19 -23l-7 -38l-25 -22h-39z" />
    <glyph glyph-name="uni1ECB" unicode="&#x1ecb;" horiz-adv-x="236" 
d="M140 615l7 38l29 25h36l21 -25l-7 -39l-29 -24h-37zM134 498h56l-88 -498h-56zM9 -135l7 38l26 22h38l19 -23l-7 -38l-25 -22h-39z" />
    <glyph glyph-name="uni1ECC" unicode="&#x1ecc;" horiz-adv-x="668" 
d="M51 110l86 490l118 100h308l90 -109l-87 -492l-116 -99h-309zM428 52l85 73l80 451l-61 72h-256l-86 -72l-80 -451l61 -73h257zM227 -135l7 38l26 22h38l19 -23l-7 -38l-25 -22h-39z" />
    <glyph glyph-name="uni1ECD" unicode="&#x1ecd;" horiz-adv-x="562" 
d="M42 89l58 328l95 81h250l75 -91l-58 -327l-94 -80h-252zM346 51l64 54l51 289l-45 54h-200l-64 -54l-51 -289l45 -54h200zM177 -135l7 38l26 22h38l19 -23l-7 -38l-25 -22h-39z" />
    <glyph glyph-name="uni1ECE" unicode="&#x1ece;" horiz-adv-x="668" 
d="M51 110l86 490l118 100h308l90 -109l-87 -492l-116 -99h-309zM428 52l85 73l80 451l-61 72h-256l-86 -72l-80 -451l61 -73h257zM407 802l84 73l5 27l-14 17h-58l-24 -20l-3 -20h-46l7 36l54 46h94l41 -49l-8 -46l-83 -72l-5 -27h-50z" />
    <glyph glyph-name="uni1ECF" unicode="&#x1ecf;" horiz-adv-x="562" 
d="M42 89l58 328l95 81h250l75 -91l-58 -327l-94 -80h-252zM346 51l64 54l51 289l-45 54h-200l-64 -54l-51 -289l45 -54h200zM319 600l84 73l5 27l-14 17h-58l-24 -20l-3 -20h-46l7 36l54 46h94l41 -49l-8 -46l-83 -72l-5 -27h-50z" />
    <glyph glyph-name="uni1ED0" unicode="&#x1ed0;" horiz-adv-x="668" 
d="M51 110l86 490l118 100h308l90 -109l-87 -492l-116 -99h-309zM428 52l85 73l80 451l-61 72h-256l-86 -72l-80 -451l61 -73h257zM621 1019h60l-96 -126h-48zM420 900h59l70 -133h-53l-49 95h-5l-82 -95h-57z" />
    <glyph glyph-name="uni1ED1" unicode="&#x1ed1;" horiz-adv-x="562" 
d="M42 89l58 328l95 81h250l75 -91l-58 -327l-94 -80h-252zM346 51l64 54l51 289l-45 54h-200l-64 -54l-51 -289l45 -54h200zM533 817h60l-96 -126h-48zM332 698h59l70 -133h-53l-49 95h-5l-82 -95h-57z" />
    <glyph glyph-name="uni1ED2" unicode="&#x1ed2;" horiz-adv-x="668" 
d="M51 110l86 490l118 100h308l90 -109l-87 -492l-116 -99h-309zM428 52l85 73l80 451l-61 72h-256l-86 -72l-80 -451l61 -73h257zM514 1019h60l39 -126h-48zM419 900h59l70 -133h-53l-49 95h-5l-82 -95h-57z" />
    <glyph glyph-name="uni1ED3" unicode="&#x1ed3;" horiz-adv-x="562" 
d="M42 89l58 328l95 81h250l75 -91l-58 -327l-94 -80h-252zM346 51l64 54l51 289l-45 54h-200l-64 -54l-51 -289l45 -54h200zM426 817h60l39 -126h-48zM331 698h59l70 -133h-53l-49 95h-5l-82 -95h-57z" />
    <glyph glyph-name="uni1ED4" unicode="&#x1ed4;" horiz-adv-x="668" 
d="M51 110l86 490l118 100h308l90 -109l-87 -492l-116 -99h-309zM428 52l85 73l80 451l-61 72h-256l-86 -72l-80 -451l61 -73h257zM551 908l74 55l4 21l-14 16h-47l-22 -18l-4 -21h-44l7 37l50 43h84l38 -45l-9 -46l-71 -52l-4 -24h-48zM419 900h59l70 -133h-53l-49 95h-5
l-82 -95h-57z" />
    <glyph glyph-name="uni1ED5" unicode="&#x1ed5;" horiz-adv-x="562" 
d="M42 89l58 328l95 81h250l75 -91l-58 -327l-94 -80h-252zM346 51l64 54l51 289l-45 54h-200l-64 -54l-51 -289l45 -54h200zM463 706l74 55l4 21l-14 16h-47l-22 -18l-4 -21h-44l7 37l50 43h84l38 -45l-9 -46l-71 -52l-4 -24h-48zM331 698h59l70 -133h-53l-49 95h-5
l-82 -95h-57z" />
    <glyph glyph-name="uni1ED6" unicode="&#x1ed6;" horiz-adv-x="668" 
d="M51 110l86 490l118 100h308l90 -109l-87 -492l-116 -99h-309zM428 52l85 73l80 451l-61 72h-256l-86 -72l-80 -451l61 -73h257zM427 983h-20l-24 -19l-3 -22h-46l6 34l55 47h53l53 -47h20l23 19l4 23h45l-7 -35l-54 -47h-53zM419 900h59l70 -133h-53l-49 95h-5l-82 -95
h-57z" />
    <glyph glyph-name="uni1ED7" unicode="&#x1ed7;" horiz-adv-x="562" 
d="M42 89l58 328l95 81h250l75 -91l-58 -327l-94 -80h-252zM346 51l64 54l51 289l-45 54h-200l-64 -54l-51 -289l45 -54h200zM339 781h-20l-24 -19l-3 -22h-46l6 34l55 47h53l53 -47h20l23 19l4 23h45l-7 -35l-54 -47h-53zM331 698h59l70 -133h-53l-49 95h-5l-82 -95h-57z
" />
    <glyph glyph-name="uni1ED8" unicode="&#x1ed8;" horiz-adv-x="668" 
d="M51 110l86 490l118 100h308l90 -109l-87 -492l-116 -99h-309zM428 52l85 73l80 451l-61 72h-256l-86 -72l-80 -451l61 -73h257zM420 900h59l70 -133h-53l-49 95h-5l-82 -95h-57zM227 -135l7 38l26 22h38l19 -23l-7 -38l-25 -22h-39z" />
    <glyph glyph-name="uni1ED9" unicode="&#x1ed9;" horiz-adv-x="562" 
d="M42 89l58 328l95 81h250l75 -91l-58 -327l-94 -80h-252zM346 51l64 54l51 289l-45 54h-200l-64 -54l-51 -289l45 -54h200zM332 698h59l70 -133h-53l-49 95h-5l-82 -95h-57zM177 -135l7 38l26 22h38l19 -23l-7 -38l-25 -22h-39z" />
    <glyph glyph-name="uni1EDA" unicode="&#x1eda;" horiz-adv-x="726" 
d="M791 709l-18 -100l-88 -76h-42l-77 -434l-116 -99h-309l-90 110l86 490l118 100h308l90 -109l-2 -9h15l58 48l13 79h54zM593 576l-61 72h-256l-86 -72l-80 -451l61 -73h257l85 73zM503 920h66l-114 -153h-53z" />
    <glyph glyph-name="uni1EDB" unicode="&#x1edb;" horiz-adv-x="630" 
d="M675 508l-18 -100l-88 -76h-62l-45 -252l-94 -80h-252l-74 89l58 328l95 81h250l75 -91l-5 -26h35l58 48l13 79h54zM461 394l-45 54h-200l-64 -54l-51 -289l45 -54h200l64 54zM415 718h66l-114 -153h-53z" />
    <glyph glyph-name="uni1EDC" unicode="&#x1edc;" horiz-adv-x="726" 
d="M791 709l-18 -100l-88 -76h-42l-77 -434l-116 -99h-309l-90 110l86 490l118 100h308l90 -109l-2 -9h15l58 48l13 79h54zM593 576l-61 72h-256l-86 -72l-80 -451l61 -73h257l85 73zM336 920h66l48 -153h-53z" />
    <glyph glyph-name="uni1EDD" unicode="&#x1edd;" horiz-adv-x="630" 
d="M675 508l-18 -100l-88 -76h-62l-45 -252l-94 -80h-252l-74 89l58 328l95 81h250l75 -91l-5 -26h35l58 48l13 79h54zM461 394l-45 54h-200l-64 -54l-51 -289l45 -54h200l64 54zM248 718h66l48 -153h-53z" />
    <glyph glyph-name="uni1EDE" unicode="&#x1ede;" horiz-adv-x="726" 
d="M791 709l-18 -100l-88 -76h-42l-77 -434l-116 -99h-309l-90 110l86 490l118 100h308l90 -109l-2 -9h15l58 48l13 79h54zM593 576l-61 72h-256l-86 -72l-80 -451l61 -73h257l85 73zM407 802l84 73l5 27l-14 17h-58l-24 -20l-3 -20h-46l7 36l54 46h94l41 -49l-8 -46
l-83 -72l-5 -27h-50z" />
    <glyph glyph-name="uni1EDF" unicode="&#x1edf;" horiz-adv-x="630" 
d="M675 508l-18 -100l-88 -76h-62l-45 -252l-94 -80h-252l-74 89l58 328l95 81h250l75 -91l-5 -26h35l58 48l13 79h54zM461 394l-45 54h-200l-64 -54l-51 -289l45 -54h200l64 54zM319 600l84 73l5 27l-14 17h-58l-24 -20l-3 -20h-46l7 36l54 46h94l41 -49l-8 -46l-83 -72
l-5 -27h-50z" />
    <glyph glyph-name="uni1EE0" unicode="&#x1ee0;" horiz-adv-x="726" 
d="M791 709l-18 -100l-88 -76h-42l-77 -434l-116 -99h-309l-90 110l86 490l118 100h308l90 -109l-2 -9h15l58 48l13 79h54zM593 576l-61 72h-256l-86 -72l-80 -451l61 -73h257l85 73zM398 827h-21l-25 -20l-4 -24h-47l7 38l55 47h56l55 -50h22l23 20l5 25h46l-6 -39l-56 -47
h-55z" />
    <glyph glyph-name="uni1EE1" unicode="&#x1ee1;" horiz-adv-x="630" 
d="M675 508l-18 -100l-88 -76h-62l-45 -252l-94 -80h-252l-74 89l58 328l95 81h250l75 -91l-5 -26h35l58 48l13 79h54zM461 394l-45 54h-200l-64 -54l-51 -289l45 -54h200l64 54zM310 625h-21l-25 -20l-4 -24h-47l7 38l55 47h56l55 -50h22l23 20l5 25h46l-6 -39l-56 -47h-55
z" />
    <glyph glyph-name="uni1EE2" unicode="&#x1ee2;" horiz-adv-x="726" 
d="M791 709l-18 -100l-88 -76h-42l-77 -434l-116 -99h-309l-90 110l86 490l118 100h308l90 -109l-2 -9h15l58 48l13 79h54zM593 576l-61 72h-256l-86 -72l-80 -451l61 -73h257l85 73zM227 -135l7 38l26 22h38l19 -23l-7 -38l-25 -22h-39z" />
    <glyph glyph-name="uni1EE3" unicode="&#x1ee3;" horiz-adv-x="630" 
d="M675 508l-18 -100l-88 -76h-62l-45 -252l-94 -80h-252l-74 89l58 328l95 81h250l75 -91l-5 -26h35l58 48l13 79h54zM461 394l-45 54h-200l-64 -54l-51 -289l45 -54h200l64 54zM177 -135l7 38l26 22h38l19 -23l-7 -38l-25 -22h-39z" />
    <glyph glyph-name="uni1EE4" unicode="&#x1ee4;" horiz-adv-x="668" 
d="M61 110l104 590h58l-102 -576l60 -72h237l85 72l102 576h58l-107 -601l-116 -99h-289zM228 -135l7 38l26 22h38l19 -23l-7 -38l-25 -22h-39z" />
    <glyph glyph-name="uni1EE5" unicode="&#x1ee5;" horiz-adv-x="559" 
d="M48 90l71 408h56l-69 -393l45 -54h106l154 132l56 315h56l-88 -498h-55l19 114l-132 -114h-146zM172 -135l7 38l26 22h38l19 -23l-7 -38l-25 -22h-39z" />
    <glyph glyph-name="uni1EE6" unicode="&#x1ee6;" horiz-adv-x="668" 
d="M61 110l104 590h58l-102 -576l60 -72h237l85 72l102 576h58l-107 -601l-116 -99h-289zM407 802l84 73l5 27l-14 17h-58l-24 -20l-3 -20h-46l7 36l54 46h94l41 -49l-8 -46l-83 -72l-5 -27h-50z" />
    <glyph glyph-name="uni1EE7" unicode="&#x1ee7;" horiz-adv-x="559" 
d="M48 90l71 408h56l-69 -393l45 -54h106l154 132l56 315h56l-88 -498h-55l19 114l-132 -114h-146zM315 600l84 73l5 27l-14 17h-58l-24 -20l-3 -20h-46l7 36l54 46h94l41 -49l-8 -46l-83 -72l-5 -27h-50z" />
    <glyph glyph-name="uni1EE8" unicode="&#x1ee8;" horiz-adv-x="730" 
d="M800 715l-17 -100l-89 -76h-60l-78 -440l-116 -99h-289l-90 110l104 590h58l-102 -576l60 -72h237l85 72l102 576h58l-20 -112h33l57 48l14 79h53zM503 920h66l-114 -153h-53z" />
    <glyph glyph-name="uni1EE9" unicode="&#x1ee9;" horiz-adv-x="630" 
d="M662 508l-18 -100l-88 -76h-62l-59 -332h-55l19 114l-132 -114h-146l-73 90l71 408h56l-69 -393l45 -54h106l154 132l56 315h56l-21 -117h35l58 48l13 79h54zM411 718h66l-114 -153h-53z" />
    <glyph glyph-name="uni1EEA" unicode="&#x1eea;" horiz-adv-x="730" 
d="M800 715l-17 -100l-89 -76h-60l-78 -440l-116 -99h-289l-90 110l104 590h58l-102 -576l60 -72h237l85 72l102 576h58l-20 -112h33l57 48l14 79h53zM330 920h66l48 -153h-53z" />
    <glyph glyph-name="uni1EEB" unicode="&#x1eeb;" horiz-adv-x="630" 
d="M662 508l-18 -100l-88 -76h-62l-59 -332h-55l19 114l-132 -114h-146l-73 90l71 408h56l-69 -393l45 -54h106l154 132l56 315h56l-21 -117h35l58 48l13 79h54zM257 718h66l48 -153h-53z" />
    <glyph glyph-name="uni1EEC" unicode="&#x1eec;" horiz-adv-x="730" 
d="M800 715l-17 -100l-89 -76h-60l-78 -440l-116 -99h-289l-90 110l104 590h58l-102 -576l60 -72h237l85 72l102 576h58l-20 -112h33l57 48l14 79h53zM407 802l84 73l5 27l-14 17h-58l-24 -20l-3 -20h-46l7 36l54 46h94l41 -49l-8 -46l-83 -72l-5 -27h-50z" />
    <glyph glyph-name="uni1EED" unicode="&#x1eed;" horiz-adv-x="630" 
d="M662 508l-18 -100l-88 -76h-62l-59 -332h-55l19 114l-132 -114h-146l-73 90l71 408h56l-69 -393l45 -54h106l154 132l56 315h56l-21 -117h35l58 48l13 79h54zM315 600l84 73l5 27l-14 17h-58l-24 -20l-3 -20h-46l7 36l54 46h94l41 -49l-8 -46l-83 -72l-5 -27h-50z" />
    <glyph glyph-name="uni1EEE" unicode="&#x1eee;" horiz-adv-x="730" 
d="M800 715l-17 -100l-89 -76h-60l-78 -440l-116 -99h-289l-90 110l104 590h58l-102 -576l60 -72h237l85 72l102 576h58l-20 -112h33l57 48l14 79h53zM398 827h-21l-25 -20l-4 -24h-47l7 38l55 47h56l55 -50h22l23 20l5 25h46l-6 -39l-56 -47h-55z" />
    <glyph glyph-name="uni1EEF" unicode="&#x1eef;" horiz-adv-x="630" 
d="M662 508l-18 -100l-88 -76h-62l-59 -332h-55l19 114l-132 -114h-146l-73 90l71 408h56l-69 -393l45 -54h106l154 132l56 315h56l-21 -117h35l58 48l13 79h54zM306 625h-21l-25 -20l-4 -24h-47l7 38l55 47h56l55 -50h22l23 20l5 25h46l-6 -39l-56 -47h-55z" />
    <glyph glyph-name="uni1EF0" unicode="&#x1ef0;" horiz-adv-x="730" 
d="M800 715l-17 -100l-89 -76h-60l-78 -440l-116 -99h-289l-90 110l104 590h58l-102 -576l60 -72h237l85 72l102 576h58l-20 -112h33l57 48l14 79h53zM228 -135l7 38l26 22h38l19 -23l-7 -38l-25 -22h-39z" />
    <glyph glyph-name="uni1EF1" unicode="&#x1ef1;" horiz-adv-x="630" 
d="M662 508l-18 -100l-88 -76h-62l-59 -332h-55l19 114l-132 -114h-146l-73 90l71 408h56l-69 -393l45 -54h106l154 132l56 315h56l-21 -117h35l58 48l13 79h54zM172 -135l7 38l26 22h38l19 -23l-7 -38l-25 -22h-39z" />
    <glyph glyph-name="Ygrave" unicode="&#x1ef2;" horiz-adv-x="572" 
d="M266 294l-166 406h58l140 -353h2l266 353h66l-309 -406l-51 -294h-58zM280 920h66l48 -153h-53z" />
    <glyph glyph-name="ygrave" unicode="&#x1ef3;" horiz-adv-x="561" 
d="M524 498l-110 -629l-103 -86h-228l-62 75l9 52h56l-7 -39l32 -38h186l64 54l40 227l-134 -114h-147l-73 89l72 409h56l-69 -393l45 -54h107l155 132l55 315h56zM257 718h66l48 -153h-53z" />
    <glyph glyph-name="uni1EF4" unicode="&#x1ef4;" horiz-adv-x="572" 
d="M266 294l-166 406h58l140 -353h2l266 353h66l-309 -406l-51 -294h-58zM179 -135l7 38l26 22h38l19 -23l-7 -38l-25 -22h-39z" />
    <glyph glyph-name="uni1EF5" unicode="&#x1ef5;" horiz-adv-x="561" 
d="M524 498l-110 -629l-103 -86h-228l-62 75l9 52h56l-7 -39l32 -38h186l64 54l40 227l-134 -114h-147l-73 89l72 409h56l-69 -393l45 -54h107l155 132l55 315h56zM139 -353l7 38l26 22h38l19 -23l-7 -38l-25 -22h-39z" />
    <glyph glyph-name="uni1EF6" unicode="&#x1ef6;" horiz-adv-x="572" 
d="M266 294l-166 406h58l140 -353h2l266 353h66l-309 -406l-51 -294h-58zM351 802l84 73l5 27l-14 17h-58l-24 -20l-3 -20h-46l7 36l54 46h94l41 -49l-8 -46l-83 -72l-5 -27h-50z" />
    <glyph glyph-name="uni1EF7" unicode="&#x1ef7;" horiz-adv-x="561" 
d="M524 498l-110 -629l-103 -86h-228l-62 75l9 52h56l-7 -39l32 -38h186l64 54l40 227l-134 -114h-147l-73 89l72 409h56l-69 -393l45 -54h107l155 132l55 315h56zM317 600l84 73l5 27l-14 17h-58l-24 -20l-3 -20h-46l7 36l54 46h94l41 -49l-8 -46l-83 -72l-5 -27h-50z" />
    <glyph glyph-name="uni1EF8" unicode="&#x1ef8;" horiz-adv-x="572" 
d="M266 294l-166 406h58l140 -353h2l266 353h66l-309 -406l-51 -294h-58zM342 827h-21l-25 -20l-4 -24h-47l7 38l55 47h56l55 -50h22l23 20l5 25h46l-6 -39l-56 -47h-55z" />
    <glyph glyph-name="uni1EF9" unicode="&#x1ef9;" horiz-adv-x="561" 
d="M524 498l-110 -629l-103 -86h-228l-62 75l9 52h56l-7 -39l32 -38h186l64 54l40 227l-134 -114h-147l-73 89l72 409h56l-69 -393l45 -54h107l155 132l55 315h56zM308 625h-21l-25 -20l-4 -24h-47l7 38l55 47h56l55 -50h22l23 20l5 25h46l-6 -39l-56 -47h-55z" />
    <glyph glyph-name="uni2007" unicode="&#x2007;" horiz-adv-x="620" 
 />
    <glyph glyph-name="uni2010" unicode="&#x2010;" horiz-adv-x="667" 
d="M65 277h547l-9 -50h-547z" />
    <glyph glyph-name="figuredash" unicode="&#x2012;" horiz-adv-x="590" 
d="M65 277h470l-9 -50h-470z" />
    <glyph glyph-name="endash" unicode="&#x2013;" horiz-adv-x="615" 
d="M65 277h495l-9 -50h-495z" />
    <glyph glyph-name="emdash" unicode="&#x2014;" horiz-adv-x="719" 
d="M65 277h599l-9 -50h-599z" />
    <glyph glyph-name="uni2015" unicode="&#x2015;" horiz-adv-x="938" 
d="M65 277h818l-9 -50h-818z" />
    <glyph glyph-name="quoteleft" unicode="&#x2018;" horiz-adv-x="201" 
d="M164 579h13l20 -24l-6 -37l-30 -25h-36l-20 25l11 61l66 121h34z" />
    <glyph glyph-name="quoteright" unicode="&#x2019;" horiz-adv-x="201" 
d="M160 614h-13l-20 25l6 37l30 24h36l20 -24l-11 -62l-66 -121h-35z" />
    <glyph glyph-name="quotesinglbase" unicode="&#x201a;" horiz-adv-x="201" 
d="M52 0h-13l-20 25l6 37l30 24h36l20 -24l-11 -62l-66 -121h-35z" />
    <glyph glyph-name="quotedblleft" unicode="&#x201c;" horiz-adv-x="337" 
d="M164 579h13l20 -24l-6 -37l-30 -25h-36l-20 25l11 61l66 121h34zM300 579h13l20 -24l-6 -37l-30 -25h-36l-20 25l11 61l66 121h34z" />
    <glyph glyph-name="quotedblright" unicode="&#x201d;" horiz-adv-x="337" 
d="M160 614h-13l-20 25l6 37l30 24h36l20 -24l-11 -62l-66 -121h-35zM296 614h-13l-20 25l6 37l30 24h36l20 -24l-11 -62l-66 -121h-35z" />
    <glyph glyph-name="quotedblbase" unicode="&#x201e;" horiz-adv-x="337" 
d="M51 0h-13l-20 25l6 37l30 24h36l20 -24l-11 -62l-66 -121h-35zM188 0h-13l-20 25l6 37l30 24h36l20 -24l-11 -62l-66 -121h-35z" />
    <glyph glyph-name="dagger" unicode="&#x2020;" horiz-adv-x="498" 
d="M256 448h-161l9 50h161l31 175h56l-31 -175h161l-9 -50h-161l-96 -548h-57z" />
    <glyph glyph-name="daggerdbl" unicode="&#x2021;" horiz-adv-x="498" 
d="M312 448l-56 -322h160l-9 -51h-160l-31 -175h-57l31 175h-160l9 51h160l57 322h-161l9 50h161l30 175h57l-31 -175h161l-9 -50h-161z" />
    <glyph glyph-name="bullet" unicode="&#x2022;" horiz-adv-x="344" 
d="M59 242l18 101l67 59h106l50 -63l-18 -103l-66 -57h-107z" />
    <glyph glyph-name="ellipsis" unicode="&#x2026;" horiz-adv-x="606" 
d="M18 25l7 37l29 24h37l20 -24l-7 -37l-28 -25h-37zM220 25l7 37l29 24h37l20 -24l-7 -37l-28 -25h-37zM422 25l7 37l29 24h37l20 -24l-7 -37l-28 -25h-37z" />
    <glyph glyph-name="perthousand" unicode="&#x2030;" horiz-adv-x="1153" 
d="M86 396l44 248l66 56h143l54 -64l-44 -248l-64 -56h-146zM650 700h60l-509 -700h-59zM265 378l38 32l37 213l-27 32h-98l-38 -32l-38 -213l27 -32h99zM454 64l44 248l65 56h144l53 -64l-43 -248l-65 -56h-145zM795 64l44 248l66 56h143l54 -64l-44 -248l-64 -56h-146z
M632 46l38 32l38 213l-27 32h-99l-38 -32l-37 -213l27 -32h98zM974 46l38 32l37 213l-27 32h-98l-38 -32l-38 -213l27 -32h99z" />
    <glyph glyph-name="minute" unicode="&#x2032;" horiz-adv-x="204" 
d="M178 700h56l-80 -186h-47z" />
    <glyph glyph-name="second" unicode="&#x2033;" horiz-adv-x="323" 
d="M178 700h56l-80 -186h-47zM297 700h56l-80 -186h-47z" />
    <glyph glyph-name="guilsinglleft" unicode="&#x2039;" horiz-adv-x="301" 
d="M39 243l10 52l232 182l-13 -72l-174 -137l-1 -6l125 -138l-11 -63z" />
    <glyph glyph-name="guilsinglright" unicode="&#x203a;" horiz-adv-x="301" 
d="M269 295l-10 -52l-232 -182l13 72l174 138l1 6l-125 137l11 63z" />
    <glyph glyph-name="fraction" unicode="&#x2044;" horiz-adv-x="551" 
d="M586 700l-525 -700h-60l525 700h60z" />
    <glyph glyph-name="uni2070" unicode="&#x2070;" horiz-adv-x="424" 
d="M78 347l52 295l69 58h177l56 -67l-52 -296l-68 -57h-179zM292 329l37 32l46 258l-26 32h-131l-38 -32l-45 -258l26 -32h131z" />
    <glyph glyph-name="uni2074" unicode="&#x2074;" horiz-adv-x="384" 
d="M264 363h-209l13 75l235 262h75l-51 -288h51l-8 -49h-51l-15 -83h-54zM275 411l41 231h-3l-190 -212l-3 -19h155z" />
    <glyph glyph-name="uni2075" unicode="&#x2075;" horiz-adv-x="388" 
d="M72 342l9 51h55l-7 -38l22 -26h126l31 26l19 113l-21 27h-201l36 205h274l-9 -49h-219l-19 -107h163l53 -64l-26 -147l-62 -53h-172z" />
    <glyph glyph-name="uni2076" unicode="&#x2076;" horiz-adv-x="402" 
d="M77 341l53 305l64 54h171l52 -63l-7 -46h-54l6 33l-23 27h-126l-32 -27l-23 -130l52 44h130l51 -63l-24 -142l-63 -53h-177zM285 329l31 27l19 106l-22 27h-100l-66 -55l-13 -78l22 -27h129z" />
    <glyph glyph-name="uni2077" unicode="&#x2077;" horiz-adv-x="349" 
d="M320 635l3 16h-216l8 49h273l-12 -68l-227 -352h-58z" />
    <glyph glyph-name="uni2078" unicode="&#x2078;" horiz-adv-x="411" 
d="M72 343l20 116l45 38l-27 31l21 118l65 54h171l51 -63l-19 -109l-37 -31l31 -38l-22 -126l-62 -53h-185zM316 518l32 26l14 80l-23 27h-125l-31 -27l-14 -80l22 -26h125zM289 329l32 27l15 88l-22 26h-138l-31 -26l-16 -88l23 -27h137z" />
    <glyph glyph-name="uni2079" unicode="&#x2079;" horiz-adv-x="402" 
d="M73 342l8 44h54l-6 -30l23 -27h123l31 27l22 124l-48 -41h-134l-51 64l25 143l65 54h173l52 -63l-53 -304l-63 -53h-169zM281 489l57 49l16 86l-23 27h-128l-32 -27l-19 -109l22 -26h107z" />
    <glyph glyph-name="uni207D" unicode="&#x207d;" horiz-adv-x="217" 
d="M63 265l78 439l62 53h79l-9 -48h-49l-35 -29l-70 -400l24 -29h49l-8 -48h-70z" />
    <glyph glyph-name="uni207E" unicode="&#x207e;" horiz-adv-x="217" 
d="M236 695l-78 -438l-62 -53h-79l9 48h49l35 29l70 399l-24 29h-49l8 48h70z" />
    <glyph glyph-name="uni207F" unicode="&#x207f;" horiz-adv-x="418" 
d="M140 700h52l-14 -74l87 74h102l58 -70l-49 -279h-54l47 267l-28 34h-69l-102 -88l-38 -213h-54z" />
    <glyph glyph-name="uni2080" unicode="&#x2080;" horiz-adv-x="424" 
d="M2 -83l52 295l69 58h177l56 -67l-52 -296l-68 -57h-179zM216 -101l37 32l46 258l-26 32h-131l-38 -32l-45 -258l26 -32h131z" />
    <glyph glyph-name="uni2081" unicode="&#x2081;" horiz-adv-x="257" 
d="M126 211l-101 -48l9 52l111 55h46l-74 -420h-54z" />
    <glyph glyph-name="uni2082" unicode="&#x2082;" horiz-adv-x="366" 
d="M-9 -69l260 214l8 50l-21 26h-116l-32 -26l-6 -37h-55l10 55l67 57h158l52 -62l-14 -81l-257 -210l-3 -19h223l-9 -48h-279z" />
    <glyph glyph-name="uni2083" unicode="&#x2083;" horiz-adv-x="399" 
d="M-9 -88l8 49h56l-7 -36l22 -26h127l31 26l15 86l-22 26h-122l9 49h122l30 26l15 83l-21 26h-124l-31 -26l-6 -36h-54l9 54l67 57h164l52 -63l-20 -113l-40 -34l28 -34l-21 -123l-62 -53h-173z" />
    <glyph glyph-name="uni2084" unicode="&#x2084;" horiz-adv-x="384" 
d="M188 -67h-209l13 75l235 262h75l-51 -288h51l-8 -49h-51l-15 -83h-54zM199 -19l41 231h-3l-190 -212l-3 -19h155z" />
    <glyph glyph-name="uni2085" unicode="&#x2085;" horiz-adv-x="388" 
d="M-4 -88l9 51h55l-7 -38l22 -26h126l31 26l19 113l-21 27h-201l36 205h274l-9 -49h-219l-19 -107h163l53 -64l-26 -147l-62 -53h-172z" />
    <glyph glyph-name="uni2086" unicode="&#x2086;" horiz-adv-x="402" 
d="M1 -89l53 305l64 54h171l52 -63l-7 -46h-54l6 33l-23 27h-126l-32 -27l-23 -130l52 44h130l51 -63l-24 -142l-63 -53h-177zM209 -101l31 27l19 106l-22 27h-100l-66 -55l-13 -78l22 -27h129z" />
    <glyph glyph-name="uni2087" unicode="&#x2087;" horiz-adv-x="349" 
d="M244 205l3 16h-216l8 49h273l-12 -68l-227 -352h-58z" />
    <glyph glyph-name="uni2088" unicode="&#x2088;" horiz-adv-x="411" 
d="M-4 -87l20 116l45 38l-27 31l21 118l65 54h171l51 -63l-19 -109l-37 -31l31 -38l-22 -126l-62 -53h-185zM240 88l32 26l14 80l-23 27h-125l-31 -27l-14 -80l22 -26h125zM213 -101l32 27l15 88l-22 26h-138l-31 -26l-16 -88l23 -27h137z" />
    <glyph glyph-name="uni2089" unicode="&#x2089;" horiz-adv-x="402" 
d="M-3 -88l8 44h54l-6 -30l23 -27h123l31 27l22 124l-48 -41h-134l-51 64l25 143l65 54h173l52 -63l-53 -304l-63 -53h-169zM205 59l57 49l16 86l-23 27h-128l-32 -27l-19 -109l22 -26h107z" />
    <glyph glyph-name="uni208D" unicode="&#x208d;" horiz-adv-x="217" 
d="M-10 -147l78 439l62 53h79l-9 -48h-49l-35 -29l-70 -400l24 -29h49l-8 -48h-70z" />
    <glyph glyph-name="uni208E" unicode="&#x208e;" horiz-adv-x="217" 
d="M181 283l-78 -439l-62 -53h-79l8 48h50l35 29l70 400l-24 29h-49l8 48h70z" />
    <glyph glyph-name="colonmonetary" unicode="&#x20a1;" horiz-adv-x="623" 
d="M575 663l58 -69l-9 -48h-57l6 35l-20 24l-218 -553h77l80 67l6 35h58l-11 -58l-113 -96h-118l-43 -110h-54l43 110h-102l-43 -110h-54l55 140l-65 80l87 490l117 100h125l43 110h54l-43 -110h102l43 110h54zM140 90l219 558h-83l-85 -72l-80 -451zM281 52l234 596h-102
l-234 -596h102z" />
    <glyph glyph-name="lira" unicode="&#x20a4;" horiz-adv-x="600" 
d="M612 605l-10 -53h-56l7 40l-47 56h-151l-86 -73l-26 -146h241l-9 -48h-240l-12 -69h240l-8 -48h-241l-14 -82l-92 -85l-8 -46h425l-9 -51h-482l19 111l92 86l12 67h-94l9 48h93l12 69h-93l8 48h94l30 170l118 101h199z" />
    <glyph glyph-name="uni20A6" unicode="&#x20a6;" horiz-adv-x="758" 
d="M742 329h-101l-58 -329h-58l-148 329h-175l-58 -329h-55l58 329h-103l9 48h102l57 323h58l146 -323h179l57 323h54l-57 -323h102zM356 377l-103 229h-2l-40 -229h145zM586 329h-149l106 -234h2z" />
    <glyph glyph-name="peseta" unicode="&#x20a7;" horiz-adv-x="724" 
d="M734 479h-95l-16 -91l-97 -82h-333l-54 -306h-57l84 479h-95l8 48h96l30 173h381l75 -91l-14 -82h96zM232 527h358l12 68l-45 54h-303zM582 479h-358l-22 -122h304l64 54z" />
    <glyph glyph-name="dong" unicode="&#x20ab;" horiz-adv-x="587" 
d="M631 590h-80l-103 -590h-55l16 97l-113 -97h-181l-73 89l58 328l95 81h191l79 -81l30 173h-162l8 47h163l13 77h56l-13 -77h80zM454 357l-88 91h-150l-64 -54l-52 -289l45 -54h143l132 112zM44 -78h371l-9 -48h-371z" />
    <glyph glyph-name="Euro" unicode="&#x20ac;" horiz-adv-x="664" 
d="M674 594l-9 -48h-57l6 35l-56 67h-241l-85 -72l-24 -136h250l-8 -49h-251l-16 -90h251l-9 -48h-250l-23 -128l61 -73h240l80 67l6 35h58l-11 -58l-113 -96h-291l-90 110l25 143h-81l8 48h82l16 90h-82l9 49h82l28 160l117 100h290z" />
    <glyph glyph-name="uni20B1" unicode="&#x20b1;" horiz-adv-x="716" 
d="M647 539l-13 -72h91l-9 -48h-91l-5 -31l-96 -82h-333l-54 -306h-58l74 419h-93l9 48h92l13 72h-92l8 47h92l20 114h381l76 -91l-4 -23h90l-8 -47h-90zM240 586h358l2 9l-45 54h-304zM590 539h-358l-13 -72h359zM569 419h-358l-11 -62h303l65 54z" />
    <glyph glyph-name="uni20B2" unicode="&#x20b2;" horiz-adv-x="644" 
d="M573 546l7 35l-57 67h-93l-51 -290h219l-46 -259l-117 -99h-119l-19 -110h-54l19 110h-121l-90 110l86 490l118 100h131l19 110h54l-19 -110h112l87 -105l-8 -49h-58zM376 648h-100l-86 -72l-80 -451l61 -73h101zM370 306l-44 -254h88l85 72l32 182h-161z" />
    <glyph glyph-name="uni20B5" unicode="&#x20b5;" horiz-adv-x="623" 
d="M633 594l-9 -48h-57l6 35l-56 67h-86l-104 -596h85l80 67l6 35h58l-11 -58l-113 -96h-115l-19 -110h-54l19 110h-122l-90 110l87 490l117 100h132l19 110h54l-19 -110h104zM377 648h-101l-85 -72l-80 -451l61 -73h101z" />
    <glyph glyph-name="uni20B9" unicode="&#x20b9;" horiz-adv-x="638" 
d="M649 653h-166l35 -43l-15 -87h123l-8 -49h-124l-15 -83l-92 -78l67 -89l-40 -224h-57l36 207l-72 96h-251l9 51h283l64 54l12 66h-337l8 49h337l13 72l-45 54h-283l9 51h517z" />
    <glyph glyph-name="uni20BA" unicode="&#x20ba;" horiz-adv-x="603" 
d="M562 272l-20 -105l-196 -167h-230l53 300l-105 -31l8 49l106 31l16 89l-106 -31l9 49l105 31l38 213h58l-35 -195l185 55l-8 -49l-185 -55l-16 -89l185 55l-9 -49l-185 -55l-47 -266h147l161 137l15 83h56z" />
    <glyph glyph-name="uni20BD" unicode="&#x20bd;" horiz-adv-x="659" 
d="M667 609l-38 -221l-97 -82h-333l-21 -118h200l-9 -48h-199l-25 -140h-57l25 140h-102l9 48h101l21 118h-102l9 49h101l61 345h381zM608 595l-45 54h-303l-52 -292h304l64 54z" />
    <glyph glyph-name="uni210A" unicode="&#x210a;" horiz-adv-x="572" 
d="M23 -215l16 93l84 71h260l27 151l-115 -90h-177l-74 90l56 317l95 81h187l81 -101l18 101h55l-97 -549h83l-9 -49h-83l-21 -123l-96 -81h-217zM290 61l131 103l29 170l-92 114h-142l-64 -54l-49 -279l45 -54h142zM291 -255l66 55l17 100h-236l-47 -40l-11 -62l43 -53h168
z" />
    <glyph glyph-name="uni2113" unicode="&#x2113;" horiz-adv-x="464" 
d="M175 299l-36 -205l37 -44h92l53 44l5 34h56l-10 -56l-84 -72h-140l-68 82l33 187l-78 -37l-15 42l103 49l54 305l85 72h135l68 -81l-35 -199zM184 352l194 92l29 162l-37 45h-88l-53 -45z" />
    <glyph glyph-name="uni2117" unicode="&#x2117;" horiz-adv-x="826" 
d="M48 180l62 349l201 171h354l149 -180l-62 -350l-200 -170h-356zM530 50l174 148l54 305l-121 147h-305l-174 -147l-54 -305l121 -148h305zM311 550h270l65 -80l-23 -132l-82 -70h-225l-21 -121h-55zM524 316l49 42l18 102l-34 41h-201l-32 -185h200z" />
    <glyph glyph-name="uni2120" unicode="&#x2120;" horiz-adv-x="769" 
d="M463 701h53l65 -242h1l151 242h56l-62 -349h-52l43 243h-1l-127 -199h-36l-57 199h-1l-43 -243h-52zM88 406l7 38h53l-4 -25l16 -20h115l23 20l12 66l-16 20h-134l-44 53l16 95l55 47h155l46 -55l-7 -38h-53l4 26l-16 19h-110l-23 -19l-11 -60l16 -20h133l45 -54
l-18 -100l-56 -48h-159z" />
    <glyph glyph-name="trademark" unicode="&#x2122;" horiz-adv-x="755" 
d="M454 701h53l65 -242h1l151 242h56l-62 -349h-52l43 243h-1l-127 -199h-36l-57 199h-1l-43 -243h-52zM237 652h-105l8 48h264l-8 -48h-105l-54 -301h-54z" />
    <glyph glyph-name="estimated" unicode="&#x212e;" horiz-adv-x="796" 
d="M245 32.5q-81 42.5 -127 119t-46 175.5t45.5 175.5t124.5 119t178 42.5q96 0 173 -40t121 -113t44 -168v-17h-541v-231q26 -34 84 -54.5t126 -20.5q79 0 149.5 34t108.5 90h37q-41 -69 -122 -111.5t-173 -42.5q-101 0 -182 42.5zM625 357v208q-28 30 -84 49.5t-121 19.5
q-62 0 -118 -18t-85 -47v-212h408z" />
    <glyph glyph-name="uni2153" unicode="&#x2153;" horiz-adv-x="840" 
d="M459 62l8 49h56l-7 -36l22 -26h127l31 26l15 86l-22 26h-122l9 49h122l30 26l15 83l-21 26h-124l-31 -26l-6 -36h-54l9 54l67 57h164l52 -63l-20 -113l-40 -34l28 -34l-21 -123l-62 -53h-173zM680 700l-525 -700h-60l525 700h60zM222 641l-101 -48l9 52l111 55h46
l-74 -420h-54z" />
    <glyph glyph-name="uni2154" unicode="&#x2154;" horiz-adv-x="942" 
d="M82 361l260 214l8 50l-21 26h-116l-32 -26l-6 -37h-55l10 55l67 57h158l52 -62l-14 -81l-257 -210l-3 -19h223l-9 -48h-279zM548 62l8 49h56l-7 -36l22 -26h127l31 26l15 86l-22 26h-122l9 49h122l30 26l15 83l-21 26h-124l-31 -26l-6 -36h-54l9 54l67 57h164l52 -63
l-20 -113l-40 -34l28 -34l-21 -123l-62 -53h-173zM790 700l-525 -700h-60l525 700h60z" />
    <glyph glyph-name="oneeighth" unicode="&#x215b;" horiz-adv-x="852" 
d="M459 64l20 116l45 38l-27 31l21 118l65 54h171l51 -63l-19 -109l-37 -31l31 -38l-22 -126l-62 -53h-185zM703 239l32 26l14 80l-23 27h-125l-31 -27l-14 -80l22 -26h125zM676 50l32 27l15 88l-22 26h-138l-31 -26l-16 -88l23 -27h137zM679 700l-525 -700h-60l525 700h60z
M222 641l-101 -48l9 52l111 55h46l-74 -420h-54z" />
    <glyph glyph-name="threeeighths" unicode="&#x215c;" horiz-adv-x="952" 
d="M77 342l8 49h56l-7 -36l22 -26h127l31 26l15 86l-22 26h-122l9 49h122l30 26l15 83l-21 26h-124l-31 -26l-6 -36h-54l9 54l67 57h164l52 -63l-20 -113l-40 -34l28 -34l-21 -123l-62 -53h-173zM546 64l20 116l45 38l-27 31l21 118l65 54h171l51 -63l-19 -109l-37 -31
l31 -38l-22 -126l-62 -53h-185zM790 239l32 26l14 80l-23 27h-125l-31 -27l-14 -80l22 -26h125zM763 50l32 27l15 88l-22 26h-138l-31 -26l-16 -88l23 -27h137zM789 700l-525 -700h-60l525 700h60z" />
    <glyph glyph-name="fiveeighths" unicode="&#x215d;" horiz-adv-x="942" 
d="M77 342l9 51h55l-7 -38l22 -26h126l31 26l19 113l-21 27h-201l36 205h274l-9 -49h-219l-19 -107h163l53 -64l-26 -147l-62 -53h-172zM536 64l20 116l45 38l-27 31l21 118l65 54h171l51 -63l-19 -109l-37 -31l31 -38l-22 -126l-62 -53h-185zM780 239l32 26l14 80l-23 27
h-125l-31 -27l-14 -80l22 -26h125zM753 50l32 27l15 88l-22 26h-138l-31 -26l-16 -88l23 -27h137zM782 700l-525 -700h-60l525 700h60z" />
    <glyph glyph-name="seveneighths" unicode="&#x215e;" horiz-adv-x="859" 
d="M345 635l3 16h-216l8 49h273l-12 -68l-227 -352h-58zM453 64l20 116l45 38l-27 31l21 118l65 54h171l51 -63l-19 -109l-37 -31l31 -38l-22 -126l-62 -53h-185zM697 239l32 26l14 80l-23 27h-125l-31 -27l-14 -80l22 -26h125zM670 50l32 27l15 88l-22 26h-138l-31 -26
l-16 -88l23 -27h137zM686 700l-525 -700h-60l525 700h60z" />
    <glyph glyph-name="arrowleft" unicode="&#x2190;" horiz-adv-x="739" 
d="M64 270l3 14l134 133h64l-113 -114h537l-10 -52h-542l74 -114h-59z" />
    <glyph glyph-name="arrowup" unicode="&#x2191;" horiz-adv-x="400" 
d="M220 507l-130 -92l10 61l152 109h14l113 -113l-10 -57l-97 92l-95 -541h-53z" />
    <glyph glyph-name="arrowright" unicode="&#x2192;" horiz-adv-x="739" 
d="M597 251h-536l9 52h542l-73 114h58l88 -133l-2 -14l-135 -133h-64z" />
    <glyph glyph-name="arrowdown" unicode="&#x2193;" horiz-adv-x="400" 
d="M30 80l11 57l97 -93l95 541h53l-96 -541l130 93l-11 -61l-150 -110h-15z" />
    <glyph glyph-name="partialdiff" unicode="&#x2202;" horiz-adv-x="560" 
d="M32 92l46 256l97 83h208l78 -84l16 91l-87 214h-112l9 48h144l103 -254l-64 -365l-95 -81h-267zM354 51l64 54l32 183l-85 92h-171l-64 -54l-39 -221l45 -54h218z" />
    <glyph glyph-name="product" unicode="&#x220f;" horiz-adv-x="665" 
d="M165 700h495l-143 -810h-57l134 760h-381l-134 -760h-57z" />
    <glyph glyph-name="summation" unicode="&#x2211;" horiz-adv-x="565" 
d="M13 -21l273 314l-163 308l17 99h465l-10 -51h-408l-5 -37l164 -308l-6 -33l-274 -314l-6 -32h408l-9 -51h-465z" />
    <glyph glyph-name="minus" unicode="&#x2212;" horiz-adv-x="531" 
d="M67 289h411l-9 -50h-410z" />
    <glyph glyph-name="uni2215" unicode="&#x2215;" horiz-adv-x="116" 
d="M309 701h60l-511 -701h-60z" />
    <glyph glyph-name="uni2219" unicode="&#x2219;" horiz-adv-x="339" 
d="M43 237l19 107l80 70h113l55 -70l-19 -107l-80 -70h-113z" />
    <glyph glyph-name="radical" unicode="&#x221a;" horiz-adv-x="580" 
d="M131 244h-81l8 50h118l42 -225h6l346 631h60l-387 -700h-64z" />
    <glyph glyph-name="infinity" unicode="&#x221e;" horiz-adv-x="909" 
d="M59 239l23 130l137 116h135l117 -141l161 141h132l104 -125l-23 -131l-137 -116h-115l-124 151l-174 -151h-132zM283 164l154 134l-112 136h-86l-106 -89l-16 -92l74 -89h92zM688 164l106 90l16 90l-74 90h-91l-143 -124l120 -146h66z" />
    <glyph glyph-name="integral" unicode="&#x222b;" horiz-adv-x="459" 
d="M-58 -77h83l69 58l236 633l97 82h111l-9 -49h-82l-67 -56l-240 -635l-97 -82h-109z" />
    <glyph glyph-name="approxequal" unicode="&#x2248;" horiz-adv-x="546" 
d="M225 376h-36l-59 -50l-7 -36h-55l9 50l100 86h71l110 -96h34l62 53l6 33h55l-9 -50l-100 -85h-71zM189 171h-36l-59 -50l-7 -36h-55l9 50l100 86h71l109 -96h35l61 53l6 33h56l-9 -50l-101 -85h-70z" />
    <glyph glyph-name="notequal" unicode="&#x2260;" horiz-adv-x="531" 
d="M332 323l-73 -118h204l-8 -50h-228l-90 -145h-56l90 145h-127l8 50h151l73 118h-203l9 50h226l90 145h56l-90 -145h129l-9 -50h-152z" />
    <glyph glyph-name="lessequal" unicode="&#x2264;" horiz-adv-x="582" 
d="M62 315l11 65l509 211l-10 -52l-452 -186l-1 -6l385 -194l-10 -57zM6 0l9 50h471l-8 -50h-472z" />
    <glyph glyph-name="greaterequal" unicode="&#x2265;" horiz-adv-x="582" 
d="M44 153l453 194l1 6l-386 186l8 52l435 -211l-12 -65l-510 -219zM25 50h471l-8 -50h-472z" />
    <glyph glyph-name="filledbox" unicode="&#x25a0;" horiz-adv-x="600" 
d="M122 603h480l-85 -484h-480z" />
    <glyph glyph-name="triagup" unicode="&#x25b2;" horiz-adv-x="700" 
d="M410 588l186 -588h-580z" />
    <glyph glyph-name="uni25B3" unicode="&#x25b3;" horiz-adv-x="700" 
d="M410 588l186 -588h-580zM530 45l-135 444l-293 -444h428z" />
    <glyph glyph-name="uni25B6" unicode="&#x25b6;" horiz-adv-x="701" 
d="M120 586l529 -294l-633 -294z" />
    <glyph glyph-name="uni25B7" unicode="&#x25b7;" horiz-adv-x="705" 
d="M120 584l532 -292l-636 -293zM557 295l-403 214l-76 -430z" />
    <glyph glyph-name="triagdn" unicode="&#x25bc;" horiz-adv-x="700" 
d="M119 584h580l-394 -589z" />
    <glyph glyph-name="uni25BD" unicode="&#x25bd;" horiz-adv-x="700" 
d="M119 584h580l-394 -589zM612 539h-428l136 -444z" />
    <glyph glyph-name="uni25C0" unicode="&#x25c0;" horiz-adv-x="701" 
d="M68 292l632 294l-103 -588z" />
    <glyph glyph-name="uni25C1" unicode="&#x25c1;" horiz-adv-x="705" 
d="M68 292l635 292l-102 -585zM641 504l-478 -214l403 -216z" />
    <glyph glyph-name="uni25C6" unicode="&#x25c6;" horiz-adv-x="650" 
d="M74 330l311 269l219 -269l-313 -268z" />
    <glyph glyph-name="lozenge" unicode="&#x25ca;" horiz-adv-x="534" 
d="M76 340l232 340h70l112 -340l-232 -340h-70zM232 49l199 294l-92 288h-6l-199 -293l92 -289h6z" />
    <glyph glyph-name="dieresis_acute" unicode="&#xf6d7;" 
d="M137 827h60l-96 -126h-48zM-74 603l6 36l28 23h36l19 -23l-7 -37l-26 -22h-37zM117 603l7 36l26 23h36l20 -23l-7 -37l-26 -22h-37z" />
    <glyph glyph-name="dieresis_grave" unicode="&#xf6d8;" 
d="M7 827h60l40 -126h-48zM-74 603l6 36l28 23h36l19 -23l-7 -37l-26 -22h-37zM117 603l7 36l26 23h36l20 -23l-7 -37l-26 -22h-37z" />
    <glyph glyph-name="uniF8FF" unicode="&#xf8ff;" horiz-adv-x="579" 
d="M90 712h409v-712h-409v712zM443 54v603h-297v-603h297z" />
    <glyph glyph-name="yoYingthai.less" horiz-adv-x="854" 
d="M49 56l45 254l71 72l-72 85l107 91h249l68 -81l-66 -380l37 -45h145l53 45l81 461h56l-86 -486l-84 -72h-195l-66 81l66 378l-39 48h-207l-52 -43l68 -85l-81 -84l-14 -84l-12 -45l21 8h48l48 -56l-12 -69l-58 -49h-73zM154 41l31 25l7 42l-21 25h-38l-31 -25l-7 -42
l21 -25h38z" />
    <glyph glyph-name="doChadathai.short" horiz-adv-x="620" 
d="M66 -159l11 64l64 56h177l89 -116l108 614l-39 48h-224l-53 -43l81 -85l-63 -83l-44 -247l-57 -49h-68l-47 56l12 68l58 48h57l13 -10l3 42l20 109l54 67l-85 87l107 91h267l68 -81l-123 -696h-50l-45 56l-61 -56h-183zM103 41l30 25l8 41l-22 25h-37l-29 -25l-8 -41
l21 -25h37zM283 -174l48 44l-35 46h-141l-33 -28l-5 -34l22 -28h144z" />
    <glyph glyph-name="toPatakthai.short" horiz-adv-x="620" 
d="M34 -160l14 80l59 50h86l96 -127l64 64l54 -66l108 618l-39 48h-224l-53 -43l81 -85l-63 -83l-44 -247l-57 -49h-68l-47 56l12 68l58 48h57l13 -10l3 42l20 109l54 67l-85 87l107 91h267l68 -81l-123 -695h-53l-52 64l-65 -64l-48 62l-76 -62h-77zM103 41l30 25l8 41
l-22 25h-37l-29 -25l-8 -41l21 -25h37zM151 -175l59 50l-39 51h-48l-31 -26l-8 -49l21 -26h46z" />
    <glyph glyph-name="thoThanthai.less" horiz-adv-x="516" 
d="M134 464l-4 -24l320 -77l-64 -363h-56l21 118l-56 54l-6 9l-69 -59h-68l-46 57l12 66l58 50h74l113 -111l25 144l-320 78l14 79l86 73h327l-9 -50h-299zM248 229l-21 25h-39l-29 -25l-8 -41l21 -25h39l29 25z" />
    <glyph glyph-name="uni0E24.short" horiz-adv-x="580" 
d="M475 459l-39 48h-224l-52 -43l68 -85l-81 -84l-14 -84l-12 -45l21 8h48l48 -56l-12 -69l-58 -49h-73l-46 56l45 254l71 72l-72 85l107 91h266l69 -81l-104 -587h-56zM154 41l31 25l7 42l-21 25h-38l-31 -25l-7 -42l21 -25h38z" />
    <glyph glyph-name="uni0E26.short" horiz-adv-x="620" 
d="M515 459l-39 48h-224l-53 -43l81 -85l-63 -83l-44 -247l-57 -49h-68l-47 56l12 68l58 48h57l13 -10l3 42l20 109l54 67l-85 87l107 91h267l68 -81l-104 -587h-56zM103 41l30 25l8 41l-22 25h-37l-29 -25l-8 -41l21 -25h37z" />
    <glyph glyph-name="loChulathai.short" horiz-adv-x="683" 
d="M174 345l12 48l-20 -9h-52l-45 55l12 70l58 49h72l46 -55l-72 -409h2l187 270h36l92 -270h2l49 276l12 47l-18 -9h-54l-46 55l12 66l57 49h70l46 -54l-2 -18l62 52l23 -31l-93 -77l-79 -450h-53l-105 306l-211 -306h-61zM549 447l32 27l6 38l-22 26h-35l-32 -26l-6 -38
l21 -27h36zM175 425l30 25l7 42l-21 25h-40l-29 -25l-7 -42l20 -25h40z" />
    <glyph glyph-name="breve_acute" 
d="M135 827h60l-95 -126h-48zM-61 636l10 53h48l-8 -40l35 -41h79l48 41l8 40h48l-11 -58l-76 -66h-123z" />
    <glyph glyph-name="breve_grave" 
d="M4 827h60l39 -126h-48zM-61 636l10 53h48l-8 -40l35 -41h79l48 41l8 40h48l-11 -58l-76 -66h-123z" />
    <glyph glyph-name="breve_hookabove" 
d="M58 727l76 56l4 21l-14 16h-49l-22 -19l-4 -20h-44l7 36l50 43h86l38 -45l-9 -46l-73 -51l-4 -25h-48zM-61 636l10 53h48l-8 -40l35 -41h79l48 41l8 40h48l-11 -58l-76 -66h-123z" />
    <glyph glyph-name="breve_tilde" 
d="M54 776h-20l-24 -19l-3 -22h-46l6 34l55 47h53l53 -47h20l23 19l4 23h45l-7 -35l-54 -47h-53zM-61 636l10 53h48l-8 -40l35 -41h79l48 41l8 40h48l-11 -58l-76 -66h-123z" />
    <glyph glyph-name="circumflex_acute" 
d="M251 817h60l-96 -126h-48zM50 698h59l70 -133h-53l-49 95h-5l-82 -95h-57z" />
    <glyph glyph-name="circumflex_grave" 
d="M145 817h60l39 -126h-48zM50 698h59l70 -133h-53l-49 95h-5l-82 -95h-57z" />
    <glyph glyph-name="circumflex_hookabove" 
d="M182 706l74 55l4 21l-14 16h-47l-22 -18l-4 -21h-44l7 37l50 43h84l38 -45l-9 -46l-71 -52l-4 -24h-48zM50 698h59l70 -133h-53l-49 95h-5l-82 -95h-57z" />
    <glyph glyph-name="circumflex_tilde" 
d="M58 781h-20l-24 -19l-3 -22h-46l6 34l55 47h53l53 -47h20l23 19l4 23h45l-7 -35l-54 -47h-53zM50 698h59l70 -133h-53l-49 95h-5l-82 -95h-57z" />
    <glyph glyph-name="dieresis_caron" 
d="M-21 819h53l48 -82h5l76 82h58l-113 -118h-55zM-74 603l6 36l28 23h36l19 -23l-7 -37l-26 -22h-37zM117 603l7 36l26 23h36l20 -23l-7 -37l-26 -22h-37z" />
    <glyph glyph-name="dieresis_macron" 
d="M-37 779h262l-8 -45h-262zM-75 603l7 36l27 23h36l19 -23l-6 -37l-26 -22h-37zM117 603l6 36l27 23h36l19 -23l-6 -37l-27 -22h-37z" />
    <glyph glyph-name="uni0E31.narrow" 
d="M-466 712l12 68l52 44h70l43 -51l-9 -50l-12 -15h85l106 90l28 -36l-120 -103h-212zM-367 700l28 23l7 39l-19 23h-36l-28 -23l-7 -39l19 -23h36z" />
    <glyph glyph-name="uni0E48.small" 
d="M14 1108h52l-27 -153h-53z" />
    <glyph glyph-name="uni0E48.narrow" 
d="M-217 856h56l-35 -197h-56z" />
    <glyph glyph-name="uni0E49.small" 
d="M-150 995h64l23 26h-28l-37 45l10 53l49 42h61l40 -48l-10 -54l-57 -64h82l125 132l28 -30l-136 -142h-221zM-40 1052l25 21l6 31l-19 22h-28l-26 -22l-5 -30l18 -22h29z" />
    <glyph glyph-name="uni0E49.narrow" 
d="M-450 701h72l28 34h-35l-40 48l9 55l52 44h63l42 -50l-11 -61l-55 -69h92l127 140l31 -34l-138 -149h-245zM-334 768l27 23l6 32l-19 23h-31l-27 -23l-6 -32l19 -23h31z" />
    <glyph glyph-name="uni0E4A.small" 
d="M-207 995l12 72l83 77h57l29 -39l41 39h40l42 -50l-18 -99h13l95 114l28 -27l-107 -127h-111l7 40h29l16 92l-14 16h-17l-51 -45l-37 45h-35l-34 -31h36l33 -41l-7 -43l-40 -36h-54zM-131 984l20 18l4 23l-14 17h-25l-20 -17l-3 -23l14 -18h24z" />
    <glyph glyph-name="uni0E4A.narrow" 
d="M-501 703l14 77l89 86h56l32 -43l44 43h44l42 -51l-20 -115h15l88 108l29 -30l-99 -119h-118l8 41h29l18 105l-14 17h-19l-55 -52l-41 52h-33l-41 -39h45l35 -43l-7 -45l-45 -40h-57zM-417 690l21 19l4 24l-15 19h-27l-22 -19l-4 -24l16 -19h27z" />
    <glyph glyph-name="uni0E4B.small" 
d="M139 1026h-89l-13 -71h-48l13 71h-90l8 42h89l13 71h48l-13 -71h89z" />
    <glyph glyph-name="uni0E4C.small" 
d="M-3 1113l46 -53l-11 -62l-52 -43h-67l-42 51l11 62l182 158l26 -31zM1 1052l-20 22h-34l-26 -22l-7 -37l18 -22h35l27 22z" />
    <glyph glyph-name="uni0E4C.narrow" 
d="M-184 825l43 -54l-12 -68l-52 -44h-71l-43 52l12 67l220 190l29 -35zM-184 761l-19 23h-38l-27 -23l-7 -39l19 -23h38l27 23z" />
    <glyph glyph-name="uni0E47.narrow" 
d="M-430 814l79 68h184l68 59l27 -33l-82 -70h-177l-53 -45l-15 -80l69 50l49 -61h29l-7 14l8 47l49 42h62l38 -48l-11 -58l-45 -40h-143l-40 51l-70 -51h-47zM-171 697l23 20l5 32l-15 19h-33l-24 -19l-5 -32l16 -20h33z" />
    <glyph glyph-name="uni0E34.narrow" 
d="M-501 747l103 88h199l82 -98l-14 -78h-386zM-174 702l4 27l-51 62h-160l-73 -62l-5 -27h285z" />
    <glyph glyph-name="uni0E35.narrow" 
d="M-90 892l-28 -160l-13 -73h-386l16 88l103 88h189l47 -53l19 110h53zM-170 727l-55 64h-156l-73 -62l-5 -27h285z" />
    <glyph glyph-name="uni0E36.narrow" 
d="M-77 780l-53 -44l-14 -77h-380l15 88l104 88h161l26 -23l6 31l47 41h57l41 -48zM-107 825l-18 21h-29l-24 -21l-5 -29l17 -21h29l25 21zM-182 730l-69 61h-138l-73 -62l-4 -27h279z" />
    <glyph glyph-name="uni0E37.narrow" 
d="M-90 892l-28 -160l-13 -73h-386l16 88l103 88h139l10 57h52l-11 -60l46 -52l20 112h52zM-170 727l-55 64h-156l-73 -62l-5 -27h285z" />
    <glyph glyph-name="uni0E4D0E48" 
d="M-141 713l13 76l63 53h83l48 -58l-13 -78l-62 -52h-84zM-25 698l35 30l8 40l-25 30h-42l-36 -30l-7 -40l25 -30h42zM-8 1077h52l-27 -153h-53z" />
    <glyph glyph-name="uni0E4D0E49" 
d="M-141 713l13 76l63 53h83l48 -58l-13 -78l-62 -52h-84zM-25 698l35 30l8 40l-25 30h-42l-36 -30l-7 -40l25 -30h42zM-141 964h64l23 26h-28l-37 45l10 53l49 42h61l40 -48l-10 -54l-57 -64h82l125 132l28 -30l-136 -142h-221zM-31 1021l25 21l6 31l-19 22h-28l-26 -22
l-5 -30l18 -22h29z" />
    <glyph glyph-name="uni0E4D0E4A" 
d="M-141 713l13 76l63 53h83l48 -58l-13 -78l-62 -52h-84zM-25 698l35 30l8 40l-25 30h-42l-36 -30l-7 -40l25 -30h42zM-190 964l12 72l83 77h57l29 -39l41 39h40l42 -50l-18 -99h13l95 114l28 -27l-107 -127h-111l7 40h29l16 92l-14 16h-17l-51 -45l-37 45h-35l-34 -31h36
l33 -41l-7 -43l-40 -36h-54zM-114 953l20 18l4 23l-14 17h-25l-20 -17l-3 -23l14 -18h24z" />
    <glyph glyph-name="uni0E4D0E4B" 
d="M-141 713l13 76l63 53h83l48 -58l-13 -78l-62 -52h-84zM-25 698l35 30l8 40l-25 30h-42l-36 -30l-7 -40l25 -30h42zM117 995h-89l-13 -71h-48l13 71h-90l8 42h89l13 71h48l-13 -71h89z" />
    <glyph glyph-name="uni0E3A.small" 
d="M-271 -336l7 42l30 25h42l22 -27l-7 -43l-29 -24h-42z" />
    <glyph glyph-name="uni0E38.small" 
d="M-268 -472l11 43l-18 -9h-49l-45 56l11 66l57 48h70l46 -54l-34 -191h-56zM-268 -398l31 26l6 38l-21 26h-36l-30 -26l-6 -38l20 -26h36z" />
    <glyph glyph-name="uni0E39.small" 
d="M-413 -474l2 17l9 29l-20 -8h-47l-45 55l12 65l56 48h68l45 -53l-25 -145h94l34 192h53l-37 -205l-40 -34h-125zM-413 -396l30 25l6 38l-20 25h-35l-30 -25l-6 -38l20 -25h35z" />
    <glyph glyph-name="uni0E4B.narrow" 
d="M-120 742h-93l-15 -83h-52l15 83h-94l8 43h93l15 83h52l-15 -83h93z" />
    <glyph glyph-name="uni0E4D.narrow" 
d="M-332 713l14 76l63 53h82l48 -58l-13 -78l-62 -52h-83zM-216 698l35 30l8 40l-25 30h-42l-35 -30l-8 -40l25 -30h42z" />
    <glyph glyph-name="uni0E4D0E48.narrow" 
d="M-332 713l14 76l63 53h82l48 -58l-13 -78l-62 -52h-83zM-216 698l35 30l8 40l-25 30h-42l-35 -30l-8 -40l25 -30h42zM-191 1077h52l-27 -153h-53z" />
    <glyph glyph-name="uni0E4D0E49.narrow" 
d="M-332 713l14 76l63 53h82l48 -58l-13 -78l-62 -52h-83zM-216 698l35 30l8 40l-25 30h-42l-35 -30l-8 -40l25 -30h42zM-318 964h64l23 26h-28l-37 45l10 53l49 42h61l40 -48l-10 -54l-57 -64h82l125 132l28 -30l-136 -142h-221zM-208 1021l25 21l6 31l-19 22h-28l-26 -22
l-5 -30l18 -22h29z" />
    <glyph glyph-name="uni0E4D0E4A.narrow" 
d="M-332 713l14 76l63 53h82l48 -58l-13 -78l-62 -52h-83zM-216 698l35 30l8 40l-25 30h-42l-35 -30l-8 -40l25 -30h42zM-362 964l12 72l83 77h57l29 -39l41 39h40l42 -50l-18 -99h13l95 114l28 -27l-107 -127h-111l7 40h29l16 92l-14 16h-17l-51 -45l-37 45h-35l-34 -31h36
l33 -41l-7 -43l-40 -36h-54zM-286 953l20 18l4 23l-14 17h-25l-20 -17l-3 -23l14 -18h24z" />
    <glyph glyph-name="uni0E4D0E4B.narrow" 
d="M-332 713l14 76l63 53h82l48 -58l-13 -78l-62 -52h-83zM-216 698l35 30l8 40l-25 30h-42l-35 -30l-8 -40l25 -30h42zM-67 995h-89l-13 -71h-48l13 71h-90l8 42h89l13 71h48l-13 -71h89z" />
    </font>
</defs>
</svg>
