<?xml version="1.0" standalone="no"?>
<!DOCTYPE svg PUBLIC "-//W3C//DTD SVG 1.1//EN" "http://www.w3.org/Graphics/SVG/1.1/DTD/svg11.dtd" >
<svg xmlns="http://www.w3.org/2000/svg" xmlns:xlink="http://www.w3.org/1999/xlink" version="1.1">
<metadata>
Created by FontForge 20170731 at Fri Sep  7 16:47:53 2018
 By Aleksey,,,
Copyright 2018 The Chakra Petch Project Authors (https://github.com/m4rc1e/Chakra-Petch.git)
</metadata>
<defs>
<font id="ChakraPetch-Bold" horiz-adv-x="0" >
  <font-face 
    font-family="Chakra Petch"
    font-weight="700"
    font-stretch="normal"
    units-per-em="1000"
    panose-1="0 0 8 0 0 0 0 0 0 0"
    ascent="800"
    descent="-200"
    x-height="498"
    cap-height="700"
    bbox="-690 -566 1209 1247"
    underline-thickness="50"
    underline-position="-150"
    unicode-range="U+000D-FB02"
  />
<missing-glyph horiz-adv-x="589" 
d="M90 712h409v-712h-409v712zM443 54v603h-297v-603h297z" />
    <glyph glyph-name="fi" unicode="fi" horiz-adv-x="618" 
d="M558 0h-132v386h-189v-386h-132v386h-90v112h90v97l101 101h188v-110h-129l-28 -28v-60h321v-498z" />
    <glyph glyph-name="fl" unicode="fl" horiz-adv-x="656" 
d="M591 0h-134v602h-192l-28 -28v-76h147v-112h-147v-386h-132v386h-90v112h90v111l101 101h385v-710z" />
    <glyph glyph-name="uni0E240E45" unicode="&#xe24;&#xe45;" horiz-adv-x="951" 
d="M886 460v-670h-134v627l-27 27h-139l-26 -27v-627h-134v627l-26 27h-193l-23 -24l81 -76l-57 -75v-33l-2 -12h42l66 -66v-91l-67 -67h-104l-67 67v213l51 65l-92 81l121 132h293l41 -41l40 41h259zM179 149l-20 -20v-34l20 -20h34l20 20v34l-20 20h-34z" />
    <glyph glyph-name="uni0E260E45" unicode="&#xe26;&#xe45;" horiz-adv-x="965" 
d="M900 460v-670h-134v627l-27 27h-139l-26 -27v-627h-134v627l-26 27h-193l-23 -24l98 -76l-42 -78v-198l-67 -68h-103l-69 67v94l65 65h46l-4 16v42l36 61l-109 81l121 132h293l41 -41l40 41h259zM171 131l-20 20h-34l-20 -20v-34l20 -20h34l20 20v34z" />
    <glyph glyph-name=".notdef" horiz-adv-x="589" 
d="M90 712h409v-712h-409v712zM443 54v603h-297v-603h297z" />
    <glyph glyph-name=".null" 
 />
    <glyph glyph-name="nonmarkingreturn" unicode="&#xd;" horiz-adv-x="272" 
 />
    <glyph glyph-name="NULL" 
 />
    <glyph glyph-name="NULL" 
 />
    <glyph glyph-name="space" unicode=" " horiz-adv-x="272" 
 />
    <glyph glyph-name="exclam" unicode="!" horiz-adv-x="274" 
d="M69 566v134h136v-134l-16 -364h-104zM60 43v60l43 43h68l43 -43v-60l-43 -43h-68z" />
    <glyph glyph-name="quotedbl" unicode="&#x22;" horiz-adv-x="460" 
d="M60 586v114h136v-114l-16 -146h-104zM264 586v114h136v-114l-16 -146h-104z" />
    <glyph glyph-name="numbersign" unicode="#" horiz-adv-x="717" 
d="M557 416l-22 -128h122v-114h-142l-30 -174h-132l30 174h-111l-30 -174h-132l30 174h-100v114h120l22 128h-122v114h142l29 170h132l-29 -170h111l29 170h132l-29 -170h100v-114h-120zM425 416h-111l-22 -128h111z" />
    <glyph glyph-name="dollar" unicode="$" horiz-adv-x="637" 
d="M592 307v-197l-110 -110h-102v-110h-114v110h-108l-108 108v100h134v-59l33 -33h49v183h-106l-108 108v185l108 108h106v110h114v-110h96l108 -108v-101h-134v60l-33 33h-37v-169h104zM266 415v169h-47l-33 -33v-103l33 -33h47zM458 266l-33 33h-45v-183h44l34 34v116z
" />
    <glyph glyph-name="percent" unicode="%" horiz-adv-x="875" 
d="M40 412v208l80 80h174l80 -80v-208l-80 -80h-174zM561 700h136l-383 -700h-136zM236 432l22 22v124l-22 22h-58l-22 -22v-124l22 -22h58zM501 80v208l80 80h174l80 -80v-208l-80 -80h-174zM697 100l22 22v124l-22 22h-58l-22 -22v-124l22 -22h58z" />
    <glyph glyph-name="ampersand" unicode="&#x26;" horiz-adv-x="662" 
d="M50 107v190l62 63l-33 34v198l107 108h268l105 -106v-74h-132v32l-31 32h-154l-31 -32v-116l33 -34h214v66h128v-66h66v-114h-64v-180l-107 -108h-324zM423 116l33 34v138h-241l-33 -33v-106l33 -33h208z" />
    <glyph glyph-name="quotesingle" unicode="'" horiz-adv-x="256" 
d="M60 586v114h136v-114l-16 -146h-104z" />
    <glyph glyph-name="parenleft" unicode="(" horiz-adv-x="348" 
d="M65 11v677l128 128h140v-114h-76l-60 -60v-585l60 -60h76v-114h-140z" />
    <glyph glyph-name="parenright" unicode=")" horiz-adv-x="348" 
d="M15 -117v114h76l60 60v585l-60 60h-76v114h140l128 -128v-677l-128 -128h-140z" />
    <glyph glyph-name="asterisk" unicode="*" horiz-adv-x="349" 
d="M144 521l-67 -53l-37 70l87 32l-87 34l37 70l67 -54l-12 80h85l-12 -80l67 54l37 -70l-87 -34l87 -32l-37 -70l-67 53l12 -80h-85z" />
    <glyph glyph-name="plus" unicode="+" horiz-adv-x="564" 
d="M524 208h-176v-159h-132v159h-176v112h176v159h132v-159h176v-112z" />
    <glyph glyph-name="comma" unicode="," horiz-adv-x="238" 
d="M103 0h-22l-43 43v64l43 43h75l42 -44v-106l-57 -134h-78z" />
    <glyph glyph-name="hyphen" unicode="-" horiz-adv-x="432" 
d="M40 314h352v-114h-352v114z" />
    <glyph glyph-name="period" unicode="." horiz-adv-x="238" 
d="M40 43v64l43 43h73l42 -44v-62l-42 -44h-73z" />
    <glyph glyph-name="slash" unicode="/" horiz-adv-x="522" 
d="M386 700h136l-386 -700h-136z" />
    <glyph glyph-name="zero" unicode="0" horiz-adv-x="652" 
d="M55 116v468l116 116h310l116 -116v-468l-116 -116h-310zM417 116l44 44v380l-44 44h-182l-44 -44v-380l44 -44h182z" />
    <glyph glyph-name="one" unicode="1" horiz-adv-x="382" 
d="M176 555l-151 -78v125l178 98h109v-700h-136v555z" />
    <glyph glyph-name="two" unicode="2" horiz-adv-x="574" 
d="M39 153l360 327v71l-33 33h-162l-33 -33v-71h-136v112l108 108h284l108 -108v-152l-355 -316v-10h359v-114h-500v153z" />
    <glyph glyph-name="three" unicode="3" horiz-adv-x="603" 
d="M35 108v110h136v-69l33 -33h180l33 33v113l-32 32h-200v116h200l32 32v109l-33 33h-174l-33 -33v-69h-136v110l108 108h296l108 -108v-190l-51 -50l51 -51v-193l-108 -108h-302z" />
    <glyph glyph-name="four" unicode="4" horiz-adv-x="579" 
d="M348 130h-338v137l311 433h163v-454h85v-116h-85v-130h-136v130zM354 242v306h-4l-207 -292v-14h211z" />
    <glyph glyph-name="five" unicode="5" horiz-adv-x="606" 
d="M45 108v114h136v-73l33 -33h178l33 33v158l-33 33h-337v360h492v-116h-358v-128h263l109 -109v-239l-108 -108h-300z" />
    <glyph glyph-name="six" unicode="6" horiz-adv-x="622" 
d="M55 108v484l108 108h302l108 -108v-100h-136v57l-35 35h-176l-35 -35v-165l59 57h219l108 -108v-225l-108 -108h-306zM406 116l35 35v139l-35 35h-142l-73 -75v-99l35 -35h180z" />
    <glyph glyph-name="seven" unicode="7" horiz-adv-x="522" 
d="M355 575v9h-350v116h492v-128l-281 -572h-144z" />
    <glyph glyph-name="eight" unicode="8" horiz-adv-x="638" 
d="M50 108v190l63 63l-53 53v178l108 108h302l108 -108v-178l-53 -53l63 -63v-190l-108 -108h-322zM407 412l35 35v102l-35 35h-176l-35 -35v-102l35 -35h176zM417 116l35 35v112l-35 35h-196l-35 -35v-112l35 -35h196z" />
    <glyph glyph-name="nine" unicode="9" horiz-adv-x="627" 
d="M60 108v89h136v-46l35 -35h170l35 35v161l-57 -57h-221l-108 108v229l108 108h306l108 -108v-484l-108 -108h-296zM371 371l65 65v113l-35 35h-180l-35 -35v-143l35 -35h150z" />
    <glyph glyph-name="colon" unicode=":" horiz-adv-x="232" 
d="M40 357v62l41 41h71l40 -42v-60l-40 -42h-71zM40 41v62l41 41h71l40 -42v-60l-40 -42h-71z" />
    <glyph glyph-name="semicolon" unicode=";" horiz-adv-x="232" 
d="M42 357v62l41 41h71l40 -42v-60l-40 -42h-71zM105 0h-22l-43 43v64l43 43h75l42 -44v-106l-57 -134h-78z" />
    <glyph glyph-name="less" unicode="&#x3c;" horiz-adv-x="614" 
d="M40 233v114l544 225v-130l-382 -149v-6l382 -157v-130z" />
    <glyph glyph-name="equal" unicode="=" horiz-adv-x="564" 
d="M40 408h484v-112h-484v112zM40 232h484v-112h-484v112z" />
    <glyph glyph-name="greater" unicode="&#x3e;" horiz-adv-x="614" 
d="M40 130l382 157v6l-382 149v130l544 -225v-114l-544 -233v130z" />
    <glyph glyph-name="question" unicode="?" horiz-adv-x="562" 
d="M208 314l180 174v45l-51 51h-131l-47 -47v-57h-134v98l122 122h249l126 -126v-126l-182 -176v-81h-132v123zM197 43v60l43 43h68l43 -43v-60l-43 -43h-68z" />
    <glyph glyph-name="at" unicode="@" horiz-adv-x="835" 
d="M507 152v20l-70 -67h-117l-95 95v178l96 96h122l50 -50v46h94v-267h47l47 49v150l-137 137h-241l-147 -147v-197l145 -145h413v-102h-474l-200 200v291l202 202h357l196 -196v-229l-111 -111h-130zM471 339l-35 35h-64l-29 -29v-108l30 -30h54l44 44v88z" />
    <glyph glyph-name="A" unicode="A" horiz-adv-x="646" 
d="M261 700h124l256 -700h-138l-57 155h-246l-57 -155h-138zM416 267l-93 266h-2l-90 -266h185z" />
    <glyph glyph-name="B" unicode="B" horiz-adv-x="670" 
d="M65 700h439l100 -100v-196l-40 -41l71 -72v-183l-108 -108h-462v700zM434 407l36 36v108l-35 35h-237v-179h236zM458 114l43 43v98l-43 43h-260v-184h260z" />
    <glyph glyph-name="C" unicode="C" horiz-adv-x="655" 
d="M55 115v470l115 115h342l113 -113v-107h-136v57l-47 47h-200l-51 -51v-366l51 -51h200l47 47v57h136v-107l-113 -113h-342z" />
    <glyph glyph-name="D" unicode="D" horiz-adv-x="688" 
d="M65 700h448l120 -120v-460l-120 -120h-448v700zM446 116l51 51v366l-51 51h-245v-468h245z" />
    <glyph glyph-name="E" unicode="E" horiz-adv-x="606" 
d="M65 700h506v-115h-370v-177h341v-113h-341v-180h370v-115h-506v700z" />
    <glyph glyph-name="F" unicode="F" horiz-adv-x="576" 
d="M65 700h496v-115h-360v-194h312v-115h-312v-276h-136v700z" />
    <glyph glyph-name="G" unicode="G" horiz-adv-x="676" 
d="M55 115v470l115 115h348l113 -113v-107h-136v57l-47 47h-206l-51 -51v-366l51 -51h208l49 49v109h-150v116h282v-275l-115 -115h-346z" />
    <glyph glyph-name="H" unicode="H" horiz-adv-x="698" 
d="M65 700h136v-293h296v293h136v-700h-136v291h-296v-291h-136v700z" />
    <glyph glyph-name="I" unicode="I" horiz-adv-x="276" 
d="M70 700h136v-700h-136v700z" />
    <glyph glyph-name="J" unicode="J" horiz-adv-x="580" 
d="M20 121v130h132v-84l51 -51h133l48 47v537h136v-583l-117 -117h-263z" />
    <glyph glyph-name="K" unicode="K" horiz-adv-x="651" 
d="M65 700h136v-293h106l169 293h153l-205 -349l222 -351h-156l-184 291h-105v-291h-136v700z" />
    <glyph glyph-name="L" unicode="L" horiz-adv-x="561" 
d="M65 700h136v-585h350v-115h-486v700z" />
    <glyph glyph-name="M" unicode="M" horiz-adv-x="801" 
d="M65 700h126l208 -452h2l209 452h126v-700h-131v426h-2l-161 -328h-84l-160 328h-2v-426h-131v700z" />
    <glyph glyph-name="N" unicode="N" horiz-adv-x="697" 
d="M65 700h122l312 -475h2v475h131v-700h-122l-312 474h-2v-474h-131v700z" />
    <glyph glyph-name="O" unicode="O" horiz-adv-x="700" 
d="M55 115v470l115 115h360l115 -115v-470l-115 -115h-360zM458 116l51 51v366l-51 51h-216l-51 -51v-366l51 -51h216z" />
    <glyph glyph-name="P" unicode="P" horiz-adv-x="646" 
d="M65 700h439l107 -108v-245l-108 -109h-302v-238h-136v700zM442 352l35 35v164l-35 35h-241v-234h241z" />
    <glyph glyph-name="Q" unicode="Q" horiz-adv-x="700" 
d="M666 -56l-84 -84l-141 140h-271l-115 115v470l115 115h360l115 -115v-470l-74 -74zM458 116l51 51v366l-51 51h-216l-51 -51v-366l51 -51h216z" />
    <glyph glyph-name="R" unicode="R" horiz-adv-x="675" 
d="M615 232v-232h-136v201l-60 67h-218v-268h-136v700h439l107 -108v-212l-68 -69zM201 380h241l35 35v136l-35 35h-241v-206z" />
    <glyph glyph-name="S" unicode="S" horiz-adv-x="637" 
d="M50 108v100h134v-59l33 -33h207l34 34v116l-33 33h-265l-108 108v185l108 108h316l108 -108v-101h-134v60l-33 33h-198l-33 -33v-103l33 -33h265l108 -108v-197l-110 -110h-324z" />
    <glyph glyph-name="T" unicode="T" horiz-adv-x="584" 
d="M224 585h-209v115h554v-115h-209v-585h-136v585z" />
    <glyph glyph-name="U" unicode="U" horiz-adv-x="700" 
d="M65 120v580h136v-533l51 -51h196l51 51v533h136v-580l-120 -120h-330z" />
    <glyph glyph-name="V" unicode="V" horiz-adv-x="650" 
d="M10 700h140l174 -538h2l174 538h140l-249 -700h-132z" />
    <glyph glyph-name="W" unicode="W" horiz-adv-x="879" 
d="M25 700h137l85 -494h4l139 494h102l136 -494h4l85 494h137l-145 -700h-127l-139 492h-4l-142 -492h-127z" />
    <glyph glyph-name="X" unicode="X" horiz-adv-x="652" 
d="M249 361l-234 339h153l158 -230l158 230h153l-234 -343l244 -357h-153l-168 247l-168 -247h-153z" />
    <glyph glyph-name="Y" unicode="Y" horiz-adv-x="634" 
d="M249 286l-249 414h149l167 -287h2l167 287h149l-249 -414v-286h-136v286z" />
    <glyph glyph-name="Z" unicode="Z" horiz-adv-x="592" 
d="M35 108l359 476v2h-349v114h512v-108l-359 -476v-2h359v-114h-522v108z" />
    <glyph glyph-name="bracketleft" unicode="[" horiz-adv-x="344" 
d="M65 816h264v-114h-132v-705h132v-114h-264v933z" />
    <glyph glyph-name="backslash" unicode="\" horiz-adv-x="537" 
d="M0 700h137l400 -700h-136z" />
    <glyph glyph-name="bracketright" unicode="]" horiz-adv-x="344" 
d="M15 -117v114h132v705h-132v114h264v-933h-264z" />
    <glyph glyph-name="asciicircum" unicode="^" horiz-adv-x="657" 
d="M265 700h124l228 -456h-138l-149 309h-6l-146 -309h-138z" />
    <glyph glyph-name="underscore" unicode="_" horiz-adv-x="482" 
d="M0 -10h482v-112h-482v112z" />
    <glyph glyph-name="grave" unicode="`" horiz-adv-x="240" 
d="M13 713h139l76 -169h-116z" />
    <glyph glyph-name="a" unicode="a" horiz-adv-x="575" 
d="M45 92v114l92 92h253v63l-31 31h-150l-30 -31v-28h-130v57l107 108h257l107 -108v-390h-119v71l-74 -71h-190zM318 102l72 69v33h-188l-27 -27v-50l25 -25h118z" />
    <glyph glyph-name="b" unicode="b" horiz-adv-x="600" 
d="M60 108v606h132v-285l73 69h182l103 -104v-290l-103 -104h-280zM380 112l38 39v196l-38 39h-98l-90 -90v-145l38 -39h150z" />
    <glyph glyph-name="c" unicode="c" horiz-adv-x="558" 
d="M50 102v294l101 102h274l103 -104v-92h-132v49l-35 35h-144l-35 -35v-204l35 -35h144l35 35v49h132v-92l-103 -104h-274z" />
    <glyph glyph-name="d" unicode="d" horiz-adv-x="602" 
d="M50 104v290l103 104h198l59 -51v267h132v-714h-124v77l-77 -77h-188zM329 112l81 83v130l-68 61h-122l-38 -39v-196l38 -39h109z" />
    <glyph glyph-name="e" unicode="e" horiz-adv-x="583" 
d="M50 102v292l103 104h281l104 -104v-189h-356v-64l32 -33h163l30 31v26h130v-65l-99 -100h-287zM406 297v58l-34 35h-156l-34 -35v-58h224z" />
    <glyph glyph-name="f" unicode="f" horiz-adv-x="400" 
d="M105 387h-90v111h90v99l101 101h184v-109h-127l-28 -28v-63h155v-111h-153v-387h-132v387z" />
    <glyph glyph-name="g" unicode="g" horiz-adv-x="602" 
d="M542 498v-612l-108 -107h-271l-93 92v68h132v-30l19 -20h155l34 35v141l-69 -65h-188l-103 104v290l103 104h196l71 -68v68h122zM410 325l-68 61h-122l-38 -39v-196l38 -39h109l81 83v130z" />
    <glyph glyph-name="h" unicode="h" horiz-adv-x="594" 
d="M60 714h132v-293l77 77h159l111 -111v-387h-132v351l-34 35h-86l-95 -96v-290h-132v714z" />
    <glyph glyph-name="i" unicode="i" horiz-adv-x="272" 
d="M55 602v64l46 46h70l46 -46v-64l-46 -46h-70zM70 498h132v-498h-132v498z" />
    <glyph glyph-name="j" unicode="j" horiz-adv-x="287" 
d="M70 602v64l46 46h70l46 -46v-64l-46 -46h-70zM-65 -106h115l35 35v569h132v-609l-107 -107h-175v112z" />
    <glyph glyph-name="k" unicode="k" horiz-adv-x="567" 
d="M60 714h132v-399h87l127 183h146l-166 -240l176 -258h-146l-140 203h-84v-203h-132v714z" />
    <glyph glyph-name="l" unicode="l" horiz-adv-x="262" 
d="M65 714h132v-714h-132v714z" />
    <glyph glyph-name="m" unicode="m" horiz-adv-x="861" 
d="M60 498h122v-82l81 82h126l68 -69l68 69h174l107 -108v-390h-132v351l-34 35h-84l-53 -53v-333h-128v353l-32 33h-60l-91 -92v-294h-132v498z" />
    <glyph glyph-name="n" unicode="n" horiz-adv-x="592" 
d="M60 498h122v-83l83 83h161l111 -111v-387h-132v351l-34 35h-84l-95 -96v-290h-132v498z" />
    <glyph glyph-name="o" unicode="o" horiz-adv-x="592" 
d="M50 104v290l103 104h286l103 -104v-290l-103 -104h-286zM375 110l35 35v208l-35 35h-158l-35 -35v-208l35 -35h158z" />
    <glyph glyph-name="p" unicode="p" horiz-adv-x="602" 
d="M60 498h122v-73l73 73h194l103 -104v-290l-103 -104h-193l-64 53v-265h-132v710zM385 112l35 35v204l-35 35h-113l-80 -81v-122l79 -71h114z" />
    <glyph glyph-name="q" unicode="q" horiz-adv-x="595" 
d="M408 71l-71 -71h-184l-103 104v290l103 104h280l107 -108v-602h-132v283zM319 112l89 95v144l-34 35h-158l-34 -35v-204l34 -35h103z" />
    <glyph glyph-name="r" unicode="r" horiz-adv-x="409" 
d="M60 498h122v-83l80 83h142v-112h-115l-97 -100v-286h-132v498z" />
    <glyph glyph-name="s" unicode="s" horiz-adv-x="536" 
d="M35 98v61h130v-28l22 -23h162l22 23v43l-23 24h-215l-94 95v109l95 96h260l97 -98v-61h-130v28l-22 23h-148l-22 -23v-39l23 -24h215l94 -95v-113l-95 -96h-274z" />
    <glyph glyph-name="t" unicode="t" horiz-adv-x="414" 
d="M105 102v285h-90v111h92v162h130v-162h152v-112h-152v-241l34 -33h118v-112h-181z" />
    <glyph glyph-name="u" unicode="u" horiz-adv-x="591" 
d="M55 105v393h132v-352l34 -34h80l98 98v288h132v-498h-122v85l-86 -85h-163z" />
    <glyph glyph-name="v" unicode="v" horiz-adv-x="510" 
d="M0 498h137l116 -347h4l116 347h137l-191 -498h-128z" />
    <glyph glyph-name="w" unicode="w" horiz-adv-x="729" 
d="M20 498h134l57 -314h4l90 314h120l83 -314h4l63 314h134l-129 -498h-123l-92 336h-4l-98 -336h-123z" />
    <glyph glyph-name="x" unicode="x" horiz-adv-x="528" 
d="M374 0l-110 152l-110 -152h-149l186 253l-181 245h149l105 -146l105 146h149l-180 -247l185 -251h-149z" />
    <glyph glyph-name="y" unicode="y" horiz-adv-x="593" 
d="M533 498v-612l-108 -107h-262l-93 92v68h132v-30l19 -20h146l34 35v150l-74 -74h-165l-107 108v390h132v-351l34 -35h87l93 99v287h132z" />
    <glyph glyph-name="z" unicode="z" horiz-adv-x="498" 
d="M25 102l277 287v2h-267v107h438v-102l-277 -287v-2h277v-107h-448v102z" />
    <glyph glyph-name="braceleft" unicode="{" horiz-adv-x="377" 
d="M108 -11v249l-78 80v64l78 80v248l106 106h148v-114h-88l-34 -34v-239l-73 -75v-8l73 -75v-240l34 -34h88v-114h-148z" />
    <glyph glyph-name="bar" unicode="|" horiz-adv-x="264" 
d="M65 846h134v-1050h-134v1050z" />
    <glyph glyph-name="braceright" unicode="}" horiz-adv-x="377" 
d="M15 -117v114h88l34 34v240l73 75v8l-73 75v239l-34 34h-88v114h148l106 -106v-248l78 -80v-64l-78 -80v-249l-106 -106h-148z" />
    <glyph glyph-name="asciitilde" unicode="~" horiz-adv-x="586" 
d="M211 261h-17l-24 -25v-62h-130v100l105 106h100l130 -97h13l28 29v58h130v-100l-105 -106h-100z" />
    <glyph glyph-name="uni00A0" unicode="&#xa0;" horiz-adv-x="272" 
 />
    <glyph glyph-name="exclamdown" unicode="&#xa1;" horiz-adv-x="274" 
d="M171 498l43 -43v-60l-43 -43h-68l-43 43v60l43 43h68zM189 296l16 -364v-134h-136v134l16 364h104z" />
    <glyph glyph-name="cent" unicode="&#xa2;" horiz-adv-x="558" 
d="M396 302v49l-35 35h-144l-35 -35v-204l35 -35h144l35 35v49h132v-92l-103 -104h-76v-110h-118v110h-80l-101 102v294l101 102h80v100h118v-100h76l103 -104v-92h-132z" />
    <glyph glyph-name="sterling" unicode="&#xa3;" horiz-adv-x="632" 
d="M612 114v-114h-555v146l76 88v44h-93v112h93v184l126 126h231l112 -112v-86h-132v47l-37 37h-115l-51 -51v-145h237v-112h-237v-59l-72 -84v-21h417z" />
    <glyph glyph-name="currency" unicode="&#xa4;" horiz-adv-x="659" 
d="M542 196l77 -78l-78 -78l-77 78l-26 -26h-216l-27 27l-77 -79l-78 78l78 78l-30 30v210l31 31l-79 78l78 78l78 -79l26 26h216l26 -26l77 79l78 -78l-78 -78l31 -31v-210zM397 208l47 47v152l-47 47h-134l-47 -47v-152l47 -47h134z" />
    <glyph glyph-name="yen" unicode="&#xa5;" horiz-adv-x="634" 
d="M411 329h129v-98h-155v-46h155v-98h-155v-87h-136v87h-155v98h155v46h-155v98h129l-223 371h149l167 -287h2l167 287h149z" />
    <glyph glyph-name="brokenbar" unicode="&#xa6;" horiz-adv-x="264" 
d="M65 846h134v-451h-134v451zM65 267h134v-471h-134v471z" />
    <glyph glyph-name="section" unicode="&#xa7;" horiz-adv-x="546" 
d="M506 262l-57 -57l42 -43v-112l-98 -98h-234l-98 98v69h134v-36l23 -23h120l23 23v53l-24 28h-202l-95 95v135l55 53l-40 40v115l98 98h235l98 -98v-69h-134v36l-23 23h-121l-23 -23v-57l24 -24h199l98 -98v-128zM353 270l23 23v65l-24 24h-159l-23 -23v-65l24 -24h159z
" />
    <glyph glyph-name="dieresis" unicode="&#xa8;" horiz-adv-x="399" 
d="M18 590v58l39 39h67l38 -40v-56l-38 -40h-67zM238 591v56l38 40h67l39 -39v-58l-39 -39h-67z" />
    <glyph glyph-name="copyright" unicode="&#xa9;" horiz-adv-x="838" 
d="M40 193v314l193 193h372l193 -193v-314l-193 -193h-372zM558 102l132 132v232l-132 132h-278l-132 -132v-232l132 -132h278zM216 265v170l112 112l185 1l111 -111v-60h-106v29l-41 41h-104l-45 -45v-104l45 -45h104l41 41v33h106v-63l-110 -111h-186z" />
    <glyph glyph-name="ordfeminine" unicode="&#xaa;" horiz-adv-x="428" 
d="M35 421v68l70 71h171v37l-14 14h-100l-10 -10v-19h-114v37l81 81h187l82 -82v-267h-98v47l-55 -47h-130zM240 435l36 32v23h-115l-14 -14v-27l14 -14h79z" />
    <glyph glyph-name="guillemotleft" unicode="&#xab;" horiz-adv-x="571" 
d="M20 225v88l253 193v-138l-129 -96v-6l129 -96v-138zM278 225v88l253 193v-138l-129 -96v-6l129 -96v-138z" />
    <glyph glyph-name="logicalnot" unicode="&#xac;" horiz-adv-x="561" 
d="M389 294h-349v112h481v-260h-132v148z" />
    <glyph glyph-name="uni00AD" unicode="&#xad;" horiz-adv-x="432" 
d="M40 314h352v-114h-352v114z" />
    <glyph glyph-name="registered" unicode="&#xae;" horiz-adv-x="557" 
d="M40 381v223l122 122h233l122 -122v-223l-122 -122h-233zM363 336l70 70v173l-70 70h-169l-70 -70v-173l70 -70h169zM185 610h153l42 -42v-73l-25 -23l26 -28v-57h-68v42l-19 20h-41v-62h-68v223zM302 505l12 12v27l-12 12h-51v-51h51z" />
    <glyph glyph-name="macron" unicode="&#xaf;" horiz-adv-x="342" 
d="M1 660h340v-106h-340v106z" />
    <glyph glyph-name="degree" unicode="&#xb0;" horiz-adv-x="362" 
d="M40 535v112l79 79h124l79 -79v-112l-79 -79h-124zM204 541l27 27v46l-27 27h-46l-27 -27v-46l27 -27h46z" />
    <glyph glyph-name="plusminus" unicode="&#xb1;" horiz-adv-x="564" 
d="M524 420v-112h-176v-144h-132v144h-176v112h176v154h132v-154h176zM40 112h484v-112h-484v112z" />
    <glyph glyph-name="uni00B2" unicode="&#xb2;" horiz-adv-x="398" 
d="M27 377l223 173v32l-14 14h-73l-14 -14v-40h-124v78l80 80h191l80 -80v-107l-183 -131v-4h185v-98h-351v97z" />
    <glyph glyph-name="uni00B3" unicode="&#xb3;" horiz-adv-x="431" 
d="M30 358v63h124v-26l13 -14h84l14 14v41l-11 11h-117v88h117l11 12v38l-14 14h-79l-14 -14v-26h-124v63l78 78h201l78 -78v-100l-31 -31l31 -31v-102l-77 -78h-206z" />
    <glyph glyph-name="acute" unicode="&#xb4;" horiz-adv-x="253" 
d="M95 713h139l-99 -169h-116z" />
    <glyph glyph-name="paragraph" unicode="&#xb6;" horiz-adv-x="605" 
d="M242 279h-88l-114 114v193l114 114h207v-904h-119v483zM420 700h120v-904h-120v904z" />
    <glyph glyph-name="periodcentered" unicode="&#xb7;" horiz-adv-x="238" 
d="M40 247v64l43 43h73l42 -44v-62l-42 -44h-73z" />
    <glyph glyph-name="cedilla" unicode="&#xb8;" horiz-adv-x="279" 
d="M27 -150h118l12 12v26l-12 12h-99v31l47 123h94l-36 -88h52l50 -50v-88l-52 -52h-174v74z" />
    <glyph glyph-name="uni00B9" unicode="&#xb9;" horiz-adv-x="292" 
d="M116 566l-96 -47v114l122 67h100v-420h-126v286z" />
    <glyph glyph-name="ordmasculine" unicode="&#xba;" horiz-adv-x="427" 
d="M35 429v193l78 78h201l78 -78v-193l-78 -78h-201zM258 446l19 20v119l-19 20h-88l-20 -20v-119l20 -20h88z" />
    <glyph glyph-name="guillemotright" unicode="&#xbb;" horiz-adv-x="571" 
d="M40 170l129 96v6l-129 96v138l253 -193v-88l-253 -193v138zM298 170l129 96v6l-129 96v138l253 -193v-88l-253 -193v138z" />
    <glyph glyph-name="onequarter" unicode="&#xbc;" horiz-adv-x="873" 
d="M656 66h-209v102l190 252h145v-250h51v-104h-51v-66h-126v66zM668 164v135h-2l-93 -127v-8h95zM685 700l-401 -700h-136l401 700h136zM136 566l-96 -47v114l122 67h100v-420h-126v286z" />
    <glyph glyph-name="onehalf" unicode="&#xbd;" horiz-adv-x="921" 
d="M685 700l-401 -700h-136l401 700h136zM136 566l-96 -47v114l122 67h100v-420h-126v286zM530 97l223 173v32l-14 14h-73l-14 -14v-40h-124v78l80 80h191l80 -80v-107l-183 -131v-4h185v-98h-351v97z" />
    <glyph glyph-name="threequarters" unicode="&#xbe;" horiz-adv-x="973" 
d="M40 358v63h124v-26l13 -14h84l14 14v41l-11 11h-117v88h117l11 12v38l-14 14h-79l-14 -14v-26h-124v63l78 78h201l78 -78v-100l-31 -31l31 -31v-102l-77 -78h-206zM756 66h-209v102l190 252h145v-250h51v-104h-51v-66h-126v66zM768 164v135h-2l-93 -127v-8h95zM785 700
l-401 -700h-136l401 700h136z" />
    <glyph glyph-name="questiondown" unicode="&#xbf;" horiz-adv-x="562" 
d="M365 455v-60l-43 -43h-68l-43 43v60l43 43h68zM354 184l-180 -174v-45l51 -51h131l47 47v57h134v-98l-122 -122h-249l-126 126v126l182 176v81h132v-123z" />
    <glyph glyph-name="Agrave" unicode="&#xc0;" horiz-adv-x="646" 
d="M261 700h124l256 -700h-138l-57 155h-246l-57 -155h-138zM416 267l-93 266h-2l-90 -266h185zM161 915h139l76 -169h-116z" />
    <glyph glyph-name="Aacute" unicode="&#xc1;" horiz-adv-x="646" 
d="M261 700h124l256 -700h-138l-57 155h-246l-57 -155h-138zM416 267l-93 266h-2l-90 -266h185zM339 915h139l-99 -169h-116z" />
    <glyph glyph-name="Acircumflex" unicode="&#xc2;" horiz-adv-x="646" 
d="M261 700h124l256 -700h-138l-57 155h-246l-57 -155h-138zM416 267l-93 266h-2l-90 -266h185zM270 907h106l142 -161h-127l-65 75h-6l-65 -75h-127z" />
    <glyph glyph-name="Atilde" unicode="&#xc3;" horiz-adv-x="646" 
d="M261 700h124l256 -700h-138l-57 155h-246l-57 -155h-138zM416 267l-93 266h-2l-90 -266h185zM280 808h-22l-13 -12v-33l-96 -1v71l69 69h84l64 -52h23l12 12v34h96v-71l-69 -69h-84z" />
    <glyph glyph-name="Adieresis" unicode="&#xc4;" horiz-adv-x="646" 
d="M261 700h124l256 -700h-138l-57 155h-246l-57 -155h-138zM416 267l-93 266h-2l-90 -266h185zM141 792v58l39 39h67l38 -40v-56l-38 -40h-67zM361 793v56l38 40h67l39 -39v-58l-39 -39h-67z" />
    <glyph glyph-name="Aring" unicode="&#xc5;" horiz-adv-x="646" 
d="M261 700h124l256 -700h-138l-57 155h-246l-57 -155h-138zM416 267l-93 266h-2l-90 -266h185zM199 815v98l69 69h110l69 -69v-98l-69 -69h-110zM345 821l24 24v38l-24 24h-44l-24 -24v-38l24 -24h44z" />
    <glyph glyph-name="AE" unicode="&#xc6;" horiz-adv-x="957" 
d="M564 582v-172h329v-116h-329v-176h358v-118h-494v179h-208l-78 -179h-142l313 700h609v-118h-358zM428 293v289h-33l-126 -289h159z" />
    <glyph glyph-name="Ccedilla" unicode="&#xc7;" horiz-adv-x="655" 
d="M489 480v57l-47 47h-200l-51 -51v-366l51 -51h200l47 47v57h136v-107l-113 -113h-133l-14 -34h52l50 -50v-88l-52 -52h-174v74h118l12 12v26l-12 12h-99v31l26 69h-116l-115 115v470l115 115h342l113 -113v-107h-136z" />
    <glyph glyph-name="Egrave" unicode="&#xc8;" horiz-adv-x="606" 
d="M65 700h506v-115h-370v-177h341v-113h-341v-180h370v-115h-506v700zM169 915h139l76 -169h-116z" />
    <glyph glyph-name="Eacute" unicode="&#xc9;" horiz-adv-x="606" 
d="M65 700h506v-115h-370v-177h341v-113h-341v-180h370v-115h-506v700zM340 915h139l-99 -169h-116z" />
    <glyph glyph-name="Ecircumflex" unicode="&#xca;" horiz-adv-x="606" 
d="M65 700h506v-115h-370v-177h341v-113h-341v-180h370v-115h-506v700zM271 907h106l142 -161h-127l-65 75h-6l-65 -75h-127z" />
    <glyph glyph-name="Edieresis" unicode="&#xcb;" horiz-adv-x="606" 
d="M65 700h506v-115h-370v-177h341v-113h-341v-180h370v-115h-506v700zM142 792v58l39 39h67l38 -40v-56l-38 -40h-67zM362 793v56l38 40h67l39 -39v-58l-39 -39h-67z" />
    <glyph glyph-name="Igrave" unicode="&#xcc;" horiz-adv-x="276" 
d="M70 700h136v-700h-136v700zM-24 915h139l76 -169h-116z" />
    <glyph glyph-name="Iacute" unicode="&#xcd;" horiz-adv-x="276" 
d="M70 700h136v-700h-136v700zM154 915h139l-99 -169h-116z" />
    <glyph glyph-name="Icircumflex" unicode="&#xce;" horiz-adv-x="276" 
d="M70 700h136v-700h-136v700zM85 907h106l142 -161h-127l-65 75h-6l-65 -75h-127z" />
    <glyph glyph-name="Idieresis" unicode="&#xcf;" horiz-adv-x="276" 
d="M70 700h136v-700h-136v700zM-44 792v58l39 39h67l38 -40v-56l-38 -40h-67zM176 793v56l38 40h67l39 -39v-58l-39 -39h-67z" />
    <glyph glyph-name="Eth" unicode="&#xd0;" horiz-adv-x="738" 
d="M683 580v-460l-120 -120h-448v292h-105v118h105v290h448zM547 533l-51 51h-245v-174h154v-118h-154v-176h245l51 51v366z" />
    <glyph glyph-name="Ntilde" unicode="&#xd1;" horiz-adv-x="697" 
d="M65 700h122l312 -475h2v475h131v-700h-122l-312 474h-2v-474h-131v700zM306 808h-22l-13 -12v-33l-96 -1v71l69 69h84l64 -52h23l12 12v34h96v-71l-69 -69h-84z" />
    <glyph glyph-name="Ograve" unicode="&#xd2;" horiz-adv-x="700" 
d="M55 115v470l115 115h360l115 -115v-470l-115 -115h-360zM458 116l51 51v366l-51 51h-216l-51 -51v-366l51 -51h216zM188 915h139l76 -169h-116z" />
    <glyph glyph-name="Oacute" unicode="&#xd3;" horiz-adv-x="700" 
d="M55 115v470l115 115h360l115 -115v-470l-115 -115h-360zM458 116l51 51v366l-51 51h-216l-51 -51v-366l51 -51h216zM366 915h139l-99 -169h-116z" />
    <glyph glyph-name="Ocircumflex" unicode="&#xd4;" horiz-adv-x="700" 
d="M55 115v470l115 115h360l115 -115v-470l-115 -115h-360zM458 116l51 51v366l-51 51h-216l-51 -51v-366l51 -51h216zM297 907h106l142 -161h-127l-65 75h-6l-65 -75h-127z" />
    <glyph glyph-name="Otilde" unicode="&#xd5;" horiz-adv-x="700" 
d="M55 115v470l115 115h360l115 -115v-470l-115 -115h-360zM458 116l51 51v366l-51 51h-216l-51 -51v-366l51 -51h216zM307 808h-22l-13 -12v-33l-96 -1v71l69 69h84l64 -52h23l12 12v34h96v-71l-69 -69h-84z" />
    <glyph glyph-name="Odieresis" unicode="&#xd6;" horiz-adv-x="700" 
d="M55 115v470l115 115h360l115 -115v-470l-115 -115h-360zM458 116l51 51v366l-51 51h-216l-51 -51v-366l51 -51h216zM168 792v58l39 39h67l38 -40v-56l-38 -40h-67zM388 793v56l38 40h67l39 -39v-58l-39 -39h-67z" />
    <glyph glyph-name="multiply" unicode="&#xd7;" horiz-adv-x="508" 
d="M336 264l132 -132l-82 -82l-132 132l-132 -132l-82 82l132 132l-132 132l82 82l132 -132l132 132l82 -82z" />
    <glyph glyph-name="Oslash" unicode="&#xd8;" horiz-adv-x="700" 
d="M609 621l36 -36v-470l-115 -115h-360l-24 24l-50 -64h-109l97 126l-29 29v470l115 115h360l17 -17l45 57h109zM191 223l274 354l-7 7h-216l-51 -51v-310zM509 492l-281 -362l14 -14h216l51 51v325z" />
    <glyph glyph-name="Ugrave" unicode="&#xd9;" horiz-adv-x="700" 
d="M65 120v580h136v-533l51 -51h196l51 51v533h136v-580l-120 -120h-330zM198 915h139l76 -169h-116z" />
    <glyph glyph-name="Uacute" unicode="&#xda;" horiz-adv-x="700" 
d="M65 120v580h136v-533l51 -51h196l51 51v533h136v-580l-120 -120h-330zM366 915h139l-99 -169h-116z" />
    <glyph glyph-name="Ucircumflex" unicode="&#xdb;" horiz-adv-x="700" 
d="M65 120v580h136v-533l51 -51h196l51 51v533h136v-580l-120 -120h-330zM297 907h106l142 -161h-127l-65 75h-6l-65 -75h-127z" />
    <glyph glyph-name="Udieresis" unicode="&#xdc;" horiz-adv-x="700" 
d="M65 120v580h136v-533l51 -51h196l51 51v533h136v-580l-120 -120h-330zM168 792v58l39 39h67l38 -40v-56l-38 -40h-67zM388 793v56l38 40h67l39 -39v-58l-39 -39h-67z" />
    <glyph glyph-name="Yacute" unicode="&#xdd;" horiz-adv-x="634" 
d="M249 286l-249 414h149l167 -287h2l167 287h149l-249 -414v-286h-136v286zM333 915h139l-99 -169h-116z" />
    <glyph glyph-name="Thorn" unicode="&#xde;" horiz-adv-x="646" 
d="M611 473v-245l-108 -109h-302v-119h-136v700h136v-119h303zM477 432l-35 35h-241v-234h241l35 35v164z" />
    <glyph glyph-name="germandbls" unicode="&#xdf;" horiz-adv-x="655" 
d="M65 595l103 103h269l103 -103v-120l-83 -90v-20l6 -6h76l96 -96v-165l-98 -98h-188l-98 98v72h130v-37l23 -23h76l23 23v92l-24 24h-79l-75 75v76l83 94v64l-28 28h-155l-28 -28v-558h-132v595z" />
    <glyph glyph-name="agrave" unicode="&#xe0;" horiz-adv-x="575" 
d="M45 92v114l92 92h253v63l-31 31h-150l-30 -31v-28h-130v57l107 108h257l107 -108v-390h-119v71l-74 -71h-190zM318 102l72 69v33h-188l-27 -27v-50l25 -25h118zM143 713h139l76 -169h-116z" />
    <glyph glyph-name="aacute" unicode="&#xe1;" horiz-adv-x="575" 
d="M45 92v114l92 92h253v63l-31 31h-150l-30 -31v-28h-130v57l107 108h257l107 -108v-390h-119v71l-74 -71h-190zM318 102l72 69v33h-188l-27 -27v-50l25 -25h118zM306 713h139l-99 -169h-116z" />
    <glyph glyph-name="acircumflex" unicode="&#xe2;" horiz-adv-x="575" 
d="M45 92v114l92 92h253v63l-31 31h-150l-30 -31v-28h-130v57l107 108h257l107 -108v-390h-119v71l-74 -71h-190zM318 102l72 69v33h-188l-27 -27v-50l25 -25h118zM237 705h106l142 -161h-127l-65 75h-6l-65 -75h-127z" />
    <glyph glyph-name="atilde" unicode="&#xe3;" horiz-adv-x="575" 
d="M45 92v114l92 92h253v63l-31 31h-150l-30 -31v-28h-130v57l107 108h257l107 -108v-390h-119v71l-74 -71h-190zM318 102l72 69v33h-188l-27 -27v-50l25 -25h118zM247 606h-22l-13 -12v-33l-96 -1v71l69 69h84l64 -52h23l12 12v34h96v-71l-69 -69h-84z" />
    <glyph glyph-name="adieresis" unicode="&#xe4;" horiz-adv-x="575" 
d="M45 92v114l92 92h253v63l-31 31h-150l-30 -31v-28h-130v57l107 108h257l107 -108v-390h-119v71l-74 -71h-190zM318 102l72 69v33h-188l-27 -27v-50l25 -25h118zM108 590v58l39 39h67l38 -40v-56l-38 -40h-67zM328 591v56l38 40h67l39 -39v-58l-39 -39h-67z" />
    <glyph glyph-name="aring" unicode="&#xe5;" horiz-adv-x="575" 
d="M45 92v114l92 92h253v63l-31 31h-150l-30 -31v-28h-130v57l107 108h257l107 -108v-390h-119v71l-74 -71h-190zM318 102l72 69v33h-188l-27 -27v-50l25 -25h118zM166 613v98l69 69h110l69 -69v-98l-69 -69h-110zM312 619l24 24v38l-24 24h-44l-24 -24v-38l24 -24h44z" />
    <glyph glyph-name="ae" unicode="&#xe6;" horiz-adv-x="915" 
d="M527 206v-63l33 -33h146l31 31v30h132v-65l-106 -106h-258l-65 66l-66 -66h-237l-92 92v114l92 92h253v63l-31 31h-150l-30 -31v-28h-130v57l107 108h251l54 -54l54 54h246l109 -108v-184h-343zM527 298h211v59l-33 33h-145l-33 -33v-59zM395 204h-193l-27 -27v-50
l25 -25h130l65 65v37z" />
    <glyph glyph-name="ccedilla" unicode="&#xe7;" horiz-adv-x="558" 
d="M396 302v49l-35 35h-144l-35 -35v-204l35 -35h144l35 35v49h132v-92l-103 -104h-92l-14 -34h52l50 -50v-88l-52 -52h-174v74h118l12 12v26l-12 12h-99v31l26 69h-89l-101 102v294l101 102h274l103 -104v-92h-132z" />
    <glyph glyph-name="egrave" unicode="&#xe8;" horiz-adv-x="583" 
d="M50 102v292l103 104h281l104 -104v-189h-356v-64l32 -33h163l30 31v26h130v-65l-99 -100h-287zM406 297v58l-34 35h-156l-34 -35v-58h224zM133 713h139l76 -169h-116z" />
    <glyph glyph-name="eacute" unicode="&#xe9;" horiz-adv-x="583" 
d="M50 102v292l103 104h281l104 -104v-189h-356v-64l32 -33h163l30 31v26h130v-65l-99 -100h-287zM406 297v58l-34 35h-156l-34 -35v-58h224zM311 713h139l-99 -169h-116z" />
    <glyph glyph-name="ecircumflex" unicode="&#xea;" horiz-adv-x="583" 
d="M50 102v292l103 104h281l104 -104v-189h-356v-64l32 -33h163l30 31v26h130v-65l-99 -100h-287zM406 297v58l-34 35h-156l-34 -35v-58h224zM242 705h106l142 -161h-127l-65 75h-6l-65 -75h-127z" />
    <glyph glyph-name="edieresis" unicode="&#xeb;" horiz-adv-x="583" 
d="M50 102v292l103 104h281l104 -104v-189h-356v-64l32 -33h163l30 31v26h130v-65l-99 -100h-287zM406 297v58l-34 35h-156l-34 -35v-58h224zM113 590v58l39 39h67l38 -40v-56l-38 -40h-67zM333 591v56l38 40h67l39 -39v-58l-39 -39h-67z" />
    <glyph glyph-name="igrave" unicode="&#xec;" horiz-adv-x="272" 
d="M70 498h132v-498h-132v498zM-26 713h139l76 -169h-116z" />
    <glyph glyph-name="iacute" unicode="&#xed;" horiz-adv-x="272" 
d="M70 498h132v-498h-132v498zM152 713h139l-99 -169h-116z" />
    <glyph glyph-name="icircumflex" unicode="&#xee;" horiz-adv-x="272" 
d="M70 498h132v-498h-132v498zM83 705h106l142 -161h-127l-65 75h-6l-65 -75h-127z" />
    <glyph glyph-name="idieresis" unicode="&#xef;" horiz-adv-x="272" 
d="M70 498h132v-498h-132v498zM-46 590v58l39 39h67l38 -40v-56l-38 -40h-67zM174 591v56l38 40h67l39 -39v-58l-39 -39h-67z" />
    <glyph glyph-name="eth" unicode="&#xf0;" horiz-adv-x="617" 
d="M507 579l55 -74v-397l-108 -108h-296l-108 108v232l108 108h209l61 -52v89l-25 34l-93 -54l-45 79l83 48l-9 12h-142v96h221l35 -47l89 51l45 -79zM428 264l-79 70h-130l-35 -35v-146l35 -35h174l35 35v111z" />
    <glyph glyph-name="ntilde" unicode="&#xf1;" horiz-adv-x="592" 
d="M60 498h122v-83l83 83h161l111 -111v-387h-132v351l-34 35h-84l-95 -96v-290h-132v498zM259 606h-22l-13 -12v-33l-96 -1v71l69 69h84l64 -52h23l12 12v34h96v-71l-69 -69h-84z" />
    <glyph glyph-name="ograve" unicode="&#xf2;" horiz-adv-x="592" 
d="M50 104v290l103 104h286l103 -104v-290l-103 -104h-286zM375 110l35 35v208l-35 35h-158l-35 -35v-208l35 -35h158zM135 713h139l76 -169h-116z" />
    <glyph glyph-name="oacute" unicode="&#xf3;" horiz-adv-x="592" 
d="M50 104v290l103 104h286l103 -104v-290l-103 -104h-286zM375 110l35 35v208l-35 35h-158l-35 -35v-208l35 -35h158zM313 713h139l-99 -169h-116z" />
    <glyph glyph-name="ocircumflex" unicode="&#xf4;" horiz-adv-x="592" 
d="M50 104v290l103 104h286l103 -104v-290l-103 -104h-286zM375 110l35 35v208l-35 35h-158l-35 -35v-208l35 -35h158zM244 705h106l142 -161h-127l-65 75h-6l-65 -75h-127z" />
    <glyph glyph-name="otilde" unicode="&#xf5;" horiz-adv-x="592" 
d="M50 104v290l103 104h286l103 -104v-290l-103 -104h-286zM375 110l35 35v208l-35 35h-158l-35 -35v-208l35 -35h158zM254 606h-22l-13 -12v-33l-96 -1v71l69 69h84l64 -52h23l12 12v34h96v-71l-69 -69h-84z" />
    <glyph glyph-name="odieresis" unicode="&#xf6;" horiz-adv-x="592" 
d="M50 104v290l103 104h286l103 -104v-290l-103 -104h-286zM375 110l35 35v208l-35 35h-158l-35 -35v-208l35 -35h158zM115 590v58l39 39h67l38 -40v-56l-38 -40h-67zM335 591v56l38 40h67l39 -39v-58l-39 -39h-67z" />
    <glyph glyph-name="divide" unicode="&#xf7;" horiz-adv-x="564" 
d="M211 402v54l40 40h62l40 -40v-54l-40 -40h-62zM40 320h484v-112h-484v112zM210 72v54l40 40h62l40 -40v-54l-40 -40h-62z" />
    <glyph glyph-name="oslash" unicode="&#xf8;" horiz-adv-x="592" 
d="M501 436l41 -42v-290l-103 -104h-276l-31 -40h-109l74 96l-47 48v290l103 104h286l1 -1l31 41h109zM182 165l173 223h-138l-35 -35v-188zM410 319l-162 -209h127l35 35v174z" />
    <glyph glyph-name="ugrave" unicode="&#xf9;" horiz-adv-x="591" 
d="M55 105v393h132v-352l34 -34h80l98 98v288h132v-498h-122v85l-86 -85h-163zM129 713h139l76 -169h-116z" />
    <glyph glyph-name="uacute" unicode="&#xfa;" horiz-adv-x="591" 
d="M55 105v393h132v-352l34 -34h80l98 98v288h132v-498h-122v85l-86 -85h-163zM309 713h139l-99 -169h-116z" />
    <glyph glyph-name="ucircumflex" unicode="&#xfb;" horiz-adv-x="591" 
d="M55 105v393h132v-352l34 -34h80l98 98v288h132v-498h-122v85l-86 -85h-163zM240 705h106l142 -161h-127l-65 75h-6l-65 -75h-127z" />
    <glyph glyph-name="udieresis" unicode="&#xfc;" horiz-adv-x="591" 
d="M55 105v393h132v-352l34 -34h80l98 98v288h132v-498h-122v85l-86 -85h-163zM111 590v58l39 39h67l38 -40v-56l-38 -40h-67zM331 591v56l38 40h67l39 -39v-58l-39 -39h-67z" />
    <glyph glyph-name="yacute" unicode="&#xfd;" horiz-adv-x="593" 
d="M533 498v-612l-108 -107h-262l-93 92v68h132v-30l19 -20h146l34 35v150l-74 -74h-165l-107 108v390h132v-351l34 -35h87l93 99v287h132zM311 713h139l-99 -169h-116z" />
    <glyph glyph-name="thorn" unicode="&#xfe;" horiz-adv-x="602" 
d="M60 710h132v-273l63 61h194l103 -104v-290l-103 -104h-193l-64 53v-265h-132v922zM385 112l35 35v204l-35 35h-113l-80 -81v-122l79 -71h114z" />
    <glyph glyph-name="ydieresis" unicode="&#xff;" horiz-adv-x="593" 
d="M533 498v-612l-108 -107h-262l-93 92v68h132v-30l19 -20h146l34 35v150l-74 -74h-165l-107 108v390h132v-351l34 -35h87l93 99v287h132zM113 590v58l39 39h67l38 -40v-56l-38 -40h-67zM333 591v56l38 40h67l39 -39v-58l-39 -39h-67z" />
    <glyph glyph-name="Amacron" unicode="&#x100;" horiz-adv-x="646" 
d="M261 700h124l256 -700h-138l-57 155h-246l-57 -155h-138zM416 267l-93 266h-2l-90 -266h185zM153 862h340v-106h-340v106z" />
    <glyph glyph-name="amacron" unicode="&#x101;" horiz-adv-x="575" 
d="M45 92v114l92 92h253v63l-31 31h-150l-30 -31v-28h-130v57l107 108h257l107 -108v-390h-119v71l-74 -71h-190zM318 102l72 69v33h-188l-27 -27v-50l25 -25h118zM120 660h340v-106h-340v106z" />
    <glyph glyph-name="Abreve" unicode="&#x102;" horiz-adv-x="646" 
d="M261 700h124l256 -700h-138l-57 155h-246l-57 -155h-138zM416 267l-93 266h-2l-90 -266h185zM155 829v76h112v-48l27 -27h58l27 27v48h112v-76l-83 -83h-170z" />
    <glyph glyph-name="abreve" unicode="&#x103;" horiz-adv-x="575" 
d="M45 92v114l92 92h253v63l-31 31h-150l-30 -31v-28h-130v57l107 108h257l107 -108v-390h-119v71l-74 -71h-190zM318 102l72 69v33h-188l-27 -27v-50l25 -25h118zM122 627v76h112v-48l27 -27h58l27 27v48h112v-76l-83 -83h-170z" />
    <glyph glyph-name="Aogonek" unicode="&#x104;" horiz-adv-x="646" 
d="M261 700h124l256 -700h-138l-57 155h-246l-57 -155h-138zM416 267l-93 266h-2l-90 -266h185zM452 -159v87l70 72h119l-75 -78v-35l18 -18h88v-92h-156z" />
    <glyph glyph-name="aogonek" unicode="&#x105;" horiz-adv-x="575" 
d="M45 92v114l92 92h253v63l-31 31h-150l-30 -31v-28h-130v57l107 108h257l107 -108v-390h-119v71l-74 -71h-190zM318 102l72 69v33h-188l-27 -27v-50l25 -25h118zM331 -159v87l70 72h119l-75 -78v-35l18 -18h88v-92h-156z" />
    <glyph glyph-name="Cacute" unicode="&#x106;" horiz-adv-x="655" 
d="M55 115v470l115 115h342l113 -113v-107h-136v57l-47 47h-200l-51 -51v-366l51 -51h200l47 47v57h136v-107l-113 -113h-342zM358 915h139l-99 -169h-116z" />
    <glyph glyph-name="cacute" unicode="&#x107;" horiz-adv-x="558" 
d="M50 102v294l101 102h274l103 -104v-92h-132v49l-35 35h-144l-35 -35v-204l35 -35h144l35 35v49h132v-92l-103 -104h-274zM304 713h139l-99 -169h-116z" />
    <glyph glyph-name="Ccircumflex" unicode="&#x108;" horiz-adv-x="655" 
d="M55 115v470l115 115h342l113 -113v-107h-136v57l-47 47h-200l-51 -51v-366l51 -51h200l47 47v57h136v-107l-113 -113h-342zM289 907h106l142 -161h-127l-65 75h-6l-65 -75h-127z" />
    <glyph glyph-name="ccircumflex" unicode="&#x109;" horiz-adv-x="558" 
d="M50 102v294l101 102h274l103 -104v-92h-132v49l-35 35h-144l-35 -35v-204l35 -35h144l35 35v49h132v-92l-103 -104h-274zM235 705h106l142 -161h-127l-65 75h-6l-65 -75h-127z" />
    <glyph glyph-name="Cdotaccent" unicode="&#x10a;" horiz-adv-x="655" 
d="M55 115v470l115 115h342l113 -113v-107h-136v57l-47 47h-200l-51 -51v-366l51 -51h200l47 47v57h136v-107l-113 -113h-342zM266 790v62l41 41h70l41 -41v-62l-41 -41h-70z" />
    <glyph glyph-name="cdotaccent" unicode="&#x10b;" horiz-adv-x="558" 
d="M50 102v294l101 102h274l103 -104v-92h-132v49l-35 35h-144l-35 -35v-204l35 -35h144l35 35v49h132v-92l-103 -104h-274zM212 588v62l41 41h70l41 -41v-62l-41 -41h-70z" />
    <glyph glyph-name="Ccaron" unicode="&#x10c;" horiz-adv-x="655" 
d="M55 115v470l115 115h342l113 -113v-107h-136v57l-47 47h-200l-51 -51v-366l51 -51h200l47 47v57h136v-107l-113 -113h-342zM147 907h127l65 -75h6l65 75h127l-142 -161h-106z" />
    <glyph glyph-name="ccaron" unicode="&#x10d;" horiz-adv-x="558" 
d="M50 102v294l101 102h274l103 -104v-92h-132v49l-35 35h-144l-35 -35v-204l35 -35h144l35 35v49h132v-92l-103 -104h-274zM93 705h127l65 -75h6l65 75h127l-142 -161h-106z" />
    <glyph glyph-name="Dcaron" unicode="&#x10e;" horiz-adv-x="688" 
d="M65 700h448l120 -120v-460l-120 -120h-448v700zM446 116l51 51v366l-51 51h-245v-468h245zM143 907h127l65 -75h6l65 75h127l-142 -161h-106z" />
    <glyph glyph-name="dcaron" unicode="&#x10f;" horiz-adv-x="790" 
d="M50 104v290l103 104h198l59 -51v267h132v-714h-124v77l-77 -77h-188zM329 112l81 83v130l-68 61h-122l-38 -39v-196l38 -39h109zM675 576h-22l-43 43v64l43 43h75l42 -44v-106l-57 -134h-78z" />
    <glyph glyph-name="Dcroat" unicode="&#x110;" horiz-adv-x="738" 
d="M683 580v-460l-120 -120h-448v292h-105v118h105v290h448zM547 533l-51 51h-245v-174h154v-118h-154v-176h245l51 51v366z" />
    <glyph glyph-name="dcroat" unicode="&#x111;" horiz-adv-x="620" 
d="M625 550h-83v-550h-124v77l-77 -77h-188l-103 104v290l103 104h198l59 -51v103h-152v94h152v70h132v-70h83v-94zM410 325l-68 61h-122l-38 -39v-196l38 -39h109l81 83v130z" />
    <glyph glyph-name="Emacron" unicode="&#x112;" horiz-adv-x="606" 
d="M65 700h506v-115h-370v-177h341v-113h-341v-180h370v-115h-506v700zM154 862h340v-106h-340v106z" />
    <glyph glyph-name="emacron" unicode="&#x113;" horiz-adv-x="583" 
d="M50 102v292l103 104h281l104 -104v-189h-356v-64l32 -33h163l30 31v26h130v-65l-99 -100h-287zM406 297v58l-34 35h-156l-34 -35v-58h224zM125 660h340v-106h-340v106z" />
    <glyph glyph-name="Ebreve" unicode="&#x114;" horiz-adv-x="606" 
d="M65 700h506v-115h-370v-177h341v-113h-341v-180h370v-115h-506v700zM154 829v76h112v-48l27 -27h58l27 27v48h112v-76l-83 -83h-170z" />
    <glyph glyph-name="ebreve" unicode="&#x115;" horiz-adv-x="583" 
d="M50 102v292l103 104h281l104 -104v-189h-356v-64l32 -33h163l30 31v26h130v-65l-99 -100h-287zM406 297v58l-34 35h-156l-34 -35v-58h224zM127 627v76h112v-48l27 -27h58l27 27v48h112v-76l-83 -83h-170z" />
    <glyph glyph-name="Edotaccent" unicode="&#x116;" horiz-adv-x="606" 
d="M65 700h506v-115h-370v-177h341v-113h-341v-180h370v-115h-506v700zM248 790v62l41 41h70l41 -41v-62l-41 -41h-70z" />
    <glyph glyph-name="edotaccent" unicode="&#x117;" horiz-adv-x="583" 
d="M50 102v292l103 104h281l104 -104v-189h-356v-64l32 -33h163l30 31v26h130v-65l-99 -100h-287zM406 297v58l-34 35h-156l-34 -35v-58h224zM219 588v62l41 41h70l41 -41v-62l-41 -41h-70z" />
    <glyph glyph-name="Eogonek" unicode="&#x118;" horiz-adv-x="606" 
d="M65 700h506v-115h-370v-177h341v-113h-341v-180h370v-115h-506v700zM382 -159v87l70 72h119l-75 -78v-35l18 -18h88v-92h-156z" />
    <glyph glyph-name="eogonek" unicode="&#x119;" horiz-adv-x="583" 
d="M50 102v292l103 104h281l104 -104v-189h-356v-64l32 -33h163l30 31v26h130v-65l-99 -100h-287zM406 297v58l-34 35h-156l-34 -35v-58h224zM249 -159v87l70 72h119l-75 -78v-35l18 -18h88v-92h-156z" />
    <glyph glyph-name="Ecaron" unicode="&#x11a;" horiz-adv-x="606" 
d="M65 700h506v-115h-370v-177h341v-113h-341v-180h370v-115h-506v700zM129 907h127l65 -75h6l65 75h127l-142 -161h-106z" />
    <glyph glyph-name="ecaron" unicode="&#x11b;" horiz-adv-x="583" 
d="M50 102v292l103 104h281l104 -104v-189h-356v-64l32 -33h163l30 31v26h130v-65l-99 -100h-287zM406 297v58l-34 35h-156l-34 -35v-58h224zM100 705h127l65 -75h6l65 75h127l-142 -161h-106z" />
    <glyph glyph-name="Gcircumflex" unicode="&#x11c;" horiz-adv-x="676" 
d="M55 115v470l115 115h348l113 -113v-107h-136v57l-47 47h-206l-51 -51v-366l51 -51h208l49 49v109h-150v116h282v-275l-115 -115h-346zM289 907h106l142 -161h-127l-65 75h-6l-65 -75h-127z" />
    <glyph glyph-name="gcircumflex" unicode="&#x11d;" horiz-adv-x="602" 
d="M542 498v-612l-108 -107h-271l-93 92v68h132v-30l19 -20h155l34 35v141l-69 -65h-188l-103 104v290l103 104h196l71 -68v68h122zM410 325l-68 61h-122l-38 -39v-196l38 -39h109l81 83v130zM245 705h106l142 -161h-127l-65 75h-6l-65 -75h-127z" />
    <glyph glyph-name="Gbreve" unicode="&#x11e;" horiz-adv-x="676" 
d="M55 115v470l115 115h348l113 -113v-107h-136v57l-47 47h-206l-51 -51v-366l51 -51h208l49 49v109h-150v116h282v-275l-115 -115h-346zM174 829v76h112v-48l27 -27h58l27 27v48h112v-76l-83 -83h-170z" />
    <glyph glyph-name="gbreve" unicode="&#x11f;" horiz-adv-x="602" 
d="M542 498v-612l-108 -107h-271l-93 92v68h132v-30l19 -20h155l34 35v141l-69 -65h-188l-103 104v290l103 104h196l71 -68v68h122zM410 325l-68 61h-122l-38 -39v-196l38 -39h109l81 83v130zM130 627v76h112v-48l27 -27h58l27 27v48h112v-76l-83 -83h-170z" />
    <glyph glyph-name="Gdotaccent" unicode="&#x120;" horiz-adv-x="676" 
d="M55 115v470l115 115h348l113 -113v-107h-136v57l-47 47h-206l-51 -51v-366l51 -51h208l49 49v109h-150v116h282v-275l-115 -115h-346zM266 790v62l41 41h70l41 -41v-62l-41 -41h-70z" />
    <glyph glyph-name="gdotaccent" unicode="&#x121;" horiz-adv-x="602" 
d="M542 498v-612l-108 -107h-271l-93 92v68h132v-30l19 -20h155l34 35v141l-69 -65h-188l-103 104v290l103 104h196l71 -68v68h122zM410 325l-68 61h-122l-38 -39v-196l38 -39h109l81 83v130zM222 588v62l41 41h70l41 -41v-62l-41 -41h-70z" />
    <glyph glyph-name="uni0122" unicode="&#x122;" horiz-adv-x="676" 
d="M55 115v470l115 115h348l113 -113v-107h-136v57l-47 47h-206l-51 -51v-366l51 -51h208l49 49v109h-150v116h282v-275l-115 -115h-346zM329 -212h-22l-43 43v64l43 43h75l42 -44v-106l-57 -134h-78z" />
    <glyph glyph-name="uni0123" unicode="&#x123;" horiz-adv-x="602" 
d="M542 498v-612l-108 -107h-271l-93 92v68h132v-30l19 -20h155l34 35v141l-69 -65h-188l-103 104v290l103 104h196l71 -68v68h122zM410 325l-68 61h-122l-38 -39v-196l38 -39h109l81 83v130zM311 684h22l43 -43v-64l-43 -43h-75l-42 44v106l57 134h78z" />
    <glyph glyph-name="Hcircumflex" unicode="&#x124;" horiz-adv-x="698" 
d="M65 700h136v-293h296v293h136v-700h-136v291h-296v-291h-136v700zM296 907h106l142 -161h-127l-65 75h-6l-65 -75h-127z" />
    <glyph glyph-name="hcircumflex" unicode="&#x125;" horiz-adv-x="594" 
d="M60 714h132v-293l77 77h159l111 -111v-387h-132v351l-34 35h-86l-95 -96v-290h-132v714zM249 911h106l142 -161h-127l-65 75h-6l-65 -75h-127z" />
    <glyph glyph-name="Hbar" unicode="&#x126;" horiz-adv-x="767" 
d="M757 494h-90v-494h-136v291h-296v-291h-136v494h-89v100h89v106h136v-106h296v106h136v-106h90v-100zM531 494h-296v-87h296v87z" />
    <glyph glyph-name="hbar" unicode="&#x127;" horiz-adv-x="619" 
d="M564 387v-387h-132v351l-34 35h-86l-95 -96v-290h-132v552h-90v94h90v68h132v-68h101v-94h-101v-131l77 77h159z" />
    <glyph glyph-name="Itilde" unicode="&#x128;" horiz-adv-x="276" 
d="M70 700h136v-700h-136v700zM95 808h-22l-13 -12v-33l-96 -1v71l69 69h84l64 -52h23l12 12v34h96v-71l-69 -69h-84z" />
    <glyph glyph-name="itilde" unicode="&#x129;" horiz-adv-x="272" 
d="M70 498h132v-498h-132v498zM93 606h-22l-13 -12v-33l-96 -1v71l69 69h84l64 -52h23l12 12v34h96v-71l-69 -69h-84z" />
    <glyph glyph-name="Imacron" unicode="&#x12a;" horiz-adv-x="276" 
d="M70 700h136v-700h-136v700zM-32 862h340v-106h-340v106z" />
    <glyph glyph-name="imacron" unicode="&#x12b;" horiz-adv-x="272" 
d="M70 498h132v-498h-132v498zM-34 660h340v-106h-340v106z" />
    <glyph glyph-name="Ibreve" unicode="&#x12c;" horiz-adv-x="276" 
d="M70 700h136v-700h-136v700zM-30 829v76h112v-48l27 -27h58l27 27v48h112v-76l-83 -83h-170z" />
    <glyph glyph-name="ibreve" unicode="&#x12d;" horiz-adv-x="272" 
d="M70 498h132v-498h-132v498zM-32 627v76h112v-48l27 -27h58l27 27v48h112v-76l-83 -83h-170z" />
    <glyph glyph-name="Iogonek" unicode="&#x12e;" horiz-adv-x="276" 
d="M70 700h136v-700h-136v700zM17 -159v87l70 72h119l-75 -78v-35l18 -18h88v-92h-156z" />
    <glyph glyph-name="iogonek" unicode="&#x12f;" horiz-adv-x="272" 
d="M55 602v64l46 46h70l46 -46v-64l-46 -46h-70zM70 498h132v-498h-132v498zM13 -159v87l70 72h119l-75 -78v-35l18 -18h88v-92h-156z" />
    <glyph glyph-name="Idotaccent" unicode="&#x130;" horiz-adv-x="276" 
d="M70 700h136v-700h-136v700zM62 790v62l41 41h70l41 -41v-62l-41 -41h-70z" />
    <glyph glyph-name="dotlessi" unicode="&#x131;" horiz-adv-x="272" 
d="M70 498h132v-498h-132v498z" />
    <glyph glyph-name="IJ" unicode="&#x132;" horiz-adv-x="821" 
d="M70 700h136v-700h-136v700zM261 121v130h132v-84l51 -51h133l48 47v537h136v-583l-117 -117h-263z" />
    <glyph glyph-name="ij" unicode="&#x133;" horiz-adv-x="527" 
d="M55 602v64l46 46h70l46 -46v-64l-46 -46h-70zM70 498h132v-498h-132v498zM310 602v64l46 46h70l46 -46v-64l-46 -46h-70zM175 -106h115l35 35v569h132v-609l-107 -107h-175v112z" />
    <glyph glyph-name="Jcircumflex" unicode="&#x134;" horiz-adv-x="580" 
d="M20 121v130h132v-84l51 -51h133l48 47v537h136v-583l-117 -117h-263zM397 907h106l142 -161h-127l-65 75h-6l-65 -75h-127z" />
    <glyph glyph-name="jcircumflex" unicode="&#x135;" horiz-adv-x="287" 
d="M-65 -104h115l35 35v567h132v-609l-107 -107h-175v114zM98 705h106l142 -161h-127l-65 75h-6l-65 -75h-127z" />
    <glyph glyph-name="uni0136" unicode="&#x136;" horiz-adv-x="651" 
d="M65 700h136v-293h106l169 293h153l-205 -349l222 -351h-156l-184 291h-105v-291h-136v700zM320 -212h-22l-43 43v64l43 43h75l42 -44v-106l-57 -134h-78z" />
    <glyph glyph-name="uni0137" unicode="&#x137;" horiz-adv-x="567" 
d="M60 714h132v-399h87l127 183h146l-166 -240l176 -258h-146l-140 203h-84v-203h-132v714zM279 -212h-22l-43 43v64l43 43h75l42 -44v-106l-57 -134h-78z" />
    <glyph glyph-name="kgreenlandic" unicode="&#x138;" horiz-adv-x="596" 
d="M60 498h136v-191h99l125 191h154l-166 -250l183 -248h-156l-139 189h-100v-189h-136v498z" />
    <glyph glyph-name="Lacute" unicode="&#x139;" horiz-adv-x="561" 
d="M65 700h136v-585h350v-115h-486v700zM149 915h139l-99 -169h-116z" />
    <glyph glyph-name="lacute" unicode="&#x13a;" horiz-adv-x="262" 
d="M65 714h132v-714h-132v714zM147 939h139l-99 -169h-116z" />
    <glyph glyph-name="uni013B" unicode="&#x13b;" horiz-adv-x="561" 
d="M65 700h136v-585h350v-115h-486v700zM294 -212h-22l-43 43v64l43 43h75l42 -44v-106l-57 -134h-78z" />
    <glyph glyph-name="uni013C" unicode="&#x13c;" horiz-adv-x="262" 
d="M102 -212h-22l-43 43v64l43 43h75l42 -44v-106l-57 -134h-78zM65 714h132v-714h-132v714z" />
    <glyph glyph-name="Lcaron" unicode="&#x13d;" horiz-adv-x="624" 
d="M65 700h136v-585h350v-115h-486v700zM509 562h-22l-43 43v64l43 43h75l42 -44v-106l-57 -134h-78z" />
    <glyph glyph-name="lcaron" unicode="&#x13e;" horiz-adv-x="440" 
d="M65 714h132v-714h-132v714zM325 562h-22l-43 43v64l43 43h75l42 -44v-106l-57 -134h-78z" />
    <glyph glyph-name="Ldot" unicode="&#x13f;" horiz-adv-x="571" 
d="M65 700h136v-585h350v-115h-486v700zM380 277v64l43 43h73l42 -44v-62l-42 -44h-73z" />
    <glyph glyph-name="ldot" unicode="&#x140;" horiz-adv-x="440" 
d="M65 714h132v-714h-132v714zM279 224v64l43 43h73l42 -44v-62l-42 -44h-73z" />
    <glyph glyph-name="Lslash" unicode="&#x141;" horiz-adv-x="591" 
d="M581 115v-115h-486v230l-95 -56v117l95 56v353h136v-273l135 80v-117l-135 -80v-195h350z" />
    <glyph glyph-name="lslash" unicode="&#x142;" horiz-adv-x="332" 
d="M332 390l-100 -66v-324h-132v236l-100 -66v117l100 66v361h132v-273l100 66v-117z" />
    <glyph glyph-name="Nacute" unicode="&#x143;" horiz-adv-x="697" 
d="M65 700h122l312 -475h2v475h131v-700h-122l-312 474h-2v-474h-131v700zM365 915h139l-99 -169h-116z" />
    <glyph glyph-name="nacute" unicode="&#x144;" horiz-adv-x="592" 
d="M60 498h122v-83l83 83h161l111 -111v-387h-132v351l-34 35h-84l-95 -96v-290h-132v498zM318 713h139l-99 -169h-116z" />
    <glyph glyph-name="uni0145" unicode="&#x145;" horiz-adv-x="697" 
d="M65 700h122l312 -475h2v475h131v-700h-122l-312 474h-2v-474h-131v700zM334 -212h-22l-43 43v64l43 43h75l42 -44v-106l-57 -134h-78z" />
    <glyph glyph-name="uni0146" unicode="&#x146;" horiz-adv-x="592" 
d="M60 498h122v-83l83 83h161l111 -111v-387h-132v351l-34 35h-84l-95 -96v-290h-132v498zM284 -212h-22l-43 43v64l43 43h75l42 -44v-106l-57 -134h-78z" />
    <glyph glyph-name="Ncaron" unicode="&#x147;" horiz-adv-x="697" 
d="M65 700h122l312 -475h2v475h131v-700h-122l-312 474h-2v-474h-131v700zM154 907h127l65 -75h6l65 75h127l-142 -161h-106z" />
    <glyph glyph-name="ncaron" unicode="&#x148;" horiz-adv-x="592" 
d="M60 498h122v-83l83 83h161l111 -111v-387h-132v351l-34 35h-84l-95 -96v-290h-132v498zM107 705h127l65 -75h6l65 75h127l-142 -161h-106z" />
    <glyph glyph-name="napostrophe" unicode="&#x149;" horiz-adv-x="767" 
d="M235 498h122v-83l83 83h161l111 -111v-387h-132v351l-34 35h-84l-95 -96v-290h-132v498zM103 509h-22l-43 43v64l43 43h75l42 -44v-106l-57 -134h-78z" />
    <glyph glyph-name="Eng" unicode="&#x14a;" horiz-adv-x="703" 
d="M638 700v-811l-107 -107h-174v114h115l35 35v82l-309 461h-2v-474h-131v700h122l318 -475h2v475h131z" />
    <glyph glyph-name="eng" unicode="&#x14b;" horiz-adv-x="598" 
d="M543 390v-501l-107 -107h-175v114h115l35 35v418l-35 35h-86l-98 -98v-286h-132v498h124v-78l78 78h173z" />
    <glyph glyph-name="Omacron" unicode="&#x14c;" horiz-adv-x="700" 
d="M55 115v470l115 115h360l115 -115v-470l-115 -115h-360zM458 116l51 51v366l-51 51h-216l-51 -51v-366l51 -51h216zM180 862h340v-106h-340v106z" />
    <glyph glyph-name="omacron" unicode="&#x14d;" horiz-adv-x="592" 
d="M50 104v290l103 104h286l103 -104v-290l-103 -104h-286zM375 110l35 35v208l-35 35h-158l-35 -35v-208l35 -35h158zM127 660h340v-106h-340v106z" />
    <glyph glyph-name="Obreve" unicode="&#x14e;" horiz-adv-x="700" 
d="M55 115v470l115 115h360l115 -115v-470l-115 -115h-360zM458 116l51 51v366l-51 51h-216l-51 -51v-366l51 -51h216zM182 829v76h112v-48l27 -27h58l27 27v48h112v-76l-83 -83h-170z" />
    <glyph glyph-name="obreve" unicode="&#x14f;" horiz-adv-x="592" 
d="M50 104v290l103 104h286l103 -104v-290l-103 -104h-286zM375 110l35 35v208l-35 35h-158l-35 -35v-208l35 -35h158zM129 627v76h112v-48l27 -27h58l27 27v48h112v-76l-83 -83h-170z" />
    <glyph glyph-name="Ohungarumlaut" unicode="&#x150;" horiz-adv-x="700" 
d="M55 115v470l115 115h360l115 -115v-470l-115 -115h-360zM458 116l51 51v366l-51 51h-216l-51 -51v-366l51 -51h216zM268 915h131l-95 -169h-108zM440 915h131l-96 -169h-108z" />
    <glyph glyph-name="ohungarumlaut" unicode="&#x151;" horiz-adv-x="592" 
d="M50 104v290l103 104h286l103 -104v-290l-103 -104h-286zM375 110l35 35v208l-35 35h-158l-35 -35v-208l35 -35h158zM215 713h131l-95 -169h-108zM387 713h131l-96 -169h-108z" />
    <glyph glyph-name="OE" unicode="&#x152;" horiz-adv-x="1056" 
d="M645 582v-172h347v-116h-347v-176h376v-118h-472v64l-64 -64h-315l-115 115v470l115 115h319l60 -60v60h472v-118h-376zM509 533l-51 51h-216l-51 -51v-366l51 -51h216l51 51v366z" />
    <glyph glyph-name="oe" unicode="&#x153;" horiz-adv-x="938" 
d="M540 206v-63l33 -33h156l31 31v30h132v-65l-106 -106h-268l-48 48l-48 -48h-269l-103 104v290l103 104h269l48 -48l48 48h266l109 -108v-184h-353zM573 390l-33 -33v-59h221v59l-33 33h-155zM375 110l35 35v208l-35 35h-158l-35 -35v-208l35 -35h158z" />
    <glyph glyph-name="Racute" unicode="&#x154;" horiz-adv-x="675" 
d="M615 232v-232h-136v201l-60 67h-218v-268h-136v700h439l107 -108v-212l-68 -69zM201 380h241l35 35v136l-35 35h-241v-206zM345 915h139l-99 -169h-116z" />
    <glyph glyph-name="racute" unicode="&#x155;" horiz-adv-x="409" 
d="M60 498h122v-83l80 83h142v-112h-115l-97 -100v-286h-132v498zM243 713h139l-99 -169h-116z" />
    <glyph glyph-name="uni0156" unicode="&#x156;" horiz-adv-x="675" 
d="M615 232v-232h-136v201l-60 67h-218v-268h-136v700h439l107 -108v-212l-68 -69zM201 380h241l35 35v136l-35 35h-241v-206zM319 -212h-22l-43 43v64l43 43h75l42 -44v-106l-57 -134h-78z" />
    <glyph glyph-name="uni0157" unicode="&#x157;" horiz-adv-x="409" 
d="M60 498h122v-83l80 83h142v-112h-115l-97 -100v-286h-132v498zM111 -212h-22l-43 43v64l43 43h75l42 -44v-106l-57 -134h-78z" />
    <glyph glyph-name="Rcaron" unicode="&#x158;" horiz-adv-x="675" 
d="M615 232v-232h-136v201l-60 67h-218v-268h-136v700h439l107 -108v-212l-68 -69zM201 380h241l35 35v136l-35 35h-241v-206zM134 907h127l65 -75h6l65 75h127l-142 -161h-106z" />
    <glyph glyph-name="rcaron" unicode="&#x159;" horiz-adv-x="409" 
d="M60 498h122v-83l80 83h142v-112h-115l-97 -100v-286h-132v498zM32 705h127l65 -75h6l65 75h127l-142 -161h-106z" />
    <glyph glyph-name="Sacute" unicode="&#x15a;" horiz-adv-x="637" 
d="M50 108v100h134v-59l33 -33h207l34 34v116l-33 33h-265l-108 108v185l108 108h316l108 -108v-101h-134v60l-33 33h-198l-33 -33v-103l33 -33h265l108 -108v-197l-110 -110h-324zM334 915h139l-99 -169h-116z" />
    <glyph glyph-name="sacute" unicode="&#x15b;" horiz-adv-x="536" 
d="M35 98v61h130v-28l22 -23h162l22 23v43l-23 24h-215l-94 95v109l95 96h260l97 -98v-61h-130v28l-22 23h-148l-22 -23v-39l23 -24h215l94 -95v-113l-95 -96h-274zM280 713h139l-99 -169h-116z" />
    <glyph glyph-name="Scircumflex" unicode="&#x15c;" horiz-adv-x="637" 
d="M50 108v100h134v-59l33 -33h207l34 34v116l-33 33h-265l-108 108v185l108 108h316l108 -108v-101h-134v60l-33 33h-198l-33 -33v-103l33 -33h265l108 -108v-197l-110 -110h-324zM265 907h106l142 -161h-127l-65 75h-6l-65 -75h-127z" />
    <glyph glyph-name="scircumflex" unicode="&#x15d;" horiz-adv-x="536" 
d="M35 98v61h130v-28l22 -23h162l22 23v43l-23 24h-215l-94 95v109l95 96h260l97 -98v-61h-130v28l-22 23h-148l-22 -23v-39l23 -24h215l94 -95v-113l-95 -96h-274zM211 705h106l142 -161h-127l-65 75h-6l-65 -75h-127z" />
    <glyph glyph-name="Scedilla" unicode="&#x15e;" horiz-adv-x="637" 
d="M592 307v-197l-110 -110h-120l-14 -34h52l50 -50v-88l-52 -52h-174v74h118l12 12v26l-12 12h-99v31l26 69h-111l-108 108v100h134v-59l33 -33h207l34 34v116l-33 33h-265l-108 108v185l108 108h316l108 -108v-101h-134v60l-33 33h-198l-33 -33v-103l33 -33h265z" />
    <glyph glyph-name="scedilla" unicode="&#x15f;" horiz-adv-x="536" 
d="M501 209v-113l-95 -96h-90l-14 -34h52l50 -50v-88l-52 -52h-174v74h118l12 12v26l-12 12h-99v31l26 69h-91l-97 98v61h130v-28l22 -23h162l22 23v43l-23 24h-215l-94 95v109l95 96h260l97 -98v-61h-130v28l-22 23h-148l-22 -23v-39l23 -24h215z" />
    <glyph glyph-name="Scaron" unicode="&#x160;" horiz-adv-x="637" 
d="M50 108v100h134v-59l33 -33h207l34 34v116l-33 33h-265l-108 108v185l108 108h316l108 -108v-101h-134v60l-33 33h-198l-33 -33v-103l33 -33h265l108 -108v-197l-110 -110h-324zM123 907h127l65 -75h6l65 75h127l-142 -161h-106z" />
    <glyph glyph-name="scaron" unicode="&#x161;" horiz-adv-x="536" 
d="M35 98v61h130v-28l22 -23h162l22 23v43l-23 24h-215l-94 95v109l95 96h260l97 -98v-61h-130v28l-22 23h-148l-22 -23v-39l23 -24h215l94 -95v-113l-95 -96h-274zM69 705h127l65 -75h6l65 75h127l-142 -161h-106z" />
    <glyph glyph-name="uni0162" unicode="&#x162;" horiz-adv-x="584" 
d="M224 585h-209v115h554v-115h-209v-585h-136v585zM180 -204h118l12 12v26l-12 12h-99v31l47 123h94l-36 -88h52l50 -50v-88l-52 -52h-174v74z" />
    <glyph glyph-name="uni0163" unicode="&#x163;" horiz-adv-x="414" 
d="M237 386v-241l34 -33h118v-112h-116l-14 -34h52l50 -50v-88l-52 -52h-174v74h118l12 12v26l-12 12h-99v31l34 89l-83 82v285h-90v111h92v162h130v-162h152v-112h-152z" />
    <glyph glyph-name="Tcaron" unicode="&#x164;" horiz-adv-x="584" 
d="M224 585h-209v115h554v-115h-209v-585h-136v585zM97 907h127l65 -75h6l65 75h127l-142 -161h-106z" />
    <glyph glyph-name="tcaron" unicode="&#x165;" horiz-adv-x="582" 
d="M105 102v285h-90v111h92v162h130v-162h152v-112h-152v-241l34 -33h118v-112h-181zM487 562h-22l-43 43v64l43 43h75l42 -44v-106l-57 -134h-78z" />
    <glyph glyph-name="Tbar" unicode="&#x166;" horiz-adv-x="584" 
d="M360 585v-200h153v-110h-153v-275h-136v275h-147v110h147v200h-209v115h554v-115h-209z" />
    <glyph glyph-name="tbar" unicode="&#x167;" horiz-adv-x="414" 
d="M237 386v-77h152v-110h-152v-54l34 -33h118v-112h-181l-103 102v97h-90v110h90v78h-90v111h92v162h130v-162h152v-112h-152z" />
    <glyph glyph-name="Utilde" unicode="&#x168;" horiz-adv-x="700" 
d="M65 120v580h136v-533l51 -51h196l51 51v533h136v-580l-120 -120h-330zM307 808h-22l-13 -12v-33l-96 -1v71l69 69h84l64 -52h23l12 12v34h96v-71l-69 -69h-84z" />
    <glyph glyph-name="utilde" unicode="&#x169;" horiz-adv-x="591" 
d="M55 105v393h132v-352l34 -34h80l98 98v288h132v-498h-122v85l-86 -85h-163zM250 606h-22l-13 -12v-33l-96 -1v71l69 69h84l64 -52h23l12 12v34h96v-71l-69 -69h-84z" />
    <glyph glyph-name="Umacron" unicode="&#x16a;" horiz-adv-x="700" 
d="M65 120v580h136v-533l51 -51h196l51 51v533h136v-580l-120 -120h-330zM180 862h340v-106h-340v106z" />
    <glyph glyph-name="umacron" unicode="&#x16b;" horiz-adv-x="591" 
d="M55 105v393h132v-352l34 -34h80l98 98v288h132v-498h-122v85l-86 -85h-163zM123 660h340v-106h-340v106z" />
    <glyph glyph-name="Ubreve" unicode="&#x16c;" horiz-adv-x="700" 
d="M65 120v580h136v-533l51 -51h196l51 51v533h136v-580l-120 -120h-330zM182 829v76h112v-48l27 -27h58l27 27v48h112v-76l-83 -83h-170z" />
    <glyph glyph-name="ubreve" unicode="&#x16d;" horiz-adv-x="591" 
d="M55 105v393h132v-352l34 -34h80l98 98v288h132v-498h-122v85l-86 -85h-163zM125 627v76h112v-48l27 -27h58l27 27v48h112v-76l-83 -83h-170z" />
    <glyph glyph-name="Uring" unicode="&#x16e;" horiz-adv-x="700" 
d="M65 120v580h136v-533l51 -51h196l51 51v533h136v-580l-120 -120h-330zM226 815v98l69 69h110l69 -69v-98l-69 -69h-110zM372 821l24 24v38l-24 24h-44l-24 -24v-38l24 -24h44z" />
    <glyph glyph-name="uring" unicode="&#x16f;" horiz-adv-x="591" 
d="M55 105v393h132v-352l34 -34h80l98 98v288h132v-498h-122v85l-86 -85h-163zM169 613v98l69 69h110l69 -69v-98l-69 -69h-110zM315 619l24 24v38l-24 24h-44l-24 -24v-38l24 -24h44z" />
    <glyph glyph-name="Uhungarumlaut" unicode="&#x170;" horiz-adv-x="700" 
d="M65 120v580h136v-533l51 -51h196l51 51v533h136v-580l-120 -120h-330zM268 915h131l-95 -169h-108zM440 915h131l-96 -169h-108z" />
    <glyph glyph-name="uhungarumlaut" unicode="&#x171;" horiz-adv-x="591" 
d="M55 105v393h132v-352l34 -34h80l98 98v288h132v-498h-122v85l-86 -85h-163zM211 713h131l-95 -169h-108zM383 713h131l-96 -169h-108z" />
    <glyph glyph-name="Uogonek" unicode="&#x172;" horiz-adv-x="700" 
d="M65 120v580h136v-533l51 -51h196l51 51v533h136v-580l-120 -120h-330zM242 -159v87l70 72h119l-75 -78v-35l18 -18h88v-92h-156z" />
    <glyph glyph-name="uogonek" unicode="&#x173;" horiz-adv-x="591" 
d="M55 105v393h132v-352l34 -34h80l98 98v288h132v-498h-122v85l-86 -85h-163zM342 -159v87l70 72h119l-75 -78v-35l18 -18h88v-92h-156z" />
    <glyph glyph-name="Wcircumflex" unicode="&#x174;" horiz-adv-x="879" 
d="M25 700h137l85 -494h4l139 494h102l136 -494h4l85 494h137l-145 -700h-127l-139 492h-4l-142 -492h-127zM387 907h106l142 -161h-127l-65 75h-6l-65 -75h-127z" />
    <glyph glyph-name="wcircumflex" unicode="&#x175;" horiz-adv-x="729" 
d="M20 498h134l57 -314h4l90 314h120l83 -314h4l63 314h134l-129 -498h-123l-92 336h-4l-98 -336h-123zM310 705h106l142 -161h-127l-65 75h-6l-65 -75h-127z" />
    <glyph glyph-name="Ycircumflex" unicode="&#x176;" horiz-adv-x="634" 
d="M249 286l-249 414h149l167 -287h2l167 287h149l-249 -414v-286h-136v286zM264 907h106l142 -161h-127l-65 75h-6l-65 -75h-127z" />
    <glyph glyph-name="ycircumflex" unicode="&#x177;" horiz-adv-x="593" 
d="M533 498v-612l-108 -107h-262l-93 92v68h132v-30l19 -20h146l34 35v150l-74 -74h-165l-107 108v390h132v-351l34 -35h87l93 99v287h132zM242 705h106l142 -161h-127l-65 75h-6l-65 -75h-127z" />
    <glyph glyph-name="Ydieresis" unicode="&#x178;" horiz-adv-x="634" 
d="M249 286l-249 414h149l167 -287h2l167 287h149l-249 -414v-286h-136v286zM135 792v58l39 39h67l38 -40v-56l-38 -40h-67zM355 793v56l38 40h67l39 -39v-58l-39 -39h-67z" />
    <glyph glyph-name="Zacute" unicode="&#x179;" horiz-adv-x="592" 
d="M35 108l359 476v2h-349v114h512v-108l-359 -476v-2h359v-114h-522v108zM317 915h139l-99 -169h-116z" />
    <glyph glyph-name="zacute" unicode="&#x17a;" horiz-adv-x="498" 
d="M25 102l277 287v2h-267v107h438v-102l-277 -287v-2h277v-107h-448v102zM270 713h139l-99 -169h-116z" />
    <glyph glyph-name="Zdotaccent" unicode="&#x17b;" horiz-adv-x="592" 
d="M35 108l359 476v2h-349v114h512v-108l-359 -476v-2h359v-114h-522v108zM225 790v62l41 41h70l41 -41v-62l-41 -41h-70z" />
    <glyph glyph-name="zdotaccent" unicode="&#x17c;" horiz-adv-x="498" 
d="M25 102l277 287v2h-267v107h438v-102l-277 -287v-2h277v-107h-448v102zM178 588v62l41 41h70l41 -41v-62l-41 -41h-70z" />
    <glyph glyph-name="Zcaron" unicode="&#x17d;" horiz-adv-x="592" 
d="M35 108l359 476v2h-349v114h512v-108l-359 -476v-2h359v-114h-522v108zM106 907h127l65 -75h6l65 75h127l-142 -161h-106z" />
    <glyph glyph-name="zcaron" unicode="&#x17e;" horiz-adv-x="498" 
d="M25 102l277 287v2h-267v107h438v-102l-277 -287v-2h277v-107h-448v102zM59 705h127l65 -75h6l65 75h127l-142 -161h-106z" />
    <glyph glyph-name="uni018F" unicode="&#x18f;" horiz-adv-x="728" 
d="M55 145v262h482v104l-71 71h-204l-71 -71v-52h-136v96l145 145h328l145 -145v-410l-145 -145h-328zM464 118l73 73v98h-346v-98l73 -73h200z" />
    <glyph glyph-name="florin" unicode="&#x192;" horiz-adv-x="625" 
d="M425 557l-18 -89h188v-111h-211l-57 -277l-101 -102h-206v109h146l35 35l46 235h-153v111h175l25 126l101 102h210v-109h-150z" />
    <glyph glyph-name="Ohorn" unicode="&#x1a0;" horiz-adv-x="777" 
d="M800 710v-111l-96 -96h-59v-388l-115 -115h-360l-115 115v470l115 115h360l101 -101h22l35 35v76h112zM509 533l-51 51h-216l-51 -51v-366l51 -51h216l51 51v366z" />
    <glyph glyph-name="ohorn" unicode="&#x1a1;" horiz-adv-x="675" 
d="M717 508v-111l-96 -96h-79v-197l-103 -104h-286l-103 104v290l103 104h286l100 -101h31l35 35v76h112zM410 353l-35 35h-158l-35 -35v-208l35 -35h158l35 35v208z" />
    <glyph glyph-name="Uhorn" unicode="&#x1af;" horiz-adv-x="791" 
d="M810 710v-111l-96 -96h-79v-383l-120 -120h-330l-120 120v580h136v-533l51 -51h196l51 51v533h136v-101h28l35 35v76h112z" />
    <glyph glyph-name="uhorn" unicode="&#x1b0;" horiz-adv-x="680" 
d="M706 508v-111l-96 -96h-79v-301h-122v85l-86 -85h-163l-105 105v393h132v-352l34 -34h80l98 98v288h132v-101h28l35 35v76h112z" />
    <glyph glyph-name="uni01CD" unicode="&#x1cd;" horiz-adv-x="646" 
d="M261 700h124l256 -700h-138l-57 155h-246l-57 -155h-138zM416 267l-93 266h-2l-90 -266h185zM128 907h127l65 -75h6l65 75h127l-142 -161h-106z" />
    <glyph glyph-name="uni01CE" unicode="&#x1ce;" horiz-adv-x="575" 
d="M45 92v114l92 92h253v63l-31 31h-150l-30 -31v-28h-130v57l107 108h257l107 -108v-390h-119v71l-74 -71h-190zM318 102l72 69v33h-188l-27 -27v-50l25 -25h118zM95 705h127l65 -75h6l65 75h127l-142 -161h-106z" />
    <glyph glyph-name="uni01CF" unicode="&#x1cf;" horiz-adv-x="276" 
d="M70 700h136v-700h-136v700zM-57 907h127l65 -75h6l65 75h127l-142 -161h-106z" />
    <glyph glyph-name="uni01D0" unicode="&#x1d0;" horiz-adv-x="272" 
d="M70 498h132v-498h-132v498zM-59 705h127l65 -75h6l65 75h127l-142 -161h-106z" />
    <glyph glyph-name="uni01D1" unicode="&#x1d1;" horiz-adv-x="700" 
d="M55 115v470l115 115h360l115 -115v-470l-115 -115h-360zM458 116l51 51v366l-51 51h-216l-51 -51v-366l51 -51h216zM155 907h127l65 -75h6l65 75h127l-142 -161h-106z" />
    <glyph glyph-name="uni01D2" unicode="&#x1d2;" horiz-adv-x="592" 
d="M50 104v290l103 104h286l103 -104v-290l-103 -104h-286zM375 110l35 35v208l-35 35h-158l-35 -35v-208l35 -35h158zM102 705h127l65 -75h6l65 75h127l-142 -161h-106z" />
    <glyph glyph-name="uni01D3" unicode="&#x1d3;" horiz-adv-x="700" 
d="M65 120v580h136v-533l51 -51h196l51 51v533h136v-580l-120 -120h-330zM155 907h127l65 -75h6l65 75h127l-142 -161h-106z" />
    <glyph glyph-name="uni01D4" unicode="&#x1d4;" horiz-adv-x="591" 
d="M55 105v393h132v-352l34 -34h80l98 98v288h132v-498h-122v85l-86 -85h-163zM98 705h127l65 -75h6l65 75h127l-142 -161h-106z" />
    <glyph glyph-name="uni01D5" unicode="&#x1d5;" horiz-adv-x="700" 
d="M65 120v580h136v-533l51 -51h196l51 51v533h136v-580l-120 -120h-330zM180 1051h340v-98h-340v98zM168 792v58l39 39h67l38 -40v-56l-38 -40h-67zM388 793v56l38 40h67l39 -39v-58l-39 -39h-67z" />
    <glyph glyph-name="uni01D6" unicode="&#x1d6;" horiz-adv-x="591" 
d="M55 105v393h132v-352l34 -34h80l98 98v288h132v-498h-122v85l-86 -85h-163zM123 849h340v-98h-340v98zM111 590v58l39 39h67l38 -40v-56l-38 -40h-67zM331 591v56l38 40h67l39 -39v-58l-39 -39h-67z" />
    <glyph glyph-name="uni01D7" unicode="&#x1d7;" horiz-adv-x="700" 
d="M65 120v580h136v-533l51 -51h196l51 51v533h136v-580l-120 -120h-330zM359 1070h125l-86 -139h-102zM168 792v58l39 39h67l38 -40v-56l-38 -40h-67zM388 793v56l38 40h67l39 -39v-58l-39 -39h-67z" />
    <glyph glyph-name="uni01D8" unicode="&#x1d8;" horiz-adv-x="591" 
d="M55 105v393h132v-352l34 -34h80l98 98v288h132v-498h-122v85l-86 -85h-163zM302 868h125l-86 -139h-102zM111 590v58l39 39h67l38 -40v-56l-38 -40h-67zM331 591v56l38 40h67l39 -39v-58l-39 -39h-67z" />
    <glyph glyph-name="uni01D9" unicode="&#x1d9;" horiz-adv-x="700" 
d="M65 120v580h136v-533l51 -51h196l51 51v533h136v-580l-120 -120h-330zM169 1075h113l65 -75h6l65 75h113l-132 -153h-98zM168 792v58l39 39h67l38 -40v-56l-38 -40h-67zM388 793v56l38 40h67l39 -39v-58l-39 -39h-67z" />
    <glyph glyph-name="uni01DA" unicode="&#x1da;" horiz-adv-x="591" 
d="M55 105v393h132v-352l34 -34h80l98 98v288h132v-498h-122v85l-86 -85h-163zM112 873h113l65 -75h6l65 75h113l-132 -153h-98zM111 590v58l39 39h67l38 -40v-56l-38 -40h-67zM331 591v56l38 40h67l39 -39v-58l-39 -39h-67z" />
    <glyph glyph-name="uni01DB" unicode="&#x1db;" horiz-adv-x="700" 
d="M65 120v580h136v-533l51 -51h196l51 51v533h136v-580l-120 -120h-330zM213 1070h125l63 -139h-102zM168 792v58l39 39h67l38 -40v-56l-38 -40h-67zM388 793v56l38 40h67l39 -39v-58l-39 -39h-67z" />
    <glyph glyph-name="uni01DC" unicode="&#x1dc;" horiz-adv-x="591" 
d="M55 105v393h132v-352l34 -34h80l98 98v288h132v-498h-122v85l-86 -85h-163zM156 868h125l63 -139h-102zM111 590v58l39 39h67l38 -40v-56l-38 -40h-67zM331 591v56l38 40h67l39 -39v-58l-39 -39h-67z" />
    <glyph glyph-name="Gcaron" unicode="&#x1e6;" horiz-adv-x="676" 
d="M55 115v470l115 115h348l113 -113v-107h-136v57l-47 47h-206l-51 -51v-366l51 -51h208l49 49v109h-150v116h282v-275l-115 -115h-346zM147 907h127l65 -75h6l65 75h127l-142 -161h-106z" />
    <glyph glyph-name="gcaron" unicode="&#x1e7;" horiz-adv-x="602" 
d="M542 498v-612l-108 -107h-271l-93 92v68h132v-30l19 -20h155l34 35v141l-69 -65h-188l-103 104v290l103 104h196l71 -68v68h122zM410 325l-68 61h-122l-38 -39v-196l38 -39h109l81 83v130zM103 705h127l65 -75h6l65 75h127l-142 -161h-106z" />
    <glyph glyph-name="Aringacute" unicode="&#x1fa;" horiz-adv-x="646" 
d="M261 700h124l256 -700h-138l-57 155h-246l-57 -155h-138zM416 267l-93 266h-2l-90 -266h185zM199 815v98l69 69h110l69 -69v-98l-69 -69h-110zM345 821l24 24v38l-24 24h-44l-24 -24v-38l24 -24h44zM339 1197h139l-99 -169h-116z" />
    <glyph glyph-name="aringacute" unicode="&#x1fb;" horiz-adv-x="575" 
d="M45 92v114l92 92h253v63l-31 31h-150l-30 -31v-28h-130v57l107 108h257l107 -108v-390h-119v71l-74 -71h-190zM318 102l72 69v33h-188l-27 -27v-50l25 -25h118zM166 613v98l69 69h110l69 -69v-98l-69 -69h-110zM312 619l24 24v38l-24 24h-44l-24 -24v-38l24 -24h44z
M306 995h139l-99 -169h-116z" />
    <glyph glyph-name="AEacute" unicode="&#x1fc;" horiz-adv-x="957" 
d="M564 582v-172h329v-116h-329v-176h358v-118h-494v179h-208l-78 -179h-142l313 700h609v-118h-358zM428 293v289h-33l-126 -289h159zM548 915h139l-99 -169h-116z" />
    <glyph glyph-name="aeacute" unicode="&#x1fd;" horiz-adv-x="915" 
d="M527 206v-63l33 -33h146l31 31v30h132v-65l-106 -106h-258l-65 66l-66 -66h-237l-92 92v114l92 92h253v63l-31 31h-150l-30 -31v-28h-130v57l107 108h251l54 -54l54 54h246l109 -108v-184h-343zM527 298h211v59l-33 33h-145l-33 -33v-59zM395 204h-193l-27 -27v-50
l25 -25h130l65 65v37zM479 713h139l-99 -169h-116z" />
    <glyph glyph-name="Oslashacute" unicode="&#x1fe;" horiz-adv-x="700" 
d="M609 621l36 -36v-470l-115 -115h-360l-24 24l-50 -64h-109l97 126l-29 29v470l115 115h360l17 -17l45 57h109zM191 223l274 354l-7 7h-216l-51 -51v-310zM509 492l-281 -362l14 -14h216l51 51v325zM366 915h139l-99 -169h-116z" />
    <glyph glyph-name="oslashacute" unicode="&#x1ff;" horiz-adv-x="592" 
d="M501 436l41 -42v-290l-103 -104h-276l-31 -40h-109l74 96l-47 48v290l103 104h286l1 -1l31 41h109zM182 165l173 223h-138l-35 -35v-188zM410 319l-162 -209h127l35 35v174zM313 713h139l-99 -169h-116z" />
    <glyph glyph-name="uni0218" unicode="&#x218;" horiz-adv-x="637" 
d="M50 108v100h134v-59l33 -33h207l34 34v116l-33 33h-265l-108 108v185l108 108h316l108 -108v-101h-134v60l-33 33h-198l-33 -33v-103l33 -33h265l108 -108v-197l-110 -110h-324zM307 -212h-22l-43 43v64l43 43h75l42 -44v-106l-57 -134h-78z" />
    <glyph glyph-name="uni0219" unicode="&#x219;" horiz-adv-x="536" 
d="M35 98v61h130v-28l22 -23h162l22 23v43l-23 24h-215l-94 95v109l95 96h260l97 -98v-61h-130v28l-22 23h-148l-22 -23v-39l23 -24h215l94 -95v-113l-95 -96h-274zM261 -212h-22l-43 43v64l43 43h75l42 -44v-106l-57 -134h-78z" />
    <glyph glyph-name="uni021A" unicode="&#x21a;" horiz-adv-x="584" 
d="M224 585h-209v115h554v-115h-209v-585h-136v585zM277 -212h-22l-43 43v64l43 43h75l42 -44v-106l-57 -134h-78z" />
    <glyph glyph-name="uni021B" unicode="&#x21b;" horiz-adv-x="414" 
d="M105 102v285h-90v111h92v162h130v-162h152v-112h-152v-241l34 -33h118v-112h-181zM218 -212h-22l-43 43v64l43 43h75l42 -44v-106l-57 -134h-78z" />
    <glyph glyph-name="uni0237" unicode="&#x237;" horiz-adv-x="287" 
d="M-65 -104h115l35 35v567h132v-609l-107 -107h-175v114z" />
    <glyph glyph-name="uni0251" unicode="&#x251;" horiz-adv-x="617" 
d="M50 104v290l103 104h201l66 -58v58h122v-388h70v-110h-134l-50 50v31l-83 -81h-192zM327 112l83 83v130l-70 61h-120l-38 -39v-196l38 -39h107z" />
    <glyph glyph-name="uni0259" unicode="&#x259;" horiz-adv-x="583" 
d="M533 396v-292l-103 -104h-281l-104 104v189h356v64l-32 33h-163l-30 -31v-26h-130v65l99 100h287zM177 201v-58l34 -35h156l34 35v58h-224z" />
    <glyph glyph-name="uni02BB" unicode="&#x2bb;" horiz-adv-x="241" 
d="M142 684h22l43 -43v-64l-43 -43h-75l-42 44v106l57 134h78z" />
    <glyph glyph-name="uni02BC" unicode="&#x2bc;" horiz-adv-x="210" 
d="M104 606h-22l-43 43v64l43 43h75l42 -44v-106l-57 -134h-78z" />
    <glyph glyph-name="uni02BE" unicode="&#x2be;" 
d="M0 619h22l24 24v38l-24 24h-22v75h55l69 -69v-98l-69 -69h-55v75z" />
    <glyph glyph-name="uni02BF" unicode="&#x2bf;" 
d="M-124 613v98l69 69h55v-75h-22l-24 -24v-38l24 -24h22v-75h-55z" />
    <glyph glyph-name="circumflex" unicode="&#x2c6;" horiz-adv-x="420" 
d="M157 705h106l142 -161h-127l-65 75h-6l-65 -75h-127z" />
    <glyph glyph-name="caron" unicode="&#x2c7;" horiz-adv-x="420" 
d="M15 705h127l65 -75h6l65 75h127l-142 -161h-106z" />
    <glyph glyph-name="uni02C8" unicode="&#x2c8;" 
d="M-62 730h124v-179h-124v179z" />
    <glyph glyph-name="uni02C9" unicode="&#x2c9;" horiz-adv-x="492" 
d="M56 646h380v-92h-380v92z" />
    <glyph glyph-name="uni02CA" unicode="&#x2ca;" 
d="M14 713h139l-159 -169h-116z" />
    <glyph glyph-name="uni02CB" unicode="&#x2cb;" 
d="M-122 713h139l136 -169h-116z" />
    <glyph glyph-name="uni02CC" unicode="&#x2cc;" 
d="M-62 -34h124v-179h-124v179z" />
    <glyph glyph-name="breve" unicode="&#x2d8;" horiz-adv-x="425" 
d="M45 627v76h112v-48l27 -27h58l27 27v48h112v-76l-83 -83h-170z" />
    <glyph glyph-name="dotaccent" unicode="&#x2d9;" horiz-adv-x="239" 
d="M44 588v62l41 41h70l41 -41v-62l-41 -41h-70z" />
    <glyph glyph-name="ring" unicode="&#x2da;" horiz-adv-x="308" 
d="M30 613v98l69 69h110l69 -69v-98l-69 -69h-110zM176 619l24 24v38l-24 24h-44l-24 -24v-38l24 -24h44z" />
    <glyph glyph-name="ogonek" unicode="&#x2db;" horiz-adv-x="279" 
d="M30 -159v79l69 80h120l-75 -88v-26l15 -15h91v-94h-156z" />
    <glyph glyph-name="tilde" unicode="&#x2dc;" horiz-adv-x="391" 
d="M153 606h-22l-13 -12v-33l-96 -1v71l69 69h84l64 -52h23l12 12v34h96v-71l-69 -69h-84z" />
    <glyph glyph-name="hungarumlaut" unicode="&#x2dd;" horiz-adv-x="377" 
d="M73 713h131l-95 -169h-108zM245 713h131l-96 -169h-108z" />
    <glyph glyph-name="gravecomb" unicode="&#x300;" 
d="M-162 713h139l76 -169h-116z" />
    <glyph glyph-name="acutecomb" unicode="&#x301;" 
d="M16 713h139l-99 -169h-116z" />
    <glyph glyph-name="uni0302" unicode="&#x302;" 
d="M-53 705h106l142 -161h-127l-65 75h-6l-65 -75h-127z" />
    <glyph glyph-name="tildecomb" unicode="&#x303;" 
d="M-43 606h-22l-13 -12v-33l-96 -1v71l69 69h84l64 -52h23l12 12v34h96v-71l-69 -69h-84z" />
    <glyph glyph-name="uni0304" unicode="&#x304;" 
d="M-170 660h340v-106h-340v106z" />
    <glyph glyph-name="uni0306" unicode="&#x306;" 
d="M-168 627v76h112v-48l27 -27h58l27 27v48h112v-76l-83 -83h-170z" />
    <glyph glyph-name="uni0307" unicode="&#x307;" 
d="M-76 588v62l41 41h70l41 -41v-62l-41 -41h-70z" />
    <glyph glyph-name="uni0308" unicode="&#x308;" 
d="M-182 590v58l39 39h67l38 -40v-56l-38 -40h-67zM38 591v56l38 40h67l39 -39v-58l-39 -39h-67z" />
    <glyph glyph-name="hookabovecomb" unicode="&#x309;" 
d="M-58 602l89 67v28l-12 12h-38l-12 -12v-39h-103v68l67 67h134l67 -67v-86l-75 -56v-40h-117v58z" />
    <glyph glyph-name="uni030A" unicode="&#x30a;" 
d="M-124 613v98l69 69h110l69 -69v-98l-69 -69h-110zM22 619l24 24v38l-24 24h-44l-24 -24v-38l24 -24h44z" />
    <glyph glyph-name="uni030B" unicode="&#x30b;" 
d="M-82 713h131l-95 -169h-108zM90 713h131l-96 -169h-108z" />
    <glyph glyph-name="uni030C" unicode="&#x30c;" 
d="M-195 705h127l65 -75h6l65 75h127l-142 -161h-106z" />
    <glyph glyph-name="uni031B" unicode="&#x31b;" 
d="M-61 422h65l35 35v76h112v-111l-96 -96h-116v96z" />
    <glyph glyph-name="dotbelowcomb" unicode="&#x323;" 
d="M-76 -150v62l41 41h70l41 -41v-62l-41 -41h-70z" />
    <glyph glyph-name="uni0324" unicode="&#x324;" 
d="M-182 -148v58l39 39h67l38 -40v-56l-38 -40h-67zM38 -147v56l38 40h67l39 -39v-58l-39 -39h-67z" />
    <glyph glyph-name="uni0326" unicode="&#x326;" 
d="M-15 -212h-22l-43 43v64l43 43h75l42 -44v-106l-57 -134h-78z" />
    <glyph glyph-name="uni0327" unicode="&#x327;" 
d="M-98 -150h118l12 12v26l-12 12h-99v31l47 123h94l-36 -88h52l50 -50v-88l-52 -52h-174v74z" />
    <glyph glyph-name="uni0328" unicode="&#x328;" 
d="M-106 -159v87l70 72h119l-75 -78v-35l18 -18h88v-92h-156z" />
    <glyph glyph-name="uni032E" unicode="&#x32e;" 
d="M-168 -135v76h112v-48l27 -27h58l27 27v48h112v-76l-83 -83h-170z" />
    <glyph glyph-name="uni0331" unicode="&#x331;" 
d="M-170 -59h340v-106h-340v106z" />
    <glyph glyph-name="uni0394" unicode="&#x394;" horiz-adv-x="666" 
d="M20 88l240 612h146l240 -612v-88h-626v88zM506 112l-170 450h-6l-170 -450h346z" />
    <glyph glyph-name="uni03A9" unicode="&#x3a9;" horiz-adv-x="715" 
d="M45 112h130v54l-112 112v306l116 116h357l116 -116v-306l-112 -112v-54h130v-112h-260v207l106 107v228l-42 42h-233l-42 -42v-228l106 -107v-207h-260v112z" />
    <glyph glyph-name="uni03BC" unicode="&#x3bc;" horiz-adv-x="596" 
d="M536 498v-498h-124v82l-80 -82h-105l-37 37v-237h-130v698h132v-331l54 -55h63l95 98v288h132z" />
    <glyph glyph-name="pi" unicode="&#x3c0;" horiz-adv-x="734" 
d="M576 386v-245l30 -29h88v-112h-152l-98 98v288h-166v-386h-132v386h-106v112h654v-112h-118z" />
    <glyph glyph-name="uni0E01" unicode="&#xe01;" horiz-adv-x="623" 
d="M77 275l50 70l-92 81l121 132h306l96 -97v-461h-134v417l-26 27h-191l-23 -24l81 -76l-54 -82v-262h-134v275z" />
    <glyph glyph-name="uni0E02" unicode="&#xe02;" horiz-adv-x="602" 
d="M210 85v184l50 112v64l-35 38h-71l-25 -25h39l48 -50v-70l-55 -60h-82l-59 60v128l92 102h165l89 -91v-111l-32 -74v-166l16 -18h45l16 18v432h126v-473l-84 -85h-159zM134 338l20 20v32l-20 20h-32l-20 -20v-32l20 -20h32z" />
    <glyph glyph-name="uni0E03" unicode="&#xe03;" horiz-adv-x="623" 
d="M231 85v194l51 120v69l-9 10h-12l-46 -47l-49 47h-24l-32 -36h54l48 -50v-70l-55 -60h-83l-59 60v133l91 113h68l41 -41l41 41h68l64 -72v-108l-33 -82v-180l16 -18h43l16 18v432h128v-473l-84 -85h-159zM131 322l19 20v32l-19 20h-33l-20 -20v-32l20 -20h33z" />
    <glyph glyph-name="uni0E04" unicode="&#xe04;" horiz-adv-x="642" 
d="M577 458v-458h-132v415l-28 29h-196l-28 -29v-154l81 80h87l62 -65v-74l-62 -65h-80l-38 40l-19 -22l-29 -28v-127h-130v458l100 100h312zM281 222l19 -20h36l19 20v34l-19 20h-36l-19 -20v-34z" />
    <glyph glyph-name="uni0E05" unicode="&#xe05;" horiz-adv-x="644" 
d="M579 464v-464h-132v423l-17 21h-34l-74 -57l-76 57h-35l-18 -21v-169l81 80h87l62 -65v-74l-62 -65h-80l-38 40l-19 -22l-29 -28v-120h-130v464l83 94h106l68 -55l68 55h106zM281 215l19 -20h36l19 20v34l-19 20h-36l-19 -20v-34z" />
    <glyph glyph-name="uni0E06" unicode="&#xe06;" horiz-adv-x="675" 
d="M610 558v-558h-92l-179 108v-41l-67 -67h-101l-72 72v84l70 71h43v35l93 110v95l-10 11h-24l-46 -47l-49 47h-24l-32 -36h54l48 -50v-70l-55 -60h-83l-59 60v133l91 113h68l41 -41l41 41h85l66 -74v-143l-77 -89v-43l136 -82v421h134zM108 394l-20 -20v-32l20 -20h33
l19 20v32l-19 20h-33zM259 132l-20 20h-36l-20 -20v-36l20 -20h36l20 20v36z" />
    <glyph glyph-name="uni0E07" unicode="&#xe07;" horiz-adv-x="514" 
d="M10 307l96 64l189 -257h22v176l8 33h-56l-72 72v89l74 74h104l74 -74v-428l-56 -56h-152zM342 401l19 20v36l-19 20h-38l-19 -20v-36l19 -20h38z" />
    <glyph glyph-name="uni0E08" unicode="&#xe08;" horiz-adv-x="584" 
d="M519 460v-460h-134v141l-12 10l-22 24l-51 -53h-95l-69 69v92l69 69h100l84 -78v143l-26 27h-190l-26 -27v-56h-132v99l96 98h312zM292 254l-19 20h-37l-20 -20v-36l20 -20h37l19 20v36z" />
    <glyph glyph-name="uni0E09" unicode="&#xe09;" horiz-adv-x="625" 
d="M595 166v-95l-71 -71h-102l-67 67v27l-121 -94h-97v79l5 41h-45l-67 67v92l67 67h102l67 -67v-140l149 109v171l-26 27h-191l-26 -27v-28h-134v69l96 98h319l96 -98v-248zM186 250l-20 20h-36l-20 -20v-36l20 -20h36l20 20v36zM511 137l-20 20h-36l-20 -20v-36l20 -20h36
l20 20v36z" />
    <glyph glyph-name="uni0E0A" unicode="&#xe0a;" horiz-adv-x="616" 
d="M210 85v184l50 112v64l-35 38h-71l-25 -25h39l48 -50v-70l-55 -60h-82l-59 60v128l92 102h165l89 -91v-111l-32 -74v-166l16 -18h57l16 18v260l-24 37v45l156 153l76 -80l-112 -108l30 -51v-297l-84 -85h-171zM134 338l20 20v32l-20 20h-32l-20 -20v-32l20 -20h32z" />
    <glyph glyph-name="uni0E0B" unicode="&#xe0b;" horiz-adv-x="634" 
d="M231 85v194l51 120v69l-9 10h-12l-46 -47l-49 47h-24l-32 -36h54l48 -50v-70l-55 -60h-83l-59 60v133l91 113h68l41 -41l41 41h68l64 -72v-108l-33 -82v-178l16 -18h54l16 18v263l-19 34v48l151 148l76 -80l-112 -108l30 -51v-297l-84 -85h-168zM131 322l19 20v32l-19 20
h-33l-20 -20v-32l20 -20h33z" />
    <glyph glyph-name="uni0E0C" unicode="&#xe0c;" horiz-adv-x="887" 
d="M822 558v-558h-91l-143 88v-19l-68 -69h-98l-69 70v90l68 70v187l-26 27h-188l-23 -24l81 -76l-57 -75v-31l-2 -12h40l68 -65v-94l-69 -67h-102l-67 67v213l51 65l-92 81l121 132h299l96 -97v-239l137 -83v419h134zM509 132l-20 20h-34l-20 -20v-34l20 -20h34l20 20v34z
M179 151l-20 -20v-34l20 -20h34l20 20v34l-20 20h-34z" />
    <glyph glyph-name="uni0E0D" unicode="&#xe0d;" horiz-adv-x="899" 
d="M76 67v213l51 65l-92 81l121 132h292l96 -97v-323l24 -24h108l24 24v420h134v-468l-90 -90h-242l-90 90v327l-26 27h-179l-23 -24l81 -76l-57 -75v-33l-2 -12h42l66 -66v-91l-67 -67h-104zM213 75l20 20v34l-20 20h-34l-20 -20v-34l20 -20h34zM414 -178v78l65 65h89
l66 -66v-38h40l103 99l77 -82l-127 -121h-248zM540 -173l20 20v30l-20 20h-32l-20 -20v-30l20 -20h32z" />
    <glyph glyph-name="uni0E0E" unicode="&#xe0e;" horiz-adv-x="639" 
d="M88 -205v85l69 67h207l76 -74v544l-26 27h-193l-23 -24l98 -76l-42 -78v-198l-67 -68h-103l-69 67v94l65 65h46l-4 16v42l36 61l-109 81l121 132h308l96 -97v-735h-91l-55 54l-53 -54h-218zM151 77l20 20v34l-20 20h-34l-20 -20v-34l20 -20h34zM332 -198l29 32l-37 37
h-121l-19 -19v-31l19 -19h129z" />
    <glyph glyph-name="uni0E0F" unicode="&#xe0f;" horiz-adv-x="639" 
d="M64 -209v86l65 65h131l85 -100l39 72l56 -62v565l-26 27h-193l-23 -24l98 -76l-42 -78v-198l-67 -68h-103l-69 67v94l65 65h46l-4 16v42l36 61l-109 81l121 132h308l96 -97v-735h-103l-71 76l-45 -76l-55 66l-58 -66h-113zM151 77l20 20v34l-20 20h-34l-20 -20v-34
l20 -20h34zM223 -199l31 36l-30 34h-63l-18 -18v-34l18 -18h62z" />
    <glyph glyph-name="uni0E10" unicode="&#xe10;" horiz-adv-x="548" 
d="M355 293l-335 59v108l97 98h376v-104h-319l-20 -21v-9l329 -54v-370h-134v71l-36 36l-51 -49h-88l-68 69v82l67 68h95l87 -87v103zM257 184l-20 20h-33l-20 -20v-33l20 -20h33l20 20v33zM514 -80v-226h-164l-47 46l-48 -46l-52 56l-51 -56h-85l-65 65v90l62 65h97
l99 -119l37 35l56 -56h61v15l2 10h-40l-50 49v70l52 53h85zM406 -149h27l17 17v28l-17 17h-27l-17 -17v-28zM163 -195l-30 38h-39l-18 -18v-40l18 -18h38z" />
    <glyph glyph-name="uni0E11" unicode="&#xe11;" horiz-adv-x="725" 
d="M214 273l63 126v69l-9 10h-12l-46 -47l-49 47h-24l-32 -36h54l48 -50v-70l-55 -60h-83l-59 60v133l91 113h68l41 -41l41 41h57l66 -74v-107l-57 -120v-127h1l147 418h97l98 -98v-460h-134v421l-17 19h-4l-160 -440h-131v273zM126 322l19 20v32l-19 20h-33l-20 -20v-32
l20 -20h33z" />
    <glyph glyph-name="uni0E12" unicode="&#xe12;" horiz-adv-x="906" 
d="M841 558v-558h-91l-133 87v-28l-60 -59h-93l-62 62v87l49 47v227l-17 21h-36l-76 -57l-76 57h-40l-18 -21v-313l48 46l20 15l-40 37v84l59 59h86l57 -57v-90l-219 -204h-134v464l83 94h106l68 -55l68 55h106l83 -94v-242l128 -83v419h134zM280 234l19 -20h36l19 20v34
l-19 20h-36l-19 -20v-34zM549 124l-20 20h-34l-20 -20v-34l20 -20h34l20 20v34z" />
    <glyph glyph-name="uni0E13" unicode="&#xe13;" horiz-adv-x="898" 
d="M873 166v-95l-71 -71h-103l-66 67v28l-126 -95h-95v417l-26 27h-179l-23 -24l81 -76l-57 -75v-33l-2 -12h42l66 -66v-91l-67 -67h-104l-67 67v213l51 65l-92 81l121 132h290l96 -97v-323l151 107v313h134v-346zM789 136l-20 20h-34l-20 -20v-34l20 -20h34l20 20v34z
M179 149l-20 -20v-34l20 -20h34l20 20v34l-20 20h-34z" />
    <glyph glyph-name="uni0E14" unicode="&#xe14;" horiz-adv-x="642" 
d="M577 460v-460h-132v417l-26 27h-203l-26 -27v-303l46 42l20 15l-40 39v86l59 59h90l57 -57v-94l-223 -204h-134v460l96 98h320zM282 236l19 -20h36l19 20v34l-19 20h-36l-19 -20v-34z" />
    <glyph glyph-name="uni0E15" unicode="&#xe15;" horiz-adv-x="644" 
d="M579 464v-464h-132v423l-17 21h-32l-76 -57l-76 57h-38l-18 -21v-309l46 40l20 15l-40 37v86l59 59h90l57 -57v-94l-223 -200h-134v464l83 94h106l68 -55l68 55h106zM282 232l19 -20h36l19 20v34l-19 20h-36l-19 -20v-34z" />
    <glyph glyph-name="uni0E16" unicode="&#xe16;" horiz-adv-x="623" 
d="M75 67v213l52 65l-92 81l121 132h306l96 -97v-461h-134v417l-26 27h-191l-23 -24l81 -76l-58 -75v-33l-2 -12h42l66 -66v-91l-67 -67h-104zM212 75l20 20v34l-20 20h-34l-20 -20v-34l20 -20h34z" />
    <glyph glyph-name="uni0E17" unicode="&#xe17;" horiz-adv-x="660" 
d="M134 287l8 33h-56l-71 69v96l69 73h105l69 -73v-260h1l127 333h113l96 -98v-460h-134v421l-17 21h-5l-176 -442h-129v287zM155 400l19 20v36l-19 20h-37l-20 -20v-36l20 -20h37z" />
    <glyph glyph-name="uni0E18" unicode="&#xe18;" horiz-adv-x="576" 
d="M71 90v171h130v-125l23 -24h139l23 24v126l-341 80v118l96 98h380v-109h-320l-22 -22v-15l337 -80v-242l-88 -90h-269z" />
    <glyph glyph-name="uni0E19" unicode="&#xe19;" horiz-adv-x="642" 
d="M617 166v-95l-71 -71h-103l-66 67v31l-145 -98h-97v286l8 34h-55l-73 73v90l75 75h105l74 -75v-343l168 107v311h134v-346zM179 456l-20 20h-36l-20 -20v-36l20 -20h36l20 20v36zM533 136l-20 20h-34l-20 -20v-34l20 -20h34l20 20v34z" />
    <glyph glyph-name="uni0E1A" unicode="&#xe1a;" horiz-adv-x="662" 
d="M135 82v204l8 34h-55l-73 73v90l75 75h105l74 -75v-347l21 -22h152l21 22v422h134v-476l-81 -82h-300zM159 400l20 20v36l-20 20h-36l-20 -20v-36l20 -20h36z" />
    <glyph glyph-name="uni0E1B" unicode="&#xe1b;" horiz-adv-x="664" 
d="M135 82v204l8 34h-55l-73 73v90l75 75h105l74 -75v-347l21 -22h154l21 22v632h134v-686l-81 -82h-302zM159 400l20 20v36l-20 20h-36l-20 -20v-36l20 -20h36z" />
    <glyph glyph-name="uni0E1C" unicode="&#xe1c;" horiz-adv-x="633" 
d="M65 483l75 75h97l74 -75v-88l-70 -70h-51l5 -41v-115h1l89 116h62l88 -117h1v390h132v-558h-118l-134 178l-133 -178h-118v483zM208 402l19 20v36l-19 20h-37l-20 -20v-36l20 -20h37z" />
    <glyph glyph-name="uni0E1D" unicode="&#xe1d;" horiz-adv-x="635" 
d="M65 483l75 75h97l74 -75v-88l-70 -70h-51l5 -41v-115h1l90 116h62l89 -117h1v600h132v-768h-118l-135 178l-134 -178h-118v483zM208 402l19 20v36l-19 20h-37l-20 -20v-36l20 -20h37z" />
    <glyph glyph-name="uni0E1E" unicode="&#xe1e;" horiz-adv-x="704" 
d="M135 286l8 34h-55l-73 73v90l75 75h103l72 -72v-262h3l94 216h52l92 -215h3v333h130v-558h-129l-122 284l-123 -284h-130v286zM158 400l20 20v36l-20 20h-36l-20 -20v-36l20 -20h36z" />
    <glyph glyph-name="uni0E1F" unicode="&#xe1f;" horiz-adv-x="706" 
d="M135 286l8 34h-55l-73 73v90l75 75h103l72 -72v-262h3l95 216h52l93 -215h3v543h130v-768h-129l-123 284l-124 -284h-130v286zM158 400l20 20v36l-20 20h-36l-20 -20v-36l20 -20h36z" />
    <glyph glyph-name="uni0E20" unicode="&#xe20;" horiz-adv-x="637" 
d="M15 67v94l65 65h46l-4 16v42l36 61l-109 81l121 132h306l96 -97v-461h-134v417l-26 27h-191l-23 -24l98 -76l-42 -78v-198l-67 -68h-103zM151 77l20 20v34l-20 20h-34l-20 -20v-34l20 -20h34z" />
    <glyph glyph-name="uni0E21" unicode="&#xe21;" horiz-adv-x="636" 
d="M571 558v-558h-98l-186 104v-35l-68 -69h-100l-74 74v88l74 74h31v50l8 34h-55l-73 73v90l75 75h105l74 -75v-259l153 -85v419h134zM174 400l20 20v36l-20 20h-36l-20 -20v-36l20 -20h36zM204 135l-19 20h-35l-20 -20v-34l20 -20h35l19 20v34z" />
    <glyph glyph-name="uni0E22" unicode="&#xe22;" horiz-adv-x="607" 
d="M542 558v-470l-86 -88h-315l-86 88v98l73 56l-73 57v184l73 75h102l71 -73v-82l-63 -65h-67v-16l48 -33h107v-90h-97l-40 -33v-34l20 -20h177l22 22v424h134zM141 427l20 -20h36l20 20v36l-20 20h-36l-20 -20v-36z" />
    <glyph glyph-name="uni0E23" unicode="&#xe23;" horiz-adv-x="505" 
d="M171 67v97l66 66h55l-2 18v30l-260 61v123l94 96h341v-112h-281l-20 -21v-16l258 -58v-284l-67 -67h-116zM315 77l19 20v36l-19 20h-38l-19 -20v-36l19 -20h38z" />
    <glyph glyph-name="uni0E24" unicode="&#xe24;" horiz-adv-x="625" 
d="M426 417l-26 27h-193l-23 -24l81 -76l-57 -75v-33l-2 -12h42l66 -66v-91l-67 -67h-104l-67 67v213l51 65l-92 81l121 132h308l96 -97v-671h-134v627zM213 75l20 20v34l-20 20h-34l-20 -20v-34l20 -20h34z" />
    <glyph glyph-name="uni0E25" unicode="&#xe25;" horiz-adv-x="616" 
d="M70 67v194l98 95h187l64 -63v126l-26 27h-188l-26 -27v-28h-134v69l96 98h314l96 -98v-460h-134v160l-91 92h-111l-15 -16v-8l-2 -10h43l65 -65v-86l-67 -67h-102zM206 73l20 20v34l-20 20h-34l-20 -20v-34l20 -20h34z" />
    <glyph glyph-name="uni0E26" unicode="&#xe26;" horiz-adv-x="639" 
d="M440 417l-26 27h-193l-23 -24l98 -76l-42 -78v-198l-67 -68h-103l-69 67v94l65 65h46l-4 16v42l36 61l-109 81l121 132h308l96 -97v-671h-134v627zM151 77l20 20v34l-20 20h-34l-20 -20v-34l20 -20h34z" />
    <glyph glyph-name="uni0E27" unicode="&#xe27;" horiz-adv-x="540" 
d="M223 75v90l71 73h53l-6 31v148l-27 27h-135l-27 -27v-68h-132v111l96 98h263l96 -98v-385l-75 -75h-103zM367 82l20 20v36l-20 20h-36l-20 -20v-36l20 -20h36z" />
    <glyph glyph-name="uni0E28" unicode="&#xe28;" horiz-adv-x="642" 
d="M537 473l40 -46v-427h-132v415l-28 29h-196l-28 -29v-154l81 80h87l62 -65v-74l-62 -65h-80l-38 40l-19 -22l-29 -28v-127h-130v455l102 103h278l67 67l88 -88zM281 222l19 -20h36l19 20v34l-19 20h-36l-19 -20v-34z" />
    <glyph glyph-name="uni0E29" unicode="&#xe29;" horiz-adv-x="683" 
d="M618 558v-476l-81 -82h-321l-81 82v204l8 34h-55l-73 73v90l75 75h102l72 -73v-349l21 -22h184l21 22v57h-148l-56 55v77l58 58h70l56 -58v-38l-4 -13l24 6v278h128zM179 456l-20 20h-36l-20 -20v-36l20 -20h36l20 20v36zM412 302l-19 19h-27l-19 -19v-28l19 -19h27
l19 19v28z" />
    <glyph glyph-name="uni0E2A" unicode="&#xe2a;" horiz-adv-x="616" 
d="M529 465l22 -25v-440h-134v160l-91 92h-111l-15 -16v-8l-2 -10h43l65 -65v-86l-67 -67h-102l-67 67v194l98 95h187l64 -63v126l-26 27h-188l-26 -27v-28h-134v69l96 98h304l67 67l88 -88zM172 147l-20 -20v-34l20 -20h34l20 20v34l-20 20h-34z" />
    <glyph glyph-name="uni0E2B" unicode="&#xe2b;" horiz-adv-x="662" 
d="M597 394l-41 -40l41 -38v-316h-134v265l-8 10l-212 -275h-108v286l8 34h-55l-73 73v90l75 75h105l74 -75v-296l123 160l-47 47v89l72 75h106l74 -75v-89zM433 422l20 -20h36l20 20v36l-20 20h-36l-20 -20v-36zM179 456l-20 20h-36l-20 -20v-36l20 -20h36l20 20v36z" />
    <glyph glyph-name="uni0E2C" unicode="&#xe2c;" horiz-adv-x="722" 
d="M135 286l8 34h-55l-73 73v90l75 75h103l72 -72v-285h3l94 181h50l95 -180h3v203l4 25h-46l-66 66v88l66 66h99l59 -61v-29l49 51l52 -68l-87 -90v-453h-128l-125 237l-122 -237h-130v286zM530 505l20 20v30l-20 20h-29l-21 -20v-30l21 -20h29zM159 400l20 20v36l-20 20
h-36l-20 -20v-36l20 -20h36z" />
    <glyph glyph-name="uni0E2D" unicode="&#xe2d;" horiz-adv-x="601" 
d="M65 90v210l67 67h101l67 -67v-88l-65 -63h-41l1 -10v-10l18 -19h168l26 27v282l-26 27h-181l-26 -27v-28h-134v69l96 98h309l96 -98v-370l-88 -90h-301zM201 217l19 20v36l-19 20h-35l-19 -20v-36l19 -20h35z" />
    <glyph glyph-name="uni0E2E" unicode="&#xe2e;" horiz-adv-x="601" 
d="M65 90v198l67 67h101l67 -67v-82l-61 -59h-45l1 -10v-8l18 -19h170l26 27v285l-14 14l-58 -56h-245l-52 52v74l52 52h318l71 66l80 -75l-57 -54l37 -38v-367l-88 -90h-301zM287 449l42 40h-166l-12 -12v-16l11 -12h125zM201 209l19 20v36l-19 20h-35l-19 -20v-36l19 -20
h35z" />
    <glyph glyph-name="uni0E2F" unicode="&#xe2f;" horiz-adv-x="537" 
d="M343 339l-47 -37h-194l-87 87v95l74 74h93l71 -71v-67l-23 -28l28 2h17l72 63v101h130v-558h-134v339zM156 403l19 20v35l-19 20h-37l-20 -20v-35l20 -20h37z" />
    <glyph glyph-name="uni0E30" unicode="&#xe30;" horiz-adv-x="528" 
d="M35 371v98l73 73h92l73 -73v-59h39l117 117l79 -92l-137 -137h-263zM175 383l19 20v36l-19 20h-38l-19 -20v-36l19 -20h38zM35 91v98l73 73h92l73 -73v-59h39l117 117l79 -92l-137 -137h-263zM175 103l19 20v36l-19 20h-38l-19 -20v-36l19 -20h38z" />
    <glyph glyph-name="uni0E31" unicode="&#xe31;" 
d="M-388 692v89l63 63h98l63 -63v-52h68l98 108l73 -78l-120 -131h-279zM-260 703l18 18v32l-18 18h-32l-18 -18v-32l18 -18h32z" />
    <glyph glyph-name="uni0E32" unicode="&#xe32;" horiz-adv-x="543" 
d="M344 417l-27 27h-139l-26 -27v-68h-132v111l97 98h264l97 -98v-460h-134v417z" />
    <glyph glyph-name="uni0E33" unicode="&#xe33;" horiz-adv-x="543" 
d="M-253 692v96l72 72h109l71 -72v-96l-71 -72h-109zM-110 703l20 20v34l-20 20h-33l-20 -20v-34l20 -20h33zM344 417l-27 27h-139l-26 -27v-68h-132v111l97 98h264l97 -98v-460h-134v417z" />
    <glyph glyph-name="uni0E34" unicode="&#xe34;" 
d="M-540 742l105 105h265l105 -105v-114h-475v114zM-181 706v24l-35 35h-173l-35 -35v-24h243z" />
    <glyph glyph-name="uni0E35" unicode="&#xe35;" 
d="M-65 893v-265h-475v114l105 105h202l53 -44v90h115zM-197 734l-36 31h-158l-33 -33v-26h227v28z" />
    <glyph glyph-name="uni0E36" unicode="&#xe36;" 
d="M-16 747l-49 -43v-76h-475v114l105 105h202l22 -18v6l56 59h83l56 -56v-91zM-149 811v-31l23 -19h27l18 18v32l-18 18h-32zM-197 734l-36 31h-158l-33 -33v-26h227v28z" />
    <glyph glyph-name="uni0E37" unicode="&#xe37;" 
d="M-65 893v-265h-475v114l105 105h132v46h95v-67l48 -41v108h95zM-197 730l-40 35h-154l-33 -33v-26h227v24z" />
    <glyph glyph-name="uni0E38" unicode="&#xe38;" 
d="M-195 -316l10 44h-49l-71 71v76l71 71h96l73 -73v-239h-130v50zM-169 -201l21 22v30l-21 22h-32l-21 -22v-30l21 -22h32z" />
    <glyph glyph-name="uni0E39" unicode="&#xe39;" 
d="M-362 -309v17l4 26h-52l-62 61v84l67 67h94l65 -65v-149h67v208h114v-247l-61 -61h-177zM-343 -201l21 22v30l-21 22h-32l-21 -22v-30l21 -22h32z" />
    <glyph glyph-name="uni0E3A" unicode="&#xe3a;" 
d="M-215 -165v64l47 47h72l47 -47v-64l-47 -47h-72z" />
    <glyph glyph-name="uni0E3F" unicode="&#xe3f;" horiz-adv-x="670" 
d="M635 291v-183l-108 -108h-134v-110h-114v110h-214v700h214v110h114v-110h111l100 -100v-196l-40 -41zM198 407h81v179h-81v-179zM393 586v-179h41l36 36v108l-35 35h-42zM279 114v184h-81v-184h81zM501 255l-43 43h-65v-184h65l43 43v98z" />
    <glyph glyph-name="uni0E40" unicode="&#xe40;" horiz-adv-x="334" 
d="M65 73v485h134v-287l-8 -33h57l71 -73v-92l-73 -73h-108zM211 82l20 20v36l-20 20h-36l-20 -20v-36l20 -20h36z" />
    <glyph glyph-name="uni0E41" unicode="&#xe41;" horiz-adv-x="629" 
d="M65 73v485h134v-287l-8 -33h55l71 -73v-92l-73 -73h-106zM360 73v485h134v-287l-8 -33h57l71 -73v-92l-73 -73h-108zM211 82l20 20v36l-20 20h-36l-20 -20v-36l20 -20h36zM506 82l20 20v36l-20 20h-36l-20 -20v-36l20 -20h36z" />
    <glyph glyph-name="uni0E42" unicode="&#xe42;" horiz-adv-x="391" 
d="M122 73v568l-167 83v111l97 97h326v-108h-273l-20 -20v-23l171 -84v-426l-8 -33h57l71 -73v-92l-73 -73h-108zM268 82l20 20v36l-20 20h-36l-20 -20v-36l20 -20h36z" />
    <glyph glyph-name="uni0E43" unicode="&#xe43;" horiz-adv-x="387" 
d="M118 73v499l116 141v114l-29 29h-110l-32 -30h50l50 -52v-76l-60 -60h-86l-60 60v143l109 111h193l99 -99v-158l-106 -131v-293l-8 -33h57l71 -73v-92l-73 -73h-108zM77 702l20 20v32l-20 20h-32l-20 -20v-32l20 -20h32zM264 82l20 20v36l-20 20h-36l-20 -20v-36l20 -20
h36z" />
    <glyph glyph-name="uni0E44" unicode="&#xe44;" horiz-adv-x="377" 
d="M108 73v569l127 147v36l-8 9h-39l-75 -71l-78 71h-75v108h97l56 -56l55 56h128l63 -63l2 -114l-119 -144v-350l-8 -33h57l71 -73v-92l-73 -73h-108zM254 82l20 20v36l-20 20h-36l-20 -20v-36l20 -20h36z" />
    <glyph glyph-name="uni0E45" unicode="&#xe45;" horiz-adv-x="543" 
d="M344 417l-27 27h-139l-26 -27v-68h-132v111l97 98h264l97 -98v-670h-134v627z" />
    <glyph glyph-name="uni0E46" unicode="&#xe46;" horiz-adv-x="529" 
d="M330 451l-14 15h-21l-51 -53l-56 55h-36l-32 -31h46l56 -57v-68l-57 -60h-84l-61 60v150l97 106h78l49 -50l48 50h100l72 -79v-599h-134v561zM141 312l20 20v32l-20 20h-32l-20 -20v-32l20 -20h32z" />
    <glyph glyph-name="uni0E47" unicode="&#xe47;" 
d="M-490 814l80 80h226l70 70l64 -65l-87 -89h-229l-22 -22v-75l72 56l63 -50h16v20l46 47h76l48 -47v-66l-46 -45h-149l-67 53l-67 -53h-94v186zM-139 678l16 16v26l-16 16h-28l-16 -16v-26l16 -16h28z" />
    <glyph glyph-name="uni0E48" unicode="&#xe48;" 
d="M-198 838h133v-210h-133v210z" />
    <glyph glyph-name="uni0E49" unicode="&#xe49;" 
d="M-427 712h100l14 20h-48l-46 44v74l57 57h92l57 -57v-90l-28 -44h67l115 156l78 -71l-129 -173h-329v84zM-291 782l19 19v28l-19 19h-26l-19 -19v-28l19 -19h26z" />
    <glyph glyph-name="uni0E4A" unicode="&#xe4a;" 
d="M-499 678v116l92 95h91l39 -40l38 40h66l67 -65v-98h6l90 136l68 -58l-118 -176h-192v80h52v87l-9 10h-17l-51 -51l-53 51h-37l-27 -25h38l49 -49v-53l-52 -54h-88zM-391 680l16 16v21l-16 16h-22l-16 -16v-21l16 -16h22z" />
    <glyph glyph-name="uni0E4B" unicode="&#xe4b;" 
d="M28 708h-98v-80h-124v80h-98v84h98v80h124v-80h98v-84z" />
    <glyph glyph-name="uni0E4C" unicode="&#xe4c;" 
d="M-165 813l38 -37v-88l-60 -60h-97l-60 60v91l185 186l74 -73zM-200 748l-19 19h-30l-19 -19v-32l19 -19h30l19 19v32z" />
    <glyph glyph-name="uni0E4D" unicode="&#xe4d;" 
d="M-266 698v94l73 74h108l73 -74v-94l-73 -74h-108zM-120 699l28 28v36l-28 28h-38l-28 -28v-36l28 -28h38z" />
    <glyph glyph-name="uni0E4E" unicode="&#xe4e;" 
d="M-64 972v-77h-64l-20 -20v-101h-107l-15 -15v-23l15 -15h88v-78h-135l-62 62v84l59 61h68v59l63 63h110z" />
    <glyph glyph-name="uni0E4F" unicode="&#xe4f;" horiz-adv-x="591" 
d="M40 176v206l152 152h207l152 -152v-206l-152 -151h-207zM359 118l97 97v128l-97 98h-127l-97 -98v-128l97 -97h127zM173 228v102l72 72h101l72 -72v-102l-71 -71h-103zM315 234l26 26v39l-27 26h-36l-27 -26v-39l26 -26h38z" />
    <glyph glyph-name="uni0E50" unicode="&#xe50;" horiz-adv-x="658" 
d="M50 104v267l104 104h350l104 -104v-267l-104 -104h-350zM443 111l34 34v183l-36 36h-224l-36 -36v-183l34 -34h228z" />
    <glyph glyph-name="uni0E51" unicode="&#xe51;" horiz-adv-x="656" 
d="M396 -12l80 85v253l-36 37h-232l-36 -37v-211l20 -21h45l-30 34v56l64 64h93l69 -70v-87l-88 -91h-206l-89 89v277l107 109h342l107 -109v-336l-123 -125zM333 96l22 23v33l-22 22h-30l-22 -22v-29l24 -27h28z" />
    <glyph glyph-name="uni0E52" unicode="&#xe52;" horiz-adv-x="759" 
d="M55 103v567h132v-525l33 -34h326l33 34v203l-23 23h-12l-72 -77l-78 77h-42l-26 -26v-13h56l55 -55v-72l-53 -53h-95l-59 60v158l95 105h91l56 -61l51 61h91l95 -99v-273l-102 -103h-450zM355 205l20 20v32l-20 20h-32l-20 -20v-32l20 -20h32z" />
    <glyph glyph-name="uni0E53" unicode="&#xe53;" horiz-adv-x="756" 
d="M55 70v299l106 106h174l52 -53l53 53h155l106 -106v-369h-131v331l-32 32h-58l-30 -30v-333h-126v333l-30 30h-79l-32 -32v-112h38l70 -70v-79l-70 -70h-96zM192 74l20 20v34l-20 20h-34l-20 -20v-34l20 -20h34z" />
    <glyph glyph-name="uni0E54" unicode="&#xe54;" horiz-adv-x="687" 
d="M50 108v259l108 108h347l105 104l87 -87l-127 -129h-352l-36 -36v-185l34 -34h111l-54 64v95l65 65h106l65 -65v-79l-55 -55h-28l21 -25h193v-108h-482zM412 188l20 20v34l-20 20h-34l-20 -20v-34l20 -20h34z" />
    <glyph glyph-name="uni0E55" unicode="&#xe55;" horiz-adv-x="687" 
d="M447 108h193v-108h-482l-108 108v259l108 108h77v57l71 71h96l71 -71v-57h32l105 104l87 -87l-127 -129h-352l-36 -36v-185l34 -34h111l-54 64v95l65 65h106l65 -65v-79l-55 -55h-28zM320 476l20 -20h32l20 20v32l-20 20h-32l-20 -20v-32zM412 188l20 20v34l-20 20h-34
l-20 -20v-34l20 -20h34z" />
    <glyph glyph-name="uni0E56" unicode="&#xe56;" horiz-adv-x="652" 
d="M71 85v90l80 80h90l78 -78v-43l-20 -22h135l36 37v181l-32 33h-320l-128 129l87 87l104 -104h317l104 -105v-263l-106 -107h-338zM208 93l25 27v28l-22 21h-31l-21 -21v-33l21 -22h28z" />
    <glyph glyph-name="uni0E57" unicode="&#xe57;" horiz-adv-x="897" 
d="M55 68v301l106 106h161l52 -53l53 53h137l102 -102v-263h34l16 16v544h126v-584l-86 -86h-217v333l-30 30h-45l-30 -30v-333h-120v333l-30 30h-68l-32 -32v-114h34l70 -70v-79l-68 -68h-97zM190 72l20 20v34l-20 20h-34l-20 -20v-34l20 -20h34z" />
    <glyph glyph-name="uni0E58" unicode="&#xe58;" horiz-adv-x="693" 
d="M50 96v271l108 108h323l105 104l87 -87l-126 -129h-329l-36 -36v-191l24 -24h22l96 93l103 -99h85l16 14v15h-43l-57 57v74l61 63h98l65 -65v-166l-98 -98h-159l-71 70l-70 -70h-108zM556 192l20 20v32l-20 20h-32l-20 -20v-32l20 -20h32z" />
    <glyph glyph-name="uni0E59" unicode="&#xe59;" horiz-adv-x="678" 
d="M456 339l188 -287l-88 -71l-252 382h-103l-33 -33v-202l36 -36h25l-22 23v47l58 58h86l60 -60v-91l-71 -69h-191l-99 99v268l108 108h209l30 -46l46 46h76l101 104l73 -81l-125 -131h-84zM273 107l27 -27h26l21 22v33l-21 21h-31l-22 -22v-27z" />
    <glyph glyph-name="uni0E5A" unicode="&#xe5a;" horiz-adv-x="761" 
d="M343 339l-47 -37h-194l-87 87v95l74 74h93l71 -71v-67l-23 -28l28 2h17l72 63v101h126v-162h33l69 63v99h126v-558h-130v337l-56 -45h-42v-292h-130v339zM156 403l19 20v35l-19 20h-37l-20 -20v-35l20 -20h37z" />
    <glyph glyph-name="uni0E5B" unicode="&#xe5b;" horiz-adv-x="1189" 
d="M40 134v286l106 106h218l88 -88v-207l-72 -65h-104l-65 65v92l55 55h48l17 -13h7v26l-22 21h-114l-34 -34v-204l34 -34h224l43 40l81 273h85l67 -189l57 169h72l54 -145l49 125h63l49 -87h123v-106h-150l-40 67l-60 -153h-68l-56 142l-55 -162h-76l-59 162l-43 -151
l-96 -97h-320zM345 238l19 20v34l-19 20h-34l-20 -20v-34l20 -20h34z" />
    <glyph glyph-name="uni1E0C" unicode="&#x1e0c;" horiz-adv-x="688" 
d="M65 700h448l120 -120v-460l-120 -120h-448v700zM446 116l51 51v366l-51 51h-245v-468h245zM262 -150v62l41 41h70l41 -41v-62l-41 -41h-70z" />
    <glyph glyph-name="uni1E0D" unicode="&#x1e0d;" horiz-adv-x="602" 
d="M50 104v290l103 104h198l59 -51v267h132v-714h-124v77l-77 -77h-188zM329 112l81 83v130l-68 61h-122l-38 -39v-196l38 -39h109zM224 -150v62l41 41h70l41 -41v-62l-41 -41h-70z" />
    <glyph glyph-name="uni1E0E" unicode="&#x1e0e;" horiz-adv-x="688" 
d="M65 700h448l120 -120v-460l-120 -120h-448v700zM446 116l51 51v366l-51 51h-245v-468h245zM168 -59h340v-106h-340v106z" />
    <glyph glyph-name="uni1E0F" unicode="&#x1e0f;" horiz-adv-x="602" 
d="M50 104v290l103 104h198l59 -51v267h132v-714h-124v77l-77 -77h-188zM329 112l81 83v130l-68 61h-122l-38 -39v-196l38 -39h109zM130 -59h340v-106h-340v106z" />
    <glyph glyph-name="uni1E20" unicode="&#x1e20;" horiz-adv-x="676" 
d="M55 115v470l115 115h348l113 -113v-107h-136v57l-47 47h-206l-51 -51v-366l51 -51h208l49 49v109h-150v116h282v-275l-115 -115h-346zM172 862h340v-106h-340v106z" />
    <glyph glyph-name="uni1E21" unicode="&#x1e21;" horiz-adv-x="602" 
d="M542 498v-612l-108 -107h-271l-93 92v68h132v-30l19 -20h155l34 35v141l-69 -65h-188l-103 104v290l103 104h196l71 -68v68h122zM410 325l-68 61h-122l-38 -39v-196l38 -39h109l81 83v130zM128 660h340v-106h-340v106z" />
    <glyph glyph-name="uni1E24" unicode="&#x1e24;" horiz-adv-x="698" 
d="M65 700h136v-293h296v293h136v-700h-136v291h-296v-291h-136v700zM275 -150v62l41 41h70l41 -41v-62l-41 -41h-70z" />
    <glyph glyph-name="uni1E25" unicode="&#x1e25;" horiz-adv-x="594" 
d="M60 714h132v-293l77 77h159l111 -111v-387h-132v351l-34 35h-86l-95 -96v-290h-132v714zM224 -150v62l41 41h70l41 -41v-62l-41 -41h-70z" />
    <glyph glyph-name="uni1E2A" unicode="&#x1e2a;" horiz-adv-x="698" 
d="M65 700h136v-293h296v293h136v-700h-136v291h-296v-291h-136v700zM183 -135v76h112v-48l27 -27h58l27 27v48h112v-76l-83 -83h-170z" />
    <glyph glyph-name="uni1E2B" unicode="&#x1e2b;" horiz-adv-x="594" 
d="M60 714h132v-293l77 77h159l111 -111v-387h-132v351l-34 35h-86l-95 -96v-290h-132v714zM132 -135v76h112v-48l27 -27h58l27 27v48h112v-76l-83 -83h-170z" />
    <glyph glyph-name="uni1E36" unicode="&#x1e36;" horiz-adv-x="561" 
d="M65 700h136v-585h350v-115h-486v700zM233 -150v62l41 41h70l41 -41v-62l-41 -41h-70z" />
    <glyph glyph-name="uni1E37" unicode="&#x1e37;" horiz-adv-x="262" 
d="M65 714h132v-714h-132v714zM55 -150v62l41 41h70l41 -41v-62l-41 -41h-70z" />
    <glyph glyph-name="uni1E38" unicode="&#x1e38;" horiz-adv-x="561" 
d="M65 700h136v-585h350v-115h-486v700zM-37 862h340v-106h-340v106zM233 -150v62l41 41h70l41 -41v-62l-41 -41h-70z" />
    <glyph glyph-name="uni1E39" unicode="&#x1e39;" horiz-adv-x="262" 
d="M65 714h132v-714h-132v714zM-39 886h340v-106h-340v106zM55 -150v62l41 41h70l41 -41v-62l-41 -41h-70z" />
    <glyph glyph-name="uni1E3A" unicode="&#x1e3a;" horiz-adv-x="561" 
d="M65 700h136v-585h350v-115h-486v700zM139 -59h340v-106h-340v106z" />
    <glyph glyph-name="uni1E3B" unicode="&#x1e3b;" horiz-adv-x="262" 
d="M65 714h132v-714h-132v714zM-39 -59h340v-106h-340v106z" />
    <glyph glyph-name="uni1E42" unicode="&#x1e42;" horiz-adv-x="801" 
d="M65 700h126l208 -452h2l209 452h126v-700h-131v426h-2l-161 -328h-84l-160 328h-2v-426h-131v700zM324 -150v62l41 41h70l41 -41v-62l-41 -41h-70z" />
    <glyph glyph-name="uni1E43" unicode="&#x1e43;" horiz-adv-x="861" 
d="M60 498h122v-82l81 82h126l68 -69l68 69h174l107 -108v-390h-132v351l-34 35h-84l-53 -53v-333h-128v353l-32 33h-60l-91 -92v-294h-132v498zM363 -150v62l41 41h70l41 -41v-62l-41 -41h-70z" />
    <glyph glyph-name="uni1E44" unicode="&#x1e44;" horiz-adv-x="697" 
d="M65 700h122l312 -475h2v475h131v-700h-122l-312 474h-2v-474h-131v700zM273 790v62l41 41h70l41 -41v-62l-41 -41h-70z" />
    <glyph glyph-name="uni1E45" unicode="&#x1e45;" horiz-adv-x="592" 
d="M60 498h122v-83l83 83h161l111 -111v-387h-132v351l-34 35h-84l-95 -96v-290h-132v498zM226 588v62l41 41h70l41 -41v-62l-41 -41h-70z" />
    <glyph glyph-name="uni1E46" unicode="&#x1e46;" horiz-adv-x="697" 
d="M65 700h122l312 -475h2v475h131v-700h-122l-312 474h-2v-474h-131v700zM273 -150v62l41 41h70l41 -41v-62l-41 -41h-70z" />
    <glyph glyph-name="uni1E47" unicode="&#x1e47;" horiz-adv-x="592" 
d="M60 498h122v-83l83 83h161l111 -111v-387h-132v351l-34 35h-84l-95 -96v-290h-132v498zM223 -150v62l41 41h70l41 -41v-62l-41 -41h-70z" />
    <glyph glyph-name="uni1E48" unicode="&#x1e48;" horiz-adv-x="697" 
d="M65 700h122l312 -475h2v475h131v-700h-122l-312 474h-2v-474h-131v700zM179 -59h340v-106h-340v106z" />
    <glyph glyph-name="uni1E49" unicode="&#x1e49;" horiz-adv-x="592" 
d="M60 498h122v-83l83 83h161l111 -111v-387h-132v351l-34 35h-84l-95 -96v-290h-132v498zM129 -59h340v-106h-340v106z" />
    <glyph glyph-name="uni1E5A" unicode="&#x1e5a;" horiz-adv-x="675" 
d="M615 232v-232h-136v201l-60 67h-218v-268h-136v700h439l107 -108v-212l-68 -69zM201 380h241l35 35v136l-35 35h-241v-206zM258 -150v62l41 41h70l41 -41v-62l-41 -41h-70z" />
    <glyph glyph-name="uni1E5B" unicode="&#x1e5b;" horiz-adv-x="409" 
d="M60 498h122v-83l80 83h142v-112h-115l-97 -100v-286h-132v498zM50 -150v62l41 41h70l41 -41v-62l-41 -41h-70z" />
    <glyph glyph-name="uni1E5C" unicode="&#x1e5c;" horiz-adv-x="675" 
d="M615 232v-232h-136v201l-60 67h-218v-268h-136v700h439l107 -108v-212l-68 -69zM201 380h241l35 35v136l-35 35h-241v-206zM159 862h340v-106h-340v106zM258 -150v62l41 41h70l41 -41v-62l-41 -41h-70z" />
    <glyph glyph-name="uni1E5D" unicode="&#x1e5d;" horiz-adv-x="409" 
d="M60 498h122v-83l80 83h142v-112h-115l-97 -100v-286h-132v498zM57 660h340v-106h-340v106zM50 -150v62l41 41h70l41 -41v-62l-41 -41h-70z" />
    <glyph glyph-name="uni1E5E" unicode="&#x1e5e;" horiz-adv-x="675" 
d="M615 232v-232h-136v201l-60 67h-218v-268h-136v700h439l107 -108v-212l-68 -69zM201 380h241l35 35v136l-35 35h-241v-206zM164 -59h340v-106h-340v106z" />
    <glyph glyph-name="uni1E5F" unicode="&#x1e5f;" horiz-adv-x="409" 
d="M60 498h122v-83l80 83h142v-112h-115l-97 -100v-286h-132v498zM-44 -59h340v-106h-340v106z" />
    <glyph glyph-name="uni1E60" unicode="&#x1e60;" horiz-adv-x="637" 
d="M50 108v100h134v-59l33 -33h207l34 34v116l-33 33h-265l-108 108v185l108 108h316l108 -108v-101h-134v60l-33 33h-198l-33 -33v-103l33 -33h265l108 -108v-197l-110 -110h-324zM242 790v62l41 41h70l41 -41v-62l-41 -41h-70z" />
    <glyph glyph-name="uni1E61" unicode="&#x1e61;" horiz-adv-x="536" 
d="M35 98v61h130v-28l22 -23h162l22 23v43l-23 24h-215l-94 95v109l95 96h260l97 -98v-61h-130v28l-22 23h-148l-22 -23v-39l23 -24h215l94 -95v-113l-95 -96h-274zM188 588v62l41 41h70l41 -41v-62l-41 -41h-70z" />
    <glyph glyph-name="uni1E62" unicode="&#x1e62;" horiz-adv-x="637" 
d="M50 108v100h134v-59l33 -33h207l34 34v116l-33 33h-265l-108 108v185l108 108h316l108 -108v-101h-134v60l-33 33h-198l-33 -33v-103l33 -33h265l108 -108v-197l-110 -110h-324zM246 -150v62l41 41h70l41 -41v-62l-41 -41h-70z" />
    <glyph glyph-name="uni1E63" unicode="&#x1e63;" horiz-adv-x="536" 
d="M35 98v61h130v-28l22 -23h162l22 23v43l-23 24h-215l-94 95v109l95 96h260l97 -98v-61h-130v28l-22 23h-148l-22 -23v-39l23 -24h215l94 -95v-113l-95 -96h-274zM200 -150v62l41 41h70l41 -41v-62l-41 -41h-70z" />
    <glyph glyph-name="uni1E6C" unicode="&#x1e6c;" horiz-adv-x="584" 
d="M224 585h-209v115h554v-115h-209v-585h-136v585zM216 -150v62l41 41h70l41 -41v-62l-41 -41h-70z" />
    <glyph glyph-name="uni1E6D" unicode="&#x1e6d;" horiz-adv-x="414" 
d="M105 102v285h-90v111h92v162h130v-162h152v-112h-152v-241l34 -33h118v-112h-181zM157 -150v62l41 41h70l41 -41v-62l-41 -41h-70z" />
    <glyph glyph-name="uni1E6E" unicode="&#x1e6e;" horiz-adv-x="584" 
d="M224 585h-209v115h554v-115h-209v-585h-136v585zM122 -59h340v-106h-340v106z" />
    <glyph glyph-name="uni1E6F" unicode="&#x1e6f;" horiz-adv-x="414" 
d="M105 102v285h-90v111h92v162h130v-162h152v-112h-152v-241l34 -33h118v-112h-181zM63 -59h340v-106h-340v106z" />
    <glyph glyph-name="Wgrave" unicode="&#x1e80;" horiz-adv-x="879" 
d="M25 700h137l85 -494h4l139 494h102l136 -494h4l85 494h137l-145 -700h-127l-139 492h-4l-142 -492h-127zM278 915h139l76 -169h-116z" />
    <glyph glyph-name="wgrave" unicode="&#x1e81;" horiz-adv-x="729" 
d="M20 498h134l57 -314h4l90 314h120l83 -314h4l63 314h134l-129 -498h-123l-92 336h-4l-98 -336h-123zM201 713h139l76 -169h-116z" />
    <glyph glyph-name="Wacute" unicode="&#x1e82;" horiz-adv-x="879" 
d="M25 700h137l85 -494h4l139 494h102l136 -494h4l85 494h137l-145 -700h-127l-139 492h-4l-142 -492h-127zM456 915h139l-99 -169h-116z" />
    <glyph glyph-name="wacute" unicode="&#x1e83;" horiz-adv-x="729" 
d="M20 498h134l57 -314h4l90 314h120l83 -314h4l63 314h134l-129 -498h-123l-92 336h-4l-98 -336h-123zM379 713h139l-99 -169h-116z" />
    <glyph glyph-name="Wdieresis" unicode="&#x1e84;" horiz-adv-x="879" 
d="M25 700h137l85 -494h4l139 494h102l136 -494h4l85 494h137l-145 -700h-127l-139 492h-4l-142 -492h-127zM258 792v58l39 39h67l38 -40v-56l-38 -40h-67zM478 793v56l38 40h67l39 -39v-58l-39 -39h-67z" />
    <glyph glyph-name="wdieresis" unicode="&#x1e85;" horiz-adv-x="729" 
d="M20 498h134l57 -314h4l90 314h120l83 -314h4l63 314h134l-129 -498h-123l-92 336h-4l-98 -336h-123zM181 590v58l39 39h67l38 -40v-56l-38 -40h-67zM401 591v56l38 40h67l39 -39v-58l-39 -39h-67z" />
    <glyph glyph-name="uni1E8E" unicode="&#x1e8e;" horiz-adv-x="634" 
d="M249 286l-249 414h149l167 -287h2l167 287h149l-249 -414v-286h-136v286zM241 790v62l41 41h70l41 -41v-62l-41 -41h-70z" />
    <glyph glyph-name="uni1E8F" unicode="&#x1e8f;" horiz-adv-x="593" 
d="M533 498v-612l-108 -107h-262l-93 92v68h132v-30l19 -20h146l34 35v150l-74 -74h-165l-107 108v390h132v-351l34 -35h87l93 99v287h132zM219 588v62l41 41h70l41 -41v-62l-41 -41h-70z" />
    <glyph glyph-name="uni1E92" unicode="&#x1e92;" horiz-adv-x="592" 
d="M35 108l359 476v2h-349v114h512v-108l-359 -476v-2h359v-114h-522v108zM221 -150v62l41 41h70l41 -41v-62l-41 -41h-70z" />
    <glyph glyph-name="uni1E93" unicode="&#x1e93;" horiz-adv-x="498" 
d="M25 102l277 287v2h-267v107h438v-102l-277 -287v-2h277v-107h-448v102zM176 -150v62l41 41h70l41 -41v-62l-41 -41h-70z" />
    <glyph glyph-name="uni1E97" unicode="&#x1e97;" horiz-adv-x="414" 
d="M105 102v285h-90v111h92v162h130v-162h152v-112h-152v-241l34 -33h118v-112h-181zM-3 752v58l39 39h67l38 -40v-56l-38 -40h-67zM217 753v56l38 40h67l39 -39v-58l-39 -39h-67z" />
    <glyph glyph-name="uni1E9E" unicode="&#x1e9e;" horiz-adv-x="691" 
d="M656 310v-212l-98 -98h-204l-96 96v88h132v-45l23 -23h86l23 23v137l-24 24h-164v102l127 180h-232l-28 -28v-554h-136v597l103 103h431v-118l-126 -174h85z" />
    <glyph glyph-name="uni1EA0" unicode="&#x1ea0;" horiz-adv-x="646" 
d="M261 700h124l256 -700h-138l-57 155h-246l-57 -155h-138zM416 267l-93 266h-2l-90 -266h185zM247 -150v62l41 41h70l41 -41v-62l-41 -41h-70z" />
    <glyph glyph-name="uni1EA1" unicode="&#x1ea1;" horiz-adv-x="575" 
d="M45 92v114l92 92h253v63l-31 31h-150l-30 -31v-28h-130v57l107 108h257l107 -108v-390h-119v71l-74 -71h-190zM318 102l72 69v33h-188l-27 -27v-50l25 -25h118zM214 -150v62l41 41h70l41 -41v-62l-41 -41h-70z" />
    <glyph glyph-name="uni1EA2" unicode="&#x1ea2;" horiz-adv-x="646" 
d="M261 700h124l256 -700h-138l-57 155h-246l-57 -155h-138zM416 267l-93 266h-2l-90 -266h185zM265 804l89 67v28l-12 12h-38l-12 -12v-39h-103v68l67 67h134l67 -67v-86l-75 -56v-40h-117v58z" />
    <glyph glyph-name="uni1EA3" unicode="&#x1ea3;" horiz-adv-x="575" 
d="M45 92v114l92 92h253v63l-31 31h-150l-30 -31v-28h-130v57l107 108h257l107 -108v-390h-119v71l-74 -71h-190zM318 102l72 69v33h-188l-27 -27v-50l25 -25h118zM232 602l89 67v28l-12 12h-38l-12 -12v-39h-103v68l67 67h134l67 -67v-86l-75 -56v-40h-117v58z" />
    <glyph glyph-name="uni1EA4" unicode="&#x1ea4;" horiz-adv-x="646" 
d="M261 700h124l256 -700h-138l-57 155h-246l-57 -155h-138zM416 267l-93 266h-2l-90 -266h185zM493 1024h125l-86 -139h-102zM270 907h106l142 -161h-127l-65 75h-6l-65 -75h-127z" />
    <glyph glyph-name="uni1EA5" unicode="&#x1ea5;" horiz-adv-x="575" 
d="M45 92v114l92 92h253v63l-31 31h-150l-30 -31v-28h-130v57l107 108h257l107 -108v-390h-119v71l-74 -71h-190zM318 102l72 69v33h-188l-27 -27v-50l25 -25h118zM460 822h125l-86 -139h-102zM237 705h106l142 -161h-127l-65 75h-6l-65 -75h-127z" />
    <glyph glyph-name="uni1EA6" unicode="&#x1ea6;" horiz-adv-x="646" 
d="M261 700h124l256 -700h-138l-57 155h-246l-57 -155h-138zM416 267l-93 266h-2l-90 -266h185zM370 1024h125l63 -139h-102zM270 907h106l142 -161h-127l-65 75h-6l-65 -75h-127z" />
    <glyph glyph-name="uni1EA7" unicode="&#x1ea7;" horiz-adv-x="575" 
d="M45 92v114l92 92h253v63l-31 31h-150l-30 -31v-28h-130v57l107 108h257l107 -108v-390h-119v71l-74 -71h-190zM318 102l72 69v33h-188l-27 -27v-50l25 -25h118zM337 822h125l63 -139h-102zM237 705h106l142 -161h-127l-65 75h-6l-65 -75h-127z" />
    <glyph glyph-name="uni1EA8" unicode="&#x1ea8;" horiz-adv-x="646" 
d="M261 700h124l256 -700h-138l-57 155h-246l-57 -155h-138zM416 267l-93 266h-2l-90 -266h185zM459 894l73 57v23l-10 10h-28l-10 -10v-30h-88v54l56 56h112l56 -56v-71l-62 -46v-24h-99v37zM270 907h106l142 -161h-127l-65 75h-6l-65 -75h-127z" />
    <glyph glyph-name="uni1EA9" unicode="&#x1ea9;" horiz-adv-x="575" 
d="M45 92v114l92 92h253v63l-31 31h-150l-30 -31v-28h-130v57l107 108h257l107 -108v-390h-119v71l-74 -71h-190zM318 102l72 69v33h-188l-27 -27v-50l25 -25h118zM426 692l73 57v23l-10 10h-28l-10 -10v-30h-88v54l56 56h112l56 -56v-71l-62 -46v-24h-99v37zM237 705h106
l142 -161h-127l-65 75h-6l-65 -75h-127z" />
    <glyph glyph-name="uni1EAA" unicode="&#x1eaa;" horiz-adv-x="646" 
d="M261 700h124l256 -700h-138l-57 155h-246l-57 -155h-138zM416 267l-93 266h-2l-90 -266h185zM283 993h-25l-13 -12v-32h-88v59l67 67h75l64 -50h26l12 12v32h88v-59l-67 -67h-75zM270 907h106l142 -161h-127l-65 75h-6l-65 -75h-127z" />
    <glyph glyph-name="uni1EAB" unicode="&#x1eab;" horiz-adv-x="575" 
d="M45 92v114l92 92h253v63l-31 31h-150l-30 -31v-28h-130v57l107 108h257l107 -108v-390h-119v71l-74 -71h-190zM318 102l72 69v33h-188l-27 -27v-50l25 -25h118zM250 791h-25l-13 -12v-32h-88v59l67 67h75l64 -50h26l12 12v32h88v-59l-67 -67h-75zM237 705h106l142 -161
h-127l-65 75h-6l-65 -75h-127z" />
    <glyph glyph-name="uni1EAC" unicode="&#x1eac;" horiz-adv-x="646" 
d="M261 700h124l256 -700h-138l-57 155h-246l-57 -155h-138zM416 267l-93 266h-2l-90 -266h185zM270 907h106l142 -161h-127l-65 75h-6l-65 -75h-127zM247 -150v62l41 41h70l41 -41v-62l-41 -41h-70z" />
    <glyph glyph-name="uni1EAD" unicode="&#x1ead;" horiz-adv-x="575" 
d="M45 92v114l92 92h253v63l-31 31h-150l-30 -31v-28h-130v57l107 108h257l107 -108v-390h-119v71l-74 -71h-190zM318 102l72 69v33h-188l-27 -27v-50l25 -25h118zM237 705h106l142 -161h-127l-65 75h-6l-65 -75h-127zM214 -150v62l41 41h70l41 -41v-62l-41 -41h-70z" />
    <glyph glyph-name="uni1EAE" unicode="&#x1eae;" horiz-adv-x="646" 
d="M261 700h124l256 -700h-138l-57 155h-246l-57 -155h-138zM416 267l-93 266h-2l-90 -266h185zM331 1080h125l-86 -139h-102zM155 829v76h112v-48l27 -27h58l27 27v48h112v-76l-83 -83h-170z" />
    <glyph glyph-name="uni1EAF" unicode="&#x1eaf;" horiz-adv-x="575" 
d="M45 92v114l92 92h253v63l-31 31h-150l-30 -31v-28h-130v57l107 108h257l107 -108v-390h-119v71l-74 -71h-190zM318 102l72 69v33h-188l-27 -27v-50l25 -25h118zM298 878h125l-86 -139h-102zM122 627v76h112v-48l27 -27h58l27 27v48h112v-76l-83 -83h-170z" />
    <glyph glyph-name="uni1EB0" unicode="&#x1eb0;" horiz-adv-x="646" 
d="M261 700h124l256 -700h-138l-57 155h-246l-57 -155h-138zM416 267l-93 266h-2l-90 -266h185zM185 1080h125l63 -139h-102zM155 829v76h112v-48l27 -27h58l27 27v48h112v-76l-83 -83h-170z" />
    <glyph glyph-name="uni1EB1" unicode="&#x1eb1;" horiz-adv-x="575" 
d="M45 92v114l92 92h253v63l-31 31h-150l-30 -31v-28h-130v57l107 108h257l107 -108v-390h-119v71l-74 -71h-190zM318 102l72 69v33h-188l-27 -27v-50l25 -25h118zM152 878h125l63 -139h-102zM122 627v76h112v-48l27 -27h58l27 27v48h112v-76l-83 -83h-170z" />
    <glyph glyph-name="uni1EB2" unicode="&#x1eb2;" horiz-adv-x="646" 
d="M261 700h124l256 -700h-138l-57 155h-246l-57 -155h-138zM416 267l-93 266h-2l-90 -266h185zM274 976l73 55v21l-10 10h-28l-10 -10v-28h-88v50l56 56h112l56 -56v-67l-62 -44v-22h-99v35zM155 829v76h112v-48l27 -27h58l27 27v48h112v-76l-83 -83h-170z" />
    <glyph glyph-name="uni1EB3" unicode="&#x1eb3;" horiz-adv-x="575" 
d="M45 92v114l92 92h253v63l-31 31h-150l-30 -31v-28h-130v57l107 108h257l107 -108v-390h-119v71l-74 -71h-190zM318 102l72 69v33h-188l-27 -27v-50l25 -25h118zM241 774l73 55v21l-10 10h-28l-10 -10v-28h-88v50l56 56h112l56 -56v-67l-62 -44v-22h-99v35zM122 627v76
h112v-48l27 -27h58l27 27v48h112v-76l-83 -83h-170z" />
    <glyph glyph-name="uni1EB4" unicode="&#x1eb4;" horiz-adv-x="646" 
d="M261 700h124l256 -700h-138l-57 155h-246l-57 -155h-138zM416 267l-93 266h-2l-90 -266h185zM283 991h-25l-13 -12v-32h-88v59l67 67h75l64 -50h26l12 12v32h88v-59l-67 -67h-75zM155 829v76h112v-48l27 -27h58l27 27v48h112v-76l-83 -83h-170z" />
    <glyph glyph-name="uni1EB5" unicode="&#x1eb5;" horiz-adv-x="575" 
d="M45 92v114l92 92h253v63l-31 31h-150l-30 -31v-28h-130v57l107 108h257l107 -108v-390h-119v71l-74 -71h-190zM318 102l72 69v33h-188l-27 -27v-50l25 -25h118zM250 789h-25l-13 -12v-32h-88v59l67 67h75l64 -50h26l12 12v32h88v-59l-67 -67h-75zM122 627v76h112v-48
l27 -27h58l27 27v48h112v-76l-83 -83h-170z" />
    <glyph glyph-name="uni1EB6" unicode="&#x1eb6;" horiz-adv-x="646" 
d="M261 700h124l256 -700h-138l-57 155h-246l-57 -155h-138zM416 267l-93 266h-2l-90 -266h185zM155 829v76h112v-48l27 -27h58l27 27v48h112v-76l-83 -83h-170zM247 -150v62l41 41h70l41 -41v-62l-41 -41h-70z" />
    <glyph glyph-name="uni1EB7" unicode="&#x1eb7;" horiz-adv-x="575" 
d="M45 92v114l92 92h253v63l-31 31h-150l-30 -31v-28h-130v57l107 108h257l107 -108v-390h-119v71l-74 -71h-190zM318 102l72 69v33h-188l-27 -27v-50l25 -25h118zM122 627v76h112v-48l27 -27h58l27 27v48h112v-76l-83 -83h-170zM214 -150v62l41 41h70l41 -41v-62l-41 -41
h-70z" />
    <glyph glyph-name="uni1EB8" unicode="&#x1eb8;" horiz-adv-x="606" 
d="M65 700h506v-115h-370v-177h341v-113h-341v-180h370v-115h-506v700zM252 -150v62l41 41h70l41 -41v-62l-41 -41h-70z" />
    <glyph glyph-name="uni1EB9" unicode="&#x1eb9;" horiz-adv-x="583" 
d="M50 102v292l103 104h281l104 -104v-189h-356v-64l32 -33h163l30 31v26h130v-65l-99 -100h-287zM406 297v58l-34 35h-156l-34 -35v-58h224zM219 -150v62l41 41h70l41 -41v-62l-41 -41h-70z" />
    <glyph glyph-name="uni1EBA" unicode="&#x1eba;" horiz-adv-x="606" 
d="M65 700h506v-115h-370v-177h341v-113h-341v-180h370v-115h-506v700zM266 804l89 67v28l-12 12h-38l-12 -12v-39h-103v68l67 67h134l67 -67v-86l-75 -56v-40h-117v58z" />
    <glyph glyph-name="uni1EBB" unicode="&#x1ebb;" horiz-adv-x="583" 
d="M50 102v292l103 104h281l104 -104v-189h-356v-64l32 -33h163l30 31v26h130v-65l-99 -100h-287zM406 297v58l-34 35h-156l-34 -35v-58h224zM237 602l89 67v28l-12 12h-38l-12 -12v-39h-103v68l67 67h134l67 -67v-86l-75 -56v-40h-117v58z" />
    <glyph glyph-name="uni1EBC" unicode="&#x1ebc;" horiz-adv-x="606" 
d="M65 700h506v-115h-370v-177h341v-113h-341v-180h370v-115h-506v700zM281 808h-22l-13 -12v-33l-96 -1v71l69 69h84l64 -52h23l12 12v34h96v-71l-69 -69h-84z" />
    <glyph glyph-name="uni1EBD" unicode="&#x1ebd;" horiz-adv-x="583" 
d="M50 102v292l103 104h281l104 -104v-189h-356v-64l32 -33h163l30 31v26h130v-65l-99 -100h-287zM406 297v58l-34 35h-156l-34 -35v-58h224zM252 606h-22l-13 -12v-33l-96 -1v71l69 69h84l64 -52h23l12 12v34h96v-71l-69 -69h-84z" />
    <glyph glyph-name="uni1EBE" unicode="&#x1ebe;" horiz-adv-x="606" 
d="M65 700h506v-115h-370v-177h341v-113h-341v-180h370v-115h-506v700zM494 1024h125l-86 -139h-102zM271 907h106l142 -161h-127l-65 75h-6l-65 -75h-127z" />
    <glyph glyph-name="uni1EBF" unicode="&#x1ebf;" horiz-adv-x="583" 
d="M50 102v292l103 104h281l104 -104v-189h-356v-64l32 -33h163l30 31v26h130v-65l-99 -100h-287zM406 297v58l-34 35h-156l-34 -35v-58h224zM465 822h125l-86 -139h-102zM242 705h106l142 -161h-127l-65 75h-6l-65 -75h-127z" />
    <glyph glyph-name="uni1EC0" unicode="&#x1ec0;" horiz-adv-x="606" 
d="M65 700h506v-115h-370v-177h341v-113h-341v-180h370v-115h-506v700zM371 1024h125l63 -139h-102zM271 907h106l142 -161h-127l-65 75h-6l-65 -75h-127z" />
    <glyph glyph-name="uni1EC1" unicode="&#x1ec1;" horiz-adv-x="583" 
d="M50 102v292l103 104h281l104 -104v-189h-356v-64l32 -33h163l30 31v26h130v-65l-99 -100h-287zM406 297v58l-34 35h-156l-34 -35v-58h224zM342 822h125l63 -139h-102zM242 705h106l142 -161h-127l-65 75h-6l-65 -75h-127z" />
    <glyph glyph-name="uni1EC2" unicode="&#x1ec2;" horiz-adv-x="606" 
d="M65 700h506v-115h-370v-177h341v-113h-341v-180h370v-115h-506v700zM460 894l73 57v23l-10 10h-28l-10 -10v-30h-88v54l56 56h112l56 -56v-71l-62 -46v-24h-99v37zM271 907h106l142 -161h-127l-65 75h-6l-65 -75h-127z" />
    <glyph glyph-name="uni1EC3" unicode="&#x1ec3;" horiz-adv-x="583" 
d="M50 102v292l103 104h281l104 -104v-189h-356v-64l32 -33h163l30 31v26h130v-65l-99 -100h-287zM406 297v58l-34 35h-156l-34 -35v-58h224zM431 692l73 57v23l-10 10h-28l-10 -10v-30h-88v54l56 56h112l56 -56v-71l-62 -46v-24h-99v37zM242 705h106l142 -161h-127l-65 75
h-6l-65 -75h-127z" />
    <glyph glyph-name="uni1EC4" unicode="&#x1ec4;" horiz-adv-x="606" 
d="M65 700h506v-115h-370v-177h341v-113h-341v-180h370v-115h-506v700zM284 993h-25l-13 -12v-32h-88v59l67 67h75l64 -50h26l12 12v32h88v-59l-67 -67h-75zM271 907h106l142 -161h-127l-65 75h-6l-65 -75h-127z" />
    <glyph glyph-name="uni1EC5" unicode="&#x1ec5;" horiz-adv-x="583" 
d="M50 102v292l103 104h281l104 -104v-189h-356v-64l32 -33h163l30 31v26h130v-65l-99 -100h-287zM406 297v58l-34 35h-156l-34 -35v-58h224zM255 791h-25l-13 -12v-32h-88v59l67 67h75l64 -50h26l12 12v32h88v-59l-67 -67h-75zM242 705h106l142 -161h-127l-65 75h-6
l-65 -75h-127z" />
    <glyph glyph-name="uni1EC6" unicode="&#x1ec6;" horiz-adv-x="606" 
d="M65 700h506v-115h-370v-177h341v-113h-341v-180h370v-115h-506v700zM271 907h106l142 -161h-127l-65 75h-6l-65 -75h-127zM252 -150v62l41 41h70l41 -41v-62l-41 -41h-70z" />
    <glyph glyph-name="uni1EC7" unicode="&#x1ec7;" horiz-adv-x="583" 
d="M50 102v292l103 104h281l104 -104v-189h-356v-64l32 -33h163l30 31v26h130v-65l-99 -100h-287zM406 297v58l-34 35h-156l-34 -35v-58h224zM242 705h106l142 -161h-127l-65 75h-6l-65 -75h-127zM219 -150v62l41 41h70l41 -41v-62l-41 -41h-70z" />
    <glyph glyph-name="uni1EC8" unicode="&#x1ec8;" horiz-adv-x="276" 
d="M70 700h136v-700h-136v700zM80 804l89 67v28l-12 12h-38l-12 -12v-39h-103v68l67 67h134l67 -67v-86l-75 -56v-40h-117v58z" />
    <glyph glyph-name="uni1EC9" unicode="&#x1ec9;" horiz-adv-x="272" 
d="M70 498h132v-498h-132v498zM78 602l89 67v28l-12 12h-38l-12 -12v-39h-103v68l67 67h134l67 -67v-86l-75 -56v-40h-117v58z" />
    <glyph glyph-name="uni1ECA" unicode="&#x1eca;" horiz-adv-x="276" 
d="M70 700h136v-700h-136v700zM62 -150v62l41 41h70l41 -41v-62l-41 -41h-70z" />
    <glyph glyph-name="uni1ECB" unicode="&#x1ecb;" horiz-adv-x="272" 
d="M55 602v64l46 46h70l46 -46v-64l-46 -46h-70zM70 498h132v-498h-132v498zM59 -150v62l41 41h70l41 -41v-62l-41 -41h-70z" />
    <glyph glyph-name="uni1ECC" unicode="&#x1ecc;" horiz-adv-x="700" 
d="M55 115v470l115 115h360l115 -115v-470l-115 -115h-360zM458 116l51 51v366l-51 51h-216l-51 -51v-366l51 -51h216zM274 -150v62l41 41h70l41 -41v-62l-41 -41h-70z" />
    <glyph glyph-name="uni1ECD" unicode="&#x1ecd;" horiz-adv-x="592" 
d="M50 104v290l103 104h286l103 -104v-290l-103 -104h-286zM375 110l35 35v208l-35 35h-158l-35 -35v-208l35 -35h158zM221 -150v62l41 41h70l41 -41v-62l-41 -41h-70z" />
    <glyph glyph-name="uni1ECE" unicode="&#x1ece;" horiz-adv-x="700" 
d="M55 115v470l115 115h360l115 -115v-470l-115 -115h-360zM458 116l51 51v366l-51 51h-216l-51 -51v-366l51 -51h216zM292 804l89 67v28l-12 12h-38l-12 -12v-39h-103v68l67 67h134l67 -67v-86l-75 -56v-40h-117v58z" />
    <glyph glyph-name="uni1ECF" unicode="&#x1ecf;" horiz-adv-x="592" 
d="M50 104v290l103 104h286l103 -104v-290l-103 -104h-286zM375 110l35 35v208l-35 35h-158l-35 -35v-208l35 -35h158zM239 602l89 67v28l-12 12h-38l-12 -12v-39h-103v68l67 67h134l67 -67v-86l-75 -56v-40h-117v58z" />
    <glyph glyph-name="uni1ED0" unicode="&#x1ed0;" horiz-adv-x="700" 
d="M55 115v470l115 115h360l115 -115v-470l-115 -115h-360zM458 116l51 51v366l-51 51h-216l-51 -51v-366l51 -51h216zM520 1024h125l-86 -139h-102zM297 907h106l142 -161h-127l-65 75h-6l-65 -75h-127z" />
    <glyph glyph-name="uni1ED1" unicode="&#x1ed1;" horiz-adv-x="592" 
d="M50 104v290l103 104h286l103 -104v-290l-103 -104h-286zM375 110l35 35v208l-35 35h-158l-35 -35v-208l35 -35h158zM467 822h125l-86 -139h-102zM244 705h106l142 -161h-127l-65 75h-6l-65 -75h-127z" />
    <glyph glyph-name="uni1ED2" unicode="&#x1ed2;" horiz-adv-x="700" 
d="M55 115v470l115 115h360l115 -115v-470l-115 -115h-360zM458 116l51 51v366l-51 51h-216l-51 -51v-366l51 -51h216zM397 1024h125l63 -139h-102zM297 907h106l142 -161h-127l-65 75h-6l-65 -75h-127z" />
    <glyph glyph-name="uni1ED3" unicode="&#x1ed3;" horiz-adv-x="592" 
d="M50 104v290l103 104h286l103 -104v-290l-103 -104h-286zM375 110l35 35v208l-35 35h-158l-35 -35v-208l35 -35h158zM344 822h125l63 -139h-102zM244 705h106l142 -161h-127l-65 75h-6l-65 -75h-127z" />
    <glyph glyph-name="uni1ED4" unicode="&#x1ed4;" horiz-adv-x="700" 
d="M55 115v470l115 115h360l115 -115v-470l-115 -115h-360zM458 116l51 51v366l-51 51h-216l-51 -51v-366l51 -51h216zM486 894l73 57v23l-10 10h-28l-10 -10v-30h-88v54l56 56h112l56 -56v-71l-62 -46v-24h-99v37zM297 907h106l142 -161h-127l-65 75h-6l-65 -75h-127z" />
    <glyph glyph-name="uni1ED5" unicode="&#x1ed5;" horiz-adv-x="592" 
d="M50 104v290l103 104h286l103 -104v-290l-103 -104h-286zM375 110l35 35v208l-35 35h-158l-35 -35v-208l35 -35h158zM433 692l73 57v23l-10 10h-28l-10 -10v-30h-88v54l56 56h112l56 -56v-71l-62 -46v-24h-99v37zM244 705h106l142 -161h-127l-65 75h-6l-65 -75h-127z" />
    <glyph glyph-name="uni1ED6" unicode="&#x1ed6;" horiz-adv-x="700" 
d="M55 115v470l115 115h360l115 -115v-470l-115 -115h-360zM458 116l51 51v366l-51 51h-216l-51 -51v-366l51 -51h216zM310 993h-25l-13 -12v-32h-88v59l67 67h75l64 -50h26l12 12v32h88v-59l-67 -67h-75zM297 907h106l142 -161h-127l-65 75h-6l-65 -75h-127z" />
    <glyph glyph-name="uni1ED7" unicode="&#x1ed7;" horiz-adv-x="592" 
d="M50 104v290l103 104h286l103 -104v-290l-103 -104h-286zM375 110l35 35v208l-35 35h-158l-35 -35v-208l35 -35h158zM257 791h-25l-13 -12v-32h-88v59l67 67h75l64 -50h26l12 12v32h88v-59l-67 -67h-75zM244 705h106l142 -161h-127l-65 75h-6l-65 -75h-127z" />
    <glyph glyph-name="uni1ED8" unicode="&#x1ed8;" horiz-adv-x="700" 
d="M55 115v470l115 115h360l115 -115v-470l-115 -115h-360zM458 116l51 51v366l-51 51h-216l-51 -51v-366l51 -51h216zM297 907h106l142 -161h-127l-65 75h-6l-65 -75h-127zM274 -150v62l41 41h70l41 -41v-62l-41 -41h-70z" />
    <glyph glyph-name="uni1ED9" unicode="&#x1ed9;" horiz-adv-x="592" 
d="M50 104v290l103 104h286l103 -104v-290l-103 -104h-286zM375 110l35 35v208l-35 35h-158l-35 -35v-208l35 -35h158zM244 705h106l142 -161h-127l-65 75h-6l-65 -75h-127zM221 -150v62l41 41h70l41 -41v-62l-41 -41h-70z" />
    <glyph glyph-name="uni1EDA" unicode="&#x1eda;" horiz-adv-x="777" 
d="M800 710v-111l-96 -96h-59v-388l-115 -115h-360l-115 115v470l115 115h360l101 -101h22l35 35v76h112zM509 533l-51 51h-216l-51 -51v-366l51 -51h216l51 51v366zM366 915h139l-99 -169h-116z" />
    <glyph glyph-name="uni1EDB" unicode="&#x1edb;" horiz-adv-x="675" 
d="M717 508v-111l-96 -96h-79v-197l-103 -104h-286l-103 104v290l103 104h286l100 -101h31l35 35v76h112zM410 353l-35 35h-158l-35 -35v-208l35 -35h158l35 35v208zM313 713h139l-99 -169h-116z" />
    <glyph glyph-name="uni1EDC" unicode="&#x1edc;" horiz-adv-x="777" 
d="M800 710v-111l-96 -96h-59v-388l-115 -115h-360l-115 115v470l115 115h360l101 -101h22l35 35v76h112zM509 533l-51 51h-216l-51 -51v-366l51 -51h216l51 51v366zM188 915h139l76 -169h-116z" />
    <glyph glyph-name="uni1EDD" unicode="&#x1edd;" horiz-adv-x="675" 
d="M717 508v-111l-96 -96h-79v-197l-103 -104h-286l-103 104v290l103 104h286l100 -101h31l35 35v76h112zM410 353l-35 35h-158l-35 -35v-208l35 -35h158l35 35v208zM135 713h139l76 -169h-116z" />
    <glyph glyph-name="uni1EDE" unicode="&#x1ede;" horiz-adv-x="777" 
d="M800 710v-111l-96 -96h-59v-388l-115 -115h-360l-115 115v470l115 115h360l101 -101h22l35 35v76h112zM509 533l-51 51h-216l-51 -51v-366l51 -51h216l51 51v366zM292 804l89 67v28l-12 12h-38l-12 -12v-39h-103v68l67 67h134l67 -67v-86l-75 -56v-40h-117v58z" />
    <glyph glyph-name="uni1EDF" unicode="&#x1edf;" horiz-adv-x="675" 
d="M717 508v-111l-96 -96h-79v-197l-103 -104h-286l-103 104v290l103 104h286l100 -101h31l35 35v76h112zM410 353l-35 35h-158l-35 -35v-208l35 -35h158l35 35v208zM239 602l89 67v28l-12 12h-38l-12 -12v-39h-103v68l67 67h134l67 -67v-86l-75 -56v-40h-117v58z" />
    <glyph glyph-name="uni1EE0" unicode="&#x1ee0;" horiz-adv-x="777" 
d="M800 710v-111l-96 -96h-59v-388l-115 -115h-360l-115 115v470l115 115h360l101 -101h22l35 35v76h112zM509 533l-51 51h-216l-51 -51v-366l51 -51h216l51 51v366zM307 808h-22l-13 -12v-33l-96 -1v71l69 69h84l64 -52h23l12 12v34h96v-71l-69 -69h-84z" />
    <glyph glyph-name="uni1EE1" unicode="&#x1ee1;" horiz-adv-x="675" 
d="M717 508v-111l-96 -96h-79v-197l-103 -104h-286l-103 104v290l103 104h286l100 -101h31l35 35v76h112zM410 353l-35 35h-158l-35 -35v-208l35 -35h158l35 35v208zM254 606h-22l-13 -12v-33l-96 -1v71l69 69h84l64 -52h23l12 12v34h96v-71l-69 -69h-84z" />
    <glyph glyph-name="uni1EE2" unicode="&#x1ee2;" horiz-adv-x="777" 
d="M800 710v-111l-96 -96h-59v-388l-115 -115h-360l-115 115v470l115 115h360l101 -101h22l35 35v76h112zM509 533l-51 51h-216l-51 -51v-366l51 -51h216l51 51v366zM274 -150v62l41 41h70l41 -41v-62l-41 -41h-70z" />
    <glyph glyph-name="uni1EE3" unicode="&#x1ee3;" horiz-adv-x="675" 
d="M717 508v-111l-96 -96h-79v-197l-103 -104h-286l-103 104v290l103 104h286l100 -101h31l35 35v76h112zM410 353l-35 35h-158l-35 -35v-208l35 -35h158l35 35v208zM221 -150v62l41 41h70l41 -41v-62l-41 -41h-70z" />
    <glyph glyph-name="uni1EE4" unicode="&#x1ee4;" horiz-adv-x="700" 
d="M65 120v580h136v-533l51 -51h196l51 51v533h136v-580l-120 -120h-330zM276 -150v62l41 41h70l41 -41v-62l-41 -41h-70z" />
    <glyph glyph-name="uni1EE5" unicode="&#x1ee5;" horiz-adv-x="591" 
d="M55 105v393h132v-352l34 -34h80l98 98v288h132v-498h-122v85l-86 -85h-163zM219 -150v62l41 41h70l41 -41v-62l-41 -41h-70z" />
    <glyph glyph-name="uni1EE6" unicode="&#x1ee6;" horiz-adv-x="700" 
d="M65 120v580h136v-533l51 -51h196l51 51v533h136v-580l-120 -120h-330zM292 804l89 67v28l-12 12h-38l-12 -12v-39h-103v68l67 67h134l67 -67v-86l-75 -56v-40h-117v58z" />
    <glyph glyph-name="uni1EE7" unicode="&#x1ee7;" horiz-adv-x="591" 
d="M55 105v393h132v-352l34 -34h80l98 98v288h132v-498h-122v85l-86 -85h-163zM235 602l89 67v28l-12 12h-38l-12 -12v-39h-103v68l67 67h134l67 -67v-86l-75 -56v-40h-117v58z" />
    <glyph glyph-name="uni1EE8" unicode="&#x1ee8;" horiz-adv-x="791" 
d="M810 710v-111l-96 -96h-79v-383l-120 -120h-330l-120 120v580h136v-533l51 -51h196l51 51v533h136v-101h28l35 35v76h112zM366 915h139l-99 -169h-116z" />
    <glyph glyph-name="uni1EE9" unicode="&#x1ee9;" horiz-adv-x="680" 
d="M706 508v-111l-96 -96h-79v-301h-122v85l-86 -85h-163l-105 105v393h132v-352l34 -34h80l98 98v288h132v-101h28l35 35v76h112zM309 713h139l-99 -169h-116z" />
    <glyph glyph-name="uni1EEA" unicode="&#x1eea;" horiz-adv-x="791" 
d="M810 710v-111l-96 -96h-79v-383l-120 -120h-330l-120 120v580h136v-533l51 -51h196l51 51v533h136v-101h28l35 35v76h112zM198 915h139l76 -169h-116z" />
    <glyph glyph-name="uni1EEB" unicode="&#x1eeb;" horiz-adv-x="680" 
d="M706 508v-111l-96 -96h-79v-301h-122v85l-86 -85h-163l-105 105v393h132v-352l34 -34h80l98 98v288h132v-101h28l35 35v76h112zM129 713h139l76 -169h-116z" />
    <glyph glyph-name="uni1EEC" unicode="&#x1eec;" horiz-adv-x="791" 
d="M810 710v-111l-96 -96h-79v-383l-120 -120h-330l-120 120v580h136v-533l51 -51h196l51 51v533h136v-101h28l35 35v76h112zM292 804l89 67v28l-12 12h-38l-12 -12v-39h-103v68l67 67h134l67 -67v-86l-75 -56v-40h-117v58z" />
    <glyph glyph-name="uni1EED" unicode="&#x1eed;" horiz-adv-x="680" 
d="M706 508v-111l-96 -96h-79v-301h-122v85l-86 -85h-163l-105 105v393h132v-352l34 -34h80l98 98v288h132v-101h28l35 35v76h112zM235 602l89 67v28l-12 12h-38l-12 -12v-39h-103v68l67 67h134l67 -67v-86l-75 -56v-40h-117v58z" />
    <glyph glyph-name="uni1EEE" unicode="&#x1eee;" horiz-adv-x="791" 
d="M810 710v-111l-96 -96h-79v-383l-120 -120h-330l-120 120v580h136v-533l51 -51h196l51 51v533h136v-101h28l35 35v76h112zM307 808h-22l-13 -12v-33l-96 -1v71l69 69h84l64 -52h23l12 12v34h96v-71l-69 -69h-84z" />
    <glyph glyph-name="uni1EEF" unicode="&#x1eef;" horiz-adv-x="680" 
d="M706 508v-111l-96 -96h-79v-301h-122v85l-86 -85h-163l-105 105v393h132v-352l34 -34h80l98 98v288h132v-101h28l35 35v76h112zM250 606h-22l-13 -12v-33l-96 -1v71l69 69h84l64 -52h23l12 12v34h96v-71l-69 -69h-84z" />
    <glyph glyph-name="uni1EF0" unicode="&#x1ef0;" horiz-adv-x="791" 
d="M810 710v-111l-96 -96h-79v-383l-120 -120h-330l-120 120v580h136v-533l51 -51h196l51 51v533h136v-101h28l35 35v76h112zM276 -150v62l41 41h70l41 -41v-62l-41 -41h-70z" />
    <glyph glyph-name="uni1EF1" unicode="&#x1ef1;" horiz-adv-x="680" 
d="M706 508v-111l-96 -96h-79v-301h-122v85l-86 -85h-163l-105 105v393h132v-352l34 -34h80l98 98v288h132v-101h28l35 35v76h112zM219 -150v62l41 41h70l41 -41v-62l-41 -41h-70z" />
    <glyph glyph-name="Ygrave" unicode="&#x1ef2;" horiz-adv-x="634" 
d="M249 286l-249 414h149l167 -287h2l167 287h149l-249 -414v-286h-136v286zM155 915h139l76 -169h-116z" />
    <glyph glyph-name="ygrave" unicode="&#x1ef3;" horiz-adv-x="593" 
d="M533 498v-612l-108 -107h-262l-93 92v68h132v-30l19 -20h146l34 35v150l-74 -74h-165l-107 108v390h132v-351l34 -35h87l93 99v287h132zM129 713h139l76 -169h-116z" />
    <glyph glyph-name="uni1EF4" unicode="&#x1ef4;" horiz-adv-x="634" 
d="M249 286l-249 414h149l167 -287h2l167 287h149l-249 -414v-286h-136v286zM241 -150v62l41 41h70l41 -41v-62l-41 -41h-70z" />
    <glyph glyph-name="uni1EF5" unicode="&#x1ef5;" horiz-adv-x="593" 
d="M533 498v-612l-108 -107h-262l-93 92v68h132v-30l19 -20h146l34 35v150l-74 -74h-165l-107 108v390h132v-351l34 -35h87l93 99v287h132zM224 -371v62l41 41h70l41 -41v-62l-41 -41h-70z" />
    <glyph glyph-name="uni1EF6" unicode="&#x1ef6;" horiz-adv-x="634" 
d="M249 286l-249 414h149l167 -287h2l167 287h149l-249 -414v-286h-136v286zM259 804l89 67v28l-12 12h-38l-12 -12v-39h-103v68l67 67h134l67 -67v-86l-75 -56v-40h-117v58z" />
    <glyph glyph-name="uni1EF7" unicode="&#x1ef7;" horiz-adv-x="593" 
d="M533 498v-612l-108 -107h-262l-93 92v68h132v-30l19 -20h146l34 35v150l-74 -74h-165l-107 108v390h132v-351l34 -35h87l93 99v287h132zM237 602l89 67v28l-12 12h-38l-12 -12v-39h-103v68l67 67h134l67 -67v-86l-75 -56v-40h-117v58z" />
    <glyph glyph-name="uni1EF8" unicode="&#x1ef8;" horiz-adv-x="634" 
d="M249 286l-249 414h149l167 -287h2l167 287h149l-249 -414v-286h-136v286zM274 808h-22l-13 -12v-33l-96 -1v71l69 69h84l64 -52h23l12 12v34h96v-71l-69 -69h-84z" />
    <glyph glyph-name="uni1EF9" unicode="&#x1ef9;" horiz-adv-x="593" 
d="M533 498v-612l-108 -107h-262l-93 92v68h132v-30l19 -20h146l34 35v150l-74 -74h-165l-107 108v390h132v-351l34 -35h87l93 99v287h132zM252 606h-22l-13 -12v-33l-96 -1v71l69 69h84l64 -52h23l12 12v34h96v-71l-69 -69h-84z" />
    <glyph glyph-name="uni2007" unicode="&#x2007;" horiz-adv-x="652" 
 />
    <glyph glyph-name="uni2010" unicode="&#x2010;" horiz-adv-x="784" 
d="M40 314h704v-114h-704v114z" />
    <glyph glyph-name="figuredash" unicode="&#x2012;" horiz-adv-x="622" 
d="M40 314h542v-114h-542v114z" />
    <glyph glyph-name="endash" unicode="&#x2013;" horiz-adv-x="637" 
d="M40 314h557v-114h-557v114z" />
    <glyph glyph-name="emdash" unicode="&#x2014;" horiz-adv-x="751" 
d="M40 314h671v-114h-671v114z" />
    <glyph glyph-name="uni2015" unicode="&#x2015;" horiz-adv-x="932" 
d="M40 314h852v-114h-852v114z" />
    <glyph glyph-name="quoteleft" unicode="&#x2018;" horiz-adv-x="234" 
d="M132 566h22l43 -43v-64l-43 -43h-75l-42 44v106l57 134h78z" />
    <glyph glyph-name="quoteright" unicode="&#x2019;" horiz-adv-x="234" 
d="M103 550h-22l-43 43v64l43 43h75l42 -44v-106l-57 -134h-78z" />
    <glyph glyph-name="quotesinglbase" unicode="&#x201a;" horiz-adv-x="234" 
d="M103 0h-22l-43 43v64l43 43h75l42 -44v-106l-57 -134h-78z" />
    <glyph glyph-name="quotedblleft" unicode="&#x201c;" horiz-adv-x="441" 
d="M132 566h22l43 -43v-64l-43 -43h-75l-42 44v106l57 134h78zM339 566h22l43 -43v-64l-43 -43h-75l-42 44v106l57 134h78z" />
    <glyph glyph-name="quotedblright" unicode="&#x201d;" horiz-adv-x="441" 
d="M103 550h-22l-43 43v64l43 43h75l42 -44v-106l-57 -134h-78zM310 550h-22l-43 43v64l43 43h75l42 -44v-106l-57 -134h-78z" />
    <glyph glyph-name="quotedblbase" unicode="&#x201e;" horiz-adv-x="441" 
d="M103 0h-22l-43 43v64l43 43h75l42 -44v-106l-57 -134h-78zM310 0h-22l-43 43v64l43 43h75l42 -44v-106l-57 -134h-78z" />
    <glyph glyph-name="dagger" unicode="&#x2020;" horiz-adv-x="536" 
d="M201 386h-161v112h161v175h134v-175h161v-112h-161v-486h-134v486z" />
    <glyph glyph-name="daggerdbl" unicode="&#x2021;" horiz-adv-x="536" 
d="M335 386v-199h161v-112h-161v-175h-134v175h-161v112h161v199h-161v112h161v175h134v-175h161v-112h-161z" />
    <glyph glyph-name="bullet" unicode="&#x2022;" horiz-adv-x="304" 
d="M40 242v97l61 63h102l61 -63v-97l-61 -63h-102z" />
    <glyph glyph-name="ellipsis" unicode="&#x2026;" horiz-adv-x="714" 
d="M40 43v64l43 43h73l42 -44v-62l-42 -44h-73zM278 43v64l43 43h73l42 -44v-62l-42 -44h-73zM516 43v64l43 43h73l42 -44v-62l-42 -44h-73z" />
    <glyph glyph-name="perthousand" unicode="&#x2030;" horiz-adv-x="1249" 
d="M40 412v208l80 80h174l80 -80v-208l-80 -80h-174zM561 700h136l-383 -700h-136zM236 432l22 22v124l-22 22h-58l-22 -22v-124l22 -22h58zM501 80v208l80 80h174l80 -80v-208l-80 -80h-174zM875 80v208l80 80h174l80 -80v-208l-80 -80h-174zM697 100l22 22v124l-22 22h-58
l-22 -22v-124l22 -22h58zM1071 100l22 22v124l-22 22h-58l-22 -22v-124l22 -22h58z" />
    <glyph glyph-name="minute" unicode="&#x2032;" horiz-adv-x="250" 
d="M86 700h134l-62 -228h-118z" />
    <glyph glyph-name="second" unicode="&#x2033;" horiz-adv-x="423" 
d="M86 700h134l-62 -228h-118zM259 700h134l-62 -228h-118z" />
    <glyph glyph-name="guilsinglleft" unicode="&#x2039;" horiz-adv-x="313" 
d="M20 225v88l253 193v-138l-129 -96v-6l129 -96v-138z" />
    <glyph glyph-name="guilsinglright" unicode="&#x203a;" horiz-adv-x="313" 
d="M40 170l129 96v6l-129 96v138l253 -193v-88l-253 -193v138z" />
    <glyph glyph-name="fraction" unicode="&#x2044;" horiz-adv-x="587" 
d="M562 700l-401 -700h-136l401 700h136z" />
    <glyph glyph-name="uni2070" unicode="&#x2070;" horiz-adv-x="456" 
d="M40 360v260l80 80h216l80 -80v-260l-80 -80h-216zM272 384l18 18v176l-18 18h-88l-18 -18v-175l18 -19h88z" />
    <glyph glyph-name="uni2074" unicode="&#x2074;" horiz-adv-x="416" 
d="M224 346h-209v102l190 252h145v-250h51v-104h-51v-66h-126v66zM236 444v135h-2l-93 -127v-8h95z" />
    <glyph glyph-name="uni2075" unicode="&#x2075;" horiz-adv-x="420" 
d="M35 358v65h124v-27l14 -14h82l14 14v50l-14 14h-214v240h346v-100h-224v-40h151l81 -81v-121l-78 -78h-204z" />
    <glyph glyph-name="uni2076" unicode="&#x2076;" horiz-adv-x="434" 
d="M40 358v262l80 80h202l79 -80v-54h-120v20l-14 14h-91l-14 -14v-64l30 20h134l78 -78v-106l-78 -78h-208zM266 380l14 14v42l-14 14h-77l-25 -21v-35l14 -14h88z" />
    <glyph glyph-name="uni2077" unicode="&#x2077;" horiz-adv-x="381" 
d="M216 590v4h-201v106h346v-96l-174 -324h-138z" />
    <glyph glyph-name="uni2078" unicode="&#x2078;" horiz-adv-x="443" 
d="M35 356v95l46 44l-40 43v86l76 76h210l75 -76v-86l-39 -43l45 -44v-95l-75 -76h-222zM266 538l14 14v37l-14 14h-88l-14 -14v-37l14 -14h88zM272 377l14 14v41l-14 14h-100l-14 -14v-41l14 -14h100z" />
    <glyph glyph-name="uni2079" unicode="&#x2079;" horiz-adv-x="434" 
d="M36 358v54h122v-18l14 -14h86l14 14v57l-20 -16h-146l-76 76v109l80 80h204l80 -80v-262l-78 -78h-202zM252 527l18 16v43l-14 14h-88l-14 -14v-45l14 -14h84z" />
    <glyph glyph-name="uni207D" unicode="&#x207d;" horiz-adv-x="248" 
d="M40 286v397l77 78h121v-100h-52l-26 -26v-301l26 -26h52v-100h-121z" />
    <glyph glyph-name="uni207E" unicode="&#x207e;" horiz-adv-x="248" 
d="M10 208v100h52l26 26v301l-26 26h-52v100h121l77 -78v-397l-77 -78h-121z" />
    <glyph glyph-name="uni207F" unicode="&#x207f;" horiz-adv-x="434" 
d="M40 700h106v-52l54 52h108l86 -86v-263h-118v233l-16 16h-53l-49 -50v-199h-118v349z" />
    <glyph glyph-name="uni2080" unicode="&#x2080;" horiz-adv-x="456" 
d="M40 -70v260l80 80h216l80 -80v-260l-80 -80h-216zM272 -46l18 18v176l-18 18h-88l-18 -18v-175l18 -19h88z" />
    <glyph glyph-name="uni2081" unicode="&#x2081;" horiz-adv-x="292" 
d="M116 136l-96 -47v114l122 67h100v-420h-126v286z" />
    <glyph glyph-name="uni2082" unicode="&#x2082;" horiz-adv-x="398" 
d="M27 -53l223 173v32l-14 14h-73l-14 -14v-40h-124v78l80 80h191l80 -80v-107l-183 -131v-4h185v-98h-351v97z" />
    <glyph glyph-name="uni2083" unicode="&#x2083;" horiz-adv-x="431" 
d="M30 -72v63h124v-26l13 -14h84l14 14v41l-11 11h-117v88h117l11 12v38l-14 14h-79l-14 -14v-26h-124v63l78 78h201l78 -78v-100l-31 -31l31 -31v-102l-77 -78h-206z" />
    <glyph glyph-name="uni2084" unicode="&#x2084;" horiz-adv-x="416" 
d="M224 -84h-209v102l190 252h145v-250h51v-104h-51v-66h-126v66zM236 14v135h-2l-93 -127v-8h95z" />
    <glyph glyph-name="uni2085" unicode="&#x2085;" horiz-adv-x="420" 
d="M35 -72v65h124v-27l14 -14h82l14 14v50l-14 14h-214v240h346v-100h-224v-40h151l81 -81v-121l-78 -78h-204z" />
    <glyph glyph-name="uni2086" unicode="&#x2086;" horiz-adv-x="434" 
d="M40 -72v262l80 80h202l79 -80v-54h-120v20l-14 14h-91l-14 -14v-64l30 20h134l78 -78v-106l-78 -78h-208zM266 -50l14 14v42l-14 14h-77l-25 -21v-35l14 -14h88z" />
    <glyph glyph-name="uni2087" unicode="&#x2087;" horiz-adv-x="381" 
d="M216 160v4h-201v106h346v-96l-174 -324h-138z" />
    <glyph glyph-name="uni2088" unicode="&#x2088;" horiz-adv-x="443" 
d="M35 -74v95l46 44l-40 43v86l76 76h210l75 -76v-86l-39 -43l45 -44v-95l-75 -76h-222zM266 108l14 14v37l-14 14h-88l-14 -14v-37l14 -14h88zM272 -53l14 14v41l-14 14h-100l-14 -14v-41l14 -14h100z" />
    <glyph glyph-name="uni2089" unicode="&#x2089;" horiz-adv-x="434" 
d="M36 -72v54h122v-18l14 -14h86l14 14v57l-20 -16h-146l-76 76v109l80 80h204l80 -80v-262l-78 -78h-202zM252 97l18 16v43l-14 14h-88l-14 -14v-45l14 -14h84z" />
    <glyph glyph-name="uni208D" unicode="&#x208d;" horiz-adv-x="248" 
d="M40 -131v397l77 78h121v-100h-52l-26 -26v-301l26 -26h52v-100h-121z" />
    <glyph glyph-name="uni208E" unicode="&#x208e;" horiz-adv-x="248" 
d="M10 -209v100h52l26 26v301l-26 26h-52v100h121l77 -78v-397l-77 -78h-121z" />
    <glyph glyph-name="colonmonetary" unicode="&#x20a1;" horiz-adv-x="655" 
d="M512 480l-79 -364h9l47 47v57h136v-107l-113 -113h-104l-24 -110h-100l24 110h-70l-24 -110h-100l30 136l-89 89v470l115 115h119l24 110h100l-24 -110h70l24 110h100l-32 -149l74 -74v-107h-113zM191 246l73 338h-22l-51 -51v-287zM333 116l101 468h-70l-101 -468h70z
" />
    <glyph glyph-name="lira" unicode="&#x20a4;" horiz-adv-x="632" 
d="M612 114v-114h-555v146l63 73h-80v100h93v44h-93v100h93v111l126 126h231l112 -112v-86h-132v47l-37 37h-115l-51 -51v-72h237v-100h-237v-44h237v-100h-237l-72 -84v-21h417z" />
    <glyph glyph-name="uni20A6" unicode="&#x20a6;" horiz-adv-x="793" 
d="M783 293h-106v-293h-122l-193 293h-121v-293h-131v293h-100v112h100v295h122l194 -295h120v295h131v-295h106v-112zM288 405l-45 69h-2v-69h47zM546 293h-47l45 -68h2v68z" />
    <glyph glyph-name="peseta" unicode="&#x20a7;" horiz-adv-x="752" 
d="M742 414h-86v-67l-108 -109h-302v-238h-136v414h-100v112h100v174h439l107 -108v-66h86v-112zM246 526h276v25l-35 35h-241v-60zM522 414h-276v-62h241l35 35v27z" />
    <glyph glyph-name="dong" unicode="&#x20ab;" horiz-adv-x="615" 
d="M620 550h-78v-550h-124v77l-77 -77h-188l-103 104v290l103 104h198l59 -51v103h-157v94h157v70h132v-70h78v-94zM410 325l-68 61h-122l-38 -39v-196l38 -39h109l81 83v130zM100 -52h410v-104h-410v104z" />
    <glyph glyph-name="Euro" unicode="&#x20ac;" horiz-adv-x="705" 
d="M539 480v57l-47 47h-200l-51 -51v-58h201v-100h-201v-58h201v-100h-201v-50l51 -51h200l47 47v57h136v-107l-113 -113h-342l-115 115v102h-90v100h90v58h-90v100h90v110l115 115h342l113 -113v-107h-136z" />
    <glyph glyph-name="uni20B1" unicode="&#x20b1;" horiz-adv-x="752" 
d="M656 487v-36h86v-72h-86v-32l-108 -109h-302v-238h-136v379h-100v72h100v36h-100v72h100v141h439l107 -108v-33h86v-72h-86zM246 559h268l-27 27h-241v-27zM522 487h-276v-36h276v36zM514 379h-268v-27h241z" />
    <glyph glyph-name="uni20B2" unicode="&#x20b2;" horiz-adv-x="676" 
d="M495 480v56l-47 48h-46v-194h229v-277l-113 -113h-116v-110h-114v110h-118l-115 115v470l115 115h118v110h114v-110h116l113 -113v-107h-136zM288 584h-46l-51 -51v-366l51 -51h46v468zM402 274v-158h50l47 47v111h-97z" />
    <glyph glyph-name="uni20B5" unicode="&#x20b5;" horiz-adv-x="655" 
d="M489 480v57l-47 47h-37v-468h37l47 47v57h136v-107l-113 -113h-107v-110h-114v110h-121l-115 115v470l115 115h121v110h114v-110h107l113 -113v-107h-136zM291 584h-49l-51 -51v-366l51 -51h49v468z" />
    <glyph glyph-name="uni20B9" unicode="&#x20b9;" horiz-adv-x="670" 
d="M630 598h-160l36 -36v-30h124v-98h-124v-54l-69 -69l73 -79v-232h-136v202l-63 67h-271v112h296l36 35v18h-332v98h332v19l-36 35h-296v114h590v-102z" />
    <glyph glyph-name="uni20BA" unicode="&#x20ba;" horiz-adv-x="635" 
d="M610 300v-108l-192 -192h-278v239l-100 -32v100l100 32v53l-100 -32v100l100 32v208h134v-166l172 55v-100l-172 -55v-53l172 55v-100l-172 -55v-165h88l116 114v70h132z" />
    <glyph glyph-name="uni20BD" unicode="&#x20bd;" horiz-adv-x="691" 
d="M656 592v-245l-108 -109h-302v-56h181v-102h-181v-80h-136v80h-100v102h100v56h-100v112h100v350h439zM246 352h241l35 35v164l-35 35h-241v-234z" />
    <glyph glyph-name="uni210A" unicode="&#x210a;" horiz-adv-x="602" 
d="M82 -214v98l83 83h245v116l-71 -65h-186l-103 104v272l103 104h196l71 -68v68h122v-527h84v-98h-84v-76l-101 -101h-269zM329 126l81 79v120l-68 61h-122l-38 -39v-182l38 -39h109zM383 -210l29 29v56h-187l-19 -19v-42l24 -24h153z" />
    <glyph glyph-name="uni2113" unicode="&#x2113;" horiz-adv-x="508" 
d="M468 196v-98l-97 -98h-174l-97 98v128l-61 -30l-44 94l105 53v259l97 98h170l97 -98v-199l-230 -112v-156l22 -23h58l22 23v61h132zM234 411l96 48v108l-22 23h-52l-22 -23v-156z" />
    <glyph glyph-name="uni2117" unicode="&#x2117;" horiz-adv-x="838" 
d="M40 193v314l193 193h372l193 -193v-314l-193 -193h-372zM558 102l132 132v232l-132 132h-278l-132 -132v-232l132 -132h278zM261 545h278l80 -80v-124l-80 -80h-170v-107h-108v391zM489 348l24 24v62l-24 24h-120v-110h120z" />
    <glyph glyph-name="uni2120" unicode="&#x2120;" horiz-adv-x="855" 
d="M40 419v43h114v-16l10 -10h88l10 10v28l-10 10h-143l-68 69v79l68 68h195l66 -66v-44h-112v15l-10 10h-85l-10 -10v-27l10 -10h148l63 -63v-85l-69 -69h-197zM417 700h117l81 -156h1l83 156h116v-349h-112v180h-3l-65 -117h-39l-64 117h-3v-180h-112v349z" />
    <glyph glyph-name="trademark" unicode="&#x2122;" horiz-adv-x="826" 
d="M138 601h-98v99h315v-99h-99v-250h-118v250zM388 700h117l81 -156h1l83 156h116v-349h-112v180h-3l-65 -117h-39l-64 117h-3v-180h-112v349z" />
    <glyph glyph-name="estimated" unicode="&#x212e;" horiz-adv-x="796" 
d="M228 32.5q-81 42.5 -127 119t-46 175.5t45.5 175.5t124.5 119t178 42.5q96 0 173 -40t121 -113t44 -168v-17h-541v-231q26 -34 84 -54.5t126 -20.5q79 0 149.5 34t108.5 90h37q-41 -69 -122 -111.5t-173 -42.5q-101 0 -182 42.5zM608 357v208q-28 30 -84 49.5t-121 19.5
q-62 0 -118 -18t-85 -47v-212h408z" />
    <glyph glyph-name="uni2153" unicode="&#x2153;" horiz-adv-x="926" 
d="M525 78v63h124v-26l13 -14h84l14 14v41l-11 11h-117v88h117l11 12v38l-14 14h-79l-14 -14v-26h-124v63l78 78h201l78 -78v-100l-31 -31l31 -31v-102l-77 -78h-206zM685 700l-401 -700h-136l401 700h136zM136 566l-96 -47v114l122 67h100v-420h-126v286z" />
    <glyph glyph-name="uni2154" unicode="&#x2154;" horiz-adv-x="1041" 
d="M42 377l223 173v32l-14 14h-73l-14 -14v-40h-124v78l80 80h191l80 -80v-107l-183 -131v-4h185v-98h-351v97zM640 78v63h124v-26l13 -14h84l14 14v41l-11 11h-117v88h117l11 12v38l-14 14h-79l-14 -14v-26h-124v63l78 78h201l78 -78v-100l-31 -31l31 -31v-102l-77 -78
h-206zM805 700l-401 -700h-136l401 700h136z" />
    <glyph glyph-name="oneeighth" unicode="&#x215b;" horiz-adv-x="941" 
d="M528 77v95l46 44l-40 43v86l76 76h210l75 -76v-86l-39 -43l45 -44v-95l-75 -76h-222zM759 259l14 14v37l-14 14h-88l-14 -14v-37l14 -14h88zM765 98l14 14v41l-14 14h-100l-14 -14v-41l14 -14h100zM685 700l-401 -700h-136l401 700h136zM136 566l-96 -47v114l122 67h100
v-420h-126v286z" />
    <glyph glyph-name="threeeighths" unicode="&#x215c;" horiz-adv-x="1036" 
d="M40 358v63h124v-26l13 -14h84l14 14v41l-11 11h-117v88h117l11 12v38l-14 14h-79l-14 -14v-26h-124v63l78 78h201l78 -78v-100l-31 -31l31 -31v-102l-77 -78h-206zM623 77v95l46 44l-40 43v86l76 76h210l75 -76v-86l-39 -43l45 -44v-95l-75 -76h-222zM854 259l14 14v37
l-14 14h-88l-14 -14v-37l14 -14h88zM860 98l14 14v41l-14 14h-100l-14 -14v-41l14 -14h100zM785 700l-401 -700h-136l401 700h136z" />
    <glyph glyph-name="fiveeighths" unicode="&#x215d;" horiz-adv-x="1035" 
d="M40 358v65h124v-27l14 -14h82l14 14v50l-14 14h-214v240h346v-100h-224v-40h151l81 -81v-121l-78 -78h-204zM622 77v95l46 44l-40 43v86l76 76h210l75 -76v-86l-39 -43l45 -44v-95l-75 -76h-222zM853 259l14 14v37l-14 14h-88l-14 -14v-37l14 -14h88zM859 98l14 14v41
l-14 14h-100l-14 -14v-41l14 -14h100zM784 700l-401 -700h-136l401 700h136z" />
    <glyph glyph-name="seveneighths" unicode="&#x215e;" horiz-adv-x="938" 
d="M241 590v4h-201v106h346v-96l-174 -324h-138zM525 77v95l46 44l-40 43v86l76 76h210l75 -76v-86l-39 -43l45 -44v-95l-75 -76h-222zM756 259l14 14v37l-14 14h-88l-14 -14v-37l14 -14h88zM762 98l14 14v41l-14 14h-100l-14 -14v-41l14 -14h100zM685 700l-401 -700h-136
l401 700h136z" />
    <glyph glyph-name="arrowleft" unicode="&#x2190;" horiz-adv-x="699" 
d="M40 247v46l133 156h124l-94 -116l456 -1v-126l-456 1l94 -116h-124z" />
    <glyph glyph-name="arrowup" unicode="&#x2191;" horiz-adv-x="438" 
d="M156 422l-116 -94v124l156 133h46l156 -133v-124l-116 94v-456h-126v456z" />
    <glyph glyph-name="arrowright" unicode="&#x2192;" horiz-adv-x="699" 
d="M496 207l-456 -1v126l456 1l-94 116h124l133 -156v-46l-133 -156h-124z" />
    <glyph glyph-name="arrowdown" unicode="&#x2193;" horiz-adv-x="438" 
d="M40 99v124l116 -94v456h126v-456l116 94v-124l-156 -133h-46z" />
    <glyph glyph-name="partialdiff" unicode="&#x2202;" horiz-adv-x="592" 
d="M40 108v246l108 108h209l61 -52v75l-77 103h-154v112h221l144 -195v-397l-108 -108h-296zM383 116l35 35v125l-79 70h-130l-35 -35v-160l35 -35h174z" />
    <glyph glyph-name="product" unicode="&#x220f;" horiz-adv-x="697" 
d="M65 700h567v-810h-132v698h-303v-698h-132v810z" />
    <glyph glyph-name="summation" unicode="&#x2211;" horiz-adv-x="597" 
d="M40 24l213 266l-213 260v150h537v-114h-403v-4l216 -264v-55l-216 -271v-4h403v-114h-537v150z" />
    <glyph glyph-name="minus" unicode="&#x2212;" horiz-adv-x="564" 
d="M40 320h484v-112h-484v112z" />
    <glyph glyph-name="uni2215" unicode="&#x2215;" horiz-adv-x="153" 
d="M210 701h136l-388 -701h-136z" />
    <glyph glyph-name="uni2219" unicode="&#x2219;" horiz-adv-x="372" 
d="M44 229v123l77 80h130l77 -80v-123l-77 -80h-130z" />
    <glyph glyph-name="radical" unicode="&#x221a;" horiz-adv-x="614" 
d="M117 216h-87v112h171l64 -175h6l201 547h132l-265 -700h-138z" />
    <glyph glyph-name="infinity" unicode="&#x221e;" horiz-adv-x="941" 
d="M40 221v156l141 142h167l118 -119l117 119h177l141 -142v-156l-141 -142h-147l-127 128l-128 -128h-177zM307 191l102 103l-112 113h-56l-69 -70v-76l69 -70h66zM700 191l69 68v80l-69 68h-65l-93 -93l123 -123h35z" />
    <glyph glyph-name="integral" unicode="&#x222b;" horiz-adv-x="486" 
d="M-15 -16h97l40 41l113 569l100 102h166v-110h-105l-36 -37l-113 -573l-100 -102h-162v110z" />
    <glyph glyph-name="approxequal" unicode="&#x2248;" horiz-adv-x="576" 
d="M208 365h-19l-23 -24v-60h-126v88l103 104h98l127 -94h15l27 28v56h126v-88l-103 -104h-98zM208 135h-19l-23 -24v-60h-126v88l103 104h98l127 -94h15l27 28v56h126v-88l-103 -104h-98z" />
    <glyph glyph-name="notequal" unicode="&#x2260;" horiz-adv-x="564" 
d="M362 296l-28 -64h190v-112h-239l-48 -110h-132l48 110h-113v112h162l28 64h-190v112h239l48 110h132l-48 -110h113v-112h-162z" />
    <glyph glyph-name="lessequal" unicode="&#x2264;" horiz-adv-x="614" 
d="M40 305v112l544 173v-113l-381 -115v-6l381 -121v-113zM40 0v104h544v-104h-544z" />
    <glyph glyph-name="greaterequal" unicode="&#x2265;" horiz-adv-x="614" 
d="M40 235l381 121v6l-381 115v113l544 -173v-112l-544 -183v113zM40 104h544v-104h-544v104z" />
    <glyph glyph-name="filledbox" unicode="&#x25a0;" horiz-adv-x="560" 
d="M40 603h480v-484h-480v484z" />
    <glyph glyph-name="triagup" unicode="&#x25b2;" horiz-adv-x="660" 
d="M330 588l290 -588h-580z" />
    <glyph glyph-name="uni25B3" unicode="&#x25b3;" horiz-adv-x="660" 
d="M330 588l290 -588h-580zM470 92l-140 292l-140 -292h280z" />
    <glyph glyph-name="uni25B6" unicode="&#x25b6;" horiz-adv-x="661" 
d="M40 586l581 -294l-581 -294v588z" />
    <glyph glyph-name="uni25B7" unicode="&#x25b7;" horiz-adv-x="668" 
d="M40 581l588 -290l-588 -291v581zM434 291l-296 141v-283z" />
    <glyph glyph-name="triagdn" unicode="&#x25bc;" horiz-adv-x="660" 
d="M40 584h580l-290 -589z" />
    <glyph glyph-name="uni25BD" unicode="&#x25bd;" horiz-adv-x="660" 
d="M40 588h580l-290 -588zM470 496h-280l140 -292z" />
    <glyph glyph-name="uni25C0" unicode="&#x25c0;" horiz-adv-x="661" 
d="M40 292l581 294v-588z" />
    <glyph glyph-name="uni25C1" unicode="&#x25c1;" horiz-adv-x="668" 
d="M40 291l588 290v-581zM530 432l-296 -141l296 -142v283z" />
    <glyph glyph-name="uni25C6" unicode="&#x25c6;" horiz-adv-x="604" 
d="M40 330l261 269l263 -269l-263 -268z" />
    <glyph glyph-name="lozenge" unicode="&#x25ca;" horiz-adv-x="574" 
d="M40 340l181 340h132l181 -340l-181 -340h-132zM290 132l107 208l-107 208h-6l-107 -208l107 -208h6z" />
    <glyph glyph-name="dieresis_acute" unicode="&#xf6d7;" 
d="M9 868h125l-86 -139h-102zM-182 590v58l39 39h67l38 -40v-56l-38 -40h-67zM38 591v56l38 40h67l39 -39v-58l-39 -39h-67z" />
    <glyph glyph-name="dieresis_grave" unicode="&#xf6d8;" 
d="M-137 868h125l63 -139h-102zM-182 590v58l39 39h67l38 -40v-56l-38 -40h-67zM38 591v56l38 40h67l39 -39v-58l-39 -39h-67z" />
    <glyph glyph-name="uniF8FF" unicode="&#xf8ff;" horiz-adv-x="539" 
d="M65 712h409v-712h-409v712zM418 54v603h-297v-603h297z" />
    <glyph glyph-name="yoYingthai.less" horiz-adv-x="899" 
d="M76 67v213l51 65l-92 81l121 132h292l96 -97v-323l24 -24h108l24 24v420h134v-468l-90 -90h-242l-90 90v327l-26 27h-179l-23 -24l81 -76l-57 -75v-33l-2 -12h42l66 -66v-91l-67 -67h-104zM213 75l20 20v34l-20 20h-34l-20 -20v-34l20 -20h34z" />
    <glyph glyph-name="doChadathai.short" horiz-adv-x="639" 
d="M88 -165v85l69 67h207l76 -74v504l-26 27h-193l-23 -24l98 -76l-42 -78v-188l-67 -68h-103l-69 67v94l65 65h46l-4 16v32l36 61l-109 81l121 132h308l96 -97v-695h-91l-55 54l-53 -54h-218zM151 87l20 20v34l-20 20h-34l-20 -20v-34l20 -20h34zM332 -158l29 32l-37 37
h-121l-19 -19v-31l19 -19h129z" />
    <glyph glyph-name="toPatakthai.short" horiz-adv-x="639" 
d="M64 -169v86l65 65h131l85 -100l39 72l56 -62v525l-26 27h-193l-23 -24l98 -76l-42 -78v-188l-67 -68h-103l-69 67v94l65 65h46l-4 16v32l36 61l-109 81l121 132h308l96 -97v-695h-103l-71 76l-45 -76l-55 66l-58 -66h-113zM151 87l20 20v34l-20 20h-34l-20 -20v-34
l20 -20h34zM223 -159l31 36l-30 34h-63l-18 -18v-34l18 -18h62z" />
    <glyph glyph-name="thoThanthai.less" horiz-adv-x="548" 
d="M154 433v-9l329 -54v-370h-134v71l-36 36l-51 -49h-88l-68 69v82l67 68h95l87 -87v103l-335 59v108l97 98h376v-104h-319zM257 184l-20 20h-33l-20 -20v-33l20 -20h33l20 20v33z" />
    <glyph glyph-name="uni0E24.short" horiz-adv-x="625" 
d="M426 417l-26 27h-193l-23 -24l81 -76l-57 -75v-33l-2 -12h42l66 -66v-91l-67 -67h-104l-67 67v213l51 65l-92 81l121 132h308l96 -97v-571h-134v527zM213 75l20 20v34l-20 20h-34l-20 -20v-34l20 -20h34z" />
    <glyph glyph-name="uni0E26.short" horiz-adv-x="639" 
d="M440 417l-26 27h-193l-23 -24l98 -76l-42 -78v-198l-67 -68h-103l-69 67v94l65 65h46l-4 16v42l36 61l-109 81l121 132h308l96 -97v-571h-134v527zM151 77l20 20v34l-20 20h-34l-20 -20v-34l20 -20h34z" />
    <glyph glyph-name="loChulathai.short" horiz-adv-x="722" 
d="M136 286l8 34h-56l-73 73v90l75 75h104l72 -72v-306h3l94 156h50l94 -156h3v153l4 25h-46l-66 66v88l66 66h99l59 -60v-32l49 51l52 -68l-87 -90v-379h-128l-124 206l-123 -206h-129v286zM530 433l20 20v30l-20 20h-28l-21 -20v-30l21 -20h28zM159 400l20 20v36l-20 20
h-36l-20 -20v-36l20 -20h36z" />
    <glyph glyph-name="breve_acute" 
d="M8 878h125l-86 -139h-102zM-168 627v76h112v-48l27 -27h58l27 27v48h112v-76l-83 -83h-170z" />
    <glyph glyph-name="breve_grave" 
d="M-138 878h125l63 -139h-102zM-168 627v76h112v-48l27 -27h58l27 27v48h112v-76l-83 -83h-170z" />
    <glyph glyph-name="breve_hookabove" 
d="M-49 774l73 55v21l-10 10h-28l-10 -10v-28h-88v50l56 56h112l56 -56v-67l-62 -44v-22h-99v35zM-168 627v76h112v-48l27 -27h58l27 27v48h112v-76l-83 -83h-170z" />
    <glyph glyph-name="breve_tilde" 
d="M-40 789h-25l-13 -12v-32h-88v59l67 67h75l64 -50h26l12 12v32h88v-59l-67 -67h-75zM-168 627v76h112v-48l27 -27h58l27 27v48h112v-76l-83 -83h-170z" />
    <glyph glyph-name="circumflex_acute" 
d="M170 822h125l-86 -139h-102zM-53 705h106l142 -161h-127l-65 75h-6l-65 -75h-127z" />
    <glyph glyph-name="circumflex_grave" 
d="M47 822h125l63 -139h-102zM-53 705h106l142 -161h-127l-65 75h-6l-65 -75h-127z" />
    <glyph glyph-name="circumflex_hookabove" 
d="M136 692l73 57v23l-10 10h-28l-10 -10v-30h-88v54l56 56h112l56 -56v-71l-62 -46v-24h-99v37zM-53 705h106l142 -161h-127l-65 75h-6l-65 -75h-127z" />
    <glyph glyph-name="circumflex_tilde" 
d="M-40 791h-25l-13 -12v-32h-88v59l67 67h75l64 -50h26l12 12v32h88v-59l-67 -67h-75zM-53 705h106l142 -161h-127l-65 75h-6l-65 -75h-127z" />
    <glyph glyph-name="dieresis_caron" 
d="M-181 873h113l65 -75h6l65 75h113l-132 -153h-98zM-182 590v58l39 39h67l38 -40v-56l-38 -40h-67zM38 591v56l38 40h67l39 -39v-58l-39 -39h-67z" />
    <glyph glyph-name="dieresis_macron" 
d="M-170 849h340v-98h-340v98zM-182 590v58l39 39h67l38 -40v-56l-38 -40h-67zM38 591v56l38 40h67l39 -39v-58l-39 -39h-67z" />
    <glyph glyph-name="uni0E31.narrow" 
d="M-640 692v89l63 63h94l63 -63v-52h51l82 93l73 -78l-104 -116h-258zM-514 703l18 18v32l-18 18h-32l-18 -18v-32l18 -18h32z" />
    <glyph glyph-name="uni0E48.small" 
d="M-178 1117h113v-172h-113v172z" />
    <glyph glyph-name="uni0E48.narrow" 
d="M-397 838h131v-210h-131v210z" />
    <glyph glyph-name="uni0E49.small" 
d="M-322 1019h82l12 19h-40l-40 39v65l50 50h80l50 -50v-79l-24 -40h55l104 142l68 -62l-117 -158h-280v74zM-207 1082l17 17v24l-17 17h-22l-17 -17v-24l17 -17h22z" />
    <glyph glyph-name="uni0E49.narrow" 
d="M-620 712h80l14 20h-46l-46 44v74l57 57h90l55 -55v-92l-28 -44h50l107 144l76 -69l-123 -163h-286v84zM-504 782l19 19v28l-19 19h-26l-19 -19v-28l19 -19h26z" />
    <glyph glyph-name="uni0E4A.small" 
d="M-390 989v97l78 88h77l34 -35l33 35h60l57 -57v-89h5l72 111l59 -50l-96 -144h-164v68h41v82l-8 9h-14l-45 -46l-47 46h-28l-25 -26h33l43 -43v-46l-46 -48h-73zM-297 990l14 14v19l-14 14h-20l-14 -14v-19l14 -14h20z" />
    <glyph glyph-name="uni0E4A.narrow" 
d="M-678 678v118l86 93h65l37 -35l35 35h59l57 -55v-112h4l71 106l57 -54l-100 -146h-158v76h38v95l-10 10h-14l-39 -41l-41 41h-34l-29 -29h39l49 -49v-53l-52 -54h-68zM-580 680l16 16v21l-16 16h-22l-16 -16v-21l16 -16h22z" />
    <glyph glyph-name="uni0E4B.small" 
d="M19 1013h-90v-69h-103v69h-90v81h90v69h103v-69h90v-81z" />
    <glyph glyph-name="uni0E4C.small" 
d="M-114 1116l43 -40v-76l-56 -56h-91l-56 56v85l161 162l65 -65zM-139 1055l-18 18h-30l-18 -18v-30l18 -18h30l18 18v30z" />
    <glyph glyph-name="uni0E4C.narrow" 
d="M-302 813l38 -37v-88l-60 -60h-97l-60 60v91l185 186l74 -73zM-337 748l-19 19h-30l-19 -19v-32l19 -19h30l19 19v32z" />
    <glyph glyph-name="uni0E47.narrow" 
d="M-637 814l80 80h207l70 70l64 -65l-87 -89h-214l-22 -22v-76l67 57l59 -50h10v20l46 47h76l46 -47v-66l-44 -45h-139l-62 53l-63 -53h-94v186zM-305 678l16 16v26l-16 16h-28l-16 -16v-26l16 -16h28z" />
    <glyph glyph-name="uni0E34.narrow" 
d="M-682 742l105 105h231l105 -105v-114h-441v114zM-357 706v24l-35 35h-139l-35 -35v-24h209z" />
    <glyph glyph-name="uni0E35.narrow" 
d="M-241 893v-265h-441v114l105 105h168l53 -44v90h115zM-373 734l-36 31h-124l-33 -33v-26h193v28z" />
    <glyph glyph-name="uni0E36.narrow" 
d="M-222 747l-49 -43v-76h-419v114l105 105h146l22 -18v6l56 59h83l56 -56v-91zM-355 811v-31l23 -19h27l18 18v32l-18 18h-32zM-403 734l-36 31h-102l-33 -33v-26h171v28z" />
    <glyph glyph-name="uni0E37.narrow" 
d="M-241 893v-265h-441v114l105 105h101v46h95v-70l45 -38v108h95zM-373 730l-40 35h-120l-33 -33v-26h193v24z" />
    <glyph glyph-name="uni0E4D0E48" 
d="M-266 698v94l73 74h108l73 -74v-94l-73 -74h-108zM-120 699l28 28v36l-28 28h-38l-28 -28v-36l28 -28h38zM-195 1093h113v-172h-113v172z" />
    <glyph glyph-name="uni0E4D0E49" 
d="M-266 698v94l73 74h108l73 -74v-94l-73 -74h-108zM-120 699l28 28v36l-28 28h-38l-28 -28v-36l28 -28h38zM-311 995h82l12 19h-40l-40 39v65l50 50h80l50 -50v-79l-24 -40h55l104 142l68 -62l-117 -158h-280v74zM-196 1058l17 17v24l-17 17h-22l-17 -17v-24l17 -17h22z
" />
    <glyph glyph-name="uni0E4D0E4A" 
d="M-266 698v94l73 74h108l73 -74v-94l-73 -74h-108zM-120 699l28 28v36l-28 28h-38l-28 -28v-36l28 -28h38zM-363 965v97l78 88h77l34 -35l33 35h60l57 -57v-89h5l72 111l59 -50l-96 -144h-164v68h41v82l-8 9h-14l-45 -46l-47 46h-28l-25 -26h33l43 -43v-46l-46 -48h-73z
M-270 966l14 14v19l-14 14h-20l-14 -14v-19l14 -14h20z" />
    <glyph glyph-name="uni0E4D0E4B" 
d="M-266 698v94l73 74h108l73 -74v-94l-73 -74h-108zM-120 699l28 28v36l-28 28h-38l-28 -28v-36l28 -28h38zM3 990h-90v-69h-103v69h-90v81h90v69h103v-69h90v-81z" />
    <glyph glyph-name="uni0E3A.small" 
d="M-215 -383v64l47 47h72l47 -47v-64l-47 -47h-72z" />
    <glyph glyph-name="uni0E38.small" 
d="M-195 -534l10 44h-49l-71 71v76l71 71h96l73 -73v-221h-130v32zM-169 -419l21 22v30l-21 22h-32l-21 -22v-30l21 -22h32z" />
    <glyph glyph-name="uni0E39.small" 
d="M-362 -507v19l2 12h-50l-62 61v82l67 67h94l65 -65v-137h67v196h114v-233l-61 -61h-177zM-343 -413l21 22v30l-21 22h-32l-21 -22v-30l21 -22h32z" />
    <glyph glyph-name="uni0E4B.narrow" 
d="M-233 709h-97v-81h-125v81h-97v84h97v80h125v-80h97v-84z" />
    <glyph glyph-name="uni0E4D.narrow" 
d="M-495 698v94l73 74h108l73 -74v-94l-73 -74h-108zM-349 699l28 28v36l-28 28h-38l-28 -28v-36l28 -28h38z" />
    <glyph glyph-name="uni0E4D0E48.narrow" 
d="M-495 698v94l73 74h108l73 -74v-94l-73 -74h-108zM-349 699l28 28v36l-28 28h-38l-28 -28v-36l28 -28h38zM-424 1093h113v-172h-113v172z" />
    <glyph glyph-name="uni0E4D0E49.narrow" 
d="M-495 698v94l73 74h108l73 -74v-94l-73 -74h-108zM-349 699l28 28v36l-28 28h-38l-28 -28v-36l28 -28h38zM-531 995h82l12 19h-40l-40 39v65l50 50h80l50 -50v-79l-24 -40h55l104 142l68 -62l-117 -158h-280v74zM-416 1058l17 17v24l-17 17h-22l-17 -17v-24l17 -17h22z
" />
    <glyph glyph-name="uni0E4D0E4A.narrow" 
d="M-495 698v94l73 74h108l73 -74v-94l-73 -74h-108zM-349 699l28 28v36l-28 28h-38l-28 -28v-36l28 -28h38zM-564 965v97l78 88h77l34 -35l33 35h60l57 -57v-89h5l72 111l59 -50l-96 -144h-164v68h41v82l-8 9h-14l-45 -46l-47 46h-28l-25 -26h33l43 -43v-46l-46 -48h-73z
M-471 966l14 14v19l-14 14h-20l-14 -14v-19l14 -14h20z" />
    <glyph glyph-name="uni0E4D0E4B.narrow" 
d="M-495 698v94l73 74h108l73 -74v-94l-73 -74h-108zM-349 699l28 28v36l-28 28h-38l-28 -28v-36l28 -28h38zM-226 990h-90v-69h-103v69h-90v81h90v69h103v-69h90v-81z" />
    </font>
</defs>
</svg>
